%TF.GenerationSoftware,KiCad,Pcbnew,(6.0.2)*%
%TF.CreationDate,2022-03-07T20:12:54-06:00*%
%TF.ProjectId,bike_alarm,62696b65-5f61-46c6-9172-6d2e6b696361,rev?*%
%TF.SameCoordinates,Original*%
%TF.FileFunction,Copper,L1,Top*%
%TF.FilePolarity,Positive*%
%FSLAX46Y46*%
G04 Gerber Fmt 4.6, Leading zero omitted, Abs format (unit mm)*
G04 Created by KiCad (PCBNEW (6.0.2)) date 2022-03-07 20:12:54*
%MOMM*%
%LPD*%
G01*
G04 APERTURE LIST*
G04 Aperture macros list*
%AMRoundRect*
0 Rectangle with rounded corners*
0 $1 Rounding radius*
0 $2 $3 $4 $5 $6 $7 $8 $9 X,Y pos of 4 corners*
0 Add a 4 corners polygon primitive as box body*
4,1,4,$2,$3,$4,$5,$6,$7,$8,$9,$2,$3,0*
0 Add four circle primitives for the rounded corners*
1,1,$1+$1,$2,$3*
1,1,$1+$1,$4,$5*
1,1,$1+$1,$6,$7*
1,1,$1+$1,$8,$9*
0 Add four rect primitives between the rounded corners*
20,1,$1+$1,$2,$3,$4,$5,0*
20,1,$1+$1,$4,$5,$6,$7,0*
20,1,$1+$1,$6,$7,$8,$9,0*
20,1,$1+$1,$8,$9,$2,$3,0*%
G04 Aperture macros list end*
%TA.AperFunction,SMDPad,CuDef*%
%ADD10RoundRect,0.250000X0.450000X-0.350000X0.450000X0.350000X-0.450000X0.350000X-0.450000X-0.350000X0*%
%TD*%
%TA.AperFunction,SMDPad,CuDef*%
%ADD11RoundRect,0.250000X-0.475000X0.250000X-0.475000X-0.250000X0.475000X-0.250000X0.475000X0.250000X0*%
%TD*%
%TA.AperFunction,SMDPad,CuDef*%
%ADD12RoundRect,0.150000X-0.150000X0.587500X-0.150000X-0.587500X0.150000X-0.587500X0.150000X0.587500X0*%
%TD*%
%TA.AperFunction,ComponentPad*%
%ADD13R,1.700000X1.700000*%
%TD*%
%TA.AperFunction,ComponentPad*%
%ADD14O,1.700000X1.700000*%
%TD*%
%TA.AperFunction,ComponentPad*%
%ADD15C,1.000000*%
%TD*%
%TA.AperFunction,ViaPad*%
%ADD16C,0.800000*%
%TD*%
%TA.AperFunction,Conductor*%
%ADD17C,0.500000*%
%TD*%
%TA.AperFunction,Conductor*%
%ADD18C,1.000000*%
%TD*%
G04 APERTURE END LIST*
D10*
%TO.P,R2,1*%
%TO.N,+3V3*%
X138957000Y-88473000D03*
%TO.P,R2,2*%
%TO.N,Net-(Q1-Pad3)*%
X138957000Y-86473000D03*
%TD*%
%TO.P,R1,1*%
%TO.N,/ALARM_CTRL*%
X132461000Y-88392000D03*
%TO.P,R1,2*%
%TO.N,Net-(Q1-Pad1)*%
X132461000Y-86392000D03*
%TD*%
D11*
%TO.P,C1,1*%
%TO.N,+3V3*%
X124125000Y-80550000D03*
%TO.P,C1,2*%
%TO.N,GND*%
X124125000Y-82450000D03*
%TD*%
D12*
%TO.P,Q1,1,G*%
%TO.N,Net-(Q1-Pad1)*%
X126953000Y-86184500D03*
%TO.P,Q1,2,S*%
%TO.N,GND*%
X125053000Y-86184500D03*
%TO.P,Q1,3,D*%
%TO.N,Net-(Q1-Pad3)*%
X126003000Y-88059500D03*
%TD*%
D13*
%TO.P,J1,1,Pin_1*%
%TO.N,+3V3*%
X121158000Y-81407000D03*
D14*
%TO.P,J1,2,Pin_2*%
%TO.N,/ALARM_CTRL*%
X121158000Y-83947000D03*
%TO.P,J1,3,Pin_3*%
%TO.N,GND*%
X121158000Y-86487000D03*
%TD*%
D15*
%TO.P,Y1,1,1*%
%TO.N,Net-(Q1-Pad3)*%
X126111000Y-82042000D03*
%TO.P,Y1,2,2*%
%TO.N,+3V3*%
X126111000Y-79502000D03*
%TD*%
D16*
%TO.N,GND*%
X129540000Y-85471000D03*
X119761000Y-78867000D03*
X129540000Y-88011000D03*
X135636000Y-88138000D03*
%TD*%
D17*
%TO.N,Net-(Q1-Pad1)*%
X127160500Y-86392000D02*
X126953000Y-86184500D01*
X132461000Y-86392000D02*
X127160500Y-86392000D01*
%TO.N,GND*%
X121460500Y-86184500D02*
X121158000Y-86487000D01*
X125053000Y-86184500D02*
X121460500Y-86184500D01*
%TO.N,/ALARM_CTRL*%
X119858489Y-89378489D02*
X119888000Y-89408000D01*
X119888000Y-89408000D02*
X131445000Y-89408000D01*
X121158000Y-83947000D02*
X119858489Y-85246511D01*
X131445000Y-89408000D02*
X132461000Y-88392000D01*
X119858489Y-85246511D02*
X119858489Y-89378489D01*
D18*
%TO.N,+3V3*%
X140356520Y-83841520D02*
X140356520Y-87731480D01*
X126111000Y-79502000D02*
X136017000Y-79502000D01*
X121158000Y-80692000D02*
X122348000Y-79502000D01*
X139615000Y-88473000D02*
X138957000Y-88473000D01*
X124125000Y-80550000D02*
X125063000Y-80550000D01*
X126111000Y-79502000D02*
X122348000Y-79502000D01*
X121158000Y-81407000D02*
X121158000Y-80692000D01*
X140356520Y-87731480D02*
X139615000Y-88473000D01*
X125063000Y-80550000D02*
X126111000Y-79502000D01*
X136017000Y-79502000D02*
X140356520Y-83841520D01*
D17*
%TO.N,Net-(Q1-Pad3)*%
X126003000Y-88059500D02*
X126003000Y-84690000D01*
X126003000Y-84690000D02*
X126111000Y-84582000D01*
X126111000Y-84582000D02*
X126111000Y-82042000D01*
X137066000Y-84582000D02*
X138957000Y-86473000D01*
X126111000Y-84582000D02*
X137066000Y-84582000D01*
%TD*%
%TA.AperFunction,Conductor*%
%TO.N,GND*%
G36*
X136767750Y-85360502D02*
G01*
X136788724Y-85377405D01*
X137711595Y-86300276D01*
X137745621Y-86362588D01*
X137748500Y-86389371D01*
X137748500Y-86873400D01*
X137748837Y-86876646D01*
X137748837Y-86876650D01*
X137751612Y-86903389D01*
X137759474Y-86979166D01*
X137815450Y-87146946D01*
X137908522Y-87297348D01*
X137987961Y-87376648D01*
X137995109Y-87383784D01*
X138029188Y-87446066D01*
X138024185Y-87516886D01*
X137995264Y-87561975D01*
X137907695Y-87649697D01*
X137903855Y-87655927D01*
X137903854Y-87655928D01*
X137868655Y-87713032D01*
X137814885Y-87800262D01*
X137812581Y-87807209D01*
X137784228Y-87892692D01*
X137759203Y-87968139D01*
X137758503Y-87974975D01*
X137758502Y-87974978D01*
X137754091Y-88018031D01*
X137748500Y-88072600D01*
X137748500Y-88873400D01*
X137748837Y-88876646D01*
X137748837Y-88876650D01*
X137751612Y-88903389D01*
X137759474Y-88979166D01*
X137815450Y-89146946D01*
X137908522Y-89297348D01*
X137913704Y-89302521D01*
X137946536Y-89335296D01*
X138033697Y-89422305D01*
X138039927Y-89426145D01*
X138039928Y-89426146D01*
X138165223Y-89503379D01*
X138184262Y-89515115D01*
X138251465Y-89537405D01*
X138345611Y-89568632D01*
X138345613Y-89568632D01*
X138352139Y-89570797D01*
X138358975Y-89571497D01*
X138358978Y-89571498D01*
X138402031Y-89575909D01*
X138456600Y-89581500D01*
X139457400Y-89581500D01*
X139460646Y-89581163D01*
X139460650Y-89581163D01*
X139556308Y-89571238D01*
X139556312Y-89571237D01*
X139563166Y-89570526D01*
X139569702Y-89568345D01*
X139569704Y-89568345D01*
X139632372Y-89547437D01*
X139730946Y-89514550D01*
X139737167Y-89510700D01*
X139737172Y-89510698D01*
X139789624Y-89478240D01*
X139819502Y-89464765D01*
X139900834Y-89440209D01*
X139901967Y-89439874D01*
X139985414Y-89415630D01*
X139985418Y-89415628D01*
X139991336Y-89413909D01*
X139996068Y-89411456D01*
X140001169Y-89409916D01*
X140006612Y-89407022D01*
X140083260Y-89366269D01*
X140084426Y-89365657D01*
X140161453Y-89325729D01*
X140166926Y-89322892D01*
X140171089Y-89319569D01*
X140175796Y-89317066D01*
X140247918Y-89258245D01*
X140248774Y-89257554D01*
X140287973Y-89226262D01*
X140290477Y-89223758D01*
X140291195Y-89223116D01*
X140295528Y-89219415D01*
X140329062Y-89192065D01*
X140358291Y-89156733D01*
X140366272Y-89147963D01*
X140826905Y-88687330D01*
X140889217Y-88653305D01*
X140960032Y-88658369D01*
X141016868Y-88700916D01*
X141041679Y-88767436D01*
X141042000Y-88776425D01*
X141042000Y-89941000D01*
X141021998Y-90009121D01*
X140968342Y-90055614D01*
X140916000Y-90067000D01*
X132162871Y-90067000D01*
X132094750Y-90046998D01*
X132048257Y-89993342D01*
X132038153Y-89923068D01*
X132067647Y-89858488D01*
X132073776Y-89851905D01*
X132388276Y-89537405D01*
X132450588Y-89503379D01*
X132477371Y-89500500D01*
X132961400Y-89500500D01*
X132964646Y-89500163D01*
X132964650Y-89500163D01*
X133060308Y-89490238D01*
X133060312Y-89490237D01*
X133067166Y-89489526D01*
X133073702Y-89487345D01*
X133073704Y-89487345D01*
X133227998Y-89435868D01*
X133234946Y-89433550D01*
X133385348Y-89340478D01*
X133510305Y-89215303D01*
X133514146Y-89209072D01*
X133599275Y-89070968D01*
X133599276Y-89070966D01*
X133603115Y-89064738D01*
X133631498Y-88979166D01*
X133656632Y-88903389D01*
X133656632Y-88903387D01*
X133658797Y-88896861D01*
X133661536Y-88870134D01*
X133669172Y-88795598D01*
X133669500Y-88792400D01*
X133669500Y-87991600D01*
X133669163Y-87988350D01*
X133659238Y-87892692D01*
X133659237Y-87892688D01*
X133658526Y-87885834D01*
X133628748Y-87796577D01*
X133604868Y-87725002D01*
X133602550Y-87718054D01*
X133509478Y-87567652D01*
X133422891Y-87481216D01*
X133388812Y-87418934D01*
X133393815Y-87348114D01*
X133422736Y-87303025D01*
X133505134Y-87220483D01*
X133510305Y-87215303D01*
X133517033Y-87204388D01*
X133599275Y-87070968D01*
X133599276Y-87070966D01*
X133603115Y-87064738D01*
X133631498Y-86979166D01*
X133656632Y-86903389D01*
X133656632Y-86903387D01*
X133658797Y-86896861D01*
X133661536Y-86870134D01*
X133669172Y-86795598D01*
X133669500Y-86792400D01*
X133669500Y-85991600D01*
X133669163Y-85988350D01*
X133659238Y-85892692D01*
X133659237Y-85892688D01*
X133658526Y-85885834D01*
X133645842Y-85847814D01*
X133604868Y-85725002D01*
X133602550Y-85718054D01*
X133509478Y-85567652D01*
X133504296Y-85562479D01*
X133504292Y-85562474D01*
X133497479Y-85555673D01*
X133463399Y-85493391D01*
X133468402Y-85422571D01*
X133510899Y-85365698D01*
X133577397Y-85340829D01*
X133586496Y-85340500D01*
X136699629Y-85340500D01*
X136767750Y-85360502D01*
G37*
%TD.AperFunction*%
%TA.AperFunction,Conductor*%
G36*
X122809532Y-80570868D02*
G01*
X122866368Y-80613415D01*
X122891179Y-80679935D01*
X122891500Y-80688924D01*
X122891500Y-80850400D01*
X122902474Y-80956166D01*
X122958450Y-81123946D01*
X123051522Y-81274348D01*
X123176697Y-81399305D01*
X123181235Y-81402102D01*
X123221824Y-81459353D01*
X123225054Y-81530276D01*
X123189428Y-81591687D01*
X123180932Y-81599062D01*
X123170793Y-81607098D01*
X123056261Y-81721829D01*
X123047249Y-81733240D01*
X122962184Y-81871243D01*
X122956037Y-81884424D01*
X122904862Y-82038710D01*
X122901995Y-82052086D01*
X122892328Y-82146438D01*
X122892000Y-82152855D01*
X122892000Y-82177885D01*
X122896475Y-82193124D01*
X122897865Y-82194329D01*
X122905548Y-82196000D01*
X124253000Y-82196000D01*
X124321121Y-82216002D01*
X124367614Y-82269658D01*
X124379000Y-82322000D01*
X124379000Y-83439884D01*
X124383475Y-83455123D01*
X124384865Y-83456328D01*
X124392548Y-83457999D01*
X124647095Y-83457999D01*
X124653614Y-83457662D01*
X124749206Y-83447743D01*
X124762600Y-83444851D01*
X124916784Y-83393412D01*
X124929962Y-83387239D01*
X125067807Y-83301937D01*
X125079208Y-83292901D01*
X125137327Y-83234681D01*
X125199610Y-83200602D01*
X125270430Y-83205605D01*
X125327303Y-83248102D01*
X125352171Y-83314601D01*
X125352500Y-83323699D01*
X125352500Y-84262365D01*
X125340650Y-84315710D01*
X125322345Y-84354875D01*
X125320442Y-84358769D01*
X125287231Y-84423808D01*
X125285492Y-84430916D01*
X125283393Y-84436559D01*
X125281476Y-84442322D01*
X125278378Y-84448950D01*
X125276888Y-84456112D01*
X125276888Y-84456113D01*
X125263514Y-84520412D01*
X125262544Y-84524696D01*
X125245192Y-84595610D01*
X125244500Y-84606764D01*
X125244464Y-84606762D01*
X125244225Y-84610755D01*
X125243851Y-84614947D01*
X125242360Y-84622115D01*
X125242558Y-84629432D01*
X125244454Y-84699521D01*
X125244500Y-84702928D01*
X125244500Y-87188246D01*
X125239497Y-87223398D01*
X125205243Y-87341305D01*
X125197438Y-87368169D01*
X125196934Y-87374574D01*
X125196933Y-87374579D01*
X125194693Y-87403042D01*
X125194500Y-87405498D01*
X125194500Y-88523500D01*
X125174498Y-88591621D01*
X125120842Y-88638114D01*
X125068500Y-88649500D01*
X120742989Y-88649500D01*
X120674868Y-88629498D01*
X120628375Y-88575842D01*
X120616989Y-88523500D01*
X120616989Y-87916194D01*
X120636991Y-87848073D01*
X120690647Y-87801580D01*
X120760921Y-87791476D01*
X120778144Y-87795198D01*
X120782891Y-87796577D01*
X120886250Y-87817606D01*
X120900299Y-87816410D01*
X120904000Y-87806065D01*
X120904000Y-87805517D01*
X121412000Y-87805517D01*
X121416064Y-87819359D01*
X121429478Y-87821393D01*
X121436184Y-87820534D01*
X121446262Y-87818392D01*
X121650255Y-87757191D01*
X121659842Y-87753433D01*
X121851095Y-87659739D01*
X121859945Y-87654464D01*
X122033328Y-87530792D01*
X122041200Y-87524139D01*
X122192052Y-87373812D01*
X122198730Y-87365965D01*
X122323003Y-87193020D01*
X122328313Y-87184183D01*
X122422670Y-86993267D01*
X122426469Y-86983672D01*
X122471340Y-86835984D01*
X124245001Y-86835984D01*
X124245195Y-86840920D01*
X124247430Y-86869336D01*
X124249730Y-86881931D01*
X124292107Y-87027790D01*
X124298352Y-87042221D01*
X124374911Y-87171678D01*
X124384551Y-87184104D01*
X124490896Y-87290449D01*
X124503322Y-87300089D01*
X124632779Y-87376648D01*
X124647210Y-87382893D01*
X124781605Y-87421939D01*
X124795706Y-87421899D01*
X124799000Y-87414630D01*
X124799000Y-86456615D01*
X124794525Y-86441376D01*
X124793135Y-86440171D01*
X124785452Y-86438500D01*
X124263116Y-86438500D01*
X124247877Y-86442975D01*
X124246672Y-86444365D01*
X124245001Y-86452048D01*
X124245001Y-86835984D01*
X122471340Y-86835984D01*
X122488377Y-86779910D01*
X122490555Y-86769837D01*
X122491986Y-86758962D01*
X122489775Y-86744778D01*
X122476617Y-86741000D01*
X121430115Y-86741000D01*
X121414876Y-86745475D01*
X121413671Y-86746865D01*
X121412000Y-86754548D01*
X121412000Y-87805517D01*
X120904000Y-87805517D01*
X120904000Y-86359000D01*
X120924002Y-86290879D01*
X120977658Y-86244386D01*
X121030000Y-86233000D01*
X122476344Y-86233000D01*
X122489875Y-86229027D01*
X122491180Y-86219947D01*
X122449214Y-86052875D01*
X122445894Y-86043124D01*
X122389048Y-85912385D01*
X124245000Y-85912385D01*
X124249475Y-85927624D01*
X124250865Y-85928829D01*
X124258548Y-85930500D01*
X124780885Y-85930500D01*
X124796124Y-85926025D01*
X124797329Y-85924635D01*
X124799000Y-85916952D01*
X124799000Y-84960122D01*
X124795027Y-84946591D01*
X124787129Y-84945456D01*
X124647210Y-84986107D01*
X124632779Y-84992352D01*
X124503322Y-85068911D01*
X124490896Y-85078551D01*
X124384551Y-85184896D01*
X124374911Y-85197322D01*
X124298352Y-85326779D01*
X124292107Y-85341210D01*
X124249731Y-85487065D01*
X124247430Y-85499667D01*
X124245193Y-85528084D01*
X124245000Y-85533014D01*
X124245000Y-85912385D01*
X122389048Y-85912385D01*
X122360972Y-85847814D01*
X122356105Y-85838739D01*
X122240426Y-85659926D01*
X122234136Y-85651757D01*
X122090806Y-85494240D01*
X122083273Y-85487215D01*
X121916139Y-85355222D01*
X121907556Y-85349520D01*
X121870602Y-85329120D01*
X121820631Y-85278687D01*
X121805859Y-85209245D01*
X121830975Y-85142839D01*
X121858327Y-85116232D01*
X121881797Y-85099491D01*
X122037860Y-84988173D01*
X122045742Y-84980319D01*
X122181306Y-84845227D01*
X122196096Y-84830489D01*
X122326453Y-84649077D01*
X122339779Y-84622115D01*
X122423136Y-84453453D01*
X122423137Y-84453451D01*
X122425430Y-84448811D01*
X122490370Y-84235069D01*
X122519529Y-84013590D01*
X122519975Y-83995350D01*
X122521074Y-83950365D01*
X122521074Y-83950361D01*
X122521156Y-83947000D01*
X122502852Y-83724361D01*
X122448431Y-83507702D01*
X122359354Y-83302840D01*
X122238014Y-83115277D01*
X122234532Y-83111450D01*
X122090798Y-82953488D01*
X122059746Y-82889642D01*
X122068141Y-82819143D01*
X122113317Y-82764375D01*
X122139761Y-82750706D01*
X122149393Y-82747095D01*
X122892001Y-82747095D01*
X122892338Y-82753610D01*
X122902257Y-82849206D01*
X122905149Y-82862600D01*
X122956588Y-83016784D01*
X122962761Y-83029962D01*
X123048063Y-83167807D01*
X123057099Y-83179208D01*
X123171829Y-83293739D01*
X123183240Y-83302751D01*
X123321243Y-83387816D01*
X123334424Y-83393963D01*
X123488710Y-83445138D01*
X123502086Y-83448005D01*
X123596438Y-83457672D01*
X123602854Y-83458000D01*
X123852885Y-83458000D01*
X123868124Y-83453525D01*
X123869329Y-83452135D01*
X123871000Y-83444452D01*
X123871000Y-82722115D01*
X123866525Y-82706876D01*
X123865135Y-82705671D01*
X123857452Y-82704000D01*
X122910116Y-82704000D01*
X122894877Y-82708475D01*
X122893672Y-82709865D01*
X122892001Y-82717548D01*
X122892001Y-82747095D01*
X122149393Y-82747095D01*
X122246297Y-82710767D01*
X122254705Y-82707615D01*
X122371261Y-82620261D01*
X122458615Y-82503705D01*
X122509745Y-82367316D01*
X122516500Y-82305134D01*
X122516500Y-80811924D01*
X122536502Y-80743803D01*
X122553405Y-80722829D01*
X122676405Y-80599829D01*
X122738717Y-80565803D01*
X122809532Y-80570868D01*
G37*
%TD.AperFunction*%
%TA.AperFunction,Conductor*%
G36*
X131369693Y-87170502D02*
G01*
X131403495Y-87204888D01*
X131404125Y-87204388D01*
X131408668Y-87210120D01*
X131412522Y-87216348D01*
X131498846Y-87302521D01*
X131499109Y-87302784D01*
X131533188Y-87365066D01*
X131528185Y-87435886D01*
X131499264Y-87480975D01*
X131491873Y-87488379D01*
X131411695Y-87568697D01*
X131407855Y-87574927D01*
X131407854Y-87574928D01*
X131355576Y-87659739D01*
X131318885Y-87719262D01*
X131316581Y-87726209D01*
X131276161Y-87848073D01*
X131263203Y-87887139D01*
X131252500Y-87991600D01*
X131252500Y-88475629D01*
X131232498Y-88543750D01*
X131215595Y-88564724D01*
X131167724Y-88612595D01*
X131105412Y-88646621D01*
X131078629Y-88649500D01*
X126937500Y-88649500D01*
X126869379Y-88629498D01*
X126822886Y-88575842D01*
X126811500Y-88523500D01*
X126811500Y-87556500D01*
X126831502Y-87488379D01*
X126885158Y-87441886D01*
X126937500Y-87430500D01*
X127169502Y-87430500D01*
X127171950Y-87430307D01*
X127171958Y-87430307D01*
X127200421Y-87428067D01*
X127200426Y-87428066D01*
X127206831Y-87427562D01*
X127306769Y-87398528D01*
X127358988Y-87383357D01*
X127358990Y-87383356D01*
X127366601Y-87381145D01*
X127435365Y-87340478D01*
X127502980Y-87300491D01*
X127502983Y-87300489D01*
X127509807Y-87296453D01*
X127618855Y-87187405D01*
X127681167Y-87153379D01*
X127707950Y-87150500D01*
X131301572Y-87150500D01*
X131369693Y-87170502D01*
G37*
%TD.AperFunction*%
%TA.AperFunction,Conductor*%
G36*
X131403799Y-85360502D02*
G01*
X131450292Y-85414158D01*
X131460396Y-85484432D01*
X131430902Y-85549012D01*
X131424851Y-85555518D01*
X131411695Y-85568697D01*
X131407854Y-85574928D01*
X131403317Y-85580673D01*
X131401987Y-85579623D01*
X131355893Y-85621108D01*
X131301403Y-85633500D01*
X127886080Y-85633500D01*
X127817959Y-85613498D01*
X127771466Y-85559842D01*
X127760468Y-85517386D01*
X127759067Y-85499582D01*
X127759067Y-85499579D01*
X127758562Y-85493169D01*
X127757221Y-85488552D01*
X127764597Y-85418531D01*
X127809028Y-85363155D01*
X127881109Y-85340500D01*
X131335678Y-85340500D01*
X131403799Y-85360502D01*
G37*
%TD.AperFunction*%
%TA.AperFunction,Conductor*%
G36*
X140984121Y-78253002D02*
G01*
X141030614Y-78306658D01*
X141042000Y-78359000D01*
X141042000Y-82796575D01*
X141021998Y-82864696D01*
X140968342Y-82911189D01*
X140898068Y-82921293D01*
X140833488Y-82891799D01*
X140826905Y-82885670D01*
X136773855Y-78832621D01*
X136764753Y-78822478D01*
X136744897Y-78797782D01*
X136741032Y-78792975D01*
X136702578Y-78760708D01*
X136698931Y-78757528D01*
X136697119Y-78755885D01*
X136694925Y-78753691D01*
X136661651Y-78726358D01*
X136660853Y-78725696D01*
X136589526Y-78665846D01*
X136584856Y-78663278D01*
X136580739Y-78659897D01*
X136498914Y-78616023D01*
X136497755Y-78615394D01*
X136421619Y-78573538D01*
X136421611Y-78573535D01*
X136416213Y-78570567D01*
X136411131Y-78568955D01*
X136406437Y-78566438D01*
X136317469Y-78539238D01*
X136316441Y-78538918D01*
X136227694Y-78510765D01*
X136222398Y-78510171D01*
X136217302Y-78508613D01*
X136124743Y-78499210D01*
X136123607Y-78499089D01*
X136089992Y-78495319D01*
X136077270Y-78493892D01*
X136077266Y-78493892D01*
X136073773Y-78493500D01*
X136070246Y-78493500D01*
X136069261Y-78493445D01*
X136063581Y-78492998D01*
X136034175Y-78490011D01*
X136026663Y-78489248D01*
X136026661Y-78489248D01*
X136020538Y-78488626D01*
X135978259Y-78492623D01*
X135974891Y-78492941D01*
X135963033Y-78493500D01*
X126172843Y-78493500D01*
X126159236Y-78492763D01*
X126149266Y-78491680D01*
X126121612Y-78488676D01*
X126119843Y-78488831D01*
X126118075Y-78488645D01*
X126070430Y-78492981D01*
X126059010Y-78493500D01*
X122409842Y-78493500D01*
X122396235Y-78492763D01*
X122364737Y-78489341D01*
X122364732Y-78489341D01*
X122358611Y-78488676D01*
X122340611Y-78490251D01*
X122308609Y-78493050D01*
X122303784Y-78493379D01*
X122301313Y-78493500D01*
X122298231Y-78493500D01*
X122275763Y-78495703D01*
X122255489Y-78497691D01*
X122254174Y-78497813D01*
X122221913Y-78500636D01*
X122161587Y-78505913D01*
X122156468Y-78507400D01*
X122151167Y-78507920D01*
X122062166Y-78534791D01*
X122061033Y-78535126D01*
X121977586Y-78559370D01*
X121977582Y-78559372D01*
X121971664Y-78561091D01*
X121966932Y-78563544D01*
X121961831Y-78565084D01*
X121956388Y-78567978D01*
X121879740Y-78608731D01*
X121878574Y-78609343D01*
X121801547Y-78649271D01*
X121796074Y-78652108D01*
X121791911Y-78655431D01*
X121787204Y-78657934D01*
X121715082Y-78716755D01*
X121714226Y-78717446D01*
X121675027Y-78748738D01*
X121672523Y-78751242D01*
X121671805Y-78751884D01*
X121667472Y-78755585D01*
X121633938Y-78782935D01*
X121630011Y-78787682D01*
X121630009Y-78787684D01*
X121604713Y-78818262D01*
X121596723Y-78827042D01*
X120488621Y-79935145D01*
X120478478Y-79944247D01*
X120448975Y-79967968D01*
X120419166Y-80003493D01*
X120360060Y-80042817D01*
X120322647Y-80048500D01*
X120259866Y-80048500D01*
X120197684Y-80055255D01*
X120061295Y-80106385D01*
X119944739Y-80193739D01*
X119857385Y-80310295D01*
X119806255Y-80446684D01*
X119799500Y-80508866D01*
X119799500Y-82305134D01*
X119806255Y-82367316D01*
X119857385Y-82503705D01*
X119944739Y-82620261D01*
X120061295Y-82707615D01*
X120069704Y-82710767D01*
X120069705Y-82710768D01*
X120178451Y-82751535D01*
X120235216Y-82794176D01*
X120259916Y-82860738D01*
X120244709Y-82930087D01*
X120225316Y-82956568D01*
X120098629Y-83089138D01*
X119972743Y-83273680D01*
X119957003Y-83307590D01*
X119887342Y-83457662D01*
X119878688Y-83476305D01*
X119818989Y-83691570D01*
X119795251Y-83913695D01*
X119795548Y-83918848D01*
X119795548Y-83918851D01*
X119799877Y-83993928D01*
X119808110Y-84136715D01*
X119809247Y-84141760D01*
X119809966Y-84146877D01*
X119808518Y-84147081D01*
X119804398Y-84211274D01*
X119775119Y-84257200D01*
X119369578Y-84662741D01*
X119355166Y-84675127D01*
X119343571Y-84683660D01*
X119343566Y-84683665D01*
X119337671Y-84688003D01*
X119332932Y-84693581D01*
X119332929Y-84693584D01*
X119303454Y-84728279D01*
X119296524Y-84735795D01*
X119290829Y-84741490D01*
X119288549Y-84744372D01*
X119273208Y-84763762D01*
X119270417Y-84767166D01*
X119269223Y-84768572D01*
X119223156Y-84822796D01*
X119219827Y-84829315D01*
X119216459Y-84834365D01*
X119216202Y-84834781D01*
X119216151Y-84834827D01*
X119215766Y-84835404D01*
X119215618Y-84835305D01*
X119214717Y-84836115D01*
X119209354Y-84844469D01*
X119208776Y-84845200D01*
X119206557Y-84843446D01*
X119163389Y-84882229D01*
X119093308Y-84893591D01*
X119028208Y-84865261D01*
X118988760Y-84806232D01*
X118983000Y-84768572D01*
X118983000Y-78359000D01*
X119003002Y-78290879D01*
X119056658Y-78244386D01*
X119109000Y-78233000D01*
X140916000Y-78233000D01*
X140984121Y-78253002D01*
G37*
%TD.AperFunction*%
%TD*%
M02*
