%TF.GenerationSoftware,KiCad,Pcbnew,(6.0.2)*%
%TF.CreationDate,2022-03-07T20:12:54-06:00*%
%TF.ProjectId,bike_alarm,62696b65-5f61-46c6-9172-6d2e6b696361,rev?*%
%TF.SameCoordinates,Original*%
%TF.FileFunction,Legend,Top*%
%TF.FilePolarity,Positive*%
%FSLAX46Y46*%
G04 Gerber Fmt 4.6, Leading zero omitted, Abs format (unit mm)*
G04 Created by KiCad (PCBNEW (6.0.2)) date 2022-03-07 20:12:54*
%MOMM*%
%LPD*%
G01*
G04 APERTURE LIST*
%ADD10C,0.150000*%
%ADD11C,0.120000*%
G04 APERTURE END LIST*
D10*
X119117857Y-82307142D02*
X119117857Y-81850000D01*
X119346428Y-82078571D02*
X118889285Y-82078571D01*
X118746428Y-81621428D02*
X118746428Y-81250000D01*
X118975000Y-81450000D01*
X118975000Y-81364285D01*
X119003571Y-81307142D01*
X119032142Y-81278571D01*
X119089285Y-81250000D01*
X119232142Y-81250000D01*
X119289285Y-81278571D01*
X119317857Y-81307142D01*
X119346428Y-81364285D01*
X119346428Y-81535714D01*
X119317857Y-81592857D01*
X119289285Y-81621428D01*
X118746428Y-81078571D02*
X119346428Y-80878571D01*
X118746428Y-80678571D01*
X118746428Y-80535714D02*
X118746428Y-80164285D01*
X118975000Y-80364285D01*
X118975000Y-80278571D01*
X119003571Y-80221428D01*
X119032142Y-80192857D01*
X119089285Y-80164285D01*
X119232142Y-80164285D01*
X119289285Y-80192857D01*
X119317857Y-80221428D01*
X119346428Y-80278571D01*
X119346428Y-80450000D01*
X119317857Y-80507142D01*
X119289285Y-80535714D01*
X119264285Y-84535714D02*
X119292857Y-84564285D01*
X119321428Y-84650000D01*
X119321428Y-84707142D01*
X119292857Y-84792857D01*
X119235714Y-84850000D01*
X119178571Y-84878571D01*
X119064285Y-84907142D01*
X118978571Y-84907142D01*
X118864285Y-84878571D01*
X118807142Y-84850000D01*
X118750000Y-84792857D01*
X118721428Y-84707142D01*
X118721428Y-84650000D01*
X118750000Y-84564285D01*
X118778571Y-84535714D01*
X118721428Y-84364285D02*
X118721428Y-84021428D01*
X119321428Y-84192857D02*
X118721428Y-84192857D01*
X119321428Y-83478571D02*
X119035714Y-83678571D01*
X119321428Y-83821428D02*
X118721428Y-83821428D01*
X118721428Y-83592857D01*
X118750000Y-83535714D01*
X118778571Y-83507142D01*
X118835714Y-83478571D01*
X118921428Y-83478571D01*
X118978571Y-83507142D01*
X119007142Y-83535714D01*
X119035714Y-83592857D01*
X119035714Y-83821428D01*
X119321428Y-82935714D02*
X119321428Y-83221428D01*
X118721428Y-83221428D01*
X118800000Y-86907142D02*
X118771428Y-86964285D01*
X118771428Y-87050000D01*
X118800000Y-87135714D01*
X118857142Y-87192857D01*
X118914285Y-87221428D01*
X119028571Y-87250000D01*
X119114285Y-87250000D01*
X119228571Y-87221428D01*
X119285714Y-87192857D01*
X119342857Y-87135714D01*
X119371428Y-87050000D01*
X119371428Y-86992857D01*
X119342857Y-86907142D01*
X119314285Y-86878571D01*
X119114285Y-86878571D01*
X119114285Y-86992857D01*
X119371428Y-86621428D02*
X118771428Y-86621428D01*
X119371428Y-86278571D01*
X118771428Y-86278571D01*
X119371428Y-85992857D02*
X118771428Y-85992857D01*
X118771428Y-85850000D01*
X118800000Y-85764285D01*
X118857142Y-85707142D01*
X118914285Y-85678571D01*
X119028571Y-85650000D01*
X119114285Y-85650000D01*
X119228571Y-85678571D01*
X119285714Y-85707142D01*
X119342857Y-85764285D01*
X119371428Y-85850000D01*
X119371428Y-85992857D01*
%TO.C,R2*%
X137759380Y-87639666D02*
X137283190Y-87973000D01*
X137759380Y-88211095D02*
X136759380Y-88211095D01*
X136759380Y-87830142D01*
X136807000Y-87734904D01*
X136854619Y-87687285D01*
X136949857Y-87639666D01*
X137092714Y-87639666D01*
X137187952Y-87687285D01*
X137235571Y-87734904D01*
X137283190Y-87830142D01*
X137283190Y-88211095D01*
X136854619Y-87258714D02*
X136807000Y-87211095D01*
X136759380Y-87115857D01*
X136759380Y-86877761D01*
X136807000Y-86782523D01*
X136854619Y-86734904D01*
X136949857Y-86687285D01*
X137045095Y-86687285D01*
X137187952Y-86734904D01*
X137759380Y-87306333D01*
X137759380Y-86687285D01*
%TO.C,R1*%
X131263380Y-87558666D02*
X130787190Y-87892000D01*
X131263380Y-88130095D02*
X130263380Y-88130095D01*
X130263380Y-87749142D01*
X130311000Y-87653904D01*
X130358619Y-87606285D01*
X130453857Y-87558666D01*
X130596714Y-87558666D01*
X130691952Y-87606285D01*
X130739571Y-87653904D01*
X130787190Y-87749142D01*
X130787190Y-88130095D01*
X131263380Y-86606285D02*
X131263380Y-87177714D01*
X131263380Y-86892000D02*
X130263380Y-86892000D01*
X130406238Y-86987238D01*
X130501476Y-87082476D01*
X130549095Y-87177714D01*
%TO.C,C1*%
X124457142Y-84391666D02*
X124504761Y-84439285D01*
X124552380Y-84582142D01*
X124552380Y-84677380D01*
X124504761Y-84820238D01*
X124409523Y-84915476D01*
X124314285Y-84963095D01*
X124123809Y-85010714D01*
X123980952Y-85010714D01*
X123790476Y-84963095D01*
X123695238Y-84915476D01*
X123600000Y-84820238D01*
X123552380Y-84677380D01*
X123552380Y-84582142D01*
X123600000Y-84439285D01*
X123647619Y-84391666D01*
X124552380Y-83439285D02*
X124552380Y-84010714D01*
X124552380Y-83725000D02*
X123552380Y-83725000D01*
X123695238Y-83820238D01*
X123790476Y-83915476D01*
X123838095Y-84010714D01*
%TO.C,Q1*%
X128950619Y-87217238D02*
X128903000Y-87312476D01*
X128807761Y-87407714D01*
X128664904Y-87550571D01*
X128617285Y-87645809D01*
X128617285Y-87741047D01*
X128855380Y-87693428D02*
X128807761Y-87788666D01*
X128712523Y-87883904D01*
X128522047Y-87931523D01*
X128188714Y-87931523D01*
X127998238Y-87883904D01*
X127903000Y-87788666D01*
X127855380Y-87693428D01*
X127855380Y-87502952D01*
X127903000Y-87407714D01*
X127998238Y-87312476D01*
X128188714Y-87264857D01*
X128522047Y-87264857D01*
X128712523Y-87312476D01*
X128807761Y-87407714D01*
X128855380Y-87502952D01*
X128855380Y-87693428D01*
X128855380Y-86312476D02*
X128855380Y-86883904D01*
X128855380Y-86598190D02*
X127855380Y-86598190D01*
X127998238Y-86693428D01*
X128093476Y-86788666D01*
X128141095Y-86883904D01*
%TO.C,J1*%
X120824666Y-78529380D02*
X120824666Y-79243666D01*
X120777047Y-79386523D01*
X120681809Y-79481761D01*
X120538952Y-79529380D01*
X120443714Y-79529380D01*
X121824666Y-79529380D02*
X121253238Y-79529380D01*
X121538952Y-79529380D02*
X121538952Y-78529380D01*
X121443714Y-78672238D01*
X121348476Y-78767476D01*
X121253238Y-78815095D01*
%TO.C,Y1*%
X128634809Y-83768190D02*
X128634809Y-84244380D01*
X128301476Y-83244380D02*
X128634809Y-83768190D01*
X128968142Y-83244380D01*
X129825285Y-84244380D02*
X129253857Y-84244380D01*
X129539571Y-84244380D02*
X129539571Y-83244380D01*
X129444333Y-83387238D01*
X129349095Y-83482476D01*
X129253857Y-83530095D01*
D11*
%TO.C,R2*%
X139692000Y-87700064D02*
X139692000Y-87245936D01*
X138222000Y-87700064D02*
X138222000Y-87245936D01*
%TO.C,R1*%
X131726000Y-87619064D02*
X131726000Y-87164936D01*
X133196000Y-87619064D02*
X133196000Y-87164936D01*
%TO.C,C1*%
X124860000Y-81238748D02*
X124860000Y-81761252D01*
X123390000Y-81238748D02*
X123390000Y-81761252D01*
%TO.C,Q1*%
X124443000Y-87122000D02*
X124443000Y-87772000D01*
X127563000Y-87122000D02*
X127563000Y-87772000D01*
X127563000Y-87122000D02*
X127563000Y-85447000D01*
X124443000Y-87122000D02*
X124443000Y-86472000D01*
%TO.C,J1*%
X119828000Y-82677000D02*
X119828000Y-87817000D01*
X122488000Y-82677000D02*
X122488000Y-87817000D01*
X119828000Y-80077000D02*
X121158000Y-80077000D01*
X119828000Y-82677000D02*
X122488000Y-82677000D01*
X119828000Y-87817000D02*
X122488000Y-87817000D01*
X119828000Y-81407000D02*
X119828000Y-80077000D01*
%TO.C,Y1*%
X128911000Y-80172000D02*
X127511000Y-79502000D01*
X127511000Y-79502000D02*
X126811000Y-79502000D01*
X127511000Y-82042000D02*
X126811000Y-82042000D01*
X139811000Y-79072000D02*
X128911000Y-79072000D01*
X128911000Y-81372000D02*
X127511000Y-82042000D01*
X139811000Y-82472000D02*
X139811000Y-79072000D01*
X128911000Y-82472000D02*
X139811000Y-82472000D01*
X128911000Y-79072000D02*
X128911000Y-82472000D01*
%TD*%
M02*
