%TF.GenerationSoftware,KiCad,Pcbnew,(6.0.2)*%
%TF.CreationDate,2022-03-07T20:12:54-06:00*%
%TF.ProjectId,bike_alarm,62696b65-5f61-46c6-9172-6d2e6b696361,rev?*%
%TF.SameCoordinates,Original*%
%TF.FileFunction,Legend,Bot*%
%TF.FilePolarity,Positive*%
%FSLAX46Y46*%
G04 Gerber Fmt 4.6, Leading zero omitted, Abs format (unit mm)*
G04 Created by KiCad (PCBNEW (6.0.2)) date 2022-03-07 20:12:54*
%MOMM*%
%LPD*%
G01*
G04 APERTURE LIST*
%ADD10C,0.150000*%
G04 APERTURE END LIST*
D10*
X139401190Y-80076666D02*
X138925000Y-80076666D01*
X139496428Y-80362380D02*
X139163095Y-79362380D01*
X138829761Y-80362380D01*
X138353571Y-80362380D02*
X138448809Y-80314761D01*
X138496428Y-80219523D01*
X138496428Y-79362380D01*
X137544047Y-80362380D02*
X137544047Y-79838571D01*
X137591666Y-79743333D01*
X137686904Y-79695714D01*
X137877380Y-79695714D01*
X137972619Y-79743333D01*
X137544047Y-80314761D02*
X137639285Y-80362380D01*
X137877380Y-80362380D01*
X137972619Y-80314761D01*
X138020238Y-80219523D01*
X138020238Y-80124285D01*
X137972619Y-80029047D01*
X137877380Y-79981428D01*
X137639285Y-79981428D01*
X137544047Y-79933809D01*
X137067857Y-80362380D02*
X137067857Y-79695714D01*
X137067857Y-79886190D02*
X137020238Y-79790952D01*
X136972619Y-79743333D01*
X136877380Y-79695714D01*
X136782142Y-79695714D01*
X136448809Y-80362380D02*
X136448809Y-79695714D01*
X136448809Y-79790952D02*
X136401190Y-79743333D01*
X136305952Y-79695714D01*
X136163095Y-79695714D01*
X136067857Y-79743333D01*
X136020238Y-79838571D01*
X136020238Y-80362380D01*
X136020238Y-79838571D02*
X135972619Y-79743333D01*
X135877380Y-79695714D01*
X135734523Y-79695714D01*
X135639285Y-79743333D01*
X135591666Y-79838571D01*
X135591666Y-80362380D01*
X134020238Y-79838571D02*
X133877380Y-79886190D01*
X133829761Y-79933809D01*
X133782142Y-80029047D01*
X133782142Y-80171904D01*
X133829761Y-80267142D01*
X133877380Y-80314761D01*
X133972619Y-80362380D01*
X134353571Y-80362380D01*
X134353571Y-79362380D01*
X134020238Y-79362380D01*
X133925000Y-79410000D01*
X133877380Y-79457619D01*
X133829761Y-79552857D01*
X133829761Y-79648095D01*
X133877380Y-79743333D01*
X133925000Y-79790952D01*
X134020238Y-79838571D01*
X134353571Y-79838571D01*
X133210714Y-80362380D02*
X133305952Y-80314761D01*
X133353571Y-80267142D01*
X133401190Y-80171904D01*
X133401190Y-79886190D01*
X133353571Y-79790952D01*
X133305952Y-79743333D01*
X133210714Y-79695714D01*
X133067857Y-79695714D01*
X132972619Y-79743333D01*
X132925000Y-79790952D01*
X132877380Y-79886190D01*
X132877380Y-80171904D01*
X132925000Y-80267142D01*
X132972619Y-80314761D01*
X133067857Y-80362380D01*
X133210714Y-80362380D01*
X132020238Y-80362380D02*
X132020238Y-79838571D01*
X132067857Y-79743333D01*
X132163095Y-79695714D01*
X132353571Y-79695714D01*
X132448809Y-79743333D01*
X132020238Y-80314761D02*
X132115476Y-80362380D01*
X132353571Y-80362380D01*
X132448809Y-80314761D01*
X132496428Y-80219523D01*
X132496428Y-80124285D01*
X132448809Y-80029047D01*
X132353571Y-79981428D01*
X132115476Y-79981428D01*
X132020238Y-79933809D01*
X131544047Y-80362380D02*
X131544047Y-79695714D01*
X131544047Y-79886190D02*
X131496428Y-79790952D01*
X131448809Y-79743333D01*
X131353571Y-79695714D01*
X131258333Y-79695714D01*
X130496428Y-80362380D02*
X130496428Y-79362380D01*
X130496428Y-80314761D02*
X130591666Y-80362380D01*
X130782142Y-80362380D01*
X130877380Y-80314761D01*
X130925000Y-80267142D01*
X130972619Y-80171904D01*
X130972619Y-79886190D01*
X130925000Y-79790952D01*
X130877380Y-79743333D01*
X130782142Y-79695714D01*
X130591666Y-79695714D01*
X130496428Y-79743333D01*
X139829761Y-81448571D02*
X139496428Y-81448571D01*
X139353571Y-81972380D02*
X139829761Y-81972380D01*
X139829761Y-80972380D01*
X139353571Y-80972380D01*
X138353571Y-81877142D02*
X138401190Y-81924761D01*
X138544047Y-81972380D01*
X138639285Y-81972380D01*
X138782142Y-81924761D01*
X138877380Y-81829523D01*
X138925000Y-81734285D01*
X138972619Y-81543809D01*
X138972619Y-81400952D01*
X138925000Y-81210476D01*
X138877380Y-81115238D01*
X138782142Y-81020000D01*
X138639285Y-80972380D01*
X138544047Y-80972380D01*
X138401190Y-81020000D01*
X138353571Y-81067619D01*
X137925000Y-81448571D02*
X137591666Y-81448571D01*
X137448809Y-81972380D02*
X137925000Y-81972380D01*
X137925000Y-80972380D01*
X137448809Y-80972380D01*
X136591666Y-81305714D02*
X136591666Y-81972380D01*
X136829761Y-80924761D02*
X137067857Y-81639047D01*
X136448809Y-81639047D01*
X135639285Y-81305714D02*
X135639285Y-81972380D01*
X135877380Y-80924761D02*
X136115476Y-81639047D01*
X135496428Y-81639047D01*
X134639285Y-80972380D02*
X135115476Y-80972380D01*
X135163095Y-81448571D01*
X135115476Y-81400952D01*
X135020238Y-81353333D01*
X134782142Y-81353333D01*
X134686904Y-81400952D01*
X134639285Y-81448571D01*
X134591666Y-81543809D01*
X134591666Y-81781904D01*
X134639285Y-81877142D01*
X134686904Y-81924761D01*
X134782142Y-81972380D01*
X135020238Y-81972380D01*
X135115476Y-81924761D01*
X135163095Y-81877142D01*
X133448809Y-81924761D02*
X133305952Y-81972380D01*
X133067857Y-81972380D01*
X132972619Y-81924761D01*
X132925000Y-81877142D01*
X132877380Y-81781904D01*
X132877380Y-81686666D01*
X132925000Y-81591428D01*
X132972619Y-81543809D01*
X133067857Y-81496190D01*
X133258333Y-81448571D01*
X133353571Y-81400952D01*
X133401190Y-81353333D01*
X133448809Y-81258095D01*
X133448809Y-81162857D01*
X133401190Y-81067619D01*
X133353571Y-81020000D01*
X133258333Y-80972380D01*
X133020238Y-80972380D01*
X132877380Y-81020000D01*
X132448809Y-81972380D02*
X132448809Y-80972380D01*
X132067857Y-80972380D01*
X131972619Y-81020000D01*
X131925000Y-81067619D01*
X131877380Y-81162857D01*
X131877380Y-81305714D01*
X131925000Y-81400952D01*
X131972619Y-81448571D01*
X132067857Y-81496190D01*
X132448809Y-81496190D01*
X131496428Y-81067619D02*
X131448809Y-81020000D01*
X131353571Y-80972380D01*
X131115476Y-80972380D01*
X131020238Y-81020000D01*
X130972619Y-81067619D01*
X130925000Y-81162857D01*
X130925000Y-81258095D01*
X130972619Y-81400952D01*
X131544047Y-81972380D01*
X130925000Y-81972380D01*
X130544047Y-81067619D02*
X130496428Y-81020000D01*
X130401190Y-80972380D01*
X130163095Y-80972380D01*
X130067857Y-81020000D01*
X130020238Y-81067619D01*
X129972619Y-81162857D01*
X129972619Y-81258095D01*
X130020238Y-81400952D01*
X130591666Y-81972380D01*
X129972619Y-81972380D01*
X137663095Y-82630000D02*
X137758333Y-82582380D01*
X137901190Y-82582380D01*
X138044047Y-82630000D01*
X138139285Y-82725238D01*
X138186904Y-82820476D01*
X138234523Y-83010952D01*
X138234523Y-83153809D01*
X138186904Y-83344285D01*
X138139285Y-83439523D01*
X138044047Y-83534761D01*
X137901190Y-83582380D01*
X137805952Y-83582380D01*
X137663095Y-83534761D01*
X137615476Y-83487142D01*
X137615476Y-83153809D01*
X137805952Y-83153809D01*
X137186904Y-83582380D02*
X137186904Y-82915714D01*
X137186904Y-83106190D02*
X137139285Y-83010952D01*
X137091666Y-82963333D01*
X136996428Y-82915714D01*
X136901190Y-82915714D01*
X136425000Y-83582380D02*
X136520238Y-83534761D01*
X136567857Y-83487142D01*
X136615476Y-83391904D01*
X136615476Y-83106190D01*
X136567857Y-83010952D01*
X136520238Y-82963333D01*
X136425000Y-82915714D01*
X136282142Y-82915714D01*
X136186904Y-82963333D01*
X136139285Y-83010952D01*
X136091666Y-83106190D01*
X136091666Y-83391904D01*
X136139285Y-83487142D01*
X136186904Y-83534761D01*
X136282142Y-83582380D01*
X136425000Y-83582380D01*
X135234523Y-82915714D02*
X135234523Y-83582380D01*
X135663095Y-82915714D02*
X135663095Y-83439523D01*
X135615476Y-83534761D01*
X135520238Y-83582380D01*
X135377380Y-83582380D01*
X135282142Y-83534761D01*
X135234523Y-83487142D01*
X134758333Y-82915714D02*
X134758333Y-83915714D01*
X134758333Y-82963333D02*
X134663095Y-82915714D01*
X134472619Y-82915714D01*
X134377380Y-82963333D01*
X134329761Y-83010952D01*
X134282142Y-83106190D01*
X134282142Y-83391904D01*
X134329761Y-83487142D01*
X134377380Y-83534761D01*
X134472619Y-83582380D01*
X134663095Y-83582380D01*
X134758333Y-83534761D01*
X132663095Y-82915714D02*
X132663095Y-83582380D01*
X132901190Y-82534761D02*
X133139285Y-83249047D01*
X132520238Y-83249047D01*
X131663095Y-82582380D02*
X132139285Y-82582380D01*
X132186904Y-83058571D01*
X132139285Y-83010952D01*
X132044047Y-82963333D01*
X131805952Y-82963333D01*
X131710714Y-83010952D01*
X131663095Y-83058571D01*
X131615476Y-83153809D01*
X131615476Y-83391904D01*
X131663095Y-83487142D01*
X131710714Y-83534761D01*
X131805952Y-83582380D01*
X132044047Y-83582380D01*
X132139285Y-83534761D01*
X132186904Y-83487142D01*
X137067857Y-84525714D02*
X136829761Y-85192380D01*
X136591666Y-84525714D01*
X136020238Y-84192380D02*
X135925000Y-84192380D01*
X135829761Y-84240000D01*
X135782142Y-84287619D01*
X135734523Y-84382857D01*
X135686904Y-84573333D01*
X135686904Y-84811428D01*
X135734523Y-85001904D01*
X135782142Y-85097142D01*
X135829761Y-85144761D01*
X135925000Y-85192380D01*
X136020238Y-85192380D01*
X136115476Y-85144761D01*
X136163095Y-85097142D01*
X136210714Y-85001904D01*
X136258333Y-84811428D01*
X136258333Y-84573333D01*
X136210714Y-84382857D01*
X136163095Y-84287619D01*
X136115476Y-84240000D01*
X136020238Y-84192380D01*
X135258333Y-85097142D02*
X135210714Y-85144761D01*
X135258333Y-85192380D01*
X135305952Y-85144761D01*
X135258333Y-85097142D01*
X135258333Y-85192380D01*
X134591666Y-84192380D02*
X134496428Y-84192380D01*
X134401190Y-84240000D01*
X134353571Y-84287619D01*
X134305952Y-84382857D01*
X134258333Y-84573333D01*
X134258333Y-84811428D01*
X134305952Y-85001904D01*
X134353571Y-85097142D01*
X134401190Y-85144761D01*
X134496428Y-85192380D01*
X134591666Y-85192380D01*
X134686904Y-85144761D01*
X134734523Y-85097142D01*
X134782142Y-85001904D01*
X134829761Y-84811428D01*
X134829761Y-84573333D01*
X134782142Y-84382857D01*
X134734523Y-84287619D01*
X134686904Y-84240000D01*
X134591666Y-84192380D01*
X133829761Y-85097142D02*
X133782142Y-85144761D01*
X133829761Y-85192380D01*
X133877380Y-85144761D01*
X133829761Y-85097142D01*
X133829761Y-85192380D01*
X132829761Y-85192380D02*
X133401190Y-85192380D01*
X133115476Y-85192380D02*
X133115476Y-84192380D01*
X133210714Y-84335238D01*
X133305952Y-84430476D01*
X133401190Y-84478095D01*
M02*
