%TF.GenerationSoftware,KiCad,Pcbnew,6.0.0*%
%TF.CreationDate,2022-03-07T01:42:13-06:00*%
%TF.ProjectId,test,74657374-2e6b-4696-9361-645f70636258,rev?*%
%TF.SameCoordinates,Original*%
%TF.FileFunction,Soldermask,Top*%
%TF.FilePolarity,Negative*%
%FSLAX46Y46*%
G04 Gerber Fmt 4.6, Leading zero omitted, Abs format (unit mm)*
G04 Created by KiCad (PCBNEW 6.0.0) date 2022-03-07 01:42:13*
%MOMM*%
%LPD*%
G01*
G04 APERTURE LIST*
G04 Aperture macros list*
%AMRoundRect*
0 Rectangle with rounded corners*
0 $1 Rounding radius*
0 $2 $3 $4 $5 $6 $7 $8 $9 X,Y pos of 4 corners*
0 Add a 4 corners polygon primitive as box body*
4,1,4,$2,$3,$4,$5,$6,$7,$8,$9,$2,$3,0*
0 Add four circle primitives for the rounded corners*
1,1,$1+$1,$2,$3*
1,1,$1+$1,$4,$5*
1,1,$1+$1,$6,$7*
1,1,$1+$1,$8,$9*
0 Add four rect primitives between the rounded corners*
20,1,$1+$1,$2,$3,$4,$5,0*
20,1,$1+$1,$4,$5,$6,$7,0*
20,1,$1+$1,$6,$7,$8,$9,0*
20,1,$1+$1,$8,$9,$2,$3,0*%
%AMRotRect*
0 Rectangle, with rotation*
0 The origin of the aperture is its center*
0 $1 length*
0 $2 width*
0 $3 Rotation angle, in degrees counterclockwise*
0 Add horizontal line*
21,1,$1,$2,0,0,$3*%
%AMFreePoly0*
4,1,22,0.500000,-0.750000,0.000000,-0.750000,0.000000,-0.745033,-0.079941,-0.743568,-0.215256,-0.701293,-0.333266,-0.622738,-0.424486,-0.514219,-0.481581,-0.384460,-0.499164,-0.250000,-0.500000,-0.250000,-0.500000,0.250000,-0.499164,0.250000,-0.499963,0.256109,-0.478152,0.396186,-0.417904,0.524511,-0.324060,0.630769,-0.204165,0.706417,-0.067858,0.745374,0.000000,0.744959,0.000000,0.750000,
0.500000,0.750000,0.500000,-0.750000,0.500000,-0.750000,$1*%
%AMFreePoly1*
4,1,20,0.000000,0.744959,0.073905,0.744508,0.209726,0.703889,0.328688,0.626782,0.421226,0.519385,0.479903,0.390333,0.500000,0.250000,0.500000,-0.250000,0.499851,-0.262216,0.476331,-0.402017,0.414519,-0.529596,0.319384,-0.634700,0.198574,-0.708877,0.061801,-0.746166,0.000000,-0.745033,0.000000,-0.750000,-0.500000,-0.750000,-0.500000,0.750000,0.000000,0.750000,0.000000,0.744959,
0.000000,0.744959,$1*%
G04 Aperture macros list end*
%ADD10C,0.150000*%
%ADD11C,4.400000*%
%ADD12C,0.700000*%
%ADD13RotRect,1.000000X1.000000X45.000000*%
%ADD14R,1.000000X1.000000*%
%ADD15O,1.000000X1.000000*%
%ADD16RoundRect,0.225000X-0.225000X-0.250000X0.225000X-0.250000X0.225000X0.250000X-0.225000X0.250000X0*%
%ADD17RoundRect,0.250000X0.450000X-0.350000X0.450000X0.350000X-0.450000X0.350000X-0.450000X-0.350000X0*%
%ADD18RoundRect,0.225000X-0.250000X0.225000X-0.250000X-0.225000X0.250000X-0.225000X0.250000X0.225000X0*%
%ADD19FreePoly0,90.000000*%
%ADD20FreePoly1,90.000000*%
%ADD21RoundRect,0.250000X-0.450000X0.350000X-0.450000X-0.350000X0.450000X-0.350000X0.450000X0.350000X0*%
%ADD22RoundRect,0.250000X0.070711X-0.565685X0.565685X-0.070711X-0.070711X0.565685X-0.565685X0.070711X0*%
%ADD23RoundRect,0.225000X0.250000X-0.225000X0.250000X0.225000X-0.250000X0.225000X-0.250000X-0.225000X0*%
%ADD24RoundRect,0.225000X0.335876X0.017678X0.017678X0.335876X-0.335876X-0.017678X-0.017678X-0.335876X0*%
%ADD25RoundRect,0.075000X-0.300520X0.194454X0.194454X-0.300520X0.300520X-0.194454X-0.194454X0.300520X0*%
%ADD26RoundRect,0.075000X-0.300520X-0.194454X-0.194454X-0.300520X0.300520X0.194454X0.194454X0.300520X0*%
%ADD27RotRect,2.100000X2.100000X315.000000*%
%ADD28R,1.700000X1.700000*%
%ADD29O,1.700000X1.700000*%
%ADD30RoundRect,0.243750X0.456250X-0.243750X0.456250X0.243750X-0.456250X0.243750X-0.456250X-0.243750X0*%
%ADD31R,1.600000X1.500000*%
%ADD32C,1.600000*%
%ADD33C,3.000000*%
%ADD34RoundRect,0.225000X-0.335876X-0.017678X-0.017678X-0.335876X0.335876X0.017678X0.017678X0.335876X0*%
%ADD35RoundRect,0.243750X0.243750X0.456250X-0.243750X0.456250X-0.243750X-0.456250X0.243750X-0.456250X0*%
%ADD36RoundRect,0.250000X0.565685X0.070711X0.070711X0.565685X-0.565685X-0.070711X-0.070711X-0.565685X0*%
G04 APERTURE END LIST*
D10*
X106817857Y-63228571D02*
X106817857Y-63428571D01*
X106503571Y-63514285D02*
X106503571Y-63228571D01*
X107103571Y-63228571D01*
X107103571Y-63514285D01*
X106675000Y-63742857D02*
X106675000Y-64028571D01*
X106503571Y-63685714D02*
X107103571Y-63885714D01*
X106503571Y-64085714D01*
X107103571Y-64200000D02*
X107103571Y-64542857D01*
X106503571Y-64371428D02*
X107103571Y-64371428D01*
X106503571Y-64742857D02*
X107103571Y-64742857D01*
X106503571Y-65085714D02*
X106846428Y-64828571D01*
X107103571Y-65085714D02*
X106760714Y-64742857D01*
X106503571Y-65342857D02*
X107103571Y-65342857D01*
X106503571Y-65628571D02*
X107103571Y-65628571D01*
X106503571Y-65971428D01*
X107103571Y-65971428D01*
X106532142Y-66228571D02*
X106503571Y-66314285D01*
X106503571Y-66457142D01*
X106532142Y-66514285D01*
X106560714Y-66542857D01*
X106617857Y-66571428D01*
X106675000Y-66571428D01*
X106732142Y-66542857D01*
X106760714Y-66514285D01*
X106789285Y-66457142D01*
X106817857Y-66342857D01*
X106846428Y-66285714D01*
X106875000Y-66257142D01*
X106932142Y-66228571D01*
X106989285Y-66228571D01*
X107046428Y-66257142D01*
X107075000Y-66285714D01*
X107103571Y-66342857D01*
X107103571Y-66485714D01*
X107075000Y-66571428D01*
X107103571Y-66942857D02*
X107103571Y-67057142D01*
X107075000Y-67114285D01*
X107017857Y-67171428D01*
X106903571Y-67200000D01*
X106703571Y-67200000D01*
X106589285Y-67171428D01*
X106532142Y-67114285D01*
X106503571Y-67057142D01*
X106503571Y-66942857D01*
X106532142Y-66885714D01*
X106589285Y-66828571D01*
X106703571Y-66800000D01*
X106903571Y-66800000D01*
X107017857Y-66828571D01*
X107075000Y-66885714D01*
X107103571Y-66942857D01*
D11*
%TO.C,H3*%
X109700000Y-81450000D03*
D12*
X111350000Y-81450000D03*
X110866726Y-82616726D03*
X109700000Y-83100000D03*
X108533274Y-82616726D03*
X108050000Y-81450000D03*
X108533274Y-80283274D03*
X109700000Y-79800000D03*
X110866726Y-80283274D03*
%TD*%
D11*
%TO.C,H2*%
X110425000Y-66700000D03*
D12*
X112075000Y-66700000D03*
X111591726Y-67866726D03*
X110425000Y-68350000D03*
X109258274Y-67866726D03*
X108775000Y-66700000D03*
X109258274Y-65533274D03*
X110425000Y-65050000D03*
X111591726Y-65533274D03*
%TD*%
D11*
%TO.C,H1*%
X132725000Y-66650000D03*
D12*
X134375000Y-66650000D03*
X133891726Y-67816726D03*
X132725000Y-68300000D03*
X131558274Y-67816726D03*
X131075000Y-66650000D03*
X131558274Y-65483274D03*
X132725000Y-65000000D03*
X133891726Y-65483274D03*
%TD*%
D13*
%TO.C,TP18*%
X124800000Y-68400000D03*
%TD*%
D14*
%TO.C,J7*%
X121100000Y-68000000D03*
D15*
X121100000Y-66730000D03*
X121100000Y-65460000D03*
X121100000Y-64190000D03*
%TD*%
D13*
%TO.C,TP11*%
X130600000Y-74650000D03*
%TD*%
%TO.C,TP16*%
X116675000Y-69700000D03*
%TD*%
%TO.C,TP19*%
X118025000Y-67800000D03*
%TD*%
%TO.C,TP15*%
X128675000Y-71475000D03*
%TD*%
D16*
%TO.C,C11*%
X130250000Y-78075000D03*
X131800000Y-78075000D03*
%TD*%
D17*
%TO.C,R3*%
X118975000Y-81000000D03*
X118975000Y-79000000D03*
%TD*%
D18*
%TO.C,C18*%
X111475000Y-74275000D03*
X111475000Y-75825000D03*
%TD*%
D19*
%TO.C,JP5*%
X113625000Y-75700000D03*
D20*
X113625000Y-74400000D03*
%TD*%
D21*
%TO.C,R7*%
X110850000Y-93937500D03*
X110850000Y-95937500D03*
%TD*%
D22*
%TO.C,R6*%
X117367893Y-72107107D03*
X118782107Y-70692893D03*
%TD*%
D13*
%TO.C,TP17*%
X130300000Y-69875000D03*
%TD*%
D23*
%TO.C,C13*%
X116975000Y-80875000D03*
X116975000Y-79325000D03*
%TD*%
D24*
%TO.C,C16*%
X127723008Y-77098008D03*
X126626992Y-76001992D03*
%TD*%
D25*
%TO.C,U2*%
X120515571Y-71621713D03*
X120055951Y-72081332D03*
X119596332Y-72540951D03*
X119136713Y-73000571D03*
D26*
X119136713Y-74379429D03*
X119596332Y-74839049D03*
X120055951Y-75298668D03*
X120515571Y-75758287D03*
D25*
X121894429Y-75758287D03*
X122354049Y-75298668D03*
X122813668Y-74839049D03*
X123273287Y-74379429D03*
D26*
X123273287Y-73000571D03*
X122813668Y-72540951D03*
X122354049Y-72081332D03*
X121894429Y-71621713D03*
D27*
X121205000Y-73690000D03*
%TD*%
D23*
%TO.C,C12*%
X123975000Y-80825000D03*
X123975000Y-79275000D03*
%TD*%
D17*
%TO.C,R2*%
X121675000Y-81000000D03*
X121675000Y-79000000D03*
%TD*%
D28*
%TO.C,SW2*%
X131950000Y-86925000D03*
D29*
X131950000Y-84385000D03*
%TD*%
D30*
%TO.C,D2*%
X110850000Y-91912500D03*
X110850000Y-90037500D03*
%TD*%
D31*
%TO.C,J4*%
X117475000Y-84840000D03*
D32*
X119975000Y-84840000D03*
X121975000Y-84840000D03*
X124475000Y-84840000D03*
D33*
X127545000Y-87550000D03*
X114405000Y-87550000D03*
%TD*%
D17*
%TO.C,R4*%
X131175000Y-92200000D03*
X131175000Y-90200000D03*
%TD*%
D34*
%TO.C,C14*%
X124776992Y-76801992D03*
X125873008Y-77898008D03*
%TD*%
D35*
%TO.C,FB1*%
X131862500Y-80500000D03*
X129987500Y-80500000D03*
%TD*%
D13*
%TO.C,TP12*%
X116625000Y-74550000D03*
%TD*%
D24*
%TO.C,C15*%
X128923008Y-75898008D03*
X127826992Y-74801992D03*
%TD*%
D13*
%TO.C,TP10*%
X132100000Y-73150000D03*
%TD*%
D36*
%TO.C,R5*%
X124982107Y-71557107D03*
X123567893Y-70142893D03*
%TD*%
M02*
