%TF.GenerationSoftware,KiCad,Pcbnew,6.0.0*%
%TF.CreationDate,2022-03-07T01:42:13-06:00*%
%TF.ProjectId,test,74657374-2e6b-4696-9361-645f70636258,rev?*%
%TF.SameCoordinates,Original*%
%TF.FileFunction,Paste,Top*%
%TF.FilePolarity,Positive*%
%FSLAX46Y46*%
G04 Gerber Fmt 4.6, Leading zero omitted, Abs format (unit mm)*
G04 Created by KiCad (PCBNEW 6.0.0) date 2022-03-07 01:42:13*
%MOMM*%
%LPD*%
G01*
G04 APERTURE LIST*
G04 Aperture macros list*
%AMRoundRect*
0 Rectangle with rounded corners*
0 $1 Rounding radius*
0 $2 $3 $4 $5 $6 $7 $8 $9 X,Y pos of 4 corners*
0 Add a 4 corners polygon primitive as box body*
4,1,4,$2,$3,$4,$5,$6,$7,$8,$9,$2,$3,0*
0 Add four circle primitives for the rounded corners*
1,1,$1+$1,$2,$3*
1,1,$1+$1,$4,$5*
1,1,$1+$1,$6,$7*
1,1,$1+$1,$8,$9*
0 Add four rect primitives between the rounded corners*
20,1,$1+$1,$2,$3,$4,$5,0*
20,1,$1+$1,$4,$5,$6,$7,0*
20,1,$1+$1,$6,$7,$8,$9,0*
20,1,$1+$1,$8,$9,$2,$3,0*%
G04 Aperture macros list end*
%ADD10RoundRect,0.225000X-0.225000X-0.250000X0.225000X-0.250000X0.225000X0.250000X-0.225000X0.250000X0*%
%ADD11RoundRect,0.250000X0.450000X-0.350000X0.450000X0.350000X-0.450000X0.350000X-0.450000X-0.350000X0*%
%ADD12RoundRect,0.225000X-0.250000X0.225000X-0.250000X-0.225000X0.250000X-0.225000X0.250000X0.225000X0*%
%ADD13RoundRect,0.250000X-0.450000X0.350000X-0.450000X-0.350000X0.450000X-0.350000X0.450000X0.350000X0*%
%ADD14RoundRect,0.250000X0.070711X-0.565685X0.565685X-0.070711X-0.070711X0.565685X-0.565685X0.070711X0*%
%ADD15RoundRect,0.225000X0.250000X-0.225000X0.250000X0.225000X-0.250000X0.225000X-0.250000X-0.225000X0*%
%ADD16RoundRect,0.225000X0.335876X0.017678X0.017678X0.335876X-0.335876X-0.017678X-0.017678X-0.335876X0*%
%ADD17RoundRect,0.212500X-0.300520X0.000000X0.000000X-0.300520X0.300520X0.000000X0.000000X0.300520X0*%
%ADD18RoundRect,0.075000X-0.300520X0.194454X0.194454X-0.300520X0.300520X-0.194454X-0.194454X0.300520X0*%
%ADD19RoundRect,0.075000X-0.300520X-0.194454X-0.194454X-0.300520X0.300520X0.194454X0.194454X0.300520X0*%
%ADD20RoundRect,0.243750X0.456250X-0.243750X0.456250X0.243750X-0.456250X0.243750X-0.456250X-0.243750X0*%
%ADD21RoundRect,0.225000X-0.335876X-0.017678X-0.017678X-0.335876X0.335876X0.017678X0.017678X0.335876X0*%
%ADD22RoundRect,0.243750X0.243750X0.456250X-0.243750X0.456250X-0.243750X-0.456250X0.243750X-0.456250X0*%
%ADD23RoundRect,0.250000X0.565685X0.070711X0.070711X0.565685X-0.565685X-0.070711X-0.070711X-0.565685X0*%
G04 APERTURE END LIST*
D10*
%TO.C,C11*%
X130250000Y-78075000D03*
X131800000Y-78075000D03*
%TD*%
D11*
%TO.C,R3*%
X118975000Y-81000000D03*
X118975000Y-79000000D03*
%TD*%
D12*
%TO.C,C18*%
X111475000Y-74275000D03*
X111475000Y-75825000D03*
%TD*%
D13*
%TO.C,R7*%
X110850000Y-93937500D03*
X110850000Y-95937500D03*
%TD*%
D14*
%TO.C,R6*%
X117367893Y-72107107D03*
X118782107Y-70692893D03*
%TD*%
D15*
%TO.C,C13*%
X116975000Y-80875000D03*
X116975000Y-79325000D03*
%TD*%
D16*
%TO.C,C16*%
X127723008Y-77098008D03*
X126626992Y-76001992D03*
%TD*%
D17*
%TO.C,U2*%
X121947462Y-73690000D03*
X120462538Y-73690000D03*
X121205000Y-72947538D03*
X121205000Y-74432462D03*
D18*
X120515571Y-71621713D03*
X120055951Y-72081332D03*
X119596332Y-72540951D03*
X119136713Y-73000571D03*
D19*
X119136713Y-74379429D03*
X119596332Y-74839049D03*
X120055951Y-75298668D03*
X120515571Y-75758287D03*
D18*
X121894429Y-75758287D03*
X122354049Y-75298668D03*
X122813668Y-74839049D03*
X123273287Y-74379429D03*
D19*
X123273287Y-73000571D03*
X122813668Y-72540951D03*
X122354049Y-72081332D03*
X121894429Y-71621713D03*
%TD*%
D15*
%TO.C,C12*%
X123975000Y-80825000D03*
X123975000Y-79275000D03*
%TD*%
D11*
%TO.C,R2*%
X121675000Y-81000000D03*
X121675000Y-79000000D03*
%TD*%
D20*
%TO.C,D2*%
X110850000Y-91912500D03*
X110850000Y-90037500D03*
%TD*%
D11*
%TO.C,R4*%
X131175000Y-92200000D03*
X131175000Y-90200000D03*
%TD*%
D21*
%TO.C,C14*%
X124776992Y-76801992D03*
X125873008Y-77898008D03*
%TD*%
D22*
%TO.C,FB1*%
X131862500Y-80500000D03*
X129987500Y-80500000D03*
%TD*%
D16*
%TO.C,C15*%
X128923008Y-75898008D03*
X127826992Y-74801992D03*
%TD*%
D23*
%TO.C,R5*%
X124982107Y-71557107D03*
X123567893Y-70142893D03*
%TD*%
M02*
