%TF.GenerationSoftware,KiCad,Pcbnew,6.0.0*%
%TF.CreationDate,2022-03-07T01:42:12-06:00*%
%TF.ProjectId,test,74657374-2e6b-4696-9361-645f70636258,rev?*%
%TF.SameCoordinates,Original*%
%TF.FileFunction,Copper,L2,Bot*%
%TF.FilePolarity,Positive*%
%FSLAX46Y46*%
G04 Gerber Fmt 4.6, Leading zero omitted, Abs format (unit mm)*
G04 Created by KiCad (PCBNEW 6.0.0) date 2022-03-07 01:42:12*
%MOMM*%
%LPD*%
G01*
G04 APERTURE LIST*
%TA.AperFunction,ComponentPad*%
%ADD10C,4.400000*%
%TD*%
%TA.AperFunction,ComponentPad*%
%ADD11C,0.700000*%
%TD*%
%TA.AperFunction,ComponentPad*%
%ADD12R,1.000000X1.000000*%
%TD*%
%TA.AperFunction,ComponentPad*%
%ADD13O,1.000000X1.000000*%
%TD*%
%TA.AperFunction,ComponentPad*%
%ADD14R,1.700000X1.700000*%
%TD*%
%TA.AperFunction,ComponentPad*%
%ADD15O,1.700000X1.700000*%
%TD*%
%TA.AperFunction,ComponentPad*%
%ADD16R,1.600000X1.500000*%
%TD*%
%TA.AperFunction,ComponentPad*%
%ADD17C,1.600000*%
%TD*%
%TA.AperFunction,ComponentPad*%
%ADD18C,3.000000*%
%TD*%
%TA.AperFunction,ViaPad*%
%ADD19C,0.800000*%
%TD*%
%TA.AperFunction,Conductor*%
%ADD20C,1.000000*%
%TD*%
%TA.AperFunction,Conductor*%
%ADD21C,0.800000*%
%TD*%
%TA.AperFunction,Conductor*%
%ADD22C,1.200000*%
%TD*%
G04 APERTURE END LIST*
D10*
%TO.P,H3,1,1*%
%TO.N,GND*%
X109700000Y-81450000D03*
D11*
X111350000Y-81450000D03*
X110866726Y-82616726D03*
X109700000Y-83100000D03*
X108533274Y-82616726D03*
X108050000Y-81450000D03*
X108533274Y-80283274D03*
X109700000Y-79800000D03*
X110866726Y-80283274D03*
%TD*%
D10*
%TO.P,H2,1,1*%
%TO.N,GND*%
X110425000Y-66700000D03*
D11*
X112075000Y-66700000D03*
X111591726Y-67866726D03*
X110425000Y-68350000D03*
X109258274Y-67866726D03*
X108775000Y-66700000D03*
X109258274Y-65533274D03*
X110425000Y-65050000D03*
X111591726Y-65533274D03*
%TD*%
D10*
%TO.P,H1,1,1*%
%TO.N,GND*%
X132725000Y-66650000D03*
D11*
X134375000Y-66650000D03*
X133891726Y-67816726D03*
X132725000Y-68300000D03*
X131558274Y-67816726D03*
X131075000Y-66650000D03*
X131558274Y-65483274D03*
X132725000Y-65000000D03*
X133891726Y-65483274D03*
%TD*%
D12*
%TO.P,J7,1,Pin_1*%
%TO.N,I2C1_SCL*%
X121100000Y-68000000D03*
D13*
%TO.P,J7,2,Pin_2*%
%TO.N,I2C1_SDA*%
X121100000Y-66730000D03*
%TO.P,J7,3,Pin_3*%
%TO.N,+3V3*%
X121100000Y-65460000D03*
%TO.P,J7,4,Pin_4*%
%TO.N,GND*%
X121100000Y-64190000D03*
%TD*%
D14*
%TO.P,SW2,1,1*%
%TO.N,GND*%
X131950000Y-86925000D03*
D15*
%TO.P,SW2,2,2*%
%TO.N,Net-(U2-Pad9)*%
X131950000Y-84385000D03*
%TD*%
D16*
%TO.P,J4,1,VBUS*%
%TO.N,/USB_5V*%
X117475000Y-84840000D03*
D17*
%TO.P,J4,2,D-*%
%TO.N,Net-(J4-Pad2)*%
X119975000Y-84840000D03*
%TO.P,J4,3,D+*%
%TO.N,Net-(J4-Pad3)*%
X121975000Y-84840000D03*
%TO.P,J4,4,GND*%
%TO.N,GND*%
X124475000Y-84840000D03*
D18*
%TO.P,J4,5,Shield*%
X127545000Y-87550000D03*
X114405000Y-87550000D03*
%TD*%
D19*
%TO.N,/USB_3V3*%
X121475000Y-77350000D03*
%TO.N,/USB_5V*%
X133375000Y-79300000D03*
%TO.N,GND*%
X128050000Y-80100000D03*
%TO.N,Net-(J4-Pad3)*%
X119175000Y-82550000D03*
%TO.N,GND*%
X121875000Y-69600000D03*
X124100000Y-73575000D03*
%TO.N,/USB_3V3*%
X117625000Y-76651512D03*
%TO.N,+3V3*%
X126050000Y-72575000D03*
%TO.N,/USB_3V3*%
X121125000Y-70950000D03*
%TO.N,GND*%
X118450000Y-73525000D03*
X118050000Y-75250000D03*
X116025000Y-77675000D03*
X125650000Y-80325000D03*
%TO.N,+3V3*%
X115917893Y-72107107D03*
%TD*%
D20*
%TO.N,+3V3*%
X115917893Y-69935001D02*
X115917893Y-72107107D01*
%TO.N,/USB_5V*%
X117475000Y-84840000D02*
X118974511Y-86339511D01*
X118974511Y-86339511D02*
X125644910Y-86339511D01*
X125644910Y-86339511D02*
X132684421Y-79300000D01*
X132684421Y-79300000D02*
X133375000Y-79300000D01*
%TO.N,+3V3*%
X121100000Y-65460000D02*
X121807106Y-65460000D01*
X121807106Y-65460000D02*
X126050000Y-69702894D01*
X126050000Y-69702894D02*
X126050000Y-72575000D01*
X121100000Y-65460000D02*
X120392894Y-65460000D01*
X120392894Y-65460000D02*
X115917893Y-69935001D01*
D21*
%TO.N,Net-(J4-Pad3)*%
X119685000Y-82550000D02*
X121975000Y-84840000D01*
X119175000Y-82550000D02*
X119685000Y-82550000D01*
D22*
%TO.N,/USB_3V3*%
X120776512Y-76651512D02*
X117625000Y-76651512D01*
D21*
X121475000Y-77350000D02*
X121475000Y-71300000D01*
D22*
X121475000Y-77350000D02*
X120776512Y-76651512D01*
D21*
X121475000Y-71300000D02*
X121125000Y-70950000D01*
%TD*%
%TA.AperFunction,Conductor*%
%TO.N,GND*%
G36*
X135859121Y-63053002D02*
G01*
X135905614Y-63106658D01*
X135917000Y-63159000D01*
X135917000Y-97841000D01*
X135896998Y-97909121D01*
X135843342Y-97955614D01*
X135791000Y-97967000D01*
X106684000Y-97967000D01*
X106615879Y-97946998D01*
X106569386Y-97893342D01*
X106558000Y-97841000D01*
X106558000Y-85638134D01*
X116166500Y-85638134D01*
X116173255Y-85700316D01*
X116224385Y-85836705D01*
X116311739Y-85953261D01*
X116428295Y-86040615D01*
X116564684Y-86091745D01*
X116626866Y-86098500D01*
X117255074Y-86098500D01*
X117323195Y-86118502D01*
X117344169Y-86135404D01*
X118217660Y-87008894D01*
X118226762Y-87019038D01*
X118250479Y-87048536D01*
X118255207Y-87052503D01*
X118288932Y-87080802D01*
X118292580Y-87083983D01*
X118294392Y-87085626D01*
X118296586Y-87087820D01*
X118329860Y-87115153D01*
X118330658Y-87115815D01*
X118401985Y-87175665D01*
X118406655Y-87178233D01*
X118410772Y-87181614D01*
X118492631Y-87225506D01*
X118493791Y-87226135D01*
X118569900Y-87267977D01*
X118569905Y-87267979D01*
X118575298Y-87270944D01*
X118580376Y-87272555D01*
X118585074Y-87275074D01*
X118674009Y-87302264D01*
X118675213Y-87302639D01*
X118763817Y-87330746D01*
X118769108Y-87331339D01*
X118774209Y-87332899D01*
X118780341Y-87333522D01*
X118780347Y-87333523D01*
X118840849Y-87339668D01*
X118866774Y-87342301D01*
X118867961Y-87342427D01*
X118897349Y-87345724D01*
X118914241Y-87347619D01*
X118914246Y-87347619D01*
X118917738Y-87348011D01*
X118921263Y-87348011D01*
X118922248Y-87348066D01*
X118927943Y-87348514D01*
X118939853Y-87349724D01*
X118964845Y-87352263D01*
X118964850Y-87352263D01*
X118970973Y-87352885D01*
X119016622Y-87348570D01*
X119028479Y-87348011D01*
X125583067Y-87348011D01*
X125596674Y-87348748D01*
X125628172Y-87352170D01*
X125628177Y-87352170D01*
X125634298Y-87352835D01*
X125660548Y-87350538D01*
X125684298Y-87348461D01*
X125689124Y-87348132D01*
X125691596Y-87348011D01*
X125694679Y-87348011D01*
X125706648Y-87346837D01*
X125737416Y-87343821D01*
X125738729Y-87343699D01*
X125782994Y-87339826D01*
X125831323Y-87335598D01*
X125836442Y-87334111D01*
X125841743Y-87333591D01*
X125930744Y-87306720D01*
X125931877Y-87306385D01*
X126015324Y-87282141D01*
X126015328Y-87282139D01*
X126021246Y-87280420D01*
X126025978Y-87277967D01*
X126031079Y-87276427D01*
X126046972Y-87267977D01*
X126113170Y-87232780D01*
X126114336Y-87232168D01*
X126191363Y-87192240D01*
X126196836Y-87189403D01*
X126200999Y-87186080D01*
X126205706Y-87183577D01*
X126277828Y-87124756D01*
X126278684Y-87124065D01*
X126317883Y-87092773D01*
X126320387Y-87090269D01*
X126321105Y-87089627D01*
X126325438Y-87085926D01*
X126358972Y-87058576D01*
X126388198Y-87023248D01*
X126396187Y-87014469D01*
X129058961Y-84351695D01*
X130587251Y-84351695D01*
X130587548Y-84356848D01*
X130587548Y-84356851D01*
X130593011Y-84451590D01*
X130600110Y-84574715D01*
X130601247Y-84579761D01*
X130601248Y-84579767D01*
X130607295Y-84606598D01*
X130649222Y-84792639D01*
X130733266Y-84999616D01*
X130849987Y-85190088D01*
X130996250Y-85358938D01*
X131168126Y-85501632D01*
X131361000Y-85614338D01*
X131569692Y-85694030D01*
X131574760Y-85695061D01*
X131574763Y-85695062D01*
X131682017Y-85716883D01*
X131788597Y-85738567D01*
X131793772Y-85738757D01*
X131793774Y-85738757D01*
X132006673Y-85746564D01*
X132006677Y-85746564D01*
X132011837Y-85746753D01*
X132016957Y-85746097D01*
X132016959Y-85746097D01*
X132228288Y-85719025D01*
X132228289Y-85719025D01*
X132233416Y-85718368D01*
X132268924Y-85707715D01*
X132442429Y-85655661D01*
X132442434Y-85655659D01*
X132447384Y-85654174D01*
X132647994Y-85555896D01*
X132829860Y-85426173D01*
X132988096Y-85268489D01*
X133047594Y-85185689D01*
X133115435Y-85091277D01*
X133118453Y-85087077D01*
X133127839Y-85068087D01*
X133215136Y-84891453D01*
X133215137Y-84891451D01*
X133217430Y-84886811D01*
X133282370Y-84673069D01*
X133311529Y-84451590D01*
X133312886Y-84396067D01*
X133313074Y-84388365D01*
X133313074Y-84388361D01*
X133313156Y-84385000D01*
X133294852Y-84162361D01*
X133240431Y-83945702D01*
X133151354Y-83740840D01*
X133065441Y-83608039D01*
X133032822Y-83557617D01*
X133032820Y-83557614D01*
X133030014Y-83553277D01*
X132879670Y-83388051D01*
X132875619Y-83384852D01*
X132875615Y-83384848D01*
X132708414Y-83252800D01*
X132708410Y-83252798D01*
X132704359Y-83249598D01*
X132508789Y-83141638D01*
X132503920Y-83139914D01*
X132503916Y-83139912D01*
X132303087Y-83068795D01*
X132303083Y-83068794D01*
X132298212Y-83067069D01*
X132293119Y-83066162D01*
X132293116Y-83066161D01*
X132083373Y-83028800D01*
X132083367Y-83028799D01*
X132078284Y-83027894D01*
X132004452Y-83026992D01*
X131860081Y-83025228D01*
X131860079Y-83025228D01*
X131854911Y-83025165D01*
X131634091Y-83058955D01*
X131421756Y-83128357D01*
X131391443Y-83144137D01*
X131287601Y-83198194D01*
X131223607Y-83231507D01*
X131219474Y-83234610D01*
X131219471Y-83234612D01*
X131049100Y-83362530D01*
X131044965Y-83365635D01*
X130890629Y-83527138D01*
X130887715Y-83531410D01*
X130887714Y-83531411D01*
X130837997Y-83604293D01*
X130764743Y-83711680D01*
X130670688Y-83914305D01*
X130610989Y-84129570D01*
X130587251Y-84351695D01*
X129058961Y-84351695D01*
X133065250Y-80345405D01*
X133127562Y-80311379D01*
X133154345Y-80308500D01*
X133424769Y-80308500D01*
X133427825Y-80308200D01*
X133427832Y-80308200D01*
X133486340Y-80302463D01*
X133571833Y-80294080D01*
X133577734Y-80292298D01*
X133577736Y-80292298D01*
X133651053Y-80270162D01*
X133761169Y-80236916D01*
X133935796Y-80144066D01*
X134022062Y-80073709D01*
X134084287Y-80022960D01*
X134084290Y-80022957D01*
X134089062Y-80019065D01*
X134092991Y-80014316D01*
X134211201Y-79871425D01*
X134211203Y-79871421D01*
X134215130Y-79866675D01*
X134309198Y-79692701D01*
X134367682Y-79503768D01*
X134388355Y-79307075D01*
X134370430Y-79110112D01*
X134314590Y-78920381D01*
X134222960Y-78745110D01*
X134099032Y-78590975D01*
X134092727Y-78585684D01*
X134050062Y-78549884D01*
X133947526Y-78463846D01*
X133942128Y-78460879D01*
X133942123Y-78460875D01*
X133779608Y-78371533D01*
X133779609Y-78371533D01*
X133774213Y-78368567D01*
X133768346Y-78366706D01*
X133768344Y-78366705D01*
X133591564Y-78310627D01*
X133591563Y-78310627D01*
X133585694Y-78308765D01*
X133431773Y-78291500D01*
X132746264Y-78291500D01*
X132732657Y-78290763D01*
X132701159Y-78287341D01*
X132701154Y-78287341D01*
X132695033Y-78286676D01*
X132668783Y-78288973D01*
X132645033Y-78291050D01*
X132640207Y-78291379D01*
X132637735Y-78291500D01*
X132634652Y-78291500D01*
X132622683Y-78292674D01*
X132591915Y-78295690D01*
X132590602Y-78295812D01*
X132546337Y-78299685D01*
X132498008Y-78303913D01*
X132492889Y-78305400D01*
X132487588Y-78305920D01*
X132398587Y-78332791D01*
X132397454Y-78333126D01*
X132314007Y-78357370D01*
X132314003Y-78357372D01*
X132308085Y-78359091D01*
X132303353Y-78361544D01*
X132298252Y-78363084D01*
X132292809Y-78365978D01*
X132216161Y-78406731D01*
X132214995Y-78407343D01*
X132139025Y-78446723D01*
X132132495Y-78450108D01*
X132128332Y-78453431D01*
X132123625Y-78455934D01*
X132051503Y-78514755D01*
X132050647Y-78515446D01*
X132011448Y-78546738D01*
X132008944Y-78549242D01*
X132008226Y-78549884D01*
X132003893Y-78553585D01*
X131970359Y-78580935D01*
X131966432Y-78585682D01*
X131966430Y-78585684D01*
X131941134Y-78616262D01*
X131933144Y-78625042D01*
X128586052Y-81972135D01*
X125264081Y-85294106D01*
X125201769Y-85328132D01*
X125174986Y-85331011D01*
X123362299Y-85331011D01*
X123294178Y-85311009D01*
X123247685Y-85257353D01*
X123237581Y-85187079D01*
X123240592Y-85172399D01*
X123262329Y-85091277D01*
X123268543Y-85068087D01*
X123288498Y-84840000D01*
X123268543Y-84611913D01*
X123267119Y-84606598D01*
X123210707Y-84396067D01*
X123210706Y-84396065D01*
X123209284Y-84390757D01*
X123206961Y-84385775D01*
X123114849Y-84188238D01*
X123114846Y-84188233D01*
X123112523Y-84183251D01*
X123039098Y-84078389D01*
X122984357Y-84000211D01*
X122984355Y-84000208D01*
X122981198Y-83995700D01*
X122819300Y-83833802D01*
X122814792Y-83830645D01*
X122814789Y-83830643D01*
X122736611Y-83775902D01*
X122631749Y-83702477D01*
X122626767Y-83700154D01*
X122626762Y-83700151D01*
X122429225Y-83608039D01*
X122429224Y-83608039D01*
X122424243Y-83605716D01*
X122418935Y-83604294D01*
X122418933Y-83604293D01*
X122208402Y-83547881D01*
X122208400Y-83547881D01*
X122203087Y-83546457D01*
X122197611Y-83545978D01*
X122197606Y-83545977D01*
X122067904Y-83534630D01*
X121989249Y-83527749D01*
X121923131Y-83501886D01*
X121911136Y-83491323D01*
X120384981Y-81965168D01*
X120372140Y-81950135D01*
X120367746Y-81944087D01*
X120367745Y-81944086D01*
X120363866Y-81938747D01*
X120313041Y-81892984D01*
X120308256Y-81888443D01*
X120293741Y-81873928D01*
X120285503Y-81867257D01*
X120277784Y-81861006D01*
X120272769Y-81856722D01*
X120226855Y-81815381D01*
X120226850Y-81815377D01*
X120221944Y-81810960D01*
X120216228Y-81807660D01*
X120216224Y-81807657D01*
X120209763Y-81803927D01*
X120193466Y-81792727D01*
X120187660Y-81788025D01*
X120187658Y-81788024D01*
X120182530Y-81783871D01*
X120121577Y-81752814D01*
X120115782Y-81749667D01*
X120062279Y-81718777D01*
X120062278Y-81718776D01*
X120056556Y-81715473D01*
X120050274Y-81713432D01*
X120050272Y-81713431D01*
X120043174Y-81711125D01*
X120024907Y-81703559D01*
X120012370Y-81697171D01*
X119946299Y-81679467D01*
X119939997Y-81677600D01*
X119874928Y-81656458D01*
X119868363Y-81655768D01*
X119868354Y-81655766D01*
X119860925Y-81654985D01*
X119841491Y-81651383D01*
X119834286Y-81649453D01*
X119834284Y-81649453D01*
X119827903Y-81647743D01*
X119821312Y-81647398D01*
X119821308Y-81647397D01*
X119759616Y-81644164D01*
X119753042Y-81643647D01*
X119735884Y-81641844D01*
X119735882Y-81641844D01*
X119732610Y-81641500D01*
X119712074Y-81641500D01*
X119705480Y-81641327D01*
X119643782Y-81638093D01*
X119643777Y-81638093D01*
X119637190Y-81637748D01*
X119623292Y-81639949D01*
X119603583Y-81641500D01*
X119079513Y-81641500D01*
X119039136Y-81650082D01*
X119026128Y-81652143D01*
X119005690Y-81654291D01*
X118991635Y-81655768D01*
X118991633Y-81655768D01*
X118985072Y-81656458D01*
X118978798Y-81658497D01*
X118978791Y-81658498D01*
X118945817Y-81669212D01*
X118933080Y-81672625D01*
X118899169Y-81679833D01*
X118899165Y-81679834D01*
X118892712Y-81681206D01*
X118854994Y-81697999D01*
X118842698Y-81702718D01*
X118803444Y-81715473D01*
X118797723Y-81718776D01*
X118767710Y-81736104D01*
X118755959Y-81742092D01*
X118731875Y-81752815D01*
X118718248Y-81758882D01*
X118712909Y-81762761D01*
X118712904Y-81762764D01*
X118684851Y-81783146D01*
X118673798Y-81790325D01*
X118638056Y-81810960D01*
X118633147Y-81815380D01*
X118633143Y-81815383D01*
X118607386Y-81838575D01*
X118597143Y-81846871D01*
X118563747Y-81871134D01*
X118559333Y-81876036D01*
X118559331Y-81876038D01*
X118536129Y-81901806D01*
X118526806Y-81911129D01*
X118501038Y-81934331D01*
X118496134Y-81938747D01*
X118471871Y-81972143D01*
X118463575Y-81982386D01*
X118440383Y-82008143D01*
X118440380Y-82008147D01*
X118435960Y-82013056D01*
X118415325Y-82048798D01*
X118408146Y-82059851D01*
X118387764Y-82087904D01*
X118387761Y-82087909D01*
X118383882Y-82093248D01*
X118381199Y-82099275D01*
X118381198Y-82099276D01*
X118367092Y-82130959D01*
X118361105Y-82142708D01*
X118340473Y-82178444D01*
X118338432Y-82184727D01*
X118338431Y-82184728D01*
X118327719Y-82217696D01*
X118322999Y-82229994D01*
X118306206Y-82267712D01*
X118304834Y-82274165D01*
X118304833Y-82274169D01*
X118297625Y-82308080D01*
X118294212Y-82320817D01*
X118283498Y-82353791D01*
X118283497Y-82353798D01*
X118281458Y-82360072D01*
X118280768Y-82366633D01*
X118280768Y-82366635D01*
X118277144Y-82401122D01*
X118275082Y-82414136D01*
X118266500Y-82454513D01*
X118266500Y-82495784D01*
X118265810Y-82508955D01*
X118261496Y-82550000D01*
X118262186Y-82556565D01*
X118265810Y-82591045D01*
X118266500Y-82604216D01*
X118266500Y-82645487D01*
X118275082Y-82685864D01*
X118277143Y-82698872D01*
X118281458Y-82739928D01*
X118283497Y-82746202D01*
X118283498Y-82746209D01*
X118294212Y-82779183D01*
X118297625Y-82791920D01*
X118306206Y-82832288D01*
X118322999Y-82870006D01*
X118327718Y-82882302D01*
X118340473Y-82921556D01*
X118343776Y-82927277D01*
X118361104Y-82957290D01*
X118367091Y-82969039D01*
X118383882Y-83006752D01*
X118387761Y-83012091D01*
X118387764Y-83012096D01*
X118408146Y-83040149D01*
X118415325Y-83051202D01*
X118435960Y-83086944D01*
X118440380Y-83091853D01*
X118440383Y-83091857D01*
X118463575Y-83117614D01*
X118471871Y-83127857D01*
X118496134Y-83161253D01*
X118501036Y-83165667D01*
X118501038Y-83165669D01*
X118526806Y-83188871D01*
X118536129Y-83198194D01*
X118563747Y-83228866D01*
X118597143Y-83253129D01*
X118607386Y-83261425D01*
X118633143Y-83284617D01*
X118633147Y-83284620D01*
X118638056Y-83289040D01*
X118673798Y-83309675D01*
X118684851Y-83316854D01*
X118712904Y-83337236D01*
X118712909Y-83337239D01*
X118718248Y-83341118D01*
X118724275Y-83343801D01*
X118724276Y-83343802D01*
X118755959Y-83357908D01*
X118767708Y-83363895D01*
X118803444Y-83384527D01*
X118809727Y-83386568D01*
X118809728Y-83386569D01*
X118842696Y-83397281D01*
X118854994Y-83402001D01*
X118892712Y-83418794D01*
X118899165Y-83420166D01*
X118899169Y-83420167D01*
X118933080Y-83427375D01*
X118945817Y-83430788D01*
X118978791Y-83441502D01*
X118978798Y-83441503D01*
X118985072Y-83443542D01*
X118991633Y-83444232D01*
X118991635Y-83444232D01*
X119005690Y-83445709D01*
X119026128Y-83447857D01*
X119039136Y-83449918D01*
X119079513Y-83458500D01*
X119256497Y-83458500D01*
X119324618Y-83478502D01*
X119345592Y-83495405D01*
X119351103Y-83500916D01*
X119385129Y-83563228D01*
X119380064Y-83634043D01*
X119337517Y-83690879D01*
X119325004Y-83699132D01*
X119323239Y-83700151D01*
X119318251Y-83702477D01*
X119313753Y-83705627D01*
X119313747Y-83705630D01*
X119135211Y-83830643D01*
X119135208Y-83830645D01*
X119130700Y-83833802D01*
X118971860Y-83992642D01*
X118909548Y-84026668D01*
X118838733Y-84021603D01*
X118781897Y-83979056D01*
X118764783Y-83947776D01*
X118728768Y-83851705D01*
X118728767Y-83851703D01*
X118725615Y-83843295D01*
X118638261Y-83726739D01*
X118521705Y-83639385D01*
X118385316Y-83588255D01*
X118323134Y-83581500D01*
X116626866Y-83581500D01*
X116564684Y-83588255D01*
X116428295Y-83639385D01*
X116311739Y-83726739D01*
X116224385Y-83843295D01*
X116173255Y-83979684D01*
X116166500Y-84041866D01*
X116166500Y-85638134D01*
X106558000Y-85638134D01*
X106558000Y-76597116D01*
X116512787Y-76597116D01*
X116522567Y-76808411D01*
X116572125Y-77014046D01*
X116659674Y-77206599D01*
X116782054Y-77379123D01*
X116934850Y-77525393D01*
X117112548Y-77640132D01*
X117118114Y-77642375D01*
X117303168Y-77716954D01*
X117303171Y-77716955D01*
X117308737Y-77719198D01*
X117516337Y-77759740D01*
X117521899Y-77760012D01*
X120265167Y-77760012D01*
X120333288Y-77780014D01*
X120354262Y-77796917D01*
X120728540Y-78171195D01*
X120730845Y-78173099D01*
X120730850Y-78173103D01*
X120820389Y-78247045D01*
X120850705Y-78272080D01*
X121036329Y-78373496D01*
X121171524Y-78416772D01*
X121232076Y-78436155D01*
X121232078Y-78436155D01*
X121237781Y-78437981D01*
X121315116Y-78447271D01*
X121441846Y-78462495D01*
X121441850Y-78462495D01*
X121447793Y-78463209D01*
X121453769Y-78462786D01*
X121453772Y-78462786D01*
X121652805Y-78448694D01*
X121652809Y-78448693D01*
X121658788Y-78448270D01*
X121704161Y-78436155D01*
X121857357Y-78395250D01*
X121857359Y-78395249D01*
X121863150Y-78393703D01*
X121868545Y-78391089D01*
X121868548Y-78391088D01*
X122048106Y-78304093D01*
X122048108Y-78304092D01*
X122053507Y-78301476D01*
X122061169Y-78295755D01*
X122218185Y-78178504D01*
X122222989Y-78174917D01*
X122365482Y-78018593D01*
X122475845Y-77838145D01*
X122550094Y-77640083D01*
X122559728Y-77583426D01*
X122584545Y-77437472D01*
X122584545Y-77437469D01*
X122585551Y-77431554D01*
X122580937Y-77220082D01*
X122536418Y-77013298D01*
X122453600Y-76818664D01*
X122404980Y-76746445D01*
X122383500Y-76676079D01*
X122383500Y-71381417D01*
X122385051Y-71361707D01*
X122386220Y-71354327D01*
X122386220Y-71354326D01*
X122387252Y-71347810D01*
X122383673Y-71279520D01*
X122383500Y-71272926D01*
X122383500Y-71252390D01*
X122383156Y-71249116D01*
X122381353Y-71231958D01*
X122380836Y-71225384D01*
X122377603Y-71163696D01*
X122377603Y-71163694D01*
X122377257Y-71157097D01*
X122373615Y-71143504D01*
X122370014Y-71124075D01*
X122369232Y-71116639D01*
X122368542Y-71110072D01*
X122365038Y-71099286D01*
X122347409Y-71045031D01*
X122345535Y-71038706D01*
X122329538Y-70979003D01*
X122329537Y-70979000D01*
X122327830Y-70972630D01*
X122321438Y-70960085D01*
X122313874Y-70941823D01*
X122311568Y-70934726D01*
X122309527Y-70928444D01*
X122275336Y-70869223D01*
X122272188Y-70863426D01*
X122244126Y-70808351D01*
X122244124Y-70808348D01*
X122241129Y-70802470D01*
X122232273Y-70791533D01*
X122221073Y-70775237D01*
X122217343Y-70768776D01*
X122217340Y-70768772D01*
X122214040Y-70763056D01*
X122209623Y-70758150D01*
X122209619Y-70758145D01*
X122168278Y-70712231D01*
X122163994Y-70707216D01*
X122153148Y-70693823D01*
X122151072Y-70691259D01*
X122136557Y-70676744D01*
X122132016Y-70671959D01*
X122090673Y-70626043D01*
X122086253Y-70621134D01*
X122074865Y-70612860D01*
X122059832Y-70600019D01*
X121786557Y-70326744D01*
X121782016Y-70321959D01*
X121740675Y-70276045D01*
X121740673Y-70276043D01*
X121736253Y-70271134D01*
X121680919Y-70230931D01*
X121675691Y-70226919D01*
X121627667Y-70188030D01*
X121627662Y-70188027D01*
X121622530Y-70183871D01*
X121609993Y-70177483D01*
X121593136Y-70167153D01*
X121587093Y-70162762D01*
X121587090Y-70162760D01*
X121581752Y-70158882D01*
X121575724Y-70156198D01*
X121575722Y-70156197D01*
X121519249Y-70131054D01*
X121513296Y-70128214D01*
X121458253Y-70100168D01*
X121458249Y-70100166D01*
X121452370Y-70097171D01*
X121445992Y-70095462D01*
X121438779Y-70093529D01*
X121420147Y-70086931D01*
X121413319Y-70083891D01*
X121413317Y-70083890D01*
X121407288Y-70081206D01*
X121349152Y-70068848D01*
X121340390Y-70066986D01*
X121333978Y-70065447D01*
X121274280Y-70049451D01*
X121274274Y-70049450D01*
X121267903Y-70047743D01*
X121261313Y-70047398D01*
X121261309Y-70047397D01*
X121253857Y-70047007D01*
X121234252Y-70044426D01*
X121220487Y-70041500D01*
X121152074Y-70041500D01*
X121145480Y-70041327D01*
X121083782Y-70038093D01*
X121083777Y-70038093D01*
X121077190Y-70037748D01*
X121063292Y-70039949D01*
X121043583Y-70041500D01*
X121029513Y-70041500D01*
X120962586Y-70055726D01*
X120956135Y-70056922D01*
X120888568Y-70067623D01*
X120875432Y-70072666D01*
X120856473Y-70078281D01*
X120849170Y-70079833D01*
X120849166Y-70079834D01*
X120842712Y-70081206D01*
X120780206Y-70109035D01*
X120774133Y-70111550D01*
X120716443Y-70133695D01*
X120716439Y-70133697D01*
X120710278Y-70136062D01*
X120698480Y-70143724D01*
X120681106Y-70153157D01*
X120674282Y-70156195D01*
X120674278Y-70156197D01*
X120668248Y-70158882D01*
X120662908Y-70162762D01*
X120612910Y-70199087D01*
X120607475Y-70202822D01*
X120555653Y-70236476D01*
X120550113Y-70240074D01*
X120540168Y-70250019D01*
X120525135Y-70262860D01*
X120513747Y-70271134D01*
X120509327Y-70276043D01*
X120467984Y-70321959D01*
X120463443Y-70326744D01*
X120415074Y-70375113D01*
X120411478Y-70380651D01*
X120411476Y-70380653D01*
X120407408Y-70386917D01*
X120395372Y-70402603D01*
X120385960Y-70413056D01*
X120382657Y-70418777D01*
X120351767Y-70472280D01*
X120348321Y-70477904D01*
X120311062Y-70535278D01*
X120308696Y-70541443D01*
X120308693Y-70541448D01*
X120306019Y-70548414D01*
X120297507Y-70566261D01*
X120290473Y-70578444D01*
X120288434Y-70584720D01*
X120269336Y-70643497D01*
X120267139Y-70649701D01*
X120242623Y-70713568D01*
X120241590Y-70720090D01*
X120241589Y-70720094D01*
X120240421Y-70727466D01*
X120235806Y-70746689D01*
X120233498Y-70753793D01*
X120231458Y-70760072D01*
X120226384Y-70808351D01*
X120224308Y-70828100D01*
X120223450Y-70834617D01*
X120212748Y-70902190D01*
X120213093Y-70908778D01*
X120213093Y-70908782D01*
X120213484Y-70916241D01*
X120212967Y-70935999D01*
X120211496Y-70950000D01*
X120212186Y-70956565D01*
X120212186Y-70956566D01*
X120218647Y-71018041D01*
X120219164Y-71024616D01*
X120219903Y-71038706D01*
X120222743Y-71092903D01*
X120224453Y-71099284D01*
X120224453Y-71099286D01*
X120226383Y-71106491D01*
X120229985Y-71125925D01*
X120230766Y-71133354D01*
X120230768Y-71133363D01*
X120231458Y-71139928D01*
X120252600Y-71204997D01*
X120254467Y-71211299D01*
X120272171Y-71277370D01*
X120278559Y-71289907D01*
X120286125Y-71308173D01*
X120290473Y-71321556D01*
X120293776Y-71327278D01*
X120293777Y-71327279D01*
X120324667Y-71380782D01*
X120327814Y-71386577D01*
X120358871Y-71447530D01*
X120363024Y-71452658D01*
X120363025Y-71452660D01*
X120367727Y-71458466D01*
X120378927Y-71474763D01*
X120382657Y-71481224D01*
X120382660Y-71481228D01*
X120385960Y-71486944D01*
X120390377Y-71491850D01*
X120390381Y-71491855D01*
X120431722Y-71537769D01*
X120436006Y-71542784D01*
X120448928Y-71558741D01*
X120463443Y-71573256D01*
X120467984Y-71578041D01*
X120513747Y-71628866D01*
X120519087Y-71632746D01*
X120523999Y-71637169D01*
X120522116Y-71639260D01*
X120557910Y-71685668D01*
X120566500Y-71731394D01*
X120566500Y-75417012D01*
X120546498Y-75485133D01*
X120492842Y-75531626D01*
X120440500Y-75543012D01*
X117572154Y-75543012D01*
X117414434Y-75558060D01*
X117211466Y-75617604D01*
X117206139Y-75620348D01*
X117206138Y-75620348D01*
X117028751Y-75711708D01*
X117028748Y-75711710D01*
X117023420Y-75714454D01*
X116857080Y-75845116D01*
X116853148Y-75849647D01*
X116853145Y-75849650D01*
X116734554Y-75986314D01*
X116718448Y-76004875D01*
X116715448Y-76010061D01*
X116715445Y-76010065D01*
X116621661Y-76172177D01*
X116612527Y-76187966D01*
X116543139Y-76387783D01*
X116512787Y-76597116D01*
X106558000Y-76597116D01*
X106558000Y-69931463D01*
X114904519Y-69931463D01*
X114905099Y-69937594D01*
X114908834Y-69977110D01*
X114909393Y-69988968D01*
X114909393Y-72156876D01*
X114909693Y-72159932D01*
X114909693Y-72159939D01*
X114910423Y-72167380D01*
X114923813Y-72303940D01*
X114980977Y-72493276D01*
X115073827Y-72667903D01*
X115144184Y-72754169D01*
X115194933Y-72816394D01*
X115194936Y-72816397D01*
X115198828Y-72821169D01*
X115203575Y-72825096D01*
X115203577Y-72825098D01*
X115346468Y-72943308D01*
X115346472Y-72943310D01*
X115351218Y-72947237D01*
X115525192Y-73041305D01*
X115714125Y-73099789D01*
X115720250Y-73100433D01*
X115720251Y-73100433D01*
X115904689Y-73119818D01*
X115904691Y-73119818D01*
X115910818Y-73120462D01*
X115993317Y-73112954D01*
X116101642Y-73103096D01*
X116101645Y-73103095D01*
X116107781Y-73102537D01*
X116113687Y-73100799D01*
X116113691Y-73100798D01*
X116218817Y-73069858D01*
X116297512Y-73046697D01*
X116302970Y-73043844D01*
X116302974Y-73043842D01*
X116393746Y-72996387D01*
X116472783Y-72955067D01*
X116626918Y-72831139D01*
X116754047Y-72679633D01*
X116757014Y-72674235D01*
X116757018Y-72674230D01*
X116846360Y-72511715D01*
X116849326Y-72506320D01*
X116851739Y-72498715D01*
X116907266Y-72323671D01*
X116907266Y-72323670D01*
X116909128Y-72317801D01*
X116926393Y-72163880D01*
X116926393Y-70404926D01*
X116946395Y-70336805D01*
X116963298Y-70315831D01*
X119876405Y-67402724D01*
X119938717Y-67368698D01*
X120009532Y-67373763D01*
X120066368Y-67416310D01*
X120091179Y-67482830D01*
X120091500Y-67491819D01*
X120091500Y-68548134D01*
X120098255Y-68610316D01*
X120149385Y-68746705D01*
X120236739Y-68863261D01*
X120353295Y-68950615D01*
X120489684Y-69001745D01*
X120551866Y-69008500D01*
X121648134Y-69008500D01*
X121710316Y-69001745D01*
X121846705Y-68950615D01*
X121963261Y-68863261D01*
X122050615Y-68746705D01*
X122101745Y-68610316D01*
X122108500Y-68548134D01*
X122108500Y-67491819D01*
X122128502Y-67423698D01*
X122182158Y-67377205D01*
X122252432Y-67367101D01*
X122317012Y-67396595D01*
X122323595Y-67402724D01*
X125004595Y-70083723D01*
X125038621Y-70146035D01*
X125041500Y-70172818D01*
X125041500Y-72624769D01*
X125041800Y-72627825D01*
X125041800Y-72627832D01*
X125042530Y-72635273D01*
X125055920Y-72771833D01*
X125113084Y-72961169D01*
X125205934Y-73135796D01*
X125276291Y-73222062D01*
X125327040Y-73284287D01*
X125327043Y-73284290D01*
X125330935Y-73289062D01*
X125335682Y-73292989D01*
X125335684Y-73292991D01*
X125478575Y-73411201D01*
X125478579Y-73411203D01*
X125483325Y-73415130D01*
X125657299Y-73509198D01*
X125846232Y-73567682D01*
X125852357Y-73568326D01*
X125852358Y-73568326D01*
X126036796Y-73587711D01*
X126036798Y-73587711D01*
X126042925Y-73588355D01*
X126125424Y-73580847D01*
X126233749Y-73570989D01*
X126233752Y-73570988D01*
X126239888Y-73570430D01*
X126245794Y-73568692D01*
X126245798Y-73568691D01*
X126350924Y-73537751D01*
X126429619Y-73514590D01*
X126435077Y-73511737D01*
X126435081Y-73511735D01*
X126525853Y-73464280D01*
X126604890Y-73422960D01*
X126759025Y-73299032D01*
X126886154Y-73147526D01*
X126889121Y-73142128D01*
X126889125Y-73142123D01*
X126978467Y-72979608D01*
X126981433Y-72974213D01*
X126983846Y-72966608D01*
X127039373Y-72791564D01*
X127039373Y-72791563D01*
X127041235Y-72785694D01*
X127058500Y-72631773D01*
X127058500Y-69764736D01*
X127059237Y-69751129D01*
X127062659Y-69719631D01*
X127062659Y-69719626D01*
X127063324Y-69713505D01*
X127058950Y-69663503D01*
X127058621Y-69658678D01*
X127058500Y-69656207D01*
X127058500Y-69653125D01*
X127054309Y-69610383D01*
X127054187Y-69609068D01*
X127048631Y-69545564D01*
X127046087Y-69516481D01*
X127044600Y-69511362D01*
X127044080Y-69506061D01*
X127017218Y-69417088D01*
X127016862Y-69415888D01*
X126990909Y-69326557D01*
X126988455Y-69321823D01*
X126986916Y-69316725D01*
X126973102Y-69290744D01*
X126943316Y-69234725D01*
X126942702Y-69233557D01*
X126902726Y-69156435D01*
X126902725Y-69156434D01*
X126899892Y-69150968D01*
X126896569Y-69146805D01*
X126894066Y-69142098D01*
X126835245Y-69069976D01*
X126834554Y-69069120D01*
X126803262Y-69029921D01*
X126800758Y-69027417D01*
X126800116Y-69026699D01*
X126796415Y-69022366D01*
X126769065Y-68988832D01*
X126733737Y-68959606D01*
X126724958Y-68951617D01*
X122563961Y-64790621D01*
X122554859Y-64780478D01*
X122535003Y-64755782D01*
X122531138Y-64750975D01*
X122492684Y-64718708D01*
X122489037Y-64715528D01*
X122487225Y-64713885D01*
X122485031Y-64711691D01*
X122451757Y-64684358D01*
X122450959Y-64683696D01*
X122379632Y-64623846D01*
X122374962Y-64621278D01*
X122370845Y-64617897D01*
X122289020Y-64574023D01*
X122287861Y-64573394D01*
X122211725Y-64531538D01*
X122211717Y-64531535D01*
X122206319Y-64528567D01*
X122201237Y-64526955D01*
X122196543Y-64524438D01*
X122107575Y-64497238D01*
X122106547Y-64496918D01*
X122017800Y-64468765D01*
X122012504Y-64468171D01*
X122007408Y-64466613D01*
X121914849Y-64457210D01*
X121913713Y-64457089D01*
X121880098Y-64453319D01*
X121867376Y-64451892D01*
X121867372Y-64451892D01*
X121863879Y-64451500D01*
X121860352Y-64451500D01*
X121859367Y-64451445D01*
X121853687Y-64450998D01*
X121824281Y-64448011D01*
X121816769Y-64447248D01*
X121816767Y-64447248D01*
X121810644Y-64446626D01*
X121768365Y-64450623D01*
X121764997Y-64450941D01*
X121753139Y-64451500D01*
X121159873Y-64451500D01*
X121146703Y-64450810D01*
X121113204Y-64447289D01*
X121113202Y-64447289D01*
X121107075Y-64446645D01*
X121059430Y-64450981D01*
X121048010Y-64451500D01*
X120454736Y-64451500D01*
X120441129Y-64450763D01*
X120409631Y-64447341D01*
X120409626Y-64447341D01*
X120403505Y-64446676D01*
X120385505Y-64448251D01*
X120353503Y-64451050D01*
X120348678Y-64451379D01*
X120346207Y-64451500D01*
X120343125Y-64451500D01*
X120320657Y-64453703D01*
X120300383Y-64455691D01*
X120299068Y-64455813D01*
X120266807Y-64458636D01*
X120206481Y-64463913D01*
X120201362Y-64465400D01*
X120196061Y-64465920D01*
X120107060Y-64492791D01*
X120105927Y-64493126D01*
X120022480Y-64517370D01*
X120022476Y-64517372D01*
X120016558Y-64519091D01*
X120011826Y-64521544D01*
X120006725Y-64523084D01*
X120001282Y-64525978D01*
X119924634Y-64566731D01*
X119923468Y-64567343D01*
X119846441Y-64607271D01*
X119840968Y-64610108D01*
X119836805Y-64613431D01*
X119832098Y-64615934D01*
X119759976Y-64674755D01*
X119759120Y-64675446D01*
X119719921Y-64706738D01*
X119717417Y-64709242D01*
X119716699Y-64709884D01*
X119712366Y-64713585D01*
X119678832Y-64740935D01*
X119674905Y-64745682D01*
X119674903Y-64745684D01*
X119649607Y-64776262D01*
X119641617Y-64785042D01*
X115248514Y-69178146D01*
X115238371Y-69187248D01*
X115208868Y-69210969D01*
X115204901Y-69215697D01*
X115176602Y-69249422D01*
X115173421Y-69253070D01*
X115171778Y-69254882D01*
X115169584Y-69257076D01*
X115142251Y-69290350D01*
X115141589Y-69291148D01*
X115081739Y-69362475D01*
X115079171Y-69367145D01*
X115075790Y-69371262D01*
X115051862Y-69415888D01*
X115031916Y-69453087D01*
X115031287Y-69454246D01*
X114989431Y-69530382D01*
X114989428Y-69530390D01*
X114986460Y-69535788D01*
X114984848Y-69540870D01*
X114982331Y-69545564D01*
X114955131Y-69634532D01*
X114954811Y-69635560D01*
X114926658Y-69724307D01*
X114926064Y-69729603D01*
X114924506Y-69734699D01*
X114923883Y-69740835D01*
X114915111Y-69827188D01*
X114914982Y-69828394D01*
X114909393Y-69878228D01*
X114909393Y-69881755D01*
X114909338Y-69882740D01*
X114908891Y-69888420D01*
X114904519Y-69931463D01*
X106558000Y-69931463D01*
X106558000Y-63159000D01*
X106578002Y-63090879D01*
X106631658Y-63044386D01*
X106684000Y-63033000D01*
X135791000Y-63033000D01*
X135859121Y-63053002D01*
G37*
%TD.AperFunction*%
%TD*%
M02*
