M48
; DRILL file {KiCad 6.0.0} date Mon 07 Mar 2022 01:42:20 AM CST
; FORMAT={-:-/ absolute / inch / decimal}
; #@! TF.CreationDate,2022-03-07T01:42:20-06:00
; #@! TF.GenerationSoftware,Kicad,Pcbnew,6.0.0
; #@! TF.FileFunction,Plated,1,2,PTH
FMAT,2
INCH
; #@! TA.AperFunction,Plated,PTH,ViaDrill
T1C0.0157
; #@! TA.AperFunction,Plated,PTH,ComponentDrill
T2C0.0157
; #@! TA.AperFunction,Plated,PTH,ComponentDrill
T3C0.0256
; #@! TA.AperFunction,Plated,PTH,ComponentDrill
T4C0.0374
; #@! TA.AperFunction,Plated,PTH,ComponentDrill
T5C0.0394
; #@! TA.AperFunction,Plated,PTH,ComponentDrill
T6C0.0866
; #@! TA.AperFunction,Plated,PTH,ComponentDrill
T7C0.0906
%
G90
G05
T1
X4.5637Y-2.8389
X4.5679Y-3.0581
X4.6309Y-3.0178
X4.6476Y-2.9626
X4.6634Y-2.8947
X4.6919Y-3.25
X4.7687Y-2.7933
X4.7825Y-3.0453
X4.7982Y-2.7402
X4.8858Y-2.8967
X4.9469Y-3.1624
X4.9626Y-2.8573
X5.0413Y-3.1535
X5.251Y-3.122
T2
X4.2539Y-3.2067
X4.273Y-3.1608
X4.273Y-3.2526
X4.2825Y-2.626
X4.3015Y-2.5801
X4.3015Y-2.6719
X4.3189Y-3.1417
X4.3189Y-3.2717
X4.3474Y-2.561
X4.3474Y-2.6909
X4.3648Y-3.1608
X4.3648Y-3.2526
X4.3839Y-3.2067
X4.3934Y-2.5801
X4.3934Y-2.6719
X4.4124Y-2.626
X5.1604Y-2.624
X5.1795Y-2.5781
X5.1795Y-2.6699
X5.2254Y-2.5591
X5.2254Y-2.689
X5.2713Y-2.5781
X5.2713Y-2.6699
X5.2904Y-2.624
T3
X4.7677Y-2.5272
X4.7677Y-2.5772
X4.7677Y-2.6272
X4.7677Y-2.6772
T4
X4.625Y-3.3402
X4.7234Y-3.3402
X4.8022Y-3.3402
X4.9006Y-3.3402
T5
X5.1949Y-3.3222
X5.1949Y-3.4222
T6
X4.3189Y-3.2067
X4.3474Y-2.626
X5.2254Y-2.624
T7
X4.5041Y-3.4469
X5.0215Y-3.4469
T0
M30
