M48
; DRILL file {KiCad (6.0.2)} date Mon 07 Mar 2022 08:15:49 PM CST
; FORMAT={-:-/ absolute / inch / decimal}
; #@! TF.CreationDate,2022-03-07T20:15:49-06:00
; #@! TF.GenerationSoftware,Kicad,Pcbnew,(6.0.2)
; #@! TF.FileFunction,Plated,1,2,PTH
FMAT,2
INCH
; #@! TA.AperFunction,Plated,PTH,ViaDrill
T1C0.0157
; #@! TA.AperFunction,Plated,PTH,ComponentDrill
T2C0.0295
; #@! TA.AperFunction,Plated,PTH,ComponentDrill
T3C0.0394
%
G90
G05
T1
X4.1122Y-3.5167
X4.1211Y-3.7293
X4.18Y-3.69
X4.2366Y-3.7307
X4.24Y-3.86
X4.24Y-4.02
X4.2441Y-3.5167
X4.34Y-4.2
X4.38Y-3.46
X5.0Y-3.98
X5.28Y-3.54
X5.36Y-4.24
T2
X4.29Y-3.9542
X4.34Y-3.9542
X4.39Y-3.9542
X4.7819Y-3.6183
X4.7819Y-3.7758
X4.7819Y-3.8546
X4.7819Y-3.9333
X4.7819Y-4.012
X4.7819Y-4.0908
X5.3725Y-3.7758
X5.3725Y-3.8546
X5.3725Y-3.9333
X5.3725Y-4.012
X5.3725Y-4.0908
T3
X4.5311Y-3.55
X4.5311Y-3.65
X4.5311Y-3.75
X4.5311Y-3.85
X4.5311Y-3.95
X4.5311Y-4.05
X4.5311Y-4.15
X4.5311Y-4.25
T0
M30
