%TF.GenerationSoftware,KiCad,Pcbnew,(6.0.2)*%
%TF.CreationDate,2022-03-07T20:15:47-06:00*%
%TF.ProjectId,RFID_board,52464944-5f62-46f6-9172-642e6b696361,rev?*%
%TF.SameCoordinates,Original*%
%TF.FileFunction,Legend,Top*%
%TF.FilePolarity,Positive*%
%FSLAX46Y46*%
G04 Gerber Fmt 4.6, Leading zero omitted, Abs format (unit mm)*
G04 Created by KiCad (PCBNEW (6.0.2)) date 2022-03-07 20:15:47*
%MOMM*%
%LPD*%
G01*
G04 APERTURE LIST*
%ADD10C,0.150000*%
%ADD11C,0.120000*%
G04 APERTURE END LIST*
D10*
X117642857Y-107700000D02*
X117585714Y-107671428D01*
X117500000Y-107671428D01*
X117414285Y-107700000D01*
X117357142Y-107757142D01*
X117328571Y-107814285D01*
X117300000Y-107928571D01*
X117300000Y-108014285D01*
X117328571Y-108128571D01*
X117357142Y-108185714D01*
X117414285Y-108242857D01*
X117500000Y-108271428D01*
X117557142Y-108271428D01*
X117642857Y-108242857D01*
X117671428Y-108214285D01*
X117671428Y-108014285D01*
X117557142Y-108014285D01*
X117928571Y-108271428D02*
X117928571Y-107671428D01*
X118271428Y-108271428D01*
X118271428Y-107671428D01*
X118557142Y-108271428D02*
X118557142Y-107671428D01*
X118700000Y-107671428D01*
X118785714Y-107700000D01*
X118842857Y-107757142D01*
X118871428Y-107814285D01*
X118900000Y-107928571D01*
X118900000Y-108014285D01*
X118871428Y-108128571D01*
X118842857Y-108185714D01*
X118785714Y-108242857D01*
X118700000Y-108271428D01*
X118557142Y-108271428D01*
X117821428Y-100371428D02*
X117621428Y-100085714D01*
X117478571Y-100371428D02*
X117478571Y-99771428D01*
X117707142Y-99771428D01*
X117764285Y-99800000D01*
X117792857Y-99828571D01*
X117821428Y-99885714D01*
X117821428Y-99971428D01*
X117792857Y-100028571D01*
X117764285Y-100057142D01*
X117707142Y-100085714D01*
X117478571Y-100085714D01*
X118050000Y-100342857D02*
X118135714Y-100371428D01*
X118278571Y-100371428D01*
X118335714Y-100342857D01*
X118364285Y-100314285D01*
X118392857Y-100257142D01*
X118392857Y-100200000D01*
X118364285Y-100142857D01*
X118335714Y-100114285D01*
X118278571Y-100085714D01*
X118164285Y-100057142D01*
X118107142Y-100028571D01*
X118078571Y-100000000D01*
X118050000Y-99942857D01*
X118050000Y-99885714D01*
X118078571Y-99828571D01*
X118107142Y-99800000D01*
X118164285Y-99771428D01*
X118307142Y-99771428D01*
X118392857Y-99800000D01*
X118564285Y-99771428D02*
X118907142Y-99771428D01*
X118735714Y-100371428D02*
X118735714Y-99771428D01*
X117832142Y-95396428D02*
X117832142Y-94796428D01*
X117975000Y-94796428D01*
X118060714Y-94825000D01*
X118117857Y-94882142D01*
X118146428Y-94939285D01*
X118175000Y-95053571D01*
X118175000Y-95139285D01*
X118146428Y-95253571D01*
X118117857Y-95310714D01*
X118060714Y-95367857D01*
X117975000Y-95396428D01*
X117832142Y-95396428D01*
X118546428Y-94796428D02*
X118603571Y-94796428D01*
X118660714Y-94825000D01*
X118689285Y-94853571D01*
X118717857Y-94910714D01*
X118746428Y-95025000D01*
X118746428Y-95167857D01*
X118717857Y-95282142D01*
X118689285Y-95339285D01*
X118660714Y-95367857D01*
X118603571Y-95396428D01*
X118546428Y-95396428D01*
X118489285Y-95367857D01*
X118460714Y-95339285D01*
X118432142Y-95282142D01*
X118403571Y-95167857D01*
X118403571Y-95025000D01*
X118432142Y-94910714D01*
X118460714Y-94853571D01*
X118489285Y-94825000D01*
X118546428Y-94796428D01*
X117535714Y-92413428D02*
X117335714Y-92127714D01*
X117192857Y-92413428D02*
X117192857Y-91813428D01*
X117421428Y-91813428D01*
X117478571Y-91842000D01*
X117507142Y-91870571D01*
X117535714Y-91927714D01*
X117535714Y-92013428D01*
X117507142Y-92070571D01*
X117478571Y-92099142D01*
X117421428Y-92127714D01*
X117192857Y-92127714D01*
X117992857Y-92099142D02*
X117792857Y-92099142D01*
X117792857Y-92413428D02*
X117792857Y-91813428D01*
X118078571Y-91813428D01*
X118307142Y-92413428D02*
X118307142Y-91813428D01*
X118592857Y-92413428D02*
X118592857Y-91813428D01*
X118735714Y-91813428D01*
X118821428Y-91842000D01*
X118878571Y-91899142D01*
X118907142Y-91956285D01*
X118935714Y-92070571D01*
X118935714Y-92156285D01*
X118907142Y-92270571D01*
X118878571Y-92327714D01*
X118821428Y-92384857D01*
X118735714Y-92413428D01*
X118592857Y-92413428D01*
X117664285Y-93379428D02*
X117378571Y-93379428D01*
X117378571Y-92779428D01*
X117864285Y-93065142D02*
X118064285Y-93065142D01*
X118150000Y-93379428D02*
X117864285Y-93379428D01*
X117864285Y-92779428D01*
X118150000Y-92779428D01*
X118407142Y-93379428D02*
X118407142Y-92779428D01*
X118550000Y-92779428D01*
X118635714Y-92808000D01*
X118692857Y-92865142D01*
X118721428Y-92922285D01*
X118750000Y-93036571D01*
X118750000Y-93122285D01*
X118721428Y-93236571D01*
X118692857Y-93293714D01*
X118635714Y-93350857D01*
X118550000Y-93379428D01*
X118407142Y-93379428D01*
X116967857Y-105671428D02*
X116967857Y-105071428D01*
X117110714Y-105071428D01*
X117196428Y-105100000D01*
X117253571Y-105157142D01*
X117282142Y-105214285D01*
X117310714Y-105328571D01*
X117310714Y-105414285D01*
X117282142Y-105528571D01*
X117253571Y-105585714D01*
X117196428Y-105642857D01*
X117110714Y-105671428D01*
X116967857Y-105671428D01*
X117539285Y-105642857D02*
X117625000Y-105671428D01*
X117767857Y-105671428D01*
X117825000Y-105642857D01*
X117853571Y-105614285D01*
X117882142Y-105557142D01*
X117882142Y-105500000D01*
X117853571Y-105442857D01*
X117825000Y-105414285D01*
X117767857Y-105385714D01*
X117653571Y-105357142D01*
X117596428Y-105328571D01*
X117567857Y-105300000D01*
X117539285Y-105242857D01*
X117539285Y-105185714D01*
X117567857Y-105128571D01*
X117596428Y-105100000D01*
X117653571Y-105071428D01*
X117796428Y-105071428D01*
X117882142Y-105100000D01*
X118139285Y-105357142D02*
X118339285Y-105357142D01*
X118425000Y-105671428D02*
X118139285Y-105671428D01*
X118139285Y-105071428D01*
X118425000Y-105071428D01*
X118967857Y-105671428D02*
X118682142Y-105671428D01*
X118682142Y-105071428D01*
X117585714Y-102546428D02*
X117928571Y-102546428D01*
X117757142Y-103146428D02*
X117757142Y-102546428D01*
X118128571Y-103146428D02*
X118128571Y-102546428D01*
X118757142Y-103146428D02*
X118557142Y-102860714D01*
X118414285Y-103146428D02*
X118414285Y-102546428D01*
X118642857Y-102546428D01*
X118700000Y-102575000D01*
X118728571Y-102603571D01*
X118757142Y-102660714D01*
X118757142Y-102746428D01*
X118728571Y-102803571D01*
X118700000Y-102832142D01*
X118642857Y-102860714D01*
X118414285Y-102860714D01*
X117567857Y-91032142D02*
X117567857Y-90575000D01*
X117796428Y-90803571D02*
X117339285Y-90803571D01*
X117196428Y-90346428D02*
X117196428Y-89975000D01*
X117425000Y-90175000D01*
X117425000Y-90089285D01*
X117453571Y-90032142D01*
X117482142Y-90003571D01*
X117539285Y-89975000D01*
X117682142Y-89975000D01*
X117739285Y-90003571D01*
X117767857Y-90032142D01*
X117796428Y-90089285D01*
X117796428Y-90260714D01*
X117767857Y-90317857D01*
X117739285Y-90346428D01*
X117196428Y-89803571D02*
X117796428Y-89603571D01*
X117196428Y-89403571D01*
X117196428Y-89260714D02*
X117196428Y-88889285D01*
X117425000Y-89089285D01*
X117425000Y-89003571D01*
X117453571Y-88946428D01*
X117482142Y-88917857D01*
X117539285Y-88889285D01*
X117682142Y-88889285D01*
X117739285Y-88917857D01*
X117767857Y-88946428D01*
X117796428Y-89003571D01*
X117796428Y-89175000D01*
X117767857Y-89232142D01*
X117739285Y-89260714D01*
X117807142Y-97996428D02*
X117807142Y-97396428D01*
X117950000Y-97396428D01*
X118035714Y-97425000D01*
X118092857Y-97482142D01*
X118121428Y-97539285D01*
X118150000Y-97653571D01*
X118150000Y-97739285D01*
X118121428Y-97853571D01*
X118092857Y-97910714D01*
X118035714Y-97967857D01*
X117950000Y-97996428D01*
X117807142Y-97996428D01*
X118721428Y-97996428D02*
X118378571Y-97996428D01*
X118550000Y-97996428D02*
X118550000Y-97396428D01*
X118492857Y-97482142D01*
X118435714Y-97539285D01*
X118378571Y-97567857D01*
%TO.C,U1*%
X128163095Y-106777380D02*
X128163095Y-107586904D01*
X128210714Y-107682142D01*
X128258333Y-107729761D01*
X128353571Y-107777380D01*
X128544047Y-107777380D01*
X128639285Y-107729761D01*
X128686904Y-107682142D01*
X128734523Y-107586904D01*
X128734523Y-106777380D01*
X129734523Y-107777380D02*
X129163095Y-107777380D01*
X129448809Y-107777380D02*
X129448809Y-106777380D01*
X129353571Y-106920238D01*
X129258333Y-107015476D01*
X129163095Y-107063095D01*
%TO.C,JP1*%
X104641666Y-106077380D02*
X104641666Y-106791666D01*
X104594047Y-106934523D01*
X104498809Y-107029761D01*
X104355952Y-107077380D01*
X104260714Y-107077380D01*
X105117857Y-107077380D02*
X105117857Y-106077380D01*
X105498809Y-106077380D01*
X105594047Y-106125000D01*
X105641666Y-106172619D01*
X105689285Y-106267857D01*
X105689285Y-106410714D01*
X105641666Y-106505952D01*
X105594047Y-106553571D01*
X105498809Y-106601190D01*
X105117857Y-106601190D01*
X106641666Y-107077380D02*
X106070238Y-107077380D01*
X106355952Y-107077380D02*
X106355952Y-106077380D01*
X106260714Y-106220238D01*
X106165476Y-106315476D01*
X106070238Y-106363095D01*
%TO.C,R3*%
X104383333Y-109177380D02*
X104050000Y-108701190D01*
X103811904Y-109177380D02*
X103811904Y-108177380D01*
X104192857Y-108177380D01*
X104288095Y-108225000D01*
X104335714Y-108272619D01*
X104383333Y-108367857D01*
X104383333Y-108510714D01*
X104335714Y-108605952D01*
X104288095Y-108653571D01*
X104192857Y-108701190D01*
X103811904Y-108701190D01*
X104716666Y-108177380D02*
X105335714Y-108177380D01*
X105002380Y-108558333D01*
X105145238Y-108558333D01*
X105240476Y-108605952D01*
X105288095Y-108653571D01*
X105335714Y-108748809D01*
X105335714Y-108986904D01*
X105288095Y-109082142D01*
X105240476Y-109129761D01*
X105145238Y-109177380D01*
X104859523Y-109177380D01*
X104764285Y-109129761D01*
X104716666Y-109082142D01*
%TO.C,R2*%
X111408333Y-107477380D02*
X111075000Y-107001190D01*
X110836904Y-107477380D02*
X110836904Y-106477380D01*
X111217857Y-106477380D01*
X111313095Y-106525000D01*
X111360714Y-106572619D01*
X111408333Y-106667857D01*
X111408333Y-106810714D01*
X111360714Y-106905952D01*
X111313095Y-106953571D01*
X111217857Y-107001190D01*
X110836904Y-107001190D01*
X111789285Y-106572619D02*
X111836904Y-106525000D01*
X111932142Y-106477380D01*
X112170238Y-106477380D01*
X112265476Y-106525000D01*
X112313095Y-106572619D01*
X112360714Y-106667857D01*
X112360714Y-106763095D01*
X112313095Y-106905952D01*
X111741666Y-107477380D01*
X112360714Y-107477380D01*
%TO.C,D1*%
X110513904Y-110814380D02*
X110513904Y-109814380D01*
X110752000Y-109814380D01*
X110894857Y-109862000D01*
X110990095Y-109957238D01*
X111037714Y-110052476D01*
X111085333Y-110242952D01*
X111085333Y-110385809D01*
X111037714Y-110576285D01*
X110990095Y-110671523D01*
X110894857Y-110766761D01*
X110752000Y-110814380D01*
X110513904Y-110814380D01*
X112037714Y-110814380D02*
X111466285Y-110814380D01*
X111752000Y-110814380D02*
X111752000Y-109814380D01*
X111656761Y-109957238D01*
X111561523Y-110052476D01*
X111466285Y-110100095D01*
%TO.C,C2*%
X109808333Y-94857142D02*
X109760714Y-94904761D01*
X109617857Y-94952380D01*
X109522619Y-94952380D01*
X109379761Y-94904761D01*
X109284523Y-94809523D01*
X109236904Y-94714285D01*
X109189285Y-94523809D01*
X109189285Y-94380952D01*
X109236904Y-94190476D01*
X109284523Y-94095238D01*
X109379761Y-94000000D01*
X109522619Y-93952380D01*
X109617857Y-93952380D01*
X109760714Y-94000000D01*
X109808333Y-94047619D01*
X110189285Y-94047619D02*
X110236904Y-94000000D01*
X110332142Y-93952380D01*
X110570238Y-93952380D01*
X110665476Y-94000000D01*
X110713095Y-94047619D01*
X110760714Y-94142857D01*
X110760714Y-94238095D01*
X110713095Y-94380952D01*
X110141666Y-94952380D01*
X110760714Y-94952380D01*
%TO.C,R1*%
X110727380Y-96441666D02*
X110251190Y-96775000D01*
X110727380Y-97013095D02*
X109727380Y-97013095D01*
X109727380Y-96632142D01*
X109775000Y-96536904D01*
X109822619Y-96489285D01*
X109917857Y-96441666D01*
X110060714Y-96441666D01*
X110155952Y-96489285D01*
X110203571Y-96536904D01*
X110251190Y-96632142D01*
X110251190Y-97013095D01*
X110727380Y-95489285D02*
X110727380Y-96060714D01*
X110727380Y-95775000D02*
X109727380Y-95775000D01*
X109870238Y-95870238D01*
X109965476Y-95965476D01*
X110013095Y-96060714D01*
%TO.C,ANTENNA1*%
X103761904Y-89858333D02*
X104142857Y-89858333D01*
X103685714Y-90086904D02*
X103952380Y-89286904D01*
X104219047Y-90086904D01*
X104485714Y-90086904D02*
X104485714Y-89286904D01*
X104942857Y-90086904D01*
X104942857Y-89286904D01*
X105209523Y-89286904D02*
X105666666Y-89286904D01*
X105438095Y-90086904D02*
X105438095Y-89286904D01*
X105933333Y-89667857D02*
X106200000Y-89667857D01*
X106314285Y-90086904D02*
X105933333Y-90086904D01*
X105933333Y-89286904D01*
X106314285Y-89286904D01*
X106657142Y-90086904D02*
X106657142Y-89286904D01*
X107114285Y-90086904D01*
X107114285Y-89286904D01*
X107495238Y-90086904D02*
X107495238Y-89286904D01*
X107952380Y-90086904D01*
X107952380Y-89286904D01*
X108295238Y-89858333D02*
X108676190Y-89858333D01*
X108219047Y-90086904D02*
X108485714Y-89286904D01*
X108752380Y-90086904D01*
X109438095Y-90086904D02*
X108980952Y-90086904D01*
X109209523Y-90086904D02*
X109209523Y-89286904D01*
X109133333Y-89401190D01*
X109057142Y-89477380D01*
X108980952Y-89515476D01*
%TO.C,C3*%
X104341142Y-99988666D02*
X104388761Y-100036285D01*
X104436380Y-100179142D01*
X104436380Y-100274380D01*
X104388761Y-100417238D01*
X104293523Y-100512476D01*
X104198285Y-100560095D01*
X104007809Y-100607714D01*
X103864952Y-100607714D01*
X103674476Y-100560095D01*
X103579238Y-100512476D01*
X103484000Y-100417238D01*
X103436380Y-100274380D01*
X103436380Y-100179142D01*
X103484000Y-100036285D01*
X103531619Y-99988666D01*
X103436380Y-99655333D02*
X103436380Y-99036285D01*
X103817333Y-99369619D01*
X103817333Y-99226761D01*
X103864952Y-99131523D01*
X103912571Y-99083904D01*
X104007809Y-99036285D01*
X104245904Y-99036285D01*
X104341142Y-99083904D01*
X104388761Y-99131523D01*
X104436380Y-99226761D01*
X104436380Y-99512476D01*
X104388761Y-99607714D01*
X104341142Y-99655333D01*
%TO.C,C1*%
X111085333Y-88593142D02*
X111037714Y-88640761D01*
X110894857Y-88688380D01*
X110799619Y-88688380D01*
X110656761Y-88640761D01*
X110561523Y-88545523D01*
X110513904Y-88450285D01*
X110466285Y-88259809D01*
X110466285Y-88116952D01*
X110513904Y-87926476D01*
X110561523Y-87831238D01*
X110656761Y-87736000D01*
X110799619Y-87688380D01*
X110894857Y-87688380D01*
X111037714Y-87736000D01*
X111085333Y-87783619D01*
X112037714Y-88688380D02*
X111466285Y-88688380D01*
X111752000Y-88688380D02*
X111752000Y-87688380D01*
X111656761Y-87831238D01*
X111561523Y-87926476D01*
X111466285Y-87974095D01*
%TO.C,R4*%
X104466380Y-104052666D02*
X103990190Y-104386000D01*
X104466380Y-104624095D02*
X103466380Y-104624095D01*
X103466380Y-104243142D01*
X103514000Y-104147904D01*
X103561619Y-104100285D01*
X103656857Y-104052666D01*
X103799714Y-104052666D01*
X103894952Y-104100285D01*
X103942571Y-104147904D01*
X103990190Y-104243142D01*
X103990190Y-104624095D01*
X103799714Y-103195523D02*
X104466380Y-103195523D01*
X103418761Y-103433619D02*
X104133047Y-103671714D01*
X104133047Y-103052666D01*
%TO.C,Q1*%
X107554761Y-98422619D02*
X107459523Y-98375000D01*
X107364285Y-98279761D01*
X107221428Y-98136904D01*
X107126190Y-98089285D01*
X107030952Y-98089285D01*
X107078571Y-98327380D02*
X106983333Y-98279761D01*
X106888095Y-98184523D01*
X106840476Y-97994047D01*
X106840476Y-97660714D01*
X106888095Y-97470238D01*
X106983333Y-97375000D01*
X107078571Y-97327380D01*
X107269047Y-97327380D01*
X107364285Y-97375000D01*
X107459523Y-97470238D01*
X107507142Y-97660714D01*
X107507142Y-97994047D01*
X107459523Y-98184523D01*
X107364285Y-98279761D01*
X107269047Y-98327380D01*
X107078571Y-98327380D01*
X108459523Y-98327380D02*
X107888095Y-98327380D01*
X108173809Y-98327380D02*
X108173809Y-97327380D01*
X108078571Y-97470238D01*
X107983333Y-97565476D01*
X107888095Y-97613095D01*
%TO.C,J1*%
X114757166Y-87292380D02*
X114757166Y-88006666D01*
X114709547Y-88149523D01*
X114614309Y-88244761D01*
X114471452Y-88292380D01*
X114376214Y-88292380D01*
X115757166Y-88292380D02*
X115185738Y-88292380D01*
X115471452Y-88292380D02*
X115471452Y-87292380D01*
X115376214Y-87435238D01*
X115280976Y-87530476D01*
X115185738Y-87578095D01*
D11*
%TO.C,JP1*%
X109704000Y-106756000D02*
X109704000Y-106156000D01*
X109204000Y-107206000D02*
X107204000Y-107206000D01*
X109204000Y-103106000D02*
X109204000Y-107206000D01*
X109404000Y-106456000D02*
X109704000Y-106156000D01*
X107204000Y-107206000D02*
X107204000Y-103106000D01*
X107204000Y-103106000D02*
X109204000Y-103106000D01*
X109404000Y-106456000D02*
X109704000Y-106756000D01*
%TO.C,R3*%
X107415064Y-109447000D02*
X106960936Y-109447000D01*
X107415064Y-107977000D02*
X106960936Y-107977000D01*
%TO.C,R2*%
X112241000Y-104875064D02*
X112241000Y-104420936D01*
X110771000Y-104875064D02*
X110771000Y-104420936D01*
%TO.C,D1*%
X112937000Y-107752000D02*
X110252000Y-107752000D01*
X112937000Y-109672000D02*
X112937000Y-107752000D01*
X110252000Y-109672000D02*
X112937000Y-109672000D01*
%TO.C,C2*%
X110990748Y-93191000D02*
X111513252Y-93191000D01*
X110990748Y-91721000D02*
X111513252Y-91721000D01*
%TO.C,R1*%
X112749000Y-95276936D02*
X112749000Y-95731064D01*
X111279000Y-95276936D02*
X111279000Y-95731064D01*
%TO.C,ANTENNA1*%
X109882000Y-92198000D02*
X109882000Y-91698000D01*
X109882000Y-91698000D02*
X109382000Y-91948000D01*
X109382000Y-91948000D02*
X109882000Y-92198000D01*
%TO.C,C3*%
X104929000Y-100083252D02*
X104929000Y-99560748D01*
X106399000Y-100083252D02*
X106399000Y-99560748D01*
%TO.C,C1*%
X110990748Y-89181000D02*
X111513252Y-89181000D01*
X110990748Y-90651000D02*
X111513252Y-90651000D01*
%TO.C,R4*%
X106399000Y-104113064D02*
X106399000Y-103658936D01*
X104929000Y-104113064D02*
X104929000Y-103658936D01*
%TO.C,Q1*%
X108436000Y-102286000D02*
X112036000Y-102286000D01*
X112074478Y-102274478D02*
G75*
G03*
X110236000Y-97836000I-1838478J1838478D01*
G01*
X110236000Y-97835999D02*
G75*
G03*
X108397522Y-102274478I0J-2600001D01*
G01*
%TO.C,J1*%
X113760500Y-90170000D02*
X113760500Y-88840000D01*
X113760500Y-91440000D02*
X113760500Y-109280000D01*
X116420500Y-91440000D02*
X116420500Y-109280000D01*
X113760500Y-109280000D02*
X116420500Y-109280000D01*
X113760500Y-91440000D02*
X116420500Y-91440000D01*
X113760500Y-88840000D02*
X115090500Y-88840000D01*
%TD*%
M02*
