%TF.GenerationSoftware,KiCad,Pcbnew,(6.0.2)*%
%TF.CreationDate,2022-03-07T20:15:47-06:00*%
%TF.ProjectId,RFID_board,52464944-5f62-46f6-9172-642e6b696361,rev?*%
%TF.SameCoordinates,Original*%
%TF.FileFunction,Legend,Bot*%
%TF.FilePolarity,Positive*%
%FSLAX46Y46*%
G04 Gerber Fmt 4.6, Leading zero omitted, Abs format (unit mm)*
G04 Created by KiCad (PCBNEW (6.0.2)) date 2022-03-07 20:15:47*
%MOMM*%
%LPD*%
G01*
G04 APERTURE LIST*
%ADD10C,0.150000*%
G04 APERTURE END LIST*
D10*
X133417976Y-92512380D02*
X133751309Y-92036190D01*
X133989404Y-92512380D02*
X133989404Y-91512380D01*
X133608452Y-91512380D01*
X133513214Y-91560000D01*
X133465595Y-91607619D01*
X133417976Y-91702857D01*
X133417976Y-91845714D01*
X133465595Y-91940952D01*
X133513214Y-91988571D01*
X133608452Y-92036190D01*
X133989404Y-92036190D01*
X132656071Y-91988571D02*
X132989404Y-91988571D01*
X132989404Y-92512380D02*
X132989404Y-91512380D01*
X132513214Y-91512380D01*
X132132261Y-92512380D02*
X132132261Y-91512380D01*
X131656071Y-92512380D02*
X131656071Y-91512380D01*
X131417976Y-91512380D01*
X131275119Y-91560000D01*
X131179880Y-91655238D01*
X131132261Y-91750476D01*
X131084642Y-91940952D01*
X131084642Y-92083809D01*
X131132261Y-92274285D01*
X131179880Y-92369523D01*
X131275119Y-92464761D01*
X131417976Y-92512380D01*
X131656071Y-92512380D01*
X129560833Y-91988571D02*
X129417976Y-92036190D01*
X129370357Y-92083809D01*
X129322738Y-92179047D01*
X129322738Y-92321904D01*
X129370357Y-92417142D01*
X129417976Y-92464761D01*
X129513214Y-92512380D01*
X129894166Y-92512380D01*
X129894166Y-91512380D01*
X129560833Y-91512380D01*
X129465595Y-91560000D01*
X129417976Y-91607619D01*
X129370357Y-91702857D01*
X129370357Y-91798095D01*
X129417976Y-91893333D01*
X129465595Y-91940952D01*
X129560833Y-91988571D01*
X129894166Y-91988571D01*
X128751309Y-92512380D02*
X128846547Y-92464761D01*
X128894166Y-92417142D01*
X128941785Y-92321904D01*
X128941785Y-92036190D01*
X128894166Y-91940952D01*
X128846547Y-91893333D01*
X128751309Y-91845714D01*
X128608452Y-91845714D01*
X128513214Y-91893333D01*
X128465595Y-91940952D01*
X128417976Y-92036190D01*
X128417976Y-92321904D01*
X128465595Y-92417142D01*
X128513214Y-92464761D01*
X128608452Y-92512380D01*
X128751309Y-92512380D01*
X127560833Y-92512380D02*
X127560833Y-91988571D01*
X127608452Y-91893333D01*
X127703690Y-91845714D01*
X127894166Y-91845714D01*
X127989404Y-91893333D01*
X127560833Y-92464761D02*
X127656071Y-92512380D01*
X127894166Y-92512380D01*
X127989404Y-92464761D01*
X128037023Y-92369523D01*
X128037023Y-92274285D01*
X127989404Y-92179047D01*
X127894166Y-92131428D01*
X127656071Y-92131428D01*
X127560833Y-92083809D01*
X127084642Y-92512380D02*
X127084642Y-91845714D01*
X127084642Y-92036190D02*
X127037023Y-91940952D01*
X126989404Y-91893333D01*
X126894166Y-91845714D01*
X126798928Y-91845714D01*
X126037023Y-92512380D02*
X126037023Y-91512380D01*
X126037023Y-92464761D02*
X126132261Y-92512380D01*
X126322738Y-92512380D01*
X126417976Y-92464761D01*
X126465595Y-92417142D01*
X126513214Y-92321904D01*
X126513214Y-92036190D01*
X126465595Y-91940952D01*
X126417976Y-91893333D01*
X126322738Y-91845714D01*
X126132261Y-91845714D01*
X126037023Y-91893333D01*
X133989404Y-93598571D02*
X133656071Y-93598571D01*
X133513214Y-94122380D02*
X133989404Y-94122380D01*
X133989404Y-93122380D01*
X133513214Y-93122380D01*
X132513214Y-94027142D02*
X132560833Y-94074761D01*
X132703690Y-94122380D01*
X132798928Y-94122380D01*
X132941785Y-94074761D01*
X133037023Y-93979523D01*
X133084642Y-93884285D01*
X133132261Y-93693809D01*
X133132261Y-93550952D01*
X133084642Y-93360476D01*
X133037023Y-93265238D01*
X132941785Y-93170000D01*
X132798928Y-93122380D01*
X132703690Y-93122380D01*
X132560833Y-93170000D01*
X132513214Y-93217619D01*
X132084642Y-93598571D02*
X131751309Y-93598571D01*
X131608452Y-94122380D02*
X132084642Y-94122380D01*
X132084642Y-93122380D01*
X131608452Y-93122380D01*
X130751309Y-93455714D02*
X130751309Y-94122380D01*
X130989404Y-93074761D02*
X131227500Y-93789047D01*
X130608452Y-93789047D01*
X129798928Y-93455714D02*
X129798928Y-94122380D01*
X130037023Y-93074761D02*
X130275119Y-93789047D01*
X129656071Y-93789047D01*
X128798928Y-93122380D02*
X129275119Y-93122380D01*
X129322738Y-93598571D01*
X129275119Y-93550952D01*
X129179880Y-93503333D01*
X128941785Y-93503333D01*
X128846547Y-93550952D01*
X128798928Y-93598571D01*
X128751309Y-93693809D01*
X128751309Y-93931904D01*
X128798928Y-94027142D01*
X128846547Y-94074761D01*
X128941785Y-94122380D01*
X129179880Y-94122380D01*
X129275119Y-94074761D01*
X129322738Y-94027142D01*
X127608452Y-94074761D02*
X127465595Y-94122380D01*
X127227500Y-94122380D01*
X127132261Y-94074761D01*
X127084642Y-94027142D01*
X127037023Y-93931904D01*
X127037023Y-93836666D01*
X127084642Y-93741428D01*
X127132261Y-93693809D01*
X127227500Y-93646190D01*
X127417976Y-93598571D01*
X127513214Y-93550952D01*
X127560833Y-93503333D01*
X127608452Y-93408095D01*
X127608452Y-93312857D01*
X127560833Y-93217619D01*
X127513214Y-93170000D01*
X127417976Y-93122380D01*
X127179880Y-93122380D01*
X127037023Y-93170000D01*
X126608452Y-94122380D02*
X126608452Y-93122380D01*
X126227500Y-93122380D01*
X126132261Y-93170000D01*
X126084642Y-93217619D01*
X126037023Y-93312857D01*
X126037023Y-93455714D01*
X126084642Y-93550952D01*
X126132261Y-93598571D01*
X126227500Y-93646190D01*
X126608452Y-93646190D01*
X125656071Y-93217619D02*
X125608452Y-93170000D01*
X125513214Y-93122380D01*
X125275119Y-93122380D01*
X125179880Y-93170000D01*
X125132261Y-93217619D01*
X125084642Y-93312857D01*
X125084642Y-93408095D01*
X125132261Y-93550952D01*
X125703690Y-94122380D01*
X125084642Y-94122380D01*
X124703690Y-93217619D02*
X124656071Y-93170000D01*
X124560833Y-93122380D01*
X124322738Y-93122380D01*
X124227500Y-93170000D01*
X124179880Y-93217619D01*
X124132261Y-93312857D01*
X124132261Y-93408095D01*
X124179880Y-93550952D01*
X124751309Y-94122380D01*
X124132261Y-94122380D01*
X133465595Y-94780000D02*
X133560833Y-94732380D01*
X133703690Y-94732380D01*
X133846547Y-94780000D01*
X133941785Y-94875238D01*
X133989404Y-94970476D01*
X134037023Y-95160952D01*
X134037023Y-95303809D01*
X133989404Y-95494285D01*
X133941785Y-95589523D01*
X133846547Y-95684761D01*
X133703690Y-95732380D01*
X133608452Y-95732380D01*
X133465595Y-95684761D01*
X133417976Y-95637142D01*
X133417976Y-95303809D01*
X133608452Y-95303809D01*
X132989404Y-95732380D02*
X132989404Y-95065714D01*
X132989404Y-95256190D02*
X132941785Y-95160952D01*
X132894166Y-95113333D01*
X132798928Y-95065714D01*
X132703690Y-95065714D01*
X132227500Y-95732380D02*
X132322738Y-95684761D01*
X132370357Y-95637142D01*
X132417976Y-95541904D01*
X132417976Y-95256190D01*
X132370357Y-95160952D01*
X132322738Y-95113333D01*
X132227500Y-95065714D01*
X132084642Y-95065714D01*
X131989404Y-95113333D01*
X131941785Y-95160952D01*
X131894166Y-95256190D01*
X131894166Y-95541904D01*
X131941785Y-95637142D01*
X131989404Y-95684761D01*
X132084642Y-95732380D01*
X132227500Y-95732380D01*
X131037023Y-95065714D02*
X131037023Y-95732380D01*
X131465595Y-95065714D02*
X131465595Y-95589523D01*
X131417976Y-95684761D01*
X131322738Y-95732380D01*
X131179880Y-95732380D01*
X131084642Y-95684761D01*
X131037023Y-95637142D01*
X130560833Y-95065714D02*
X130560833Y-96065714D01*
X130560833Y-95113333D02*
X130465595Y-95065714D01*
X130275119Y-95065714D01*
X130179880Y-95113333D01*
X130132261Y-95160952D01*
X130084642Y-95256190D01*
X130084642Y-95541904D01*
X130132261Y-95637142D01*
X130179880Y-95684761D01*
X130275119Y-95732380D01*
X130465595Y-95732380D01*
X130560833Y-95684761D01*
X128465595Y-95065714D02*
X128465595Y-95732380D01*
X128703690Y-94684761D02*
X128941785Y-95399047D01*
X128322738Y-95399047D01*
X127465595Y-94732380D02*
X127941785Y-94732380D01*
X127989404Y-95208571D01*
X127941785Y-95160952D01*
X127846547Y-95113333D01*
X127608452Y-95113333D01*
X127513214Y-95160952D01*
X127465595Y-95208571D01*
X127417976Y-95303809D01*
X127417976Y-95541904D01*
X127465595Y-95637142D01*
X127513214Y-95684761D01*
X127608452Y-95732380D01*
X127846547Y-95732380D01*
X127941785Y-95684761D01*
X127989404Y-95637142D01*
X134084642Y-96675714D02*
X133846547Y-97342380D01*
X133608452Y-96675714D01*
X133037023Y-96342380D02*
X132941785Y-96342380D01*
X132846547Y-96390000D01*
X132798928Y-96437619D01*
X132751309Y-96532857D01*
X132703690Y-96723333D01*
X132703690Y-96961428D01*
X132751309Y-97151904D01*
X132798928Y-97247142D01*
X132846547Y-97294761D01*
X132941785Y-97342380D01*
X133037023Y-97342380D01*
X133132261Y-97294761D01*
X133179880Y-97247142D01*
X133227500Y-97151904D01*
X133275119Y-96961428D01*
X133275119Y-96723333D01*
X133227500Y-96532857D01*
X133179880Y-96437619D01*
X133132261Y-96390000D01*
X133037023Y-96342380D01*
X132275119Y-97247142D02*
X132227500Y-97294761D01*
X132275119Y-97342380D01*
X132322738Y-97294761D01*
X132275119Y-97247142D01*
X132275119Y-97342380D01*
X131608452Y-96342380D02*
X131513214Y-96342380D01*
X131417976Y-96390000D01*
X131370357Y-96437619D01*
X131322738Y-96532857D01*
X131275119Y-96723333D01*
X131275119Y-96961428D01*
X131322738Y-97151904D01*
X131370357Y-97247142D01*
X131417976Y-97294761D01*
X131513214Y-97342380D01*
X131608452Y-97342380D01*
X131703690Y-97294761D01*
X131751309Y-97247142D01*
X131798928Y-97151904D01*
X131846547Y-96961428D01*
X131846547Y-96723333D01*
X131798928Y-96532857D01*
X131751309Y-96437619D01*
X131703690Y-96390000D01*
X131608452Y-96342380D01*
X130846547Y-97247142D02*
X130798928Y-97294761D01*
X130846547Y-97342380D01*
X130894166Y-97294761D01*
X130846547Y-97247142D01*
X130846547Y-97342380D01*
X129846547Y-97342380D02*
X130417976Y-97342380D01*
X130132261Y-97342380D02*
X130132261Y-96342380D01*
X130227500Y-96485238D01*
X130322738Y-96580476D01*
X130417976Y-96628095D01*
M02*
