%TF.GenerationSoftware,KiCad,Pcbnew,(6.0.2)*%
%TF.CreationDate,2022-03-07T20:15:47-06:00*%
%TF.ProjectId,RFID_board,52464944-5f62-46f6-9172-642e6b696361,rev?*%
%TF.SameCoordinates,Original*%
%TF.FileFunction,Soldermask,Top*%
%TF.FilePolarity,Negative*%
%FSLAX46Y46*%
G04 Gerber Fmt 4.6, Leading zero omitted, Abs format (unit mm)*
G04 Created by KiCad (PCBNEW (6.0.2)) date 2022-03-07 20:15:47*
%MOMM*%
%LPD*%
G01*
G04 APERTURE LIST*
G04 Aperture macros list*
%AMRoundRect*
0 Rectangle with rounded corners*
0 $1 Rounding radius*
0 $2 $3 $4 $5 $6 $7 $8 $9 X,Y pos of 4 corners*
0 Add a 4 corners polygon primitive as box body*
4,1,4,$2,$3,$4,$5,$6,$7,$8,$9,$2,$3,0*
0 Add four circle primitives for the rounded corners*
1,1,$1+$1,$2,$3*
1,1,$1+$1,$4,$5*
1,1,$1+$1,$6,$7*
1,1,$1+$1,$8,$9*
0 Add four rect primitives between the rounded corners*
20,1,$1+$1,$2,$3,$4,$5,0*
20,1,$1+$1,$4,$5,$6,$7,0*
20,1,$1+$1,$6,$7,$8,$9,0*
20,1,$1+$1,$8,$9,$2,$3,0*%
G04 Aperture macros list end*
%ADD10C,1.500000*%
%ADD11R,1.500000X1.000000*%
%ADD12RoundRect,0.250000X0.262500X0.450000X-0.262500X0.450000X-0.262500X-0.450000X0.262500X-0.450000X0*%
%ADD13RoundRect,0.250000X0.450000X-0.262500X0.450000X0.262500X-0.450000X0.262500X-0.450000X-0.262500X0*%
%ADD14RoundRect,0.243750X0.243750X0.456250X-0.243750X0.456250X-0.243750X-0.456250X0.243750X-0.456250X0*%
%ADD15RoundRect,0.250000X-0.250000X-0.475000X0.250000X-0.475000X0.250000X0.475000X-0.250000X0.475000X0*%
%ADD16RoundRect,0.250000X-0.450000X0.262500X-0.450000X-0.262500X0.450000X-0.262500X0.450000X0.262500X0*%
%ADD17R,5.080000X1.500000*%
%ADD18RoundRect,0.250000X0.475000X-0.337500X0.475000X0.337500X-0.475000X0.337500X-0.475000X-0.337500X0*%
%ADD19R,1.050000X1.500000*%
%ADD20O,1.050000X1.500000*%
%ADD21R,1.700000X1.700000*%
%ADD22O,1.700000X1.700000*%
G04 APERTURE END LIST*
D10*
%TO.C,U1*%
X136460500Y-95906000D03*
X136460500Y-97906000D03*
X136460500Y-99906000D03*
X136460500Y-101906000D03*
X136460500Y-103906000D03*
X121460500Y-103906000D03*
X121460500Y-101906000D03*
X121460500Y-99906000D03*
X121460500Y-97906000D03*
X121460500Y-95906000D03*
X121460500Y-91906000D03*
%TD*%
D11*
%TO.C,JP1*%
X108204000Y-106456000D03*
X108204000Y-105156000D03*
X108204000Y-103856000D03*
%TD*%
D12*
%TO.C,R3*%
X108100500Y-108712000D03*
X106275500Y-108712000D03*
%TD*%
D13*
%TO.C,R2*%
X111506000Y-105560500D03*
X111506000Y-103735500D03*
%TD*%
D14*
%TO.C,D1*%
X112189500Y-108712000D03*
X110314500Y-108712000D03*
%TD*%
D15*
%TO.C,C2*%
X110302000Y-92456000D03*
X112202000Y-92456000D03*
%TD*%
D16*
%TO.C,R1*%
X112014000Y-94591500D03*
X112014000Y-96416500D03*
%TD*%
D17*
%TO.C,ANTENNA1*%
X106172000Y-91948000D03*
X106172000Y-96198000D03*
X106172000Y-87698000D03*
%TD*%
D18*
%TO.C,C3*%
X105664000Y-100859500D03*
X105664000Y-98784500D03*
%TD*%
D15*
%TO.C,C1*%
X110302000Y-89916000D03*
X112202000Y-89916000D03*
%TD*%
D13*
%TO.C,R4*%
X105664000Y-104798500D03*
X105664000Y-102973500D03*
%TD*%
D19*
%TO.C,Q1*%
X108966000Y-100436000D03*
D20*
X110236000Y-100436000D03*
X111506000Y-100436000D03*
%TD*%
D21*
%TO.C,J1*%
X115090500Y-90170000D03*
D22*
X115090500Y-92710000D03*
X115090500Y-95250000D03*
X115090500Y-97790000D03*
X115090500Y-100330000D03*
X115090500Y-102870000D03*
X115090500Y-105410000D03*
X115090500Y-107950000D03*
%TD*%
M02*
