G04*
G04 #@! TF.GenerationSoftware,Altium Limited,Altium Designer,20.2.6 (244)*
G04*
G04 Layer_Color=8421504*
%FSLAX43Y43*%
%MOMM*%
G71*
G04*
G04 #@! TF.SameCoordinates,2C86BF04-D5EB-48A7-99AD-59697B33CBFA*
G04*
G04*
G04 #@! TF.FilePolarity,Positive*
G04*
G01*
G75*
%ADD10C,0.500*%
%ADD11R,1.450X1.450*%
%ADD12C,0.300*%
G04:AMPARAMS|DCode=13|XSize=0.6mm|YSize=0.3mm|CornerRadius=0mm|HoleSize=0mm|Usage=FLASHONLY|Rotation=180.000|XOffset=0mm|YOffset=0mm|HoleType=Round|Shape=Octagon|*
%AMOCTAGOND13*
4,1,8,-0.300,0.075,-0.300,-0.075,-0.225,-0.150,0.225,-0.150,0.300,-0.075,0.300,0.075,0.225,0.150,-0.225,0.150,-0.300,0.075,0.0*
%
%ADD13OCTAGOND13*%

G04:AMPARAMS|DCode=14|XSize=0.6mm|YSize=0.3mm|CornerRadius=0mm|HoleSize=0mm|Usage=FLASHONLY|Rotation=90.000|XOffset=0mm|YOffset=0mm|HoleType=Round|Shape=Octagon|*
%AMOCTAGOND14*
4,1,8,0.075,0.300,-0.075,0.300,-0.150,0.225,-0.150,-0.225,-0.075,-0.300,0.075,-0.300,0.150,-0.225,0.150,0.225,0.075,0.300,0.0*
%
%ADD14OCTAGOND14*%

%ADD15R,0.600X0.225*%
%ADD16R,0.700X0.550*%
%ADD17R,0.550X0.700*%
%ADD18R,0.700X0.700*%
%ADD19R,0.725X1.000*%
%ADD20R,0.850X0.750*%
%ADD21R,1.250X1.000*%
%ADD22R,0.950X1.100*%
%ADD23R,0.600X0.600*%
%ADD24R,0.300X0.425*%
%ADD25R,4.200X1.350*%
%ADD26R,3.600X1.270*%
%ADD27R,0.600X0.600*%
%ADD28R,1.000X0.725*%
%ADD29C,1.000*%
D10*
X26961Y-9859D02*
X32942Y-9852D01*
X53224Y-9876D02*
Y-1391D01*
X48190Y-9862D02*
X53224D01*
X12622Y-9862D02*
X16820D01*
X34597Y-9856D02*
X40164Y-9847D01*
X27895Y-9862D02*
X28960D01*
X12629Y-7963D02*
Y11360D01*
X16537D01*
X12622Y-9862D02*
Y-7963D01*
X42939Y-9864D02*
X45273Y-9847D01*
X53232Y1286D02*
Y11346D01*
X16537Y11346D02*
X53232Y11346D01*
D11*
X29703Y-663D02*
D03*
Y-2466D02*
D03*
Y-4246D02*
D03*
X27925D02*
D03*
Y-2466D02*
D03*
Y-663D02*
D03*
X26151Y-4247D02*
D03*
X26151Y-2467D02*
D03*
Y-664D02*
D03*
D12*
X-9Y17005D02*
X62391Y17098D01*
X-9Y17005D02*
X0Y-17000D01*
X62391Y17098D02*
X62401Y-16907D01*
X0Y-17000D02*
X62401Y-16907D01*
D13*
X24541Y-231D02*
D03*
Y269D02*
D03*
Y-731D02*
D03*
Y-1231D02*
D03*
Y-1731D02*
D03*
Y-2231D02*
D03*
Y-2731D02*
D03*
Y-3231D02*
D03*
Y-4231D02*
D03*
Y-4731D02*
D03*
Y-5231D02*
D03*
X31338Y269D02*
D03*
Y-231D02*
D03*
Y-731D02*
D03*
Y-1231D02*
D03*
Y-1731D02*
D03*
Y-2231D02*
D03*
Y-2731D02*
D03*
Y-3231D02*
D03*
Y-3731D02*
D03*
Y-4231D02*
D03*
Y-4731D02*
D03*
Y-5231D02*
D03*
X24541Y-3731D02*
D03*
D14*
X30700Y-5878D02*
D03*
X30200D02*
D03*
X29700D02*
D03*
X29200D02*
D03*
X28700D02*
D03*
X28200D02*
D03*
X27700D02*
D03*
X27200D02*
D03*
X26700D02*
D03*
X26200D02*
D03*
X25700D02*
D03*
X25193D02*
D03*
X30700Y919D02*
D03*
X30200D02*
D03*
X29700D02*
D03*
X29200D02*
D03*
X28700D02*
D03*
X28200D02*
D03*
X27700D02*
D03*
X27200D02*
D03*
X26700D02*
D03*
X26200D02*
D03*
X25700D02*
D03*
X25200D02*
D03*
D15*
X47000Y500D02*
D03*
Y100D02*
D03*
Y-300D02*
D03*
X47800Y500D02*
D03*
Y100D02*
D03*
Y-300D02*
D03*
D16*
X33698Y758D02*
D03*
X48303Y-5173D02*
D03*
X48303Y-4273D02*
D03*
X46900Y5126D02*
D03*
Y4226D02*
D03*
X28575Y6825D02*
D03*
Y7725D02*
D03*
X29725Y6825D02*
D03*
Y7725D02*
D03*
X32887Y6258D02*
D03*
X32887Y5358D02*
D03*
D17*
X32715Y-225D02*
D03*
X37773Y-6349D02*
D03*
X36873Y-6349D02*
D03*
X46004Y6426D02*
D03*
X46904D02*
D03*
X25915Y8885D02*
D03*
X25015D02*
D03*
X46004Y7826D02*
D03*
X46904D02*
D03*
X46153Y-7348D02*
D03*
X47053D02*
D03*
X46153Y-4699D02*
D03*
X47053D02*
D03*
X46153Y-5999D02*
D03*
X47053D02*
D03*
X17943Y-1039D02*
D03*
X17043D02*
D03*
X17943Y362D02*
D03*
X17043D02*
D03*
D18*
X33698Y-225D02*
D03*
X57325Y-1025D02*
D03*
X51350D02*
D03*
D19*
X39011Y-6365D02*
D03*
X40436Y-6381D02*
D03*
X49459Y-11918D02*
D03*
X50884D02*
D03*
D20*
X30150Y8750D02*
D03*
Y9800D02*
D03*
X28800Y8750D02*
D03*
Y9800D02*
D03*
D21*
X15368Y-1114D02*
D03*
X15368Y386D02*
D03*
D22*
X16624Y-3536D02*
D03*
X16624Y-5036D02*
D03*
D23*
X33475Y-1305D02*
D03*
Y-2365D02*
D03*
X57325Y25D02*
D03*
X35388Y2075D02*
D03*
Y1015D02*
D03*
X27625Y9750D02*
D03*
Y8800D02*
D03*
X51350Y25D02*
D03*
X37025Y-3161D02*
D03*
Y-2211D02*
D03*
X31375Y9750D02*
D03*
Y8800D02*
D03*
X45500Y25D02*
D03*
Y-925D02*
D03*
X40299Y25D02*
D03*
Y-925D02*
D03*
X37000D02*
D03*
Y25D02*
D03*
X32423Y1975D02*
D03*
Y2925D02*
D03*
X33823Y1975D02*
D03*
Y2925D02*
D03*
X34413Y-7074D02*
D03*
Y-8024D02*
D03*
X21911Y-6307D02*
D03*
Y-5357D02*
D03*
X19749Y-2013D02*
D03*
Y-2963D02*
D03*
X23251Y475D02*
D03*
Y1425D02*
D03*
X31000Y-8565D02*
D03*
Y-7615D02*
D03*
X29600D02*
D03*
Y-8565D02*
D03*
D24*
X35563Y-7069D02*
D03*
X35563Y-7694D02*
D03*
D25*
X60270Y2850D02*
D03*
Y-2800D02*
D03*
D26*
X60470Y25D02*
D03*
D27*
X48192Y2031D02*
D03*
X49142D02*
D03*
X56055Y25D02*
D03*
X54995D02*
D03*
X34768Y19D02*
D03*
X35828D02*
D03*
X42337Y25D02*
D03*
X41277D02*
D03*
X39111Y20D02*
D03*
X38051D02*
D03*
X28025Y2700D02*
D03*
X27075D02*
D03*
X31850Y4100D02*
D03*
X30900D02*
D03*
X35575Y-1635D02*
D03*
X34625D02*
D03*
X50100Y25D02*
D03*
X49150D02*
D03*
X35800Y-3035D02*
D03*
X34850D02*
D03*
X46025Y2926D02*
D03*
X46975D02*
D03*
X43505Y25D02*
D03*
X44455D02*
D03*
X39056Y1345D02*
D03*
X38106D02*
D03*
X48372Y-2973D02*
D03*
X49322D02*
D03*
X15273Y-2589D02*
D03*
X14323D02*
D03*
Y1862D02*
D03*
X15273D02*
D03*
X28025Y4700D02*
D03*
X28975D02*
D03*
X21924Y-3241D02*
D03*
X20974D02*
D03*
X48426Y-1500D02*
D03*
X49376D02*
D03*
D28*
X20411Y-6847D02*
D03*
X20411Y-5422D02*
D03*
X18249Y-3851D02*
D03*
Y-2426D02*
D03*
X21400Y463D02*
D03*
Y1888D02*
D03*
D29*
X57800Y-14800D02*
D03*
X2200Y14800D02*
D03*
M02*
