%TF.GenerationSoftware,KiCad,Pcbnew,6.0.0*%
%TF.CreationDate,2022-03-07T01:43:26-06:00*%
%TF.ProjectId,main_board,6d61696e-5f62-46f6-9172-642e6b696361,rev?*%
%TF.SameCoordinates,Original*%
%TF.FileFunction,Legend,Top*%
%TF.FilePolarity,Positive*%
%FSLAX46Y46*%
G04 Gerber Fmt 4.6, Leading zero omitted, Abs format (unit mm)*
G04 Created by KiCad (PCBNEW 6.0.0) date 2022-03-07 01:43:26*
%MOMM*%
%LPD*%
G01*
G04 APERTURE LIST*
%ADD10C,0.150000*%
%ADD11C,0.125000*%
%ADD12C,0.100000*%
%ADD13C,0.120000*%
G04 APERTURE END LIST*
D10*
X186000000Y-142380000D02*
X188440000Y-142390000D01*
X163480000Y-134630000D02*
X164240000Y-135660000D01*
D11*
X131800476Y-141004285D02*
X131871904Y-141028095D01*
X131895714Y-141051904D01*
X131919523Y-141099523D01*
X131919523Y-141170952D01*
X131895714Y-141218571D01*
X131871904Y-141242380D01*
X131824285Y-141266190D01*
X131633809Y-141266190D01*
X131633809Y-140766190D01*
X131800476Y-140766190D01*
X131848095Y-140790000D01*
X131871904Y-140813809D01*
X131895714Y-140861428D01*
X131895714Y-140909047D01*
X131871904Y-140956666D01*
X131848095Y-140980476D01*
X131800476Y-141004285D01*
X131633809Y-141004285D01*
X132110000Y-141123333D02*
X132348095Y-141123333D01*
X132062380Y-141266190D02*
X132229047Y-140766190D01*
X132395714Y-141266190D01*
X132490952Y-140766190D02*
X132776666Y-140766190D01*
X132633809Y-141266190D02*
X132633809Y-140766190D01*
X132871904Y-140766190D02*
X133157619Y-140766190D01*
X133014761Y-141266190D02*
X133014761Y-140766190D01*
D10*
X156478571Y-139880000D02*
X156535714Y-139908571D01*
X156621428Y-139908571D01*
X156707142Y-139880000D01*
X156764285Y-139822857D01*
X156792857Y-139765714D01*
X156821428Y-139651428D01*
X156821428Y-139565714D01*
X156792857Y-139451428D01*
X156764285Y-139394285D01*
X156707142Y-139337142D01*
X156621428Y-139308571D01*
X156564285Y-139308571D01*
X156478571Y-139337142D01*
X156450000Y-139365714D01*
X156450000Y-139565714D01*
X156564285Y-139565714D01*
X156192857Y-139308571D02*
X156192857Y-139908571D01*
X155964285Y-139908571D01*
X155907142Y-139880000D01*
X155878571Y-139851428D01*
X155850000Y-139794285D01*
X155850000Y-139708571D01*
X155878571Y-139651428D01*
X155907142Y-139622857D01*
X155964285Y-139594285D01*
X156192857Y-139594285D01*
X155621428Y-139337142D02*
X155535714Y-139308571D01*
X155392857Y-139308571D01*
X155335714Y-139337142D01*
X155307142Y-139365714D01*
X155278571Y-139422857D01*
X155278571Y-139480000D01*
X155307142Y-139537142D01*
X155335714Y-139565714D01*
X155392857Y-139594285D01*
X155507142Y-139622857D01*
X155564285Y-139651428D01*
X155592857Y-139680000D01*
X155621428Y-139737142D01*
X155621428Y-139794285D01*
X155592857Y-139851428D01*
X155564285Y-139880000D01*
X155507142Y-139908571D01*
X155364285Y-139908571D01*
X155278571Y-139880000D01*
D11*
X134450952Y-137856190D02*
X134450952Y-137356190D01*
X134570000Y-137356190D01*
X134641428Y-137380000D01*
X134689047Y-137427619D01*
X134712857Y-137475238D01*
X134736666Y-137570476D01*
X134736666Y-137641904D01*
X134712857Y-137737142D01*
X134689047Y-137784761D01*
X134641428Y-137832380D01*
X134570000Y-137856190D01*
X134450952Y-137856190D01*
X134950952Y-137594285D02*
X135117619Y-137594285D01*
X135189047Y-137856190D02*
X134950952Y-137856190D01*
X134950952Y-137356190D01*
X135189047Y-137356190D01*
X135570000Y-137594285D02*
X135641428Y-137618095D01*
X135665238Y-137641904D01*
X135689047Y-137689523D01*
X135689047Y-137760952D01*
X135665238Y-137808571D01*
X135641428Y-137832380D01*
X135593809Y-137856190D01*
X135403333Y-137856190D01*
X135403333Y-137356190D01*
X135570000Y-137356190D01*
X135617619Y-137380000D01*
X135641428Y-137403809D01*
X135665238Y-137451428D01*
X135665238Y-137499047D01*
X135641428Y-137546666D01*
X135617619Y-137570476D01*
X135570000Y-137594285D01*
X135403333Y-137594285D01*
X135903333Y-137356190D02*
X135903333Y-137760952D01*
X135927142Y-137808571D01*
X135950952Y-137832380D01*
X135998571Y-137856190D01*
X136093809Y-137856190D01*
X136141428Y-137832380D01*
X136165238Y-137808571D01*
X136189047Y-137760952D01*
X136189047Y-137356190D01*
X136689047Y-137380000D02*
X136641428Y-137356190D01*
X136570000Y-137356190D01*
X136498571Y-137380000D01*
X136450952Y-137427619D01*
X136427142Y-137475238D01*
X136403333Y-137570476D01*
X136403333Y-137641904D01*
X136427142Y-137737142D01*
X136450952Y-137784761D01*
X136498571Y-137832380D01*
X136570000Y-137856190D01*
X136617619Y-137856190D01*
X136689047Y-137832380D01*
X136712857Y-137808571D01*
X136712857Y-137641904D01*
X136617619Y-137641904D01*
D10*
X149645714Y-140661428D02*
X149445714Y-140375714D01*
X149302857Y-140661428D02*
X149302857Y-140061428D01*
X149531428Y-140061428D01*
X149588571Y-140090000D01*
X149617142Y-140118571D01*
X149645714Y-140175714D01*
X149645714Y-140261428D01*
X149617142Y-140318571D01*
X149588571Y-140347142D01*
X149531428Y-140375714D01*
X149302857Y-140375714D01*
X150102857Y-140347142D02*
X149902857Y-140347142D01*
X149902857Y-140661428D02*
X149902857Y-140061428D01*
X150188571Y-140061428D01*
X150417142Y-140661428D02*
X150417142Y-140061428D01*
X150702857Y-140661428D02*
X150702857Y-140061428D01*
X150845714Y-140061428D01*
X150931428Y-140090000D01*
X150988571Y-140147142D01*
X151017142Y-140204285D01*
X151045714Y-140318571D01*
X151045714Y-140404285D01*
X151017142Y-140518571D01*
X150988571Y-140575714D01*
X150931428Y-140632857D01*
X150845714Y-140661428D01*
X150702857Y-140661428D01*
X140864285Y-141220000D02*
X141150000Y-141220000D01*
X140807142Y-141391428D02*
X141007142Y-140791428D01*
X141207142Y-141391428D01*
X141692857Y-141391428D02*
X141407142Y-141391428D01*
X141407142Y-140791428D01*
X141864285Y-141220000D02*
X142150000Y-141220000D01*
X141807142Y-141391428D02*
X142007142Y-140791428D01*
X142207142Y-141391428D01*
X142750000Y-141391428D02*
X142550000Y-141105714D01*
X142407142Y-141391428D02*
X142407142Y-140791428D01*
X142635714Y-140791428D01*
X142692857Y-140820000D01*
X142721428Y-140848571D01*
X142750000Y-140905714D01*
X142750000Y-140991428D01*
X142721428Y-141048571D01*
X142692857Y-141077142D01*
X142635714Y-141105714D01*
X142407142Y-141105714D01*
X143007142Y-141391428D02*
X143007142Y-140791428D01*
X143207142Y-141220000D01*
X143407142Y-140791428D01*
X143407142Y-141391428D01*
X153698571Y-149511428D02*
X153498571Y-149225714D01*
X153355714Y-149511428D02*
X153355714Y-148911428D01*
X153584285Y-148911428D01*
X153641428Y-148940000D01*
X153670000Y-148968571D01*
X153698571Y-149025714D01*
X153698571Y-149111428D01*
X153670000Y-149168571D01*
X153641428Y-149197142D01*
X153584285Y-149225714D01*
X153355714Y-149225714D01*
X154155714Y-149197142D02*
X153955714Y-149197142D01*
X153955714Y-149511428D02*
X153955714Y-148911428D01*
X154241428Y-148911428D01*
X154470000Y-149511428D02*
X154470000Y-148911428D01*
X154755714Y-149511428D02*
X154755714Y-148911428D01*
X154898571Y-148911428D01*
X154984285Y-148940000D01*
X155041428Y-148997142D01*
X155070000Y-149054285D01*
X155098571Y-149168571D01*
X155098571Y-149254285D01*
X155070000Y-149368571D01*
X155041428Y-149425714D01*
X154984285Y-149482857D01*
X154898571Y-149511428D01*
X154755714Y-149511428D01*
X155927142Y-148911428D02*
X156041428Y-148911428D01*
X156098571Y-148940000D01*
X156155714Y-148997142D01*
X156184285Y-149111428D01*
X156184285Y-149311428D01*
X156155714Y-149425714D01*
X156098571Y-149482857D01*
X156041428Y-149511428D01*
X155927142Y-149511428D01*
X155870000Y-149482857D01*
X155812857Y-149425714D01*
X155784285Y-149311428D01*
X155784285Y-149111428D01*
X155812857Y-148997142D01*
X155870000Y-148940000D01*
X155927142Y-148911428D01*
X156441428Y-149511428D02*
X156441428Y-148911428D01*
X156784285Y-149511428D01*
X156784285Y-148911428D01*
%TO.C,H4*%
X216337095Y-144029380D02*
X216337095Y-143029380D01*
X216337095Y-143505571D02*
X216908523Y-143505571D01*
X216908523Y-144029380D02*
X216908523Y-143029380D01*
X217813285Y-143362714D02*
X217813285Y-144029380D01*
X217575190Y-142981761D02*
X217337095Y-143696047D01*
X217956142Y-143696047D01*
%TO.C,H2*%
X216443095Y-132157380D02*
X216443095Y-131157380D01*
X216443095Y-131633571D02*
X217014523Y-131633571D01*
X217014523Y-132157380D02*
X217014523Y-131157380D01*
X217443095Y-131252619D02*
X217490714Y-131205000D01*
X217585952Y-131157380D01*
X217824047Y-131157380D01*
X217919285Y-131205000D01*
X217966904Y-131252619D01*
X218014523Y-131347857D01*
X218014523Y-131443095D01*
X217966904Y-131585952D01*
X217395476Y-132157380D01*
X218014523Y-132157380D01*
%TO.C,H1*%
X136838095Y-144502380D02*
X136838095Y-143502380D01*
X136838095Y-143978571D02*
X137409523Y-143978571D01*
X137409523Y-144502380D02*
X137409523Y-143502380D01*
X138409523Y-144502380D02*
X137838095Y-144502380D01*
X138123809Y-144502380D02*
X138123809Y-143502380D01*
X138028571Y-143645238D01*
X137933333Y-143740476D01*
X137838095Y-143788095D01*
%TO.C,D8*%
X130557142Y-132621428D02*
X130557142Y-132021428D01*
X130700000Y-132021428D01*
X130785714Y-132050000D01*
X130842857Y-132107142D01*
X130871428Y-132164285D01*
X130900000Y-132278571D01*
X130900000Y-132364285D01*
X130871428Y-132478571D01*
X130842857Y-132535714D01*
X130785714Y-132592857D01*
X130700000Y-132621428D01*
X130557142Y-132621428D01*
X131242857Y-132278571D02*
X131185714Y-132250000D01*
X131157142Y-132221428D01*
X131128571Y-132164285D01*
X131128571Y-132135714D01*
X131157142Y-132078571D01*
X131185714Y-132050000D01*
X131242857Y-132021428D01*
X131357142Y-132021428D01*
X131414285Y-132050000D01*
X131442857Y-132078571D01*
X131471428Y-132135714D01*
X131471428Y-132164285D01*
X131442857Y-132221428D01*
X131414285Y-132250000D01*
X131357142Y-132278571D01*
X131242857Y-132278571D01*
X131185714Y-132307142D01*
X131157142Y-132335714D01*
X131128571Y-132392857D01*
X131128571Y-132507142D01*
X131157142Y-132564285D01*
X131185714Y-132592857D01*
X131242857Y-132621428D01*
X131357142Y-132621428D01*
X131414285Y-132592857D01*
X131442857Y-132564285D01*
X131471428Y-132507142D01*
X131471428Y-132392857D01*
X131442857Y-132335714D01*
X131414285Y-132307142D01*
X131357142Y-132278571D01*
%TO.C,D7*%
X146686904Y-136927380D02*
X146686904Y-135927380D01*
X146925000Y-135927380D01*
X147067857Y-135975000D01*
X147163095Y-136070238D01*
X147210714Y-136165476D01*
X147258333Y-136355952D01*
X147258333Y-136498809D01*
X147210714Y-136689285D01*
X147163095Y-136784523D01*
X147067857Y-136879761D01*
X146925000Y-136927380D01*
X146686904Y-136927380D01*
X147591666Y-135927380D02*
X148258333Y-135927380D01*
X147829761Y-136927380D01*
%TO.C,D6*%
X158607142Y-132446428D02*
X158607142Y-131846428D01*
X158750000Y-131846428D01*
X158835714Y-131875000D01*
X158892857Y-131932142D01*
X158921428Y-131989285D01*
X158950000Y-132103571D01*
X158950000Y-132189285D01*
X158921428Y-132303571D01*
X158892857Y-132360714D01*
X158835714Y-132417857D01*
X158750000Y-132446428D01*
X158607142Y-132446428D01*
X159464285Y-131846428D02*
X159350000Y-131846428D01*
X159292857Y-131875000D01*
X159264285Y-131903571D01*
X159207142Y-131989285D01*
X159178571Y-132103571D01*
X159178571Y-132332142D01*
X159207142Y-132389285D01*
X159235714Y-132417857D01*
X159292857Y-132446428D01*
X159407142Y-132446428D01*
X159464285Y-132417857D01*
X159492857Y-132389285D01*
X159521428Y-132332142D01*
X159521428Y-132189285D01*
X159492857Y-132132142D01*
X159464285Y-132103571D01*
X159407142Y-132075000D01*
X159292857Y-132075000D01*
X159235714Y-132103571D01*
X159207142Y-132132142D01*
X159178571Y-132189285D01*
%TO.C,D5*%
X157436904Y-148040476D02*
X156636904Y-148040476D01*
X156636904Y-147850000D01*
X156675000Y-147735714D01*
X156751190Y-147659523D01*
X156827380Y-147621428D01*
X156979761Y-147583333D01*
X157094047Y-147583333D01*
X157246428Y-147621428D01*
X157322619Y-147659523D01*
X157398809Y-147735714D01*
X157436904Y-147850000D01*
X157436904Y-148040476D01*
X156636904Y-146859523D02*
X156636904Y-147240476D01*
X157017857Y-147278571D01*
X156979761Y-147240476D01*
X156941666Y-147164285D01*
X156941666Y-146973809D01*
X156979761Y-146897619D01*
X157017857Y-146859523D01*
X157094047Y-146821428D01*
X157284523Y-146821428D01*
X157360714Y-146859523D01*
X157398809Y-146897619D01*
X157436904Y-146973809D01*
X157436904Y-147164285D01*
X157398809Y-147240476D01*
X157360714Y-147278571D01*
%TO.C,R15*%
X132139285Y-135171428D02*
X131939285Y-134885714D01*
X131796428Y-135171428D02*
X131796428Y-134571428D01*
X132025000Y-134571428D01*
X132082142Y-134600000D01*
X132110714Y-134628571D01*
X132139285Y-134685714D01*
X132139285Y-134771428D01*
X132110714Y-134828571D01*
X132082142Y-134857142D01*
X132025000Y-134885714D01*
X131796428Y-134885714D01*
X132710714Y-135171428D02*
X132367857Y-135171428D01*
X132539285Y-135171428D02*
X132539285Y-134571428D01*
X132482142Y-134657142D01*
X132425000Y-134714285D01*
X132367857Y-134742857D01*
X133253571Y-134571428D02*
X132967857Y-134571428D01*
X132939285Y-134857142D01*
X132967857Y-134828571D01*
X133025000Y-134800000D01*
X133167857Y-134800000D01*
X133225000Y-134828571D01*
X133253571Y-134857142D01*
X133282142Y-134914285D01*
X133282142Y-135057142D01*
X133253571Y-135114285D01*
X133225000Y-135142857D01*
X133167857Y-135171428D01*
X133025000Y-135171428D01*
X132967857Y-135142857D01*
X132939285Y-135114285D01*
%TO.C,L1*%
X174994380Y-144720666D02*
X174994380Y-145196857D01*
X173994380Y-145196857D01*
X174994380Y-143863523D02*
X174994380Y-144434952D01*
X174994380Y-144149238D02*
X173994380Y-144149238D01*
X174137238Y-144244476D01*
X174232476Y-144339714D01*
X174280095Y-144434952D01*
%TO.C,J7*%
X164042380Y-148883333D02*
X164756666Y-148883333D01*
X164899523Y-148930952D01*
X164994761Y-149026190D01*
X165042380Y-149169047D01*
X165042380Y-149264285D01*
X164042380Y-148502380D02*
X164042380Y-147835714D01*
X165042380Y-148264285D01*
%TO.C,TP6*%
X162300476Y-143091904D02*
X162757619Y-143091904D01*
X162529047Y-143891904D02*
X162529047Y-143091904D01*
X163024285Y-143891904D02*
X163024285Y-143091904D01*
X163329047Y-143091904D01*
X163405238Y-143130000D01*
X163443333Y-143168095D01*
X163481428Y-143244285D01*
X163481428Y-143358571D01*
X163443333Y-143434761D01*
X163405238Y-143472857D01*
X163329047Y-143510952D01*
X163024285Y-143510952D01*
X164167142Y-143091904D02*
X164014761Y-143091904D01*
X163938571Y-143130000D01*
X163900476Y-143168095D01*
X163824285Y-143282380D01*
X163786190Y-143434761D01*
X163786190Y-143739523D01*
X163824285Y-143815714D01*
X163862380Y-143853809D01*
X163938571Y-143891904D01*
X164090952Y-143891904D01*
X164167142Y-143853809D01*
X164205238Y-143815714D01*
X164243333Y-143739523D01*
X164243333Y-143549047D01*
X164205238Y-143472857D01*
X164167142Y-143434761D01*
X164090952Y-143396666D01*
X163938571Y-143396666D01*
X163862380Y-143434761D01*
X163824285Y-143472857D01*
X163786190Y-143549047D01*
%TO.C,C20*%
X184684285Y-138535714D02*
X184712857Y-138564285D01*
X184741428Y-138650000D01*
X184741428Y-138707142D01*
X184712857Y-138792857D01*
X184655714Y-138850000D01*
X184598571Y-138878571D01*
X184484285Y-138907142D01*
X184398571Y-138907142D01*
X184284285Y-138878571D01*
X184227142Y-138850000D01*
X184170000Y-138792857D01*
X184141428Y-138707142D01*
X184141428Y-138650000D01*
X184170000Y-138564285D01*
X184198571Y-138535714D01*
X184198571Y-138307142D02*
X184170000Y-138278571D01*
X184141428Y-138221428D01*
X184141428Y-138078571D01*
X184170000Y-138021428D01*
X184198571Y-137992857D01*
X184255714Y-137964285D01*
X184312857Y-137964285D01*
X184398571Y-137992857D01*
X184741428Y-138335714D01*
X184741428Y-137964285D01*
X184141428Y-137592857D02*
X184141428Y-137535714D01*
X184170000Y-137478571D01*
X184198571Y-137450000D01*
X184255714Y-137421428D01*
X184370000Y-137392857D01*
X184512857Y-137392857D01*
X184627142Y-137421428D01*
X184684285Y-137450000D01*
X184712857Y-137478571D01*
X184741428Y-137535714D01*
X184741428Y-137592857D01*
X184712857Y-137650000D01*
X184684285Y-137678571D01*
X184627142Y-137707142D01*
X184512857Y-137735714D01*
X184370000Y-137735714D01*
X184255714Y-137707142D01*
X184198571Y-137678571D01*
X184170000Y-137650000D01*
X184141428Y-137592857D01*
%TO.C,C8*%
X188183333Y-149427142D02*
X188135714Y-149474761D01*
X187992857Y-149522380D01*
X187897619Y-149522380D01*
X187754761Y-149474761D01*
X187659523Y-149379523D01*
X187611904Y-149284285D01*
X187564285Y-149093809D01*
X187564285Y-148950952D01*
X187611904Y-148760476D01*
X187659523Y-148665238D01*
X187754761Y-148570000D01*
X187897619Y-148522380D01*
X187992857Y-148522380D01*
X188135714Y-148570000D01*
X188183333Y-148617619D01*
X188754761Y-148950952D02*
X188659523Y-148903333D01*
X188611904Y-148855714D01*
X188564285Y-148760476D01*
X188564285Y-148712857D01*
X188611904Y-148617619D01*
X188659523Y-148570000D01*
X188754761Y-148522380D01*
X188945238Y-148522380D01*
X189040476Y-148570000D01*
X189088095Y-148617619D01*
X189135714Y-148712857D01*
X189135714Y-148760476D01*
X189088095Y-148855714D01*
X189040476Y-148903333D01*
X188945238Y-148950952D01*
X188754761Y-148950952D01*
X188659523Y-148998571D01*
X188611904Y-149046190D01*
X188564285Y-149141428D01*
X188564285Y-149331904D01*
X188611904Y-149427142D01*
X188659523Y-149474761D01*
X188754761Y-149522380D01*
X188945238Y-149522380D01*
X189040476Y-149474761D01*
X189088095Y-149427142D01*
X189135714Y-149331904D01*
X189135714Y-149141428D01*
X189088095Y-149046190D01*
X189040476Y-148998571D01*
X188945238Y-148950952D01*
D12*
%TO.C,U5*%
X129645238Y-139005952D02*
X129645238Y-139329761D01*
X129664285Y-139367857D01*
X129683333Y-139386904D01*
X129721428Y-139405952D01*
X129797619Y-139405952D01*
X129835714Y-139386904D01*
X129854761Y-139367857D01*
X129873809Y-139329761D01*
X129873809Y-139005952D01*
X130254761Y-139005952D02*
X130064285Y-139005952D01*
X130045238Y-139196428D01*
X130064285Y-139177380D01*
X130102380Y-139158333D01*
X130197619Y-139158333D01*
X130235714Y-139177380D01*
X130254761Y-139196428D01*
X130273809Y-139234523D01*
X130273809Y-139329761D01*
X130254761Y-139367857D01*
X130235714Y-139386904D01*
X130197619Y-139405952D01*
X130102380Y-139405952D01*
X130064285Y-139386904D01*
X130045238Y-139367857D01*
D10*
%TO.C,L3*%
X184393333Y-142102380D02*
X183917142Y-142102380D01*
X183917142Y-141102380D01*
X184631428Y-141102380D02*
X185250476Y-141102380D01*
X184917142Y-141483333D01*
X185060000Y-141483333D01*
X185155238Y-141530952D01*
X185202857Y-141578571D01*
X185250476Y-141673809D01*
X185250476Y-141911904D01*
X185202857Y-142007142D01*
X185155238Y-142054761D01*
X185060000Y-142102380D01*
X184774285Y-142102380D01*
X184679047Y-142054761D01*
X184631428Y-142007142D01*
%TO.C,TP7*%
X157780476Y-139521904D02*
X158237619Y-139521904D01*
X158009047Y-140321904D02*
X158009047Y-139521904D01*
X158504285Y-140321904D02*
X158504285Y-139521904D01*
X158809047Y-139521904D01*
X158885238Y-139560000D01*
X158923333Y-139598095D01*
X158961428Y-139674285D01*
X158961428Y-139788571D01*
X158923333Y-139864761D01*
X158885238Y-139902857D01*
X158809047Y-139940952D01*
X158504285Y-139940952D01*
X159228095Y-139521904D02*
X159761428Y-139521904D01*
X159418571Y-140321904D01*
%TO.C,TP1*%
X166148095Y-132312380D02*
X166719523Y-132312380D01*
X166433809Y-133312380D02*
X166433809Y-132312380D01*
X167052857Y-133312380D02*
X167052857Y-132312380D01*
X167433809Y-132312380D01*
X167529047Y-132360000D01*
X167576666Y-132407619D01*
X167624285Y-132502857D01*
X167624285Y-132645714D01*
X167576666Y-132740952D01*
X167529047Y-132788571D01*
X167433809Y-132836190D01*
X167052857Y-132836190D01*
X168576666Y-133312380D02*
X168005238Y-133312380D01*
X168290952Y-133312380D02*
X168290952Y-132312380D01*
X168195714Y-132455238D01*
X168100476Y-132550476D01*
X168005238Y-132598095D01*
%TO.C,L2*%
X190743333Y-139142380D02*
X190267142Y-139142380D01*
X190267142Y-138142380D01*
X191029047Y-138237619D02*
X191076666Y-138190000D01*
X191171904Y-138142380D01*
X191410000Y-138142380D01*
X191505238Y-138190000D01*
X191552857Y-138237619D01*
X191600476Y-138332857D01*
X191600476Y-138428095D01*
X191552857Y-138570952D01*
X190981428Y-139142380D01*
X191600476Y-139142380D01*
%TO.C,C45*%
X148327142Y-133067142D02*
X148279523Y-133114761D01*
X148136666Y-133162380D01*
X148041428Y-133162380D01*
X147898571Y-133114761D01*
X147803333Y-133019523D01*
X147755714Y-132924285D01*
X147708095Y-132733809D01*
X147708095Y-132590952D01*
X147755714Y-132400476D01*
X147803333Y-132305238D01*
X147898571Y-132210000D01*
X148041428Y-132162380D01*
X148136666Y-132162380D01*
X148279523Y-132210000D01*
X148327142Y-132257619D01*
X149184285Y-132495714D02*
X149184285Y-133162380D01*
X148946190Y-132114761D02*
X148708095Y-132829047D01*
X149327142Y-132829047D01*
X150184285Y-132162380D02*
X149708095Y-132162380D01*
X149660476Y-132638571D01*
X149708095Y-132590952D01*
X149803333Y-132543333D01*
X150041428Y-132543333D01*
X150136666Y-132590952D01*
X150184285Y-132638571D01*
X150231904Y-132733809D01*
X150231904Y-132971904D01*
X150184285Y-133067142D01*
X150136666Y-133114761D01*
X150041428Y-133162380D01*
X149803333Y-133162380D01*
X149708095Y-133114761D01*
X149660476Y-133067142D01*
%TO.C,C40*%
X131164285Y-134210714D02*
X131192857Y-134239285D01*
X131221428Y-134325000D01*
X131221428Y-134382142D01*
X131192857Y-134467857D01*
X131135714Y-134525000D01*
X131078571Y-134553571D01*
X130964285Y-134582142D01*
X130878571Y-134582142D01*
X130764285Y-134553571D01*
X130707142Y-134525000D01*
X130650000Y-134467857D01*
X130621428Y-134382142D01*
X130621428Y-134325000D01*
X130650000Y-134239285D01*
X130678571Y-134210714D01*
X130821428Y-133696428D02*
X131221428Y-133696428D01*
X130592857Y-133839285D02*
X131021428Y-133982142D01*
X131021428Y-133610714D01*
X130621428Y-133267857D02*
X130621428Y-133210714D01*
X130650000Y-133153571D01*
X130678571Y-133125000D01*
X130735714Y-133096428D01*
X130850000Y-133067857D01*
X130992857Y-133067857D01*
X131107142Y-133096428D01*
X131164285Y-133125000D01*
X131192857Y-133153571D01*
X131221428Y-133210714D01*
X131221428Y-133267857D01*
X131192857Y-133325000D01*
X131164285Y-133353571D01*
X131107142Y-133382142D01*
X130992857Y-133410714D01*
X130850000Y-133410714D01*
X130735714Y-133382142D01*
X130678571Y-133353571D01*
X130650000Y-133325000D01*
X130621428Y-133267857D01*
%TO.C,C43*%
X153204285Y-133885714D02*
X153232857Y-133914285D01*
X153261428Y-134000000D01*
X153261428Y-134057142D01*
X153232857Y-134142857D01*
X153175714Y-134200000D01*
X153118571Y-134228571D01*
X153004285Y-134257142D01*
X152918571Y-134257142D01*
X152804285Y-134228571D01*
X152747142Y-134200000D01*
X152690000Y-134142857D01*
X152661428Y-134057142D01*
X152661428Y-134000000D01*
X152690000Y-133914285D01*
X152718571Y-133885714D01*
X152861428Y-133371428D02*
X153261428Y-133371428D01*
X152632857Y-133514285D02*
X153061428Y-133657142D01*
X153061428Y-133285714D01*
X152661428Y-133114285D02*
X152661428Y-132742857D01*
X152890000Y-132942857D01*
X152890000Y-132857142D01*
X152918571Y-132800000D01*
X152947142Y-132771428D01*
X153004285Y-132742857D01*
X153147142Y-132742857D01*
X153204285Y-132771428D01*
X153232857Y-132800000D01*
X153261428Y-132857142D01*
X153261428Y-133028571D01*
X153232857Y-133085714D01*
X153204285Y-133114285D01*
%TO.C,R12*%
X150734285Y-149581428D02*
X150534285Y-149295714D01*
X150391428Y-149581428D02*
X150391428Y-148981428D01*
X150620000Y-148981428D01*
X150677142Y-149010000D01*
X150705714Y-149038571D01*
X150734285Y-149095714D01*
X150734285Y-149181428D01*
X150705714Y-149238571D01*
X150677142Y-149267142D01*
X150620000Y-149295714D01*
X150391428Y-149295714D01*
X151305714Y-149581428D02*
X150962857Y-149581428D01*
X151134285Y-149581428D02*
X151134285Y-148981428D01*
X151077142Y-149067142D01*
X151020000Y-149124285D01*
X150962857Y-149152857D01*
X151534285Y-149038571D02*
X151562857Y-149010000D01*
X151620000Y-148981428D01*
X151762857Y-148981428D01*
X151820000Y-149010000D01*
X151848571Y-149038571D01*
X151877142Y-149095714D01*
X151877142Y-149152857D01*
X151848571Y-149238571D01*
X151505714Y-149581428D01*
X151877142Y-149581428D01*
%TO.C,JP4*%
X175170000Y-132801428D02*
X175170000Y-133230000D01*
X175141428Y-133315714D01*
X175084285Y-133372857D01*
X174998571Y-133401428D01*
X174941428Y-133401428D01*
X175455714Y-133401428D02*
X175455714Y-132801428D01*
X175684285Y-132801428D01*
X175741428Y-132830000D01*
X175770000Y-132858571D01*
X175798571Y-132915714D01*
X175798571Y-133001428D01*
X175770000Y-133058571D01*
X175741428Y-133087142D01*
X175684285Y-133115714D01*
X175455714Y-133115714D01*
X176312857Y-133001428D02*
X176312857Y-133401428D01*
X176170000Y-132772857D02*
X176027142Y-133201428D01*
X176398571Y-133201428D01*
%TO.C,C17*%
X184744285Y-133225714D02*
X184772857Y-133254285D01*
X184801428Y-133340000D01*
X184801428Y-133397142D01*
X184772857Y-133482857D01*
X184715714Y-133540000D01*
X184658571Y-133568571D01*
X184544285Y-133597142D01*
X184458571Y-133597142D01*
X184344285Y-133568571D01*
X184287142Y-133540000D01*
X184230000Y-133482857D01*
X184201428Y-133397142D01*
X184201428Y-133340000D01*
X184230000Y-133254285D01*
X184258571Y-133225714D01*
X184801428Y-132654285D02*
X184801428Y-132997142D01*
X184801428Y-132825714D02*
X184201428Y-132825714D01*
X184287142Y-132882857D01*
X184344285Y-132940000D01*
X184372857Y-132997142D01*
X184201428Y-132454285D02*
X184201428Y-132054285D01*
X184801428Y-132311428D01*
%TO.C,C4*%
X168737142Y-136546666D02*
X168784761Y-136594285D01*
X168832380Y-136737142D01*
X168832380Y-136832380D01*
X168784761Y-136975238D01*
X168689523Y-137070476D01*
X168594285Y-137118095D01*
X168403809Y-137165714D01*
X168260952Y-137165714D01*
X168070476Y-137118095D01*
X167975238Y-137070476D01*
X167880000Y-136975238D01*
X167832380Y-136832380D01*
X167832380Y-136737142D01*
X167880000Y-136594285D01*
X167927619Y-136546666D01*
X168165714Y-135689523D02*
X168832380Y-135689523D01*
X167784761Y-135927619D02*
X168499047Y-136165714D01*
X168499047Y-135546666D01*
%TO.C,U3*%
X207538095Y-142532380D02*
X207538095Y-143341904D01*
X207585714Y-143437142D01*
X207633333Y-143484761D01*
X207728571Y-143532380D01*
X207919047Y-143532380D01*
X208014285Y-143484761D01*
X208061904Y-143437142D01*
X208109523Y-143341904D01*
X208109523Y-142532380D01*
X208490476Y-142532380D02*
X209109523Y-142532380D01*
X208776190Y-142913333D01*
X208919047Y-142913333D01*
X209014285Y-142960952D01*
X209061904Y-143008571D01*
X209109523Y-143103809D01*
X209109523Y-143341904D01*
X209061904Y-143437142D01*
X209014285Y-143484761D01*
X208919047Y-143532380D01*
X208633333Y-143532380D01*
X208538095Y-143484761D01*
X208490476Y-143437142D01*
%TO.C,C5*%
X169937142Y-145566666D02*
X169984761Y-145614285D01*
X170032380Y-145757142D01*
X170032380Y-145852380D01*
X169984761Y-145995238D01*
X169889523Y-146090476D01*
X169794285Y-146138095D01*
X169603809Y-146185714D01*
X169460952Y-146185714D01*
X169270476Y-146138095D01*
X169175238Y-146090476D01*
X169080000Y-145995238D01*
X169032380Y-145852380D01*
X169032380Y-145757142D01*
X169080000Y-145614285D01*
X169127619Y-145566666D01*
X169032380Y-144661904D02*
X169032380Y-145138095D01*
X169508571Y-145185714D01*
X169460952Y-145138095D01*
X169413333Y-145042857D01*
X169413333Y-144804761D01*
X169460952Y-144709523D01*
X169508571Y-144661904D01*
X169603809Y-144614285D01*
X169841904Y-144614285D01*
X169937142Y-144661904D01*
X169984761Y-144709523D01*
X170032380Y-144804761D01*
X170032380Y-145042857D01*
X169984761Y-145138095D01*
X169937142Y-145185714D01*
%TO.C,TP20*%
X175427142Y-148531428D02*
X175770000Y-148531428D01*
X175598571Y-149131428D02*
X175598571Y-148531428D01*
X175970000Y-149131428D02*
X175970000Y-148531428D01*
X176198571Y-148531428D01*
X176255714Y-148560000D01*
X176284285Y-148588571D01*
X176312857Y-148645714D01*
X176312857Y-148731428D01*
X176284285Y-148788571D01*
X176255714Y-148817142D01*
X176198571Y-148845714D01*
X175970000Y-148845714D01*
X176541428Y-148588571D02*
X176570000Y-148560000D01*
X176627142Y-148531428D01*
X176770000Y-148531428D01*
X176827142Y-148560000D01*
X176855714Y-148588571D01*
X176884285Y-148645714D01*
X176884285Y-148702857D01*
X176855714Y-148788571D01*
X176512857Y-149131428D01*
X176884285Y-149131428D01*
X177255714Y-148531428D02*
X177312857Y-148531428D01*
X177370000Y-148560000D01*
X177398571Y-148588571D01*
X177427142Y-148645714D01*
X177455714Y-148760000D01*
X177455714Y-148902857D01*
X177427142Y-149017142D01*
X177398571Y-149074285D01*
X177370000Y-149102857D01*
X177312857Y-149131428D01*
X177255714Y-149131428D01*
X177198571Y-149102857D01*
X177170000Y-149074285D01*
X177141428Y-149017142D01*
X177112857Y-148902857D01*
X177112857Y-148760000D01*
X177141428Y-148645714D01*
X177170000Y-148588571D01*
X177198571Y-148560000D01*
X177255714Y-148531428D01*
%TO.C,C1*%
X181620000Y-147034285D02*
X181591428Y-147062857D01*
X181505714Y-147091428D01*
X181448571Y-147091428D01*
X181362857Y-147062857D01*
X181305714Y-147005714D01*
X181277142Y-146948571D01*
X181248571Y-146834285D01*
X181248571Y-146748571D01*
X181277142Y-146634285D01*
X181305714Y-146577142D01*
X181362857Y-146520000D01*
X181448571Y-146491428D01*
X181505714Y-146491428D01*
X181591428Y-146520000D01*
X181620000Y-146548571D01*
X182191428Y-147091428D02*
X181848571Y-147091428D01*
X182020000Y-147091428D02*
X182020000Y-146491428D01*
X181962857Y-146577142D01*
X181905714Y-146634285D01*
X181848571Y-146662857D01*
%TO.C,C21*%
X188784285Y-136704285D02*
X188755714Y-136732857D01*
X188670000Y-136761428D01*
X188612857Y-136761428D01*
X188527142Y-136732857D01*
X188470000Y-136675714D01*
X188441428Y-136618571D01*
X188412857Y-136504285D01*
X188412857Y-136418571D01*
X188441428Y-136304285D01*
X188470000Y-136247142D01*
X188527142Y-136190000D01*
X188612857Y-136161428D01*
X188670000Y-136161428D01*
X188755714Y-136190000D01*
X188784285Y-136218571D01*
X189012857Y-136218571D02*
X189041428Y-136190000D01*
X189098571Y-136161428D01*
X189241428Y-136161428D01*
X189298571Y-136190000D01*
X189327142Y-136218571D01*
X189355714Y-136275714D01*
X189355714Y-136332857D01*
X189327142Y-136418571D01*
X188984285Y-136761428D01*
X189355714Y-136761428D01*
X189927142Y-136761428D02*
X189584285Y-136761428D01*
X189755714Y-136761428D02*
X189755714Y-136161428D01*
X189698571Y-136247142D01*
X189641428Y-136304285D01*
X189584285Y-136332857D01*
%TO.C,C3*%
X170057142Y-136516666D02*
X170104761Y-136564285D01*
X170152380Y-136707142D01*
X170152380Y-136802380D01*
X170104761Y-136945238D01*
X170009523Y-137040476D01*
X169914285Y-137088095D01*
X169723809Y-137135714D01*
X169580952Y-137135714D01*
X169390476Y-137088095D01*
X169295238Y-137040476D01*
X169200000Y-136945238D01*
X169152380Y-136802380D01*
X169152380Y-136707142D01*
X169200000Y-136564285D01*
X169247619Y-136516666D01*
X169152380Y-136183333D02*
X169152380Y-135564285D01*
X169533333Y-135897619D01*
X169533333Y-135754761D01*
X169580952Y-135659523D01*
X169628571Y-135611904D01*
X169723809Y-135564285D01*
X169961904Y-135564285D01*
X170057142Y-135611904D01*
X170104761Y-135659523D01*
X170152380Y-135754761D01*
X170152380Y-136040476D01*
X170104761Y-136135714D01*
X170057142Y-136183333D01*
%TO.C,R13*%
X165407142Y-135632380D02*
X165073809Y-135156190D01*
X164835714Y-135632380D02*
X164835714Y-134632380D01*
X165216666Y-134632380D01*
X165311904Y-134680000D01*
X165359523Y-134727619D01*
X165407142Y-134822857D01*
X165407142Y-134965714D01*
X165359523Y-135060952D01*
X165311904Y-135108571D01*
X165216666Y-135156190D01*
X164835714Y-135156190D01*
X166359523Y-135632380D02*
X165788095Y-135632380D01*
X166073809Y-135632380D02*
X166073809Y-134632380D01*
X165978571Y-134775238D01*
X165883333Y-134870476D01*
X165788095Y-134918095D01*
X166692857Y-134632380D02*
X167311904Y-134632380D01*
X166978571Y-135013333D01*
X167121428Y-135013333D01*
X167216666Y-135060952D01*
X167264285Y-135108571D01*
X167311904Y-135203809D01*
X167311904Y-135441904D01*
X167264285Y-135537142D01*
X167216666Y-135584761D01*
X167121428Y-135632380D01*
X166835714Y-135632380D01*
X166740476Y-135584761D01*
X166692857Y-135537142D01*
%TO.C,TP4*%
X164440476Y-138641904D02*
X164897619Y-138641904D01*
X164669047Y-139441904D02*
X164669047Y-138641904D01*
X165164285Y-139441904D02*
X165164285Y-138641904D01*
X165469047Y-138641904D01*
X165545238Y-138680000D01*
X165583333Y-138718095D01*
X165621428Y-138794285D01*
X165621428Y-138908571D01*
X165583333Y-138984761D01*
X165545238Y-139022857D01*
X165469047Y-139060952D01*
X165164285Y-139060952D01*
X166307142Y-138908571D02*
X166307142Y-139441904D01*
X166116666Y-138603809D02*
X165926190Y-139175238D01*
X166421428Y-139175238D01*
%TO.C,C24*%
X198624285Y-139044285D02*
X198595714Y-139072857D01*
X198510000Y-139101428D01*
X198452857Y-139101428D01*
X198367142Y-139072857D01*
X198310000Y-139015714D01*
X198281428Y-138958571D01*
X198252857Y-138844285D01*
X198252857Y-138758571D01*
X198281428Y-138644285D01*
X198310000Y-138587142D01*
X198367142Y-138530000D01*
X198452857Y-138501428D01*
X198510000Y-138501428D01*
X198595714Y-138530000D01*
X198624285Y-138558571D01*
X198852857Y-138558571D02*
X198881428Y-138530000D01*
X198938571Y-138501428D01*
X199081428Y-138501428D01*
X199138571Y-138530000D01*
X199167142Y-138558571D01*
X199195714Y-138615714D01*
X199195714Y-138672857D01*
X199167142Y-138758571D01*
X198824285Y-139101428D01*
X199195714Y-139101428D01*
X199710000Y-138701428D02*
X199710000Y-139101428D01*
X199567142Y-138472857D02*
X199424285Y-138901428D01*
X199795714Y-138901428D01*
%TO.C,TP13*%
X141031428Y-147372857D02*
X141031428Y-147030000D01*
X141631428Y-147201428D02*
X141031428Y-147201428D01*
X141631428Y-146830000D02*
X141031428Y-146830000D01*
X141031428Y-146601428D01*
X141060000Y-146544285D01*
X141088571Y-146515714D01*
X141145714Y-146487142D01*
X141231428Y-146487142D01*
X141288571Y-146515714D01*
X141317142Y-146544285D01*
X141345714Y-146601428D01*
X141345714Y-146830000D01*
X141631428Y-145915714D02*
X141631428Y-146258571D01*
X141631428Y-146087142D02*
X141031428Y-146087142D01*
X141117142Y-146144285D01*
X141174285Y-146201428D01*
X141202857Y-146258571D01*
X141031428Y-145715714D02*
X141031428Y-145344285D01*
X141260000Y-145544285D01*
X141260000Y-145458571D01*
X141288571Y-145401428D01*
X141317142Y-145372857D01*
X141374285Y-145344285D01*
X141517142Y-145344285D01*
X141574285Y-145372857D01*
X141602857Y-145401428D01*
X141631428Y-145458571D01*
X141631428Y-145630000D01*
X141602857Y-145687142D01*
X141574285Y-145715714D01*
%TO.C,C47*%
X188784285Y-135235714D02*
X188812857Y-135264285D01*
X188841428Y-135350000D01*
X188841428Y-135407142D01*
X188812857Y-135492857D01*
X188755714Y-135550000D01*
X188698571Y-135578571D01*
X188584285Y-135607142D01*
X188498571Y-135607142D01*
X188384285Y-135578571D01*
X188327142Y-135550000D01*
X188270000Y-135492857D01*
X188241428Y-135407142D01*
X188241428Y-135350000D01*
X188270000Y-135264285D01*
X188298571Y-135235714D01*
X188441428Y-134721428D02*
X188841428Y-134721428D01*
X188212857Y-134864285D02*
X188641428Y-135007142D01*
X188641428Y-134635714D01*
X188241428Y-134464285D02*
X188241428Y-134064285D01*
X188841428Y-134321428D01*
%TO.C,C22*%
X192704285Y-142125714D02*
X192732857Y-142154285D01*
X192761428Y-142240000D01*
X192761428Y-142297142D01*
X192732857Y-142382857D01*
X192675714Y-142440000D01*
X192618571Y-142468571D01*
X192504285Y-142497142D01*
X192418571Y-142497142D01*
X192304285Y-142468571D01*
X192247142Y-142440000D01*
X192190000Y-142382857D01*
X192161428Y-142297142D01*
X192161428Y-142240000D01*
X192190000Y-142154285D01*
X192218571Y-142125714D01*
X192218571Y-141897142D02*
X192190000Y-141868571D01*
X192161428Y-141811428D01*
X192161428Y-141668571D01*
X192190000Y-141611428D01*
X192218571Y-141582857D01*
X192275714Y-141554285D01*
X192332857Y-141554285D01*
X192418571Y-141582857D01*
X192761428Y-141925714D01*
X192761428Y-141554285D01*
X192218571Y-141325714D02*
X192190000Y-141297142D01*
X192161428Y-141240000D01*
X192161428Y-141097142D01*
X192190000Y-141040000D01*
X192218571Y-141011428D01*
X192275714Y-140982857D01*
X192332857Y-140982857D01*
X192418571Y-141011428D01*
X192761428Y-141354285D01*
X192761428Y-140982857D01*
%TO.C,C42*%
X144244285Y-141624285D02*
X144215714Y-141652857D01*
X144130000Y-141681428D01*
X144072857Y-141681428D01*
X143987142Y-141652857D01*
X143930000Y-141595714D01*
X143901428Y-141538571D01*
X143872857Y-141424285D01*
X143872857Y-141338571D01*
X143901428Y-141224285D01*
X143930000Y-141167142D01*
X143987142Y-141110000D01*
X144072857Y-141081428D01*
X144130000Y-141081428D01*
X144215714Y-141110000D01*
X144244285Y-141138571D01*
X144758571Y-141281428D02*
X144758571Y-141681428D01*
X144615714Y-141052857D02*
X144472857Y-141481428D01*
X144844285Y-141481428D01*
X145044285Y-141138571D02*
X145072857Y-141110000D01*
X145130000Y-141081428D01*
X145272857Y-141081428D01*
X145330000Y-141110000D01*
X145358571Y-141138571D01*
X145387142Y-141195714D01*
X145387142Y-141252857D01*
X145358571Y-141338571D01*
X145015714Y-141681428D01*
X145387142Y-141681428D01*
%TO.C,JP3*%
X189730000Y-149081428D02*
X189730000Y-149510000D01*
X189701428Y-149595714D01*
X189644285Y-149652857D01*
X189558571Y-149681428D01*
X189501428Y-149681428D01*
X190015714Y-149681428D02*
X190015714Y-149081428D01*
X190244285Y-149081428D01*
X190301428Y-149110000D01*
X190330000Y-149138571D01*
X190358571Y-149195714D01*
X190358571Y-149281428D01*
X190330000Y-149338571D01*
X190301428Y-149367142D01*
X190244285Y-149395714D01*
X190015714Y-149395714D01*
X190558571Y-149081428D02*
X190930000Y-149081428D01*
X190730000Y-149310000D01*
X190815714Y-149310000D01*
X190872857Y-149338571D01*
X190901428Y-149367142D01*
X190930000Y-149424285D01*
X190930000Y-149567142D01*
X190901428Y-149624285D01*
X190872857Y-149652857D01*
X190815714Y-149681428D01*
X190644285Y-149681428D01*
X190587142Y-149652857D01*
X190558571Y-149624285D01*
%TO.C,C31*%
X195647142Y-145357142D02*
X195599523Y-145404761D01*
X195456666Y-145452380D01*
X195361428Y-145452380D01*
X195218571Y-145404761D01*
X195123333Y-145309523D01*
X195075714Y-145214285D01*
X195028095Y-145023809D01*
X195028095Y-144880952D01*
X195075714Y-144690476D01*
X195123333Y-144595238D01*
X195218571Y-144500000D01*
X195361428Y-144452380D01*
X195456666Y-144452380D01*
X195599523Y-144500000D01*
X195647142Y-144547619D01*
X195980476Y-144452380D02*
X196599523Y-144452380D01*
X196266190Y-144833333D01*
X196409047Y-144833333D01*
X196504285Y-144880952D01*
X196551904Y-144928571D01*
X196599523Y-145023809D01*
X196599523Y-145261904D01*
X196551904Y-145357142D01*
X196504285Y-145404761D01*
X196409047Y-145452380D01*
X196123333Y-145452380D01*
X196028095Y-145404761D01*
X195980476Y-145357142D01*
X197551904Y-145452380D02*
X196980476Y-145452380D01*
X197266190Y-145452380D02*
X197266190Y-144452380D01*
X197170952Y-144595238D01*
X197075714Y-144690476D01*
X196980476Y-144738095D01*
%TO.C,C25*%
X206312142Y-144827857D02*
X206359761Y-144875476D01*
X206407380Y-145018333D01*
X206407380Y-145113571D01*
X206359761Y-145256428D01*
X206264523Y-145351666D01*
X206169285Y-145399285D01*
X205978809Y-145446904D01*
X205835952Y-145446904D01*
X205645476Y-145399285D01*
X205550238Y-145351666D01*
X205455000Y-145256428D01*
X205407380Y-145113571D01*
X205407380Y-145018333D01*
X205455000Y-144875476D01*
X205502619Y-144827857D01*
X205502619Y-144446904D02*
X205455000Y-144399285D01*
X205407380Y-144304047D01*
X205407380Y-144065952D01*
X205455000Y-143970714D01*
X205502619Y-143923095D01*
X205597857Y-143875476D01*
X205693095Y-143875476D01*
X205835952Y-143923095D01*
X206407380Y-144494523D01*
X206407380Y-143875476D01*
X205407380Y-142970714D02*
X205407380Y-143446904D01*
X205883571Y-143494523D01*
X205835952Y-143446904D01*
X205788333Y-143351666D01*
X205788333Y-143113571D01*
X205835952Y-143018333D01*
X205883571Y-142970714D01*
X205978809Y-142923095D01*
X206216904Y-142923095D01*
X206312142Y-142970714D01*
X206359761Y-143018333D01*
X206407380Y-143113571D01*
X206407380Y-143351666D01*
X206359761Y-143446904D01*
X206312142Y-143494523D01*
%TO.C,R14*%
X140831428Y-134775714D02*
X140545714Y-134975714D01*
X140831428Y-135118571D02*
X140231428Y-135118571D01*
X140231428Y-134890000D01*
X140260000Y-134832857D01*
X140288571Y-134804285D01*
X140345714Y-134775714D01*
X140431428Y-134775714D01*
X140488571Y-134804285D01*
X140517142Y-134832857D01*
X140545714Y-134890000D01*
X140545714Y-135118571D01*
X140831428Y-134204285D02*
X140831428Y-134547142D01*
X140831428Y-134375714D02*
X140231428Y-134375714D01*
X140317142Y-134432857D01*
X140374285Y-134490000D01*
X140402857Y-134547142D01*
X140431428Y-133690000D02*
X140831428Y-133690000D01*
X140202857Y-133832857D02*
X140631428Y-133975714D01*
X140631428Y-133604285D01*
%TO.C,C39*%
X135404285Y-132604285D02*
X135375714Y-132632857D01*
X135290000Y-132661428D01*
X135232857Y-132661428D01*
X135147142Y-132632857D01*
X135090000Y-132575714D01*
X135061428Y-132518571D01*
X135032857Y-132404285D01*
X135032857Y-132318571D01*
X135061428Y-132204285D01*
X135090000Y-132147142D01*
X135147142Y-132090000D01*
X135232857Y-132061428D01*
X135290000Y-132061428D01*
X135375714Y-132090000D01*
X135404285Y-132118571D01*
X135604285Y-132061428D02*
X135975714Y-132061428D01*
X135775714Y-132290000D01*
X135861428Y-132290000D01*
X135918571Y-132318571D01*
X135947142Y-132347142D01*
X135975714Y-132404285D01*
X135975714Y-132547142D01*
X135947142Y-132604285D01*
X135918571Y-132632857D01*
X135861428Y-132661428D01*
X135690000Y-132661428D01*
X135632857Y-132632857D01*
X135604285Y-132604285D01*
X136261428Y-132661428D02*
X136375714Y-132661428D01*
X136432857Y-132632857D01*
X136461428Y-132604285D01*
X136518571Y-132518571D01*
X136547142Y-132404285D01*
X136547142Y-132175714D01*
X136518571Y-132118571D01*
X136490000Y-132090000D01*
X136432857Y-132061428D01*
X136318571Y-132061428D01*
X136261428Y-132090000D01*
X136232857Y-132118571D01*
X136204285Y-132175714D01*
X136204285Y-132318571D01*
X136232857Y-132375714D01*
X136261428Y-132404285D01*
X136318571Y-132432857D01*
X136432857Y-132432857D01*
X136490000Y-132404285D01*
X136518571Y-132375714D01*
X136547142Y-132318571D01*
%TO.C,C33*%
X213390714Y-143064285D02*
X213428809Y-143102380D01*
X213466904Y-143216666D01*
X213466904Y-143292857D01*
X213428809Y-143407142D01*
X213352619Y-143483333D01*
X213276428Y-143521428D01*
X213124047Y-143559523D01*
X213009761Y-143559523D01*
X212857380Y-143521428D01*
X212781190Y-143483333D01*
X212705000Y-143407142D01*
X212666904Y-143292857D01*
X212666904Y-143216666D01*
X212705000Y-143102380D01*
X212743095Y-143064285D01*
X212666904Y-142797619D02*
X212666904Y-142302380D01*
X212971666Y-142569047D01*
X212971666Y-142454761D01*
X213009761Y-142378571D01*
X213047857Y-142340476D01*
X213124047Y-142302380D01*
X213314523Y-142302380D01*
X213390714Y-142340476D01*
X213428809Y-142378571D01*
X213466904Y-142454761D01*
X213466904Y-142683333D01*
X213428809Y-142759523D01*
X213390714Y-142797619D01*
X212666904Y-142035714D02*
X212666904Y-141540476D01*
X212971666Y-141807142D01*
X212971666Y-141692857D01*
X213009761Y-141616666D01*
X213047857Y-141578571D01*
X213124047Y-141540476D01*
X213314523Y-141540476D01*
X213390714Y-141578571D01*
X213428809Y-141616666D01*
X213466904Y-141692857D01*
X213466904Y-141921428D01*
X213428809Y-141997619D01*
X213390714Y-142035714D01*
%TO.C,U1*%
X174361428Y-142697142D02*
X174847142Y-142697142D01*
X174904285Y-142668571D01*
X174932857Y-142640000D01*
X174961428Y-142582857D01*
X174961428Y-142468571D01*
X174932857Y-142411428D01*
X174904285Y-142382857D01*
X174847142Y-142354285D01*
X174361428Y-142354285D01*
X174961428Y-141754285D02*
X174961428Y-142097142D01*
X174961428Y-141925714D02*
X174361428Y-141925714D01*
X174447142Y-141982857D01*
X174504285Y-142040000D01*
X174532857Y-142097142D01*
%TO.C,TP5*%
X160010476Y-146271904D02*
X160467619Y-146271904D01*
X160239047Y-147071904D02*
X160239047Y-146271904D01*
X160734285Y-147071904D02*
X160734285Y-146271904D01*
X161039047Y-146271904D01*
X161115238Y-146310000D01*
X161153333Y-146348095D01*
X161191428Y-146424285D01*
X161191428Y-146538571D01*
X161153333Y-146614761D01*
X161115238Y-146652857D01*
X161039047Y-146690952D01*
X160734285Y-146690952D01*
X161915238Y-146271904D02*
X161534285Y-146271904D01*
X161496190Y-146652857D01*
X161534285Y-146614761D01*
X161610476Y-146576666D01*
X161800952Y-146576666D01*
X161877142Y-146614761D01*
X161915238Y-146652857D01*
X161953333Y-146729047D01*
X161953333Y-146919523D01*
X161915238Y-146995714D01*
X161877142Y-147033809D01*
X161800952Y-147071904D01*
X161610476Y-147071904D01*
X161534285Y-147033809D01*
X161496190Y-146995714D01*
%TO.C,TP8*%
X166862380Y-144621904D02*
X166862380Y-144050476D01*
X167862380Y-144336190D02*
X166862380Y-144336190D01*
X167862380Y-143717142D02*
X166862380Y-143717142D01*
X166862380Y-143336190D01*
X166910000Y-143240952D01*
X166957619Y-143193333D01*
X167052857Y-143145714D01*
X167195714Y-143145714D01*
X167290952Y-143193333D01*
X167338571Y-143240952D01*
X167386190Y-143336190D01*
X167386190Y-143717142D01*
X167290952Y-142574285D02*
X167243333Y-142669523D01*
X167195714Y-142717142D01*
X167100476Y-142764761D01*
X167052857Y-142764761D01*
X166957619Y-142717142D01*
X166910000Y-142669523D01*
X166862380Y-142574285D01*
X166862380Y-142383809D01*
X166910000Y-142288571D01*
X166957619Y-142240952D01*
X167052857Y-142193333D01*
X167100476Y-142193333D01*
X167195714Y-142240952D01*
X167243333Y-142288571D01*
X167290952Y-142383809D01*
X167290952Y-142574285D01*
X167338571Y-142669523D01*
X167386190Y-142717142D01*
X167481428Y-142764761D01*
X167671904Y-142764761D01*
X167767142Y-142717142D01*
X167814761Y-142669523D01*
X167862380Y-142574285D01*
X167862380Y-142383809D01*
X167814761Y-142288571D01*
X167767142Y-142240952D01*
X167671904Y-142193333D01*
X167481428Y-142193333D01*
X167386190Y-142240952D01*
X167338571Y-142288571D01*
X167290952Y-142383809D01*
%TO.C,TP21*%
X165029523Y-145511904D02*
X165486666Y-145511904D01*
X165258095Y-146311904D02*
X165258095Y-145511904D01*
X165753333Y-146311904D02*
X165753333Y-145511904D01*
X166058095Y-145511904D01*
X166134285Y-145550000D01*
X166172380Y-145588095D01*
X166210476Y-145664285D01*
X166210476Y-145778571D01*
X166172380Y-145854761D01*
X166134285Y-145892857D01*
X166058095Y-145930952D01*
X165753333Y-145930952D01*
X166515238Y-145588095D02*
X166553333Y-145550000D01*
X166629523Y-145511904D01*
X166820000Y-145511904D01*
X166896190Y-145550000D01*
X166934285Y-145588095D01*
X166972380Y-145664285D01*
X166972380Y-145740476D01*
X166934285Y-145854761D01*
X166477142Y-146311904D01*
X166972380Y-146311904D01*
X167734285Y-146311904D02*
X167277142Y-146311904D01*
X167505714Y-146311904D02*
X167505714Y-145511904D01*
X167429523Y-145626190D01*
X167353333Y-145702380D01*
X167277142Y-145740476D01*
%TO.C,C7*%
X167897142Y-138756666D02*
X167944761Y-138804285D01*
X167992380Y-138947142D01*
X167992380Y-139042380D01*
X167944761Y-139185238D01*
X167849523Y-139280476D01*
X167754285Y-139328095D01*
X167563809Y-139375714D01*
X167420952Y-139375714D01*
X167230476Y-139328095D01*
X167135238Y-139280476D01*
X167040000Y-139185238D01*
X166992380Y-139042380D01*
X166992380Y-138947142D01*
X167040000Y-138804285D01*
X167087619Y-138756666D01*
X166992380Y-138423333D02*
X166992380Y-137756666D01*
X167992380Y-138185238D01*
%TO.C,C29*%
X194057142Y-147217142D02*
X194009523Y-147264761D01*
X193866666Y-147312380D01*
X193771428Y-147312380D01*
X193628571Y-147264761D01*
X193533333Y-147169523D01*
X193485714Y-147074285D01*
X193438095Y-146883809D01*
X193438095Y-146740952D01*
X193485714Y-146550476D01*
X193533333Y-146455238D01*
X193628571Y-146360000D01*
X193771428Y-146312380D01*
X193866666Y-146312380D01*
X194009523Y-146360000D01*
X194057142Y-146407619D01*
X194438095Y-146407619D02*
X194485714Y-146360000D01*
X194580952Y-146312380D01*
X194819047Y-146312380D01*
X194914285Y-146360000D01*
X194961904Y-146407619D01*
X195009523Y-146502857D01*
X195009523Y-146598095D01*
X194961904Y-146740952D01*
X194390476Y-147312380D01*
X195009523Y-147312380D01*
X195485714Y-147312380D02*
X195676190Y-147312380D01*
X195771428Y-147264761D01*
X195819047Y-147217142D01*
X195914285Y-147074285D01*
X195961904Y-146883809D01*
X195961904Y-146502857D01*
X195914285Y-146407619D01*
X195866666Y-146360000D01*
X195771428Y-146312380D01*
X195580952Y-146312380D01*
X195485714Y-146360000D01*
X195438095Y-146407619D01*
X195390476Y-146502857D01*
X195390476Y-146740952D01*
X195438095Y-146836190D01*
X195485714Y-146883809D01*
X195580952Y-146931428D01*
X195771428Y-146931428D01*
X195866666Y-146883809D01*
X195914285Y-146836190D01*
X195961904Y-146740952D01*
%TO.C,C30*%
X196359285Y-143019285D02*
X196330714Y-143047857D01*
X196245000Y-143076428D01*
X196187857Y-143076428D01*
X196102142Y-143047857D01*
X196045000Y-142990714D01*
X196016428Y-142933571D01*
X195987857Y-142819285D01*
X195987857Y-142733571D01*
X196016428Y-142619285D01*
X196045000Y-142562142D01*
X196102142Y-142505000D01*
X196187857Y-142476428D01*
X196245000Y-142476428D01*
X196330714Y-142505000D01*
X196359285Y-142533571D01*
X196559285Y-142476428D02*
X196930714Y-142476428D01*
X196730714Y-142705000D01*
X196816428Y-142705000D01*
X196873571Y-142733571D01*
X196902142Y-142762142D01*
X196930714Y-142819285D01*
X196930714Y-142962142D01*
X196902142Y-143019285D01*
X196873571Y-143047857D01*
X196816428Y-143076428D01*
X196645000Y-143076428D01*
X196587857Y-143047857D01*
X196559285Y-143019285D01*
X197302142Y-142476428D02*
X197359285Y-142476428D01*
X197416428Y-142505000D01*
X197445000Y-142533571D01*
X197473571Y-142590714D01*
X197502142Y-142705000D01*
X197502142Y-142847857D01*
X197473571Y-142962142D01*
X197445000Y-143019285D01*
X197416428Y-143047857D01*
X197359285Y-143076428D01*
X197302142Y-143076428D01*
X197245000Y-143047857D01*
X197216428Y-143019285D01*
X197187857Y-142962142D01*
X197159285Y-142847857D01*
X197159285Y-142705000D01*
X197187857Y-142590714D01*
X197216428Y-142533571D01*
X197245000Y-142505000D01*
X197302142Y-142476428D01*
%TO.C,C10*%
X168618931Y-149640714D02*
X168580836Y-149678809D01*
X168466550Y-149716904D01*
X168390359Y-149716904D01*
X168276074Y-149678809D01*
X168199883Y-149602619D01*
X168161788Y-149526428D01*
X168123693Y-149374047D01*
X168123693Y-149259761D01*
X168161788Y-149107380D01*
X168199883Y-149031190D01*
X168276074Y-148955000D01*
X168390359Y-148916904D01*
X168466550Y-148916904D01*
X168580836Y-148955000D01*
X168618931Y-148993095D01*
X169380836Y-149716904D02*
X168923693Y-149716904D01*
X169152264Y-149716904D02*
X169152264Y-148916904D01*
X169076074Y-149031190D01*
X168999883Y-149107380D01*
X168923693Y-149145476D01*
X169876074Y-148916904D02*
X169952264Y-148916904D01*
X170028455Y-148955000D01*
X170066550Y-148993095D01*
X170104645Y-149069285D01*
X170142740Y-149221666D01*
X170142740Y-149412142D01*
X170104645Y-149564523D01*
X170066550Y-149640714D01*
X170028455Y-149678809D01*
X169952264Y-149716904D01*
X169876074Y-149716904D01*
X169799883Y-149678809D01*
X169761788Y-149640714D01*
X169723693Y-149564523D01*
X169685597Y-149412142D01*
X169685597Y-149221666D01*
X169723693Y-149069285D01*
X169761788Y-148993095D01*
X169799883Y-148955000D01*
X169876074Y-148916904D01*
D12*
%TO.C,U8*%
X156715238Y-132030952D02*
X156715238Y-132354761D01*
X156734285Y-132392857D01*
X156753333Y-132411904D01*
X156791428Y-132430952D01*
X156867619Y-132430952D01*
X156905714Y-132411904D01*
X156924761Y-132392857D01*
X156943809Y-132354761D01*
X156943809Y-132030952D01*
X157191428Y-132202380D02*
X157153333Y-132183333D01*
X157134285Y-132164285D01*
X157115238Y-132126190D01*
X157115238Y-132107142D01*
X157134285Y-132069047D01*
X157153333Y-132050000D01*
X157191428Y-132030952D01*
X157267619Y-132030952D01*
X157305714Y-132050000D01*
X157324761Y-132069047D01*
X157343809Y-132107142D01*
X157343809Y-132126190D01*
X157324761Y-132164285D01*
X157305714Y-132183333D01*
X157267619Y-132202380D01*
X157191428Y-132202380D01*
X157153333Y-132221428D01*
X157134285Y-132240476D01*
X157115238Y-132278571D01*
X157115238Y-132354761D01*
X157134285Y-132392857D01*
X157153333Y-132411904D01*
X157191428Y-132430952D01*
X157267619Y-132430952D01*
X157305714Y-132411904D01*
X157324761Y-132392857D01*
X157343809Y-132354761D01*
X157343809Y-132278571D01*
X157324761Y-132240476D01*
X157305714Y-132221428D01*
X157267619Y-132202380D01*
D10*
%TO.C,JP2*%
X191780000Y-149121428D02*
X191780000Y-149550000D01*
X191751428Y-149635714D01*
X191694285Y-149692857D01*
X191608571Y-149721428D01*
X191551428Y-149721428D01*
X192065714Y-149721428D02*
X192065714Y-149121428D01*
X192294285Y-149121428D01*
X192351428Y-149150000D01*
X192380000Y-149178571D01*
X192408571Y-149235714D01*
X192408571Y-149321428D01*
X192380000Y-149378571D01*
X192351428Y-149407142D01*
X192294285Y-149435714D01*
X192065714Y-149435714D01*
X192637142Y-149178571D02*
X192665714Y-149150000D01*
X192722857Y-149121428D01*
X192865714Y-149121428D01*
X192922857Y-149150000D01*
X192951428Y-149178571D01*
X192980000Y-149235714D01*
X192980000Y-149292857D01*
X192951428Y-149378571D01*
X192608571Y-149721428D01*
X192980000Y-149721428D01*
%TO.C,C19*%
X186024285Y-132674285D02*
X185995714Y-132702857D01*
X185910000Y-132731428D01*
X185852857Y-132731428D01*
X185767142Y-132702857D01*
X185710000Y-132645714D01*
X185681428Y-132588571D01*
X185652857Y-132474285D01*
X185652857Y-132388571D01*
X185681428Y-132274285D01*
X185710000Y-132217142D01*
X185767142Y-132160000D01*
X185852857Y-132131428D01*
X185910000Y-132131428D01*
X185995714Y-132160000D01*
X186024285Y-132188571D01*
X186595714Y-132731428D02*
X186252857Y-132731428D01*
X186424285Y-132731428D02*
X186424285Y-132131428D01*
X186367142Y-132217142D01*
X186310000Y-132274285D01*
X186252857Y-132302857D01*
X186881428Y-132731428D02*
X186995714Y-132731428D01*
X187052857Y-132702857D01*
X187081428Y-132674285D01*
X187138571Y-132588571D01*
X187167142Y-132474285D01*
X187167142Y-132245714D01*
X187138571Y-132188571D01*
X187110000Y-132160000D01*
X187052857Y-132131428D01*
X186938571Y-132131428D01*
X186881428Y-132160000D01*
X186852857Y-132188571D01*
X186824285Y-132245714D01*
X186824285Y-132388571D01*
X186852857Y-132445714D01*
X186881428Y-132474285D01*
X186938571Y-132502857D01*
X187052857Y-132502857D01*
X187110000Y-132474285D01*
X187138571Y-132445714D01*
X187167142Y-132388571D01*
D12*
%TO.C,C23*%
X192954285Y-137429285D02*
X192925714Y-137457857D01*
X192840000Y-137486428D01*
X192782857Y-137486428D01*
X192697142Y-137457857D01*
X192640000Y-137400714D01*
X192611428Y-137343571D01*
X192582857Y-137229285D01*
X192582857Y-137143571D01*
X192611428Y-137029285D01*
X192640000Y-136972142D01*
X192697142Y-136915000D01*
X192782857Y-136886428D01*
X192840000Y-136886428D01*
X192925714Y-136915000D01*
X192954285Y-136943571D01*
X193182857Y-136943571D02*
X193211428Y-136915000D01*
X193268571Y-136886428D01*
X193411428Y-136886428D01*
X193468571Y-136915000D01*
X193497142Y-136943571D01*
X193525714Y-137000714D01*
X193525714Y-137057857D01*
X193497142Y-137143571D01*
X193154285Y-137486428D01*
X193525714Y-137486428D01*
X193725714Y-136886428D02*
X194097142Y-136886428D01*
X193897142Y-137115000D01*
X193982857Y-137115000D01*
X194040000Y-137143571D01*
X194068571Y-137172142D01*
X194097142Y-137229285D01*
X194097142Y-137372142D01*
X194068571Y-137429285D01*
X194040000Y-137457857D01*
X193982857Y-137486428D01*
X193811428Y-137486428D01*
X193754285Y-137457857D01*
X193725714Y-137429285D01*
D10*
%TO.C,L6*%
X186492380Y-144016666D02*
X186492380Y-144492857D01*
X185492380Y-144492857D01*
X185492380Y-143254761D02*
X185492380Y-143445238D01*
X185540000Y-143540476D01*
X185587619Y-143588095D01*
X185730476Y-143683333D01*
X185920952Y-143730952D01*
X186301904Y-143730952D01*
X186397142Y-143683333D01*
X186444761Y-143635714D01*
X186492380Y-143540476D01*
X186492380Y-143350000D01*
X186444761Y-143254761D01*
X186397142Y-143207142D01*
X186301904Y-143159523D01*
X186063809Y-143159523D01*
X185968571Y-143207142D01*
X185920952Y-143254761D01*
X185873333Y-143350000D01*
X185873333Y-143540476D01*
X185920952Y-143635714D01*
X185968571Y-143683333D01*
X186063809Y-143730952D01*
%TO.C,C41*%
X143907142Y-132877142D02*
X143859523Y-132924761D01*
X143716666Y-132972380D01*
X143621428Y-132972380D01*
X143478571Y-132924761D01*
X143383333Y-132829523D01*
X143335714Y-132734285D01*
X143288095Y-132543809D01*
X143288095Y-132400952D01*
X143335714Y-132210476D01*
X143383333Y-132115238D01*
X143478571Y-132020000D01*
X143621428Y-131972380D01*
X143716666Y-131972380D01*
X143859523Y-132020000D01*
X143907142Y-132067619D01*
X144764285Y-132305714D02*
X144764285Y-132972380D01*
X144526190Y-131924761D02*
X144288095Y-132639047D01*
X144907142Y-132639047D01*
X145811904Y-132972380D02*
X145240476Y-132972380D01*
X145526190Y-132972380D02*
X145526190Y-131972380D01*
X145430952Y-132115238D01*
X145335714Y-132210476D01*
X145240476Y-132258095D01*
%TO.C,JP1*%
X171841428Y-133310000D02*
X172270000Y-133310000D01*
X172355714Y-133338571D01*
X172412857Y-133395714D01*
X172441428Y-133481428D01*
X172441428Y-133538571D01*
X172441428Y-133024285D02*
X171841428Y-133024285D01*
X171841428Y-132795714D01*
X171870000Y-132738571D01*
X171898571Y-132710000D01*
X171955714Y-132681428D01*
X172041428Y-132681428D01*
X172098571Y-132710000D01*
X172127142Y-132738571D01*
X172155714Y-132795714D01*
X172155714Y-133024285D01*
X172441428Y-132110000D02*
X172441428Y-132452857D01*
X172441428Y-132281428D02*
X171841428Y-132281428D01*
X171927142Y-132338571D01*
X171984285Y-132395714D01*
X172012857Y-132452857D01*
%TO.C,TP3*%
X172232857Y-141761428D02*
X172575714Y-141761428D01*
X172404285Y-142361428D02*
X172404285Y-141761428D01*
X172775714Y-142361428D02*
X172775714Y-141761428D01*
X173004285Y-141761428D01*
X173061428Y-141790000D01*
X173090000Y-141818571D01*
X173118571Y-141875714D01*
X173118571Y-141961428D01*
X173090000Y-142018571D01*
X173061428Y-142047142D01*
X173004285Y-142075714D01*
X172775714Y-142075714D01*
X173318571Y-141761428D02*
X173690000Y-141761428D01*
X173490000Y-141990000D01*
X173575714Y-141990000D01*
X173632857Y-142018571D01*
X173661428Y-142047142D01*
X173690000Y-142104285D01*
X173690000Y-142247142D01*
X173661428Y-142304285D01*
X173632857Y-142332857D01*
X173575714Y-142361428D01*
X173404285Y-142361428D01*
X173347142Y-142332857D01*
X173318571Y-142304285D01*
%TO.C,U7*%
X145612857Y-144501428D02*
X145612857Y-144987142D01*
X145641428Y-145044285D01*
X145670000Y-145072857D01*
X145727142Y-145101428D01*
X145841428Y-145101428D01*
X145898571Y-145072857D01*
X145927142Y-145044285D01*
X145955714Y-144987142D01*
X145955714Y-144501428D01*
X146184285Y-144501428D02*
X146584285Y-144501428D01*
X146327142Y-145101428D01*
%TO.C,L5*%
X202460000Y-139001428D02*
X202174285Y-139001428D01*
X202174285Y-138401428D01*
X202945714Y-138401428D02*
X202660000Y-138401428D01*
X202631428Y-138687142D01*
X202660000Y-138658571D01*
X202717142Y-138630000D01*
X202860000Y-138630000D01*
X202917142Y-138658571D01*
X202945714Y-138687142D01*
X202974285Y-138744285D01*
X202974285Y-138887142D01*
X202945714Y-138944285D01*
X202917142Y-138972857D01*
X202860000Y-139001428D01*
X202717142Y-139001428D01*
X202660000Y-138972857D01*
X202631428Y-138944285D01*
%TO.C,C6*%
X172484285Y-140540000D02*
X172512857Y-140568571D01*
X172541428Y-140654285D01*
X172541428Y-140711428D01*
X172512857Y-140797142D01*
X172455714Y-140854285D01*
X172398571Y-140882857D01*
X172284285Y-140911428D01*
X172198571Y-140911428D01*
X172084285Y-140882857D01*
X172027142Y-140854285D01*
X171970000Y-140797142D01*
X171941428Y-140711428D01*
X171941428Y-140654285D01*
X171970000Y-140568571D01*
X171998571Y-140540000D01*
X171941428Y-140025714D02*
X171941428Y-140140000D01*
X171970000Y-140197142D01*
X171998571Y-140225714D01*
X172084285Y-140282857D01*
X172198571Y-140311428D01*
X172427142Y-140311428D01*
X172484285Y-140282857D01*
X172512857Y-140254285D01*
X172541428Y-140197142D01*
X172541428Y-140082857D01*
X172512857Y-140025714D01*
X172484285Y-139997142D01*
X172427142Y-139968571D01*
X172284285Y-139968571D01*
X172227142Y-139997142D01*
X172198571Y-140025714D01*
X172170000Y-140082857D01*
X172170000Y-140197142D01*
X172198571Y-140254285D01*
X172227142Y-140282857D01*
X172284285Y-140311428D01*
%TO.C,L4*%
X195963333Y-139012380D02*
X195487142Y-139012380D01*
X195487142Y-138012380D01*
X196725238Y-138345714D02*
X196725238Y-139012380D01*
X196487142Y-137964761D02*
X196249047Y-138679047D01*
X196868095Y-138679047D01*
%TO.C,D4*%
X129702380Y-146638095D02*
X128702380Y-146638095D01*
X128702380Y-146400000D01*
X128750000Y-146257142D01*
X128845238Y-146161904D01*
X128940476Y-146114285D01*
X129130952Y-146066666D01*
X129273809Y-146066666D01*
X129464285Y-146114285D01*
X129559523Y-146161904D01*
X129654761Y-146257142D01*
X129702380Y-146400000D01*
X129702380Y-146638095D01*
X129035714Y-145209523D02*
X129702380Y-145209523D01*
X128654761Y-145447619D02*
X129369047Y-145685714D01*
X129369047Y-145066666D01*
%TO.C,C44*%
X141677142Y-148917142D02*
X141629523Y-148964761D01*
X141486666Y-149012380D01*
X141391428Y-149012380D01*
X141248571Y-148964761D01*
X141153333Y-148869523D01*
X141105714Y-148774285D01*
X141058095Y-148583809D01*
X141058095Y-148440952D01*
X141105714Y-148250476D01*
X141153333Y-148155238D01*
X141248571Y-148060000D01*
X141391428Y-148012380D01*
X141486666Y-148012380D01*
X141629523Y-148060000D01*
X141677142Y-148107619D01*
X142534285Y-148345714D02*
X142534285Y-149012380D01*
X142296190Y-147964761D02*
X142058095Y-148679047D01*
X142677142Y-148679047D01*
X143486666Y-148345714D02*
X143486666Y-149012380D01*
X143248571Y-147964761D02*
X143010476Y-148679047D01*
X143629523Y-148679047D01*
%TO.C,C32*%
X212569285Y-139459285D02*
X212540714Y-139487857D01*
X212455000Y-139516428D01*
X212397857Y-139516428D01*
X212312142Y-139487857D01*
X212255000Y-139430714D01*
X212226428Y-139373571D01*
X212197857Y-139259285D01*
X212197857Y-139173571D01*
X212226428Y-139059285D01*
X212255000Y-139002142D01*
X212312142Y-138945000D01*
X212397857Y-138916428D01*
X212455000Y-138916428D01*
X212540714Y-138945000D01*
X212569285Y-138973571D01*
X212769285Y-138916428D02*
X213140714Y-138916428D01*
X212940714Y-139145000D01*
X213026428Y-139145000D01*
X213083571Y-139173571D01*
X213112142Y-139202142D01*
X213140714Y-139259285D01*
X213140714Y-139402142D01*
X213112142Y-139459285D01*
X213083571Y-139487857D01*
X213026428Y-139516428D01*
X212855000Y-139516428D01*
X212797857Y-139487857D01*
X212769285Y-139459285D01*
X213369285Y-138973571D02*
X213397857Y-138945000D01*
X213455000Y-138916428D01*
X213597857Y-138916428D01*
X213655000Y-138945000D01*
X213683571Y-138973571D01*
X213712142Y-139030714D01*
X213712142Y-139087857D01*
X213683571Y-139173571D01*
X213340714Y-139516428D01*
X213712142Y-139516428D01*
%TO.C,C34*%
X220504142Y-144879857D02*
X220551761Y-144927476D01*
X220599380Y-145070333D01*
X220599380Y-145165571D01*
X220551761Y-145308428D01*
X220456523Y-145403666D01*
X220361285Y-145451285D01*
X220170809Y-145498904D01*
X220027952Y-145498904D01*
X219837476Y-145451285D01*
X219742238Y-145403666D01*
X219647000Y-145308428D01*
X219599380Y-145165571D01*
X219599380Y-145070333D01*
X219647000Y-144927476D01*
X219694619Y-144879857D01*
X219599380Y-144546523D02*
X219599380Y-143927476D01*
X219980333Y-144260809D01*
X219980333Y-144117952D01*
X220027952Y-144022714D01*
X220075571Y-143975095D01*
X220170809Y-143927476D01*
X220408904Y-143927476D01*
X220504142Y-143975095D01*
X220551761Y-144022714D01*
X220599380Y-144117952D01*
X220599380Y-144403666D01*
X220551761Y-144498904D01*
X220504142Y-144546523D01*
X219932714Y-143070333D02*
X220599380Y-143070333D01*
X219551761Y-143308428D02*
X220266047Y-143546523D01*
X220266047Y-142927476D01*
%TO.C,TP14*%
X131621428Y-134517857D02*
X131621428Y-134175000D01*
X132221428Y-134346428D02*
X131621428Y-134346428D01*
X132221428Y-133975000D02*
X131621428Y-133975000D01*
X131621428Y-133746428D01*
X131650000Y-133689285D01*
X131678571Y-133660714D01*
X131735714Y-133632142D01*
X131821428Y-133632142D01*
X131878571Y-133660714D01*
X131907142Y-133689285D01*
X131935714Y-133746428D01*
X131935714Y-133975000D01*
X132221428Y-133060714D02*
X132221428Y-133403571D01*
X132221428Y-133232142D02*
X131621428Y-133232142D01*
X131707142Y-133289285D01*
X131764285Y-133346428D01*
X131792857Y-133403571D01*
X131821428Y-132546428D02*
X132221428Y-132546428D01*
X131592857Y-132689285D02*
X132021428Y-132832142D01*
X132021428Y-132460714D01*
%TO.C,C26*%
X212555714Y-145575714D02*
X212517619Y-145613809D01*
X212403333Y-145651904D01*
X212327142Y-145651904D01*
X212212857Y-145613809D01*
X212136666Y-145537619D01*
X212098571Y-145461428D01*
X212060476Y-145309047D01*
X212060476Y-145194761D01*
X212098571Y-145042380D01*
X212136666Y-144966190D01*
X212212857Y-144890000D01*
X212327142Y-144851904D01*
X212403333Y-144851904D01*
X212517619Y-144890000D01*
X212555714Y-144928095D01*
X212860476Y-144928095D02*
X212898571Y-144890000D01*
X212974761Y-144851904D01*
X213165238Y-144851904D01*
X213241428Y-144890000D01*
X213279523Y-144928095D01*
X213317619Y-145004285D01*
X213317619Y-145080476D01*
X213279523Y-145194761D01*
X212822380Y-145651904D01*
X213317619Y-145651904D01*
X214003333Y-144851904D02*
X213850952Y-144851904D01*
X213774761Y-144890000D01*
X213736666Y-144928095D01*
X213660476Y-145042380D01*
X213622380Y-145194761D01*
X213622380Y-145499523D01*
X213660476Y-145575714D01*
X213698571Y-145613809D01*
X213774761Y-145651904D01*
X213927142Y-145651904D01*
X214003333Y-145613809D01*
X214041428Y-145575714D01*
X214079523Y-145499523D01*
X214079523Y-145309047D01*
X214041428Y-145232857D01*
X214003333Y-145194761D01*
X213927142Y-145156666D01*
X213774761Y-145156666D01*
X213698571Y-145194761D01*
X213660476Y-145232857D01*
X213622380Y-145309047D01*
%TO.C,TP2*%
X164600476Y-139961904D02*
X165057619Y-139961904D01*
X164829047Y-140761904D02*
X164829047Y-139961904D01*
X165324285Y-140761904D02*
X165324285Y-139961904D01*
X165629047Y-139961904D01*
X165705238Y-140000000D01*
X165743333Y-140038095D01*
X165781428Y-140114285D01*
X165781428Y-140228571D01*
X165743333Y-140304761D01*
X165705238Y-140342857D01*
X165629047Y-140380952D01*
X165324285Y-140380952D01*
X166086190Y-140038095D02*
X166124285Y-140000000D01*
X166200476Y-139961904D01*
X166390952Y-139961904D01*
X166467142Y-140000000D01*
X166505238Y-140038095D01*
X166543333Y-140114285D01*
X166543333Y-140190476D01*
X166505238Y-140304761D01*
X166048095Y-140761904D01*
X166543333Y-140761904D01*
%TO.C,Y1*%
X181014285Y-137635714D02*
X181014285Y-137921428D01*
X180814285Y-137321428D02*
X181014285Y-137635714D01*
X181214285Y-137321428D01*
X181728571Y-137921428D02*
X181385714Y-137921428D01*
X181557142Y-137921428D02*
X181557142Y-137321428D01*
X181500000Y-137407142D01*
X181442857Y-137464285D01*
X181385714Y-137492857D01*
%TO.C,L7*%
X218730904Y-142338333D02*
X218730904Y-142719285D01*
X217930904Y-142719285D01*
X217930904Y-142147857D02*
X217930904Y-141614523D01*
X218730904Y-141957380D01*
%TO.C,U6*%
X134252857Y-136401428D02*
X134252857Y-136887142D01*
X134281428Y-136944285D01*
X134310000Y-136972857D01*
X134367142Y-137001428D01*
X134481428Y-137001428D01*
X134538571Y-136972857D01*
X134567142Y-136944285D01*
X134595714Y-136887142D01*
X134595714Y-136401428D01*
X135138571Y-136401428D02*
X135024285Y-136401428D01*
X134967142Y-136430000D01*
X134938571Y-136458571D01*
X134881428Y-136544285D01*
X134852857Y-136658571D01*
X134852857Y-136887142D01*
X134881428Y-136944285D01*
X134910000Y-136972857D01*
X134967142Y-137001428D01*
X135081428Y-137001428D01*
X135138571Y-136972857D01*
X135167142Y-136944285D01*
X135195714Y-136887142D01*
X135195714Y-136744285D01*
X135167142Y-136687142D01*
X135138571Y-136658571D01*
X135081428Y-136630000D01*
X134967142Y-136630000D01*
X134910000Y-136658571D01*
X134881428Y-136687142D01*
X134852857Y-136744285D01*
%TO.C,TP9*%
X175798095Y-134842380D02*
X176369523Y-134842380D01*
X176083809Y-135842380D02*
X176083809Y-134842380D01*
X176702857Y-135842380D02*
X176702857Y-134842380D01*
X177083809Y-134842380D01*
X177179047Y-134890000D01*
X177226666Y-134937619D01*
X177274285Y-135032857D01*
X177274285Y-135175714D01*
X177226666Y-135270952D01*
X177179047Y-135318571D01*
X177083809Y-135366190D01*
X176702857Y-135366190D01*
X177750476Y-135842380D02*
X177940952Y-135842380D01*
X178036190Y-135794761D01*
X178083809Y-135747142D01*
X178179047Y-135604285D01*
X178226666Y-135413809D01*
X178226666Y-135032857D01*
X178179047Y-134937619D01*
X178131428Y-134890000D01*
X178036190Y-134842380D01*
X177845714Y-134842380D01*
X177750476Y-134890000D01*
X177702857Y-134937619D01*
X177655238Y-135032857D01*
X177655238Y-135270952D01*
X177702857Y-135366190D01*
X177750476Y-135413809D01*
X177845714Y-135461428D01*
X178036190Y-135461428D01*
X178131428Y-135413809D01*
X178179047Y-135366190D01*
X178226666Y-135270952D01*
%TO.C,C28*%
X186157142Y-142057142D02*
X186109523Y-142104761D01*
X185966666Y-142152380D01*
X185871428Y-142152380D01*
X185728571Y-142104761D01*
X185633333Y-142009523D01*
X185585714Y-141914285D01*
X185538095Y-141723809D01*
X185538095Y-141580952D01*
X185585714Y-141390476D01*
X185633333Y-141295238D01*
X185728571Y-141200000D01*
X185871428Y-141152380D01*
X185966666Y-141152380D01*
X186109523Y-141200000D01*
X186157142Y-141247619D01*
X186538095Y-141247619D02*
X186585714Y-141200000D01*
X186680952Y-141152380D01*
X186919047Y-141152380D01*
X187014285Y-141200000D01*
X187061904Y-141247619D01*
X187109523Y-141342857D01*
X187109523Y-141438095D01*
X187061904Y-141580952D01*
X186490476Y-142152380D01*
X187109523Y-142152380D01*
X187680952Y-141580952D02*
X187585714Y-141533333D01*
X187538095Y-141485714D01*
X187490476Y-141390476D01*
X187490476Y-141342857D01*
X187538095Y-141247619D01*
X187585714Y-141200000D01*
X187680952Y-141152380D01*
X187871428Y-141152380D01*
X187966666Y-141200000D01*
X188014285Y-141247619D01*
X188061904Y-141342857D01*
X188061904Y-141390476D01*
X188014285Y-141485714D01*
X187966666Y-141533333D01*
X187871428Y-141580952D01*
X187680952Y-141580952D01*
X187585714Y-141628571D01*
X187538095Y-141676190D01*
X187490476Y-141771428D01*
X187490476Y-141961904D01*
X187538095Y-142057142D01*
X187585714Y-142104761D01*
X187680952Y-142152380D01*
X187871428Y-142152380D01*
X187966666Y-142104761D01*
X188014285Y-142057142D01*
X188061904Y-141961904D01*
X188061904Y-141771428D01*
X188014285Y-141676190D01*
X187966666Y-141628571D01*
X187871428Y-141580952D01*
%TO.C,SW1*%
X131676666Y-149094761D02*
X131819523Y-149142380D01*
X132057619Y-149142380D01*
X132152857Y-149094761D01*
X132200476Y-149047142D01*
X132248095Y-148951904D01*
X132248095Y-148856666D01*
X132200476Y-148761428D01*
X132152857Y-148713809D01*
X132057619Y-148666190D01*
X131867142Y-148618571D01*
X131771904Y-148570952D01*
X131724285Y-148523333D01*
X131676666Y-148428095D01*
X131676666Y-148332857D01*
X131724285Y-148237619D01*
X131771904Y-148190000D01*
X131867142Y-148142380D01*
X132105238Y-148142380D01*
X132248095Y-148190000D01*
X132581428Y-148142380D02*
X132819523Y-149142380D01*
X133010000Y-148428095D01*
X133200476Y-149142380D01*
X133438571Y-148142380D01*
X134343333Y-149142380D02*
X133771904Y-149142380D01*
X134057619Y-149142380D02*
X134057619Y-148142380D01*
X133962380Y-148285238D01*
X133867142Y-148380476D01*
X133771904Y-148428095D01*
%TO.C,J6*%
X219267380Y-137923333D02*
X219981666Y-137923333D01*
X220124523Y-137970952D01*
X220219761Y-138066190D01*
X220267380Y-138209047D01*
X220267380Y-138304285D01*
X219267380Y-137018571D02*
X219267380Y-137209047D01*
X219315000Y-137304285D01*
X219362619Y-137351904D01*
X219505476Y-137447142D01*
X219695952Y-137494761D01*
X220076904Y-137494761D01*
X220172142Y-137447142D01*
X220219761Y-137399523D01*
X220267380Y-137304285D01*
X220267380Y-137113809D01*
X220219761Y-137018571D01*
X220172142Y-136970952D01*
X220076904Y-136923333D01*
X219838809Y-136923333D01*
X219743571Y-136970952D01*
X219695952Y-137018571D01*
X219648333Y-137113809D01*
X219648333Y-137304285D01*
X219695952Y-137399523D01*
X219743571Y-137447142D01*
X219838809Y-137494761D01*
%TO.C,C38*%
X127739285Y-142360714D02*
X127767857Y-142389285D01*
X127796428Y-142475000D01*
X127796428Y-142532142D01*
X127767857Y-142617857D01*
X127710714Y-142675000D01*
X127653571Y-142703571D01*
X127539285Y-142732142D01*
X127453571Y-142732142D01*
X127339285Y-142703571D01*
X127282142Y-142675000D01*
X127225000Y-142617857D01*
X127196428Y-142532142D01*
X127196428Y-142475000D01*
X127225000Y-142389285D01*
X127253571Y-142360714D01*
X127196428Y-142160714D02*
X127196428Y-141789285D01*
X127425000Y-141989285D01*
X127425000Y-141903571D01*
X127453571Y-141846428D01*
X127482142Y-141817857D01*
X127539285Y-141789285D01*
X127682142Y-141789285D01*
X127739285Y-141817857D01*
X127767857Y-141846428D01*
X127796428Y-141903571D01*
X127796428Y-142075000D01*
X127767857Y-142132142D01*
X127739285Y-142160714D01*
X127453571Y-141446428D02*
X127425000Y-141503571D01*
X127396428Y-141532142D01*
X127339285Y-141560714D01*
X127310714Y-141560714D01*
X127253571Y-141532142D01*
X127225000Y-141503571D01*
X127196428Y-141446428D01*
X127196428Y-141332142D01*
X127225000Y-141275000D01*
X127253571Y-141246428D01*
X127310714Y-141217857D01*
X127339285Y-141217857D01*
X127396428Y-141246428D01*
X127425000Y-141275000D01*
X127453571Y-141332142D01*
X127453571Y-141446428D01*
X127482142Y-141503571D01*
X127510714Y-141532142D01*
X127567857Y-141560714D01*
X127682142Y-141560714D01*
X127739285Y-141532142D01*
X127767857Y-141503571D01*
X127796428Y-141446428D01*
X127796428Y-141332142D01*
X127767857Y-141275000D01*
X127739285Y-141246428D01*
X127682142Y-141217857D01*
X127567857Y-141217857D01*
X127510714Y-141246428D01*
X127482142Y-141275000D01*
X127453571Y-141332142D01*
%TO.C,C2*%
X181980000Y-147834285D02*
X181951428Y-147862857D01*
X181865714Y-147891428D01*
X181808571Y-147891428D01*
X181722857Y-147862857D01*
X181665714Y-147805714D01*
X181637142Y-147748571D01*
X181608571Y-147634285D01*
X181608571Y-147548571D01*
X181637142Y-147434285D01*
X181665714Y-147377142D01*
X181722857Y-147320000D01*
X181808571Y-147291428D01*
X181865714Y-147291428D01*
X181951428Y-147320000D01*
X181980000Y-147348571D01*
X182208571Y-147348571D02*
X182237142Y-147320000D01*
X182294285Y-147291428D01*
X182437142Y-147291428D01*
X182494285Y-147320000D01*
X182522857Y-147348571D01*
X182551428Y-147405714D01*
X182551428Y-147462857D01*
X182522857Y-147548571D01*
X182180000Y-147891428D01*
X182551428Y-147891428D01*
%TO.C,C27*%
X210267142Y-137127142D02*
X210219523Y-137174761D01*
X210076666Y-137222380D01*
X209981428Y-137222380D01*
X209838571Y-137174761D01*
X209743333Y-137079523D01*
X209695714Y-136984285D01*
X209648095Y-136793809D01*
X209648095Y-136650952D01*
X209695714Y-136460476D01*
X209743333Y-136365238D01*
X209838571Y-136270000D01*
X209981428Y-136222380D01*
X210076666Y-136222380D01*
X210219523Y-136270000D01*
X210267142Y-136317619D01*
X210648095Y-136317619D02*
X210695714Y-136270000D01*
X210790952Y-136222380D01*
X211029047Y-136222380D01*
X211124285Y-136270000D01*
X211171904Y-136317619D01*
X211219523Y-136412857D01*
X211219523Y-136508095D01*
X211171904Y-136650952D01*
X210600476Y-137222380D01*
X211219523Y-137222380D01*
X211552857Y-136222380D02*
X212219523Y-136222380D01*
X211790952Y-137222380D01*
%TO.C,C9*%
X177693333Y-133087142D02*
X177645714Y-133134761D01*
X177502857Y-133182380D01*
X177407619Y-133182380D01*
X177264761Y-133134761D01*
X177169523Y-133039523D01*
X177121904Y-132944285D01*
X177074285Y-132753809D01*
X177074285Y-132610952D01*
X177121904Y-132420476D01*
X177169523Y-132325238D01*
X177264761Y-132230000D01*
X177407619Y-132182380D01*
X177502857Y-132182380D01*
X177645714Y-132230000D01*
X177693333Y-132277619D01*
X178169523Y-133182380D02*
X178360000Y-133182380D01*
X178455238Y-133134761D01*
X178502857Y-133087142D01*
X178598095Y-132944285D01*
X178645714Y-132753809D01*
X178645714Y-132372857D01*
X178598095Y-132277619D01*
X178550476Y-132230000D01*
X178455238Y-132182380D01*
X178264761Y-132182380D01*
X178169523Y-132230000D01*
X178121904Y-132277619D01*
X178074285Y-132372857D01*
X178074285Y-132610952D01*
X178121904Y-132706190D01*
X178169523Y-132753809D01*
X178264761Y-132801428D01*
X178455238Y-132801428D01*
X178550476Y-132753809D01*
X178598095Y-132706190D01*
X178645714Y-132610952D01*
D13*
%TO.C,D8*%
X128025000Y-133635000D02*
X130310000Y-133635000D01*
X130310000Y-133635000D02*
X130310000Y-132165000D01*
X130310000Y-132165000D02*
X128025000Y-132165000D01*
%TO.C,D7*%
X144050000Y-136735000D02*
X146335000Y-136735000D01*
X146335000Y-136735000D02*
X146335000Y-135265000D01*
X146335000Y-135265000D02*
X144050000Y-135265000D01*
%TO.C,D6*%
X159655000Y-133180000D02*
X159655000Y-135465000D01*
X159655000Y-135465000D02*
X161125000Y-135465000D01*
X161125000Y-135465000D02*
X161125000Y-133180000D01*
%TO.C,D5*%
X154150000Y-148360000D02*
X156435000Y-148360000D01*
X156435000Y-148360000D02*
X156435000Y-146890000D01*
X156435000Y-146890000D02*
X154150000Y-146890000D01*
%TO.C,R15*%
X128537742Y-134102500D02*
X129012258Y-134102500D01*
X128537742Y-135147500D02*
X129012258Y-135147500D01*
%TO.C,L1*%
X173552000Y-144143758D02*
X173552000Y-144964242D01*
X172432000Y-144143758D02*
X172432000Y-144964242D01*
%TO.C,J7*%
X163335000Y-147615000D02*
X163335000Y-148725000D01*
X161815000Y-147615000D02*
X158070000Y-147615000D01*
X161815000Y-149288471D02*
X161815000Y-149835000D01*
X162575000Y-147615000D02*
X163335000Y-147615000D01*
X158070000Y-147615000D02*
X158070000Y-148417470D01*
X158070000Y-149032530D02*
X158070000Y-149835000D01*
X161815000Y-147615000D02*
X161815000Y-148161529D01*
X161815000Y-149835000D02*
X158070000Y-149835000D01*
%TO.C,TP6*%
X164025000Y-145800000D02*
X162625000Y-145800000D01*
X162625000Y-145800000D02*
X162625000Y-144400000D01*
X162625000Y-144400000D02*
X164025000Y-144400000D01*
X164025000Y-144400000D02*
X164025000Y-145800000D01*
%TO.C,C20*%
X186287635Y-137710580D02*
X186287635Y-137429420D01*
X185267635Y-137710580D02*
X185267635Y-137429420D01*
%TO.C,C8*%
X186115000Y-147759420D02*
X186115000Y-148040580D01*
X187135000Y-147759420D02*
X187135000Y-148040580D01*
%TO.C,L3*%
X185489758Y-140590000D02*
X186310242Y-140590000D01*
X185489758Y-139470000D02*
X186310242Y-139470000D01*
%TO.C,TP7*%
X160240000Y-139900000D02*
X161640000Y-139900000D01*
X161640000Y-139900000D02*
X161640000Y-141300000D01*
X161640000Y-141300000D02*
X160240000Y-141300000D01*
X160240000Y-141300000D02*
X160240000Y-139900000D01*
%TO.C,TP1*%
X164100000Y-132175000D02*
X165500000Y-132175000D01*
X165500000Y-133575000D02*
X164100000Y-133575000D01*
X164100000Y-133575000D02*
X164100000Y-132175000D01*
X165500000Y-132175000D02*
X165500000Y-133575000D01*
%TO.C,L2*%
X189790000Y-138519758D02*
X189790000Y-139340242D01*
X188670000Y-138519758D02*
X188670000Y-139340242D01*
%TO.C,C45*%
X149791252Y-135410000D02*
X148368748Y-135410000D01*
X149791252Y-133590000D02*
X148368748Y-133590000D01*
%TO.C,C40*%
X128759420Y-135765000D02*
X129040580Y-135765000D01*
X128759420Y-136785000D02*
X129040580Y-136785000D01*
%TO.C,C43*%
X153740000Y-134290580D02*
X153740000Y-134009420D01*
X154760000Y-134290580D02*
X154760000Y-134009420D01*
%TO.C,R12*%
X150822936Y-148410000D02*
X151277064Y-148410000D01*
X150822936Y-146940000D02*
X151277064Y-146940000D01*
%TO.C,JP4*%
X174350000Y-134550000D02*
X173150000Y-134550000D01*
X174350000Y-132950000D02*
X174350000Y-134550000D01*
X173150000Y-132950000D02*
X174350000Y-132950000D01*
X173150000Y-134550000D02*
X173150000Y-132950000D01*
%TO.C,C17*%
X182690580Y-133360000D02*
X182409420Y-133360000D01*
X182690580Y-132340000D02*
X182409420Y-132340000D01*
%TO.C,C4*%
X171684259Y-136665580D02*
X171684259Y-136384420D01*
X170664259Y-136665580D02*
X170664259Y-136384420D01*
%TO.C,J8*%
X133630000Y-137930000D02*
X133630000Y-135330000D01*
X133630000Y-139200000D02*
X133630000Y-140530000D01*
X133630000Y-135330000D02*
X130970000Y-135330000D01*
X130970000Y-137930000D02*
X130970000Y-135330000D01*
X133630000Y-140530000D02*
X132300000Y-140530000D01*
X133630000Y-137930000D02*
X130970000Y-137930000D01*
%TO.C,U3*%
X209560000Y-139360000D02*
X207560000Y-139360000D01*
X208560000Y-141580000D02*
X207560000Y-141580000D01*
%TO.C,C5*%
X171472000Y-144553420D02*
X171472000Y-144834580D01*
X170452000Y-144553420D02*
X170452000Y-144834580D01*
%TO.C,TP20*%
X173600000Y-148600000D02*
X173600000Y-147200000D01*
X175000000Y-147200000D02*
X175000000Y-148600000D01*
X175000000Y-148600000D02*
X173600000Y-148600000D01*
X173600000Y-147200000D02*
X175000000Y-147200000D01*
%TO.C,C1*%
X183960000Y-148134420D02*
X183960000Y-148415580D01*
X182940000Y-148134420D02*
X182940000Y-148415580D01*
%TO.C,C21*%
X186997635Y-137710580D02*
X186997635Y-137429420D01*
X188017635Y-137710580D02*
X188017635Y-137429420D01*
%TO.C,C3*%
X173334259Y-136665580D02*
X173334259Y-136384420D01*
X172314259Y-136665580D02*
X172314259Y-136384420D01*
%TO.C,R13*%
X161825000Y-134117064D02*
X161825000Y-133662936D01*
X163295000Y-134117064D02*
X163295000Y-133662936D01*
%TO.C,TP4*%
X162580000Y-141300000D02*
X162580000Y-139900000D01*
X162580000Y-139900000D02*
X163980000Y-139900000D01*
X163980000Y-141300000D02*
X162580000Y-141300000D01*
X163980000Y-139900000D02*
X163980000Y-141300000D01*
%TO.C,C24*%
X198939420Y-140590000D02*
X199220580Y-140590000D01*
X198939420Y-139570000D02*
X199220580Y-139570000D01*
%TO.C,TP13*%
X143600000Y-145500000D02*
X143600000Y-146900000D01*
X142200000Y-145500000D02*
X143600000Y-145500000D01*
X143600000Y-146900000D02*
X142200000Y-146900000D01*
X142200000Y-146900000D02*
X142200000Y-145500000D01*
%TO.C,C47*%
X186384420Y-135810000D02*
X186665580Y-135810000D01*
X186384420Y-134790000D02*
X186665580Y-134790000D01*
%TO.C,C22*%
X191480000Y-140769420D02*
X191480000Y-141050580D01*
X190460000Y-140769420D02*
X190460000Y-141050580D01*
%TO.C,C42*%
X146879420Y-141430000D02*
X147160580Y-141430000D01*
X146879420Y-142450000D02*
X147160580Y-142450000D01*
%TO.C,JP3*%
X191062500Y-147075000D02*
X191062500Y-148675000D01*
X191062500Y-148675000D02*
X189862500Y-148675000D01*
X189862500Y-147075000D02*
X191062500Y-147075000D01*
X189862500Y-148675000D02*
X189862500Y-147075000D01*
%TO.C,C31*%
X194360000Y-144464420D02*
X194360000Y-144745580D01*
X193340000Y-144464420D02*
X193340000Y-144745580D01*
%TO.C,C25*%
X206445000Y-140794420D02*
X206445000Y-141075580D01*
X205425000Y-140794420D02*
X205425000Y-141075580D01*
%TO.C,R14*%
X142585000Y-135022936D02*
X142585000Y-135477064D01*
X141115000Y-135022936D02*
X141115000Y-135477064D01*
%TO.C,C39*%
X138199420Y-133140000D02*
X138480580Y-133140000D01*
X138199420Y-132120000D02*
X138480580Y-132120000D01*
%TO.C,C33*%
X213865000Y-141134420D02*
X213865000Y-141415580D01*
X214885000Y-141134420D02*
X214885000Y-141415580D01*
%TO.C,U1*%
X175900000Y-145375000D02*
X175900000Y-145850000D01*
X175900000Y-139105000D02*
X175900000Y-138630000D01*
X183120000Y-145375000D02*
X183120000Y-145850000D01*
X183120000Y-139105000D02*
X183120000Y-138630000D01*
X183120000Y-138630000D02*
X182645000Y-138630000D01*
X175900000Y-138630000D02*
X176375000Y-138630000D01*
X183120000Y-145850000D02*
X182645000Y-145850000D01*
%TO.C,J3*%
X149925000Y-138980000D02*
X148595000Y-138980000D01*
X151195000Y-138980000D02*
X163955000Y-138980000D01*
X148595000Y-138980000D02*
X148595000Y-137650000D01*
X151195000Y-136320000D02*
X163955000Y-136320000D01*
X163955000Y-138980000D02*
X163955000Y-136320000D01*
X151195000Y-138980000D02*
X151195000Y-136320000D01*
%TO.C,TP5*%
X161750000Y-144425000D02*
X161750000Y-145825000D01*
X160350000Y-145825000D02*
X160350000Y-144425000D01*
X160350000Y-144425000D02*
X161750000Y-144425000D01*
X161750000Y-145825000D02*
X160350000Y-145825000D01*
%TO.C,TP8*%
X169700000Y-142850000D02*
X168300000Y-142850000D01*
X168300000Y-141450000D02*
X169700000Y-141450000D01*
X168300000Y-142850000D02*
X168300000Y-141450000D01*
X169700000Y-141450000D02*
X169700000Y-142850000D01*
%TO.C,TP21*%
X165700000Y-146790000D02*
X167100000Y-146790000D01*
X167100000Y-146790000D02*
X167100000Y-148190000D01*
X167100000Y-148190000D02*
X165700000Y-148190000D01*
X165700000Y-148190000D02*
X165700000Y-146790000D01*
%TO.C,C7*%
X169660000Y-139740580D02*
X169660000Y-139459420D01*
X168640000Y-139740580D02*
X168640000Y-139459420D01*
%TO.C,C29*%
X190769420Y-145055000D02*
X191050580Y-145055000D01*
X190769420Y-146075000D02*
X191050580Y-146075000D01*
%TO.C,C30*%
X196130000Y-140699420D02*
X196130000Y-140980580D01*
X197150000Y-140699420D02*
X197150000Y-140980580D01*
%TO.C,C10*%
X169273797Y-147415000D02*
X168992637Y-147415000D01*
X169273797Y-148435000D02*
X168992637Y-148435000D01*
%TO.C,J2*%
X151695000Y-146105000D02*
X159375000Y-146105000D01*
X151695000Y-146105000D02*
X151695000Y-143505000D01*
X150425000Y-146105000D02*
X149095000Y-146105000D01*
X149095000Y-146105000D02*
X149095000Y-144775000D01*
X149095000Y-140905000D02*
X159375000Y-140905000D01*
X159375000Y-146105000D02*
X159375000Y-140905000D01*
X149095000Y-143505000D02*
X149095000Y-140905000D01*
X151695000Y-143505000D02*
X149095000Y-143505000D01*
%TO.C,JP2*%
X191687500Y-147075000D02*
X192887500Y-147075000D01*
X192887500Y-147075000D02*
X192887500Y-148675000D01*
X191687500Y-148675000D02*
X191687500Y-147075000D01*
X192887500Y-148675000D02*
X191687500Y-148675000D01*
%TO.C,C19*%
X186665580Y-134185000D02*
X186384420Y-134185000D01*
X186665580Y-133165000D02*
X186384420Y-133165000D01*
%TO.C,C23*%
X193529420Y-138930000D02*
X193810580Y-138930000D01*
X193529420Y-137910000D02*
X193810580Y-137910000D01*
%TO.C,L6*%
X187415000Y-143919758D02*
X187415000Y-144740242D01*
X188535000Y-143919758D02*
X188535000Y-144740242D01*
%TO.C,C41*%
X144409420Y-133440000D02*
X144690580Y-133440000D01*
X144409420Y-134460000D02*
X144690580Y-134460000D01*
%TO.C,JP1*%
X170100000Y-134500000D02*
X170100000Y-132900000D01*
X171300000Y-134500000D02*
X170100000Y-134500000D01*
X170100000Y-132900000D02*
X171300000Y-132900000D01*
X171300000Y-132900000D02*
X171300000Y-134500000D01*
%TO.C,TP3*%
X170400000Y-141450000D02*
X171800000Y-141450000D01*
X170400000Y-142850000D02*
X170400000Y-141450000D01*
X171800000Y-142850000D02*
X170400000Y-142850000D01*
X171800000Y-141450000D02*
X171800000Y-142850000D01*
%TO.C,L5*%
X202369758Y-140660000D02*
X203190242Y-140660000D01*
X202369758Y-139540000D02*
X203190242Y-139540000D01*
%TO.C,C6*%
X170265000Y-139765580D02*
X170265000Y-139484420D01*
X171285000Y-139765580D02*
X171285000Y-139484420D01*
%TO.C,L4*%
X193369758Y-139530000D02*
X194190242Y-139530000D01*
X193369758Y-140650000D02*
X194190242Y-140650000D01*
%TO.C,D4*%
X130785000Y-148625000D02*
X130785000Y-142940000D01*
X127615000Y-142940000D02*
X127615000Y-148625000D01*
X130785000Y-142940000D02*
X127615000Y-142940000D01*
%TO.C,C44*%
X147011252Y-147140000D02*
X145588748Y-147140000D01*
X147011252Y-148960000D02*
X145588748Y-148960000D01*
%TO.C,C32*%
X211724420Y-141015000D02*
X212005580Y-141015000D01*
X211724420Y-139995000D02*
X212005580Y-139995000D01*
%TO.C,C34*%
X219725000Y-141194420D02*
X219725000Y-141475580D01*
X220745000Y-141194420D02*
X220745000Y-141475580D01*
%TO.C,TP14*%
X132710000Y-134050000D02*
X132710000Y-132650000D01*
X134110000Y-134050000D02*
X132710000Y-134050000D01*
X134110000Y-132650000D02*
X134110000Y-134050000D01*
X132710000Y-132650000D02*
X134110000Y-132650000D01*
%TO.C,C26*%
X210952580Y-143362000D02*
X210671420Y-143362000D01*
X210952580Y-142342000D02*
X210671420Y-142342000D01*
%TO.C,TP2*%
X164875000Y-142675000D02*
X164875000Y-141275000D01*
X166275000Y-141275000D02*
X166275000Y-142675000D01*
X166275000Y-142675000D02*
X164875000Y-142675000D01*
X164875000Y-141275000D02*
X166275000Y-141275000D01*
%TO.C,Y1*%
X180775000Y-133925000D02*
X180775000Y-137075000D01*
X180775000Y-137075000D02*
X184575000Y-137075000D01*
%TO.C,L7*%
X216894758Y-141135000D02*
X217715242Y-141135000D01*
X216894758Y-140015000D02*
X217715242Y-140015000D01*
%TO.C,U6*%
X136900000Y-136860000D02*
X138700000Y-136860000D01*
X138700000Y-133640000D02*
X136250000Y-133640000D01*
%TO.C,TP9*%
X174000000Y-136650000D02*
X174000000Y-135250000D01*
X174000000Y-135250000D02*
X175400000Y-135250000D01*
X175400000Y-135250000D02*
X175400000Y-136650000D01*
X175400000Y-136650000D02*
X174000000Y-136650000D01*
%TO.C,C28*%
X190809420Y-143995000D02*
X191090580Y-143995000D01*
X190809420Y-142975000D02*
X191090580Y-142975000D01*
%TO.C,J1*%
X140780000Y-141620000D02*
X140780000Y-144280000D01*
X135640000Y-141620000D02*
X135640000Y-144280000D01*
X143380000Y-141620000D02*
X143380000Y-142950000D01*
X140780000Y-144280000D02*
X135640000Y-144280000D01*
X140780000Y-141620000D02*
X135640000Y-141620000D01*
X142050000Y-141620000D02*
X143380000Y-141620000D01*
%TO.C,SW1*%
X134200000Y-144440000D02*
X134200000Y-141840000D01*
X134200000Y-141840000D02*
X131540000Y-141840000D01*
X134200000Y-144440000D02*
X131540000Y-144440000D01*
X131540000Y-147040000D02*
X131540000Y-145710000D01*
X131540000Y-144440000D02*
X131540000Y-141840000D01*
X132870000Y-147040000D02*
X131540000Y-147040000D01*
%TO.C,J6*%
X220390000Y-140875000D02*
X220890000Y-140625000D01*
X220390000Y-140375000D02*
X220390000Y-140875000D01*
X220890000Y-140625000D02*
X220390000Y-140375000D01*
%TO.C,C38*%
X129184420Y-142485000D02*
X129465580Y-142485000D01*
X129184420Y-141465000D02*
X129465580Y-141465000D01*
%TO.C,J5*%
X137363745Y-140426248D02*
X137363745Y-137766248D01*
X137363745Y-137766248D02*
X147583745Y-137766248D01*
X147583745Y-140426248D02*
X147583745Y-137766248D01*
X136093745Y-140426248D02*
X134763745Y-140426248D01*
X134763745Y-140426248D02*
X134763745Y-139096248D01*
X137363745Y-140426248D02*
X147583745Y-140426248D01*
%TO.C,C2*%
X184490000Y-148134420D02*
X184490000Y-148415580D01*
X185510000Y-148134420D02*
X185510000Y-148415580D01*
%TO.C,C27*%
X210769420Y-137690000D02*
X211050580Y-137690000D01*
X210769420Y-138710000D02*
X211050580Y-138710000D01*
%TO.C,C9*%
X180210000Y-134215580D02*
X180210000Y-133934420D01*
X179190000Y-134215580D02*
X179190000Y-133934420D01*
%TD*%
M02*
