%TF.GenerationSoftware,KiCad,Pcbnew,6.0.0*%
%TF.CreationDate,2022-03-07T01:43:26-06:00*%
%TF.ProjectId,main_board,6d61696e-5f62-46f6-9172-642e6b696361,rev?*%
%TF.SameCoordinates,Original*%
%TF.FileFunction,Paste,Top*%
%TF.FilePolarity,Positive*%
%FSLAX46Y46*%
G04 Gerber Fmt 4.6, Leading zero omitted, Abs format (unit mm)*
G04 Created by KiCad (PCBNEW 6.0.0) date 2022-03-07 01:43:26*
%MOMM*%
%LPD*%
G01*
G04 APERTURE LIST*
G04 Aperture macros list*
%AMRoundRect*
0 Rectangle with rounded corners*
0 $1 Rounding radius*
0 $2 $3 $4 $5 $6 $7 $8 $9 X,Y pos of 4 corners*
0 Add a 4 corners polygon primitive as box body*
4,1,4,$2,$3,$4,$5,$6,$7,$8,$9,$2,$3,0*
0 Add four circle primitives for the rounded corners*
1,1,$1+$1,$2,$3*
1,1,$1+$1,$4,$5*
1,1,$1+$1,$6,$7*
1,1,$1+$1,$8,$9*
0 Add four rect primitives between the rounded corners*
20,1,$1+$1,$2,$3,$4,$5,0*
20,1,$1+$1,$4,$5,$6,$7,0*
20,1,$1+$1,$6,$7,$8,$9,0*
20,1,$1+$1,$8,$9,$2,$3,0*%
G04 Aperture macros list end*
%ADD10RoundRect,0.218750X0.218750X0.256250X-0.218750X0.256250X-0.218750X-0.256250X0.218750X-0.256250X0*%
%ADD11RoundRect,0.218750X0.256250X-0.218750X0.256250X0.218750X-0.256250X0.218750X-0.256250X-0.218750X0*%
%ADD12RoundRect,0.200000X-0.200000X-0.275000X0.200000X-0.275000X0.200000X0.275000X-0.200000X0.275000X0*%
%ADD13RoundRect,0.250000X-0.350000X0.275000X-0.350000X-0.275000X0.350000X-0.275000X0.350000X0.275000X0*%
%ADD14RoundRect,0.225000X0.250000X-0.225000X0.250000X0.225000X-0.250000X0.225000X-0.250000X-0.225000X0*%
%ADD15RoundRect,0.225000X-0.250000X0.225000X-0.250000X-0.225000X0.250000X-0.225000X0.250000X0.225000X0*%
%ADD16R,0.550000X0.800000*%
%ADD17RoundRect,0.250000X-0.275000X-0.350000X0.275000X-0.350000X0.275000X0.350000X-0.275000X0.350000X0*%
%ADD18RoundRect,0.250000X0.325000X0.650000X-0.325000X0.650000X-0.325000X-0.650000X0.325000X-0.650000X0*%
%ADD19RoundRect,0.225000X-0.225000X-0.250000X0.225000X-0.250000X0.225000X0.250000X-0.225000X0.250000X0*%
%ADD20RoundRect,0.250000X-0.350000X-0.450000X0.350000X-0.450000X0.350000X0.450000X-0.350000X0.450000X0*%
%ADD21RoundRect,0.225000X0.225000X0.250000X-0.225000X0.250000X-0.225000X-0.250000X0.225000X-0.250000X0*%
%ADD22RoundRect,0.120000X0.120000X0.155000X-0.120000X0.155000X-0.120000X-0.155000X0.120000X-0.155000X0*%
%ADD23RoundRect,0.062500X0.375000X0.062500X-0.375000X0.062500X-0.375000X-0.062500X0.375000X-0.062500X0*%
%ADD24RoundRect,0.250000X0.450000X-0.350000X0.450000X0.350000X-0.450000X0.350000X-0.450000X-0.350000X0*%
%ADD25RoundRect,0.250000X-0.450000X0.350000X-0.450000X-0.350000X0.450000X-0.350000X0.450000X0.350000X0*%
%ADD26RoundRect,0.250000X0.315000X-0.315000X0.315000X0.315000X-0.315000X0.315000X-0.315000X-0.315000X0*%
%ADD27RoundRect,0.062500X0.062500X-0.375000X0.062500X0.375000X-0.062500X0.375000X-0.062500X-0.375000X0*%
%ADD28RoundRect,0.062500X0.375000X-0.062500X0.375000X0.062500X-0.375000X0.062500X-0.375000X-0.062500X0*%
%ADD29R,0.800000X0.550000*%
%ADD30RoundRect,0.250000X-1.075000X0.425000X-1.075000X-0.425000X1.075000X-0.425000X1.075000X0.425000X0*%
%ADD31R,1.300000X1.100000*%
%ADD32R,1.560000X0.650000*%
%ADD33R,5.080000X1.500000*%
G04 APERTURE END LIST*
D10*
%TO.C,D8*%
X129612500Y-132900000D03*
X128037500Y-132900000D03*
%TD*%
%TO.C,D7*%
X145637500Y-136000000D03*
X144062500Y-136000000D03*
%TD*%
D11*
%TO.C,D6*%
X160390000Y-134767500D03*
X160390000Y-133192500D03*
%TD*%
D10*
%TO.C,D5*%
X155737500Y-147625000D03*
X154162500Y-147625000D03*
%TD*%
D12*
%TO.C,R15*%
X127950000Y-134625000D03*
X129600000Y-134625000D03*
%TD*%
D13*
%TO.C,L1*%
X172992000Y-143404000D03*
X172992000Y-145704000D03*
%TD*%
D14*
%TO.C,C20*%
X185777635Y-138345000D03*
X185777635Y-136795000D03*
%TD*%
D15*
%TO.C,C8*%
X186625000Y-147125000D03*
X186625000Y-148675000D03*
%TD*%
D16*
%TO.C,U5*%
X127825000Y-140325000D03*
X128775000Y-140325000D03*
X129725000Y-140325000D03*
X129725000Y-137925000D03*
X127825000Y-137925000D03*
%TD*%
D17*
%TO.C,L3*%
X184750000Y-140030000D03*
X187050000Y-140030000D03*
%TD*%
D13*
%TO.C,L2*%
X189230000Y-137780000D03*
X189230000Y-140080000D03*
%TD*%
D18*
%TO.C,C45*%
X150555000Y-134500000D03*
X147605000Y-134500000D03*
%TD*%
D19*
%TO.C,C40*%
X128125000Y-136275000D03*
X129675000Y-136275000D03*
%TD*%
D14*
%TO.C,C43*%
X154250000Y-134925000D03*
X154250000Y-133375000D03*
%TD*%
D20*
%TO.C,R12*%
X150050000Y-147675000D03*
X152050000Y-147675000D03*
%TD*%
D21*
%TO.C,C17*%
X183325000Y-132850000D03*
X181775000Y-132850000D03*
%TD*%
D14*
%TO.C,C4*%
X171174259Y-137300000D03*
X171174259Y-135750000D03*
%TD*%
D22*
%TO.C,U3*%
X208560000Y-140810000D03*
X208560000Y-140130000D03*
D23*
X209497500Y-140970000D03*
X209497500Y-140470000D03*
X209497500Y-139970000D03*
X207622500Y-139970000D03*
X207622500Y-140470000D03*
X207622500Y-140970000D03*
%TD*%
D15*
%TO.C,C5*%
X170962000Y-143919000D03*
X170962000Y-145469000D03*
%TD*%
%TO.C,C1*%
X183450000Y-147500000D03*
X183450000Y-149050000D03*
%TD*%
D14*
%TO.C,C21*%
X187507635Y-138345000D03*
X187507635Y-136795000D03*
%TD*%
%TO.C,C3*%
X172824259Y-137300000D03*
X172824259Y-135750000D03*
%TD*%
D24*
%TO.C,R13*%
X162560000Y-134890000D03*
X162560000Y-132890000D03*
%TD*%
D19*
%TO.C,C24*%
X198305000Y-140080000D03*
X199855000Y-140080000D03*
%TD*%
%TO.C,C47*%
X185750000Y-135300000D03*
X187300000Y-135300000D03*
%TD*%
D15*
%TO.C,C22*%
X190970000Y-140135000D03*
X190970000Y-141685000D03*
%TD*%
D19*
%TO.C,C42*%
X146245000Y-141940000D03*
X147795000Y-141940000D03*
%TD*%
D15*
%TO.C,C31*%
X193850000Y-143830000D03*
X193850000Y-145380000D03*
%TD*%
%TO.C,C25*%
X205935000Y-140160000D03*
X205935000Y-141710000D03*
%TD*%
D25*
%TO.C,R14*%
X141850000Y-134250000D03*
X141850000Y-136250000D03*
%TD*%
D19*
%TO.C,C39*%
X137565000Y-132630000D03*
X139115000Y-132630000D03*
%TD*%
D15*
%TO.C,C33*%
X214375000Y-140500000D03*
X214375000Y-142050000D03*
%TD*%
D26*
%TO.C,U1*%
X178810000Y-142940000D03*
X177410000Y-140140000D03*
X180210000Y-142940000D03*
X180210000Y-140140000D03*
X181610000Y-142940000D03*
X177410000Y-141540000D03*
X178810000Y-144340000D03*
X178810000Y-140140000D03*
X181610000Y-140140000D03*
X180210000Y-144340000D03*
X177410000Y-142940000D03*
X177410000Y-144340000D03*
X180210000Y-141540000D03*
X178810000Y-141540000D03*
X181610000Y-144340000D03*
X181610000Y-141540000D03*
D27*
X176760000Y-145677500D03*
X177260000Y-145677500D03*
X177760000Y-145677500D03*
X178260000Y-145677500D03*
X178760000Y-145677500D03*
X179260000Y-145677500D03*
X179760000Y-145677500D03*
X180260000Y-145677500D03*
X180760000Y-145677500D03*
X181260000Y-145677500D03*
X181760000Y-145677500D03*
X182260000Y-145677500D03*
D28*
X182947500Y-144990000D03*
X182947500Y-144490000D03*
X182947500Y-143990000D03*
X182947500Y-143490000D03*
X182947500Y-142990000D03*
X182947500Y-142490000D03*
X182947500Y-141990000D03*
X182947500Y-141490000D03*
X182947500Y-140990000D03*
X182947500Y-140490000D03*
X182947500Y-139990000D03*
X182947500Y-139490000D03*
D27*
X182260000Y-138802500D03*
X181760000Y-138802500D03*
X181260000Y-138802500D03*
X180760000Y-138802500D03*
X180260000Y-138802500D03*
X179760000Y-138802500D03*
X179260000Y-138802500D03*
X178760000Y-138802500D03*
X178260000Y-138802500D03*
X177760000Y-138802500D03*
X177260000Y-138802500D03*
X176760000Y-138802500D03*
D28*
X176072500Y-139490000D03*
X176072500Y-139990000D03*
X176072500Y-140490000D03*
X176072500Y-140990000D03*
X176072500Y-141490000D03*
X176072500Y-141990000D03*
X176072500Y-142490000D03*
X176072500Y-142990000D03*
X176072500Y-143490000D03*
X176072500Y-143990000D03*
X176072500Y-144490000D03*
X176072500Y-144990000D03*
%TD*%
D14*
%TO.C,C7*%
X169150000Y-140375000D03*
X169150000Y-138825000D03*
%TD*%
D19*
%TO.C,C29*%
X190135000Y-145565000D03*
X191685000Y-145565000D03*
%TD*%
D15*
%TO.C,C30*%
X196640000Y-140065000D03*
X196640000Y-141615000D03*
%TD*%
D21*
%TO.C,C10*%
X169908217Y-147925000D03*
X168358217Y-147925000D03*
%TD*%
D29*
%TO.C,U8*%
X158450000Y-135070000D03*
X158450000Y-134120000D03*
X158450000Y-133170000D03*
X156050000Y-133170000D03*
X156050000Y-135070000D03*
%TD*%
D21*
%TO.C,C19*%
X187300000Y-133675000D03*
X185750000Y-133675000D03*
%TD*%
D19*
%TO.C,C23*%
X192895000Y-138420000D03*
X194445000Y-138420000D03*
%TD*%
D13*
%TO.C,L6*%
X187975000Y-143180000D03*
X187975000Y-145480000D03*
%TD*%
D19*
%TO.C,C41*%
X143775000Y-133950000D03*
X145325000Y-133950000D03*
%TD*%
D29*
%TO.C,U7*%
X147400000Y-145600000D03*
X147400000Y-144650000D03*
X147400000Y-143700000D03*
X145000000Y-143700000D03*
X145000000Y-145600000D03*
%TD*%
D17*
%TO.C,L5*%
X201630000Y-140100000D03*
X203930000Y-140100000D03*
%TD*%
D14*
%TO.C,C6*%
X170775000Y-140400000D03*
X170775000Y-138850000D03*
%TD*%
D17*
%TO.C,L4*%
X192630000Y-140090000D03*
X194930000Y-140090000D03*
%TD*%
D30*
%TO.C,D4*%
X129200000Y-143875000D03*
X129200000Y-148375000D03*
%TD*%
D18*
%TO.C,C44*%
X147775000Y-148050000D03*
X144825000Y-148050000D03*
%TD*%
D19*
%TO.C,C32*%
X211090000Y-140505000D03*
X212640000Y-140505000D03*
%TD*%
D15*
%TO.C,C34*%
X220235000Y-140560000D03*
X220235000Y-142110000D03*
%TD*%
D21*
%TO.C,C26*%
X211587000Y-142852000D03*
X210037000Y-142852000D03*
%TD*%
D31*
%TO.C,Y1*%
X181625000Y-136325000D03*
X183725000Y-136325000D03*
X183725000Y-134675000D03*
X181625000Y-134675000D03*
%TD*%
D17*
%TO.C,L7*%
X216155000Y-140575000D03*
X218455000Y-140575000D03*
%TD*%
D32*
%TO.C,U6*%
X136450000Y-134300000D03*
X136450000Y-135250000D03*
X136450000Y-136200000D03*
X139150000Y-136200000D03*
X139150000Y-134300000D03*
%TD*%
D19*
%TO.C,C28*%
X190175000Y-143485000D03*
X191725000Y-143485000D03*
%TD*%
D33*
%TO.C,J6*%
X224100000Y-140625000D03*
X224100000Y-136375000D03*
X224100000Y-144875000D03*
%TD*%
D19*
%TO.C,C38*%
X128550000Y-141975000D03*
X130100000Y-141975000D03*
%TD*%
D15*
%TO.C,C2*%
X185000000Y-147500000D03*
X185000000Y-149050000D03*
%TD*%
D19*
%TO.C,C27*%
X210135000Y-138200000D03*
X211685000Y-138200000D03*
%TD*%
D14*
%TO.C,C9*%
X179700000Y-134850000D03*
X179700000Y-133300000D03*
%TD*%
M02*
