M48
; DRILL file {KiCad 6.0.0} date Mon 11 Apr 2022 07:56:16 PM CDT
; FORMAT={-:-/ absolute / inch / decimal}
; #@! TF.CreationDate,2022-04-11T19:56:16-05:00
; #@! TF.GenerationSoftware,Kicad,Pcbnew,6.0.0
; #@! TF.FileFunction,Plated,1,2,PTH
FMAT,2
INCH
; #@! TA.AperFunction,Plated,PTH,ViaDrill
T1C0.0157
; #@! TA.AperFunction,Plated,PTH,ComponentDrill
T2C0.0157
; #@! TA.AperFunction,Plated,PTH,ComponentDrill
T3C0.0256
; #@! TA.AperFunction,Plated,PTH,ComponentDrill
T4C0.0394
; #@! TA.AperFunction,Plated,PTH,ComponentDrill
T5C0.0866
%
G90
G05
T1
X5.0669Y-5.4744
X5.3689Y-5.2472
X5.5597Y-5.2253
X5.7106Y-5.6112
X6.0035Y-5.315
X6.185Y-5.2854
X6.3664Y-5.6512
X6.3665Y-5.5961
X6.4315Y-5.5984
X6.4675Y-5.3081
X6.4872Y-5.7096
X6.4996Y-5.6551
X6.5394Y-5.687
X6.5423Y-5.4016
X6.6571Y-5.2224
X6.6614Y-5.6575
X6.6654Y-5.2776
X6.7657Y-5.8278
X6.7776Y-5.2776
X6.815Y-5.4956
X6.8287Y-5.5591
X6.8504Y-5.4606
X6.8709Y-5.6645
X6.872Y-5.498
X6.8957Y-5.2854
X6.9091Y-5.4087
X6.9272Y-5.8012
X6.9337Y-5.4419
X6.939Y-5.376
X6.985Y-5.3886
X6.9941Y-5.2835
X7.0305Y-5.8366
X7.0433Y-5.3848
X7.063Y-5.8061
X7.0886Y-5.8378
X7.123Y-5.8142
X7.1467Y-5.8819
X7.1565Y-5.8425
X7.2047Y-5.4488
X7.2063Y-5.7413
X7.2445Y-5.7555
X7.2665Y-5.2476
X7.2726Y-5.7244
X7.2963Y-5.7579
X7.4094Y-5.8248
X7.439Y-5.2943
X7.439Y-5.3652
X7.4488Y-5.5827
X7.4537Y-5.8002
X7.5098Y-5.2943
X7.5098Y-5.3652
X7.5817Y-5.2953
X7.5817Y-5.3661
X7.6407Y-5.8307
X7.6417Y-5.5906
X7.6526Y-5.2953
X7.6526Y-5.3661
X7.7116Y-5.8307
X7.7126Y-5.6614
X7.7234Y-5.2953
X7.7234Y-5.3661
X7.7825Y-5.8307
X7.7835Y-5.6614
X7.7953Y-5.2953
X7.7953Y-5.3661
X7.7953Y-5.437
X7.8533Y-5.8307
X7.8661Y-5.2953
X7.8661Y-5.3661
X7.8661Y-5.437
X7.8661Y-5.5906
X7.8661Y-5.6614
X7.9281Y-5.8307
X7.937Y-5.2953
X7.937Y-5.3661
X7.937Y-5.437
X7.937Y-5.5906
X7.937Y-5.6614
X7.999Y-5.8307
X8.0079Y-5.2953
X8.0079Y-5.3661
X8.0079Y-5.437
X8.0079Y-5.5906
X8.0079Y-5.6614
X8.0699Y-5.8307
X8.0787Y-5.2953
X8.0787Y-5.3661
X8.0787Y-5.437
X8.1407Y-5.8307
X8.1417Y-5.7589
X8.1496Y-5.2953
X8.1496Y-5.3661
X8.151Y-5.4325
X8.1988Y-5.8293
X8.1998Y-5.7585
X8.2031Y-5.6831
X8.2057Y-5.2939
X8.2057Y-5.3648
X8.2091Y-5.4311
X8.2736Y-5.2959
X8.276Y-5.6821
X8.3406Y-5.3638
X8.3406Y-5.8303
X8.3425Y-5.7585
X8.3449Y-5.6831
X8.3455Y-5.2939
X8.4085Y-5.4327
X8.4872Y-5.4642
X8.5157Y-5.6138
X8.5965Y-5.6138
X8.6329Y-5.4652
X8.7047Y-5.4652
X8.7559Y-5.2181
X8.7559Y-5.289
X8.7559Y-5.7821
X8.7559Y-5.853
X8.7736Y-5.5931
X8.7756Y-5.4652
X8.8268Y-5.2181
X8.8268Y-5.289
X8.8268Y-5.7821
X8.8268Y-5.853
X8.8445Y-5.5931
X8.8465Y-5.4642
T2
X5.3524Y-5.7972
X5.3714Y-5.7513
X5.3714Y-5.8432
X5.4173Y-5.7323
X5.4173Y-5.8622
X5.4633Y-5.7513
X5.4633Y-5.8432
X5.4823Y-5.7972
X8.4822Y-5.7786
X8.4864Y-5.3112
X8.5013Y-5.7327
X8.5013Y-5.8246
X8.5054Y-5.2653
X8.5054Y-5.3572
X8.5472Y-5.7137
X8.5472Y-5.8436
X8.5514Y-5.2463
X8.5514Y-5.3762
X8.5931Y-5.7327
X8.5931Y-5.8246
X8.5973Y-5.2653
X8.5973Y-5.3572
X8.6122Y-5.7786
X8.6163Y-5.3112
T3
X6.2506Y-5.8553
X6.3006Y-5.8553
X6.3506Y-5.8553
X6.4006Y-5.8553
T4
X5.2087Y-5.3803
X5.2087Y-5.4803
X5.2311Y-5.6366
X5.2311Y-5.7366
X5.358Y-5.4762
X5.3925Y-5.628
X5.458Y-5.4762
X5.4925Y-5.628
X5.558Y-5.4762
X5.5925Y-5.628
X5.658Y-5.4762
X5.758Y-5.4762
X5.9026Y-5.4193
X5.9222Y-5.5998
X5.9222Y-5.6998
X6.0026Y-5.4193
X6.0222Y-5.5998
X6.0222Y-5.6998
X6.1026Y-5.4193
X6.1222Y-5.5998
X6.1222Y-5.6998
X6.2026Y-5.4193
X6.2222Y-5.5998
X6.2222Y-5.6998
X6.3026Y-5.4193
X6.4026Y-5.4193
T5
X5.4173Y-5.7972
X8.5472Y-5.7786
X8.5514Y-5.3112
T0
M30
