%TF.GenerationSoftware,KiCad,Pcbnew,6.0.0*%
%TF.CreationDate,2022-04-11T19:56:14-05:00*%
%TF.ProjectId,main_board_bodged,6d61696e-5f62-46f6-9172-645f626f6467,rev?*%
%TF.SameCoordinates,Original*%
%TF.FileFunction,Copper,L2,Bot*%
%TF.FilePolarity,Positive*%
%FSLAX46Y46*%
G04 Gerber Fmt 4.6, Leading zero omitted, Abs format (unit mm)*
G04 Created by KiCad (PCBNEW 6.0.0) date 2022-04-11 19:56:14*
%MOMM*%
%LPD*%
G01*
G04 APERTURE LIST*
%ADD10C,0.150000*%
%TA.AperFunction,NonConductor*%
%ADD11C,0.150000*%
%TD*%
%TA.AperFunction,ComponentPad*%
%ADD12R,1.000000X1.000000*%
%TD*%
%TA.AperFunction,ComponentPad*%
%ADD13O,1.000000X1.000000*%
%TD*%
%TA.AperFunction,ComponentPad*%
%ADD14R,1.700000X1.700000*%
%TD*%
%TA.AperFunction,ComponentPad*%
%ADD15O,1.700000X1.700000*%
%TD*%
%TA.AperFunction,ComponentPad*%
%ADD16C,0.700000*%
%TD*%
%TA.AperFunction,ComponentPad*%
%ADD17C,4.400000*%
%TD*%
%TA.AperFunction,SMDPad,CuDef*%
%ADD18R,5.080000X1.500000*%
%TD*%
%TA.AperFunction,ViaPad*%
%ADD19C,0.800000*%
%TD*%
%TA.AperFunction,Conductor*%
%ADD20C,0.400000*%
%TD*%
%TA.AperFunction,Conductor*%
%ADD21C,1.200000*%
%TD*%
%TA.AperFunction,Conductor*%
%ADD22C,0.800000*%
%TD*%
%TA.AperFunction,Conductor*%
%ADD23C,0.200000*%
%TD*%
%TA.AperFunction,Conductor*%
%ADD24C,0.600000*%
%TD*%
%TA.AperFunction,Conductor*%
%ADD25C,1.450000*%
%TD*%
G04 APERTURE END LIST*
D10*
D11*
X202603571Y-133292857D02*
X202336904Y-133292857D01*
X202222619Y-133711904D02*
X202603571Y-133711904D01*
X202603571Y-132911904D01*
X202222619Y-132911904D01*
X201917857Y-133483333D02*
X201536904Y-133483333D01*
X201994047Y-133711904D02*
X201727380Y-132911904D01*
X201460714Y-133711904D01*
X201308333Y-132911904D02*
X200851190Y-132911904D01*
X201079761Y-133711904D02*
X201079761Y-132911904D01*
X200584523Y-133711904D02*
X200584523Y-132911904D01*
X200127380Y-133711904D02*
X200470238Y-133254761D01*
X200127380Y-132911904D02*
X200584523Y-133369047D01*
X199784523Y-133711904D02*
X199784523Y-132911904D01*
X199403571Y-133711904D02*
X199403571Y-132911904D01*
X198946428Y-133711904D01*
X198946428Y-132911904D01*
X198603571Y-133673809D02*
X198489285Y-133711904D01*
X198298809Y-133711904D01*
X198222619Y-133673809D01*
X198184523Y-133635714D01*
X198146428Y-133559523D01*
X198146428Y-133483333D01*
X198184523Y-133407142D01*
X198222619Y-133369047D01*
X198298809Y-133330952D01*
X198451190Y-133292857D01*
X198527380Y-133254761D01*
X198565476Y-133216666D01*
X198603571Y-133140476D01*
X198603571Y-133064285D01*
X198565476Y-132988095D01*
X198527380Y-132950000D01*
X198451190Y-132911904D01*
X198260714Y-132911904D01*
X198146428Y-132950000D01*
X197651190Y-132911904D02*
X197498809Y-132911904D01*
X197422619Y-132950000D01*
X197346428Y-133026190D01*
X197308333Y-133178571D01*
X197308333Y-133445238D01*
X197346428Y-133597619D01*
X197422619Y-133673809D01*
X197498809Y-133711904D01*
X197651190Y-133711904D01*
X197727380Y-133673809D01*
X197803571Y-133597619D01*
X197841666Y-133445238D01*
X197841666Y-133178571D01*
X197803571Y-133026190D01*
X197727380Y-132950000D01*
X197651190Y-132911904D01*
D12*
%TO.P,J7,1,Pin_1*%
%TO.N,USART1_TX*%
X162575000Y-148725000D03*
D13*
%TO.P,J7,2,Pin_2*%
%TO.N,I2C1_SDA*%
X161305000Y-148725000D03*
%TO.P,J7,3,Pin_3*%
%TO.N,+3V3*%
X160035000Y-148725000D03*
%TO.P,J7,4,Pin_4*%
%TO.N,GND*%
X158765000Y-148725000D03*
%TD*%
D14*
%TO.P,J8,1,Pin_1*%
%TO.N,Net-(D4-Pad2)*%
X132300000Y-139200000D03*
D15*
%TO.P,J8,2,Pin_2*%
%TO.N,GND*%
X132300000Y-136660000D03*
%TD*%
D16*
%TO.P,H1,1,1*%
%TO.N,GND*%
X139250000Y-147250000D03*
X138766726Y-146083274D03*
D17*
X137600000Y-147250000D03*
D16*
X137600000Y-148900000D03*
X137600000Y-145600000D03*
X135950000Y-147250000D03*
X136433274Y-146083274D03*
X138766726Y-148416726D03*
X136433274Y-148416726D03*
%TD*%
D14*
%TO.P,J3,1,Pin_1*%
%TO.N,GND*%
X149925000Y-137650000D03*
D15*
%TO.P,J3,2,Pin_2*%
%TO.N,+5V_GPS*%
X152465000Y-137650000D03*
%TO.P,J3,3,Pin_3*%
%TO.N,USART1_RX*%
X155005000Y-137650000D03*
%TO.P,J3,4,Pin_4*%
%TO.N,GPS_STATE*%
X157545000Y-137650000D03*
%TO.P,J3,5,Pin_5*%
%TO.N,GND*%
X160085000Y-137650000D03*
%TO.P,J3,6,Pin_6*%
%TO.N,unconnected-(J3-Pad6)*%
X162625000Y-137650000D03*
%TD*%
D14*
%TO.P,J2,1,Pin_1*%
%TO.N,+3V3_RFID*%
X150425000Y-144775000D03*
D15*
%TO.P,J2,2,Pin_2*%
%TO.N,RFID_LED*%
X150425000Y-142235000D03*
%TO.P,J2,3,Pin_3*%
%TO.N,I2C1_SCL*%
X152965000Y-144775000D03*
%TO.P,J2,4,Pin_4*%
%TO.N,RFID_DATA1*%
X152965000Y-142235000D03*
%TO.P,J2,5,Pin_5*%
%TO.N,RFID_NRST*%
X155505000Y-144775000D03*
%TO.P,J2,6,Pin_6*%
%TO.N,RFID_TAG_IN_RANGE*%
X155505000Y-142235000D03*
%TO.P,J2,7,Pin_7*%
%TO.N,GND*%
X158045000Y-144775000D03*
%TO.P,J2,8,Pin_8*%
X158045000Y-142235000D03*
%TD*%
D16*
%TO.P,H2,1,1*%
%TO.N,GND*%
X218855000Y-134905000D03*
X217205000Y-136555000D03*
X217205000Y-133255000D03*
X218371726Y-136071726D03*
X218371726Y-133738274D03*
D17*
X217205000Y-134905000D03*
D16*
X216038274Y-136071726D03*
X215555000Y-134905000D03*
X216038274Y-133738274D03*
%TD*%
%TO.P,H4,1,1*%
%TO.N,GND*%
X217099000Y-148427000D03*
X215932274Y-147943726D03*
D17*
X217099000Y-146777000D03*
D16*
X218265726Y-147943726D03*
X215449000Y-146777000D03*
X218749000Y-146777000D03*
X218265726Y-145610274D03*
X217099000Y-145127000D03*
X215932274Y-145610274D03*
%TD*%
D14*
%TO.P,J1,1,Pin_1*%
%TO.N,ALARM_ON*%
X142050000Y-142950000D03*
D15*
%TO.P,J1,2,Pin_2*%
%TO.N,+3V3*%
X139510000Y-142950000D03*
%TO.P,J1,3,Pin_3*%
%TO.N,GND*%
X136970000Y-142950000D03*
%TD*%
D14*
%TO.P,SW1,1,1*%
%TO.N,GND*%
X132870000Y-145710000D03*
D15*
%TO.P,SW1,2,2*%
%TO.N,NRST*%
X132870000Y-143170000D03*
%TD*%
D18*
%TO.P,J6,2,Ext*%
%TO.N,GND*%
X224100000Y-144875000D03*
X224100000Y-136375000D03*
%TD*%
D14*
%TO.P,J5,1,Pin_1*%
%TO.N,+3V3*%
X136093745Y-139096248D03*
D15*
%TO.P,J5,2,Pin_2*%
%TO.N,NRST*%
X138633745Y-139096248D03*
%TO.P,J5,3,Pin_3*%
%TO.N,DEBUG_JTMS_SWDIO*%
X141173745Y-139096248D03*
%TO.P,J5,4,Pin_4*%
%TO.N,DEBUG_JTCK_SWCLK*%
X143713745Y-139096248D03*
%TO.P,J5,5,Pin_5*%
%TO.N,GND*%
X146253745Y-139096248D03*
%TD*%
D19*
%TO.N,GND*%
X184570000Y-133290000D03*
%TO.N,*%
X211975000Y-134465000D03*
%TO.N,+3V3*%
X141216000Y-132723000D03*
X171850000Y-148025000D03*
X181525000Y-149400000D03*
X169090000Y-132650000D03*
%TO.N,GND*%
X204975000Y-148100000D03*
X198000000Y-134500000D03*
X208425000Y-136265000D03*
X219275000Y-138815000D03*
X222900000Y-138815000D03*
X222400000Y-132540000D03*
X188950000Y-136275000D03*
X208510000Y-137950000D03*
X203400000Y-134500000D03*
X199800000Y-142000000D03*
X221100000Y-138815000D03*
X207000000Y-134500000D03*
X211850000Y-148090000D03*
X208425000Y-134465000D03*
X199475000Y-148100000D03*
X207035000Y-137985000D03*
X192575000Y-136300000D03*
X208275000Y-146265000D03*
X194375000Y-134500000D03*
X199800000Y-143800000D03*
X198000000Y-136300000D03*
X213575000Y-137990000D03*
X201600000Y-134500000D03*
X194100000Y-142000000D03*
X201600000Y-138100000D03*
X222400000Y-148665000D03*
X166100000Y-144450000D03*
X224700000Y-138790000D03*
X203175000Y-148100000D03*
X201600000Y-142000000D03*
X203400000Y-142000000D03*
X199800000Y-134500000D03*
X195900000Y-143800000D03*
X224650000Y-142065000D03*
X196175000Y-136300000D03*
X203400000Y-143800000D03*
X192575000Y-134500000D03*
X201600000Y-143800000D03*
X198000000Y-138100000D03*
X169300000Y-134050000D03*
X224200000Y-134340000D03*
X194075000Y-148100000D03*
X206775000Y-148100000D03*
X216300000Y-142590000D03*
X199800000Y-138100000D03*
X203400000Y-138100000D03*
X197700000Y-143800000D03*
X199800000Y-136300000D03*
X208250000Y-148065000D03*
X211900000Y-146265000D03*
X224200000Y-132540000D03*
X207000000Y-136300000D03*
X208360000Y-144350000D03*
X188950000Y-134475000D03*
X189200000Y-141800000D03*
X222400000Y-134340000D03*
X224200000Y-146865000D03*
X203400000Y-136300000D03*
X205200000Y-136300000D03*
X218350000Y-142590000D03*
X211960000Y-144350000D03*
X166175000Y-137200000D03*
X197675000Y-148100000D03*
X205200000Y-138100000D03*
X222400000Y-146865000D03*
X206800000Y-146275000D03*
X215575000Y-138790000D03*
X194375000Y-136300000D03*
X190750000Y-134475000D03*
X211850000Y-136240000D03*
X201375000Y-148100000D03*
X189325000Y-147325000D03*
X222850000Y-142065000D03*
X196175000Y-134500000D03*
X205200000Y-134500000D03*
X169200000Y-143700000D03*
X201600000Y-136300000D03*
X190750000Y-136275000D03*
X195875000Y-148100000D03*
X224200000Y-148665000D03*
%TO.N,Net-(C5-Pad1)*%
X174520489Y-143879511D03*
X175150000Y-134250000D03*
%TO.N,NRST*%
X188200000Y-147950000D03*
%TO.N,RFSW_VC1*%
X181775000Y-148400000D03*
X210210000Y-144325000D03*
%TO.N,RFSW_VC2*%
X172150000Y-134050000D03*
X210150000Y-134515000D03*
%TO.N,+5V*%
X152490000Y-135000000D03*
X128700000Y-139050000D03*
X136370000Y-133280000D03*
%TO.N,ALARM_ON*%
X180925000Y-147680000D03*
%TO.N,RFID_DATA1*%
X180050000Y-148280000D03*
%TO.N,RFID_NRST*%
X175950000Y-147350000D03*
%TO.N,RFID_TAG_IN_RANGE*%
X179400000Y-147475000D03*
%TO.N,GPS_STATE*%
X176250000Y-136550000D03*
%TO.N,DEBUG_JTMS_SWDIO*%
X176115000Y-138225000D03*
%TO.N,DEBUG_JTCK_SWCLK*%
X173450000Y-141200000D03*
%TO.N,Net-(C47-Pad1)*%
X183000000Y-138400000D03*
X177650000Y-134200000D03*
%TO.N,I2C1_SCL*%
X178575000Y-148250000D03*
%TO.N,Net-(TP1-Pad1)*%
X164275000Y-134825000D03*
X178900000Y-136775000D03*
%TO.N,GPS_~{PWR}*%
X183040000Y-145830000D03*
X157100000Y-134250000D03*
%TO.N,RFID_~{PWR}*%
X184010000Y-146190000D03*
X145050000Y-142525000D03*
%TO.N,Net-(TP2-Pad1)*%
X165090000Y-143640000D03*
X185325000Y-146250000D03*
%TO.N,Net-(TP4-Pad1)*%
X173100000Y-139589259D03*
X163360000Y-142200000D03*
%TO.N,Net-(TP5-Pad1)*%
X174550000Y-139650000D03*
X161705495Y-143540489D03*
%TO.N,Net-(TP6-Pad1)*%
X164775000Y-145025000D03*
X184725000Y-145400000D03*
%TO.N,Net-(TP7-Pad1)*%
X161710000Y-142140000D03*
X174000000Y-138700000D03*
%TO.N,USART1_RX*%
X177420000Y-136870000D03*
%TO.N,RFID_DATA0*%
X175490000Y-137380000D03*
%TD*%
D20*
%TO.N,+3V3*%
X181525000Y-149400000D02*
X181170000Y-149400000D01*
X171850000Y-148025000D02*
X173345000Y-149520000D01*
X160035000Y-149432106D02*
X160252874Y-149649980D01*
D21*
X169017000Y-132723000D02*
X169090000Y-132650000D01*
D20*
X173345000Y-149520000D02*
X181050000Y-149520000D01*
X181170000Y-149400000D02*
X181050000Y-149520000D01*
D22*
X171850000Y-148025000D02*
X170425020Y-149449980D01*
D21*
X141216000Y-132723000D02*
X169017000Y-132723000D01*
D20*
X160252874Y-149649980D02*
X170225020Y-149649980D01*
X170225020Y-149649980D02*
X171850000Y-148025000D01*
X160035000Y-148725000D02*
X160035000Y-149432106D01*
D23*
%TO.N,Net-(C5-Pad1)*%
X178864259Y-135750000D02*
X179599511Y-136485252D01*
X176710741Y-134250000D02*
X178210741Y-135750000D01*
X179599511Y-136485252D02*
X179599511Y-138800489D01*
X178210741Y-135750000D02*
X178864259Y-135750000D01*
X174520489Y-143879511D02*
X179599511Y-138800489D01*
X175150000Y-134250000D02*
X176710741Y-134250000D01*
%TO.N,NRST*%
X149614031Y-140685969D02*
X146990000Y-143310000D01*
X170256463Y-145598069D02*
X165375000Y-145598069D01*
X173588535Y-145777581D02*
X179481846Y-145777581D01*
X140607497Y-141070000D02*
X138633745Y-139096248D01*
X143080000Y-141770000D02*
X143080000Y-141640000D01*
X182038070Y-147748070D02*
X181230000Y-146940000D01*
X142510000Y-141070000D02*
X140607497Y-141070000D01*
X173588535Y-145777581D02*
X173085954Y-145275000D01*
X165195490Y-145777579D02*
X162377580Y-145777580D01*
X165375000Y-145598069D02*
X165195490Y-145777579D01*
X170579532Y-145275000D02*
X170256463Y-145598069D01*
X146990000Y-143310000D02*
X144620000Y-143310000D01*
X181230000Y-146940000D02*
X180644265Y-146940000D01*
X180644265Y-146940000D02*
X179481846Y-145777581D01*
X158686630Y-140685969D02*
X149614031Y-140685969D01*
X143080000Y-141640000D02*
X142510000Y-141070000D01*
X134559993Y-143170000D02*
X138633745Y-139096248D01*
X159594031Y-142994031D02*
X159594031Y-141593370D01*
X159594031Y-141593370D02*
X158686630Y-140685969D01*
X173085954Y-145275000D02*
X170579532Y-145275000D01*
X159594031Y-142994031D02*
X162377580Y-145777580D01*
X188200000Y-147950000D02*
X187998070Y-147748070D01*
X144620000Y-143310000D02*
X143080000Y-141770000D01*
X187998070Y-147748070D02*
X182038070Y-147748070D01*
X132870000Y-143170000D02*
X134559993Y-143170000D01*
D24*
%TO.N,RFSW_VC1*%
X208597102Y-148990000D02*
X210210000Y-147377102D01*
D20*
X181775000Y-148400000D02*
X182400000Y-149025000D01*
D24*
X210210000Y-147377102D02*
X210210000Y-144325000D01*
X208471169Y-148999511D02*
X182396613Y-148999511D01*
X181797102Y-148400000D02*
X181775000Y-148400000D01*
X182422102Y-149025000D02*
X181797102Y-148400000D01*
X208622102Y-148990000D02*
X208480680Y-148990000D01*
X182396613Y-148999511D02*
X182098551Y-148701449D01*
X208480680Y-148990000D02*
X208471169Y-148999511D01*
%TO.N,RFSW_VC2*%
X172150000Y-133300000D02*
X172150000Y-134050000D01*
X210150000Y-134515000D02*
X210150000Y-134115000D01*
X210150000Y-134115000D02*
X208350000Y-132315000D01*
X173135000Y-132315000D02*
X172150000Y-133300000D01*
X208350000Y-132315000D02*
X173135000Y-132315000D01*
D25*
%TO.N,+5V*%
X128535000Y-138885000D02*
X128700000Y-139050000D01*
X138090000Y-135000000D02*
X152490000Y-135000000D01*
X136370000Y-133280000D02*
X138090000Y-135000000D01*
X131080000Y-133280000D02*
X136370000Y-133280000D01*
X128260000Y-136100000D02*
X131080000Y-133280000D01*
X128535000Y-136125000D02*
X128535000Y-138885000D01*
D23*
%TO.N,ALARM_ON*%
X180925000Y-148800480D02*
X180925000Y-147500000D01*
X146875180Y-147775180D02*
X166250400Y-147775180D01*
X175824511Y-148899511D02*
X175824511Y-148924511D01*
X142050000Y-142950000D02*
X146875180Y-147775180D01*
X172242977Y-147282023D02*
X172736132Y-147775178D01*
X180725000Y-149000480D02*
X180925000Y-148800480D01*
X171253953Y-147600579D02*
X171554532Y-147300000D01*
X172225000Y-147300000D02*
X172242977Y-147282023D01*
X171554532Y-147300000D02*
X172225000Y-147300000D01*
X166425000Y-147600580D02*
X171253953Y-147600579D01*
X174700178Y-147775178D02*
X175824511Y-148899511D01*
X172736132Y-147775178D02*
X174700178Y-147775178D01*
X175824511Y-148924511D02*
X175900480Y-149000480D01*
X166250400Y-147775180D02*
X166425000Y-147600580D01*
X175900480Y-149000480D02*
X180725000Y-149000480D01*
%TO.N,RFID_DATA1*%
X172920468Y-145674520D02*
X173423049Y-146177101D01*
X173423049Y-146177101D02*
X179316360Y-146177101D01*
X154114511Y-141085489D02*
X158521144Y-141085489D01*
X158521144Y-141085489D02*
X159194511Y-141758856D01*
X162212094Y-146177100D02*
X165470490Y-146177099D01*
X159194511Y-141758856D02*
X159194511Y-143159517D01*
X159194511Y-143159517D02*
X162212094Y-146177100D01*
X180099511Y-146960251D02*
X180099511Y-148230489D01*
X180099511Y-148230489D02*
X180050000Y-148280000D01*
X165650000Y-145997589D02*
X170421950Y-145997588D01*
X170745018Y-145674520D02*
X172920468Y-145674520D01*
X165470490Y-146177099D02*
X165650000Y-145997589D01*
X170421950Y-145997588D02*
X170745018Y-145674520D01*
X179316360Y-146177101D02*
X180099511Y-146960252D01*
X152965000Y-142235000D02*
X154114511Y-141085489D01*
%TO.N,RFID_NRST*%
X170927894Y-146796626D02*
X167728373Y-146796627D01*
X175576140Y-146976140D02*
X173092076Y-146976140D01*
X175576140Y-146976140D02*
X175950000Y-147350000D01*
X166012115Y-146800000D02*
X165835976Y-146976139D01*
X157706141Y-146976141D02*
X160598859Y-146976141D01*
X167728373Y-146796627D02*
X167725000Y-146800000D01*
X157706141Y-146976141D02*
X155505000Y-144775000D01*
X173092076Y-146976140D02*
X172590456Y-146474520D01*
X160598859Y-146976141D02*
X160598861Y-146976139D01*
X172590456Y-146474520D02*
X171250000Y-146474520D01*
X165835976Y-146976139D02*
X160598861Y-146976139D01*
X167725000Y-146800000D02*
X166012115Y-146800000D01*
X171250000Y-146474520D02*
X170927894Y-146796626D01*
%TO.N,RFID_TAG_IN_RANGE*%
X165670489Y-146576619D02*
X165850000Y-146397109D01*
X155505000Y-142235000D02*
X156654511Y-143384511D01*
X179400000Y-147000000D02*
X179400000Y-147475000D01*
X156654511Y-143384511D02*
X158280166Y-143384511D01*
X178976621Y-146576621D02*
X179400000Y-147000000D01*
X165850000Y-146397109D02*
X170587437Y-146397107D01*
X161472274Y-146576619D02*
X165670489Y-146576619D01*
X158280166Y-143384511D02*
X161472274Y-146576619D01*
X173257562Y-146576620D02*
X178976621Y-146576621D01*
X170909544Y-146075000D02*
X172755942Y-146075000D01*
X170587437Y-146397107D02*
X170909544Y-146075000D01*
X172755942Y-146075000D02*
X173257562Y-146576620D01*
%TO.N,GPS_STATE*%
X176250000Y-136550000D02*
X175708560Y-136008560D01*
X175708560Y-136008560D02*
X159186440Y-136008560D01*
X159186440Y-136008560D02*
X157545000Y-137650000D01*
%TO.N,DEBUG_JTMS_SWDIO*%
X175140006Y-138225000D02*
X174502987Y-137587981D01*
X174502987Y-137587981D02*
X166777674Y-137587981D01*
X176115000Y-138225000D02*
X175140006Y-138225000D01*
X166777674Y-137587981D02*
X165399404Y-138966251D01*
X142323745Y-137946248D02*
X146763745Y-137946248D01*
X141173745Y-139096248D02*
X142323745Y-137946248D01*
X165399404Y-138966251D02*
X147783749Y-138966251D01*
X146763745Y-137946248D02*
X147783749Y-138966251D01*
%TO.N,DEBUG_JTCK_SWCLK*%
X175200000Y-141850000D02*
X176400000Y-140650000D01*
X144863745Y-140246248D02*
X148291814Y-140246248D01*
X143713745Y-139096248D02*
X144863745Y-140246248D01*
X174100000Y-141850000D02*
X175200000Y-141850000D01*
X175249511Y-138899511D02*
X174337500Y-137987500D01*
X149119031Y-139419031D02*
X165511631Y-139419030D01*
X175899511Y-138899511D02*
X175249511Y-138899511D01*
X165511631Y-139419030D02*
X166630670Y-138299991D01*
X166630670Y-138299991D02*
X173410750Y-138299991D01*
X173410750Y-138299991D02*
X173723241Y-137987500D01*
X176400000Y-140650000D02*
X176400000Y-139400000D01*
X173450000Y-141200000D02*
X174100000Y-141850000D01*
X176400000Y-139400000D02*
X175899511Y-138899511D01*
X148291814Y-140246248D02*
X149119031Y-139419031D01*
X173723241Y-137987500D02*
X174337500Y-137987500D01*
%TO.N,Net-(C47-Pad1)*%
X183000000Y-138399022D02*
X183000000Y-138400000D01*
X178800978Y-134200000D02*
X183000000Y-138399022D01*
X177650000Y-134200000D02*
X178800978Y-134200000D01*
%TO.N,I2C1_SCL*%
X152965000Y-144775000D02*
X155565661Y-147375661D01*
X171415486Y-146874040D02*
X172400000Y-146874040D01*
X171088466Y-147201060D02*
X171415486Y-146874040D01*
X174925659Y-147375659D02*
X175775000Y-148225000D01*
X178245003Y-148579997D02*
X178575000Y-148250000D01*
X172400000Y-146874040D02*
X172901619Y-147375659D01*
X172901619Y-147375659D02*
X174925659Y-147375659D01*
X175775000Y-148284994D02*
X176070003Y-148579997D01*
X175775000Y-148225000D02*
X175775000Y-148284994D01*
X166176061Y-147201060D02*
X171088466Y-147201060D01*
X176070003Y-148579997D02*
X178245003Y-148579997D01*
X166001460Y-147375661D02*
X166176061Y-147201060D01*
X155565661Y-147375661D02*
X166001460Y-147375661D01*
%TO.N,Net-(TP1-Pad1)*%
X178295489Y-136170489D02*
X178900000Y-136775000D01*
X177424754Y-136170489D02*
X178295489Y-136170489D01*
X164525000Y-135200000D02*
X176454265Y-135200000D01*
X176454265Y-135200000D02*
X177424754Y-136170489D01*
X164275000Y-134950000D02*
X164525000Y-135200000D01*
X164275000Y-134825000D02*
X164275000Y-134950000D01*
%TO.N,GPS_~{PWR}*%
X165200000Y-134775000D02*
X165200000Y-134760741D01*
X183500000Y-137872113D02*
X183500000Y-137910741D01*
X157224511Y-134125489D02*
X157100000Y-134250000D01*
X183699511Y-138689748D02*
X183189259Y-139200000D01*
X183699511Y-138110252D02*
X183699511Y-138689748D01*
X182450000Y-139200000D02*
X181350000Y-140300000D01*
X165200000Y-134760741D02*
X164564748Y-134125489D01*
X164564748Y-134125489D02*
X157224511Y-134125489D01*
X181350000Y-140300000D02*
X181350000Y-144025000D01*
X165200000Y-134775000D02*
X173635740Y-134775000D01*
X178877887Y-133250000D02*
X183500000Y-137872113D01*
X173635740Y-134775000D02*
X175160741Y-133250000D01*
X175160741Y-133250000D02*
X178877887Y-133250000D01*
X183189259Y-139200000D02*
X182450000Y-139200000D01*
X183500000Y-137910741D02*
X183699511Y-138110252D01*
X181350000Y-144025000D02*
X183175000Y-145850000D01*
%TO.N,RFID_~{PWR}*%
X149448545Y-140286449D02*
X147209994Y-142525000D01*
X159997833Y-141432167D02*
X158837833Y-140272167D01*
X166850000Y-140425000D02*
X163057378Y-144217622D01*
X161415747Y-144240000D02*
X159997833Y-142822086D01*
X158837833Y-140272167D02*
X158823551Y-140286449D01*
X170025000Y-140425000D02*
X166850000Y-140425000D01*
X163057378Y-144217622D02*
X162017621Y-144217622D01*
X182534529Y-146549511D02*
X181726459Y-145741441D01*
X159997833Y-142822086D02*
X159997833Y-141432167D01*
X161995243Y-144240000D02*
X161415747Y-144240000D01*
X147209994Y-142525000D02*
X145050000Y-142525000D01*
X180039023Y-144579023D02*
X174179022Y-144579022D01*
X181726459Y-145741441D02*
X181201441Y-145741441D01*
X183700489Y-146549511D02*
X182534529Y-146549511D01*
X158823551Y-140286449D02*
X149448545Y-140286449D01*
X162017621Y-144217622D02*
X161995243Y-144240000D01*
X174179022Y-144579022D02*
X170025000Y-140425000D01*
X184125000Y-146125000D02*
X183700489Y-146549511D01*
X181201441Y-145741441D02*
X180039023Y-144579023D01*
%TO.N,Net-(TP2-Pad1)*%
X181560972Y-146140960D02*
X180975486Y-146140960D01*
X180975486Y-146140960D02*
X179813068Y-144978542D01*
X169825000Y-140824520D02*
X167150000Y-140824520D01*
X167150000Y-140824520D02*
X165650000Y-142324520D01*
X185325000Y-146250000D02*
X184625970Y-146949030D01*
X165650000Y-142324520D02*
X165650000Y-143080000D01*
X173929021Y-144978541D02*
X179813068Y-144978542D01*
X184625970Y-146949030D02*
X182369042Y-146949030D01*
X182369042Y-146949030D02*
X181560972Y-146140960D01*
X169825000Y-140874520D02*
X169825000Y-140824520D01*
X165650000Y-143080000D02*
X165090000Y-143640000D01*
X173929021Y-144978541D02*
X169825000Y-140874520D01*
%TO.N,Net-(TP4-Pad1)*%
X163360000Y-141360000D02*
X164390000Y-140330000D01*
X165730673Y-140330000D02*
X166471414Y-139589259D01*
X163360000Y-142200000D02*
X163360000Y-141360000D01*
X173100000Y-139589259D02*
X166471414Y-139589259D01*
X164390000Y-140330000D02*
X165730673Y-140330000D01*
%TO.N,Net-(TP5-Pad1)*%
X172138770Y-140288770D02*
X171838779Y-139988779D01*
X161705495Y-143540489D02*
X163085190Y-143540489D01*
X171838779Y-139988779D02*
X166636900Y-139988779D01*
X163085190Y-143540489D02*
X166636900Y-139988779D01*
X173911230Y-140288770D02*
X172138770Y-140288770D01*
X174550000Y-139650000D02*
X173911230Y-140288770D01*
%TO.N,Net-(TP6-Pad1)*%
X170090976Y-145198550D02*
X170415486Y-144874040D01*
X185215710Y-147348550D02*
X182203556Y-147348550D01*
X182203556Y-147348550D02*
X181395486Y-146540480D01*
X170415486Y-144874040D02*
X173250000Y-144874040D01*
X186024511Y-146539748D02*
X185215710Y-147348550D01*
X179647582Y-145378062D02*
X179201942Y-145378062D01*
X180810000Y-146540480D02*
X179647582Y-145378062D01*
X185500000Y-145400000D02*
X186024511Y-145924511D01*
X164775000Y-145025000D02*
X164948549Y-145198549D01*
X179201942Y-145378062D02*
X179201940Y-145378060D01*
X173754021Y-145378061D02*
X174350000Y-145378060D01*
X174350000Y-145378060D02*
X179201940Y-145378060D01*
X173250000Y-144874040D02*
X173754021Y-145378061D01*
X186024511Y-145924511D02*
X186024511Y-146539748D01*
X184725000Y-145400000D02*
X185500000Y-145400000D01*
X181395486Y-146540480D02*
X180810000Y-146540480D01*
X164948549Y-145198549D02*
X170090976Y-145198550D01*
X164775000Y-145025000D02*
X164775000Y-145200000D01*
%TO.N,Net-(TP7-Pad1)*%
X162510000Y-139818550D02*
X161710000Y-140618550D01*
X165677117Y-139818550D02*
X162510000Y-139818550D01*
X174000000Y-138700000D02*
X173999511Y-138699511D01*
X166796156Y-138699511D02*
X165677117Y-139818550D01*
X173999511Y-138699511D02*
X166796156Y-138699511D01*
X161710000Y-140618550D02*
X161710000Y-142140000D01*
%TO.N,USART1_RX*%
X177420000Y-136870000D02*
X177420000Y-136730741D01*
X177420000Y-136730741D02*
X176298299Y-135609040D01*
X157045960Y-135609040D02*
X155005000Y-137650000D01*
X176298299Y-135609040D02*
X157045960Y-135609040D01*
%TO.N,RFID_DATA0*%
X162625000Y-137650000D02*
X163866920Y-136408080D01*
X175308080Y-136408080D02*
X175490000Y-136590000D01*
X175490000Y-136590000D02*
X175490000Y-137380000D01*
X163866920Y-136408080D02*
X175308080Y-136408080D01*
%TD*%
%TA.AperFunction,Conductor*%
%TO.N,GND*%
G36*
X226746073Y-131778927D02*
G01*
X226749500Y-131787200D01*
X226749500Y-149862800D01*
X226746073Y-149871073D01*
X226737800Y-149874500D01*
X226345250Y-149874500D01*
X186275000Y-149825000D01*
X181976479Y-149828984D01*
X181968203Y-149825565D01*
X181964768Y-149817295D01*
X181967186Y-149810162D01*
X182049065Y-149703455D01*
X182049065Y-149703454D01*
X182049536Y-149702841D01*
X182110044Y-149556762D01*
X182124224Y-149449053D01*
X182128701Y-149441298D01*
X182137351Y-149438980D01*
X182142841Y-149441218D01*
X182178609Y-149468025D01*
X182178611Y-149468026D01*
X182179278Y-149468526D01*
X182180058Y-149468819D01*
X182180061Y-149468820D01*
X182243500Y-149492602D01*
X182313521Y-149518852D01*
X182456493Y-149529476D01*
X182457307Y-149529302D01*
X182457310Y-149529302D01*
X182578894Y-149503347D01*
X182593314Y-149500269D01*
X182595756Y-149500011D01*
X208413755Y-149500011D01*
X208416337Y-149500299D01*
X208430616Y-149503530D01*
X208431441Y-149503479D01*
X208431443Y-149503479D01*
X208486978Y-149500033D01*
X208487703Y-149500011D01*
X208507109Y-149500011D01*
X208521761Y-149497913D01*
X208522690Y-149497817D01*
X208532137Y-149497231D01*
X208572875Y-149494704D01*
X208572878Y-149494703D01*
X208573707Y-149494652D01*
X208574492Y-149494369D01*
X208574495Y-149494368D01*
X208577807Y-149493172D01*
X208581055Y-149492498D01*
X208612912Y-149490522D01*
X208613635Y-149490500D01*
X208658042Y-149490500D01*
X208691803Y-149485665D01*
X208692736Y-149485569D01*
X208699640Y-149485141D01*
X208701267Y-149484554D01*
X208703569Y-149483980D01*
X208764020Y-149475323D01*
X208778323Y-149468820D01*
X208893770Y-149416330D01*
X208893772Y-149416328D01*
X208894530Y-149415984D01*
X209003139Y-149322400D01*
X209058885Y-149236395D01*
X209060429Y-149234487D01*
X210523313Y-147771603D01*
X210525343Y-147769981D01*
X210537720Y-147762172D01*
X210575099Y-147719848D01*
X210575596Y-147719320D01*
X210589320Y-147705596D01*
X210598211Y-147693733D01*
X210598786Y-147693027D01*
X210610291Y-147680000D01*
X210632623Y-147654714D01*
X210640783Y-147637334D01*
X210642011Y-147635291D01*
X210653025Y-147620594D01*
X210653526Y-147619926D01*
X210671467Y-147572069D01*
X210671823Y-147571221D01*
X210693553Y-147524939D01*
X210696507Y-147505965D01*
X210697113Y-147503659D01*
X210703557Y-147486469D01*
X210703852Y-147485683D01*
X210707640Y-147434707D01*
X210707747Y-147433776D01*
X210710431Y-147416534D01*
X210710500Y-147416093D01*
X210710500Y-147396654D01*
X210710532Y-147395787D01*
X210712830Y-147364856D01*
X210714476Y-147342711D01*
X210710758Y-147325293D01*
X210710500Y-147322851D01*
X210710500Y-144663137D01*
X210712918Y-144656014D01*
X210734067Y-144628452D01*
X210734536Y-144627841D01*
X210795044Y-144481762D01*
X210815682Y-144325000D01*
X210795044Y-144168238D01*
X210734536Y-144022159D01*
X210721588Y-144005284D01*
X210643596Y-143903643D01*
X210638282Y-143896718D01*
X210568705Y-143843330D01*
X210513455Y-143800935D01*
X210513454Y-143800935D01*
X210512841Y-143800464D01*
X210366762Y-143739956D01*
X210230653Y-143722037D01*
X210210760Y-143719418D01*
X210210000Y-143719318D01*
X210209240Y-143719418D01*
X210189347Y-143722037D01*
X210053238Y-143739956D01*
X209907159Y-143800464D01*
X209906546Y-143800935D01*
X209906545Y-143800935D01*
X209851295Y-143843330D01*
X209781718Y-143896718D01*
X209776404Y-143903643D01*
X209698413Y-144005284D01*
X209685464Y-144022159D01*
X209624956Y-144168238D01*
X209604318Y-144325000D01*
X209624956Y-144481762D01*
X209685464Y-144627841D01*
X209685933Y-144628452D01*
X209707082Y-144656014D01*
X209709500Y-144663137D01*
X209709500Y-147164942D01*
X209706073Y-147173215D01*
X208387976Y-148491312D01*
X208380428Y-148494716D01*
X208378981Y-148494806D01*
X208378975Y-148494807D01*
X208378142Y-148494859D01*
X208377360Y-148495141D01*
X208377357Y-148495142D01*
X208368566Y-148498316D01*
X208364593Y-148499011D01*
X188502572Y-148499011D01*
X188494299Y-148495584D01*
X188490872Y-148487311D01*
X188494299Y-148479038D01*
X188498093Y-148476503D01*
X188502841Y-148474536D01*
X188518896Y-148462217D01*
X188610995Y-148391547D01*
X188628282Y-148378282D01*
X188719242Y-148259740D01*
X188724065Y-148253455D01*
X188724065Y-148253454D01*
X188724536Y-148252841D01*
X188785044Y-148106762D01*
X188805682Y-147950000D01*
X188785044Y-147793238D01*
X188724536Y-147647159D01*
X188715430Y-147635291D01*
X188631331Y-147525692D01*
X188628282Y-147521718D01*
X188527184Y-147444143D01*
X188503455Y-147425935D01*
X188503454Y-147425935D01*
X188502841Y-147425464D01*
X188356762Y-147364956D01*
X188200000Y-147344318D01*
X188043238Y-147364956D01*
X187897159Y-147425464D01*
X187896549Y-147425932D01*
X187896544Y-147425935D01*
X187871500Y-147445152D01*
X187864378Y-147447570D01*
X185569907Y-147447570D01*
X185561634Y-147444143D01*
X185558207Y-147435870D01*
X185561634Y-147427597D01*
X186200073Y-146789157D01*
X186203208Y-146786919D01*
X186205810Y-146785647D01*
X186205809Y-146785647D01*
X186206780Y-146785173D01*
X186241545Y-146747696D01*
X186241850Y-146747380D01*
X186256759Y-146732471D01*
X186257063Y-146732028D01*
X186259371Y-146728665D01*
X186260440Y-146727328D01*
X186282177Y-146703895D01*
X186282178Y-146703893D01*
X186282912Y-146703102D01*
X186283312Y-146702099D01*
X186283314Y-146702096D01*
X186290777Y-146683388D01*
X186291993Y-146681109D01*
X186304003Y-146663602D01*
X186311634Y-146631447D01*
X186312149Y-146629817D01*
X186313055Y-146627548D01*
X186324394Y-146599126D01*
X186325011Y-146592833D01*
X186325011Y-146576447D01*
X186325327Y-146573745D01*
X186329602Y-146555732D01*
X186329602Y-146555731D01*
X186329851Y-146554682D01*
X186325118Y-146519904D01*
X186325011Y-146518326D01*
X186325011Y-145976731D01*
X186325645Y-145972932D01*
X186326587Y-145970188D01*
X186326937Y-145969169D01*
X186325019Y-145918083D01*
X186325011Y-145917644D01*
X186325011Y-145896563D01*
X186324167Y-145892031D01*
X186323977Y-145890328D01*
X186322778Y-145858384D01*
X186322778Y-145858382D01*
X186322737Y-145857303D01*
X186314356Y-145837795D01*
X186313606Y-145835325D01*
X186312668Y-145830284D01*
X186309720Y-145814458D01*
X186292381Y-145786328D01*
X186291591Y-145784808D01*
X186280631Y-145759300D01*
X186278547Y-145754449D01*
X186278025Y-145753813D01*
X186274721Y-145749789D01*
X186274715Y-145749782D01*
X186274534Y-145749562D01*
X186262946Y-145737974D01*
X186261259Y-145735840D01*
X186251545Y-145720081D01*
X186250979Y-145719163D01*
X186223042Y-145697919D01*
X186221851Y-145696879D01*
X185749409Y-145224438D01*
X185747171Y-145221303D01*
X185745899Y-145218701D01*
X185745425Y-145217731D01*
X185707948Y-145182966D01*
X185707632Y-145182661D01*
X185692723Y-145167752D01*
X185692280Y-145167448D01*
X185688917Y-145165140D01*
X185687580Y-145164071D01*
X185664147Y-145142334D01*
X185664145Y-145142333D01*
X185663354Y-145141599D01*
X185662351Y-145141199D01*
X185662348Y-145141197D01*
X185648890Y-145135828D01*
X185643638Y-145133733D01*
X185641361Y-145132518D01*
X185623854Y-145120508D01*
X185622804Y-145120259D01*
X185622802Y-145120258D01*
X185607694Y-145116673D01*
X185591699Y-145112877D01*
X185590074Y-145112363D01*
X185570841Y-145104690D01*
X185560143Y-145100422D01*
X185560142Y-145100422D01*
X185559378Y-145100117D01*
X185555311Y-145099718D01*
X185553373Y-145099528D01*
X185553368Y-145099528D01*
X185553085Y-145099500D01*
X185536699Y-145099500D01*
X185533997Y-145099184D01*
X185515984Y-145094909D01*
X185515983Y-145094909D01*
X185514934Y-145094660D01*
X185482705Y-145099046D01*
X185480156Y-145099393D01*
X185478578Y-145099500D01*
X185257101Y-145099500D01*
X185248828Y-145096073D01*
X185247819Y-145094922D01*
X185247810Y-145094909D01*
X185153282Y-144971718D01*
X185057276Y-144898050D01*
X185028455Y-144875935D01*
X185028454Y-144875935D01*
X185027841Y-144875464D01*
X184881762Y-144814956D01*
X184725000Y-144794318D01*
X184568238Y-144814956D01*
X184422159Y-144875464D01*
X184421546Y-144875935D01*
X184421545Y-144875935D01*
X184392724Y-144898050D01*
X184296718Y-144971718D01*
X184296250Y-144972328D01*
X184202181Y-145094922D01*
X184200464Y-145097159D01*
X184139956Y-145243238D01*
X184119318Y-145400000D01*
X184139956Y-145556762D01*
X184140251Y-145557474D01*
X184151769Y-145585281D01*
X184151769Y-145594235D01*
X184145437Y-145600567D01*
X184139433Y-145601358D01*
X184010760Y-145584418D01*
X184010000Y-145584318D01*
X183853238Y-145604956D01*
X183707159Y-145665464D01*
X183657940Y-145703231D01*
X183647727Y-145711068D01*
X183639077Y-145713386D01*
X183631322Y-145708909D01*
X183629004Y-145703313D01*
X183625144Y-145674000D01*
X183625044Y-145673238D01*
X183564536Y-145527159D01*
X183549695Y-145507817D01*
X183468750Y-145402328D01*
X183468282Y-145401718D01*
X183426493Y-145369652D01*
X183343455Y-145305935D01*
X183343454Y-145305935D01*
X183342841Y-145305464D01*
X183196762Y-145244956D01*
X183063740Y-145227443D01*
X183040760Y-145224418D01*
X183040000Y-145224318D01*
X182987654Y-145231209D01*
X182979004Y-145228891D01*
X182977854Y-145227882D01*
X181653927Y-143903956D01*
X181650500Y-143895683D01*
X181650500Y-140429317D01*
X181653927Y-140421044D01*
X182571044Y-139503927D01*
X182579317Y-139500500D01*
X183137042Y-139500500D01*
X183140840Y-139501134D01*
X183144601Y-139502425D01*
X183145676Y-139502385D01*
X183145678Y-139502385D01*
X183195672Y-139500508D01*
X183196111Y-139500500D01*
X183217207Y-139500500D01*
X183220648Y-139499859D01*
X183221741Y-139499656D01*
X183223443Y-139499466D01*
X183255386Y-139498267D01*
X183255388Y-139498267D01*
X183256467Y-139498226D01*
X183275975Y-139489845D01*
X183278441Y-139489096D01*
X183299312Y-139485209D01*
X183327440Y-139467871D01*
X183328960Y-139467081D01*
X183339351Y-139462617D01*
X183359322Y-139454036D01*
X183364208Y-139450022D01*
X183375793Y-139438437D01*
X183377927Y-139436750D01*
X183393689Y-139427034D01*
X183394607Y-139426468D01*
X183415853Y-139398528D01*
X183416893Y-139397337D01*
X183875075Y-138939156D01*
X183878210Y-138936918D01*
X183880810Y-138935647D01*
X183880809Y-138935647D01*
X183881780Y-138935173D01*
X183916533Y-138897709D01*
X183916838Y-138897393D01*
X183931759Y-138882472D01*
X183934372Y-138878662D01*
X183935440Y-138877327D01*
X183957180Y-138853891D01*
X183957912Y-138853102D01*
X183965776Y-138833390D01*
X183966995Y-138831108D01*
X183978390Y-138814496D01*
X183978391Y-138814495D01*
X183979003Y-138813602D01*
X183979346Y-138812159D01*
X183986632Y-138781452D01*
X183987149Y-138779817D01*
X183987449Y-138779067D01*
X183999394Y-138749126D01*
X184000011Y-138742833D01*
X184000011Y-138726447D01*
X184000327Y-138723745D01*
X184004602Y-138705732D01*
X184004602Y-138705731D01*
X184004851Y-138704682D01*
X184000118Y-138669904D01*
X184000011Y-138668326D01*
X184000011Y-138162469D01*
X184000645Y-138158670D01*
X184001586Y-138155929D01*
X184001936Y-138154910D01*
X184001738Y-138149613D01*
X184000019Y-138103839D01*
X184000011Y-138103400D01*
X184000011Y-138082304D01*
X183999167Y-138077770D01*
X183998977Y-138076068D01*
X183997778Y-138044125D01*
X183997778Y-138044123D01*
X183997737Y-138043044D01*
X183989356Y-138023536D01*
X183988606Y-138021066D01*
X183984918Y-138001262D01*
X183984720Y-138000199D01*
X183967382Y-137972071D01*
X183966592Y-137970551D01*
X183953872Y-137940946D01*
X183953547Y-137940189D01*
X183949533Y-137935303D01*
X183937948Y-137923718D01*
X183936261Y-137921584D01*
X183926545Y-137905822D01*
X183925979Y-137904904D01*
X183898040Y-137883658D01*
X183896848Y-137882618D01*
X183789815Y-137775585D01*
X183786586Y-137769454D01*
X183785407Y-137763123D01*
X183785209Y-137762060D01*
X183784642Y-137761140D01*
X183767871Y-137733932D01*
X183767081Y-137732412D01*
X183754361Y-137702807D01*
X183754036Y-137702050D01*
X183750022Y-137697164D01*
X183738437Y-137685579D01*
X183736750Y-137683445D01*
X183727034Y-137667683D01*
X183726468Y-137666765D01*
X183699939Y-137646592D01*
X183698528Y-137645519D01*
X183697337Y-137644479D01*
X179127296Y-133074438D01*
X179125058Y-133071303D01*
X179123786Y-133068701D01*
X179123312Y-133067731D01*
X179085835Y-133032966D01*
X179085519Y-133032661D01*
X179070610Y-133017752D01*
X179070167Y-133017448D01*
X179066804Y-133015140D01*
X179065467Y-133014071D01*
X179042034Y-132992334D01*
X179042032Y-132992333D01*
X179041241Y-132991599D01*
X179040238Y-132991199D01*
X179040235Y-132991197D01*
X179022382Y-132984075D01*
X179021525Y-132983733D01*
X179019248Y-132982518D01*
X179001741Y-132970508D01*
X179000691Y-132970259D01*
X179000689Y-132970258D01*
X178985581Y-132966673D01*
X178969586Y-132962877D01*
X178967961Y-132962363D01*
X178942486Y-132952200D01*
X178938030Y-132950422D01*
X178938029Y-132950422D01*
X178937265Y-132950117D01*
X178933198Y-132949718D01*
X178931260Y-132949528D01*
X178931255Y-132949528D01*
X178930972Y-132949500D01*
X178914586Y-132949500D01*
X178911884Y-132949184D01*
X178893871Y-132944909D01*
X178893870Y-132944909D01*
X178892821Y-132944660D01*
X178861916Y-132948866D01*
X178858043Y-132949393D01*
X178856465Y-132949500D01*
X175212958Y-132949500D01*
X175209159Y-132948866D01*
X175206418Y-132947925D01*
X175206419Y-132947925D01*
X175205399Y-132947575D01*
X175204324Y-132947615D01*
X175204322Y-132947615D01*
X175154327Y-132949492D01*
X175153888Y-132949500D01*
X175132793Y-132949500D01*
X175129909Y-132950037D01*
X175128259Y-132950344D01*
X175126557Y-132950534D01*
X175094611Y-132951733D01*
X175094608Y-132951734D01*
X175093532Y-132951774D01*
X175092541Y-132952200D01*
X175092540Y-132952200D01*
X175074028Y-132960154D01*
X175071552Y-132960906D01*
X175050688Y-132964791D01*
X175049768Y-132965358D01*
X175022560Y-132982129D01*
X175021040Y-132982919D01*
X175010649Y-132987383D01*
X174990678Y-132995964D01*
X174985792Y-132999978D01*
X174974207Y-133011563D01*
X174972073Y-133013250D01*
X174957249Y-133022388D01*
X174955393Y-133023532D01*
X174948219Y-133032966D01*
X174934147Y-133051472D01*
X174933107Y-133052663D01*
X173514696Y-134471073D01*
X173506423Y-134474500D01*
X172604909Y-134474500D01*
X172596636Y-134471073D01*
X172593209Y-134462800D01*
X172595627Y-134455678D01*
X172674065Y-134353455D01*
X172674065Y-134353454D01*
X172674536Y-134352841D01*
X172735044Y-134206762D01*
X172755682Y-134050000D01*
X172735044Y-133893238D01*
X172674536Y-133747159D01*
X172652918Y-133718986D01*
X172650500Y-133711863D01*
X172650500Y-133512160D01*
X172653927Y-133503887D01*
X173338887Y-132818927D01*
X173347160Y-132815500D01*
X196719253Y-132815500D01*
X196727526Y-132818927D01*
X196730953Y-132827200D01*
X196730953Y-134569000D01*
X203219048Y-134569000D01*
X203219048Y-132827200D01*
X203222475Y-132818927D01*
X203230748Y-132815500D01*
X208137840Y-132815500D01*
X208146113Y-132818927D01*
X209594712Y-134267526D01*
X209598139Y-134275799D01*
X209597248Y-134280276D01*
X209594638Y-134286578D01*
X209564956Y-134358238D01*
X209544318Y-134515000D01*
X209564956Y-134671762D01*
X209625464Y-134817841D01*
X209721718Y-134943282D01*
X209847159Y-135039536D01*
X209993238Y-135100044D01*
X210150000Y-135120682D01*
X210306762Y-135100044D01*
X210452841Y-135039536D01*
X210578282Y-134943282D01*
X210674536Y-134817841D01*
X210735044Y-134671762D01*
X210755682Y-134515000D01*
X210749099Y-134465000D01*
X211369318Y-134465000D01*
X211369418Y-134465760D01*
X211370250Y-134472082D01*
X211389956Y-134621762D01*
X211450464Y-134767841D01*
X211450935Y-134768454D01*
X211450935Y-134768455D01*
X211494907Y-134825760D01*
X211546718Y-134893282D01*
X211571584Y-134912362D01*
X211662956Y-134982474D01*
X211672159Y-134989536D01*
X211818238Y-135050044D01*
X211975000Y-135070682D01*
X212131762Y-135050044D01*
X212277841Y-134989536D01*
X212287045Y-134982474D01*
X212378416Y-134912362D01*
X212403282Y-134893282D01*
X212455093Y-134825760D01*
X212499065Y-134768455D01*
X212499065Y-134768454D01*
X212499536Y-134767841D01*
X212560044Y-134621762D01*
X212579750Y-134472082D01*
X212580582Y-134465760D01*
X212580682Y-134465000D01*
X212560044Y-134308238D01*
X212499536Y-134162159D01*
X212493830Y-134154722D01*
X212403750Y-134037328D01*
X212403282Y-134036718D01*
X212346666Y-133993275D01*
X212278455Y-133940935D01*
X212278454Y-133940935D01*
X212277841Y-133940464D01*
X212131762Y-133879956D01*
X211998740Y-133862443D01*
X211975760Y-133859418D01*
X211975000Y-133859318D01*
X211974240Y-133859418D01*
X211951260Y-133862443D01*
X211818238Y-133879956D01*
X211672159Y-133940464D01*
X211671546Y-133940935D01*
X211671545Y-133940935D01*
X211603334Y-133993275D01*
X211546718Y-134036718D01*
X211546250Y-134037328D01*
X211456171Y-134154722D01*
X211450464Y-134162159D01*
X211389956Y-134308238D01*
X211369318Y-134465000D01*
X210749099Y-134465000D01*
X210735044Y-134358238D01*
X210674536Y-134212159D01*
X210652918Y-134183986D01*
X210650500Y-134176863D01*
X210650500Y-134172404D01*
X210650787Y-134169830D01*
X210654018Y-134155552D01*
X210650522Y-134099198D01*
X210650500Y-134098475D01*
X210650500Y-134079060D01*
X210648401Y-134064399D01*
X210648306Y-134063475D01*
X210645193Y-134013293D01*
X210645192Y-134013290D01*
X210645141Y-134012461D01*
X210638622Y-133994401D01*
X210638045Y-133992089D01*
X210637917Y-133991197D01*
X210635323Y-133973082D01*
X210634978Y-133972323D01*
X210614167Y-133926552D01*
X210613813Y-133925682D01*
X210602102Y-133893241D01*
X210596460Y-133877613D01*
X210589308Y-133867823D01*
X210585135Y-133862110D01*
X210583932Y-133860051D01*
X210576327Y-133843326D01*
X210576326Y-133843325D01*
X210575984Y-133842572D01*
X210561365Y-133825606D01*
X210542610Y-133803839D01*
X210542027Y-133803104D01*
X210531746Y-133789032D01*
X210531745Y-133789031D01*
X210531477Y-133788664D01*
X210517732Y-133774919D01*
X210517156Y-133774299D01*
X210482400Y-133733963D01*
X210467449Y-133724272D01*
X210465541Y-133722728D01*
X208744501Y-132001687D01*
X208742879Y-131999657D01*
X208741550Y-131997550D01*
X208735070Y-131987280D01*
X208734449Y-131986732D01*
X208734446Y-131986728D01*
X208692745Y-131949900D01*
X208692217Y-131949403D01*
X208678494Y-131935680D01*
X208666631Y-131926789D01*
X208665932Y-131926219D01*
X208627612Y-131892377D01*
X208610232Y-131884217D01*
X208608189Y-131882989D01*
X208593492Y-131871975D01*
X208592824Y-131871474D01*
X208592044Y-131871181D01*
X208592041Y-131871180D01*
X208544972Y-131853535D01*
X208544107Y-131853171D01*
X208539882Y-131851187D01*
X208497837Y-131831447D01*
X208478861Y-131828493D01*
X208476555Y-131827887D01*
X208474069Y-131826955D01*
X208458580Y-131821148D01*
X208407606Y-131817360D01*
X208406675Y-131817253D01*
X208388991Y-131814500D01*
X208369551Y-131814500D01*
X208368684Y-131814468D01*
X208315608Y-131810524D01*
X208314794Y-131810698D01*
X208314791Y-131810698D01*
X208300930Y-131813657D01*
X208298332Y-131814212D01*
X208298191Y-131814242D01*
X208295748Y-131814500D01*
X173192404Y-131814500D01*
X173189830Y-131814213D01*
X173175552Y-131810982D01*
X173119360Y-131814468D01*
X173119199Y-131814478D01*
X173118475Y-131814500D01*
X173099060Y-131814500D01*
X173084399Y-131816599D01*
X173083480Y-131816693D01*
X173065509Y-131817809D01*
X173033293Y-131819807D01*
X173033290Y-131819808D01*
X173032461Y-131819859D01*
X173031678Y-131820141D01*
X173031676Y-131820142D01*
X173020358Y-131824228D01*
X173014401Y-131826378D01*
X173012090Y-131826955D01*
X172993082Y-131829677D01*
X172992324Y-131830022D01*
X172992323Y-131830022D01*
X172946552Y-131850833D01*
X172945682Y-131851187D01*
X172922716Y-131859478D01*
X172897613Y-131868540D01*
X172896943Y-131869029D01*
X172896942Y-131869030D01*
X172882110Y-131879865D01*
X172880051Y-131881068D01*
X172863326Y-131888673D01*
X172862572Y-131889016D01*
X172861945Y-131889557D01*
X172861944Y-131889557D01*
X172823839Y-131922390D01*
X172823104Y-131922973D01*
X172809032Y-131933254D01*
X172808664Y-131933523D01*
X172794919Y-131947268D01*
X172794299Y-131947844D01*
X172753963Y-131982600D01*
X172753510Y-131983299D01*
X172744273Y-131997550D01*
X172742728Y-131999459D01*
X171836687Y-132905499D01*
X171834658Y-132907120D01*
X171822280Y-132914930D01*
X171821732Y-132915551D01*
X171821728Y-132915554D01*
X171784900Y-132957255D01*
X171784403Y-132957783D01*
X171770680Y-132971506D01*
X171761789Y-132983369D01*
X171761219Y-132984068D01*
X171727377Y-133022388D01*
X171727024Y-133023140D01*
X171719217Y-133039768D01*
X171717989Y-133041811D01*
X171706474Y-133057176D01*
X171706181Y-133057956D01*
X171706180Y-133057959D01*
X171688535Y-133105028D01*
X171688173Y-133105889D01*
X171666447Y-133152163D01*
X171666319Y-133152987D01*
X171663493Y-133171138D01*
X171662887Y-133173444D01*
X171656148Y-133191420D01*
X171656086Y-133192255D01*
X171652360Y-133242392D01*
X171652253Y-133243323D01*
X171649500Y-133261009D01*
X171649500Y-133280449D01*
X171649468Y-133281315D01*
X171645524Y-133334392D01*
X171645698Y-133335206D01*
X171645698Y-133335209D01*
X171649242Y-133351809D01*
X171649500Y-133354252D01*
X171649500Y-133711863D01*
X171647082Y-133718986D01*
X171625464Y-133747159D01*
X171564956Y-133893238D01*
X171544318Y-134050000D01*
X171564956Y-134206762D01*
X171625464Y-134352841D01*
X171625935Y-134353454D01*
X171625935Y-134353455D01*
X171704373Y-134455678D01*
X171706691Y-134464327D01*
X171702213Y-134472082D01*
X171695091Y-134474500D01*
X165343576Y-134474500D01*
X165335303Y-134471073D01*
X164814157Y-133949927D01*
X164811919Y-133946792D01*
X164811005Y-133944922D01*
X164810173Y-133943220D01*
X164772696Y-133908455D01*
X164772380Y-133908150D01*
X164757471Y-133893241D01*
X164756429Y-133892526D01*
X164753665Y-133890629D01*
X164752328Y-133889560D01*
X164728895Y-133867823D01*
X164728893Y-133867822D01*
X164728102Y-133867088D01*
X164727099Y-133866688D01*
X164727096Y-133866686D01*
X164708877Y-133859418D01*
X164708386Y-133859222D01*
X164706109Y-133858007D01*
X164688602Y-133845997D01*
X164687552Y-133845748D01*
X164687550Y-133845747D01*
X164671523Y-133841944D01*
X164656447Y-133838366D01*
X164654822Y-133837852D01*
X164635589Y-133830179D01*
X164624891Y-133825911D01*
X164624890Y-133825911D01*
X164624126Y-133825606D01*
X164620059Y-133825207D01*
X164618121Y-133825017D01*
X164618116Y-133825017D01*
X164617833Y-133824989D01*
X164601447Y-133824989D01*
X164598745Y-133824673D01*
X164580732Y-133820398D01*
X164580731Y-133820398D01*
X164579682Y-133820149D01*
X164547453Y-133824535D01*
X164544904Y-133824882D01*
X164543326Y-133824989D01*
X157536257Y-133824989D01*
X157528301Y-133821693D01*
X157528282Y-133821718D01*
X157528190Y-133821647D01*
X157528189Y-133821647D01*
X157402841Y-133725464D01*
X157256762Y-133664956D01*
X157100000Y-133644318D01*
X156943238Y-133664956D01*
X156797159Y-133725464D01*
X156671718Y-133821718D01*
X156671250Y-133822328D01*
X156577181Y-133944922D01*
X156575464Y-133947159D01*
X156514956Y-134093238D01*
X156494318Y-134250000D01*
X156514956Y-134406762D01*
X156575464Y-134552841D01*
X156575935Y-134553454D01*
X156575935Y-134553455D01*
X156586078Y-134566673D01*
X156671718Y-134678282D01*
X156797159Y-134774536D01*
X156943238Y-134835044D01*
X157100000Y-134855682D01*
X157256762Y-134835044D01*
X157402841Y-134774536D01*
X157528282Y-134678282D01*
X157613922Y-134566673D01*
X157624065Y-134553455D01*
X157624065Y-134553454D01*
X157624536Y-134552841D01*
X157674088Y-134433212D01*
X157680420Y-134426880D01*
X157684897Y-134425989D01*
X163800533Y-134425989D01*
X163808806Y-134429416D01*
X163812233Y-134437689D01*
X163809815Y-134444811D01*
X163750464Y-134522159D01*
X163689956Y-134668238D01*
X163669318Y-134825000D01*
X163689956Y-134981762D01*
X163750464Y-135127841D01*
X163846718Y-135253282D01*
X163847328Y-135253750D01*
X163891388Y-135287558D01*
X163895866Y-135295313D01*
X163893548Y-135303962D01*
X163885793Y-135308440D01*
X163884266Y-135308540D01*
X157098177Y-135308540D01*
X157094378Y-135307906D01*
X157091637Y-135306965D01*
X157091638Y-135306965D01*
X157090618Y-135306615D01*
X157089543Y-135306655D01*
X157089541Y-135306655D01*
X157039546Y-135308532D01*
X157039107Y-135308540D01*
X157018012Y-135308540D01*
X157014571Y-135309181D01*
X157013478Y-135309384D01*
X157011776Y-135309574D01*
X156979830Y-135310773D01*
X156979827Y-135310774D01*
X156978751Y-135310814D01*
X156977760Y-135311240D01*
X156977759Y-135311240D01*
X156959247Y-135319194D01*
X156956771Y-135319946D01*
X156935907Y-135323831D01*
X156934987Y-135324398D01*
X156907779Y-135341169D01*
X156906259Y-135341959D01*
X156875897Y-135355004D01*
X156871011Y-135359018D01*
X156859426Y-135370603D01*
X156857292Y-135372290D01*
X156840612Y-135382572D01*
X156839959Y-135383431D01*
X156819366Y-135410512D01*
X156818326Y-135411703D01*
X155510491Y-136719538D01*
X155502218Y-136722965D01*
X155496653Y-136721557D01*
X155414562Y-136677171D01*
X155414561Y-136677171D01*
X155414055Y-136676897D01*
X155217254Y-136615977D01*
X155012369Y-136594443D01*
X154807203Y-136613114D01*
X154736772Y-136633843D01*
X154610118Y-136671119D01*
X154610115Y-136671120D01*
X154609572Y-136671280D01*
X154609074Y-136671541D01*
X154609070Y-136671542D01*
X154427505Y-136766463D01*
X154427002Y-136766726D01*
X154426560Y-136767081D01*
X154426556Y-136767084D01*
X154297609Y-136870760D01*
X154266447Y-136895815D01*
X154266087Y-136896244D01*
X154266082Y-136896249D01*
X154134389Y-137053195D01*
X154134024Y-137053630D01*
X154133751Y-137054126D01*
X154133750Y-137054128D01*
X154127032Y-137066348D01*
X154034776Y-137234162D01*
X154034605Y-137234702D01*
X154034603Y-137234706D01*
X153991482Y-137370642D01*
X153972484Y-137430532D01*
X153972421Y-137431097D01*
X153972420Y-137431100D01*
X153959786Y-137543735D01*
X153949520Y-137635262D01*
X153949568Y-137635834D01*
X153964610Y-137814956D01*
X153966759Y-137840553D01*
X154023544Y-138038586D01*
X154064249Y-138117790D01*
X154117220Y-138220860D01*
X154117712Y-138221818D01*
X154245677Y-138383270D01*
X154402564Y-138516791D01*
X154582398Y-138617297D01*
X154582940Y-138617473D01*
X154582942Y-138617474D01*
X154661269Y-138642924D01*
X154668079Y-138648739D01*
X154668781Y-138657666D01*
X154662966Y-138664476D01*
X154657654Y-138665751D01*
X152818937Y-138665751D01*
X152810664Y-138662324D01*
X152807237Y-138654051D01*
X152810664Y-138645778D01*
X152815791Y-138642782D01*
X152846170Y-138634300D01*
X152846725Y-138634145D01*
X152880079Y-138617297D01*
X153001426Y-138556000D01*
X153030610Y-138541258D01*
X153048699Y-138527126D01*
X153084131Y-138499443D01*
X153192951Y-138414424D01*
X153315111Y-138272899D01*
X153327193Y-138258902D01*
X153327194Y-138258901D01*
X153327564Y-138258472D01*
X153380217Y-138165786D01*
X153429040Y-138079843D01*
X153429042Y-138079839D01*
X153429323Y-138079344D01*
X153433018Y-138068238D01*
X153494172Y-137884402D01*
X153494173Y-137884399D01*
X153494351Y-137883863D01*
X153520171Y-137679474D01*
X153520187Y-137678378D01*
X153520486Y-137656914D01*
X153520583Y-137650000D01*
X153500480Y-137444970D01*
X153496293Y-137431100D01*
X153441098Y-137248288D01*
X153441097Y-137248286D01*
X153440935Y-137247749D01*
X153427903Y-137223238D01*
X153366460Y-137107681D01*
X153344218Y-137065849D01*
X153234859Y-136931762D01*
X153214370Y-136906640D01*
X153214369Y-136906639D01*
X153214011Y-136906200D01*
X153055275Y-136774882D01*
X153039705Y-136766463D01*
X152874562Y-136677171D01*
X152874561Y-136677171D01*
X152874055Y-136676897D01*
X152677254Y-136615977D01*
X152472369Y-136594443D01*
X152267203Y-136613114D01*
X152196772Y-136633843D01*
X152070118Y-136671119D01*
X152070115Y-136671120D01*
X152069572Y-136671280D01*
X152069074Y-136671541D01*
X152069070Y-136671542D01*
X151887505Y-136766463D01*
X151887002Y-136766726D01*
X151886560Y-136767081D01*
X151886556Y-136767084D01*
X151757609Y-136870760D01*
X151726447Y-136895815D01*
X151726087Y-136896244D01*
X151726082Y-136896249D01*
X151594389Y-137053195D01*
X151594024Y-137053630D01*
X151593751Y-137054126D01*
X151593750Y-137054128D01*
X151587032Y-137066348D01*
X151494776Y-137234162D01*
X151494605Y-137234702D01*
X151494603Y-137234706D01*
X151451482Y-137370642D01*
X151432484Y-137430532D01*
X151432421Y-137431097D01*
X151432420Y-137431100D01*
X151419786Y-137543735D01*
X151409520Y-137635262D01*
X151409568Y-137635834D01*
X151424610Y-137814956D01*
X151426759Y-137840553D01*
X151483544Y-138038586D01*
X151524249Y-138117790D01*
X151577220Y-138220860D01*
X151577712Y-138221818D01*
X151705677Y-138383270D01*
X151862564Y-138516791D01*
X152042398Y-138617297D01*
X152042940Y-138617473D01*
X152042942Y-138617474D01*
X152121269Y-138642924D01*
X152128079Y-138648739D01*
X152128781Y-138657666D01*
X152122966Y-138664476D01*
X152117654Y-138665751D01*
X147913066Y-138665751D01*
X147904793Y-138662324D01*
X147013154Y-137770686D01*
X147010916Y-137767551D01*
X147009644Y-137764949D01*
X147009170Y-137763979D01*
X146971693Y-137729214D01*
X146971377Y-137728909D01*
X146956468Y-137714000D01*
X146956025Y-137713696D01*
X146952662Y-137711388D01*
X146951325Y-137710319D01*
X146927892Y-137688582D01*
X146927890Y-137688581D01*
X146927099Y-137687847D01*
X146926096Y-137687447D01*
X146926093Y-137687445D01*
X146907386Y-137679982D01*
X146905109Y-137678767D01*
X146887599Y-137666755D01*
X146855441Y-137659124D01*
X146853808Y-137658607D01*
X146823123Y-137646365D01*
X146819056Y-137645966D01*
X146817118Y-137645776D01*
X146817113Y-137645776D01*
X146816830Y-137645748D01*
X146800444Y-137645748D01*
X146797743Y-137645432D01*
X146779729Y-137641157D01*
X146779728Y-137641157D01*
X146778679Y-137640908D01*
X146747774Y-137645114D01*
X146743901Y-137645641D01*
X146742323Y-137645748D01*
X142375965Y-137645748D01*
X142372166Y-137645114D01*
X142368403Y-137643822D01*
X142367328Y-137643862D01*
X142367326Y-137643862D01*
X142317317Y-137645740D01*
X142316878Y-137645748D01*
X142295797Y-137645748D01*
X142295273Y-137645846D01*
X142295269Y-137645846D01*
X142291265Y-137646592D01*
X142289562Y-137646782D01*
X142257618Y-137647981D01*
X142257616Y-137647981D01*
X142256537Y-137648022D01*
X142237029Y-137656403D01*
X142234563Y-137657152D01*
X142213692Y-137661039D01*
X142212772Y-137661606D01*
X142185562Y-137678378D01*
X142184042Y-137679168D01*
X142182564Y-137679803D01*
X142153683Y-137692212D01*
X142153048Y-137692733D01*
X142153047Y-137692734D01*
X142149023Y-137696038D01*
X142149016Y-137696044D01*
X142148796Y-137696225D01*
X142137208Y-137707813D01*
X142135074Y-137709500D01*
X142133746Y-137710319D01*
X142118397Y-137719780D01*
X142108193Y-137733199D01*
X142097154Y-137747716D01*
X142096114Y-137748907D01*
X141679236Y-138165786D01*
X141670963Y-138169213D01*
X141665398Y-138167805D01*
X141583307Y-138123419D01*
X141583306Y-138123419D01*
X141582800Y-138123145D01*
X141385999Y-138062225D01*
X141181114Y-138040691D01*
X140975948Y-138059362D01*
X140913403Y-138077770D01*
X140778863Y-138117367D01*
X140778860Y-138117368D01*
X140778317Y-138117528D01*
X140777819Y-138117789D01*
X140777815Y-138117790D01*
X140679453Y-138169213D01*
X140595747Y-138212974D01*
X140595305Y-138213329D01*
X140595301Y-138213332D01*
X140435637Y-138341705D01*
X140435192Y-138342063D01*
X140434832Y-138342492D01*
X140434827Y-138342497D01*
X140374180Y-138414774D01*
X140302769Y-138499878D01*
X140302496Y-138500374D01*
X140302495Y-138500376D01*
X140278678Y-138543699D01*
X140203521Y-138680410D01*
X140203350Y-138680950D01*
X140203348Y-138680954D01*
X140160359Y-138816473D01*
X140141229Y-138876780D01*
X140141166Y-138877345D01*
X140141165Y-138877348D01*
X140118329Y-139080939D01*
X140118265Y-139081510D01*
X140118313Y-139082082D01*
X140134215Y-139271445D01*
X140135504Y-139286801D01*
X140192289Y-139484834D01*
X140210899Y-139521045D01*
X140276782Y-139649240D01*
X140286457Y-139668066D01*
X140414422Y-139829518D01*
X140414859Y-139829890D01*
X140414860Y-139829891D01*
X140415858Y-139830740D01*
X140571309Y-139963039D01*
X140751143Y-140063545D01*
X140751682Y-140063720D01*
X140751684Y-140063721D01*
X140826164Y-140087921D01*
X140947074Y-140127207D01*
X141151639Y-140151599D01*
X141152199Y-140151556D01*
X141152201Y-140151556D01*
X141356475Y-140135838D01*
X141356476Y-140135838D01*
X141357045Y-140135794D01*
X141555470Y-140080393D01*
X141588824Y-140063545D01*
X141712166Y-140001240D01*
X141739355Y-139987506D01*
X141740025Y-139986983D01*
X141827107Y-139918947D01*
X141901696Y-139860672D01*
X141947615Y-139807474D01*
X142035938Y-139705150D01*
X142035939Y-139705149D01*
X142036309Y-139704720D01*
X142075846Y-139635123D01*
X142137785Y-139526091D01*
X142137787Y-139526087D01*
X142138068Y-139525592D01*
X142139094Y-139522510D01*
X142202917Y-139330650D01*
X142202918Y-139330647D01*
X142203096Y-139330111D01*
X142228916Y-139125722D01*
X142229043Y-139116673D01*
X142229285Y-139099308D01*
X142229328Y-139096248D01*
X142209225Y-138891218D01*
X142206585Y-138882472D01*
X142149843Y-138694536D01*
X142149842Y-138694534D01*
X142149680Y-138693997D01*
X142141026Y-138677720D01*
X142117939Y-138634300D01*
X142102121Y-138604550D01*
X142101263Y-138595637D01*
X142104179Y-138590785D01*
X142444789Y-138250175D01*
X142453062Y-138246748D01*
X143060517Y-138246748D01*
X143068790Y-138250175D01*
X143072217Y-138258448D01*
X143068790Y-138266721D01*
X143067848Y-138267566D01*
X142989161Y-138330832D01*
X142975192Y-138342063D01*
X142974832Y-138342492D01*
X142974827Y-138342497D01*
X142914180Y-138414774D01*
X142842769Y-138499878D01*
X142842496Y-138500374D01*
X142842495Y-138500376D01*
X142818678Y-138543699D01*
X142743521Y-138680410D01*
X142743350Y-138680950D01*
X142743348Y-138680954D01*
X142700359Y-138816473D01*
X142681229Y-138876780D01*
X142681166Y-138877345D01*
X142681165Y-138877348D01*
X142658329Y-139080939D01*
X142658265Y-139081510D01*
X142658313Y-139082082D01*
X142674215Y-139271445D01*
X142675504Y-139286801D01*
X142732289Y-139484834D01*
X142750899Y-139521045D01*
X142816782Y-139649240D01*
X142826457Y-139668066D01*
X142954422Y-139829518D01*
X142954859Y-139829890D01*
X142954860Y-139829891D01*
X142955858Y-139830740D01*
X143111309Y-139963039D01*
X143291143Y-140063545D01*
X143291682Y-140063720D01*
X143291684Y-140063721D01*
X143366164Y-140087921D01*
X143487074Y-140127207D01*
X143691639Y-140151599D01*
X143692199Y-140151556D01*
X143692201Y-140151556D01*
X143896475Y-140135838D01*
X143896476Y-140135838D01*
X143897045Y-140135794D01*
X144095470Y-140080393D01*
X144101330Y-140077433D01*
X144205807Y-140024659D01*
X144214736Y-140023987D01*
X144219355Y-140026829D01*
X144614336Y-140421810D01*
X144616574Y-140424945D01*
X144618320Y-140428517D01*
X144647080Y-140455196D01*
X144655797Y-140463282D01*
X144656113Y-140463587D01*
X144671022Y-140478496D01*
X144671465Y-140478800D01*
X144674828Y-140481108D01*
X144676165Y-140482177D01*
X144699598Y-140503914D01*
X144699600Y-140503915D01*
X144700391Y-140504649D01*
X144701394Y-140505049D01*
X144701397Y-140505051D01*
X144720104Y-140512514D01*
X144722381Y-140513729D01*
X144739891Y-140525741D01*
X144772048Y-140533372D01*
X144773680Y-140533888D01*
X144804367Y-140546131D01*
X144808434Y-140546530D01*
X144810372Y-140546720D01*
X144810377Y-140546720D01*
X144810660Y-140546748D01*
X144827046Y-140546748D01*
X144829747Y-140547064D01*
X144847761Y-140551339D01*
X144847762Y-140551339D01*
X144848811Y-140551588D01*
X144883589Y-140546855D01*
X144885167Y-140546748D01*
X148239597Y-140546748D01*
X148243395Y-140547382D01*
X148247156Y-140548673D01*
X148248231Y-140548633D01*
X148248233Y-140548633D01*
X148298227Y-140546756D01*
X148298666Y-140546748D01*
X148319762Y-140546748D01*
X148323203Y-140546107D01*
X148324296Y-140545904D01*
X148325998Y-140545714D01*
X148357941Y-140544515D01*
X148357943Y-140544515D01*
X148359022Y-140544474D01*
X148378530Y-140536093D01*
X148380996Y-140535344D01*
X148401867Y-140531457D01*
X148402787Y-140530890D01*
X148429995Y-140514119D01*
X148431515Y-140513329D01*
X148453428Y-140503914D01*
X148461877Y-140500284D01*
X148466763Y-140496270D01*
X148478348Y-140484685D01*
X148480482Y-140482998D01*
X148496244Y-140473282D01*
X148497162Y-140472716D01*
X148518408Y-140444776D01*
X148519448Y-140443585D01*
X149240075Y-139722958D01*
X149248348Y-139719531D01*
X151138519Y-139719531D01*
X162155803Y-139719530D01*
X162164076Y-139722957D01*
X162167503Y-139731230D01*
X162164076Y-139739503D01*
X161534438Y-140369141D01*
X161531303Y-140371379D01*
X161527731Y-140373125D01*
X161492993Y-140410573D01*
X161492966Y-140410602D01*
X161492661Y-140410918D01*
X161477752Y-140425827D01*
X161477448Y-140426270D01*
X161475140Y-140429633D01*
X161474071Y-140430970D01*
X161452334Y-140454403D01*
X161452333Y-140454405D01*
X161451599Y-140455196D01*
X161451199Y-140456199D01*
X161451197Y-140456202D01*
X161443734Y-140474910D01*
X161442518Y-140477189D01*
X161430508Y-140494696D01*
X161430259Y-140495746D01*
X161430258Y-140495748D01*
X161428146Y-140504649D01*
X161423192Y-140525529D01*
X161422879Y-140526846D01*
X161422363Y-140528476D01*
X161416517Y-140543131D01*
X161411768Y-140555035D01*
X161410117Y-140559172D01*
X161409500Y-140565465D01*
X161409500Y-140581851D01*
X161409184Y-140584552D01*
X161408063Y-140589278D01*
X161406867Y-140594318D01*
X161404660Y-140603616D01*
X161408057Y-140628578D01*
X161409393Y-140638394D01*
X161409500Y-140639972D01*
X161409500Y-141607899D01*
X161406073Y-141616172D01*
X161404927Y-141617177D01*
X161281718Y-141711718D01*
X161257482Y-141743303D01*
X161199274Y-141819162D01*
X161185464Y-141837159D01*
X161124956Y-141983238D01*
X161111234Y-142087468D01*
X161104826Y-142136145D01*
X161104318Y-142140000D01*
X161104418Y-142140760D01*
X161105954Y-142152425D01*
X161124956Y-142296762D01*
X161185464Y-142442841D01*
X161185935Y-142443454D01*
X161185935Y-142443455D01*
X161204999Y-142468300D01*
X161281718Y-142568282D01*
X161407159Y-142664536D01*
X161553238Y-142725044D01*
X161672925Y-142740801D01*
X161708937Y-142745542D01*
X161710000Y-142745682D01*
X161711064Y-142745542D01*
X161747075Y-142740801D01*
X161866762Y-142725044D01*
X162012841Y-142664536D01*
X162138282Y-142568282D01*
X162215001Y-142468300D01*
X162234065Y-142443455D01*
X162234065Y-142443454D01*
X162234536Y-142442841D01*
X162295044Y-142296762D01*
X162314046Y-142152425D01*
X162315582Y-142140760D01*
X162315682Y-142140000D01*
X162315175Y-142136145D01*
X162308766Y-142087468D01*
X162295044Y-141983238D01*
X162234536Y-141837159D01*
X162220727Y-141819162D01*
X162162518Y-141743303D01*
X162138282Y-141711718D01*
X162015077Y-141617180D01*
X162010600Y-141609426D01*
X162010500Y-141607899D01*
X162010500Y-140747867D01*
X162013927Y-140739594D01*
X162631044Y-140122477D01*
X162639317Y-140119050D01*
X164147733Y-140119050D01*
X164156006Y-140122477D01*
X164159433Y-140130750D01*
X164156006Y-140139023D01*
X163184438Y-141110591D01*
X163181303Y-141112829D01*
X163177731Y-141114575D01*
X163168042Y-141125020D01*
X163142966Y-141152052D01*
X163142661Y-141152368D01*
X163127752Y-141167277D01*
X163127448Y-141167720D01*
X163125140Y-141171083D01*
X163124071Y-141172420D01*
X163102334Y-141195853D01*
X163102333Y-141195855D01*
X163101599Y-141196646D01*
X163101199Y-141197649D01*
X163101197Y-141197652D01*
X163093734Y-141216360D01*
X163092518Y-141218639D01*
X163080508Y-141236146D01*
X163080259Y-141237196D01*
X163080258Y-141237198D01*
X163076912Y-141251299D01*
X163074438Y-141261727D01*
X163072879Y-141268296D01*
X163072362Y-141269931D01*
X163062765Y-141293986D01*
X163060117Y-141300622D01*
X163059500Y-141306915D01*
X163059500Y-141323301D01*
X163059184Y-141326002D01*
X163054660Y-141345066D01*
X163058048Y-141369963D01*
X163059393Y-141379844D01*
X163059500Y-141381422D01*
X163059500Y-141667899D01*
X163056073Y-141676172D01*
X163054927Y-141677177D01*
X162931718Y-141771718D01*
X162931250Y-141772328D01*
X162849406Y-141878990D01*
X162835464Y-141897159D01*
X162774956Y-142043238D01*
X162760835Y-142150500D01*
X162754727Y-142196897D01*
X162754318Y-142200000D01*
X162754418Y-142200758D01*
X162754418Y-142200760D01*
X162755134Y-142206200D01*
X162774956Y-142356762D01*
X162835464Y-142502841D01*
X162835935Y-142503454D01*
X162835935Y-142503455D01*
X162886038Y-142568750D01*
X162931718Y-142628282D01*
X162932328Y-142628750D01*
X163054497Y-142722493D01*
X163057159Y-142724536D01*
X163203238Y-142785044D01*
X163360000Y-142805682D01*
X163366165Y-142804870D01*
X163374814Y-142807187D01*
X163379292Y-142814942D01*
X163376975Y-142823592D01*
X163375965Y-142824743D01*
X162964146Y-143236562D01*
X162955873Y-143239989D01*
X162237596Y-143239989D01*
X162229323Y-143236562D01*
X162228314Y-143235411D01*
X162222411Y-143227717D01*
X162133777Y-143112207D01*
X162008336Y-143015953D01*
X161862257Y-142955445D01*
X161705495Y-142934807D01*
X161548733Y-142955445D01*
X161402654Y-143015953D01*
X161277213Y-143112207D01*
X161276745Y-143112817D01*
X161182676Y-143235411D01*
X161180959Y-143237648D01*
X161120451Y-143383727D01*
X161107974Y-143478507D01*
X161107726Y-143480389D01*
X161103249Y-143488144D01*
X161094599Y-143490462D01*
X161087853Y-143487135D01*
X160301760Y-142701042D01*
X160298333Y-142692769D01*
X160298333Y-141484388D01*
X160298967Y-141480589D01*
X160299909Y-141477845D01*
X160299909Y-141477844D01*
X160300259Y-141476825D01*
X160300001Y-141469937D01*
X160298341Y-141425739D01*
X160298333Y-141425300D01*
X160298333Y-141404219D01*
X160297489Y-141399687D01*
X160297299Y-141397984D01*
X160296100Y-141366040D01*
X160296100Y-141366038D01*
X160296059Y-141364959D01*
X160287678Y-141345451D01*
X160286928Y-141342981D01*
X160285768Y-141336748D01*
X160283042Y-141322114D01*
X160282475Y-141321194D01*
X160265704Y-141293986D01*
X160264914Y-141292466D01*
X160252195Y-141262863D01*
X160251869Y-141262104D01*
X160251346Y-141261467D01*
X160251344Y-141261464D01*
X160248035Y-141257436D01*
X160247856Y-141257218D01*
X160236268Y-141245630D01*
X160234581Y-141243496D01*
X160224867Y-141227737D01*
X160224301Y-141226819D01*
X160196366Y-141205576D01*
X160195174Y-141204536D01*
X159081736Y-140091098D01*
X159079761Y-140088471D01*
X159074582Y-140079070D01*
X159074581Y-140079068D01*
X159074062Y-140078127D01*
X159041216Y-140050517D01*
X159040471Y-140049834D01*
X159030556Y-140039919D01*
X159020428Y-140032971D01*
X159019523Y-140032282D01*
X159019293Y-140032088D01*
X158988370Y-140006095D01*
X158975618Y-140001717D01*
X158972806Y-140000303D01*
X158961687Y-139992675D01*
X158960637Y-139992426D01*
X158960635Y-139992425D01*
X158922078Y-139983275D01*
X158920981Y-139982957D01*
X158897662Y-139974951D01*
X158882491Y-139969742D01*
X158881416Y-139969782D01*
X158881414Y-139969782D01*
X158869022Y-139970247D01*
X158865883Y-139969939D01*
X158853818Y-139967076D01*
X158853816Y-139967076D01*
X158852767Y-139966827D01*
X158831349Y-139969742D01*
X158812441Y-139972315D01*
X158811302Y-139972414D01*
X158771704Y-139973900D01*
X158771701Y-139973901D01*
X158770625Y-139973941D01*
X158769634Y-139974367D01*
X158769633Y-139974367D01*
X158764506Y-139976570D01*
X158758323Y-139979227D01*
X158758239Y-139979263D01*
X158755197Y-139980106D01*
X158741844Y-139981923D01*
X158737958Y-139984064D01*
X158737172Y-139984497D01*
X158731526Y-139985949D01*
X149500762Y-139985949D01*
X149496963Y-139985315D01*
X149493203Y-139984024D01*
X149492128Y-139984064D01*
X149492126Y-139984064D01*
X149442131Y-139985941D01*
X149441692Y-139985949D01*
X149420597Y-139985949D01*
X149417156Y-139986590D01*
X149416063Y-139986793D01*
X149414361Y-139986983D01*
X149382415Y-139988182D01*
X149382412Y-139988183D01*
X149381336Y-139988223D01*
X149380345Y-139988649D01*
X149380344Y-139988649D01*
X149361832Y-139996603D01*
X149359356Y-139997355D01*
X149338492Y-140001240D01*
X149337572Y-140001807D01*
X149310364Y-140018578D01*
X149308844Y-140019368D01*
X149299339Y-140023452D01*
X149278482Y-140032413D01*
X149273596Y-140036427D01*
X149262011Y-140048012D01*
X149259877Y-140049699D01*
X149258550Y-140050517D01*
X149243197Y-140059981D01*
X149242544Y-140060840D01*
X149221951Y-140087921D01*
X149220911Y-140089112D01*
X147088950Y-142221073D01*
X147080677Y-142224500D01*
X145582101Y-142224500D01*
X145573828Y-142221073D01*
X145572819Y-142219922D01*
X145572413Y-142219392D01*
X145478282Y-142096718D01*
X145407657Y-142042526D01*
X145353455Y-142000935D01*
X145353454Y-142000935D01*
X145352841Y-142000464D01*
X145206762Y-141939956D01*
X145050000Y-141919318D01*
X144893238Y-141939956D01*
X144747159Y-142000464D01*
X144746546Y-142000935D01*
X144746545Y-142000935D01*
X144692343Y-142042526D01*
X144621718Y-142096718D01*
X144606093Y-142117081D01*
X144526920Y-142220262D01*
X144525464Y-142222159D01*
X144464956Y-142368238D01*
X144444318Y-142525000D01*
X144464956Y-142681762D01*
X144465251Y-142682474D01*
X144476546Y-142709743D01*
X144476546Y-142718697D01*
X144470214Y-142725029D01*
X144461260Y-142725029D01*
X144457464Y-142722493D01*
X143384222Y-141649251D01*
X143380803Y-141641418D01*
X143380508Y-141633573D01*
X143380500Y-141633133D01*
X143380500Y-141612052D01*
X143379656Y-141607520D01*
X143379466Y-141605817D01*
X143378267Y-141573873D01*
X143378267Y-141573871D01*
X143378226Y-141572792D01*
X143369845Y-141553284D01*
X143369095Y-141550814D01*
X143368851Y-141549500D01*
X143365209Y-141529947D01*
X143347871Y-141501819D01*
X143347081Y-141500299D01*
X143334362Y-141470696D01*
X143334036Y-141469937D01*
X143333513Y-141469300D01*
X143333511Y-141469297D01*
X143330202Y-141465269D01*
X143330023Y-141465051D01*
X143318435Y-141453463D01*
X143316748Y-141451329D01*
X143307034Y-141435570D01*
X143306468Y-141434652D01*
X143278531Y-141413408D01*
X143277340Y-141412368D01*
X142759409Y-140894438D01*
X142757171Y-140891303D01*
X142755899Y-140888701D01*
X142755425Y-140887731D01*
X142717948Y-140852966D01*
X142717632Y-140852661D01*
X142702723Y-140837752D01*
X142702280Y-140837448D01*
X142698917Y-140835140D01*
X142697580Y-140834071D01*
X142674147Y-140812334D01*
X142674145Y-140812333D01*
X142673354Y-140811599D01*
X142672351Y-140811199D01*
X142672348Y-140811197D01*
X142658890Y-140805828D01*
X142653638Y-140803733D01*
X142651361Y-140802518D01*
X142633854Y-140790508D01*
X142632804Y-140790259D01*
X142632802Y-140790258D01*
X142617694Y-140786673D01*
X142601699Y-140782877D01*
X142600074Y-140782363D01*
X142572218Y-140771250D01*
X142570143Y-140770422D01*
X142570142Y-140770422D01*
X142569378Y-140770117D01*
X142565311Y-140769718D01*
X142563373Y-140769528D01*
X142563368Y-140769528D01*
X142563085Y-140769500D01*
X142546699Y-140769500D01*
X142543997Y-140769184D01*
X142525984Y-140764909D01*
X142525983Y-140764909D01*
X142524934Y-140764660D01*
X142492705Y-140769046D01*
X142490156Y-140769393D01*
X142488578Y-140769500D01*
X140736814Y-140769500D01*
X140728541Y-140766073D01*
X139564517Y-139602049D01*
X139561090Y-139593776D01*
X139562617Y-139587999D01*
X139581598Y-139554585D01*
X139597785Y-139526091D01*
X139597787Y-139526087D01*
X139598068Y-139525592D01*
X139599094Y-139522510D01*
X139662917Y-139330650D01*
X139662918Y-139330647D01*
X139663096Y-139330111D01*
X139688916Y-139125722D01*
X139689043Y-139116673D01*
X139689285Y-139099308D01*
X139689328Y-139096248D01*
X139669225Y-138891218D01*
X139666585Y-138882472D01*
X139609843Y-138694536D01*
X139609842Y-138694534D01*
X139609680Y-138693997D01*
X139601026Y-138677720D01*
X139562121Y-138604551D01*
X139512963Y-138512097D01*
X139432951Y-138413993D01*
X139383115Y-138352888D01*
X139383114Y-138352887D01*
X139382756Y-138352448D01*
X139224020Y-138221130D01*
X139208450Y-138212711D01*
X139043307Y-138123419D01*
X139043306Y-138123419D01*
X139042800Y-138123145D01*
X138845999Y-138062225D01*
X138641114Y-138040691D01*
X138435948Y-138059362D01*
X138373403Y-138077770D01*
X138238863Y-138117367D01*
X138238860Y-138117368D01*
X138238317Y-138117528D01*
X138237819Y-138117789D01*
X138237815Y-138117790D01*
X138139453Y-138169213D01*
X138055747Y-138212974D01*
X138055305Y-138213329D01*
X138055301Y-138213332D01*
X137895637Y-138341705D01*
X137895192Y-138342063D01*
X137894832Y-138342492D01*
X137894827Y-138342497D01*
X137834180Y-138414774D01*
X137762769Y-138499878D01*
X137762496Y-138500374D01*
X137762495Y-138500376D01*
X137738678Y-138543699D01*
X137663521Y-138680410D01*
X137663350Y-138680950D01*
X137663348Y-138680954D01*
X137620359Y-138816473D01*
X137601229Y-138876780D01*
X137601166Y-138877345D01*
X137601165Y-138877348D01*
X137578329Y-139080939D01*
X137578265Y-139081510D01*
X137578313Y-139082082D01*
X137594215Y-139271445D01*
X137595504Y-139286801D01*
X137652289Y-139484834D01*
X137662598Y-139504893D01*
X137705385Y-139588149D01*
X137706119Y-139597074D01*
X137703252Y-139601770D01*
X134438949Y-142866073D01*
X134430676Y-142869500D01*
X133885346Y-142869500D01*
X133877073Y-142866073D01*
X133874145Y-142861182D01*
X133846098Y-142768288D01*
X133846097Y-142768286D01*
X133845935Y-142767749D01*
X133843987Y-142764084D01*
X133790665Y-142663801D01*
X133749218Y-142585849D01*
X133706657Y-142533664D01*
X133619370Y-142426640D01*
X133619369Y-142426639D01*
X133619011Y-142426200D01*
X133460275Y-142294882D01*
X133444705Y-142286463D01*
X133279562Y-142197171D01*
X133279561Y-142197171D01*
X133279055Y-142196897D01*
X133129080Y-142150472D01*
X133082797Y-142136145D01*
X133082796Y-142136145D01*
X133082254Y-142135977D01*
X132877369Y-142114443D01*
X132672203Y-142133114D01*
X132607779Y-142152075D01*
X132475118Y-142191119D01*
X132475115Y-142191120D01*
X132474572Y-142191280D01*
X132474074Y-142191541D01*
X132474070Y-142191542D01*
X132292505Y-142286463D01*
X132292002Y-142286726D01*
X132291560Y-142287081D01*
X132291556Y-142287084D01*
X132131892Y-142415457D01*
X132131447Y-142415815D01*
X132131087Y-142416244D01*
X132131082Y-142416249D01*
X132003119Y-142568750D01*
X131999024Y-142573630D01*
X131998751Y-142574126D01*
X131998750Y-142574128D01*
X131969314Y-142627672D01*
X131899776Y-142754162D01*
X131899605Y-142754702D01*
X131899603Y-142754706D01*
X131865827Y-142861182D01*
X131837484Y-142950532D01*
X131837421Y-142951097D01*
X131837420Y-142951100D01*
X131816975Y-143133373D01*
X131814520Y-143155262D01*
X131814568Y-143155834D01*
X131831291Y-143354975D01*
X131831759Y-143360553D01*
X131831916Y-143361100D01*
X131831916Y-143361101D01*
X131848751Y-143419811D01*
X131888544Y-143558586D01*
X131931504Y-143642177D01*
X131982280Y-143740977D01*
X131982712Y-143741818D01*
X132110677Y-143903270D01*
X132111114Y-143903642D01*
X132111115Y-143903643D01*
X132146776Y-143933993D01*
X132267564Y-144036791D01*
X132447398Y-144137297D01*
X132447937Y-144137472D01*
X132447939Y-144137473D01*
X132527061Y-144163181D01*
X132643329Y-144200959D01*
X132847894Y-144225351D01*
X132848454Y-144225308D01*
X132848456Y-144225308D01*
X133052730Y-144209590D01*
X133052731Y-144209590D01*
X133053300Y-144209546D01*
X133251725Y-144154145D01*
X133285079Y-144137297D01*
X133435097Y-144061517D01*
X133435610Y-144061258D01*
X133440444Y-144057482D01*
X133527341Y-143989590D01*
X133597951Y-143934424D01*
X133646455Y-143878231D01*
X133732193Y-143778902D01*
X133732194Y-143778901D01*
X133732564Y-143778472D01*
X133783049Y-143689602D01*
X133834040Y-143599843D01*
X133834042Y-143599839D01*
X133834323Y-143599344D01*
X133844617Y-143568401D01*
X133858331Y-143527175D01*
X133874521Y-143478506D01*
X133880383Y-143471738D01*
X133885622Y-143470500D01*
X134507776Y-143470500D01*
X134511574Y-143471134D01*
X134515335Y-143472425D01*
X134516410Y-143472385D01*
X134516412Y-143472385D01*
X134566406Y-143470508D01*
X134566845Y-143470500D01*
X134587941Y-143470500D01*
X134591382Y-143469859D01*
X134592475Y-143469656D01*
X134594177Y-143469466D01*
X134626120Y-143468267D01*
X134626122Y-143468267D01*
X134627201Y-143468226D01*
X134646709Y-143459845D01*
X134649175Y-143459096D01*
X134670046Y-143455209D01*
X134698174Y-143437871D01*
X134699694Y-143437081D01*
X134710085Y-143432617D01*
X134730056Y-143424036D01*
X134734942Y-143420022D01*
X134746527Y-143408437D01*
X134748661Y-143406750D01*
X134764423Y-143397034D01*
X134765341Y-143396468D01*
X134786587Y-143368528D01*
X134787627Y-143367337D01*
X135219702Y-142935262D01*
X138454520Y-142935262D01*
X138454568Y-142935834D01*
X138470559Y-143126258D01*
X138471759Y-143140553D01*
X138528544Y-143338586D01*
X138553215Y-143386590D01*
X138615270Y-143507337D01*
X138622712Y-143521818D01*
X138750677Y-143683270D01*
X138751114Y-143683642D01*
X138751115Y-143683643D01*
X138815119Y-143738114D01*
X138907564Y-143816791D01*
X139087398Y-143917297D01*
X139087937Y-143917472D01*
X139087939Y-143917473D01*
X139163814Y-143942126D01*
X139283329Y-143980959D01*
X139487894Y-144005351D01*
X139488454Y-144005308D01*
X139488456Y-144005308D01*
X139692730Y-143989590D01*
X139692731Y-143989590D01*
X139693300Y-143989546D01*
X139891725Y-143934145D01*
X139925079Y-143917297D01*
X140064700Y-143846769D01*
X140075610Y-143841258D01*
X140102414Y-143820317D01*
X140132844Y-143796542D01*
X140237951Y-143714424D01*
X140265233Y-143682817D01*
X140372193Y-143558902D01*
X140372194Y-143558901D01*
X140372564Y-143558472D01*
X140421468Y-143472385D01*
X140474040Y-143379843D01*
X140474042Y-143379839D01*
X140474323Y-143379344D01*
X140478318Y-143367337D01*
X140539172Y-143184402D01*
X140539173Y-143184399D01*
X140539351Y-143183863D01*
X140565171Y-142979474D01*
X140565583Y-142950000D01*
X140545480Y-142744970D01*
X140544222Y-142740801D01*
X140486098Y-142548288D01*
X140486097Y-142548286D01*
X140485935Y-142547749D01*
X140474244Y-142525760D01*
X140390488Y-142368238D01*
X140389218Y-142365849D01*
X140388860Y-142365410D01*
X140259370Y-142206640D01*
X140259369Y-142206639D01*
X140259011Y-142206200D01*
X140100275Y-142074882D01*
X140086325Y-142067339D01*
X139919562Y-141977171D01*
X139919561Y-141977171D01*
X139919055Y-141976897D01*
X139722254Y-141915977D01*
X139517369Y-141894443D01*
X139312203Y-141913114D01*
X139301905Y-141916145D01*
X139115118Y-141971119D01*
X139115115Y-141971120D01*
X139114572Y-141971280D01*
X139114074Y-141971541D01*
X139114070Y-141971542D01*
X138969089Y-142047337D01*
X138932002Y-142066726D01*
X138931560Y-142067081D01*
X138931556Y-142067084D01*
X138771892Y-142195457D01*
X138771447Y-142195815D01*
X138771087Y-142196244D01*
X138771082Y-142196249D01*
X138641675Y-142350471D01*
X138639024Y-142353630D01*
X138638751Y-142354126D01*
X138638750Y-142354128D01*
X138590373Y-142442126D01*
X138539776Y-142534162D01*
X138539605Y-142534702D01*
X138539603Y-142534706D01*
X138511584Y-142623034D01*
X138477484Y-142730532D01*
X138477421Y-142731097D01*
X138477420Y-142731100D01*
X138464591Y-142845473D01*
X138454520Y-142935262D01*
X135219702Y-142935262D01*
X138128085Y-140026879D01*
X138136358Y-140023452D01*
X138142066Y-140024939D01*
X138162621Y-140036427D01*
X138211143Y-140063545D01*
X138211682Y-140063720D01*
X138211684Y-140063721D01*
X138286164Y-140087921D01*
X138407074Y-140127207D01*
X138611639Y-140151599D01*
X138612199Y-140151556D01*
X138612201Y-140151556D01*
X138816475Y-140135838D01*
X138816476Y-140135838D01*
X138817045Y-140135794D01*
X139015470Y-140080393D01*
X139021330Y-140077433D01*
X139125807Y-140024659D01*
X139134736Y-140023987D01*
X139139355Y-140026829D01*
X140358088Y-141245562D01*
X140360326Y-141248697D01*
X140362072Y-141252269D01*
X140380252Y-141269133D01*
X140399549Y-141287034D01*
X140399865Y-141287339D01*
X140414774Y-141302248D01*
X140415217Y-141302552D01*
X140418580Y-141304860D01*
X140419917Y-141305929D01*
X140443350Y-141327666D01*
X140443352Y-141327667D01*
X140444143Y-141328401D01*
X140445146Y-141328801D01*
X140445149Y-141328803D01*
X140463856Y-141336266D01*
X140466133Y-141337481D01*
X140483643Y-141349493D01*
X140515800Y-141357124D01*
X140517432Y-141357640D01*
X140548119Y-141369883D01*
X140552186Y-141370282D01*
X140554124Y-141370472D01*
X140554129Y-141370472D01*
X140554412Y-141370500D01*
X140570798Y-141370500D01*
X140573499Y-141370816D01*
X140591513Y-141375091D01*
X140591514Y-141375091D01*
X140592563Y-141375340D01*
X140627341Y-141370607D01*
X140628919Y-141370500D01*
X142380683Y-141370500D01*
X142388956Y-141373927D01*
X142775779Y-141760750D01*
X142779198Y-141768584D01*
X142779492Y-141776413D01*
X142779500Y-141776852D01*
X142779500Y-141797948D01*
X142779599Y-141798478D01*
X142780344Y-141802482D01*
X142780534Y-141804184D01*
X142781627Y-141833288D01*
X142781774Y-141837208D01*
X142790155Y-141856716D01*
X142790904Y-141859182D01*
X142794791Y-141880053D01*
X142795357Y-141880971D01*
X142795358Y-141880974D01*
X142795782Y-141881661D01*
X142797206Y-141890502D01*
X142791961Y-141897760D01*
X142785822Y-141899500D01*
X141180252Y-141899500D01*
X141179685Y-141899613D01*
X141179683Y-141899613D01*
X141122899Y-141910908D01*
X141122898Y-141910908D01*
X141121769Y-141911133D01*
X141120811Y-141911773D01*
X141114268Y-141916145D01*
X141055448Y-141955448D01*
X141011133Y-142021769D01*
X141010908Y-142022898D01*
X141010908Y-142022899D01*
X141000253Y-142076468D01*
X140999500Y-142080252D01*
X140999500Y-143819748D01*
X140999613Y-143820315D01*
X140999613Y-143820317D01*
X141009866Y-143871859D01*
X141011133Y-143878231D01*
X141055448Y-143944552D01*
X141121769Y-143988867D01*
X141122898Y-143989092D01*
X141122899Y-143989092D01*
X141179683Y-144000387D01*
X141179685Y-144000387D01*
X141180252Y-144000500D01*
X142670683Y-144000500D01*
X142678956Y-144003927D01*
X146625771Y-147950742D01*
X146628008Y-147953875D01*
X146629755Y-147957449D01*
X146667203Y-147992187D01*
X146667232Y-147992214D01*
X146667546Y-147992517D01*
X146682457Y-148007428D01*
X146682900Y-148007732D01*
X146686263Y-148010040D01*
X146687600Y-148011109D01*
X146711033Y-148032846D01*
X146711035Y-148032847D01*
X146711826Y-148033581D01*
X146712829Y-148033981D01*
X146712832Y-148033983D01*
X146726290Y-148039352D01*
X146731542Y-148041447D01*
X146733819Y-148042662D01*
X146742431Y-148048570D01*
X146747427Y-148051997D01*
X146751326Y-148054672D01*
X146752376Y-148054921D01*
X146752378Y-148054922D01*
X146767486Y-148058507D01*
X146783481Y-148062303D01*
X146785105Y-148062816D01*
X146796575Y-148067392D01*
X146815037Y-148074758D01*
X146815038Y-148074758D01*
X146815802Y-148075063D01*
X146819869Y-148075462D01*
X146821807Y-148075652D01*
X146821812Y-148075652D01*
X146822095Y-148075680D01*
X146838481Y-148075680D01*
X146841183Y-148075996D01*
X146859196Y-148080271D01*
X146859197Y-148080271D01*
X146860246Y-148080520D01*
X146895024Y-148075787D01*
X146896602Y-148075680D01*
X159717473Y-148075680D01*
X159725746Y-148079107D01*
X159729173Y-148087380D01*
X159725746Y-148095653D01*
X159722840Y-148097777D01*
X159638369Y-148141375D01*
X159637839Y-148141837D01*
X159637838Y-148141838D01*
X159619550Y-148157792D01*
X159510604Y-148252831D01*
X159510197Y-148253410D01*
X159413520Y-148390967D01*
X159413518Y-148390971D01*
X159413113Y-148391547D01*
X159412856Y-148392206D01*
X159410779Y-148397533D01*
X159351524Y-148549513D01*
X159329394Y-148717611D01*
X159329471Y-148718309D01*
X159329471Y-148718311D01*
X159347921Y-148885430D01*
X159347999Y-148886135D01*
X159406266Y-149045356D01*
X159406657Y-149045937D01*
X159406657Y-149045938D01*
X159419818Y-149065523D01*
X159500830Y-149186083D01*
X159501352Y-149186558D01*
X159566298Y-149245654D01*
X159626233Y-149300191D01*
X159628382Y-149301358D01*
X159634018Y-149308316D01*
X159634500Y-149311640D01*
X159634500Y-149495539D01*
X159634785Y-149496415D01*
X159634785Y-149496417D01*
X159644077Y-149525013D01*
X159644506Y-149526799D01*
X159649354Y-149557410D01*
X159649772Y-149558230D01*
X159663425Y-149585026D01*
X159664127Y-149586722D01*
X159673704Y-149616196D01*
X159674246Y-149616942D01*
X159691919Y-149641266D01*
X159692878Y-149642829D01*
X159706950Y-149670448D01*
X159729513Y-149693011D01*
X159729516Y-149693015D01*
X159866012Y-149829510D01*
X159869439Y-149837783D01*
X159866012Y-149846056D01*
X159857750Y-149849483D01*
X159300000Y-149850000D01*
X159299998Y-149850000D01*
X127621500Y-149874500D01*
X126987200Y-149874500D01*
X126978927Y-149871073D01*
X126975500Y-149862800D01*
X126975500Y-140069748D01*
X131249500Y-140069748D01*
X131249613Y-140070315D01*
X131249613Y-140070317D01*
X131260894Y-140127028D01*
X131261133Y-140128231D01*
X131261773Y-140129189D01*
X131280737Y-140157570D01*
X131305448Y-140194552D01*
X131306406Y-140195192D01*
X131366449Y-140235312D01*
X131371769Y-140238867D01*
X131372898Y-140239092D01*
X131372899Y-140239092D01*
X131429683Y-140250387D01*
X131429685Y-140250387D01*
X131430252Y-140250500D01*
X133169748Y-140250500D01*
X133170315Y-140250387D01*
X133170317Y-140250387D01*
X133227101Y-140239092D01*
X133227102Y-140239092D01*
X133228231Y-140238867D01*
X133233552Y-140235312D01*
X133293594Y-140195192D01*
X133294552Y-140194552D01*
X133319263Y-140157570D01*
X133338227Y-140129189D01*
X133338867Y-140128231D01*
X133339107Y-140127028D01*
X133350387Y-140070317D01*
X133350387Y-140070315D01*
X133350500Y-140069748D01*
X133350500Y-139965996D01*
X135043245Y-139965996D01*
X135043358Y-139966563D01*
X135043358Y-139966565D01*
X135050069Y-140000301D01*
X135054878Y-140024479D01*
X135055518Y-140025437D01*
X135071250Y-140048981D01*
X135099193Y-140090800D01*
X135100151Y-140091440D01*
X135155212Y-140128231D01*
X135165514Y-140135115D01*
X135166643Y-140135340D01*
X135166644Y-140135340D01*
X135223428Y-140146635D01*
X135223430Y-140146635D01*
X135223997Y-140146748D01*
X136963493Y-140146748D01*
X136964060Y-140146635D01*
X136964062Y-140146635D01*
X137020846Y-140135340D01*
X137020847Y-140135340D01*
X137021976Y-140135115D01*
X137032279Y-140128231D01*
X137087339Y-140091440D01*
X137088297Y-140090800D01*
X137116240Y-140048981D01*
X137131972Y-140025437D01*
X137132612Y-140024479D01*
X137137422Y-140000301D01*
X137144132Y-139966565D01*
X137144132Y-139966563D01*
X137144245Y-139965996D01*
X137144245Y-138226500D01*
X137143947Y-138225000D01*
X137132837Y-138169147D01*
X137132837Y-138169146D01*
X137132612Y-138168017D01*
X137126367Y-138158670D01*
X137089729Y-138103839D01*
X137088297Y-138101696D01*
X137029477Y-138062393D01*
X137022934Y-138058021D01*
X137021976Y-138057381D01*
X137020847Y-138057156D01*
X137020846Y-138057156D01*
X136964062Y-138045861D01*
X136964060Y-138045861D01*
X136963493Y-138045748D01*
X135223997Y-138045748D01*
X135223430Y-138045861D01*
X135223428Y-138045861D01*
X135166644Y-138057156D01*
X135166643Y-138057156D01*
X135165514Y-138057381D01*
X135164556Y-138058021D01*
X135158013Y-138062393D01*
X135099193Y-138101696D01*
X135097761Y-138103839D01*
X135061124Y-138158670D01*
X135054878Y-138168017D01*
X135054653Y-138169146D01*
X135054653Y-138169147D01*
X135043543Y-138225000D01*
X135043245Y-138226500D01*
X135043245Y-139965996D01*
X133350500Y-139965996D01*
X133350500Y-138330252D01*
X133338867Y-138271769D01*
X133321093Y-138245168D01*
X133308619Y-138226500D01*
X133294552Y-138205448D01*
X133240225Y-138169147D01*
X133229189Y-138161773D01*
X133228231Y-138161133D01*
X133227102Y-138160908D01*
X133227101Y-138160908D01*
X133170317Y-138149613D01*
X133170315Y-138149613D01*
X133169748Y-138149500D01*
X131430252Y-138149500D01*
X131429685Y-138149613D01*
X131429683Y-138149613D01*
X131372899Y-138160908D01*
X131372898Y-138160908D01*
X131371769Y-138161133D01*
X131370811Y-138161773D01*
X131359775Y-138169147D01*
X131305448Y-138205448D01*
X131291381Y-138226500D01*
X131278908Y-138245168D01*
X131261133Y-138271769D01*
X131249500Y-138330252D01*
X131249500Y-140069748D01*
X126975500Y-140069748D01*
X126975500Y-136148703D01*
X127330677Y-136148703D01*
X127361111Y-136340857D01*
X127373941Y-136374279D01*
X127414970Y-136481162D01*
X127430831Y-136522482D01*
X127431166Y-136522997D01*
X127431166Y-136522998D01*
X127438097Y-136533670D01*
X127536790Y-136685644D01*
X127606073Y-136754927D01*
X127609500Y-136763200D01*
X127609500Y-138811238D01*
X127609356Y-138813068D01*
X127609130Y-138814496D01*
X127605677Y-138836297D01*
X127605709Y-138836908D01*
X127605709Y-138836909D01*
X127609484Y-138908938D01*
X127609500Y-138909550D01*
X127609500Y-138933504D01*
X127609725Y-138935647D01*
X127612004Y-138957329D01*
X127612052Y-138957940D01*
X127612403Y-138964636D01*
X127615859Y-139030578D01*
X127616019Y-139031174D01*
X127616019Y-139031176D01*
X127621945Y-139053291D01*
X127622280Y-139055096D01*
X127624738Y-139078482D01*
X127647180Y-139147550D01*
X127647212Y-139147650D01*
X127647384Y-139148229D01*
X127666212Y-139218497D01*
X127669553Y-139225054D01*
X127676889Y-139239452D01*
X127677591Y-139241147D01*
X127684856Y-139263508D01*
X127721227Y-139326504D01*
X127721511Y-139327027D01*
X127754260Y-139391301D01*
X127754535Y-139391840D01*
X127759441Y-139397898D01*
X127769331Y-139410112D01*
X127770370Y-139411625D01*
X127781820Y-139431456D01*
X127781823Y-139431460D01*
X127782130Y-139431992D01*
X127830226Y-139485407D01*
X127830800Y-139486045D01*
X127831193Y-139486505D01*
X127846275Y-139505130D01*
X127863211Y-139522066D01*
X127863633Y-139522510D01*
X127912308Y-139576569D01*
X127912808Y-139576933D01*
X127912810Y-139576934D01*
X127931335Y-139590394D01*
X127932731Y-139591586D01*
X128079870Y-139738725D01*
X128193160Y-139830465D01*
X128193696Y-139830738D01*
X128193699Y-139830740D01*
X128251598Y-139860241D01*
X128366503Y-139918788D01*
X128443577Y-139939440D01*
X128553824Y-139968981D01*
X128553826Y-139968981D01*
X128554422Y-139969141D01*
X128708121Y-139977196D01*
X128748091Y-139979291D01*
X128748092Y-139979291D01*
X128748703Y-139979323D01*
X128940857Y-139948889D01*
X129019996Y-139918510D01*
X129121910Y-139879389D01*
X129121913Y-139879387D01*
X129122482Y-139879169D01*
X129285644Y-139773210D01*
X129423210Y-139635644D01*
X129520904Y-139485209D01*
X129528834Y-139472998D01*
X129528834Y-139472997D01*
X129529169Y-139472482D01*
X129531243Y-139467081D01*
X129591137Y-139311052D01*
X129598889Y-139290857D01*
X129629323Y-139098703D01*
X129619141Y-138904422D01*
X129618432Y-138901774D01*
X129577734Y-138749891D01*
X129568788Y-138716503D01*
X129518098Y-138617019D01*
X129480740Y-138543699D01*
X129480738Y-138543696D01*
X129480465Y-138543160D01*
X129469871Y-138530077D01*
X129463107Y-138521724D01*
X129460500Y-138514361D01*
X129460500Y-136213201D01*
X129463927Y-136204928D01*
X131459928Y-134208927D01*
X131468201Y-134205500D01*
X135981799Y-134205500D01*
X135990072Y-134208927D01*
X137383414Y-135602269D01*
X137384606Y-135603665D01*
X137398066Y-135622190D01*
X137398431Y-135622692D01*
X137452490Y-135671367D01*
X137452934Y-135671789D01*
X137469870Y-135688725D01*
X137470106Y-135688916D01*
X137470107Y-135688917D01*
X137488489Y-135703802D01*
X137488949Y-135704195D01*
X137543008Y-135752870D01*
X137543540Y-135753177D01*
X137543544Y-135753180D01*
X137563375Y-135764630D01*
X137564888Y-135765669D01*
X137583160Y-135780465D01*
X137583696Y-135780738D01*
X137583699Y-135780740D01*
X137647973Y-135813489D01*
X137648496Y-135813773D01*
X137711492Y-135850144D01*
X137733852Y-135857409D01*
X137735548Y-135858111D01*
X137744151Y-135862494D01*
X137756503Y-135868788D01*
X137826771Y-135887616D01*
X137827343Y-135887786D01*
X137896518Y-135910262D01*
X137919904Y-135912720D01*
X137921709Y-135913055D01*
X137943824Y-135918981D01*
X137943826Y-135918981D01*
X137944422Y-135919141D01*
X137993053Y-135921690D01*
X138017060Y-135922948D01*
X138017671Y-135922996D01*
X138029432Y-135924232D01*
X138041496Y-135925500D01*
X138065450Y-135925500D01*
X138066062Y-135925516D01*
X138138091Y-135929291D01*
X138138092Y-135929291D01*
X138138703Y-135929323D01*
X138161932Y-135925644D01*
X138163762Y-135925500D01*
X152538504Y-135925500D01*
X152683482Y-135910262D01*
X152810638Y-135868947D01*
X152867927Y-135850333D01*
X152867929Y-135850332D01*
X152868508Y-135850144D01*
X153036992Y-135752870D01*
X153181569Y-135622692D01*
X153283414Y-135482515D01*
X153295559Y-135465799D01*
X153295560Y-135465797D01*
X153295922Y-135465299D01*
X153375051Y-135287571D01*
X153387600Y-135228531D01*
X153415372Y-135097878D01*
X153415372Y-135097874D01*
X153415500Y-135097274D01*
X153415500Y-134902726D01*
X153415011Y-134900422D01*
X153375179Y-134713032D01*
X153375051Y-134712429D01*
X153295922Y-134534701D01*
X153281609Y-134515000D01*
X153203486Y-134407474D01*
X153181569Y-134377308D01*
X153036992Y-134247130D01*
X152891056Y-134162874D01*
X152869033Y-134150159D01*
X152869032Y-134150159D01*
X152868508Y-134149856D01*
X152867929Y-134149668D01*
X152867927Y-134149667D01*
X152684070Y-134089929D01*
X152683482Y-134089738D01*
X152538504Y-134074500D01*
X138478201Y-134074500D01*
X138469928Y-134071073D01*
X137116231Y-132717376D01*
X140410455Y-132717376D01*
X140429227Y-132895983D01*
X140487103Y-133065993D01*
X140487445Y-133066549D01*
X140487446Y-133066551D01*
X140511391Y-133105473D01*
X140581206Y-133218955D01*
X140581667Y-133219426D01*
X140581668Y-133219427D01*
X140604157Y-133242392D01*
X140706859Y-133347268D01*
X140707407Y-133347621D01*
X140707408Y-133347622D01*
X140757795Y-133380094D01*
X140857817Y-133444554D01*
X141026578Y-133505978D01*
X141165283Y-133523500D01*
X169008541Y-133523500D01*
X169008666Y-133523501D01*
X169098407Y-133524441D01*
X169130211Y-133517565D01*
X169145960Y-133514160D01*
X169147128Y-133513969D01*
X169194823Y-133508619D01*
X169194825Y-133508619D01*
X169195472Y-133508546D01*
X169233358Y-133495353D01*
X169234732Y-133494966D01*
X169273305Y-133486627D01*
X169273307Y-133486626D01*
X169273942Y-133486489D01*
X169274531Y-133486214D01*
X169274535Y-133486213D01*
X169318036Y-133465929D01*
X169319132Y-133465484D01*
X169364456Y-133449700D01*
X169364457Y-133449700D01*
X169365073Y-133449485D01*
X169399093Y-133428227D01*
X169400343Y-133427548D01*
X169436707Y-133410591D01*
X169475155Y-133380767D01*
X169476114Y-133380098D01*
X169517375Y-133354316D01*
X169538277Y-133333560D01*
X169545842Y-133326048D01*
X169546610Y-133325371D01*
X169546891Y-133325123D01*
X169547177Y-133324901D01*
X169573037Y-133299041D01*
X169644807Y-133227770D01*
X169645160Y-133227214D01*
X169645567Y-133226708D01*
X169645595Y-133226730D01*
X169646587Y-133225491D01*
X169687969Y-133184109D01*
X169688164Y-133183864D01*
X169688170Y-133183858D01*
X169771257Y-133079776D01*
X169771257Y-133079775D01*
X169771664Y-133079266D01*
X169775514Y-133071303D01*
X169823598Y-132971836D01*
X169849828Y-132917577D01*
X169852617Y-132905499D01*
X169890080Y-132743224D01*
X169890227Y-132742589D01*
X169890695Y-132608434D01*
X169890851Y-132563650D01*
X169890851Y-132563648D01*
X169890853Y-132562999D01*
X169890711Y-132562363D01*
X169851820Y-132388371D01*
X169851819Y-132388368D01*
X169851677Y-132387733D01*
X169843133Y-132369738D01*
X169774926Y-132226096D01*
X169774644Y-132225502D01*
X169769353Y-132218778D01*
X169663987Y-132084883D01*
X169663985Y-132084881D01*
X169663583Y-132084370D01*
X169524015Y-131971350D01*
X169362876Y-131892059D01*
X169199642Y-131853171D01*
X169188817Y-131850592D01*
X169188815Y-131850592D01*
X169188174Y-131850439D01*
X169187515Y-131850432D01*
X169187514Y-131850432D01*
X169124051Y-131849768D01*
X169008593Y-131848559D01*
X169007961Y-131848696D01*
X169007957Y-131848696D01*
X168833695Y-131886372D01*
X168833693Y-131886373D01*
X168833058Y-131886510D01*
X168832469Y-131886785D01*
X168832468Y-131886785D01*
X168758228Y-131921404D01*
X168753283Y-131922500D01*
X141170845Y-131922500D01*
X141170516Y-131922537D01*
X141170514Y-131922537D01*
X141038177Y-131937381D01*
X141038175Y-131937381D01*
X141037528Y-131937454D01*
X141036910Y-131937669D01*
X141036911Y-131937669D01*
X140896032Y-131986728D01*
X140867927Y-131996515D01*
X140715625Y-132091684D01*
X140588193Y-132218230D01*
X140491963Y-132369864D01*
X140431719Y-132539049D01*
X140431642Y-132539699D01*
X140431641Y-132539701D01*
X140410532Y-132716726D01*
X140410532Y-132716730D01*
X140410455Y-132717376D01*
X137116231Y-132717376D01*
X137076586Y-132677731D01*
X137075394Y-132676335D01*
X137061934Y-132657810D01*
X137061933Y-132657808D01*
X137061569Y-132657308D01*
X137007510Y-132608633D01*
X137007066Y-132608211D01*
X136990130Y-132591275D01*
X136971505Y-132576193D01*
X136971045Y-132575800D01*
X136917446Y-132527539D01*
X136916992Y-132527130D01*
X136916460Y-132526823D01*
X136916456Y-132526820D01*
X136896625Y-132515370D01*
X136895112Y-132514331D01*
X136889209Y-132509551D01*
X136876840Y-132499535D01*
X136876304Y-132499262D01*
X136876301Y-132499260D01*
X136812027Y-132466511D01*
X136811504Y-132466227D01*
X136748508Y-132429856D01*
X136726147Y-132422591D01*
X136724452Y-132421889D01*
X136715849Y-132417506D01*
X136703497Y-132411212D01*
X136633229Y-132392384D01*
X136632657Y-132392214D01*
X136577913Y-132374427D01*
X136564070Y-132369929D01*
X136563482Y-132369738D01*
X136540096Y-132367280D01*
X136538291Y-132366945D01*
X136516176Y-132361019D01*
X136516174Y-132361019D01*
X136515578Y-132360859D01*
X136466947Y-132358310D01*
X136442940Y-132357052D01*
X136442329Y-132357004D01*
X136430568Y-132355768D01*
X136418504Y-132354500D01*
X136394550Y-132354500D01*
X136393938Y-132354484D01*
X136321909Y-132350709D01*
X136321908Y-132350709D01*
X136321297Y-132350677D01*
X136301463Y-132353818D01*
X136298068Y-132354356D01*
X136296238Y-132354500D01*
X131153762Y-132354500D01*
X131151932Y-132354356D01*
X131148537Y-132353818D01*
X131128703Y-132350677D01*
X131128092Y-132350709D01*
X131128091Y-132350709D01*
X131056062Y-132354484D01*
X131055450Y-132354500D01*
X131031496Y-132354500D01*
X131019432Y-132355768D01*
X131007671Y-132357004D01*
X131007060Y-132357052D01*
X130983053Y-132358310D01*
X130934422Y-132360859D01*
X130933826Y-132361019D01*
X130933824Y-132361019D01*
X130911709Y-132366945D01*
X130909904Y-132367280D01*
X130886518Y-132369738D01*
X130885930Y-132369929D01*
X130872087Y-132374427D01*
X130817343Y-132392214D01*
X130816771Y-132392384D01*
X130746503Y-132411212D01*
X130734151Y-132417506D01*
X130725548Y-132421889D01*
X130723853Y-132422591D01*
X130701492Y-132429856D01*
X130638496Y-132466227D01*
X130637973Y-132466511D01*
X130573699Y-132499260D01*
X130573696Y-132499262D01*
X130573160Y-132499535D01*
X130560791Y-132509551D01*
X130554888Y-132514331D01*
X130553375Y-132515370D01*
X130533544Y-132526820D01*
X130533540Y-132526823D01*
X130533008Y-132527130D01*
X130532554Y-132527539D01*
X130478955Y-132575800D01*
X130478495Y-132576193D01*
X130459870Y-132591275D01*
X130442934Y-132608211D01*
X130442490Y-132608633D01*
X130388431Y-132657308D01*
X130388067Y-132657808D01*
X130388066Y-132657810D01*
X130374606Y-132676335D01*
X130373414Y-132677731D01*
X127571275Y-135479870D01*
X127479535Y-135593160D01*
X127479262Y-135593696D01*
X127479260Y-135593699D01*
X127439686Y-135671367D01*
X127391212Y-135766503D01*
X127391053Y-135767097D01*
X127342338Y-135948904D01*
X127340859Y-135954422D01*
X127330677Y-136148703D01*
X126975500Y-136148703D01*
X126975500Y-131787200D01*
X126978927Y-131778927D01*
X126987200Y-131775500D01*
X226737800Y-131775500D01*
X226746073Y-131778927D01*
G37*
%TD.AperFunction*%
%TA.AperFunction,Conductor*%
G36*
X153768587Y-140989896D02*
G01*
X153772014Y-140998169D01*
X153768587Y-141006442D01*
X153470491Y-141304538D01*
X153462218Y-141307965D01*
X153456653Y-141306557D01*
X153374562Y-141262171D01*
X153374561Y-141262171D01*
X153374055Y-141261897D01*
X153190564Y-141205097D01*
X153177797Y-141201145D01*
X153177796Y-141201145D01*
X153177254Y-141200977D01*
X152972369Y-141179443D01*
X152767203Y-141198114D01*
X152701097Y-141217570D01*
X152570118Y-141256119D01*
X152570115Y-141256120D01*
X152569572Y-141256280D01*
X152569074Y-141256541D01*
X152569070Y-141256542D01*
X152392444Y-141348881D01*
X152387002Y-141351726D01*
X152386560Y-141352081D01*
X152386556Y-141352084D01*
X152230141Y-141477845D01*
X152226447Y-141480815D01*
X152226087Y-141481244D01*
X152226082Y-141481249D01*
X152112022Y-141617181D01*
X152094024Y-141638630D01*
X152093751Y-141639126D01*
X152093750Y-141639128D01*
X152087032Y-141651348D01*
X151994776Y-141819162D01*
X151994605Y-141819702D01*
X151994603Y-141819706D01*
X151964011Y-141916145D01*
X151932484Y-142015532D01*
X151932421Y-142016097D01*
X151932420Y-142016100D01*
X151917129Y-142152425D01*
X151909520Y-142220262D01*
X151909568Y-142220834D01*
X151921844Y-142367017D01*
X151926759Y-142425553D01*
X151926916Y-142426100D01*
X151926916Y-142426101D01*
X151927071Y-142426640D01*
X151983544Y-142623586D01*
X152004747Y-142664843D01*
X152077077Y-142805582D01*
X152077712Y-142806818D01*
X152205677Y-142968270D01*
X152206114Y-142968642D01*
X152206115Y-142968643D01*
X152219228Y-142979803D01*
X152362564Y-143101791D01*
X152542398Y-143202297D01*
X152542937Y-143202472D01*
X152542939Y-143202473D01*
X152625945Y-143229443D01*
X152738329Y-143265959D01*
X152942894Y-143290351D01*
X152943454Y-143290308D01*
X152943456Y-143290308D01*
X153147730Y-143274590D01*
X153147731Y-143274590D01*
X153148300Y-143274546D01*
X153334949Y-143222433D01*
X153346170Y-143219300D01*
X153346725Y-143219145D01*
X153360221Y-143212328D01*
X153474322Y-143154691D01*
X153530610Y-143126258D01*
X153540867Y-143118245D01*
X153648288Y-143034318D01*
X153692951Y-142999424D01*
X153748827Y-142934691D01*
X153827193Y-142843902D01*
X153827194Y-142843901D01*
X153827564Y-142843472D01*
X153883117Y-142745682D01*
X153929040Y-142664843D01*
X153929042Y-142664839D01*
X153929323Y-142664344D01*
X153941320Y-142628282D01*
X153994172Y-142469402D01*
X153994173Y-142469399D01*
X153994351Y-142468863D01*
X154020171Y-142264474D01*
X154020583Y-142235000D01*
X154000480Y-142029970D01*
X153999150Y-142025562D01*
X153941098Y-141833288D01*
X153941097Y-141833286D01*
X153940935Y-141832749D01*
X153893376Y-141743302D01*
X153892518Y-141734389D01*
X153895434Y-141729537D01*
X154235555Y-141389416D01*
X154243828Y-141385989D01*
X154851164Y-141385989D01*
X154859437Y-141389416D01*
X154862864Y-141397689D01*
X154859437Y-141405962D01*
X154858499Y-141406804D01*
X154823862Y-141434652D01*
X154771410Y-141476825D01*
X154766447Y-141480815D01*
X154766087Y-141481244D01*
X154766082Y-141481249D01*
X154652022Y-141617181D01*
X154634024Y-141638630D01*
X154633751Y-141639126D01*
X154633750Y-141639128D01*
X154627032Y-141651348D01*
X154534776Y-141819162D01*
X154534605Y-141819702D01*
X154534603Y-141819706D01*
X154504011Y-141916145D01*
X154472484Y-142015532D01*
X154472421Y-142016097D01*
X154472420Y-142016100D01*
X154457129Y-142152425D01*
X154449520Y-142220262D01*
X154449568Y-142220834D01*
X154461844Y-142367017D01*
X154466759Y-142425553D01*
X154466916Y-142426100D01*
X154466916Y-142426101D01*
X154467071Y-142426640D01*
X154523544Y-142623586D01*
X154544747Y-142664843D01*
X154617077Y-142805582D01*
X154617712Y-142806818D01*
X154745677Y-142968270D01*
X154746114Y-142968642D01*
X154746115Y-142968643D01*
X154759228Y-142979803D01*
X154902564Y-143101791D01*
X155082398Y-143202297D01*
X155082937Y-143202472D01*
X155082939Y-143202473D01*
X155165945Y-143229443D01*
X155278329Y-143265959D01*
X155482894Y-143290351D01*
X155483454Y-143290308D01*
X155483456Y-143290308D01*
X155687730Y-143274590D01*
X155687731Y-143274590D01*
X155688300Y-143274546D01*
X155874949Y-143222433D01*
X155886170Y-143219300D01*
X155886725Y-143219145D01*
X155887240Y-143218885D01*
X155997062Y-143163411D01*
X156005991Y-143162739D01*
X156010610Y-143165581D01*
X156405102Y-143560073D01*
X156407340Y-143563208D01*
X156409086Y-143566780D01*
X156443605Y-143598801D01*
X156446563Y-143601545D01*
X156446879Y-143601850D01*
X156461788Y-143616759D01*
X156462231Y-143617063D01*
X156465594Y-143619371D01*
X156466931Y-143620440D01*
X156490364Y-143642177D01*
X156490366Y-143642178D01*
X156491157Y-143642912D01*
X156492160Y-143643312D01*
X156492163Y-143643314D01*
X156505621Y-143648683D01*
X156510873Y-143650778D01*
X156513150Y-143651993D01*
X156530657Y-143664003D01*
X156531707Y-143664252D01*
X156531709Y-143664253D01*
X156546817Y-143667838D01*
X156562812Y-143671634D01*
X156564437Y-143672148D01*
X156583670Y-143679821D01*
X156594368Y-143684089D01*
X156594369Y-143684089D01*
X156595133Y-143684394D01*
X156599200Y-143684793D01*
X156601138Y-143684983D01*
X156601143Y-143684983D01*
X156601426Y-143685011D01*
X156617812Y-143685011D01*
X156620514Y-143685327D01*
X156638527Y-143689602D01*
X156638528Y-143689602D01*
X156639577Y-143689851D01*
X156674355Y-143685118D01*
X156675933Y-143685011D01*
X158150849Y-143685011D01*
X158159122Y-143688438D01*
X161126349Y-146655666D01*
X161129776Y-146663939D01*
X161126349Y-146672212D01*
X161118076Y-146675639D01*
X160651078Y-146675639D01*
X160647279Y-146675005D01*
X160644538Y-146674064D01*
X160644539Y-146674064D01*
X160643519Y-146673714D01*
X160642444Y-146673754D01*
X160642442Y-146673754D01*
X160592448Y-146675631D01*
X160592009Y-146675639D01*
X160570913Y-146675639D01*
X160570906Y-146675640D01*
X160570891Y-146675641D01*
X157835458Y-146675641D01*
X157827185Y-146672214D01*
X156435772Y-145280801D01*
X156432345Y-145272528D01*
X156433872Y-145266751D01*
X156457920Y-145224418D01*
X156469040Y-145204843D01*
X156469042Y-145204839D01*
X156469323Y-145204344D01*
X156476482Y-145182825D01*
X156534172Y-145009402D01*
X156534173Y-145009399D01*
X156534351Y-145008863D01*
X156560171Y-144804474D01*
X156560583Y-144775000D01*
X156540480Y-144569970D01*
X156538026Y-144561840D01*
X156481098Y-144373288D01*
X156481097Y-144373286D01*
X156480935Y-144372749D01*
X156384218Y-144190849D01*
X156377288Y-144182352D01*
X156254370Y-144031640D01*
X156254369Y-144031639D01*
X156254011Y-144031200D01*
X156095275Y-143899882D01*
X156092348Y-143898299D01*
X155914562Y-143802171D01*
X155914561Y-143802171D01*
X155914055Y-143801897D01*
X155717254Y-143740977D01*
X155512369Y-143719443D01*
X155307203Y-143738114D01*
X155293086Y-143742269D01*
X155110118Y-143796119D01*
X155110115Y-143796120D01*
X155109572Y-143796280D01*
X155109074Y-143796541D01*
X155109070Y-143796542D01*
X154965004Y-143871859D01*
X154927002Y-143891726D01*
X154926560Y-143892081D01*
X154926556Y-143892084D01*
X154785734Y-144005308D01*
X154766447Y-144020815D01*
X154766087Y-144021244D01*
X154766082Y-144021249D01*
X154645850Y-144164536D01*
X154634024Y-144178630D01*
X154633751Y-144179126D01*
X154633750Y-144179128D01*
X154605592Y-144230348D01*
X154534776Y-144359162D01*
X154534605Y-144359702D01*
X154534603Y-144359706D01*
X154489803Y-144500935D01*
X154472484Y-144555532D01*
X154472421Y-144556097D01*
X154472420Y-144556100D01*
X154453863Y-144721545D01*
X154449520Y-144760262D01*
X154449568Y-144760834D01*
X154461091Y-144898050D01*
X154466759Y-144965553D01*
X154466916Y-144966100D01*
X154466916Y-144966101D01*
X154468527Y-144971718D01*
X154523544Y-145163586D01*
X154557106Y-145228891D01*
X154608275Y-145328455D01*
X154617712Y-145346818D01*
X154745677Y-145508270D01*
X154746114Y-145508642D01*
X154746115Y-145508643D01*
X154809684Y-145562744D01*
X154902564Y-145641791D01*
X155082398Y-145742297D01*
X155082937Y-145742472D01*
X155082939Y-145742473D01*
X155163332Y-145768594D01*
X155278329Y-145805959D01*
X155482894Y-145830351D01*
X155483454Y-145830308D01*
X155483456Y-145830308D01*
X155687730Y-145814590D01*
X155687731Y-145814590D01*
X155688300Y-145814546D01*
X155886725Y-145759145D01*
X155905247Y-145749789D01*
X155997062Y-145703411D01*
X156005991Y-145702739D01*
X156010610Y-145705581D01*
X157360217Y-147055188D01*
X157363644Y-147063461D01*
X157360217Y-147071734D01*
X157351944Y-147075161D01*
X155694978Y-147075161D01*
X155686705Y-147071734D01*
X153895772Y-145280801D01*
X153892345Y-145272528D01*
X153893872Y-145266751D01*
X153917920Y-145224418D01*
X153929040Y-145204843D01*
X153929042Y-145204839D01*
X153929323Y-145204344D01*
X153936482Y-145182825D01*
X153994172Y-145009402D01*
X153994173Y-145009399D01*
X153994351Y-145008863D01*
X154020171Y-144804474D01*
X154020583Y-144775000D01*
X154000480Y-144569970D01*
X153998026Y-144561840D01*
X153941098Y-144373288D01*
X153941097Y-144373286D01*
X153940935Y-144372749D01*
X153844218Y-144190849D01*
X153837288Y-144182352D01*
X153714370Y-144031640D01*
X153714369Y-144031639D01*
X153714011Y-144031200D01*
X153555275Y-143899882D01*
X153552348Y-143898299D01*
X153374562Y-143802171D01*
X153374561Y-143802171D01*
X153374055Y-143801897D01*
X153177254Y-143740977D01*
X152972369Y-143719443D01*
X152767203Y-143738114D01*
X152753086Y-143742269D01*
X152570118Y-143796119D01*
X152570115Y-143796120D01*
X152569572Y-143796280D01*
X152569074Y-143796541D01*
X152569070Y-143796542D01*
X152425004Y-143871859D01*
X152387002Y-143891726D01*
X152386560Y-143892081D01*
X152386556Y-143892084D01*
X152245734Y-144005308D01*
X152226447Y-144020815D01*
X152226087Y-144021244D01*
X152226082Y-144021249D01*
X152105850Y-144164536D01*
X152094024Y-144178630D01*
X152093751Y-144179126D01*
X152093750Y-144179128D01*
X152065592Y-144230348D01*
X151994776Y-144359162D01*
X151994605Y-144359702D01*
X151994603Y-144359706D01*
X151949803Y-144500935D01*
X151932484Y-144555532D01*
X151932421Y-144556097D01*
X151932420Y-144556100D01*
X151913863Y-144721545D01*
X151909520Y-144760262D01*
X151909568Y-144760834D01*
X151921091Y-144898050D01*
X151926759Y-144965553D01*
X151926916Y-144966100D01*
X151926916Y-144966101D01*
X151928527Y-144971718D01*
X151983544Y-145163586D01*
X152017106Y-145228891D01*
X152068275Y-145328455D01*
X152077712Y-145346818D01*
X152205677Y-145508270D01*
X152206114Y-145508642D01*
X152206115Y-145508643D01*
X152269684Y-145562744D01*
X152362564Y-145641791D01*
X152542398Y-145742297D01*
X152542937Y-145742472D01*
X152542939Y-145742473D01*
X152623332Y-145768594D01*
X152738329Y-145805959D01*
X152942894Y-145830351D01*
X152943454Y-145830308D01*
X152943456Y-145830308D01*
X153147730Y-145814590D01*
X153147731Y-145814590D01*
X153148300Y-145814546D01*
X153346725Y-145759145D01*
X153365247Y-145749789D01*
X153457062Y-145703411D01*
X153465991Y-145702739D01*
X153470610Y-145705581D01*
X155219736Y-147454707D01*
X155223163Y-147462980D01*
X155219736Y-147471253D01*
X155211463Y-147474680D01*
X147004497Y-147474680D01*
X146996224Y-147471253D01*
X145169719Y-145644748D01*
X149374500Y-145644748D01*
X149374613Y-145645315D01*
X149374613Y-145645317D01*
X149384870Y-145696879D01*
X149386133Y-145703231D01*
X149430448Y-145769552D01*
X149496769Y-145813867D01*
X149497898Y-145814092D01*
X149497899Y-145814092D01*
X149554683Y-145825387D01*
X149554685Y-145825387D01*
X149555252Y-145825500D01*
X151294748Y-145825500D01*
X151295315Y-145825387D01*
X151295317Y-145825387D01*
X151352101Y-145814092D01*
X151352102Y-145814092D01*
X151353231Y-145813867D01*
X151419552Y-145769552D01*
X151463867Y-145703231D01*
X151465131Y-145696879D01*
X151475387Y-145645317D01*
X151475387Y-145645315D01*
X151475500Y-145644748D01*
X151475500Y-143905252D01*
X151473924Y-143897328D01*
X151464092Y-143847899D01*
X151464092Y-143847898D01*
X151463867Y-143846769D01*
X151459950Y-143840906D01*
X151420192Y-143781406D01*
X151419552Y-143780448D01*
X151360732Y-143741145D01*
X151354189Y-143736773D01*
X151353231Y-143736133D01*
X151352102Y-143735908D01*
X151352101Y-143735908D01*
X151295317Y-143724613D01*
X151295315Y-143724613D01*
X151294748Y-143724500D01*
X149555252Y-143724500D01*
X149554685Y-143724613D01*
X149554683Y-143724613D01*
X149497899Y-143735908D01*
X149497898Y-143735908D01*
X149496769Y-143736133D01*
X149495811Y-143736773D01*
X149489268Y-143741145D01*
X149430448Y-143780448D01*
X149429808Y-143781406D01*
X149390051Y-143840906D01*
X149386133Y-143846769D01*
X149385908Y-143847898D01*
X149385908Y-143847899D01*
X149376076Y-143897328D01*
X149374500Y-143905252D01*
X149374500Y-145644748D01*
X145169719Y-145644748D01*
X143103927Y-143578956D01*
X143100500Y-143570683D01*
X143100500Y-142243717D01*
X143103927Y-142235444D01*
X143112200Y-142232017D01*
X143120473Y-142235444D01*
X144370591Y-143485562D01*
X144372829Y-143488697D01*
X144374575Y-143492269D01*
X144405878Y-143521307D01*
X144412052Y-143527034D01*
X144412368Y-143527339D01*
X144427277Y-143542248D01*
X144427720Y-143542552D01*
X144431083Y-143544860D01*
X144432420Y-143545929D01*
X144455853Y-143567666D01*
X144455855Y-143567667D01*
X144456646Y-143568401D01*
X144457649Y-143568801D01*
X144457652Y-143568803D01*
X144476359Y-143576266D01*
X144478636Y-143577481D01*
X144496146Y-143589493D01*
X144528303Y-143597124D01*
X144529935Y-143597640D01*
X144560622Y-143609883D01*
X144564689Y-143610282D01*
X144566627Y-143610472D01*
X144566632Y-143610472D01*
X144566915Y-143610500D01*
X144583301Y-143610500D01*
X144586002Y-143610816D01*
X144604016Y-143615091D01*
X144604017Y-143615091D01*
X144605066Y-143615340D01*
X144639844Y-143610607D01*
X144641422Y-143610500D01*
X146937783Y-143610500D01*
X146941581Y-143611134D01*
X146945342Y-143612425D01*
X146946417Y-143612385D01*
X146946419Y-143612385D01*
X146996413Y-143610508D01*
X146996852Y-143610500D01*
X147017948Y-143610500D01*
X147021389Y-143609859D01*
X147022482Y-143609656D01*
X147024184Y-143609466D01*
X147056127Y-143608267D01*
X147056129Y-143608267D01*
X147057208Y-143608226D01*
X147076716Y-143599845D01*
X147079182Y-143599096D01*
X147100053Y-143595209D01*
X147128181Y-143577871D01*
X147129701Y-143577081D01*
X147155934Y-143565810D01*
X147160063Y-143564036D01*
X147164949Y-143560022D01*
X147176534Y-143548437D01*
X147178668Y-143546750D01*
X147194430Y-143537034D01*
X147195348Y-143536468D01*
X147216594Y-143508528D01*
X147217634Y-143507337D01*
X148504710Y-142220262D01*
X149369520Y-142220262D01*
X149369568Y-142220834D01*
X149381844Y-142367017D01*
X149386759Y-142425553D01*
X149386916Y-142426100D01*
X149386916Y-142426101D01*
X149387071Y-142426640D01*
X149443544Y-142623586D01*
X149464747Y-142664843D01*
X149537077Y-142805582D01*
X149537712Y-142806818D01*
X149665677Y-142968270D01*
X149666114Y-142968642D01*
X149666115Y-142968643D01*
X149679228Y-142979803D01*
X149822564Y-143101791D01*
X150002398Y-143202297D01*
X150002937Y-143202472D01*
X150002939Y-143202473D01*
X150085945Y-143229443D01*
X150198329Y-143265959D01*
X150402894Y-143290351D01*
X150403454Y-143290308D01*
X150403456Y-143290308D01*
X150607730Y-143274590D01*
X150607731Y-143274590D01*
X150608300Y-143274546D01*
X150794949Y-143222433D01*
X150806170Y-143219300D01*
X150806725Y-143219145D01*
X150820221Y-143212328D01*
X150934322Y-143154691D01*
X150990610Y-143126258D01*
X151000867Y-143118245D01*
X151108288Y-143034318D01*
X151152951Y-142999424D01*
X151208827Y-142934691D01*
X151287193Y-142843902D01*
X151287194Y-142843901D01*
X151287564Y-142843472D01*
X151343117Y-142745682D01*
X151389040Y-142664843D01*
X151389042Y-142664839D01*
X151389323Y-142664344D01*
X151401320Y-142628282D01*
X151454172Y-142469402D01*
X151454173Y-142469399D01*
X151454351Y-142468863D01*
X151480171Y-142264474D01*
X151480583Y-142235000D01*
X151460480Y-142029970D01*
X151459150Y-142025562D01*
X151401098Y-141833288D01*
X151401097Y-141833286D01*
X151400935Y-141832749D01*
X151386544Y-141805682D01*
X151314095Y-141669426D01*
X151304218Y-141650849D01*
X151290128Y-141633573D01*
X151174370Y-141491640D01*
X151174369Y-141491639D01*
X151174011Y-141491200D01*
X151015275Y-141359882D01*
X151013835Y-141359103D01*
X150834562Y-141262171D01*
X150834561Y-141262171D01*
X150834055Y-141261897D01*
X150650564Y-141205097D01*
X150637797Y-141201145D01*
X150637796Y-141201145D01*
X150637254Y-141200977D01*
X150432369Y-141179443D01*
X150227203Y-141198114D01*
X150161097Y-141217570D01*
X150030118Y-141256119D01*
X150030115Y-141256120D01*
X150029572Y-141256280D01*
X150029074Y-141256541D01*
X150029070Y-141256542D01*
X149852444Y-141348881D01*
X149847002Y-141351726D01*
X149846560Y-141352081D01*
X149846556Y-141352084D01*
X149690141Y-141477845D01*
X149686447Y-141480815D01*
X149686087Y-141481244D01*
X149686082Y-141481249D01*
X149572022Y-141617181D01*
X149554024Y-141638630D01*
X149553751Y-141639126D01*
X149553750Y-141639128D01*
X149547032Y-141651348D01*
X149454776Y-141819162D01*
X149454605Y-141819702D01*
X149454603Y-141819706D01*
X149424011Y-141916145D01*
X149392484Y-142015532D01*
X149392421Y-142016097D01*
X149392420Y-142016100D01*
X149377129Y-142152425D01*
X149369520Y-142220262D01*
X148504710Y-142220262D01*
X149735076Y-140989896D01*
X149743349Y-140986469D01*
X153760314Y-140986469D01*
X153768587Y-140989896D01*
G37*
%TD.AperFunction*%
%TA.AperFunction,Conductor*%
G36*
X158400100Y-141389416D02*
G01*
X158890584Y-141879900D01*
X158894011Y-141888173D01*
X158894011Y-143107300D01*
X158893377Y-143111098D01*
X158892086Y-143114859D01*
X158892126Y-143115934D01*
X158892126Y-143115936D01*
X158894003Y-143165930D01*
X158894011Y-143166369D01*
X158894011Y-143187465D01*
X158894110Y-143187995D01*
X158894855Y-143191999D01*
X158895045Y-143193701D01*
X158896124Y-143222433D01*
X158896285Y-143226725D01*
X158904666Y-143246233D01*
X158905415Y-143248699D01*
X158909302Y-143269570D01*
X158909869Y-143270490D01*
X158926640Y-143297698D01*
X158927430Y-143299218D01*
X158940475Y-143329580D01*
X158944489Y-143334466D01*
X158956074Y-143346051D01*
X158957761Y-143348185D01*
X158962237Y-143355446D01*
X158968043Y-143364865D01*
X158968902Y-143365518D01*
X158995983Y-143386111D01*
X158997174Y-143387151D01*
X161866169Y-146256146D01*
X161869596Y-146264419D01*
X161866169Y-146272692D01*
X161857896Y-146276119D01*
X161601591Y-146276119D01*
X161593318Y-146272692D01*
X158529575Y-143208949D01*
X158527337Y-143205814D01*
X158525591Y-143202242D01*
X158488114Y-143167477D01*
X158487798Y-143167172D01*
X158472889Y-143152263D01*
X158472446Y-143151959D01*
X158469083Y-143149651D01*
X158467746Y-143148582D01*
X158444313Y-143126845D01*
X158444311Y-143126844D01*
X158443520Y-143126110D01*
X158442517Y-143125710D01*
X158442514Y-143125708D01*
X158429056Y-143120339D01*
X158423804Y-143118244D01*
X158421527Y-143117029D01*
X158404020Y-143105019D01*
X158402970Y-143104770D01*
X158402968Y-143104769D01*
X158387860Y-143101184D01*
X158371865Y-143097388D01*
X158370240Y-143096874D01*
X158351007Y-143089201D01*
X158340309Y-143084933D01*
X158340308Y-143084933D01*
X158339544Y-143084628D01*
X158335477Y-143084229D01*
X158333539Y-143084039D01*
X158333534Y-143084039D01*
X158333251Y-143084011D01*
X158316865Y-143084011D01*
X158314163Y-143083695D01*
X158296150Y-143079420D01*
X158296149Y-143079420D01*
X158295100Y-143079171D01*
X158262871Y-143083557D01*
X158260322Y-143083904D01*
X158258744Y-143084011D01*
X156783828Y-143084011D01*
X156775555Y-143080584D01*
X156435772Y-142740801D01*
X156432345Y-142732528D01*
X156433872Y-142726751D01*
X156459024Y-142682474D01*
X156469040Y-142664843D01*
X156469042Y-142664839D01*
X156469323Y-142664344D01*
X156481320Y-142628282D01*
X156534172Y-142469402D01*
X156534173Y-142469399D01*
X156534351Y-142468863D01*
X156560171Y-142264474D01*
X156560583Y-142235000D01*
X156540480Y-142029970D01*
X156539150Y-142025562D01*
X156481098Y-141833288D01*
X156481097Y-141833286D01*
X156480935Y-141832749D01*
X156466544Y-141805682D01*
X156394095Y-141669426D01*
X156384218Y-141650849D01*
X156370128Y-141633573D01*
X156254370Y-141491640D01*
X156254369Y-141491639D01*
X156254011Y-141491200D01*
X156151873Y-141406704D01*
X156147683Y-141398790D01*
X156150316Y-141390231D01*
X156158230Y-141386041D01*
X156159331Y-141385989D01*
X158391827Y-141385989D01*
X158400100Y-141389416D01*
G37*
%TD.AperFunction*%
%TA.AperFunction,Conductor*%
G36*
X169653956Y-141128447D02*
G01*
X173079076Y-144553567D01*
X173082503Y-144561840D01*
X173079076Y-144570113D01*
X173070803Y-144573540D01*
X170467703Y-144573540D01*
X170463904Y-144572906D01*
X170461163Y-144571965D01*
X170461164Y-144571965D01*
X170460144Y-144571615D01*
X170459069Y-144571655D01*
X170459067Y-144571655D01*
X170409072Y-144573532D01*
X170408633Y-144573540D01*
X170387538Y-144573540D01*
X170384097Y-144574181D01*
X170383004Y-144574384D01*
X170381302Y-144574574D01*
X170349356Y-144575773D01*
X170349353Y-144575774D01*
X170348277Y-144575814D01*
X170347286Y-144576240D01*
X170347285Y-144576240D01*
X170328773Y-144584194D01*
X170326297Y-144584946D01*
X170305433Y-144588831D01*
X170304513Y-144589398D01*
X170277305Y-144606169D01*
X170275785Y-144606959D01*
X170245423Y-144620004D01*
X170240537Y-144624018D01*
X170228952Y-144635603D01*
X170226818Y-144637290D01*
X170210138Y-144647572D01*
X170209485Y-144648431D01*
X170188892Y-144675512D01*
X170187852Y-144676703D01*
X169969932Y-144894623D01*
X169961659Y-144898050D01*
X168490111Y-144898050D01*
X165374230Y-144898049D01*
X165365957Y-144894622D01*
X165362630Y-144887877D01*
X165360144Y-144868999D01*
X165360044Y-144868238D01*
X165299536Y-144722159D01*
X165264657Y-144676703D01*
X165203750Y-144597328D01*
X165203282Y-144596718D01*
X165115154Y-144529095D01*
X165078455Y-144500935D01*
X165078454Y-144500935D01*
X165077841Y-144500464D01*
X164931762Y-144439956D01*
X164775000Y-144419318D01*
X164618238Y-144439956D01*
X164472159Y-144500464D01*
X164471546Y-144500935D01*
X164471545Y-144500935D01*
X164434846Y-144529095D01*
X164346718Y-144596718D01*
X164346250Y-144597328D01*
X164285344Y-144676703D01*
X164250464Y-144722159D01*
X164189956Y-144868238D01*
X164186031Y-144898050D01*
X164171372Y-145009402D01*
X164169318Y-145025000D01*
X164189956Y-145181762D01*
X164250464Y-145327841D01*
X164250935Y-145328454D01*
X164250935Y-145328455D01*
X164305250Y-145399240D01*
X164346718Y-145453282D01*
X164350388Y-145456098D01*
X164354865Y-145463851D01*
X164352548Y-145472501D01*
X164344793Y-145476979D01*
X164343265Y-145477079D01*
X162733267Y-145477080D01*
X162506898Y-145477080D01*
X162498625Y-145473653D01*
X161585445Y-144560473D01*
X161582018Y-144552200D01*
X161585445Y-144543927D01*
X161593718Y-144540500D01*
X161943026Y-144540500D01*
X161946824Y-144541134D01*
X161950585Y-144542425D01*
X161951660Y-144542385D01*
X161951662Y-144542385D01*
X162001656Y-144540508D01*
X162002095Y-144540500D01*
X162023191Y-144540500D01*
X162026632Y-144539859D01*
X162027725Y-144539656D01*
X162029427Y-144539466D01*
X162061370Y-144538267D01*
X162061372Y-144538267D01*
X162062451Y-144538226D01*
X162081959Y-144529845D01*
X162084425Y-144529096D01*
X162105296Y-144525209D01*
X162113971Y-144519861D01*
X162120109Y-144518122D01*
X163005161Y-144518122D01*
X163008959Y-144518756D01*
X163012720Y-144520047D01*
X163013795Y-144520007D01*
X163013797Y-144520007D01*
X163063791Y-144518130D01*
X163064230Y-144518122D01*
X163085326Y-144518122D01*
X163088767Y-144517481D01*
X163089860Y-144517278D01*
X163091562Y-144517088D01*
X163123505Y-144515889D01*
X163123507Y-144515889D01*
X163124586Y-144515848D01*
X163144094Y-144507467D01*
X163146560Y-144506718D01*
X163167431Y-144502831D01*
X163195559Y-144485493D01*
X163197079Y-144484703D01*
X163207470Y-144480239D01*
X163227441Y-144471658D01*
X163232327Y-144467644D01*
X163243912Y-144456059D01*
X163246046Y-144454372D01*
X163261808Y-144444656D01*
X163262726Y-144444090D01*
X163283972Y-144416150D01*
X163285012Y-144414959D01*
X165329527Y-142370444D01*
X165337800Y-142367017D01*
X165346073Y-142370444D01*
X165349500Y-142378717D01*
X165349500Y-142950682D01*
X165346073Y-142958955D01*
X165253768Y-143051261D01*
X165245495Y-143054688D01*
X165243968Y-143054588D01*
X165090760Y-143034418D01*
X165090000Y-143034318D01*
X164933238Y-143054956D01*
X164787159Y-143115464D01*
X164786546Y-143115935D01*
X164786545Y-143115935D01*
X164736037Y-143154691D01*
X164661718Y-143211718D01*
X164661250Y-143212328D01*
X164567369Y-143334677D01*
X164565464Y-143337159D01*
X164504956Y-143483238D01*
X164484318Y-143640000D01*
X164504956Y-143796762D01*
X164565464Y-143942841D01*
X164565935Y-143943454D01*
X164565935Y-143943455D01*
X164601183Y-143989391D01*
X164661718Y-144068282D01*
X164662328Y-144068750D01*
X164747351Y-144133990D01*
X164787159Y-144164536D01*
X164933238Y-144225044D01*
X165090000Y-144245682D01*
X165246762Y-144225044D01*
X165392841Y-144164536D01*
X165432650Y-144133990D01*
X165517672Y-144068750D01*
X165518282Y-144068282D01*
X165578817Y-143989391D01*
X165614065Y-143943455D01*
X165614065Y-143943454D01*
X165614536Y-143942841D01*
X165675044Y-143796762D01*
X165695682Y-143640000D01*
X165692572Y-143616380D01*
X165675412Y-143486032D01*
X165677730Y-143477382D01*
X165678739Y-143476232D01*
X165825562Y-143329409D01*
X165828697Y-143327171D01*
X165831299Y-143325899D01*
X165831298Y-143325899D01*
X165832269Y-143325425D01*
X165867034Y-143287948D01*
X165867339Y-143287632D01*
X165882248Y-143272723D01*
X165883780Y-143270490D01*
X165884860Y-143268917D01*
X165885929Y-143267580D01*
X165907666Y-143244147D01*
X165907667Y-143244145D01*
X165908401Y-143243354D01*
X165908801Y-143242351D01*
X165908803Y-143242348D01*
X165916266Y-143223641D01*
X165917481Y-143221364D01*
X165929493Y-143203854D01*
X165937124Y-143171696D01*
X165937641Y-143170063D01*
X165938729Y-143167336D01*
X165949883Y-143139378D01*
X165950500Y-143133085D01*
X165950500Y-143116699D01*
X165950816Y-143113998D01*
X165950854Y-143113840D01*
X165954757Y-143097390D01*
X165955091Y-143095984D01*
X165955091Y-143095983D01*
X165955340Y-143094934D01*
X165950607Y-143060156D01*
X165950500Y-143058578D01*
X165950500Y-142453837D01*
X165953927Y-142445564D01*
X167271045Y-141128447D01*
X167279318Y-141125020D01*
X169645683Y-141125020D01*
X169653956Y-141128447D01*
G37*
%TD.AperFunction*%
%TA.AperFunction,Conductor*%
G36*
X146642701Y-138250175D02*
G01*
X147534340Y-139141813D01*
X147536578Y-139144948D01*
X147538324Y-139148520D01*
X147575772Y-139183258D01*
X147575801Y-139183285D01*
X147576117Y-139183590D01*
X147591026Y-139198499D01*
X147591469Y-139198803D01*
X147594832Y-139201111D01*
X147596169Y-139202180D01*
X147619602Y-139223917D01*
X147619604Y-139223918D01*
X147620395Y-139224652D01*
X147621398Y-139225052D01*
X147621401Y-139225054D01*
X147640108Y-139232517D01*
X147642385Y-139233732D01*
X147659895Y-139245744D01*
X147692052Y-139253375D01*
X147693684Y-139253891D01*
X147724371Y-139266134D01*
X147728438Y-139266533D01*
X147730376Y-139266723D01*
X147730381Y-139266723D01*
X147730664Y-139266751D01*
X147747050Y-139266751D01*
X147749751Y-139267067D01*
X147767765Y-139271342D01*
X147767766Y-139271342D01*
X147768815Y-139271591D01*
X147803593Y-139266858D01*
X147805171Y-139266751D01*
X148818094Y-139266751D01*
X148826367Y-139270178D01*
X148829794Y-139278451D01*
X148826367Y-139286724D01*
X148170770Y-139942321D01*
X148162497Y-139945748D01*
X144993063Y-139945748D01*
X144984790Y-139942321D01*
X144644517Y-139602048D01*
X144641090Y-139593775D01*
X144642617Y-139587997D01*
X144662466Y-139553057D01*
X144677785Y-139526091D01*
X144677787Y-139526087D01*
X144678068Y-139525592D01*
X144679094Y-139522510D01*
X144742917Y-139330650D01*
X144742918Y-139330647D01*
X144743096Y-139330111D01*
X144768916Y-139125722D01*
X144769043Y-139116673D01*
X144769285Y-139099308D01*
X144769328Y-139096248D01*
X144749225Y-138891218D01*
X144746585Y-138882472D01*
X144689843Y-138694536D01*
X144689842Y-138694534D01*
X144689680Y-138693997D01*
X144681026Y-138677720D01*
X144642121Y-138604551D01*
X144592963Y-138512097D01*
X144512951Y-138413993D01*
X144463115Y-138352888D01*
X144463114Y-138352887D01*
X144462756Y-138352448D01*
X144360027Y-138267463D01*
X144355837Y-138259549D01*
X144358470Y-138250990D01*
X144366384Y-138246800D01*
X144367485Y-138246748D01*
X146634428Y-138246748D01*
X146642701Y-138250175D01*
G37*
%TD.AperFunction*%
%TA.AperFunction,Conductor*%
G36*
X163520996Y-136312487D02*
G01*
X163524423Y-136320760D01*
X163520996Y-136329033D01*
X163130491Y-136719538D01*
X163122218Y-136722965D01*
X163116653Y-136721557D01*
X163034562Y-136677171D01*
X163034561Y-136677171D01*
X163034055Y-136676897D01*
X162837254Y-136615977D01*
X162632369Y-136594443D01*
X162427203Y-136613114D01*
X162356772Y-136633843D01*
X162230118Y-136671119D01*
X162230115Y-136671120D01*
X162229572Y-136671280D01*
X162229074Y-136671541D01*
X162229070Y-136671542D01*
X162047505Y-136766463D01*
X162047002Y-136766726D01*
X162046560Y-136767081D01*
X162046556Y-136767084D01*
X161917609Y-136870760D01*
X161886447Y-136895815D01*
X161886087Y-136896244D01*
X161886082Y-136896249D01*
X161754389Y-137053195D01*
X161754024Y-137053630D01*
X161753751Y-137054126D01*
X161753750Y-137054128D01*
X161747032Y-137066348D01*
X161654776Y-137234162D01*
X161654605Y-137234702D01*
X161654603Y-137234706D01*
X161611482Y-137370642D01*
X161592484Y-137430532D01*
X161592421Y-137431097D01*
X161592420Y-137431100D01*
X161579786Y-137543735D01*
X161569520Y-137635262D01*
X161569568Y-137635834D01*
X161584610Y-137814956D01*
X161586759Y-137840553D01*
X161643544Y-138038586D01*
X161684249Y-138117790D01*
X161737220Y-138220860D01*
X161737712Y-138221818D01*
X161865677Y-138383270D01*
X162022564Y-138516791D01*
X162202398Y-138617297D01*
X162202940Y-138617473D01*
X162202942Y-138617474D01*
X162281269Y-138642924D01*
X162288079Y-138648739D01*
X162288781Y-138657666D01*
X162282966Y-138664476D01*
X162277654Y-138665751D01*
X157898937Y-138665751D01*
X157890664Y-138662324D01*
X157887237Y-138654051D01*
X157890664Y-138645778D01*
X157895791Y-138642782D01*
X157926170Y-138634300D01*
X157926725Y-138634145D01*
X157960079Y-138617297D01*
X158081426Y-138556000D01*
X158110610Y-138541258D01*
X158128699Y-138527126D01*
X158164131Y-138499443D01*
X158272951Y-138414424D01*
X158395111Y-138272899D01*
X158407193Y-138258902D01*
X158407194Y-138258901D01*
X158407564Y-138258472D01*
X158460217Y-138165786D01*
X158509040Y-138079843D01*
X158509042Y-138079839D01*
X158509323Y-138079344D01*
X158513018Y-138068238D01*
X158574172Y-137884402D01*
X158574173Y-137884399D01*
X158574351Y-137883863D01*
X158600171Y-137679474D01*
X158600187Y-137678378D01*
X158600486Y-137656914D01*
X158600583Y-137650000D01*
X158580480Y-137444970D01*
X158576293Y-137431100D01*
X158521098Y-137248288D01*
X158521097Y-137248286D01*
X158520935Y-137247749D01*
X158507903Y-137223238D01*
X158496967Y-137202672D01*
X158473376Y-137158302D01*
X158472518Y-137149389D01*
X158475434Y-137144537D01*
X159307484Y-136312487D01*
X159315757Y-136309060D01*
X163512723Y-136309060D01*
X163520996Y-136312487D01*
G37*
%TD.AperFunction*%
%TA.AperFunction,Conductor*%
G36*
X175186073Y-136712007D02*
G01*
X175189500Y-136720280D01*
X175189500Y-136847899D01*
X175186073Y-136856172D01*
X175184927Y-136857177D01*
X175061718Y-136951718D01*
X175061250Y-136952328D01*
X174967250Y-137074832D01*
X174965464Y-137077159D01*
X174904956Y-137223238D01*
X174884318Y-137380000D01*
X174884418Y-137380760D01*
X174904735Y-137535085D01*
X174902417Y-137543735D01*
X174894662Y-137548212D01*
X174886012Y-137545894D01*
X174884862Y-137544885D01*
X174752396Y-137412419D01*
X174750158Y-137409284D01*
X174748886Y-137406682D01*
X174748412Y-137405712D01*
X174710935Y-137370947D01*
X174710619Y-137370642D01*
X174695710Y-137355733D01*
X174695267Y-137355429D01*
X174691904Y-137353121D01*
X174690567Y-137352052D01*
X174667134Y-137330315D01*
X174667132Y-137330314D01*
X174666341Y-137329580D01*
X174665338Y-137329180D01*
X174665335Y-137329178D01*
X174651877Y-137323809D01*
X174646625Y-137321714D01*
X174644348Y-137320499D01*
X174626841Y-137308489D01*
X174625791Y-137308240D01*
X174625789Y-137308239D01*
X174610681Y-137304654D01*
X174594686Y-137300858D01*
X174593061Y-137300344D01*
X174567589Y-137290182D01*
X174563130Y-137288403D01*
X174563129Y-137288403D01*
X174562365Y-137288098D01*
X174558298Y-137287699D01*
X174556360Y-137287509D01*
X174556355Y-137287509D01*
X174556072Y-137287481D01*
X174539686Y-137287481D01*
X174536984Y-137287165D01*
X174518971Y-137282890D01*
X174518970Y-137282890D01*
X174517921Y-137282641D01*
X174487016Y-137286847D01*
X174483143Y-137287374D01*
X174481565Y-137287481D01*
X166829891Y-137287481D01*
X166826092Y-137286847D01*
X166823351Y-137285906D01*
X166823352Y-137285906D01*
X166822332Y-137285556D01*
X166821257Y-137285596D01*
X166821255Y-137285596D01*
X166771261Y-137287473D01*
X166770822Y-137287481D01*
X166749726Y-137287481D01*
X166746842Y-137288018D01*
X166745192Y-137288325D01*
X166743490Y-137288515D01*
X166711547Y-137289714D01*
X166711545Y-137289714D01*
X166710466Y-137289755D01*
X166690958Y-137298136D01*
X166688492Y-137298885D01*
X166667621Y-137302772D01*
X166666701Y-137303339D01*
X166639493Y-137320110D01*
X166637973Y-137320900D01*
X166636076Y-137321715D01*
X166607611Y-137333945D01*
X166602725Y-137337959D01*
X166591140Y-137349544D01*
X166589006Y-137351231D01*
X166574709Y-137360044D01*
X166572326Y-137361513D01*
X166565152Y-137370947D01*
X166551080Y-137389453D01*
X166550040Y-137390644D01*
X165278360Y-138662324D01*
X165270087Y-138665751D01*
X162978937Y-138665751D01*
X162970664Y-138662324D01*
X162967237Y-138654051D01*
X162970664Y-138645778D01*
X162975791Y-138642782D01*
X163006170Y-138634300D01*
X163006725Y-138634145D01*
X163040079Y-138617297D01*
X163161426Y-138556000D01*
X163190610Y-138541258D01*
X163208699Y-138527126D01*
X163244131Y-138499443D01*
X163352951Y-138414424D01*
X163475111Y-138272899D01*
X163487193Y-138258902D01*
X163487194Y-138258901D01*
X163487564Y-138258472D01*
X163540217Y-138165786D01*
X163589040Y-138079843D01*
X163589042Y-138079839D01*
X163589323Y-138079344D01*
X163593018Y-138068238D01*
X163654172Y-137884402D01*
X163654173Y-137884399D01*
X163654351Y-137883863D01*
X163680171Y-137679474D01*
X163680187Y-137678378D01*
X163680486Y-137656914D01*
X163680583Y-137650000D01*
X163660480Y-137444970D01*
X163656293Y-137431100D01*
X163601098Y-137248288D01*
X163601097Y-137248286D01*
X163600935Y-137247749D01*
X163587903Y-137223238D01*
X163576967Y-137202672D01*
X163553376Y-137158302D01*
X163552518Y-137149389D01*
X163555434Y-137144537D01*
X163987964Y-136712007D01*
X163996237Y-136708580D01*
X175177800Y-136708580D01*
X175186073Y-136712007D01*
G37*
%TD.AperFunction*%
%TD*%
M02*
