%TF.GenerationSoftware,KiCad,Pcbnew,6.0.0*%
%TF.CreationDate,2022-04-11T19:56:14-05:00*%
%TF.ProjectId,main_board_bodged,6d61696e-5f62-46f6-9172-645f626f6467,rev?*%
%TF.SameCoordinates,Original*%
%TF.FileFunction,Legend,Bot*%
%TF.FilePolarity,Positive*%
%FSLAX46Y46*%
G04 Gerber Fmt 4.6, Leading zero omitted, Abs format (unit mm)*
G04 Created by KiCad (PCBNEW 6.0.0) date 2022-04-11 19:56:14*
%MOMM*%
%LPD*%
G01*
G04 APERTURE LIST*
%ADD10C,0.150000*%
G04 APERTURE END LIST*
D10*
X184620476Y-142720000D02*
X184696666Y-142681904D01*
X184810952Y-142681904D01*
X184925238Y-142720000D01*
X185001428Y-142796190D01*
X185039523Y-142872380D01*
X185077619Y-143024761D01*
X185077619Y-143139047D01*
X185039523Y-143291428D01*
X185001428Y-143367619D01*
X184925238Y-143443809D01*
X184810952Y-143481904D01*
X184734761Y-143481904D01*
X184620476Y-143443809D01*
X184582380Y-143405714D01*
X184582380Y-143139047D01*
X184734761Y-143139047D01*
X184239523Y-143481904D02*
X184239523Y-142948571D01*
X184239523Y-143100952D02*
X184201428Y-143024761D01*
X184163333Y-142986666D01*
X184087142Y-142948571D01*
X184010952Y-142948571D01*
X183630000Y-143481904D02*
X183706190Y-143443809D01*
X183744285Y-143405714D01*
X183782380Y-143329523D01*
X183782380Y-143100952D01*
X183744285Y-143024761D01*
X183706190Y-142986666D01*
X183630000Y-142948571D01*
X183515714Y-142948571D01*
X183439523Y-142986666D01*
X183401428Y-143024761D01*
X183363333Y-143100952D01*
X183363333Y-143329523D01*
X183401428Y-143405714D01*
X183439523Y-143443809D01*
X183515714Y-143481904D01*
X183630000Y-143481904D01*
X182677619Y-142948571D02*
X182677619Y-143481904D01*
X183020476Y-142948571D02*
X183020476Y-143367619D01*
X182982380Y-143443809D01*
X182906190Y-143481904D01*
X182791904Y-143481904D01*
X182715714Y-143443809D01*
X182677619Y-143405714D01*
X182296666Y-142948571D02*
X182296666Y-143748571D01*
X182296666Y-142986666D02*
X182220476Y-142948571D01*
X182068095Y-142948571D01*
X181991904Y-142986666D01*
X181953809Y-143024761D01*
X181915714Y-143100952D01*
X181915714Y-143329523D01*
X181953809Y-143405714D01*
X181991904Y-143443809D01*
X182068095Y-143481904D01*
X182220476Y-143481904D01*
X182296666Y-143443809D01*
X180620476Y-142948571D02*
X180620476Y-143481904D01*
X180810952Y-142643809D02*
X181001428Y-143215238D01*
X180506190Y-143215238D01*
X179820476Y-142681904D02*
X180201428Y-142681904D01*
X180239523Y-143062857D01*
X180201428Y-143024761D01*
X180125238Y-142986666D01*
X179934761Y-142986666D01*
X179858571Y-143024761D01*
X179820476Y-143062857D01*
X179782380Y-143139047D01*
X179782380Y-143329523D01*
X179820476Y-143405714D01*
X179858571Y-143443809D01*
X179934761Y-143481904D01*
X180125238Y-143481904D01*
X180201428Y-143443809D01*
X180239523Y-143405714D01*
X180949047Y-146195714D02*
X180987142Y-146233809D01*
X181101428Y-146271904D01*
X181177619Y-146271904D01*
X181291904Y-146233809D01*
X181368095Y-146157619D01*
X181406190Y-146081428D01*
X181444285Y-145929047D01*
X181444285Y-145814761D01*
X181406190Y-145662380D01*
X181368095Y-145586190D01*
X181291904Y-145510000D01*
X181177619Y-145471904D01*
X181101428Y-145471904D01*
X180987142Y-145510000D01*
X180949047Y-145548095D01*
X180491904Y-146271904D02*
X180568095Y-146233809D01*
X180606190Y-146195714D01*
X180644285Y-146119523D01*
X180644285Y-145890952D01*
X180606190Y-145814761D01*
X180568095Y-145776666D01*
X180491904Y-145738571D01*
X180377619Y-145738571D01*
X180301428Y-145776666D01*
X180263333Y-145814761D01*
X180225238Y-145890952D01*
X180225238Y-146119523D01*
X180263333Y-146195714D01*
X180301428Y-146233809D01*
X180377619Y-146271904D01*
X180491904Y-146271904D01*
X179882380Y-145738571D02*
X179882380Y-146271904D01*
X179882380Y-145814761D02*
X179844285Y-145776666D01*
X179768095Y-145738571D01*
X179653809Y-145738571D01*
X179577619Y-145776666D01*
X179539523Y-145852857D01*
X179539523Y-146271904D01*
X178815714Y-146233809D02*
X178891904Y-146271904D01*
X179044285Y-146271904D01*
X179120476Y-146233809D01*
X179158571Y-146195714D01*
X179196666Y-146119523D01*
X179196666Y-145890952D01*
X179158571Y-145814761D01*
X179120476Y-145776666D01*
X179044285Y-145738571D01*
X178891904Y-145738571D01*
X178815714Y-145776666D01*
X178168095Y-146233809D02*
X178244285Y-146271904D01*
X178396666Y-146271904D01*
X178472857Y-146233809D01*
X178510952Y-146157619D01*
X178510952Y-145852857D01*
X178472857Y-145776666D01*
X178396666Y-145738571D01*
X178244285Y-145738571D01*
X178168095Y-145776666D01*
X178130000Y-145852857D01*
X178130000Y-145929047D01*
X178510952Y-146005238D01*
X177444285Y-146271904D02*
X177444285Y-145852857D01*
X177482380Y-145776666D01*
X177558571Y-145738571D01*
X177710952Y-145738571D01*
X177787142Y-145776666D01*
X177444285Y-146233809D02*
X177520476Y-146271904D01*
X177710952Y-146271904D01*
X177787142Y-146233809D01*
X177825238Y-146157619D01*
X177825238Y-146081428D01*
X177787142Y-146005238D01*
X177710952Y-145967142D01*
X177520476Y-145967142D01*
X177444285Y-145929047D01*
X176949047Y-146271904D02*
X177025238Y-146233809D01*
X177063333Y-146157619D01*
X177063333Y-145471904D01*
X176339523Y-146233809D02*
X176415714Y-146271904D01*
X176568095Y-146271904D01*
X176644285Y-146233809D01*
X176682380Y-146157619D01*
X176682380Y-145852857D01*
X176644285Y-145776666D01*
X176568095Y-145738571D01*
X176415714Y-145738571D01*
X176339523Y-145776666D01*
X176301428Y-145852857D01*
X176301428Y-145929047D01*
X176682380Y-146005238D01*
X175615714Y-146271904D02*
X175615714Y-145471904D01*
X175615714Y-146233809D02*
X175691904Y-146271904D01*
X175844285Y-146271904D01*
X175920476Y-146233809D01*
X175958571Y-146195714D01*
X175996666Y-146119523D01*
X175996666Y-145890952D01*
X175958571Y-145814761D01*
X175920476Y-145776666D01*
X175844285Y-145738571D01*
X175691904Y-145738571D01*
X175615714Y-145776666D01*
X174358571Y-145852857D02*
X174244285Y-145890952D01*
X174206190Y-145929047D01*
X174168095Y-146005238D01*
X174168095Y-146119523D01*
X174206190Y-146195714D01*
X174244285Y-146233809D01*
X174320476Y-146271904D01*
X174625238Y-146271904D01*
X174625238Y-145471904D01*
X174358571Y-145471904D01*
X174282380Y-145510000D01*
X174244285Y-145548095D01*
X174206190Y-145624285D01*
X174206190Y-145700476D01*
X174244285Y-145776666D01*
X174282380Y-145814761D01*
X174358571Y-145852857D01*
X174625238Y-145852857D01*
X173825238Y-146271904D02*
X173825238Y-145738571D01*
X173825238Y-145471904D02*
X173863333Y-145510000D01*
X173825238Y-145548095D01*
X173787142Y-145510000D01*
X173825238Y-145471904D01*
X173825238Y-145548095D01*
X173444285Y-146271904D02*
X173444285Y-145471904D01*
X173368095Y-145967142D02*
X173139523Y-146271904D01*
X173139523Y-145738571D02*
X173444285Y-146043333D01*
X172491904Y-146233809D02*
X172568095Y-146271904D01*
X172720476Y-146271904D01*
X172796666Y-146233809D01*
X172834761Y-146157619D01*
X172834761Y-145852857D01*
X172796666Y-145776666D01*
X172720476Y-145738571D01*
X172568095Y-145738571D01*
X172491904Y-145776666D01*
X172453809Y-145852857D01*
X172453809Y-145929047D01*
X172834761Y-146005238D01*
X171539523Y-146043333D02*
X171158571Y-146043333D01*
X171615714Y-146271904D02*
X171349047Y-145471904D01*
X171082380Y-146271904D01*
X170815714Y-145738571D02*
X170815714Y-146271904D01*
X170815714Y-145814761D02*
X170777619Y-145776666D01*
X170701428Y-145738571D01*
X170587142Y-145738571D01*
X170510952Y-145776666D01*
X170472857Y-145852857D01*
X170472857Y-146271904D01*
X170206190Y-145738571D02*
X169901428Y-145738571D01*
X170091904Y-145471904D02*
X170091904Y-146157619D01*
X170053809Y-146233809D01*
X169977619Y-146271904D01*
X169901428Y-146271904D01*
X169634761Y-146271904D02*
X169634761Y-145738571D01*
X169634761Y-145471904D02*
X169672857Y-145510000D01*
X169634761Y-145548095D01*
X169596666Y-145510000D01*
X169634761Y-145471904D01*
X169634761Y-145548095D01*
X169253809Y-145967142D02*
X168644285Y-145967142D01*
X168377619Y-145471904D02*
X167920476Y-145471904D01*
X168149047Y-146271904D02*
X168149047Y-145471904D01*
X167653809Y-146271904D02*
X167653809Y-145471904D01*
X167310952Y-146271904D02*
X167310952Y-145852857D01*
X167349047Y-145776666D01*
X167425238Y-145738571D01*
X167539523Y-145738571D01*
X167615714Y-145776666D01*
X167653809Y-145814761D01*
X166625238Y-146233809D02*
X166701428Y-146271904D01*
X166853809Y-146271904D01*
X166930000Y-146233809D01*
X166968095Y-146157619D01*
X166968095Y-145852857D01*
X166930000Y-145776666D01*
X166853809Y-145738571D01*
X166701428Y-145738571D01*
X166625238Y-145776666D01*
X166587142Y-145852857D01*
X166587142Y-145929047D01*
X166968095Y-146005238D01*
X166358571Y-145738571D02*
X166053809Y-145738571D01*
X166244285Y-146271904D02*
X166244285Y-145586190D01*
X166206190Y-145510000D01*
X166130000Y-145471904D01*
X166053809Y-145471904D01*
X165901428Y-145738571D02*
X165596666Y-145738571D01*
X165787142Y-145471904D02*
X165787142Y-146157619D01*
X165749047Y-146233809D01*
X165672857Y-146271904D01*
X165596666Y-146271904D01*
X164720476Y-146271904D02*
X164720476Y-145471904D01*
X164530000Y-145471904D01*
X164415714Y-145510000D01*
X164339523Y-145586190D01*
X164301428Y-145662380D01*
X164263333Y-145814761D01*
X164263333Y-145929047D01*
X164301428Y-146081428D01*
X164339523Y-146157619D01*
X164415714Y-146233809D01*
X164530000Y-146271904D01*
X164720476Y-146271904D01*
X163615714Y-146233809D02*
X163691904Y-146271904D01*
X163844285Y-146271904D01*
X163920476Y-146233809D01*
X163958571Y-146157619D01*
X163958571Y-145852857D01*
X163920476Y-145776666D01*
X163844285Y-145738571D01*
X163691904Y-145738571D01*
X163615714Y-145776666D01*
X163577619Y-145852857D01*
X163577619Y-145929047D01*
X163958571Y-146005238D01*
X163310952Y-145738571D02*
X163120476Y-146271904D01*
X162930000Y-145738571D01*
X162625238Y-146271904D02*
X162625238Y-145738571D01*
X162625238Y-145471904D02*
X162663333Y-145510000D01*
X162625238Y-145548095D01*
X162587142Y-145510000D01*
X162625238Y-145471904D01*
X162625238Y-145548095D01*
X161901428Y-146233809D02*
X161977619Y-146271904D01*
X162130000Y-146271904D01*
X162206190Y-146233809D01*
X162244285Y-146195714D01*
X162282380Y-146119523D01*
X162282380Y-145890952D01*
X162244285Y-145814761D01*
X162206190Y-145776666D01*
X162130000Y-145738571D01*
X161977619Y-145738571D01*
X161901428Y-145776666D01*
X161253809Y-146233809D02*
X161330000Y-146271904D01*
X161482380Y-146271904D01*
X161558571Y-146233809D01*
X161596666Y-146157619D01*
X161596666Y-145852857D01*
X161558571Y-145776666D01*
X161482380Y-145738571D01*
X161330000Y-145738571D01*
X161253809Y-145776666D01*
X161215714Y-145852857D01*
X161215714Y-145929047D01*
X161596666Y-146005238D01*
X184878571Y-141862857D02*
X184611904Y-141862857D01*
X184497619Y-142281904D02*
X184878571Y-142281904D01*
X184878571Y-141481904D01*
X184497619Y-141481904D01*
X183697619Y-142205714D02*
X183735714Y-142243809D01*
X183850000Y-142281904D01*
X183926190Y-142281904D01*
X184040476Y-142243809D01*
X184116666Y-142167619D01*
X184154761Y-142091428D01*
X184192857Y-141939047D01*
X184192857Y-141824761D01*
X184154761Y-141672380D01*
X184116666Y-141596190D01*
X184040476Y-141520000D01*
X183926190Y-141481904D01*
X183850000Y-141481904D01*
X183735714Y-141520000D01*
X183697619Y-141558095D01*
X183354761Y-141862857D02*
X183088095Y-141862857D01*
X182973809Y-142281904D02*
X183354761Y-142281904D01*
X183354761Y-141481904D01*
X182973809Y-141481904D01*
X181678571Y-141748571D02*
X181678571Y-142281904D01*
X181869047Y-141443809D02*
X182059523Y-142015238D01*
X181564285Y-142015238D01*
X180916666Y-141748571D02*
X180916666Y-142281904D01*
X181107142Y-141443809D02*
X181297619Y-142015238D01*
X180802380Y-142015238D01*
X180116666Y-141481904D02*
X180497619Y-141481904D01*
X180535714Y-141862857D01*
X180497619Y-141824761D01*
X180421428Y-141786666D01*
X180230952Y-141786666D01*
X180154761Y-141824761D01*
X180116666Y-141862857D01*
X180078571Y-141939047D01*
X180078571Y-142129523D01*
X180116666Y-142205714D01*
X180154761Y-142243809D01*
X180230952Y-142281904D01*
X180421428Y-142281904D01*
X180497619Y-142243809D01*
X180535714Y-142205714D01*
X179164285Y-142243809D02*
X179050000Y-142281904D01*
X178859523Y-142281904D01*
X178783333Y-142243809D01*
X178745238Y-142205714D01*
X178707142Y-142129523D01*
X178707142Y-142053333D01*
X178745238Y-141977142D01*
X178783333Y-141939047D01*
X178859523Y-141900952D01*
X179011904Y-141862857D01*
X179088095Y-141824761D01*
X179126190Y-141786666D01*
X179164285Y-141710476D01*
X179164285Y-141634285D01*
X179126190Y-141558095D01*
X179088095Y-141520000D01*
X179011904Y-141481904D01*
X178821428Y-141481904D01*
X178707142Y-141520000D01*
X178364285Y-142281904D02*
X178364285Y-141481904D01*
X178059523Y-141481904D01*
X177983333Y-141520000D01*
X177945238Y-141558095D01*
X177907142Y-141634285D01*
X177907142Y-141748571D01*
X177945238Y-141824761D01*
X177983333Y-141862857D01*
X178059523Y-141900952D01*
X178364285Y-141900952D01*
X177602380Y-141558095D02*
X177564285Y-141520000D01*
X177488095Y-141481904D01*
X177297619Y-141481904D01*
X177221428Y-141520000D01*
X177183333Y-141558095D01*
X177145238Y-141634285D01*
X177145238Y-141710476D01*
X177183333Y-141824761D01*
X177640476Y-142281904D01*
X177145238Y-142281904D01*
X176840476Y-141558095D02*
X176802380Y-141520000D01*
X176726190Y-141481904D01*
X176535714Y-141481904D01*
X176459523Y-141520000D01*
X176421428Y-141558095D01*
X176383333Y-141634285D01*
X176383333Y-141710476D01*
X176421428Y-141824761D01*
X176878571Y-142281904D01*
X176383333Y-142281904D01*
X171042857Y-147115714D02*
X170804761Y-147782380D01*
X170566666Y-147115714D01*
X169995238Y-146782380D02*
X169900000Y-146782380D01*
X169804761Y-146830000D01*
X169757142Y-146877619D01*
X169709523Y-146972857D01*
X169661904Y-147163333D01*
X169661904Y-147401428D01*
X169709523Y-147591904D01*
X169757142Y-147687142D01*
X169804761Y-147734761D01*
X169900000Y-147782380D01*
X169995238Y-147782380D01*
X170090476Y-147734761D01*
X170138095Y-147687142D01*
X170185714Y-147591904D01*
X170233333Y-147401428D01*
X170233333Y-147163333D01*
X170185714Y-146972857D01*
X170138095Y-146877619D01*
X170090476Y-146830000D01*
X169995238Y-146782380D01*
X169233333Y-147687142D02*
X169185714Y-147734761D01*
X169233333Y-147782380D01*
X169280952Y-147734761D01*
X169233333Y-147687142D01*
X169233333Y-147782380D01*
X168566666Y-146782380D02*
X168471428Y-146782380D01*
X168376190Y-146830000D01*
X168328571Y-146877619D01*
X168280952Y-146972857D01*
X168233333Y-147163333D01*
X168233333Y-147401428D01*
X168280952Y-147591904D01*
X168328571Y-147687142D01*
X168376190Y-147734761D01*
X168471428Y-147782380D01*
X168566666Y-147782380D01*
X168661904Y-147734761D01*
X168709523Y-147687142D01*
X168757142Y-147591904D01*
X168804761Y-147401428D01*
X168804761Y-147163333D01*
X168757142Y-146972857D01*
X168709523Y-146877619D01*
X168661904Y-146830000D01*
X168566666Y-146782380D01*
X167804761Y-147687142D02*
X167757142Y-147734761D01*
X167804761Y-147782380D01*
X167852380Y-147734761D01*
X167804761Y-147687142D01*
X167804761Y-147782380D01*
X166804761Y-147782380D02*
X167376190Y-147782380D01*
X167090476Y-147782380D02*
X167090476Y-146782380D01*
X167185714Y-146925238D01*
X167280952Y-147020476D01*
X167376190Y-147068095D01*
M02*
