G04*
G04 #@! TF.GenerationSoftware,Altium Limited,Altium Designer,20.2.6 (244)*
G04*
G04 Layer_Physical_Order=4*
G04 Layer_Color=16711680*
%FSLAX43Y43*%
%MOMM*%
G71*
G04*
G04 #@! TF.SameCoordinates,C144CD18-1887-4FAA-AC2B-496F7D53F270*
G04*
G04*
G04 #@! TF.FilePolarity,Positive*
G04*
G01*
G75*
%ADD12C,0.300*%
%ADD14C,0.100*%
%ADD15C,0.150*%
%ADD62R,0.725X1.000*%
%ADD69R,4.200X1.350*%
%ADD72C,1.000*%
%ADD76C,0.700*%
%ADD79C,1.800*%
G04:AMPARAMS|DCode=80|XSize=1.8mm|YSize=1.8mm|CornerRadius=0.45mm|HoleSize=0mm|Usage=FLASHONLY|Rotation=180.000|XOffset=0mm|YOffset=0mm|HoleType=Round|Shape=RoundedRectangle|*
%AMROUNDEDRECTD80*
21,1,1.800,0.900,0,0,180.0*
21,1,0.900,1.800,0,0,180.0*
1,1,0.900,-0.450,0.450*
1,1,0.900,0.450,0.450*
1,1,0.900,0.450,-0.450*
1,1,0.900,-0.450,-0.450*
%
%ADD80ROUNDEDRECTD80*%
G04:AMPARAMS|DCode=81|XSize=1.8mm|YSize=1.8mm|CornerRadius=0.45mm|HoleSize=0mm|Usage=FLASHONLY|Rotation=270.000|XOffset=0mm|YOffset=0mm|HoleType=Round|Shape=RoundedRectangle|*
%AMROUNDEDRECTD81*
21,1,1.800,0.900,0,0,270.0*
21,1,0.900,1.800,0,0,270.0*
1,1,0.900,-0.450,-0.450*
1,1,0.900,-0.450,0.450*
1,1,0.900,0.450,0.450*
1,1,0.900,0.450,-0.450*
%
%ADD81ROUNDEDRECTD81*%
%ADD82C,0.500*%
%ADD84C,0.650*%
%ADD86C,1.000*%
%ADD87R,0.960X1.400*%
G36*
X62264Y3775D02*
X60620D01*
Y2850D01*
Y1925D01*
X62264D01*
X62264Y-1875D01*
X60620D01*
Y-2800D01*
Y-3725D01*
X62264D01*
Y-16725D01*
X243D01*
X243Y16807D01*
X62264D01*
Y3775D01*
D02*
G37*
%LPC*%
G36*
X54580Y15156D02*
X54255D01*
Y14125D01*
X55286D01*
Y14450D01*
X55262Y14633D01*
X55191Y14803D01*
X55079Y14949D01*
X54933Y15061D01*
X54763Y15132D01*
X54580Y15156D01*
D02*
G37*
G36*
X46635Y15143D02*
Y14125D01*
X47653D01*
X47630Y14300D01*
X47515Y14580D01*
X47330Y14820D01*
X47090Y15005D01*
X46810Y15120D01*
X46635Y15143D01*
D02*
G37*
G36*
X46385Y15143D02*
X46210Y15120D01*
X45930Y15005D01*
X45690Y14820D01*
X45505Y14580D01*
X45390Y14300D01*
X45367Y14125D01*
X46385D01*
Y15143D01*
D02*
G37*
G36*
X54005Y15156D02*
X53680D01*
X53497Y15132D01*
X53327Y15061D01*
X53181Y14949D01*
X53069Y14803D01*
X52998Y14633D01*
X52974Y14450D01*
Y14125D01*
X54005D01*
Y15156D01*
D02*
G37*
G36*
X2200Y15556D02*
X2004Y15531D01*
X1822Y15455D01*
X1665Y15335D01*
X1545Y15178D01*
X1469Y14996D01*
X1444Y14800D01*
X1469Y14604D01*
X1545Y14422D01*
X1665Y14265D01*
X1822Y14145D01*
X2004Y14069D01*
X2200Y14044D01*
X2396Y14069D01*
X2578Y14145D01*
X2735Y14265D01*
X2855Y14422D01*
X2931Y14604D01*
X2956Y14800D01*
X2931Y14996D01*
X2855Y15178D01*
X2735Y15335D01*
X2578Y15455D01*
X2396Y15531D01*
X2200Y15556D01*
D02*
G37*
G36*
X47653Y13875D02*
X46635D01*
Y12857D01*
X46810Y12880D01*
X47090Y12995D01*
X47330Y13180D01*
X47515Y13420D01*
X47630Y13700D01*
X47653Y13875D01*
D02*
G37*
G36*
X46385D02*
X45367D01*
X45390Y13700D01*
X45505Y13420D01*
X45690Y13180D01*
X45930Y12995D01*
X46210Y12880D01*
X46385Y12857D01*
Y13875D01*
D02*
G37*
G36*
X55286D02*
X54255D01*
Y12844D01*
X54580D01*
X54763Y12868D01*
X54933Y12939D01*
X55079Y13051D01*
X55191Y13197D01*
X55262Y13367D01*
X55286Y13550D01*
Y13875D01*
D02*
G37*
G36*
X54005D02*
X52974D01*
Y13550D01*
X52998Y13367D01*
X53069Y13197D01*
X53181Y13051D01*
X53327Y12939D01*
X53497Y12868D01*
X53680Y12844D01*
X54005D01*
Y13875D01*
D02*
G37*
G36*
X51590Y15160D02*
X51290Y15120D01*
X51010Y15005D01*
X50770Y14820D01*
X50585Y14580D01*
X50470Y14300D01*
X50430Y14000D01*
X50470Y13700D01*
X50585Y13420D01*
X50770Y13180D01*
X51010Y12995D01*
X51290Y12880D01*
X51590Y12840D01*
X51890Y12880D01*
X52170Y12995D01*
X52410Y13180D01*
X52595Y13420D01*
X52710Y13700D01*
X52750Y14000D01*
X52710Y14300D01*
X52595Y14580D01*
X52410Y14820D01*
X52170Y15005D01*
X51890Y15120D01*
X51590Y15160D01*
D02*
G37*
G36*
X49050D02*
X48750Y15120D01*
X48470Y15005D01*
X48230Y14820D01*
X48045Y14580D01*
X47930Y14300D01*
X47890Y14000D01*
X47930Y13700D01*
X48045Y13420D01*
X48230Y13180D01*
X48470Y12995D01*
X48750Y12880D01*
X49050Y12840D01*
X49350Y12880D01*
X49630Y12995D01*
X49870Y13180D01*
X50055Y13420D01*
X50170Y13700D01*
X50210Y14000D01*
X50170Y14300D01*
X50055Y14580D01*
X49870Y14820D01*
X49630Y15005D01*
X49350Y15120D01*
X49050Y15160D01*
D02*
G37*
G36*
X43970D02*
X43670Y15120D01*
X43390Y15005D01*
X43150Y14820D01*
X42965Y14580D01*
X42850Y14300D01*
X42810Y14000D01*
X42850Y13700D01*
X42965Y13420D01*
X43150Y13180D01*
X43390Y12995D01*
X43670Y12880D01*
X43970Y12840D01*
X44270Y12880D01*
X44550Y12995D01*
X44790Y13180D01*
X44975Y13420D01*
X45090Y13700D01*
X45130Y14000D01*
X45090Y14300D01*
X44975Y14580D01*
X44790Y14820D01*
X44550Y15005D01*
X44270Y15120D01*
X43970Y15160D01*
D02*
G37*
G36*
X41430D02*
X41130Y15120D01*
X40850Y15005D01*
X40610Y14820D01*
X40425Y14580D01*
X40310Y14300D01*
X40270Y14000D01*
X40310Y13700D01*
X40425Y13420D01*
X40610Y13180D01*
X40850Y12995D01*
X41130Y12880D01*
X41430Y12840D01*
X41730Y12880D01*
X42010Y12995D01*
X42250Y13180D01*
X42435Y13420D01*
X42550Y13700D01*
X42590Y14000D01*
X42550Y14300D01*
X42435Y14580D01*
X42250Y14820D01*
X42010Y15005D01*
X41730Y15120D01*
X41430Y15160D01*
D02*
G37*
G36*
X38890D02*
X38590Y15120D01*
X38310Y15005D01*
X38070Y14820D01*
X37885Y14580D01*
X37770Y14300D01*
X37730Y14000D01*
X37770Y13700D01*
X37885Y13420D01*
X38070Y13180D01*
X38310Y12995D01*
X38590Y12880D01*
X38890Y12840D01*
X39190Y12880D01*
X39470Y12995D01*
X39710Y13180D01*
X39895Y13420D01*
X40010Y13700D01*
X40050Y14000D01*
X40010Y14300D01*
X39895Y14580D01*
X39710Y14820D01*
X39470Y15005D01*
X39190Y15120D01*
X38890Y15160D01*
D02*
G37*
G36*
X36350D02*
X36050Y15120D01*
X35770Y15005D01*
X35530Y14820D01*
X35345Y14580D01*
X35230Y14300D01*
X35190Y14000D01*
X35230Y13700D01*
X35345Y13420D01*
X35530Y13180D01*
X35770Y12995D01*
X36050Y12880D01*
X36350Y12840D01*
X36650Y12880D01*
X36930Y12995D01*
X37170Y13180D01*
X37355Y13420D01*
X37470Y13700D01*
X37510Y14000D01*
X37470Y14300D01*
X37355Y14580D01*
X37170Y14820D01*
X36930Y15005D01*
X36650Y15120D01*
X36350Y15160D01*
D02*
G37*
G36*
X33810D02*
X33510Y15120D01*
X33230Y15005D01*
X32990Y14820D01*
X32805Y14580D01*
X32690Y14300D01*
X32650Y14000D01*
X32690Y13700D01*
X32805Y13420D01*
X32990Y13180D01*
X33230Y12995D01*
X33510Y12880D01*
X33810Y12840D01*
X34110Y12880D01*
X34390Y12995D01*
X34630Y13180D01*
X34815Y13420D01*
X34930Y13700D01*
X34970Y14000D01*
X34930Y14300D01*
X34815Y14580D01*
X34630Y14820D01*
X34390Y15005D01*
X34110Y15120D01*
X33810Y15160D01*
D02*
G37*
G36*
X31270D02*
X30970Y15120D01*
X30690Y15005D01*
X30450Y14820D01*
X30265Y14580D01*
X30150Y14300D01*
X30110Y14000D01*
X30150Y13700D01*
X30265Y13420D01*
X30450Y13180D01*
X30690Y12995D01*
X30970Y12880D01*
X31270Y12840D01*
X31570Y12880D01*
X31850Y12995D01*
X32090Y13180D01*
X32275Y13420D01*
X32390Y13700D01*
X32430Y14000D01*
X32390Y14300D01*
X32275Y14580D01*
X32090Y14820D01*
X31850Y15005D01*
X31570Y15120D01*
X31270Y15160D01*
D02*
G37*
G36*
X28730D02*
X28430Y15120D01*
X28150Y15005D01*
X27910Y14820D01*
X27725Y14580D01*
X27610Y14300D01*
X27570Y14000D01*
X27610Y13700D01*
X27725Y13420D01*
X27910Y13180D01*
X28150Y12995D01*
X28430Y12880D01*
X28730Y12840D01*
X29030Y12880D01*
X29310Y12995D01*
X29550Y13180D01*
X29735Y13420D01*
X29850Y13700D01*
X29890Y14000D01*
X29850Y14300D01*
X29735Y14580D01*
X29550Y14820D01*
X29310Y15005D01*
X29030Y15120D01*
X28730Y15160D01*
D02*
G37*
G36*
X26190D02*
X25890Y15120D01*
X25610Y15005D01*
X25370Y14820D01*
X25185Y14580D01*
X25070Y14300D01*
X25030Y14000D01*
X25070Y13700D01*
X25185Y13420D01*
X25370Y13180D01*
X25610Y12995D01*
X25890Y12880D01*
X26190Y12840D01*
X26490Y12880D01*
X26770Y12995D01*
X27010Y13180D01*
X27195Y13420D01*
X27310Y13700D01*
X27350Y14000D01*
X27310Y14300D01*
X27195Y14580D01*
X27010Y14820D01*
X26770Y15005D01*
X26490Y15120D01*
X26190Y15160D01*
D02*
G37*
G36*
X23650D02*
X23350Y15120D01*
X23070Y15005D01*
X22830Y14820D01*
X22645Y14580D01*
X22530Y14300D01*
X22490Y14000D01*
X22530Y13700D01*
X22645Y13420D01*
X22830Y13180D01*
X23070Y12995D01*
X23350Y12880D01*
X23650Y12840D01*
X23950Y12880D01*
X24230Y12995D01*
X24470Y13180D01*
X24655Y13420D01*
X24770Y13700D01*
X24810Y14000D01*
X24770Y14300D01*
X24655Y14580D01*
X24470Y14820D01*
X24230Y15005D01*
X23950Y15120D01*
X23650Y15160D01*
D02*
G37*
G36*
X21110D02*
X20810Y15120D01*
X20530Y15005D01*
X20290Y14820D01*
X20105Y14580D01*
X19990Y14300D01*
X19950Y14000D01*
X19990Y13700D01*
X20105Y13420D01*
X20290Y13180D01*
X20530Y12995D01*
X20810Y12880D01*
X21110Y12840D01*
X21410Y12880D01*
X21690Y12995D01*
X21930Y13180D01*
X22115Y13420D01*
X22230Y13700D01*
X22270Y14000D01*
X22230Y14300D01*
X22115Y14580D01*
X21930Y14820D01*
X21690Y15005D01*
X21410Y15120D01*
X21110Y15160D01*
D02*
G37*
G36*
X18570D02*
X18270Y15120D01*
X17990Y15005D01*
X17750Y14820D01*
X17565Y14580D01*
X17450Y14300D01*
X17410Y14000D01*
X17450Y13700D01*
X17565Y13420D01*
X17750Y13180D01*
X17990Y12995D01*
X18270Y12880D01*
X18570Y12840D01*
X18870Y12880D01*
X19150Y12995D01*
X19390Y13180D01*
X19575Y13420D01*
X19690Y13700D01*
X19730Y14000D01*
X19690Y14300D01*
X19575Y14580D01*
X19390Y14820D01*
X19150Y15005D01*
X18870Y15120D01*
X18570Y15160D01*
D02*
G37*
G36*
X13490D02*
X13190Y15120D01*
X12910Y15005D01*
X12670Y14820D01*
X12485Y14580D01*
X12370Y14300D01*
X12330Y14000D01*
X12370Y13700D01*
X12485Y13420D01*
X12670Y13180D01*
X12910Y12995D01*
X13190Y12880D01*
X13490Y12840D01*
X13790Y12880D01*
X14070Y12995D01*
X14310Y13180D01*
X14495Y13420D01*
X14610Y13700D01*
X14650Y14000D01*
X14610Y14300D01*
X14495Y14580D01*
X14310Y14820D01*
X14070Y15005D01*
X13790Y15120D01*
X13490Y15160D01*
D02*
G37*
G36*
X10950D02*
X10650Y15120D01*
X10370Y15005D01*
X10130Y14820D01*
X9945Y14580D01*
X9830Y14300D01*
X9790Y14000D01*
X9830Y13700D01*
X9945Y13420D01*
X10130Y13180D01*
X10370Y12995D01*
X10650Y12880D01*
X10950Y12840D01*
X11250Y12880D01*
X11530Y12995D01*
X11770Y13180D01*
X11955Y13420D01*
X12070Y13700D01*
X12110Y14000D01*
X12070Y14300D01*
X11955Y14580D01*
X11770Y14820D01*
X11530Y15005D01*
X11250Y15120D01*
X10950Y15160D01*
D02*
G37*
G36*
X8410D02*
X8110Y15120D01*
X7830Y15005D01*
X7590Y14820D01*
X7405Y14580D01*
X7290Y14300D01*
X7250Y14000D01*
X7290Y13700D01*
X7405Y13420D01*
X7590Y13180D01*
X7830Y12995D01*
X8110Y12880D01*
X8410Y12840D01*
X8710Y12880D01*
X8990Y12995D01*
X9230Y13180D01*
X9415Y13420D01*
X9530Y13700D01*
X9570Y14000D01*
X9530Y14300D01*
X9415Y14580D01*
X9230Y14820D01*
X8990Y15005D01*
X8710Y15120D01*
X8410Y15160D01*
D02*
G37*
G36*
X5870D02*
X5570Y15120D01*
X5290Y15005D01*
X5050Y14820D01*
X4865Y14580D01*
X4750Y14300D01*
X4710Y14000D01*
X4750Y13700D01*
X4865Y13420D01*
X5050Y13180D01*
X5290Y12995D01*
X5570Y12880D01*
X5870Y12840D01*
X6170Y12880D01*
X6450Y12995D01*
X6690Y13180D01*
X6875Y13420D01*
X6990Y13700D01*
X7030Y14000D01*
X6990Y14300D01*
X6875Y14580D01*
X6690Y14820D01*
X6450Y15005D01*
X6170Y15120D01*
X5870Y15160D01*
D02*
G37*
G36*
X28254Y10963D02*
X27087Y9796D01*
Y9434D01*
X26981Y9378D01*
X26923Y9417D01*
X26698Y9461D01*
X26474Y9417D01*
X26284Y9290D01*
X26157Y9099D01*
X26112Y8875D01*
X26157Y8651D01*
X26284Y8460D01*
X26474Y8333D01*
X26698Y8289D01*
X26923Y8333D01*
X26981Y8372D01*
X27087Y8316D01*
Y6958D01*
X21224D01*
X21224Y6958D01*
X21107Y6935D01*
X21008Y6869D01*
X19121Y4982D01*
X19055Y4883D01*
X19032Y4766D01*
X19032Y4766D01*
Y3598D01*
X19031Y3569D01*
X19026Y3507D01*
X19019Y3450D01*
X19008Y3398D01*
X18996Y3351D01*
X18981Y3309D01*
X18964Y3270D01*
X18945Y3236D01*
X18930Y3213D01*
X18923Y3208D01*
X18903Y3178D01*
X18895Y3168D01*
X18890Y3159D01*
X18796Y3018D01*
X18752Y2794D01*
X18796Y2569D01*
X18923Y2379D01*
X19113Y2252D01*
X19338Y2208D01*
X19562Y2252D01*
X19752Y2379D01*
X19879Y2569D01*
X19924Y2794D01*
X19879Y3018D01*
X19785Y3159D01*
X19781Y3168D01*
X19773Y3178D01*
X19752Y3208D01*
X19746Y3213D01*
X19730Y3236D01*
X19712Y3270D01*
X19695Y3309D01*
X19680Y3351D01*
X19667Y3398D01*
X19657Y3450D01*
X19649Y3507D01*
X19644Y3569D01*
X19644Y3598D01*
Y4639D01*
X20364Y5359D01*
X20475Y5313D01*
Y2429D01*
X20475Y2429D01*
X20498Y2312D01*
X20564Y2213D01*
X22346Y431D01*
Y-2329D01*
X22346Y-2397D01*
X22226Y-2409D01*
X22213Y-2341D01*
X22190Y-2228D01*
X22063Y-2038D01*
X21873Y-1911D01*
X21649Y-1866D01*
X21424Y-1911D01*
X21234Y-2038D01*
X21107Y-2228D01*
X21063Y-2453D01*
X21107Y-2677D01*
X21234Y-2867D01*
X21424Y-2994D01*
X21649Y-3039D01*
X21873Y-2994D01*
X22063Y-2867D01*
X22190Y-2677D01*
X22221Y-2523D01*
X22235Y-2453D01*
X22349Y-2448D01*
X22376Y-2581D01*
X22464Y-2713D01*
X22465Y-2712D01*
X25884Y-6131D01*
Y-11689D01*
X25879Y-11849D01*
X25862Y-12029D01*
X25834Y-12202D01*
X25794Y-12368D01*
X25743Y-12528D01*
X25682Y-12681D01*
X25609Y-12828D01*
X25525Y-12970D01*
X25430Y-13106D01*
X25317Y-13244D01*
X25309Y-13259D01*
X25185Y-13420D01*
X25070Y-13700D01*
X25030Y-14000D01*
X25070Y-14300D01*
X25185Y-14580D01*
X25370Y-14820D01*
X25610Y-15005D01*
X25890Y-15120D01*
X26190Y-15160D01*
X26490Y-15120D01*
X26770Y-15005D01*
X27010Y-14820D01*
X27195Y-14580D01*
X27310Y-14300D01*
X27350Y-14000D01*
X27310Y-13700D01*
X27195Y-13420D01*
X27071Y-13259D01*
X27063Y-13244D01*
X26950Y-13106D01*
X26855Y-12970D01*
X26771Y-12828D01*
X26698Y-12681D01*
X26637Y-12528D01*
X26586Y-12368D01*
X26546Y-12202D01*
X26518Y-12029D01*
X26501Y-11849D01*
X26496Y-11689D01*
Y-6528D01*
X26607Y-6482D01*
X27696Y-7571D01*
X27696Y-7571D01*
X27695Y-7573D01*
X27827Y-7661D01*
X27983Y-7692D01*
Y-7692D01*
X28096Y-7708D01*
X28151Y-7810D01*
X28119Y-7858D01*
X28080Y-8053D01*
X28119Y-8248D01*
X28133Y-8270D01*
X28123Y-8277D01*
X28013Y-8442D01*
X27974Y-8637D01*
X28013Y-8832D01*
X28123Y-8998D01*
X28289Y-9108D01*
X28484Y-9147D01*
X28679Y-9108D01*
X28844Y-8998D01*
X28955Y-8832D01*
X28994Y-8637D01*
X28955Y-8442D01*
X28940Y-8421D01*
X28950Y-8414D01*
X29061Y-8248D01*
X29100Y-8053D01*
X29061Y-7858D01*
X29029Y-7810D01*
X29093Y-7690D01*
X43777D01*
X43791Y-7693D01*
X43908Y-7670D01*
X44008Y-7604D01*
X44521Y-7090D01*
X44521Y-7090D01*
X44523Y-7091D01*
X44611Y-6959D01*
X44642Y-6803D01*
X44642D01*
X44640Y-6683D01*
X44640Y-6019D01*
X44836Y-5824D01*
X44836Y-5824D01*
X44840Y-5819D01*
X44933Y-5896D01*
X44860Y-6005D01*
X44816Y-6230D01*
X44860Y-6454D01*
X44987Y-6644D01*
X45177Y-6771D01*
X45402Y-6816D01*
X45626Y-6771D01*
X45816Y-6644D01*
X45943Y-6454D01*
X45988Y-6230D01*
X45943Y-6005D01*
X45816Y-5815D01*
X45626Y-5688D01*
X45402Y-5643D01*
X45177Y-5688D01*
X45068Y-5761D01*
X44991Y-5668D01*
X45122Y-5537D01*
X45134Y-5526D01*
X45240Y-5434D01*
X45284Y-5401D01*
X45328Y-5372D01*
X45368Y-5348D01*
X45403Y-5331D01*
X45435Y-5318D01*
X45462Y-5309D01*
X45497Y-5302D01*
X45518Y-5293D01*
X45623Y-5273D01*
X45813Y-5145D01*
X45940Y-4955D01*
X45985Y-4731D01*
X45940Y-4507D01*
X45813Y-4316D01*
X45623Y-4189D01*
X45398Y-4145D01*
X45174Y-4189D01*
X44984Y-4316D01*
X44857Y-4507D01*
X44812Y-4731D01*
X44818Y-4760D01*
X44817Y-4787D01*
X44813Y-4832D01*
X44804Y-4875D01*
X44792Y-4917D01*
X44777Y-4958D01*
X44758Y-4998D01*
X44734Y-5039D01*
X44706Y-5079D01*
X44673Y-5120D01*
X44652Y-5143D01*
X44453Y-5341D01*
X44453Y-5341D01*
X44403Y-5391D01*
X44403Y-5391D01*
X44147Y-5647D01*
X44147Y-5647D01*
X44146Y-5646D01*
X44057Y-5778D01*
X44026Y-5934D01*
X44028D01*
X44028Y-6718D01*
X43668Y-7078D01*
X28068D01*
X23413Y-2423D01*
Y1526D01*
X23390Y1643D01*
X23323Y1743D01*
X23323Y1743D01*
X21726Y3340D01*
Y4851D01*
X21727Y4880D01*
X21731Y4942D01*
X21739Y4998D01*
X21750Y5050D01*
X21762Y5097D01*
X21777Y5139D01*
X21795Y5178D01*
X21814Y5212D01*
X21830Y5237D01*
X21837Y5242D01*
X21858Y5273D01*
X21865Y5280D01*
X21868Y5288D01*
X21965Y5432D01*
X22009Y5656D01*
X21965Y5880D01*
X21880Y6007D01*
X21944Y6127D01*
X24897D01*
X24897Y4369D01*
X24916Y4271D01*
X24971Y4188D01*
X25054Y4133D01*
X25151Y4114D01*
X26319D01*
X26376Y4008D01*
X26351Y3971D01*
X26307Y3747D01*
X26351Y3523D01*
X26478Y3332D01*
X26668Y3205D01*
X26893Y3161D01*
X27117Y3205D01*
X27221Y3275D01*
X27356Y3290D01*
X27546Y3163D01*
X27770Y3118D01*
X27995Y3163D01*
X28185Y3290D01*
X28312Y3480D01*
X28356Y3705D01*
X28312Y3929D01*
X28259Y4008D01*
X28316Y4114D01*
X29516D01*
X29614Y4133D01*
X29692Y4185D01*
X29718Y4180D01*
X29812Y4145D01*
Y3095D01*
X29831Y2997D01*
X29887Y2915D01*
X29969Y2859D01*
X30067Y2840D01*
X32801D01*
X32899Y2859D01*
X32981Y2915D01*
X33037Y2997D01*
X33056Y3095D01*
Y6157D01*
X33037Y6255D01*
X32981Y6337D01*
X32981Y6344D01*
X33120Y6484D01*
X33231Y6425D01*
X33204Y6287D01*
X33248Y6063D01*
X33375Y5873D01*
X33566Y5746D01*
X33790Y5701D01*
X34014Y5746D01*
X34204Y5873D01*
X34332Y6063D01*
X34376Y6287D01*
X34332Y6512D01*
X34204Y6702D01*
X34014Y6829D01*
X33790Y6874D01*
X33566Y6829D01*
X33464Y6761D01*
X33344Y6825D01*
X33344Y7528D01*
X33689Y7874D01*
X43714D01*
X43944Y7644D01*
X43944Y7644D01*
X44043Y7578D01*
X44160Y7554D01*
X44160Y7554D01*
X44555D01*
X44586Y7553D01*
X44644Y7548D01*
X44698Y7540D01*
X44747Y7529D01*
X44793Y7516D01*
X44835Y7500D01*
X44873Y7481D01*
X44908Y7460D01*
X44941Y7437D01*
X44942Y7435D01*
X44952Y7420D01*
X45142Y7293D01*
X45367Y7249D01*
X45591Y7293D01*
X45781Y7420D01*
X45908Y7611D01*
X45953Y7835D01*
X45913Y8034D01*
X45978Y8154D01*
X46138D01*
X46206Y8086D01*
Y7630D01*
X45791Y7214D01*
X45768Y7193D01*
X45724Y7156D01*
X45681Y7125D01*
X45639Y7099D01*
X45598Y7077D01*
X45557Y7060D01*
X45516Y7046D01*
X45475Y7037D01*
X45434Y7030D01*
X45426Y7030D01*
X45405Y7034D01*
X45180Y6989D01*
X44990Y6862D01*
X44863Y6672D01*
X44819Y6448D01*
X44863Y6223D01*
X44990Y6033D01*
X45180Y5906D01*
X45405Y5861D01*
X45629Y5906D01*
X45819Y6033D01*
X45946Y6223D01*
X45972Y6352D01*
X45980Y6373D01*
X45986Y6414D01*
X45994Y6445D01*
X46006Y6480D01*
X46023Y6517D01*
X46045Y6557D01*
X46072Y6600D01*
X46102Y6643D01*
X46188Y6746D01*
X46204Y6762D01*
X46728Y7287D01*
X46728Y7287D01*
X46795Y7386D01*
X46818Y7503D01*
Y8213D01*
X46795Y8330D01*
X46728Y8429D01*
X46481Y8676D01*
X46382Y8743D01*
X46265Y8766D01*
X46265Y8766D01*
X33479D01*
X33479Y8766D01*
X33464Y8763D01*
X33344Y8861D01*
X33344Y9657D01*
X32038Y10963D01*
X28254Y10963D01*
D02*
G37*
G36*
X5450Y10926D02*
X4550D01*
X4367Y10902D01*
X4197Y10831D01*
X4051Y10719D01*
X3939Y10573D01*
X3868Y10403D01*
X3844Y10220D01*
Y9320D01*
X3868Y9137D01*
X3939Y8967D01*
X4051Y8821D01*
X4197Y8709D01*
X4367Y8638D01*
X4550Y8614D01*
X5450D01*
X5633Y8638D01*
X5803Y8709D01*
X5949Y8821D01*
X6061Y8967D01*
X6132Y9137D01*
X6156Y9320D01*
Y10220D01*
X6132Y10403D01*
X6061Y10573D01*
X5949Y10719D01*
X5803Y10831D01*
X5633Y10902D01*
X5450Y10926D01*
D02*
G37*
G36*
X24998Y8773D02*
X24773Y8728D01*
X24583Y8601D01*
X24456Y8411D01*
X24411Y8187D01*
X24456Y7962D01*
X24583Y7772D01*
X24773Y7645D01*
X24998Y7600D01*
X25222Y7645D01*
X25412Y7772D01*
X25539Y7962D01*
X25584Y8187D01*
X25539Y8411D01*
X25412Y8601D01*
X25222Y8728D01*
X24998Y8773D01*
D02*
G37*
G36*
X16030Y15160D02*
X15730Y15120D01*
X15450Y15005D01*
X15210Y14820D01*
X15025Y14580D01*
X14910Y14300D01*
X14883Y14100D01*
X14878Y14084D01*
X14861Y13914D01*
X14832Y13757D01*
X14791Y13602D01*
X14738Y13451D01*
X14671Y13301D01*
X14593Y13153D01*
X14501Y13008D01*
X14396Y12864D01*
X14277Y12721D01*
X14177Y12615D01*
X9123Y7561D01*
X7290D01*
X7144Y7566D01*
X6959Y7582D01*
X6783Y7610D01*
X6615Y7648D01*
X6455Y7696D01*
X6302Y7755D01*
X6157Y7825D01*
X6019Y7905D01*
X5888Y7996D01*
X5755Y8104D01*
X5740Y8111D01*
X5580Y8235D01*
X5300Y8350D01*
X5000Y8390D01*
X4700Y8350D01*
X4420Y8235D01*
X4180Y8050D01*
X3995Y7810D01*
X3880Y7530D01*
X3840Y7230D01*
X3880Y6930D01*
X3995Y6650D01*
X4180Y6410D01*
X4420Y6225D01*
X4700Y6110D01*
X5000Y6070D01*
X5300Y6110D01*
X5580Y6225D01*
X5740Y6349D01*
X5755Y6356D01*
X5888Y6464D01*
X6019Y6555D01*
X6157Y6635D01*
X6302Y6705D01*
X6455Y6764D01*
X6615Y6812D01*
X6783Y6850D01*
X6959Y6878D01*
X7144Y6894D01*
X7290Y6899D01*
X9260D01*
X9387Y6924D01*
X9494Y6996D01*
X14645Y12147D01*
X14751Y12247D01*
X14894Y12366D01*
X15038Y12471D01*
X15183Y12563D01*
X15331Y12642D01*
X15481Y12708D01*
X15632Y12761D01*
X15787Y12802D01*
X15944Y12831D01*
X16114Y12848D01*
X16130Y12853D01*
X16330Y12880D01*
X16610Y12995D01*
X16850Y13180D01*
X17035Y13420D01*
X17150Y13700D01*
X17190Y14000D01*
X17150Y14300D01*
X17035Y14580D01*
X16850Y14820D01*
X16610Y15005D01*
X16330Y15120D01*
X16030Y15160D01*
D02*
G37*
G36*
X59920Y3775D02*
X57920D01*
Y3200D01*
X59920D01*
Y3775D01*
D02*
G37*
G36*
Y2500D02*
X57920D01*
Y1925D01*
X59920D01*
Y2500D01*
D02*
G37*
G36*
X20015Y1488D02*
X19791Y1444D01*
X19600Y1317D01*
X19473Y1126D01*
X19429Y902D01*
X19473Y678D01*
X19600Y488D01*
X19730Y401D01*
X19733Y259D01*
X19625Y187D01*
X19498Y-3D01*
X19454Y-228D01*
X19498Y-452D01*
X19625Y-642D01*
X19816Y-769D01*
X20040Y-814D01*
X20264Y-769D01*
X20454Y-642D01*
X20581Y-452D01*
X20626Y-228D01*
X20581Y-3D01*
X20454Y187D01*
X20325Y273D01*
X20322Y416D01*
X20429Y488D01*
X20557Y678D01*
X20601Y902D01*
X20557Y1126D01*
X20429Y1317D01*
X20239Y1444D01*
X20015Y1488D01*
D02*
G37*
G36*
X59920Y-1875D02*
X57920D01*
Y-2450D01*
X59920D01*
Y-1875D01*
D02*
G37*
G36*
Y-3150D02*
X57920D01*
Y-3725D01*
X59920D01*
Y-3150D01*
D02*
G37*
G36*
X22312Y-3579D02*
X21703Y-3579D01*
X21605Y-3599D01*
X21523Y-3654D01*
X21304Y-3872D01*
X21249Y-3955D01*
X21249Y-3955D01*
X21236Y-4023D01*
X21193D01*
X21171Y-4027D01*
X21149Y-4027D01*
X21123Y-4037D01*
X21096Y-4042D01*
X21077Y-4055D01*
X21056Y-4063D01*
X21036Y-4082D01*
X21013Y-4097D01*
X20884Y-4132D01*
X20793Y-4071D01*
X20559Y-4024D01*
X20325Y-4071D01*
X20126Y-4203D01*
X20106Y-4223D01*
X19973Y-4422D01*
X19927Y-4656D01*
X19973Y-4890D01*
X19954Y-4966D01*
X19929Y-4979D01*
X19900Y-5003D01*
X19869Y-5024D01*
X19862Y-5034D01*
X19852Y-5042D01*
X19851Y-5046D01*
X19766Y-5063D01*
X19711Y-5054D01*
X19624Y-4923D01*
X19434Y-4795D01*
X19209Y-4751D01*
X18985Y-4795D01*
X18795Y-4923D01*
X18668Y-5113D01*
X18623Y-5337D01*
X18668Y-5561D01*
X18778Y-5726D01*
X18782Y-5867D01*
X18778Y-5870D01*
X18651Y-6060D01*
X18606Y-6285D01*
X18651Y-6509D01*
X18778Y-6699D01*
X18968Y-6826D01*
X19192Y-6871D01*
X19417Y-6826D01*
X19607Y-6699D01*
X19676Y-6596D01*
X19796Y-6632D01*
X19798Y-8470D01*
X19808Y-8518D01*
X19818Y-8567D01*
X19818Y-8567D01*
X19818Y-8567D01*
X19844Y-8607D01*
X19873Y-8650D01*
X20195Y-8972D01*
X20238Y-9000D01*
X20278Y-9027D01*
X20278Y-9027D01*
X20278Y-9027D01*
X20326Y-9037D01*
X20375Y-9046D01*
X21544Y-9046D01*
X21642Y-9027D01*
X21665Y-9011D01*
X21762D01*
Y-8915D01*
X21780Y-8889D01*
X21799Y-8791D01*
Y-7357D01*
X21790Y-7313D01*
X21783Y-7269D01*
X21781Y-7264D01*
X21780Y-7259D01*
X21762Y-7233D01*
Y-7111D01*
X21665D01*
X21558Y-6996D01*
X21607Y-6886D01*
X21706D01*
Y-6136D01*
X22206D01*
Y-6886D01*
X22330D01*
Y-7111D01*
X22207D01*
Y-9011D01*
X23667D01*
Y-8387D01*
X23741Y-8291D01*
X23817Y-8108D01*
X23843Y-7912D01*
Y-5901D01*
X23817Y-5705D01*
X23741Y-5523D01*
X23621Y-5366D01*
X23464Y-5246D01*
X23282Y-5170D01*
X23086Y-5144D01*
X22890Y-5170D01*
X22708Y-5246D01*
X22557Y-5361D01*
X22528Y-5358D01*
X22505Y-5307D01*
X22503Y-5230D01*
X22541Y-5205D01*
X22753Y-4993D01*
X22809Y-4910D01*
X22828Y-4812D01*
X22828Y-4095D01*
X22821Y-4061D01*
X22809Y-3998D01*
X22809Y-3998D01*
Y-3998D01*
X22753Y-3915D01*
X22753Y-3915D01*
X22492Y-3654D01*
X22410Y-3599D01*
X22361Y-3589D01*
X22312Y-3579D01*
D02*
G37*
G36*
X15866Y-4433D02*
X15642Y-4477D01*
X15452Y-4605D01*
X15325Y-4795D01*
X15280Y-5019D01*
X15325Y-5243D01*
X15452Y-5434D01*
X15642Y-5561D01*
X15866Y-5605D01*
X16030Y-5573D01*
X16102Y-5681D01*
X16058Y-5905D01*
X16102Y-6129D01*
X16229Y-6320D01*
X16420Y-6447D01*
X16644Y-6491D01*
X16868Y-6447D01*
X17059Y-6320D01*
X17186Y-6129D01*
X17230Y-5905D01*
X17186Y-5681D01*
X17059Y-5490D01*
X16868Y-5363D01*
X16644Y-5319D01*
X16480Y-5351D01*
X16408Y-5243D01*
X16452Y-5019D01*
X16408Y-4795D01*
X16281Y-4605D01*
X16091Y-4477D01*
X15866Y-4433D01*
D02*
G37*
G36*
X5450Y-6074D02*
X4550D01*
X4367Y-6098D01*
X4197Y-6169D01*
X4051Y-6281D01*
X3939Y-6427D01*
X3868Y-6597D01*
X3844Y-6780D01*
Y-7680D01*
X3868Y-7863D01*
X3939Y-8033D01*
X4051Y-8179D01*
X4197Y-8291D01*
X4367Y-8362D01*
X4550Y-8386D01*
X5450D01*
X5633Y-8362D01*
X5803Y-8291D01*
X5949Y-8179D01*
X6061Y-8033D01*
X6132Y-7863D01*
X6156Y-7680D01*
Y-6780D01*
X6132Y-6597D01*
X6061Y-6427D01*
X5949Y-6281D01*
X5803Y-6169D01*
X5633Y-6098D01*
X5450Y-6074D01*
D02*
G37*
G36*
X5000Y-8610D02*
X4700Y-8650D01*
X4420Y-8765D01*
X4180Y-8950D01*
X3995Y-9190D01*
X3880Y-9470D01*
X3840Y-9770D01*
X3880Y-10070D01*
X3995Y-10350D01*
X4180Y-10590D01*
X4420Y-10775D01*
X4700Y-10890D01*
X5000Y-10930D01*
X5300Y-10890D01*
X5372Y-10861D01*
X5695Y-10832D01*
X5739Y-10840D01*
X7115D01*
X7242Y-10815D01*
X7349Y-10743D01*
X7483Y-10610D01*
X11793D01*
X11826Y-10631D01*
X11952Y-10656D01*
X21688D01*
X21827Y-10666D01*
X21882Y-10674D01*
X21932Y-10684D01*
X21975Y-10695D01*
X22010Y-10707D01*
X22038Y-10719D01*
X22058Y-10730D01*
X22084Y-10748D01*
X22104Y-10757D01*
X22210Y-10828D01*
X22434Y-10873D01*
X22659Y-10828D01*
X22849Y-10701D01*
X22976Y-10511D01*
X23021Y-10286D01*
X22976Y-10062D01*
X22849Y-9872D01*
X22659Y-9745D01*
X22434Y-9700D01*
X22210Y-9745D01*
X22020Y-9872D01*
X22008Y-9889D01*
X22008Y-9889D01*
X21981Y-9909D01*
X21950Y-9927D01*
X21914Y-9943D01*
X21874Y-9958D01*
X21828Y-9970D01*
X21777Y-9981D01*
X21721Y-9989D01*
X21659Y-9993D01*
X21648Y-9994D01*
X12065D01*
X12032Y-9972D01*
X11906Y-9947D01*
X7346D01*
X7219Y-9972D01*
X7111Y-10044D01*
X6978Y-10178D01*
X6136D01*
X6122Y-10060D01*
X6160Y-9770D01*
X6120Y-9470D01*
X6005Y-9190D01*
X5820Y-8950D01*
X5580Y-8765D01*
X5300Y-8650D01*
X5000Y-8610D01*
D02*
G37*
G36*
X51715Y-12857D02*
Y-13875D01*
X52733D01*
X52710Y-13700D01*
X52595Y-13420D01*
X52410Y-13180D01*
X52170Y-12995D01*
X51890Y-12880D01*
X51715Y-12857D01*
D02*
G37*
G36*
X39015D02*
Y-13875D01*
X40033D01*
X40010Y-13700D01*
X39895Y-13420D01*
X39710Y-13180D01*
X39470Y-12995D01*
X39190Y-12880D01*
X39015Y-12857D01*
D02*
G37*
G36*
X31395D02*
Y-13875D01*
X32413D01*
X32390Y-13700D01*
X32275Y-13420D01*
X32090Y-13180D01*
X31850Y-12995D01*
X31570Y-12880D01*
X31395Y-12857D01*
D02*
G37*
G36*
X54580Y-12844D02*
X54255D01*
Y-13875D01*
X55286D01*
Y-13550D01*
X55262Y-13367D01*
X55191Y-13197D01*
X55079Y-13051D01*
X54933Y-12939D01*
X54763Y-12868D01*
X54580Y-12844D01*
D02*
G37*
G36*
X41555Y-12857D02*
Y-13875D01*
X42573D01*
X42550Y-13700D01*
X42435Y-13420D01*
X42250Y-13180D01*
X42010Y-12995D01*
X41730Y-12880D01*
X41555Y-12857D01*
D02*
G37*
G36*
X36475D02*
Y-13875D01*
X37493D01*
X37470Y-13700D01*
X37355Y-13420D01*
X37170Y-13180D01*
X36930Y-12995D01*
X36650Y-12880D01*
X36475Y-12857D01*
D02*
G37*
G36*
X46635D02*
Y-13875D01*
X47653D01*
X47630Y-13700D01*
X47515Y-13420D01*
X47330Y-13180D01*
X47090Y-12995D01*
X46810Y-12880D01*
X46635Y-12857D01*
D02*
G37*
G36*
X44095D02*
Y-13875D01*
X45113D01*
X45090Y-13700D01*
X44975Y-13420D01*
X44790Y-13180D01*
X44550Y-12995D01*
X44270Y-12880D01*
X44095Y-12857D01*
D02*
G37*
G36*
X46385Y-12857D02*
X46210Y-12880D01*
X45930Y-12995D01*
X45690Y-13180D01*
X45505Y-13420D01*
X45390Y-13700D01*
X45367Y-13875D01*
X46385D01*
Y-12857D01*
D02*
G37*
G36*
X43845D02*
X43670Y-12880D01*
X43390Y-12995D01*
X43150Y-13180D01*
X42965Y-13420D01*
X42850Y-13700D01*
X42827Y-13875D01*
X43845D01*
Y-12857D01*
D02*
G37*
G36*
X38765D02*
X38590Y-12880D01*
X38310Y-12995D01*
X38070Y-13180D01*
X37885Y-13420D01*
X37770Y-13700D01*
X37747Y-13875D01*
X38765D01*
Y-12857D01*
D02*
G37*
G36*
X51465D02*
X51290Y-12880D01*
X51010Y-12995D01*
X50770Y-13180D01*
X50585Y-13420D01*
X50470Y-13700D01*
X50447Y-13875D01*
X51465D01*
Y-12857D01*
D02*
G37*
G36*
X36225D02*
X36050Y-12880D01*
X35770Y-12995D01*
X35530Y-13180D01*
X35345Y-13420D01*
X35230Y-13700D01*
X35207Y-13875D01*
X36225D01*
Y-12857D01*
D02*
G37*
G36*
X31145D02*
X30970Y-12880D01*
X30690Y-12995D01*
X30450Y-13180D01*
X30265Y-13420D01*
X30150Y-13700D01*
X30127Y-13875D01*
X31145D01*
Y-12857D01*
D02*
G37*
G36*
X41305D02*
X41130Y-12880D01*
X40850Y-12995D01*
X40610Y-13180D01*
X40425Y-13420D01*
X40310Y-13700D01*
X40287Y-13875D01*
X41305D01*
Y-12857D01*
D02*
G37*
G36*
X54005Y-12844D02*
X53680D01*
X53497Y-12868D01*
X53327Y-12939D01*
X53181Y-13051D01*
X53069Y-13197D01*
X52998Y-13367D01*
X52974Y-13550D01*
Y-13875D01*
X54005D01*
Y-12844D01*
D02*
G37*
G36*
X52733Y-14125D02*
X51715D01*
Y-15143D01*
X51890Y-15120D01*
X52170Y-15005D01*
X52410Y-14820D01*
X52595Y-14580D01*
X52710Y-14300D01*
X52733Y-14125D01*
D02*
G37*
G36*
X42573D02*
X41555D01*
Y-15143D01*
X41730Y-15120D01*
X42010Y-15005D01*
X42250Y-14820D01*
X42435Y-14580D01*
X42550Y-14300D01*
X42573Y-14125D01*
D02*
G37*
G36*
X40033D02*
X39015D01*
Y-15143D01*
X39190Y-15120D01*
X39470Y-15005D01*
X39710Y-14820D01*
X39895Y-14580D01*
X40010Y-14300D01*
X40033Y-14125D01*
D02*
G37*
G36*
X37493D02*
X36475D01*
Y-15143D01*
X36650Y-15120D01*
X36930Y-15005D01*
X37170Y-14820D01*
X37355Y-14580D01*
X37470Y-14300D01*
X37493Y-14125D01*
D02*
G37*
G36*
X32413D02*
X31395D01*
Y-15143D01*
X31570Y-15120D01*
X31850Y-15005D01*
X32090Y-14820D01*
X32275Y-14580D01*
X32390Y-14300D01*
X32413Y-14125D01*
D02*
G37*
G36*
X47653D02*
X46635D01*
Y-15143D01*
X46810Y-15120D01*
X47090Y-15005D01*
X47330Y-14820D01*
X47515Y-14580D01*
X47630Y-14300D01*
X47653Y-14125D01*
D02*
G37*
G36*
X45113D02*
X44095D01*
Y-15143D01*
X44270Y-15120D01*
X44550Y-15005D01*
X44790Y-14820D01*
X44975Y-14580D01*
X45090Y-14300D01*
X45113Y-14125D01*
D02*
G37*
G36*
X46385D02*
X45367D01*
X45390Y-14300D01*
X45505Y-14580D01*
X45690Y-14820D01*
X45930Y-15005D01*
X46210Y-15120D01*
X46385Y-15143D01*
Y-14125D01*
D02*
G37*
G36*
X43845D02*
X42827D01*
X42850Y-14300D01*
X42965Y-14580D01*
X43150Y-14820D01*
X43390Y-15005D01*
X43670Y-15120D01*
X43845Y-15143D01*
Y-14125D01*
D02*
G37*
G36*
X51465D02*
X50447D01*
X50470Y-14300D01*
X50585Y-14580D01*
X50770Y-14820D01*
X51010Y-15005D01*
X51290Y-15120D01*
X51465Y-15143D01*
Y-14125D01*
D02*
G37*
G36*
X41305D02*
X40287D01*
X40310Y-14300D01*
X40425Y-14580D01*
X40610Y-14820D01*
X40850Y-15005D01*
X41130Y-15120D01*
X41305Y-15143D01*
Y-14125D01*
D02*
G37*
G36*
X38765D02*
X37747D01*
X37770Y-14300D01*
X37885Y-14580D01*
X38070Y-14820D01*
X38310Y-15005D01*
X38590Y-15120D01*
X38765Y-15143D01*
Y-14125D01*
D02*
G37*
G36*
X36225D02*
X35207D01*
X35230Y-14300D01*
X35345Y-14580D01*
X35530Y-14820D01*
X35770Y-15005D01*
X36050Y-15120D01*
X36225Y-15143D01*
Y-14125D01*
D02*
G37*
G36*
X31145D02*
X30127D01*
X30150Y-14300D01*
X30265Y-14580D01*
X30450Y-14820D01*
X30690Y-15005D01*
X30970Y-15120D01*
X31145Y-15143D01*
Y-14125D01*
D02*
G37*
G36*
X55286D02*
X54255D01*
Y-15156D01*
X54580D01*
X54763Y-15132D01*
X54933Y-15061D01*
X55079Y-14949D01*
X55191Y-14803D01*
X55262Y-14633D01*
X55286Y-14450D01*
Y-14125D01*
D02*
G37*
G36*
X54005D02*
X52974D01*
Y-14450D01*
X52998Y-14633D01*
X53069Y-14803D01*
X53181Y-14949D01*
X53327Y-15061D01*
X53497Y-15132D01*
X53680Y-15156D01*
X54005D01*
Y-14125D01*
D02*
G37*
G36*
X48584Y-10846D02*
X48360Y-10890D01*
X48169Y-11018D01*
X48042Y-11208D01*
X47998Y-11432D01*
X48042Y-11656D01*
X48130Y-11788D01*
X48160Y-11876D01*
X48130Y-11965D01*
X48042Y-12096D01*
X47998Y-12320D01*
X48042Y-12545D01*
X48169Y-12735D01*
X48360Y-12862D01*
X48440Y-12878D01*
X48460Y-12958D01*
X48459Y-13004D01*
X48230Y-13180D01*
X48045Y-13420D01*
X47930Y-13700D01*
X47890Y-14000D01*
X47930Y-14300D01*
X48045Y-14580D01*
X48230Y-14820D01*
X48470Y-15005D01*
X48750Y-15120D01*
X49050Y-15160D01*
X49350Y-15120D01*
X49630Y-15005D01*
X49870Y-14820D01*
X50055Y-14580D01*
X50170Y-14300D01*
X50210Y-14000D01*
X50170Y-13700D01*
X50055Y-13420D01*
X49870Y-13180D01*
X49630Y-12995D01*
X49350Y-12880D01*
X49056Y-12841D01*
X49036Y-12812D01*
X49021Y-12782D01*
X49005Y-12725D01*
X49126Y-12545D01*
X49170Y-12320D01*
X49126Y-12096D01*
X49038Y-11965D01*
X49008Y-11876D01*
X49038Y-11788D01*
X49126Y-11656D01*
X49170Y-11432D01*
X49126Y-11208D01*
X48999Y-11018D01*
X48808Y-10890D01*
X48584Y-10846D01*
D02*
G37*
G36*
X33810Y-12840D02*
X33510Y-12880D01*
X33230Y-12995D01*
X32990Y-13180D01*
X32805Y-13420D01*
X32690Y-13700D01*
X32650Y-14000D01*
X32690Y-14300D01*
X32805Y-14580D01*
X32990Y-14820D01*
X33230Y-15005D01*
X33510Y-15120D01*
X33810Y-15160D01*
X34110Y-15120D01*
X34390Y-15005D01*
X34630Y-14820D01*
X34815Y-14580D01*
X34930Y-14300D01*
X34970Y-14000D01*
X34930Y-13700D01*
X34815Y-13420D01*
X34630Y-13180D01*
X34390Y-12995D01*
X34110Y-12880D01*
X33810Y-12840D01*
D02*
G37*
G36*
X28730D02*
X28430Y-12880D01*
X28150Y-12995D01*
X27910Y-13180D01*
X27725Y-13420D01*
X27610Y-13700D01*
X27570Y-14000D01*
X27610Y-14300D01*
X27725Y-14580D01*
X27910Y-14820D01*
X28150Y-15005D01*
X28430Y-15120D01*
X28730Y-15160D01*
X29030Y-15120D01*
X29310Y-15005D01*
X29550Y-14820D01*
X29735Y-14580D01*
X29850Y-14300D01*
X29890Y-14000D01*
X29850Y-13700D01*
X29735Y-13420D01*
X29550Y-13180D01*
X29310Y-12995D01*
X29030Y-12880D01*
X28730Y-12840D01*
D02*
G37*
G36*
X23650D02*
X23350Y-12880D01*
X23070Y-12995D01*
X22830Y-13180D01*
X22645Y-13420D01*
X22530Y-13700D01*
X22490Y-14000D01*
X22530Y-14300D01*
X22645Y-14580D01*
X22830Y-14820D01*
X23070Y-15005D01*
X23350Y-15120D01*
X23650Y-15160D01*
X23950Y-15120D01*
X24230Y-15005D01*
X24470Y-14820D01*
X24655Y-14580D01*
X24770Y-14300D01*
X24810Y-14000D01*
X24770Y-13700D01*
X24655Y-13420D01*
X24470Y-13180D01*
X24230Y-12995D01*
X23950Y-12880D01*
X23650Y-12840D01*
D02*
G37*
G36*
X21110D02*
X20810Y-12880D01*
X20530Y-12995D01*
X20290Y-13180D01*
X20105Y-13420D01*
X19990Y-13700D01*
X19950Y-14000D01*
X19990Y-14300D01*
X20105Y-14580D01*
X20290Y-14820D01*
X20530Y-15005D01*
X20810Y-15120D01*
X21110Y-15160D01*
X21410Y-15120D01*
X21690Y-15005D01*
X21930Y-14820D01*
X22115Y-14580D01*
X22230Y-14300D01*
X22270Y-14000D01*
X22230Y-13700D01*
X22115Y-13420D01*
X21930Y-13180D01*
X21690Y-12995D01*
X21410Y-12880D01*
X21110Y-12840D01*
D02*
G37*
G36*
X18570D02*
X18270Y-12880D01*
X17990Y-12995D01*
X17750Y-13180D01*
X17565Y-13420D01*
X17450Y-13700D01*
X17410Y-14000D01*
X17450Y-14300D01*
X17565Y-14580D01*
X17750Y-14820D01*
X17990Y-15005D01*
X18270Y-15120D01*
X18570Y-15160D01*
X18870Y-15120D01*
X19150Y-15005D01*
X19390Y-14820D01*
X19575Y-14580D01*
X19690Y-14300D01*
X19730Y-14000D01*
X19690Y-13700D01*
X19575Y-13420D01*
X19390Y-13180D01*
X19150Y-12995D01*
X18870Y-12880D01*
X18570Y-12840D01*
D02*
G37*
G36*
X16030D02*
X15730Y-12880D01*
X15450Y-12995D01*
X15210Y-13180D01*
X15025Y-13420D01*
X14910Y-13700D01*
X14870Y-14000D01*
X14910Y-14300D01*
X15025Y-14580D01*
X15210Y-14820D01*
X15450Y-15005D01*
X15730Y-15120D01*
X16030Y-15160D01*
X16330Y-15120D01*
X16610Y-15005D01*
X16850Y-14820D01*
X17035Y-14580D01*
X17150Y-14300D01*
X17190Y-14000D01*
X17150Y-13700D01*
X17035Y-13420D01*
X16850Y-13180D01*
X16610Y-12995D01*
X16330Y-12880D01*
X16030Y-12840D01*
D02*
G37*
G36*
X13490D02*
X13190Y-12880D01*
X12910Y-12995D01*
X12670Y-13180D01*
X12485Y-13420D01*
X12370Y-13700D01*
X12330Y-14000D01*
X12370Y-14300D01*
X12485Y-14580D01*
X12670Y-14820D01*
X12910Y-15005D01*
X13190Y-15120D01*
X13490Y-15160D01*
X13790Y-15120D01*
X14070Y-15005D01*
X14310Y-14820D01*
X14495Y-14580D01*
X14610Y-14300D01*
X14650Y-14000D01*
X14610Y-13700D01*
X14495Y-13420D01*
X14310Y-13180D01*
X14070Y-12995D01*
X13790Y-12880D01*
X13490Y-12840D01*
D02*
G37*
G36*
X10950D02*
X10650Y-12880D01*
X10370Y-12995D01*
X10130Y-13180D01*
X9945Y-13420D01*
X9830Y-13700D01*
X9790Y-14000D01*
X9830Y-14300D01*
X9945Y-14580D01*
X10130Y-14820D01*
X10370Y-15005D01*
X10650Y-15120D01*
X10950Y-15160D01*
X11250Y-15120D01*
X11530Y-15005D01*
X11770Y-14820D01*
X11955Y-14580D01*
X12070Y-14300D01*
X12110Y-14000D01*
X12070Y-13700D01*
X11955Y-13420D01*
X11770Y-13180D01*
X11530Y-12995D01*
X11250Y-12880D01*
X10950Y-12840D01*
D02*
G37*
G36*
X8410D02*
X8110Y-12880D01*
X7830Y-12995D01*
X7590Y-13180D01*
X7405Y-13420D01*
X7290Y-13700D01*
X7250Y-14000D01*
X7290Y-14300D01*
X7405Y-14580D01*
X7590Y-14820D01*
X7830Y-15005D01*
X8110Y-15120D01*
X8410Y-15160D01*
X8710Y-15120D01*
X8990Y-15005D01*
X9230Y-14820D01*
X9415Y-14580D01*
X9530Y-14300D01*
X9570Y-14000D01*
X9530Y-13700D01*
X9415Y-13420D01*
X9230Y-13180D01*
X8990Y-12995D01*
X8710Y-12880D01*
X8410Y-12840D01*
D02*
G37*
G36*
X5870D02*
X5570Y-12880D01*
X5290Y-12995D01*
X5050Y-13180D01*
X4865Y-13420D01*
X4750Y-13700D01*
X4710Y-14000D01*
X4750Y-14300D01*
X4865Y-14580D01*
X5050Y-14820D01*
X5290Y-15005D01*
X5570Y-15120D01*
X5870Y-15160D01*
X6170Y-15120D01*
X6450Y-15005D01*
X6690Y-14820D01*
X6875Y-14580D01*
X6990Y-14300D01*
X7030Y-14000D01*
X6990Y-13700D01*
X6875Y-13420D01*
X6690Y-13180D01*
X6450Y-12995D01*
X6170Y-12880D01*
X5870Y-12840D01*
D02*
G37*
G36*
X57800Y-14044D02*
X57604Y-14069D01*
X57422Y-14145D01*
X57265Y-14265D01*
X57145Y-14422D01*
X57069Y-14604D01*
X57044Y-14800D01*
X57069Y-14996D01*
X57145Y-15178D01*
X57265Y-15335D01*
X57422Y-15455D01*
X57604Y-15531D01*
X57800Y-15556D01*
X57996Y-15531D01*
X58178Y-15455D01*
X58335Y-15335D01*
X58455Y-15178D01*
X58531Y-14996D01*
X58556Y-14800D01*
X58531Y-14604D01*
X58455Y-14422D01*
X58335Y-14265D01*
X58178Y-14145D01*
X57996Y-14069D01*
X57800Y-14044D01*
D02*
G37*
%LPD*%
G36*
X45145Y7597D02*
X45098Y7638D01*
X45047Y7674D01*
X44993Y7706D01*
X44936Y7734D01*
X44876Y7757D01*
X44812Y7776D01*
X44744Y7791D01*
X44674Y7802D01*
X44600Y7808D01*
X44523Y7810D01*
X44531Y7910D01*
X44612Y7912D01*
X44762Y7926D01*
X44832Y7938D01*
X44896Y7954D01*
X44957Y7973D01*
X45014Y7996D01*
X45067Y8022D01*
X45115Y8052D01*
X45160Y8085D01*
X45145Y7597D01*
D02*
G37*
G36*
X46055Y6976D02*
X45998Y6916D01*
X45900Y6799D01*
X45860Y6742D01*
X45824Y6685D01*
X45794Y6630D01*
X45769Y6574D01*
X45750Y6520D01*
X45736Y6466D01*
X45728Y6413D01*
X45398Y6773D01*
X45461Y6777D01*
X45524Y6786D01*
X45586Y6801D01*
X45647Y6821D01*
X45707Y6846D01*
X45766Y6877D01*
X45824Y6914D01*
X45881Y6955D01*
X45937Y7002D01*
X45993Y7054D01*
X46055Y6976D01*
D02*
G37*
G36*
X32801Y3095D02*
X30067D01*
Y6127D01*
X31816D01*
X31816Y6127D01*
X31933Y6150D01*
X31943Y6157D01*
X32801D01*
Y3095D01*
D02*
G37*
G36*
X21666Y5441D02*
X21629Y5394D01*
X21596Y5345D01*
X21566Y5291D01*
X21541Y5234D01*
X21519Y5173D01*
X21501Y5109D01*
X21488Y5041D01*
X21478Y4969D01*
X21472Y4894D01*
X21470Y4815D01*
X21370Y4815D01*
X21368Y4895D01*
X21353Y5043D01*
X21339Y5111D01*
X21322Y5176D01*
X21301Y5237D01*
X21276Y5294D01*
X21247Y5347D01*
X21215Y5397D01*
X21178Y5442D01*
X21666Y5441D01*
D02*
G37*
G36*
X29516Y4369D02*
X25151Y4369D01*
X25151Y6127D01*
X29516D01*
X29516Y4369D01*
D02*
G37*
G36*
X19390Y3556D02*
X19396Y3480D01*
X19405Y3408D01*
X19419Y3340D01*
X19436Y3275D01*
X19458Y3215D01*
X19483Y3158D01*
X19512Y3104D01*
X19545Y3054D01*
X19582Y3008D01*
X19094D01*
X19131Y3054D01*
X19164Y3104D01*
X19193Y3158D01*
X19218Y3215D01*
X19239Y3275D01*
X19257Y3340D01*
X19270Y3408D01*
X19280Y3480D01*
X19286Y3556D01*
X19288Y3635D01*
X19388D01*
X19390Y3556D01*
D02*
G37*
G36*
X45446Y-5052D02*
X45398Y-5062D01*
X45349Y-5077D01*
X45298Y-5098D01*
X45246Y-5124D01*
X45192Y-5156D01*
X45137Y-5193D01*
X45080Y-5236D01*
X44962Y-5338D01*
X44901Y-5397D01*
X44815Y-5341D01*
X44865Y-5288D01*
X44910Y-5233D01*
X44949Y-5176D01*
X44983Y-5118D01*
X45012Y-5058D01*
X45035Y-4997D01*
X45053Y-4934D01*
X45065Y-4869D01*
X45072Y-4804D01*
X45074Y-4736D01*
X45446Y-5052D01*
D02*
G37*
G36*
X26246Y-11865D02*
X26265Y-12062D01*
X26296Y-12252D01*
X26340Y-12436D01*
X26396Y-12614D01*
X26465Y-12785D01*
X26547Y-12950D01*
X26641Y-13108D01*
X26747Y-13260D01*
X26866Y-13406D01*
X25514D01*
X25633Y-13260D01*
X25739Y-13108D01*
X25833Y-12950D01*
X25915Y-12785D01*
X25984Y-12614D01*
X26040Y-12436D01*
X26084Y-12252D01*
X26115Y-12062D01*
X26134Y-11865D01*
X26140Y-11661D01*
X26240D01*
X26246Y-11865D01*
D02*
G37*
G36*
X16088Y13102D02*
X15908Y13083D01*
X15731Y13051D01*
X15557Y13005D01*
X15387Y12945D01*
X15219Y12871D01*
X15055Y12783D01*
X14894Y12682D01*
X14737Y12567D01*
X14582Y12437D01*
X14431Y12295D01*
X14325Y12401D01*
X14467Y12552D01*
X14597Y12707D01*
X14712Y12864D01*
X14813Y13025D01*
X14901Y13189D01*
X14975Y13357D01*
X15035Y13527D01*
X15081Y13701D01*
X15113Y13878D01*
X15132Y14058D01*
X16088Y13102D01*
D02*
G37*
G36*
X5735Y7792D02*
X5883Y7690D01*
X6038Y7599D01*
X6201Y7521D01*
X6372Y7455D01*
X6550Y7401D01*
X6735Y7359D01*
X6928Y7329D01*
X7129Y7311D01*
X7337Y7305D01*
Y7155D01*
X7129Y7149D01*
X6928Y7131D01*
X6735Y7101D01*
X6550Y7059D01*
X6372Y7005D01*
X6201Y6939D01*
X6038Y6861D01*
X5883Y6770D01*
X5735Y6668D01*
X5594Y6554D01*
Y7906D01*
X5735Y7792D01*
D02*
G37*
G36*
X22573Y-4095D02*
X22573Y-4812D01*
X22361Y-5024D01*
X21495Y-5024D01*
X21427Y-5028D01*
X21295Y-5054D01*
X21170Y-5106D01*
X21103Y-5151D01*
X21057Y-5181D01*
X21007Y-5226D01*
X21007Y-5226D01*
X21007Y-5226D01*
X21007Y-5226D01*
X20986Y-5250D01*
X20950Y-5303D01*
X20950Y-5303D01*
X20941Y-5326D01*
X20941Y-5326D01*
X20940Y-5329D01*
X20926Y-5362D01*
X20926Y-5362D01*
X20913Y-5424D01*
X20912Y-5456D01*
X20912Y-5456D01*
X20912Y-5456D01*
X20912Y-6671D01*
X20943Y-6705D01*
Y-6836D01*
X21064Y-6836D01*
X21544Y-7357D01*
Y-8791D01*
X20375Y-8791D01*
X20053Y-8470D01*
X20050Y-5204D01*
X20176Y-5136D01*
X20304Y-5221D01*
X20538Y-5268D01*
X20772Y-5221D01*
X20971Y-5089D01*
X20991Y-5068D01*
X21124Y-4870D01*
X21170Y-4636D01*
X21124Y-4405D01*
X21120Y-4382D01*
X21193Y-4278D01*
X21409D01*
X21485Y-4202D01*
X21485Y-4053D01*
X21703Y-3834D01*
X22312Y-3834D01*
X22573Y-4095D01*
D02*
G37*
G36*
X22231Y-10540D02*
X22194Y-10514D01*
X22150Y-10490D01*
X22102Y-10469D01*
X22048Y-10450D01*
X21988Y-10435D01*
X21924Y-10422D01*
X21853Y-10413D01*
X21696Y-10401D01*
X21610Y-10400D01*
X21591Y-10250D01*
X21672Y-10248D01*
X21748Y-10242D01*
X21820Y-10232D01*
X21888Y-10218D01*
X21952Y-10201D01*
X22012Y-10179D01*
X22067Y-10153D01*
X22119Y-10123D01*
X22166Y-10090D01*
X22209Y-10052D01*
X22231Y-10540D01*
D02*
G37*
G36*
X5913Y-10469D02*
X5880Y-10559D01*
X4869Y-10650D01*
X5788Y-9399D01*
X5913Y-10469D01*
D02*
G37*
D12*
X-9Y17005D02*
X62391Y17098D01*
X-9Y17005D02*
X0Y-17000D01*
X62391Y17098D02*
X62401Y-16907D01*
X0Y-17000D02*
X62401Y-16907D01*
D14*
X27912Y-7355D02*
G03*
X27983Y-7384I71J71D01*
G01*
X23107Y-2508D02*
G03*
X23136Y-2579I100J0D01*
G01*
X22652Y-2425D02*
G03*
X22682Y-2496I100J0D01*
G01*
X26190Y-6045D02*
G03*
X26160Y-5974I-100J0D01*
G01*
X44305Y-6874D02*
G03*
X44334Y-6803I-71J71D01*
G01*
X44364Y-5863D02*
G03*
X44334Y-5934I71J-71D01*
G01*
X44364Y-5863D02*
X44619Y-5607D01*
X27983Y-7384D02*
Y-7384D01*
X44669Y-5557D02*
X45398Y-4828D01*
X27983Y-7384D02*
X34817D01*
X23136Y-2579D02*
X27912Y-7355D01*
X34817Y-7384D02*
X43788D01*
X23107Y-2508D02*
Y1526D01*
X44619Y-5607D02*
X44669Y-5557D01*
X22682Y-2496D02*
X26160Y-5974D01*
X26190Y-14000D02*
Y-6045D01*
X22652Y-2425D02*
Y557D01*
X21420Y3213D02*
X23107Y1526D01*
X21420Y3213D02*
Y5659D01*
X43791Y-7387D02*
X44305Y-6874D01*
X44334Y-6803D02*
X44334Y-5934D01*
X44160Y7860D02*
X45342D01*
X33479Y8460D02*
X46265D01*
X45342Y7860D02*
X45367Y7835D01*
X46265Y8460D02*
X46512Y8213D01*
X31671Y6653D02*
X33479Y8460D01*
X45398Y-4828D02*
Y-4731D01*
X21224Y6653D02*
X31671D01*
X21316Y6433D02*
X31816D01*
X33563Y8180D02*
X43840D01*
X31816Y6433D02*
X33563Y8180D01*
X19338Y2794D02*
Y4766D01*
X21224Y6653D01*
X43840Y8180D02*
X44160Y7860D01*
X20780Y2429D02*
Y5897D01*
Y2429D02*
X22652Y557D01*
X20780Y5897D02*
X21316Y6433D01*
X46512Y7503D02*
Y8213D01*
X45457Y6448D02*
X46512Y7503D01*
X45405Y6448D02*
X45457D01*
D15*
X7346Y-10278D02*
X11906D01*
X7115Y-10509D02*
X7346Y-10278D01*
X11952Y-10325D02*
X22300D01*
X11906Y-10278D02*
X11952Y-10325D01*
X5739Y-10509D02*
X7115D01*
X5000Y-9770D02*
X5739Y-10509D01*
X5000Y7230D02*
X9260D01*
X16030Y14000D01*
D62*
X20531Y-6136D02*
D03*
X21956D02*
D03*
D69*
X60270Y-2800D02*
D03*
Y2850D02*
D03*
D72*
X57800Y-14800D02*
D03*
X2200Y14800D02*
D03*
D76*
X20546Y-4648D02*
X20559Y-4636D01*
X20538Y-4656D02*
X20546Y-4648D01*
X20531Y-6136D02*
X20538Y-6128D01*
X20529Y-6138D02*
X20531Y-6136D01*
D79*
X5870Y14000D02*
D03*
X8410D02*
D03*
X10950D02*
D03*
X13490D02*
D03*
X16030D02*
D03*
X18570D02*
D03*
X21110D02*
D03*
X23650D02*
D03*
X26190D02*
D03*
X28730D02*
D03*
X31270D02*
D03*
X33810D02*
D03*
X36350D02*
D03*
X38890D02*
D03*
X41430D02*
D03*
X43970D02*
D03*
X46510D02*
D03*
X49050D02*
D03*
X51590D02*
D03*
X5000Y-9770D02*
D03*
Y7230D02*
D03*
X51590Y-14000D02*
D03*
X49050D02*
D03*
X46510D02*
D03*
X43970D02*
D03*
X41430D02*
D03*
X38890D02*
D03*
X36350D02*
D03*
X33810D02*
D03*
X31270D02*
D03*
X28730D02*
D03*
X26190D02*
D03*
X23650D02*
D03*
X21110D02*
D03*
X18570D02*
D03*
X16030D02*
D03*
X13490D02*
D03*
X10950D02*
D03*
X8410D02*
D03*
X5870D02*
D03*
D80*
X54130Y14000D02*
D03*
Y-14000D02*
D03*
D81*
X5000Y-7230D02*
D03*
Y9770D02*
D03*
D82*
X46273Y-563D02*
D03*
X39412Y10849D02*
D03*
X41904Y10854D02*
D03*
X38788Y10849D02*
D03*
X41281D02*
D03*
X38165D02*
D03*
X40658D02*
D03*
X37542D02*
D03*
X40035D02*
D03*
X43150Y10858D02*
D03*
X45643D02*
D03*
X45020D02*
D03*
X44397D02*
D03*
X42527D02*
D03*
X43773D02*
D03*
X46266D02*
D03*
X48135Y10859D02*
D03*
X46889D02*
D03*
X48759D02*
D03*
X47512D02*
D03*
X61009Y15043D02*
D03*
X60559Y14143D02*
D03*
X61009Y13243D02*
D03*
X60559Y12343D02*
D03*
X61009Y11443D02*
D03*
X60559Y10543D02*
D03*
X61009Y9643D02*
D03*
X60559Y8743D02*
D03*
X61009Y7843D02*
D03*
X60559Y6943D02*
D03*
X61009Y6043D02*
D03*
X60559Y5143D02*
D03*
X61009Y4243D02*
D03*
Y-4757D02*
D03*
X60559Y-5657D02*
D03*
X61009Y-6557D02*
D03*
X60559Y-7457D02*
D03*
X61009Y-8357D02*
D03*
X60559Y-9257D02*
D03*
X61009Y-10157D02*
D03*
X60559Y-11057D02*
D03*
X61009Y-11957D02*
D03*
X60559Y-12857D02*
D03*
X61009Y-13757D02*
D03*
X60559Y-14657D02*
D03*
X61009Y-15557D02*
D03*
X60109Y15043D02*
D03*
X59659Y14143D02*
D03*
X60109Y13243D02*
D03*
X59659Y12343D02*
D03*
X60109Y11443D02*
D03*
X59659Y10543D02*
D03*
X60109Y9643D02*
D03*
X59659Y8743D02*
D03*
X60109Y7843D02*
D03*
X59659Y6943D02*
D03*
X60109Y6043D02*
D03*
X59659Y5143D02*
D03*
X60109Y4243D02*
D03*
Y-4757D02*
D03*
X59659Y-5657D02*
D03*
X60109Y-6557D02*
D03*
X59659Y-7457D02*
D03*
X60109Y-8357D02*
D03*
X59659Y-9257D02*
D03*
X60109Y-10157D02*
D03*
X59659Y-11057D02*
D03*
X60109Y-11957D02*
D03*
X59659Y-12857D02*
D03*
X60109Y-13757D02*
D03*
X59659Y-14657D02*
D03*
X60109Y-15557D02*
D03*
X59209Y15043D02*
D03*
X58759Y14143D02*
D03*
X59209Y13243D02*
D03*
X58759Y12343D02*
D03*
X59209Y11443D02*
D03*
X58759Y10543D02*
D03*
X59209Y9643D02*
D03*
X58759Y8743D02*
D03*
X59209Y7843D02*
D03*
X58759Y6943D02*
D03*
X59209Y6043D02*
D03*
X58759Y5143D02*
D03*
X59209Y4243D02*
D03*
Y-4757D02*
D03*
X58759Y-5657D02*
D03*
X59209Y-6557D02*
D03*
X58759Y-7457D02*
D03*
X59209Y-8357D02*
D03*
X58759Y-9257D02*
D03*
X59209Y-10157D02*
D03*
X58759Y-11057D02*
D03*
X59209Y-11957D02*
D03*
X58759Y-12857D02*
D03*
X59209Y-15557D02*
D03*
X58309Y15043D02*
D03*
X57859Y14143D02*
D03*
X58309Y13243D02*
D03*
X57859Y12343D02*
D03*
X58309Y11443D02*
D03*
X57859Y10543D02*
D03*
X58309Y9643D02*
D03*
X57859Y8743D02*
D03*
X58309Y7843D02*
D03*
X57859Y6943D02*
D03*
X58309Y6043D02*
D03*
X57859Y5143D02*
D03*
X58309Y4243D02*
D03*
Y-4757D02*
D03*
X57859Y-5657D02*
D03*
X58309Y-6557D02*
D03*
X57859Y-7457D02*
D03*
X58309Y-8357D02*
D03*
X57859Y-9257D02*
D03*
X58309Y-10157D02*
D03*
X57859Y-11057D02*
D03*
X58309Y-11957D02*
D03*
X57859Y-12857D02*
D03*
X58309Y-13757D02*
D03*
X57409Y15043D02*
D03*
X56959Y14143D02*
D03*
X57409Y13243D02*
D03*
X56959Y12343D02*
D03*
X57409Y11443D02*
D03*
X56959Y10543D02*
D03*
X57409Y9643D02*
D03*
X56959Y8743D02*
D03*
X57409Y7843D02*
D03*
X56959Y6943D02*
D03*
X57409Y6043D02*
D03*
X56959Y5143D02*
D03*
X57409Y4243D02*
D03*
X56959Y3343D02*
D03*
X57409Y-2957D02*
D03*
X56959Y-3857D02*
D03*
X57409Y-4757D02*
D03*
X56959Y-5657D02*
D03*
X57409Y-6557D02*
D03*
X56959Y-7457D02*
D03*
X57409Y-8357D02*
D03*
X56959Y-9257D02*
D03*
X57409Y-10157D02*
D03*
X56959Y-11057D02*
D03*
X57409Y-11957D02*
D03*
X56959Y-12857D02*
D03*
X57409Y-13757D02*
D03*
X56059Y14143D02*
D03*
X56509Y13243D02*
D03*
X56059Y12343D02*
D03*
X56509Y11443D02*
D03*
X56059Y10543D02*
D03*
X56509Y9643D02*
D03*
X56059Y8743D02*
D03*
X56509Y7843D02*
D03*
X56059Y6943D02*
D03*
X56509Y6043D02*
D03*
X56059Y5143D02*
D03*
X56509Y4243D02*
D03*
X56059Y3343D02*
D03*
X56509Y2443D02*
D03*
Y-2957D02*
D03*
X56059Y-3857D02*
D03*
X56509Y-4757D02*
D03*
X56059Y-5657D02*
D03*
X56509Y-6557D02*
D03*
X56059Y-7457D02*
D03*
X56509Y-8357D02*
D03*
X56059Y-9257D02*
D03*
X56509Y-10157D02*
D03*
X56059Y-11057D02*
D03*
X56509Y-11957D02*
D03*
X56059Y-12857D02*
D03*
X56509Y-13757D02*
D03*
X56059Y-14657D02*
D03*
X56509Y-15557D02*
D03*
X55609Y15043D02*
D03*
Y13243D02*
D03*
X55159Y12343D02*
D03*
X55609Y11443D02*
D03*
X55159Y10543D02*
D03*
X55609Y9643D02*
D03*
X55159Y8743D02*
D03*
X55609Y7843D02*
D03*
X55159Y6943D02*
D03*
X55609Y6043D02*
D03*
X55159Y5143D02*
D03*
X55609Y4243D02*
D03*
X55159Y3343D02*
D03*
X55609Y2443D02*
D03*
Y-2957D02*
D03*
X55159Y-3857D02*
D03*
X55609Y-4757D02*
D03*
X55159Y-5657D02*
D03*
X55609Y-6557D02*
D03*
X55159Y-7457D02*
D03*
X55609Y-8357D02*
D03*
X55159Y-9257D02*
D03*
X55609Y-10157D02*
D03*
X55159Y-11057D02*
D03*
X55609Y-11957D02*
D03*
Y-13757D02*
D03*
Y-15557D02*
D03*
X54259Y12343D02*
D03*
X54709Y11443D02*
D03*
X54259Y10543D02*
D03*
X54709Y9643D02*
D03*
X54259Y8743D02*
D03*
X54709Y7843D02*
D03*
X54259Y6943D02*
D03*
X54709Y6043D02*
D03*
X54259Y5143D02*
D03*
X54709Y4243D02*
D03*
X54259Y3343D02*
D03*
X54709Y2443D02*
D03*
Y-2957D02*
D03*
X54259Y-3857D02*
D03*
X54709Y-4757D02*
D03*
X54259Y-5657D02*
D03*
X54709Y-6557D02*
D03*
X54259Y-7457D02*
D03*
X54709Y-8357D02*
D03*
X54259Y-9257D02*
D03*
X54709Y-10157D02*
D03*
X54259Y-11057D02*
D03*
X54709Y-11957D02*
D03*
Y-15557D02*
D03*
X53359Y12343D02*
D03*
X53809Y11443D02*
D03*
X53359Y10543D02*
D03*
X53809Y9643D02*
D03*
X53359Y8743D02*
D03*
X53809Y7843D02*
D03*
X53359Y6943D02*
D03*
X53809Y6043D02*
D03*
X53359Y5143D02*
D03*
X53809Y4243D02*
D03*
X53359Y3343D02*
D03*
X53809Y2443D02*
D03*
Y-2957D02*
D03*
X53359Y-3857D02*
D03*
X53809Y-4757D02*
D03*
X53359Y-5657D02*
D03*
X53809Y-6557D02*
D03*
X53359Y-7457D02*
D03*
X53809Y-8357D02*
D03*
X53359Y-11057D02*
D03*
X53809Y-11957D02*
D03*
Y-15557D02*
D03*
X52909Y15043D02*
D03*
X52459Y12343D02*
D03*
X52909Y11443D02*
D03*
Y9643D02*
D03*
X52459Y8743D02*
D03*
X52909Y7843D02*
D03*
X52459Y6943D02*
D03*
X52909Y6043D02*
D03*
X52459Y5143D02*
D03*
X52909Y4243D02*
D03*
X52459Y3343D02*
D03*
X52909Y2443D02*
D03*
Y-2957D02*
D03*
X52459Y-3857D02*
D03*
X52909Y-4757D02*
D03*
X52459Y-5657D02*
D03*
X52909Y-6557D02*
D03*
X52459Y-7457D02*
D03*
X52909Y-8357D02*
D03*
X52459Y-9257D02*
D03*
Y-11057D02*
D03*
X52909Y-11957D02*
D03*
X52459Y-12857D02*
D03*
X52909Y-15557D02*
D03*
X51559Y12343D02*
D03*
X52009Y11443D02*
D03*
X51559Y10543D02*
D03*
X52009Y9643D02*
D03*
X51559Y8743D02*
D03*
X52009Y7843D02*
D03*
X51559Y6943D02*
D03*
X52009Y6043D02*
D03*
X51559Y5143D02*
D03*
X52009Y4243D02*
D03*
X51559Y3343D02*
D03*
X52009Y2443D02*
D03*
Y-2957D02*
D03*
X51559Y-3857D02*
D03*
X52009Y-4757D02*
D03*
X51559Y-5657D02*
D03*
X52009Y-6557D02*
D03*
X51559Y-7457D02*
D03*
X52009Y-8357D02*
D03*
X51559Y-11057D02*
D03*
X52009Y-15557D02*
D03*
X51109Y11443D02*
D03*
Y9643D02*
D03*
X50659Y8743D02*
D03*
X51109Y7843D02*
D03*
X50659Y6943D02*
D03*
X51109Y6043D02*
D03*
X50659Y5143D02*
D03*
X51109Y4243D02*
D03*
X50659Y3343D02*
D03*
X51109Y2443D02*
D03*
Y-2957D02*
D03*
X50659Y-3857D02*
D03*
X51109Y-4757D02*
D03*
X50659Y-5657D02*
D03*
X51109Y-6557D02*
D03*
X50659Y-7457D02*
D03*
X51109Y-8357D02*
D03*
X50659Y-9257D02*
D03*
Y-12857D02*
D03*
X51109Y-15557D02*
D03*
X50209Y9643D02*
D03*
X49759Y8743D02*
D03*
X50209Y7843D02*
D03*
X49759Y6943D02*
D03*
X50209Y6043D02*
D03*
X49759Y5143D02*
D03*
X50209Y4243D02*
D03*
X49759Y3343D02*
D03*
X50209Y2443D02*
D03*
Y-2957D02*
D03*
X49759Y-3857D02*
D03*
X50209Y-4757D02*
D03*
X49759Y-5657D02*
D03*
X50209Y-6557D02*
D03*
X49759Y-7457D02*
D03*
X50209Y-8357D02*
D03*
X49759Y-9257D02*
D03*
X48859Y12343D02*
D03*
X49309Y9643D02*
D03*
X48859Y8743D02*
D03*
X49309Y7843D02*
D03*
X48859Y6943D02*
D03*
X49309Y6043D02*
D03*
X48859Y5143D02*
D03*
X49309Y4243D02*
D03*
X48859Y3343D02*
D03*
X49309Y-4757D02*
D03*
Y-6557D02*
D03*
X48859Y-7457D02*
D03*
X49309Y-8357D02*
D03*
X48859Y-9257D02*
D03*
X48409Y9643D02*
D03*
X47959Y8743D02*
D03*
X48409Y7843D02*
D03*
X47959Y6943D02*
D03*
X48409Y6043D02*
D03*
X47959Y5143D02*
D03*
X48409Y4243D02*
D03*
X47959Y3343D02*
D03*
X48409Y-6557D02*
D03*
X47959Y-7457D02*
D03*
X48409Y-8357D02*
D03*
X47959Y-9257D02*
D03*
X47509Y15043D02*
D03*
Y9643D02*
D03*
X47059Y8743D02*
D03*
X47509Y-2957D02*
D03*
Y-8357D02*
D03*
X47059Y-9257D02*
D03*
X46159Y12343D02*
D03*
X46609Y9643D02*
D03*
Y-15557D02*
D03*
X45259Y12343D02*
D03*
X45709Y9643D02*
D03*
X45259Y5143D02*
D03*
X45709Y4243D02*
D03*
X45259Y3343D02*
D03*
Y-7457D02*
D03*
Y-9257D02*
D03*
X45709Y-15557D02*
D03*
X44359Y12343D02*
D03*
X44809Y9643D02*
D03*
X44359Y5143D02*
D03*
X44809Y4243D02*
D03*
X44359Y3343D02*
D03*
X44809Y-8357D02*
D03*
X44359Y-9257D02*
D03*
X43459Y12343D02*
D03*
X43909Y9643D02*
D03*
X43459Y6943D02*
D03*
X43909Y6043D02*
D03*
X43459Y5143D02*
D03*
X43909Y4243D02*
D03*
X43459Y3343D02*
D03*
X43909Y-4757D02*
D03*
X43459Y-5657D02*
D03*
X43909Y-8357D02*
D03*
X43459Y-9257D02*
D03*
X43009Y9643D02*
D03*
X42559Y6943D02*
D03*
X43009Y6043D02*
D03*
X42559Y5143D02*
D03*
X43009Y4243D02*
D03*
X42559Y3343D02*
D03*
X43009Y-4757D02*
D03*
X42559Y-5657D02*
D03*
X43009Y-6557D02*
D03*
Y-8357D02*
D03*
X42559Y-9257D02*
D03*
X42109Y9643D02*
D03*
X41659Y6943D02*
D03*
X42109Y6043D02*
D03*
X41659Y5143D02*
D03*
X42109Y4243D02*
D03*
X41659Y3343D02*
D03*
X42109Y-4757D02*
D03*
X41659Y-5657D02*
D03*
X42109Y-6557D02*
D03*
Y-8357D02*
D03*
X41659Y-9257D02*
D03*
X41209Y9643D02*
D03*
X40759Y6943D02*
D03*
X41209Y6043D02*
D03*
X40759Y5143D02*
D03*
X41209Y4243D02*
D03*
X40759Y3343D02*
D03*
X41209Y-4757D02*
D03*
Y-8357D02*
D03*
X40759Y-9257D02*
D03*
X40309Y9643D02*
D03*
X39859Y6943D02*
D03*
X40309Y6043D02*
D03*
X39859Y5143D02*
D03*
X40309Y4243D02*
D03*
X39859Y3343D02*
D03*
X40309Y-4757D02*
D03*
Y-8357D02*
D03*
X39859Y-9257D02*
D03*
X39409Y9643D02*
D03*
Y6043D02*
D03*
X38959Y5143D02*
D03*
X39409Y4243D02*
D03*
Y-4757D02*
D03*
Y-8357D02*
D03*
X38959Y-9257D02*
D03*
X38509Y9643D02*
D03*
X38059Y6943D02*
D03*
X38509Y4243D02*
D03*
Y-4757D02*
D03*
Y-8357D02*
D03*
X38059Y-9257D02*
D03*
X37609Y15043D02*
D03*
Y9643D02*
D03*
X37159Y5143D02*
D03*
X37609Y-4757D02*
D03*
Y-8357D02*
D03*
X37159Y-9257D02*
D03*
X36709Y9643D02*
D03*
Y-4757D02*
D03*
Y-8357D02*
D03*
X36259Y-9257D02*
D03*
X35809Y9643D02*
D03*
X35359Y5143D02*
D03*
X35809Y-4757D02*
D03*
X35359Y-9257D02*
D03*
X34909Y15043D02*
D03*
X34009Y9643D02*
D03*
X28609Y-15557D02*
D03*
X24559Y12343D02*
D03*
X21409Y9643D02*
D03*
X20059Y8743D02*
D03*
Y-12857D02*
D03*
X19609Y9643D02*
D03*
Y7843D02*
D03*
X18708Y9643D02*
D03*
X18259Y8743D02*
D03*
X18708Y7843D02*
D03*
X17809Y9643D02*
D03*
X17358Y8743D02*
D03*
X17809Y6043D02*
D03*
X17358Y5143D02*
D03*
Y3343D02*
D03*
Y1543D02*
D03*
X16909Y9643D02*
D03*
Y7843D02*
D03*
X16458Y6943D02*
D03*
Y5143D02*
D03*
X16909Y2443D02*
D03*
X16458Y1543D02*
D03*
X16008Y9643D02*
D03*
X15559Y8743D02*
D03*
X16008Y7843D02*
D03*
Y4243D02*
D03*
X15559Y3343D02*
D03*
X14658Y8743D02*
D03*
X15108Y6043D02*
D03*
Y4243D02*
D03*
X14658Y3343D02*
D03*
Y-3857D02*
D03*
Y-5657D02*
D03*
Y-7457D02*
D03*
Y-12857D02*
D03*
X13759Y8743D02*
D03*
X14208Y7843D02*
D03*
X13759Y6943D02*
D03*
X14208Y6043D02*
D03*
Y4243D02*
D03*
X13759Y3343D02*
D03*
Y-257D02*
D03*
X14208Y-4757D02*
D03*
X13759Y-5657D02*
D03*
X14208Y-6557D02*
D03*
X13759Y-7457D02*
D03*
X13309Y7843D02*
D03*
Y6043D02*
D03*
X12858Y5143D02*
D03*
Y1543D02*
D03*
X13309Y643D02*
D03*
X12858Y-257D02*
D03*
X13309Y-1157D02*
D03*
X12858Y-2057D02*
D03*
X13309Y-4757D02*
D03*
Y-6557D02*
D03*
X12408Y15043D02*
D03*
Y4243D02*
D03*
Y643D02*
D03*
Y-1157D02*
D03*
Y-2957D02*
D03*
Y-4757D02*
D03*
Y-6557D02*
D03*
X10158Y-11057D02*
D03*
X9708Y15043D02*
D03*
X9259Y-9257D02*
D03*
Y-11057D02*
D03*
X9708Y-11957D02*
D03*
X9259Y-12857D02*
D03*
X8358Y5143D02*
D03*
Y3343D02*
D03*
X8809Y2443D02*
D03*
X8358Y1543D02*
D03*
X8809Y643D02*
D03*
X8358Y-257D02*
D03*
X8809Y-1157D02*
D03*
X8358Y-2057D02*
D03*
X8809Y-2957D02*
D03*
X8358Y-3857D02*
D03*
X8809Y-8357D02*
D03*
X8358Y-9257D02*
D03*
Y-11057D02*
D03*
X8809Y-11957D02*
D03*
X7458Y8743D02*
D03*
Y5143D02*
D03*
X7909Y4243D02*
D03*
X7458Y3343D02*
D03*
X7909Y2443D02*
D03*
X7458Y1543D02*
D03*
X7909Y643D02*
D03*
X7458Y-257D02*
D03*
X7909Y-1157D02*
D03*
X7458Y-2057D02*
D03*
X7909Y-2957D02*
D03*
X7458Y-3857D02*
D03*
Y-5657D02*
D03*
X7909Y-8357D02*
D03*
X7458Y-9257D02*
D03*
Y-11057D02*
D03*
X7909Y-11957D02*
D03*
X7458Y-12857D02*
D03*
X6558Y12343D02*
D03*
Y10543D02*
D03*
Y8743D02*
D03*
X7008Y7843D02*
D03*
X6558Y5143D02*
D03*
X7008Y4243D02*
D03*
X6558Y3343D02*
D03*
X7008Y2443D02*
D03*
X6558Y1543D02*
D03*
X7008Y643D02*
D03*
X6558Y-257D02*
D03*
X7008Y-1157D02*
D03*
X6558Y-2057D02*
D03*
X7008Y-2957D02*
D03*
X6558Y-3857D02*
D03*
X7008Y-6557D02*
D03*
Y-8357D02*
D03*
X6558Y-9257D02*
D03*
X7008Y-11957D02*
D03*
X5659Y12343D02*
D03*
X6108Y11443D02*
D03*
Y6043D02*
D03*
X5659Y5143D02*
D03*
X6108Y4243D02*
D03*
X5659Y3343D02*
D03*
X6108Y2443D02*
D03*
X5659Y1543D02*
D03*
X6108Y643D02*
D03*
X5659Y-257D02*
D03*
X6108Y-1157D02*
D03*
X5659Y-2057D02*
D03*
X6108Y-2957D02*
D03*
X5659Y-3857D02*
D03*
Y-5657D02*
D03*
X6108Y-11957D02*
D03*
Y-15557D02*
D03*
X4758Y5143D02*
D03*
X5208Y4243D02*
D03*
X4758Y3343D02*
D03*
X5208Y2443D02*
D03*
X4758Y1543D02*
D03*
X5208Y643D02*
D03*
X4758Y-257D02*
D03*
X5208Y-1157D02*
D03*
X4758Y-2057D02*
D03*
X5208Y-2957D02*
D03*
X4758Y-3857D02*
D03*
X5208Y-4757D02*
D03*
X4758Y-5657D02*
D03*
X5208Y-11957D02*
D03*
X4758Y-12857D02*
D03*
X5208Y-15557D02*
D03*
X4308Y15043D02*
D03*
X3858Y14143D02*
D03*
X4308Y13243D02*
D03*
X3858Y12343D02*
D03*
X4308Y11443D02*
D03*
X3858Y5143D02*
D03*
X4308Y4243D02*
D03*
X3858Y3343D02*
D03*
X4308Y2443D02*
D03*
X3858Y1543D02*
D03*
X4308Y643D02*
D03*
X3858Y-257D02*
D03*
X4308Y-1157D02*
D03*
X3858Y-2057D02*
D03*
X4308Y-2957D02*
D03*
X3858Y-3857D02*
D03*
X4308Y-4757D02*
D03*
X3858Y-5657D02*
D03*
Y-11057D02*
D03*
X4308Y-11957D02*
D03*
X3858Y-12857D02*
D03*
Y-14657D02*
D03*
X4308Y-15557D02*
D03*
X3408Y15043D02*
D03*
Y13243D02*
D03*
X2958Y12343D02*
D03*
X3408Y11443D02*
D03*
X2958Y10543D02*
D03*
X3408Y9643D02*
D03*
X2958Y8743D02*
D03*
X3408Y7843D02*
D03*
X2958Y6943D02*
D03*
X3408Y6043D02*
D03*
X2958Y5143D02*
D03*
X3408Y4243D02*
D03*
X2958Y3343D02*
D03*
X3408Y2443D02*
D03*
X2958Y1543D02*
D03*
X3408Y643D02*
D03*
X2958Y-257D02*
D03*
X3408Y-1157D02*
D03*
X2958Y-2057D02*
D03*
X3408Y-2957D02*
D03*
X2958Y-3857D02*
D03*
X3408Y-4757D02*
D03*
X2958Y-5657D02*
D03*
X3408Y-6557D02*
D03*
X2958Y-7457D02*
D03*
X3408Y-8357D02*
D03*
X2958Y-9257D02*
D03*
X3408Y-10157D02*
D03*
X2958Y-11057D02*
D03*
X3408Y-11957D02*
D03*
X2958Y-12857D02*
D03*
Y-14657D02*
D03*
X3408Y-15557D02*
D03*
X2508Y13243D02*
D03*
X2058Y12343D02*
D03*
X2508Y11443D02*
D03*
X2058Y10543D02*
D03*
X2508Y9643D02*
D03*
X2058Y8743D02*
D03*
X2508Y7843D02*
D03*
X2058Y6943D02*
D03*
X2508Y6043D02*
D03*
X2058Y5143D02*
D03*
X2508Y4243D02*
D03*
X2058Y3343D02*
D03*
X2508Y2443D02*
D03*
X2058Y1543D02*
D03*
X2508Y643D02*
D03*
X2058Y-257D02*
D03*
X2508Y-1157D02*
D03*
X2058Y-2057D02*
D03*
X2508Y-2957D02*
D03*
X2058Y-3857D02*
D03*
X2508Y-4757D02*
D03*
X2058Y-5657D02*
D03*
X2508Y-6557D02*
D03*
X2058Y-7457D02*
D03*
X2508Y-8357D02*
D03*
X2058Y-9257D02*
D03*
X2508Y-10157D02*
D03*
X2058Y-11057D02*
D03*
X2508Y-11957D02*
D03*
X2058Y-12857D02*
D03*
X2508Y-13757D02*
D03*
X2058Y-14657D02*
D03*
X2508Y-15557D02*
D03*
X1608Y13243D02*
D03*
Y11443D02*
D03*
Y9643D02*
D03*
Y7843D02*
D03*
Y6043D02*
D03*
Y4243D02*
D03*
Y2443D02*
D03*
Y643D02*
D03*
Y-1157D02*
D03*
Y-2957D02*
D03*
Y-4757D02*
D03*
Y-6557D02*
D03*
Y-8357D02*
D03*
Y-10157D02*
D03*
Y-11957D02*
D03*
Y-13757D02*
D03*
Y-15557D02*
D03*
X36347Y-2251D02*
D03*
X36327Y1896D02*
D03*
X36395Y2893D02*
D03*
X46062Y-1175D02*
D03*
X48581Y904D02*
D03*
X48878Y-717D02*
D03*
X49413Y-1066D02*
D03*
X50156D02*
D03*
X47428Y-1000D02*
D03*
X47244Y-1632D02*
D03*
X50630Y-1462D02*
D03*
X53129Y-1066D02*
D03*
X52386D02*
D03*
X54615D02*
D03*
X53872D02*
D03*
X56101D02*
D03*
X55358D02*
D03*
X61263Y-1405D02*
D03*
X62006D02*
D03*
X59777D02*
D03*
X60520D02*
D03*
X58291D02*
D03*
X59034D02*
D03*
X56744Y-1066D02*
D03*
X51890Y-1462D02*
D03*
X59030Y1456D02*
D03*
X58287D02*
D03*
X60516D02*
D03*
X59773D02*
D03*
X62002D02*
D03*
X61259D02*
D03*
X57708Y1139D02*
D03*
X56322D02*
D03*
X57065D02*
D03*
X54836D02*
D03*
X55579D02*
D03*
X53349D02*
D03*
X54093D02*
D03*
X51963D02*
D03*
X52706D02*
D03*
X50477D02*
D03*
X51220D02*
D03*
X49734D02*
D03*
X49042Y1224D02*
D03*
X43119Y1116D02*
D03*
X42376D02*
D03*
X44506D02*
D03*
X43762D02*
D03*
X45992D02*
D03*
X45249D02*
D03*
X46735D02*
D03*
X45425Y-1047D02*
D03*
X43938D02*
D03*
X44681D02*
D03*
X42452D02*
D03*
X43195D02*
D03*
X41066D02*
D03*
X41809D02*
D03*
X39580D02*
D03*
X40323D02*
D03*
X38836D02*
D03*
X36155Y-751D02*
D03*
X38093Y-1047D02*
D03*
X35374Y-751D02*
D03*
X39711Y2400D02*
D03*
X38225D02*
D03*
X38968D02*
D03*
X37482D02*
D03*
X36947Y1114D02*
D03*
Y1857D02*
D03*
X36265Y1161D02*
D03*
X37626Y-1439D02*
D03*
X36365D02*
D03*
X36969Y-1648D02*
D03*
X51220Y-1610D02*
D03*
X37837Y-2466D02*
D03*
X38580D02*
D03*
X40066D02*
D03*
X39323D02*
D03*
X41552D02*
D03*
X40809D02*
D03*
X42939D02*
D03*
X42195D02*
D03*
X44425D02*
D03*
X43682D02*
D03*
X37812Y-3575D02*
D03*
X38555D02*
D03*
X40041D02*
D03*
X39298D02*
D03*
X41527D02*
D03*
X40784D02*
D03*
X42913D02*
D03*
X42170D02*
D03*
X43657D02*
D03*
X45132Y-3446D02*
D03*
X44400Y-3575D02*
D03*
X45805Y-3132D02*
D03*
X46374Y-2654D02*
D03*
X46900Y-2129D02*
D03*
X45668Y-1674D02*
D03*
X45098Y-2152D02*
D03*
X36539Y-3979D02*
D03*
X37282D02*
D03*
X35053D02*
D03*
X35796D02*
D03*
X34309D02*
D03*
X35604Y-2251D02*
D03*
X44877Y1648D02*
D03*
X45621D02*
D03*
X43391D02*
D03*
X44134D02*
D03*
X42748D02*
D03*
X37882Y2893D02*
D03*
X37138D02*
D03*
X39368D02*
D03*
X38625D02*
D03*
X36739Y2400D02*
D03*
X46364Y1648D02*
D03*
X46048Y2152D02*
D03*
X40946D02*
D03*
X40203D02*
D03*
X42433D02*
D03*
X41690D02*
D03*
X43819D02*
D03*
X43076D02*
D03*
X45305D02*
D03*
X44562D02*
D03*
X44759Y-4069D02*
D03*
X44016D02*
D03*
X42529D02*
D03*
X43272D02*
D03*
X41143D02*
D03*
X41886D02*
D03*
X39657D02*
D03*
X40400D02*
D03*
X38914D02*
D03*
X38171D02*
D03*
X46849Y-3208D02*
D03*
X44326Y-1734D02*
D03*
X42840D02*
D03*
X43583D02*
D03*
X41453D02*
D03*
X42196D02*
D03*
X39967D02*
D03*
X40710D02*
D03*
X39224D02*
D03*
X38481D02*
D03*
X45018Y-1520D02*
D03*
X57411Y1695D02*
D03*
X55925D02*
D03*
X56668D02*
D03*
X54439D02*
D03*
X55182D02*
D03*
X53052D02*
D03*
X53795D02*
D03*
X51566D02*
D03*
X52309D02*
D03*
X50823D02*
D03*
X50080D02*
D03*
X49337D02*
D03*
X52774Y-1646D02*
D03*
X53517D02*
D03*
X55003D02*
D03*
X54260D02*
D03*
X56490D02*
D03*
X55746D02*
D03*
X49800Y-1574D02*
D03*
X57803Y-1727D02*
D03*
X57160D02*
D03*
X53164Y-2240D02*
D03*
X54650D02*
D03*
X53907Y-2240D02*
D03*
X55393Y-2240D02*
D03*
X56136D02*
D03*
X57623Y-2240D02*
D03*
X56879D02*
D03*
X52421Y-2240D02*
D03*
X51678Y-2240D02*
D03*
X50934D02*
D03*
X49448Y-2240D02*
D03*
X50191Y-2240D02*
D03*
X40147Y1116D02*
D03*
X40890D02*
D03*
X42005Y1648D02*
D03*
X40519D02*
D03*
X41262D02*
D03*
X41633Y1116D02*
D03*
X28484Y-8637D02*
D03*
X28590Y-8053D02*
D03*
X52202Y10719D02*
D03*
X49382Y10956D02*
D03*
X50005D02*
D03*
X50628D02*
D03*
X53417Y-9880D02*
D03*
X52794D02*
D03*
X52171D02*
D03*
X51548D02*
D03*
X50925D02*
D03*
X50302D02*
D03*
X48432D02*
D03*
X49055D02*
D03*
X49678D02*
D03*
X28811Y5677D02*
D03*
X27979Y5686D02*
D03*
D84*
X26048Y-4408D02*
D03*
X35382Y3882D02*
D03*
X61899Y2819D02*
D03*
X61929Y-2845D02*
D03*
X45402Y-6230D02*
D03*
X61105Y2833D02*
D03*
X58537Y2857D02*
D03*
X60246Y2857D02*
D03*
X59392Y2857D02*
D03*
X61112Y-2827D02*
D03*
X58543Y-2803D02*
D03*
X60253Y-2803D02*
D03*
X59398Y-2803D02*
D03*
X707Y-16381D02*
D03*
X1562D02*
D03*
X2417D02*
D03*
X4126D02*
D03*
X5836D02*
D03*
X4981D02*
D03*
X3272D02*
D03*
X732Y-13764D02*
D03*
X732Y-12054D02*
D03*
X732Y-11200D02*
D03*
X732Y-12909D02*
D03*
Y-14619D02*
D03*
Y-15474D02*
D03*
X756Y-10341D02*
D03*
Y-9486D02*
D03*
Y-7776D02*
D03*
X756Y-6067D02*
D03*
X756Y-6921D02*
D03*
X756Y-8631D02*
D03*
X805Y1635D02*
D03*
X805Y3345D02*
D03*
X805Y4199D02*
D03*
X805Y2490D02*
D03*
Y780D02*
D03*
Y-75D02*
D03*
X780Y-5208D02*
D03*
Y-4353D02*
D03*
Y-2643D02*
D03*
X780Y-934D02*
D03*
X780Y-1788D02*
D03*
X780Y-3498D02*
D03*
X853Y11901D02*
D03*
X853Y13610D02*
D03*
X853Y14465D02*
D03*
X853Y12756D02*
D03*
Y11046D02*
D03*
Y10191D02*
D03*
X829Y5058D02*
D03*
Y5913D02*
D03*
Y7623D02*
D03*
X829Y9332D02*
D03*
X829Y8478D02*
D03*
X829Y6768D02*
D03*
X853Y15320D02*
D03*
X18670Y-16381D02*
D03*
X20380D02*
D03*
X21235D02*
D03*
X19525D02*
D03*
X17816D02*
D03*
X16961D02*
D03*
X22094D02*
D03*
X22949D02*
D03*
X24658D02*
D03*
X26368D02*
D03*
X25513D02*
D03*
X23803D02*
D03*
X13537D02*
D03*
X15247D02*
D03*
X16102D02*
D03*
X14392D02*
D03*
X12683D02*
D03*
X11828D02*
D03*
X6695D02*
D03*
X7550D02*
D03*
X9259D02*
D03*
X10969D02*
D03*
X10114D02*
D03*
X8405D02*
D03*
X39202D02*
D03*
X40912D02*
D03*
X41767D02*
D03*
X40057D02*
D03*
X38347D02*
D03*
X37493D02*
D03*
X42626D02*
D03*
X43480D02*
D03*
X45190D02*
D03*
X46900D02*
D03*
X46045D02*
D03*
X44335D02*
D03*
X34069D02*
D03*
X35779D02*
D03*
X36634D02*
D03*
X34924D02*
D03*
X33215D02*
D03*
X32360D02*
D03*
X27227D02*
D03*
X28082D02*
D03*
X29791D02*
D03*
X31501D02*
D03*
X30646D02*
D03*
X28936D02*
D03*
X59734D02*
D03*
X61444D02*
D03*
X60589D02*
D03*
X58879D02*
D03*
X58025D02*
D03*
X54601D02*
D03*
X56311D02*
D03*
X57166D02*
D03*
X55456D02*
D03*
X53746D02*
D03*
X52892D02*
D03*
X47759D02*
D03*
X48613D02*
D03*
X50323D02*
D03*
X52033D02*
D03*
X51178D02*
D03*
X49468D02*
D03*
X61878Y-3919D02*
D03*
X61878Y-5629D02*
D03*
X61878Y-6483D02*
D03*
X61878Y-4774D02*
D03*
X61935Y-7346D02*
D03*
X61935Y-8201D02*
D03*
X61935Y-9911D02*
D03*
X61935Y-11620D02*
D03*
X61935Y-10766D02*
D03*
X61935Y-9056D02*
D03*
X61911Y-12479D02*
D03*
X61911Y-13334D02*
D03*
X61911Y-15044D02*
D03*
X61911Y-15899D02*
D03*
X61911Y-14189D02*
D03*
X61931Y14690D02*
D03*
Y15544D02*
D03*
Y13835D02*
D03*
Y12980D02*
D03*
Y9557D02*
D03*
Y11266D02*
D03*
Y12121D02*
D03*
Y10412D02*
D03*
Y8702D02*
D03*
Y7847D02*
D03*
Y5279D02*
D03*
Y6988D02*
D03*
Y6133D02*
D03*
Y4424D02*
D03*
X13184Y16401D02*
D03*
X11474Y16401D02*
D03*
X10619Y16401D02*
D03*
X12329Y16401D02*
D03*
X14039Y16401D02*
D03*
X14893Y16401D02*
D03*
X9760Y16401D02*
D03*
X8906D02*
D03*
X7196Y16401D02*
D03*
X5486D02*
D03*
X6341Y16401D02*
D03*
X8051D02*
D03*
X4627Y16401D02*
D03*
X3773Y16401D02*
D03*
X2063D02*
D03*
X2918D02*
D03*
X33716Y16401D02*
D03*
X32006D02*
D03*
X31151Y16401D02*
D03*
X32861Y16401D02*
D03*
X34570Y16401D02*
D03*
X35425Y16401D02*
D03*
X30292Y16401D02*
D03*
X29437Y16401D02*
D03*
X27728Y16401D02*
D03*
X26018Y16401D02*
D03*
X26873Y16401D02*
D03*
X28583Y16401D02*
D03*
X18317Y16401D02*
D03*
X16607D02*
D03*
X15752D02*
D03*
X17462D02*
D03*
X19171Y16401D02*
D03*
X20026Y16401D02*
D03*
X25159Y16401D02*
D03*
X24304Y16401D02*
D03*
X22595Y16401D02*
D03*
X20885Y16401D02*
D03*
X21740Y16401D02*
D03*
X23450D02*
D03*
X54247Y16401D02*
D03*
X52538Y16401D02*
D03*
X51683Y16401D02*
D03*
X53393Y16401D02*
D03*
X55102Y16401D02*
D03*
X55957Y16401D02*
D03*
X50824D02*
D03*
X49969Y16401D02*
D03*
X48260Y16401D02*
D03*
X46550D02*
D03*
X47405Y16401D02*
D03*
X49114Y16401D02*
D03*
X38849D02*
D03*
X37139D02*
D03*
X36284Y16401D02*
D03*
X37994Y16401D02*
D03*
X39703Y16401D02*
D03*
X40558Y16401D02*
D03*
X45691D02*
D03*
X44836Y16401D02*
D03*
X43127Y16401D02*
D03*
X41417Y16401D02*
D03*
X42272Y16401D02*
D03*
X43981D02*
D03*
X59380Y16401D02*
D03*
X57671Y16401D02*
D03*
X56816Y16401D02*
D03*
X58526Y16401D02*
D03*
X60235D02*
D03*
X61090D02*
D03*
X61931D02*
D03*
X1152Y16192D02*
D03*
X45367Y7835D02*
D03*
X57679Y3068D02*
D03*
X59094Y-14178D02*
D03*
X48584Y-12320D02*
D03*
Y-11432D02*
D03*
X22434Y-10286D02*
D03*
X7471Y5891D02*
D03*
X20015Y902D02*
D03*
X20040Y-228D02*
D03*
X19338Y2794D02*
D03*
X36632Y4135D02*
D03*
X36665Y7477D02*
D03*
X36743Y6011D02*
D03*
X35643Y6816D02*
D03*
X23086Y-5901D02*
D03*
X21649Y-2453D02*
D03*
X25981Y-500D02*
D03*
Y-3150D02*
D03*
X31134Y5439D02*
D03*
X32059D02*
D03*
X45405Y6448D02*
D03*
X21423Y5656D02*
D03*
X29956Y-500D02*
D03*
X28631D02*
D03*
X29956Y-1825D02*
D03*
X27306Y-1850D02*
D03*
X26893Y3747D02*
D03*
X26698Y8875D02*
D03*
X52017Y-11933D02*
D03*
X52588Y15731D02*
D03*
X51388D02*
D03*
X50188D02*
D03*
X48988D02*
D03*
X47788D02*
D03*
X46588D02*
D03*
X45388D02*
D03*
X56398Y15708D02*
D03*
X55198D02*
D03*
X53998D02*
D03*
X40263Y15731D02*
D03*
X39063D02*
D03*
X37863D02*
D03*
X36663D02*
D03*
X35463D02*
D03*
X34263D02*
D03*
X33063D02*
D03*
X44073Y15708D02*
D03*
X42873D02*
D03*
X41673D02*
D03*
X14273Y15691D02*
D03*
X15473D02*
D03*
X16673D02*
D03*
X17873D02*
D03*
X19073D02*
D03*
X6862Y15714D02*
D03*
X8062D02*
D03*
X9262D02*
D03*
X10462D02*
D03*
X11662D02*
D03*
X12862D02*
D03*
X27306Y-4475D02*
D03*
X28631Y-3150D02*
D03*
X28631Y-4475D02*
D03*
X27306Y-3175D02*
D03*
X25981Y-1825D02*
D03*
X8517Y6098D02*
D03*
X8699Y4215D02*
D03*
X7472Y9937D02*
D03*
X7454Y11828D02*
D03*
X14768Y9541D02*
D03*
X12597Y8176D02*
D03*
X12615Y6284D02*
D03*
X8130Y-6260D02*
D03*
X6570Y-5190D02*
D03*
X8131Y-4713D02*
D03*
X11636Y-10928D02*
D03*
X11635Y-12476D02*
D03*
X3657Y-13818D02*
D03*
X22103Y11158D02*
D03*
X20692Y9952D02*
D03*
X19232Y8749D02*
D03*
X13029Y-5875D02*
D03*
X13376Y-3878D02*
D03*
X13504Y4706D02*
D03*
X15277Y5018D02*
D03*
X12736Y3016D02*
D03*
X16602Y3693D02*
D03*
X15065Y7311D02*
D03*
X16390Y8661D02*
D03*
Y6011D02*
D03*
X17715Y7336D02*
D03*
X16644Y-5905D02*
D03*
X15866Y-5019D02*
D03*
X19209Y-5337D02*
D03*
X27770Y3705D02*
D03*
X19192Y-6285D02*
D03*
X33790Y6287D02*
D03*
X29956Y-3150D02*
D03*
X21940Y-4374D02*
D03*
X28631Y-1825D02*
D03*
X24998Y8187D02*
D03*
X27306Y-525D02*
D03*
X29956Y-4475D02*
D03*
X45398Y-4731D02*
D03*
D86*
X23086Y-7912D02*
Y-5901D01*
X23035Y-7964D02*
X23086Y-7912D01*
D87*
X21032Y-8061D02*
D03*
X22937Y-8061D02*
D03*
M02*
