G04*
G04 #@! TF.GenerationSoftware,Altium Limited,Altium Designer,20.2.6 (244)*
G04*
G04 Layer_Color=8388736*
%FSLAX43Y43*%
%MOMM*%
G71*
G04*
G04 #@! TF.SameCoordinates,C144CD18-1887-4FAA-AC2B-496F7D53F270*
G04*
G04*
G04 #@! TF.FilePolarity,Negative*
G04*
G01*
G75*
%ADD12C,0.300*%
%ADD21C,2.000*%
%ADD22C,1.500*%
G04:AMPARAMS|DCode=23|XSize=0.72mm|YSize=0.42mm|CornerRadius=0mm|HoleSize=0mm|Usage=FLASHONLY|Rotation=90.000|XOffset=0mm|YOffset=0mm|HoleType=Round|Shape=Octagon|*
%AMOCTAGOND23*
4,1,8,0.105,0.360,-0.105,0.360,-0.210,0.255,-0.210,-0.255,-0.105,-0.360,0.105,-0.360,0.210,-0.255,0.210,0.255,0.105,0.360,0.0*
%
%ADD23OCTAGOND23*%

G04:AMPARAMS|DCode=24|XSize=0.72mm|YSize=0.42mm|CornerRadius=0mm|HoleSize=0mm|Usage=FLASHONLY|Rotation=180.000|XOffset=0mm|YOffset=0mm|HoleType=Round|Shape=Octagon|*
%AMOCTAGOND24*
4,1,8,-0.360,0.105,-0.360,-0.105,-0.255,-0.210,0.255,-0.210,0.360,-0.105,0.360,0.105,0.255,0.210,-0.255,0.210,-0.360,0.105,0.0*
%
%ADD24OCTAGOND24*%

G04:AMPARAMS|DCode=25|XSize=5.76mm|YSize=5.76mm|CornerRadius=0.22mm|HoleSize=0mm|Usage=FLASHONLY|Rotation=180.000|XOffset=0mm|YOffset=0mm|HoleType=Round|Shape=RoundedRectangle|*
%AMROUNDEDRECTD25*
21,1,5.760,5.320,0,0,180.0*
21,1,5.320,5.760,0,0,180.0*
1,1,0.440,-2.660,2.660*
1,1,0.440,2.660,2.660*
1,1,0.440,2.660,-2.660*
1,1,0.440,-2.660,-2.660*
%
%ADD25ROUNDEDRECTD25*%
%ADD26R,0.750X0.375*%
%ADD27R,0.850X0.850*%
%ADD28R,0.700X0.850*%
%ADD29R,0.850X0.700*%
%ADD30R,0.875X1.150*%
%ADD31R,1.000X0.900*%
%ADD32R,1.400X1.150*%
%ADD33R,1.100X1.250*%
%ADD34R,0.750X0.750*%
%ADD35R,0.450X0.575*%
%ADD36R,3.700X1.370*%
%ADD37R,4.300X1.450*%
%ADD38R,0.750X0.750*%
%ADD39R,1.150X0.875*%
%ADD40C,3.000*%
%ADD41C,1.950*%
G04:AMPARAMS|DCode=42|XSize=1.95mm|YSize=1.95mm|CornerRadius=0.525mm|HoleSize=0mm|Usage=FLASHONLY|Rotation=180.000|XOffset=0mm|YOffset=0mm|HoleType=Round|Shape=RoundedRectangle|*
%AMROUNDEDRECTD42*
21,1,1.950,0.900,0,0,180.0*
21,1,0.900,1.950,0,0,180.0*
1,1,1.050,-0.450,0.450*
1,1,1.050,0.450,0.450*
1,1,1.050,0.450,-0.450*
1,1,1.050,-0.450,-0.450*
%
%ADD42ROUNDEDRECTD42*%
G04:AMPARAMS|DCode=43|XSize=1.95mm|YSize=1.95mm|CornerRadius=0.525mm|HoleSize=0mm|Usage=FLASHONLY|Rotation=270.000|XOffset=0mm|YOffset=0mm|HoleType=Round|Shape=RoundedRectangle|*
%AMROUNDEDRECTD43*
21,1,1.950,0.900,0,0,270.0*
21,1,0.900,1.950,0,0,270.0*
1,1,1.050,-0.450,-0.450*
1,1,1.050,-0.450,0.450*
1,1,1.050,0.450,0.450*
1,1,1.050,0.450,-0.450*
%
%ADD43ROUNDEDRECTD43*%
%ADD44C,0.100*%
%ADD45C,0.250*%
D12*
X-9Y17005D02*
X62391Y17098D01*
X-9Y17005D02*
X0Y-17000D01*
X62391Y17098D02*
X62401Y-16907D01*
X0Y-17000D02*
X62401Y-16907D01*
D21*
X51888Y11096D02*
X52852Y10132D01*
X12926Y10110D02*
X13890Y11074D01*
X12908Y-8547D02*
X13872Y-9511D01*
X52191Y-9531D02*
X52973Y-8415D01*
D22*
X12622Y-9862D02*
X12629Y11360D01*
X12622Y-9862D02*
X16451D01*
X16984Y11359D02*
X53229D01*
X12629Y11360D02*
X17197Y11359D01*
X53229Y1467D02*
Y11359D01*
X27292Y-9862D02*
X32663D01*
X35047Y-9856D02*
X39783Y-9858D01*
X43325Y-9858D02*
X44875D01*
X47304Y-9862D02*
X53228D01*
Y-9873D02*
Y-1478D01*
D23*
X25200Y919D02*
D03*
X25700D02*
D03*
X26200D02*
D03*
X26700D02*
D03*
X27200D02*
D03*
X27700D02*
D03*
X28200D02*
D03*
X28700D02*
D03*
X29200D02*
D03*
X29700D02*
D03*
X30200D02*
D03*
X30700D02*
D03*
X25193Y-5878D02*
D03*
X25700D02*
D03*
X26200D02*
D03*
X26700D02*
D03*
X27200D02*
D03*
X27700D02*
D03*
X28200D02*
D03*
X28700D02*
D03*
X29200D02*
D03*
X29700D02*
D03*
X30200D02*
D03*
X30700D02*
D03*
D24*
X24541Y-3731D02*
D03*
X31338Y-5231D02*
D03*
Y-4731D02*
D03*
Y-4231D02*
D03*
Y-3731D02*
D03*
Y-3231D02*
D03*
Y-2731D02*
D03*
Y-2231D02*
D03*
Y-1731D02*
D03*
Y-1231D02*
D03*
Y-731D02*
D03*
Y-231D02*
D03*
Y269D02*
D03*
X24541Y-5231D02*
D03*
Y-4731D02*
D03*
Y-4231D02*
D03*
Y-3231D02*
D03*
Y-2731D02*
D03*
Y-2231D02*
D03*
Y-1731D02*
D03*
Y-1231D02*
D03*
Y-731D02*
D03*
Y269D02*
D03*
Y-231D02*
D03*
D25*
X27940Y-2479D02*
D03*
D26*
X47800Y-300D02*
D03*
Y100D02*
D03*
Y500D02*
D03*
X47000Y-300D02*
D03*
Y100D02*
D03*
Y500D02*
D03*
D27*
X33698Y-225D02*
D03*
X57325Y-1025D02*
D03*
X51350D02*
D03*
D28*
X32715Y-225D02*
D03*
X36873Y-6349D02*
D03*
X37773Y-6349D02*
D03*
X46904Y6426D02*
D03*
X46004D02*
D03*
X25015Y8885D02*
D03*
X25915D02*
D03*
X46904Y7826D02*
D03*
X46004D02*
D03*
X47053Y-7348D02*
D03*
X46153D02*
D03*
X47053Y-4699D02*
D03*
X46153D02*
D03*
X47053Y-5999D02*
D03*
X46153D02*
D03*
X17043Y-1039D02*
D03*
X17943D02*
D03*
X17043Y362D02*
D03*
X17943D02*
D03*
D29*
X33698Y758D02*
D03*
X48303Y-4273D02*
D03*
X48303Y-5173D02*
D03*
X46900Y4226D02*
D03*
Y5126D02*
D03*
X28575Y7725D02*
D03*
Y6825D02*
D03*
X29725Y7725D02*
D03*
Y6825D02*
D03*
X32887Y5358D02*
D03*
X32887Y6258D02*
D03*
D30*
X40436Y-6381D02*
D03*
X39011Y-6365D02*
D03*
X50884Y-11918D02*
D03*
X49459D02*
D03*
D31*
X28800Y9800D02*
D03*
Y8750D02*
D03*
X30150Y9800D02*
D03*
Y8750D02*
D03*
D32*
X15368Y386D02*
D03*
X15368Y-1114D02*
D03*
D33*
X16624Y-5036D02*
D03*
X16624Y-3536D02*
D03*
D34*
X33475Y-2365D02*
D03*
Y-1305D02*
D03*
X57325Y25D02*
D03*
X35388Y1015D02*
D03*
Y2075D02*
D03*
X27625Y8800D02*
D03*
Y9750D02*
D03*
X51350Y25D02*
D03*
X37025Y-2211D02*
D03*
Y-3161D02*
D03*
X31375Y8800D02*
D03*
Y9750D02*
D03*
X45500Y-925D02*
D03*
Y25D02*
D03*
X40299Y-925D02*
D03*
Y25D02*
D03*
X37000D02*
D03*
Y-925D02*
D03*
X32423Y2925D02*
D03*
Y1975D02*
D03*
X33823Y2925D02*
D03*
Y1975D02*
D03*
X34413Y-8024D02*
D03*
Y-7074D02*
D03*
X21911Y-5357D02*
D03*
Y-6307D02*
D03*
X19749Y-2963D02*
D03*
Y-2013D02*
D03*
X23251Y1425D02*
D03*
Y475D02*
D03*
X31000Y-7615D02*
D03*
Y-8565D02*
D03*
X29600D02*
D03*
Y-7615D02*
D03*
D35*
X35563Y-7694D02*
D03*
X35563Y-7069D02*
D03*
D36*
X60470Y25D02*
D03*
D37*
X60270Y-2800D02*
D03*
Y2850D02*
D03*
D38*
X49142Y2031D02*
D03*
X48192D02*
D03*
X54995Y25D02*
D03*
X56055D02*
D03*
X35828Y19D02*
D03*
X34768D02*
D03*
X41277Y25D02*
D03*
X42337D02*
D03*
X38051Y20D02*
D03*
X39111D02*
D03*
X27075Y2700D02*
D03*
X28025D02*
D03*
X30900Y4100D02*
D03*
X31850D02*
D03*
X34625Y-1635D02*
D03*
X35575D02*
D03*
X49150Y25D02*
D03*
X50100D02*
D03*
X34850Y-3035D02*
D03*
X35800D02*
D03*
X46975Y2926D02*
D03*
X46025D02*
D03*
X44455Y25D02*
D03*
X43505D02*
D03*
X38106Y1345D02*
D03*
X39056D02*
D03*
X49322Y-2973D02*
D03*
X48372D02*
D03*
X14323Y-2589D02*
D03*
X15273D02*
D03*
Y1862D02*
D03*
X14323D02*
D03*
X28975Y4700D02*
D03*
X28025D02*
D03*
X20974Y-3241D02*
D03*
X21924D02*
D03*
X49376Y-1500D02*
D03*
X48426D02*
D03*
D39*
X20411Y-5422D02*
D03*
X20411Y-6847D02*
D03*
X18249Y-2426D02*
D03*
Y-3851D02*
D03*
X21400Y1888D02*
D03*
Y463D02*
D03*
D40*
X57800Y-14800D02*
D03*
X2200Y14800D02*
D03*
D41*
X5870Y14000D02*
D03*
X8410D02*
D03*
X10950D02*
D03*
X13490D02*
D03*
X16030D02*
D03*
X18570D02*
D03*
X21110D02*
D03*
X23650D02*
D03*
X26190D02*
D03*
X28730D02*
D03*
X31270D02*
D03*
X33810D02*
D03*
X36350D02*
D03*
X38890D02*
D03*
X41430D02*
D03*
X43970D02*
D03*
X46510D02*
D03*
X49050D02*
D03*
X51590D02*
D03*
X5000Y-9770D02*
D03*
Y7230D02*
D03*
X51590Y-14000D02*
D03*
X49050D02*
D03*
X46510D02*
D03*
X43970D02*
D03*
X41430D02*
D03*
X38890D02*
D03*
X36350D02*
D03*
X33810D02*
D03*
X31270D02*
D03*
X28730D02*
D03*
X26190D02*
D03*
X23650D02*
D03*
X21110D02*
D03*
X18570D02*
D03*
X16030D02*
D03*
X13490D02*
D03*
X10950D02*
D03*
X8410D02*
D03*
X5870D02*
D03*
D42*
X54130Y14000D02*
D03*
Y-14000D02*
D03*
D43*
X5000Y-7230D02*
D03*
Y9770D02*
D03*
D44*
X46273Y-563D02*
D03*
X39412Y10849D02*
D03*
X41904Y10854D02*
D03*
X38788Y10849D02*
D03*
X41281D02*
D03*
X38165D02*
D03*
X40658D02*
D03*
X37542D02*
D03*
X40035D02*
D03*
X43150Y10858D02*
D03*
X45643D02*
D03*
X45020D02*
D03*
X44397D02*
D03*
X42527D02*
D03*
X43773D02*
D03*
X46266D02*
D03*
X48135Y10859D02*
D03*
X46889D02*
D03*
X48759D02*
D03*
X47512D02*
D03*
X61009Y15043D02*
D03*
X60559Y14143D02*
D03*
X61009Y13243D02*
D03*
X60559Y12343D02*
D03*
X61009Y11443D02*
D03*
X60559Y10543D02*
D03*
X61009Y9643D02*
D03*
X60559Y8743D02*
D03*
X61009Y7843D02*
D03*
X60559Y6943D02*
D03*
X61009Y6043D02*
D03*
X60559Y5143D02*
D03*
X61009Y4243D02*
D03*
Y-4757D02*
D03*
X60559Y-5657D02*
D03*
X61009Y-6557D02*
D03*
X60559Y-7457D02*
D03*
X61009Y-8357D02*
D03*
X60559Y-9257D02*
D03*
X61009Y-10157D02*
D03*
X60559Y-11057D02*
D03*
X61009Y-11957D02*
D03*
X60559Y-12857D02*
D03*
X61009Y-13757D02*
D03*
X60559Y-14657D02*
D03*
X61009Y-15557D02*
D03*
X60109Y15043D02*
D03*
X59659Y14143D02*
D03*
X60109Y13243D02*
D03*
X59659Y12343D02*
D03*
X60109Y11443D02*
D03*
X59659Y10543D02*
D03*
X60109Y9643D02*
D03*
X59659Y8743D02*
D03*
X60109Y7843D02*
D03*
X59659Y6943D02*
D03*
X60109Y6043D02*
D03*
X59659Y5143D02*
D03*
X60109Y4243D02*
D03*
Y-4757D02*
D03*
X59659Y-5657D02*
D03*
X60109Y-6557D02*
D03*
X59659Y-7457D02*
D03*
X60109Y-8357D02*
D03*
X59659Y-9257D02*
D03*
X60109Y-10157D02*
D03*
X59659Y-11057D02*
D03*
X60109Y-11957D02*
D03*
X59659Y-12857D02*
D03*
X60109Y-13757D02*
D03*
X59659Y-14657D02*
D03*
X60109Y-15557D02*
D03*
X59209Y15043D02*
D03*
X58759Y14143D02*
D03*
X59209Y13243D02*
D03*
X58759Y12343D02*
D03*
X59209Y11443D02*
D03*
X58759Y10543D02*
D03*
X59209Y9643D02*
D03*
X58759Y8743D02*
D03*
X59209Y7843D02*
D03*
X58759Y6943D02*
D03*
X59209Y6043D02*
D03*
X58759Y5143D02*
D03*
X59209Y4243D02*
D03*
Y-4757D02*
D03*
X58759Y-5657D02*
D03*
X59209Y-6557D02*
D03*
X58759Y-7457D02*
D03*
X59209Y-8357D02*
D03*
X58759Y-9257D02*
D03*
X59209Y-10157D02*
D03*
X58759Y-11057D02*
D03*
X59209Y-11957D02*
D03*
X58759Y-12857D02*
D03*
X59209Y-15557D02*
D03*
X58309Y15043D02*
D03*
X57859Y14143D02*
D03*
X58309Y13243D02*
D03*
X57859Y12343D02*
D03*
X58309Y11443D02*
D03*
X57859Y10543D02*
D03*
X58309Y9643D02*
D03*
X57859Y8743D02*
D03*
X58309Y7843D02*
D03*
X57859Y6943D02*
D03*
X58309Y6043D02*
D03*
X57859Y5143D02*
D03*
X58309Y4243D02*
D03*
Y-4757D02*
D03*
X57859Y-5657D02*
D03*
X58309Y-6557D02*
D03*
X57859Y-7457D02*
D03*
X58309Y-8357D02*
D03*
X57859Y-9257D02*
D03*
X58309Y-10157D02*
D03*
X57859Y-11057D02*
D03*
X58309Y-11957D02*
D03*
X57859Y-12857D02*
D03*
X58309Y-13757D02*
D03*
X57409Y15043D02*
D03*
X56959Y14143D02*
D03*
X57409Y13243D02*
D03*
X56959Y12343D02*
D03*
X57409Y11443D02*
D03*
X56959Y10543D02*
D03*
X57409Y9643D02*
D03*
X56959Y8743D02*
D03*
X57409Y7843D02*
D03*
X56959Y6943D02*
D03*
X57409Y6043D02*
D03*
X56959Y5143D02*
D03*
X57409Y4243D02*
D03*
X56959Y3343D02*
D03*
X57409Y-2957D02*
D03*
X56959Y-3857D02*
D03*
X57409Y-4757D02*
D03*
X56959Y-5657D02*
D03*
X57409Y-6557D02*
D03*
X56959Y-7457D02*
D03*
X57409Y-8357D02*
D03*
X56959Y-9257D02*
D03*
X57409Y-10157D02*
D03*
X56959Y-11057D02*
D03*
X57409Y-11957D02*
D03*
X56959Y-12857D02*
D03*
X57409Y-13757D02*
D03*
X56059Y14143D02*
D03*
X56509Y13243D02*
D03*
X56059Y12343D02*
D03*
X56509Y11443D02*
D03*
X56059Y10543D02*
D03*
X56509Y9643D02*
D03*
X56059Y8743D02*
D03*
X56509Y7843D02*
D03*
X56059Y6943D02*
D03*
X56509Y6043D02*
D03*
X56059Y5143D02*
D03*
X56509Y4243D02*
D03*
X56059Y3343D02*
D03*
X56509Y2443D02*
D03*
Y-2957D02*
D03*
X56059Y-3857D02*
D03*
X56509Y-4757D02*
D03*
X56059Y-5657D02*
D03*
X56509Y-6557D02*
D03*
X56059Y-7457D02*
D03*
X56509Y-8357D02*
D03*
X56059Y-9257D02*
D03*
X56509Y-10157D02*
D03*
X56059Y-11057D02*
D03*
X56509Y-11957D02*
D03*
X56059Y-12857D02*
D03*
X56509Y-13757D02*
D03*
X56059Y-14657D02*
D03*
X56509Y-15557D02*
D03*
X55609Y15043D02*
D03*
Y13243D02*
D03*
X55159Y12343D02*
D03*
X55609Y11443D02*
D03*
X55159Y10543D02*
D03*
X55609Y9643D02*
D03*
X55159Y8743D02*
D03*
X55609Y7843D02*
D03*
X55159Y6943D02*
D03*
X55609Y6043D02*
D03*
X55159Y5143D02*
D03*
X55609Y4243D02*
D03*
X55159Y3343D02*
D03*
X55609Y2443D02*
D03*
Y-2957D02*
D03*
X55159Y-3857D02*
D03*
X55609Y-4757D02*
D03*
X55159Y-5657D02*
D03*
X55609Y-6557D02*
D03*
X55159Y-7457D02*
D03*
X55609Y-8357D02*
D03*
X55159Y-9257D02*
D03*
X55609Y-10157D02*
D03*
X55159Y-11057D02*
D03*
X55609Y-11957D02*
D03*
Y-13757D02*
D03*
Y-15557D02*
D03*
X54259Y12343D02*
D03*
X54709Y11443D02*
D03*
X54259Y10543D02*
D03*
X54709Y9643D02*
D03*
X54259Y8743D02*
D03*
X54709Y7843D02*
D03*
X54259Y6943D02*
D03*
X54709Y6043D02*
D03*
X54259Y5143D02*
D03*
X54709Y4243D02*
D03*
X54259Y3343D02*
D03*
X54709Y2443D02*
D03*
Y-2957D02*
D03*
X54259Y-3857D02*
D03*
X54709Y-4757D02*
D03*
X54259Y-5657D02*
D03*
X54709Y-6557D02*
D03*
X54259Y-7457D02*
D03*
X54709Y-8357D02*
D03*
X54259Y-9257D02*
D03*
X54709Y-10157D02*
D03*
X54259Y-11057D02*
D03*
X54709Y-11957D02*
D03*
Y-15557D02*
D03*
X53359Y12343D02*
D03*
X53809Y11443D02*
D03*
X53359Y10543D02*
D03*
X53809Y9643D02*
D03*
X53359Y8743D02*
D03*
X53809Y7843D02*
D03*
X53359Y6943D02*
D03*
X53809Y6043D02*
D03*
X53359Y5143D02*
D03*
X53809Y4243D02*
D03*
X53359Y3343D02*
D03*
X53809Y2443D02*
D03*
Y-2957D02*
D03*
X53359Y-3857D02*
D03*
X53809Y-4757D02*
D03*
X53359Y-5657D02*
D03*
X53809Y-6557D02*
D03*
X53359Y-7457D02*
D03*
X53809Y-8357D02*
D03*
X53359Y-11057D02*
D03*
X53809Y-11957D02*
D03*
Y-15557D02*
D03*
X52909Y15043D02*
D03*
X52459Y12343D02*
D03*
X52909Y11443D02*
D03*
Y9643D02*
D03*
X52459Y8743D02*
D03*
X52909Y7843D02*
D03*
X52459Y6943D02*
D03*
X52909Y6043D02*
D03*
X52459Y5143D02*
D03*
X52909Y4243D02*
D03*
X52459Y3343D02*
D03*
X52909Y2443D02*
D03*
Y-2957D02*
D03*
X52459Y-3857D02*
D03*
X52909Y-4757D02*
D03*
X52459Y-5657D02*
D03*
X52909Y-6557D02*
D03*
X52459Y-7457D02*
D03*
X52909Y-8357D02*
D03*
X52459Y-9257D02*
D03*
Y-11057D02*
D03*
X52909Y-11957D02*
D03*
X52459Y-12857D02*
D03*
X52909Y-15557D02*
D03*
X51559Y12343D02*
D03*
X52009Y11443D02*
D03*
X51559Y10543D02*
D03*
X52009Y9643D02*
D03*
X51559Y8743D02*
D03*
X52009Y7843D02*
D03*
X51559Y6943D02*
D03*
X52009Y6043D02*
D03*
X51559Y5143D02*
D03*
X52009Y4243D02*
D03*
X51559Y3343D02*
D03*
X52009Y2443D02*
D03*
Y-2957D02*
D03*
X51559Y-3857D02*
D03*
X52009Y-4757D02*
D03*
X51559Y-5657D02*
D03*
X52009Y-6557D02*
D03*
X51559Y-7457D02*
D03*
X52009Y-8357D02*
D03*
X51559Y-11057D02*
D03*
X52009Y-15557D02*
D03*
X51109Y11443D02*
D03*
Y9643D02*
D03*
X50659Y8743D02*
D03*
X51109Y7843D02*
D03*
X50659Y6943D02*
D03*
X51109Y6043D02*
D03*
X50659Y5143D02*
D03*
X51109Y4243D02*
D03*
X50659Y3343D02*
D03*
X51109Y2443D02*
D03*
Y-2957D02*
D03*
X50659Y-3857D02*
D03*
X51109Y-4757D02*
D03*
X50659Y-5657D02*
D03*
X51109Y-6557D02*
D03*
X50659Y-7457D02*
D03*
X51109Y-8357D02*
D03*
X50659Y-9257D02*
D03*
Y-12857D02*
D03*
X51109Y-15557D02*
D03*
X50209Y9643D02*
D03*
X49759Y8743D02*
D03*
X50209Y7843D02*
D03*
X49759Y6943D02*
D03*
X50209Y6043D02*
D03*
X49759Y5143D02*
D03*
X50209Y4243D02*
D03*
X49759Y3343D02*
D03*
X50209Y2443D02*
D03*
Y-2957D02*
D03*
X49759Y-3857D02*
D03*
X50209Y-4757D02*
D03*
X49759Y-5657D02*
D03*
X50209Y-6557D02*
D03*
X49759Y-7457D02*
D03*
X50209Y-8357D02*
D03*
X49759Y-9257D02*
D03*
X48859Y12343D02*
D03*
X49309Y9643D02*
D03*
X48859Y8743D02*
D03*
X49309Y7843D02*
D03*
X48859Y6943D02*
D03*
X49309Y6043D02*
D03*
X48859Y5143D02*
D03*
X49309Y4243D02*
D03*
X48859Y3343D02*
D03*
X49309Y-4757D02*
D03*
Y-6557D02*
D03*
X48859Y-7457D02*
D03*
X49309Y-8357D02*
D03*
X48859Y-9257D02*
D03*
X48409Y9643D02*
D03*
X47959Y8743D02*
D03*
X48409Y7843D02*
D03*
X47959Y6943D02*
D03*
X48409Y6043D02*
D03*
X47959Y5143D02*
D03*
X48409Y4243D02*
D03*
X47959Y3343D02*
D03*
X48409Y-6557D02*
D03*
X47959Y-7457D02*
D03*
X48409Y-8357D02*
D03*
X47959Y-9257D02*
D03*
X47509Y15043D02*
D03*
Y9643D02*
D03*
X47059Y8743D02*
D03*
X47509Y-2957D02*
D03*
Y-8357D02*
D03*
X47059Y-9257D02*
D03*
X46159Y12343D02*
D03*
X46609Y9643D02*
D03*
Y-15557D02*
D03*
X45259Y12343D02*
D03*
X45709Y9643D02*
D03*
X45259Y5143D02*
D03*
X45709Y4243D02*
D03*
X45259Y3343D02*
D03*
Y-7457D02*
D03*
Y-9257D02*
D03*
X45709Y-15557D02*
D03*
X44359Y12343D02*
D03*
X44809Y9643D02*
D03*
X44359Y5143D02*
D03*
X44809Y4243D02*
D03*
X44359Y3343D02*
D03*
X44809Y-8357D02*
D03*
X44359Y-9257D02*
D03*
X43459Y12343D02*
D03*
X43909Y9643D02*
D03*
X43459Y6943D02*
D03*
X43909Y6043D02*
D03*
X43459Y5143D02*
D03*
X43909Y4243D02*
D03*
X43459Y3343D02*
D03*
X43909Y-4757D02*
D03*
X43459Y-5657D02*
D03*
X43909Y-8357D02*
D03*
X43459Y-9257D02*
D03*
X43009Y9643D02*
D03*
X42559Y6943D02*
D03*
X43009Y6043D02*
D03*
X42559Y5143D02*
D03*
X43009Y4243D02*
D03*
X42559Y3343D02*
D03*
X43009Y-4757D02*
D03*
X42559Y-5657D02*
D03*
X43009Y-6557D02*
D03*
Y-8357D02*
D03*
X42559Y-9257D02*
D03*
X42109Y9643D02*
D03*
X41659Y6943D02*
D03*
X42109Y6043D02*
D03*
X41659Y5143D02*
D03*
X42109Y4243D02*
D03*
X41659Y3343D02*
D03*
X42109Y-4757D02*
D03*
X41659Y-5657D02*
D03*
X42109Y-6557D02*
D03*
Y-8357D02*
D03*
X41659Y-9257D02*
D03*
X41209Y9643D02*
D03*
X40759Y6943D02*
D03*
X41209Y6043D02*
D03*
X40759Y5143D02*
D03*
X41209Y4243D02*
D03*
X40759Y3343D02*
D03*
X41209Y-4757D02*
D03*
Y-8357D02*
D03*
X40759Y-9257D02*
D03*
X40309Y9643D02*
D03*
X39859Y6943D02*
D03*
X40309Y6043D02*
D03*
X39859Y5143D02*
D03*
X40309Y4243D02*
D03*
X39859Y3343D02*
D03*
X40309Y-4757D02*
D03*
Y-8357D02*
D03*
X39859Y-9257D02*
D03*
X39409Y9643D02*
D03*
Y6043D02*
D03*
X38959Y5143D02*
D03*
X39409Y4243D02*
D03*
Y-4757D02*
D03*
Y-8357D02*
D03*
X38959Y-9257D02*
D03*
X38509Y9643D02*
D03*
X38059Y6943D02*
D03*
X38509Y4243D02*
D03*
Y-4757D02*
D03*
Y-8357D02*
D03*
X38059Y-9257D02*
D03*
X37609Y15043D02*
D03*
Y9643D02*
D03*
X37159Y5143D02*
D03*
X37609Y-4757D02*
D03*
Y-8357D02*
D03*
X37159Y-9257D02*
D03*
X36709Y9643D02*
D03*
Y-4757D02*
D03*
Y-8357D02*
D03*
X36259Y-9257D02*
D03*
X35809Y9643D02*
D03*
X35359Y5143D02*
D03*
X35809Y-4757D02*
D03*
X35359Y-9257D02*
D03*
X34909Y15043D02*
D03*
X34009Y9643D02*
D03*
X28609Y-15557D02*
D03*
X24559Y12343D02*
D03*
X21409Y9643D02*
D03*
X20059Y8743D02*
D03*
Y-12857D02*
D03*
X19609Y9643D02*
D03*
Y7843D02*
D03*
X18708Y9643D02*
D03*
X18259Y8743D02*
D03*
X18708Y7843D02*
D03*
X17809Y9643D02*
D03*
X17358Y8743D02*
D03*
X17809Y6043D02*
D03*
X17358Y5143D02*
D03*
Y3343D02*
D03*
Y1543D02*
D03*
X16909Y9643D02*
D03*
Y7843D02*
D03*
X16458Y6943D02*
D03*
Y5143D02*
D03*
X16909Y2443D02*
D03*
X16458Y1543D02*
D03*
X16008Y9643D02*
D03*
X15559Y8743D02*
D03*
X16008Y7843D02*
D03*
Y4243D02*
D03*
X15559Y3343D02*
D03*
X14658Y8743D02*
D03*
X15108Y6043D02*
D03*
Y4243D02*
D03*
X14658Y3343D02*
D03*
Y-3857D02*
D03*
Y-5657D02*
D03*
Y-7457D02*
D03*
Y-12857D02*
D03*
X13759Y8743D02*
D03*
X14208Y7843D02*
D03*
X13759Y6943D02*
D03*
X14208Y6043D02*
D03*
Y4243D02*
D03*
X13759Y3343D02*
D03*
Y-257D02*
D03*
X14208Y-4757D02*
D03*
X13759Y-5657D02*
D03*
X14208Y-6557D02*
D03*
X13759Y-7457D02*
D03*
X13309Y7843D02*
D03*
Y6043D02*
D03*
X12858Y5143D02*
D03*
Y1543D02*
D03*
X13309Y643D02*
D03*
X12858Y-257D02*
D03*
X13309Y-1157D02*
D03*
X12858Y-2057D02*
D03*
X13309Y-4757D02*
D03*
Y-6557D02*
D03*
X12408Y15043D02*
D03*
Y4243D02*
D03*
Y643D02*
D03*
Y-1157D02*
D03*
Y-2957D02*
D03*
Y-4757D02*
D03*
Y-6557D02*
D03*
X10158Y-11057D02*
D03*
X9708Y15043D02*
D03*
X9259Y-9257D02*
D03*
Y-11057D02*
D03*
X9708Y-11957D02*
D03*
X9259Y-12857D02*
D03*
X8358Y5143D02*
D03*
Y3343D02*
D03*
X8809Y2443D02*
D03*
X8358Y1543D02*
D03*
X8809Y643D02*
D03*
X8358Y-257D02*
D03*
X8809Y-1157D02*
D03*
X8358Y-2057D02*
D03*
X8809Y-2957D02*
D03*
X8358Y-3857D02*
D03*
X8809Y-8357D02*
D03*
X8358Y-9257D02*
D03*
Y-11057D02*
D03*
X8809Y-11957D02*
D03*
X7458Y8743D02*
D03*
Y5143D02*
D03*
X7909Y4243D02*
D03*
X7458Y3343D02*
D03*
X7909Y2443D02*
D03*
X7458Y1543D02*
D03*
X7909Y643D02*
D03*
X7458Y-257D02*
D03*
X7909Y-1157D02*
D03*
X7458Y-2057D02*
D03*
X7909Y-2957D02*
D03*
X7458Y-3857D02*
D03*
Y-5657D02*
D03*
X7909Y-8357D02*
D03*
X7458Y-9257D02*
D03*
Y-11057D02*
D03*
X7909Y-11957D02*
D03*
X7458Y-12857D02*
D03*
X6558Y12343D02*
D03*
Y10543D02*
D03*
Y8743D02*
D03*
X7008Y7843D02*
D03*
X6558Y5143D02*
D03*
X7008Y4243D02*
D03*
X6558Y3343D02*
D03*
X7008Y2443D02*
D03*
X6558Y1543D02*
D03*
X7008Y643D02*
D03*
X6558Y-257D02*
D03*
X7008Y-1157D02*
D03*
X6558Y-2057D02*
D03*
X7008Y-2957D02*
D03*
X6558Y-3857D02*
D03*
X7008Y-6557D02*
D03*
Y-8357D02*
D03*
X6558Y-9257D02*
D03*
X7008Y-11957D02*
D03*
X5659Y12343D02*
D03*
X6108Y11443D02*
D03*
Y6043D02*
D03*
X5659Y5143D02*
D03*
X6108Y4243D02*
D03*
X5659Y3343D02*
D03*
X6108Y2443D02*
D03*
X5659Y1543D02*
D03*
X6108Y643D02*
D03*
X5659Y-257D02*
D03*
X6108Y-1157D02*
D03*
X5659Y-2057D02*
D03*
X6108Y-2957D02*
D03*
X5659Y-3857D02*
D03*
Y-5657D02*
D03*
X6108Y-11957D02*
D03*
Y-15557D02*
D03*
X4758Y5143D02*
D03*
X5208Y4243D02*
D03*
X4758Y3343D02*
D03*
X5208Y2443D02*
D03*
X4758Y1543D02*
D03*
X5208Y643D02*
D03*
X4758Y-257D02*
D03*
X5208Y-1157D02*
D03*
X4758Y-2057D02*
D03*
X5208Y-2957D02*
D03*
X4758Y-3857D02*
D03*
X5208Y-4757D02*
D03*
X4758Y-5657D02*
D03*
X5208Y-11957D02*
D03*
X4758Y-12857D02*
D03*
X5208Y-15557D02*
D03*
X4308Y15043D02*
D03*
X3858Y14143D02*
D03*
X4308Y13243D02*
D03*
X3858Y12343D02*
D03*
X4308Y11443D02*
D03*
X3858Y5143D02*
D03*
X4308Y4243D02*
D03*
X3858Y3343D02*
D03*
X4308Y2443D02*
D03*
X3858Y1543D02*
D03*
X4308Y643D02*
D03*
X3858Y-257D02*
D03*
X4308Y-1157D02*
D03*
X3858Y-2057D02*
D03*
X4308Y-2957D02*
D03*
X3858Y-3857D02*
D03*
X4308Y-4757D02*
D03*
X3858Y-5657D02*
D03*
Y-11057D02*
D03*
X4308Y-11957D02*
D03*
X3858Y-12857D02*
D03*
Y-14657D02*
D03*
X4308Y-15557D02*
D03*
X3408Y15043D02*
D03*
Y13243D02*
D03*
X2958Y12343D02*
D03*
X3408Y11443D02*
D03*
X2958Y10543D02*
D03*
X3408Y9643D02*
D03*
X2958Y8743D02*
D03*
X3408Y7843D02*
D03*
X2958Y6943D02*
D03*
X3408Y6043D02*
D03*
X2958Y5143D02*
D03*
X3408Y4243D02*
D03*
X2958Y3343D02*
D03*
X3408Y2443D02*
D03*
X2958Y1543D02*
D03*
X3408Y643D02*
D03*
X2958Y-257D02*
D03*
X3408Y-1157D02*
D03*
X2958Y-2057D02*
D03*
X3408Y-2957D02*
D03*
X2958Y-3857D02*
D03*
X3408Y-4757D02*
D03*
X2958Y-5657D02*
D03*
X3408Y-6557D02*
D03*
X2958Y-7457D02*
D03*
X3408Y-8357D02*
D03*
X2958Y-9257D02*
D03*
X3408Y-10157D02*
D03*
X2958Y-11057D02*
D03*
X3408Y-11957D02*
D03*
X2958Y-12857D02*
D03*
Y-14657D02*
D03*
X3408Y-15557D02*
D03*
X2508Y13243D02*
D03*
X2058Y12343D02*
D03*
X2508Y11443D02*
D03*
X2058Y10543D02*
D03*
X2508Y9643D02*
D03*
X2058Y8743D02*
D03*
X2508Y7843D02*
D03*
X2058Y6943D02*
D03*
X2508Y6043D02*
D03*
X2058Y5143D02*
D03*
X2508Y4243D02*
D03*
X2058Y3343D02*
D03*
X2508Y2443D02*
D03*
X2058Y1543D02*
D03*
X2508Y643D02*
D03*
X2058Y-257D02*
D03*
X2508Y-1157D02*
D03*
X2058Y-2057D02*
D03*
X2508Y-2957D02*
D03*
X2058Y-3857D02*
D03*
X2508Y-4757D02*
D03*
X2058Y-5657D02*
D03*
X2508Y-6557D02*
D03*
X2058Y-7457D02*
D03*
X2508Y-8357D02*
D03*
X2058Y-9257D02*
D03*
X2508Y-10157D02*
D03*
X2058Y-11057D02*
D03*
X2508Y-11957D02*
D03*
X2058Y-12857D02*
D03*
X2508Y-13757D02*
D03*
X2058Y-14657D02*
D03*
X2508Y-15557D02*
D03*
X1608Y13243D02*
D03*
Y11443D02*
D03*
Y9643D02*
D03*
Y7843D02*
D03*
Y6043D02*
D03*
Y4243D02*
D03*
Y2443D02*
D03*
Y643D02*
D03*
Y-1157D02*
D03*
Y-2957D02*
D03*
Y-4757D02*
D03*
Y-6557D02*
D03*
Y-8357D02*
D03*
Y-10157D02*
D03*
Y-11957D02*
D03*
Y-13757D02*
D03*
Y-15557D02*
D03*
X36347Y-2251D02*
D03*
X36327Y1896D02*
D03*
X36395Y2893D02*
D03*
X46062Y-1175D02*
D03*
X48581Y904D02*
D03*
X48878Y-717D02*
D03*
X49413Y-1066D02*
D03*
X50156D02*
D03*
X47428Y-1000D02*
D03*
X47244Y-1632D02*
D03*
X50630Y-1462D02*
D03*
X53129Y-1066D02*
D03*
X52386D02*
D03*
X54615D02*
D03*
X53872D02*
D03*
X56101D02*
D03*
X55358D02*
D03*
X61263Y-1405D02*
D03*
X62006D02*
D03*
X59777D02*
D03*
X60520D02*
D03*
X58291D02*
D03*
X59034D02*
D03*
X56744Y-1066D02*
D03*
X51890Y-1462D02*
D03*
X59030Y1456D02*
D03*
X58287D02*
D03*
X60516D02*
D03*
X59773D02*
D03*
X62002D02*
D03*
X61259D02*
D03*
X57708Y1139D02*
D03*
X56322D02*
D03*
X57065D02*
D03*
X54836D02*
D03*
X55579D02*
D03*
X53349D02*
D03*
X54093D02*
D03*
X51963D02*
D03*
X52706D02*
D03*
X50477D02*
D03*
X51220D02*
D03*
X49734D02*
D03*
X49042Y1224D02*
D03*
X43119Y1116D02*
D03*
X42376D02*
D03*
X44506D02*
D03*
X43762D02*
D03*
X45992D02*
D03*
X45249D02*
D03*
X46735D02*
D03*
X45425Y-1047D02*
D03*
X43938D02*
D03*
X44681D02*
D03*
X42452D02*
D03*
X43195D02*
D03*
X41066D02*
D03*
X41809D02*
D03*
X39580D02*
D03*
X40323D02*
D03*
X38836D02*
D03*
X36155Y-751D02*
D03*
X38093Y-1047D02*
D03*
X35374Y-751D02*
D03*
X39711Y2400D02*
D03*
X38225D02*
D03*
X38968D02*
D03*
X37482D02*
D03*
X36947Y1114D02*
D03*
Y1857D02*
D03*
X36265Y1161D02*
D03*
X37626Y-1439D02*
D03*
X36365D02*
D03*
X36969Y-1648D02*
D03*
X51220Y-1610D02*
D03*
X37837Y-2466D02*
D03*
X38580D02*
D03*
X40066D02*
D03*
X39323D02*
D03*
X41552D02*
D03*
X40809D02*
D03*
X42939D02*
D03*
X42195D02*
D03*
X44425D02*
D03*
X43682D02*
D03*
X37812Y-3575D02*
D03*
X38555D02*
D03*
X40041D02*
D03*
X39298D02*
D03*
X41527D02*
D03*
X40784D02*
D03*
X42913D02*
D03*
X42170D02*
D03*
X43657D02*
D03*
X45132Y-3446D02*
D03*
X44400Y-3575D02*
D03*
X45805Y-3132D02*
D03*
X46374Y-2654D02*
D03*
X46900Y-2129D02*
D03*
X45668Y-1674D02*
D03*
X45098Y-2152D02*
D03*
X36539Y-3979D02*
D03*
X37282D02*
D03*
X35053D02*
D03*
X35796D02*
D03*
X34309D02*
D03*
X35604Y-2251D02*
D03*
X44877Y1648D02*
D03*
X45621D02*
D03*
X43391D02*
D03*
X44134D02*
D03*
X42748D02*
D03*
X37882Y2893D02*
D03*
X37138D02*
D03*
X39368D02*
D03*
X38625D02*
D03*
X36739Y2400D02*
D03*
X46364Y1648D02*
D03*
X46048Y2152D02*
D03*
X40946D02*
D03*
X40203D02*
D03*
X42433D02*
D03*
X41690D02*
D03*
X43819D02*
D03*
X43076D02*
D03*
X45305D02*
D03*
X44562D02*
D03*
X44759Y-4069D02*
D03*
X44016D02*
D03*
X42529D02*
D03*
X43272D02*
D03*
X41143D02*
D03*
X41886D02*
D03*
X39657D02*
D03*
X40400D02*
D03*
X38914D02*
D03*
X38171D02*
D03*
X46849Y-3208D02*
D03*
X44326Y-1734D02*
D03*
X42840D02*
D03*
X43583D02*
D03*
X41453D02*
D03*
X42196D02*
D03*
X39967D02*
D03*
X40710D02*
D03*
X39224D02*
D03*
X38481D02*
D03*
X45018Y-1520D02*
D03*
X57411Y1695D02*
D03*
X55925D02*
D03*
X56668D02*
D03*
X54439D02*
D03*
X55182D02*
D03*
X53052D02*
D03*
X53795D02*
D03*
X51566D02*
D03*
X52309D02*
D03*
X50823D02*
D03*
X50080D02*
D03*
X49337D02*
D03*
X52774Y-1646D02*
D03*
X53517D02*
D03*
X55003D02*
D03*
X54260D02*
D03*
X56490D02*
D03*
X55746D02*
D03*
X49800Y-1574D02*
D03*
X57803Y-1727D02*
D03*
X57160D02*
D03*
X53164Y-2240D02*
D03*
X54650D02*
D03*
X53907Y-2240D02*
D03*
X55393Y-2240D02*
D03*
X56136D02*
D03*
X57623Y-2240D02*
D03*
X56879D02*
D03*
X52421Y-2240D02*
D03*
X51678Y-2240D02*
D03*
X50934D02*
D03*
X49448Y-2240D02*
D03*
X50191Y-2240D02*
D03*
X40147Y1116D02*
D03*
X40890D02*
D03*
X42005Y1648D02*
D03*
X40519D02*
D03*
X41262D02*
D03*
X41633Y1116D02*
D03*
X28484Y-8637D02*
D03*
X28590Y-8053D02*
D03*
X52202Y10719D02*
D03*
X49382Y10956D02*
D03*
X50005D02*
D03*
X50628D02*
D03*
X53417Y-9880D02*
D03*
X52794D02*
D03*
X52171D02*
D03*
X51548D02*
D03*
X50925D02*
D03*
X50302D02*
D03*
X48432D02*
D03*
X49055D02*
D03*
X49678D02*
D03*
X28811Y5677D02*
D03*
X27979Y5686D02*
D03*
D45*
X26048Y-4408D02*
D03*
X35382Y3882D02*
D03*
X61899Y2819D02*
D03*
X61929Y-2845D02*
D03*
X45402Y-6230D02*
D03*
X61105Y2833D02*
D03*
X58537Y2857D02*
D03*
X60246Y2857D02*
D03*
X59392Y2857D02*
D03*
X61112Y-2827D02*
D03*
X58543Y-2803D02*
D03*
X60253Y-2803D02*
D03*
X59398Y-2803D02*
D03*
X707Y-16381D02*
D03*
X1562D02*
D03*
X2417D02*
D03*
X4126D02*
D03*
X5836D02*
D03*
X4981D02*
D03*
X3272D02*
D03*
X732Y-13764D02*
D03*
X732Y-12054D02*
D03*
X732Y-11200D02*
D03*
X732Y-12909D02*
D03*
Y-14619D02*
D03*
Y-15474D02*
D03*
X756Y-10341D02*
D03*
Y-9486D02*
D03*
Y-7776D02*
D03*
X756Y-6067D02*
D03*
X756Y-6921D02*
D03*
X756Y-8631D02*
D03*
X805Y1635D02*
D03*
X805Y3345D02*
D03*
X805Y4199D02*
D03*
X805Y2490D02*
D03*
Y780D02*
D03*
Y-75D02*
D03*
X780Y-5208D02*
D03*
Y-4353D02*
D03*
Y-2643D02*
D03*
X780Y-934D02*
D03*
X780Y-1788D02*
D03*
X780Y-3498D02*
D03*
X853Y11901D02*
D03*
X853Y13610D02*
D03*
X853Y14465D02*
D03*
X853Y12756D02*
D03*
Y11046D02*
D03*
Y10191D02*
D03*
X829Y5058D02*
D03*
Y5913D02*
D03*
Y7623D02*
D03*
X829Y9332D02*
D03*
X829Y8478D02*
D03*
X829Y6768D02*
D03*
X853Y15320D02*
D03*
X18670Y-16381D02*
D03*
X20380D02*
D03*
X21235D02*
D03*
X19525D02*
D03*
X17816D02*
D03*
X16961D02*
D03*
X22094D02*
D03*
X22949D02*
D03*
X24658D02*
D03*
X26368D02*
D03*
X25513D02*
D03*
X23803D02*
D03*
X13537D02*
D03*
X15247D02*
D03*
X16102D02*
D03*
X14392D02*
D03*
X12683D02*
D03*
X11828D02*
D03*
X6695D02*
D03*
X7550D02*
D03*
X9259D02*
D03*
X10969D02*
D03*
X10114D02*
D03*
X8405D02*
D03*
X39202D02*
D03*
X40912D02*
D03*
X41767D02*
D03*
X40057D02*
D03*
X38347D02*
D03*
X37493D02*
D03*
X42626D02*
D03*
X43480D02*
D03*
X45190D02*
D03*
X46900D02*
D03*
X46045D02*
D03*
X44335D02*
D03*
X34069D02*
D03*
X35779D02*
D03*
X36634D02*
D03*
X34924D02*
D03*
X33215D02*
D03*
X32360D02*
D03*
X27227D02*
D03*
X28082D02*
D03*
X29791D02*
D03*
X31501D02*
D03*
X30646D02*
D03*
X28936D02*
D03*
X59734D02*
D03*
X61444D02*
D03*
X60589D02*
D03*
X58879D02*
D03*
X58025D02*
D03*
X54601D02*
D03*
X56311D02*
D03*
X57166D02*
D03*
X55456D02*
D03*
X53746D02*
D03*
X52892D02*
D03*
X47759D02*
D03*
X48613D02*
D03*
X50323D02*
D03*
X52033D02*
D03*
X51178D02*
D03*
X49468D02*
D03*
X61878Y-3919D02*
D03*
X61878Y-5629D02*
D03*
X61878Y-6483D02*
D03*
X61878Y-4774D02*
D03*
X61935Y-7346D02*
D03*
X61935Y-8201D02*
D03*
X61935Y-9911D02*
D03*
X61935Y-11620D02*
D03*
X61935Y-10766D02*
D03*
X61935Y-9056D02*
D03*
X61911Y-12479D02*
D03*
X61911Y-13334D02*
D03*
X61911Y-15044D02*
D03*
X61911Y-15899D02*
D03*
X61911Y-14189D02*
D03*
X61931Y14690D02*
D03*
Y15544D02*
D03*
Y13835D02*
D03*
Y12980D02*
D03*
Y9557D02*
D03*
Y11266D02*
D03*
Y12121D02*
D03*
Y10412D02*
D03*
Y8702D02*
D03*
Y7847D02*
D03*
Y5279D02*
D03*
Y6988D02*
D03*
Y6133D02*
D03*
Y4424D02*
D03*
X13184Y16401D02*
D03*
X11474Y16401D02*
D03*
X10619Y16401D02*
D03*
X12329Y16401D02*
D03*
X14039Y16401D02*
D03*
X14893Y16401D02*
D03*
X9760Y16401D02*
D03*
X8906D02*
D03*
X7196Y16401D02*
D03*
X5486D02*
D03*
X6341Y16401D02*
D03*
X8051D02*
D03*
X4627Y16401D02*
D03*
X3773Y16401D02*
D03*
X2063D02*
D03*
X2918D02*
D03*
X33716Y16401D02*
D03*
X32006D02*
D03*
X31151Y16401D02*
D03*
X32861Y16401D02*
D03*
X34570Y16401D02*
D03*
X35425Y16401D02*
D03*
X30292Y16401D02*
D03*
X29437Y16401D02*
D03*
X27728Y16401D02*
D03*
X26018Y16401D02*
D03*
X26873Y16401D02*
D03*
X28583Y16401D02*
D03*
X18317Y16401D02*
D03*
X16607D02*
D03*
X15752D02*
D03*
X17462D02*
D03*
X19171Y16401D02*
D03*
X20026Y16401D02*
D03*
X25159Y16401D02*
D03*
X24304Y16401D02*
D03*
X22595Y16401D02*
D03*
X20885Y16401D02*
D03*
X21740Y16401D02*
D03*
X23450D02*
D03*
X54247Y16401D02*
D03*
X52538Y16401D02*
D03*
X51683Y16401D02*
D03*
X53393Y16401D02*
D03*
X55102Y16401D02*
D03*
X55957Y16401D02*
D03*
X50824D02*
D03*
X49969Y16401D02*
D03*
X48260Y16401D02*
D03*
X46550D02*
D03*
X47405Y16401D02*
D03*
X49114Y16401D02*
D03*
X38849D02*
D03*
X37139D02*
D03*
X36284Y16401D02*
D03*
X37994Y16401D02*
D03*
X39703Y16401D02*
D03*
X40558Y16401D02*
D03*
X45691D02*
D03*
X44836Y16401D02*
D03*
X43127Y16401D02*
D03*
X41417Y16401D02*
D03*
X42272Y16401D02*
D03*
X43981D02*
D03*
X59380Y16401D02*
D03*
X57671Y16401D02*
D03*
X56816Y16401D02*
D03*
X58526Y16401D02*
D03*
X60235D02*
D03*
X61090D02*
D03*
X61931D02*
D03*
X1152Y16192D02*
D03*
X45367Y7835D02*
D03*
X57679Y3068D02*
D03*
X59094Y-14178D02*
D03*
X48584Y-12320D02*
D03*
Y-11432D02*
D03*
X22434Y-10286D02*
D03*
X7471Y5891D02*
D03*
X20015Y902D02*
D03*
X20040Y-228D02*
D03*
X19338Y2794D02*
D03*
X36632Y4135D02*
D03*
X36665Y7477D02*
D03*
X36743Y6011D02*
D03*
X35643Y6816D02*
D03*
X23086Y-5901D02*
D03*
X21649Y-2453D02*
D03*
X25981Y-500D02*
D03*
Y-3150D02*
D03*
X31134Y5439D02*
D03*
X32059D02*
D03*
X45405Y6448D02*
D03*
X21423Y5656D02*
D03*
X29956Y-500D02*
D03*
X28631D02*
D03*
X29956Y-1825D02*
D03*
X27306Y-1850D02*
D03*
X26893Y3747D02*
D03*
X26698Y8875D02*
D03*
X52017Y-11933D02*
D03*
X52588Y15731D02*
D03*
X51388D02*
D03*
X50188D02*
D03*
X48988D02*
D03*
X47788D02*
D03*
X46588D02*
D03*
X45388D02*
D03*
X56398Y15708D02*
D03*
X55198D02*
D03*
X53998D02*
D03*
X40263Y15731D02*
D03*
X39063D02*
D03*
X37863D02*
D03*
X36663D02*
D03*
X35463D02*
D03*
X34263D02*
D03*
X33063D02*
D03*
X44073Y15708D02*
D03*
X42873D02*
D03*
X41673D02*
D03*
X14273Y15691D02*
D03*
X15473D02*
D03*
X16673D02*
D03*
X17873D02*
D03*
X19073D02*
D03*
X6862Y15714D02*
D03*
X8062D02*
D03*
X9262D02*
D03*
X10462D02*
D03*
X11662D02*
D03*
X12862D02*
D03*
X27306Y-4475D02*
D03*
X28631Y-3150D02*
D03*
X28631Y-4475D02*
D03*
X27306Y-3175D02*
D03*
X25981Y-1825D02*
D03*
X8517Y6098D02*
D03*
X8699Y4215D02*
D03*
X7472Y9937D02*
D03*
X7454Y11828D02*
D03*
X14768Y9541D02*
D03*
X12597Y8176D02*
D03*
X12615Y6284D02*
D03*
X8130Y-6260D02*
D03*
X6570Y-5190D02*
D03*
X8131Y-4713D02*
D03*
X11636Y-10928D02*
D03*
X11635Y-12476D02*
D03*
X3657Y-13818D02*
D03*
X22103Y11158D02*
D03*
X20692Y9952D02*
D03*
X19232Y8749D02*
D03*
X13029Y-5875D02*
D03*
X13376Y-3878D02*
D03*
X13504Y4706D02*
D03*
X15277Y5018D02*
D03*
X12736Y3016D02*
D03*
X16602Y3693D02*
D03*
X15065Y7311D02*
D03*
X16390Y8661D02*
D03*
Y6011D02*
D03*
X17715Y7336D02*
D03*
X16644Y-5905D02*
D03*
X15866Y-5019D02*
D03*
X19209Y-5337D02*
D03*
X27770Y3705D02*
D03*
X19192Y-6285D02*
D03*
X33790Y6287D02*
D03*
X29956Y-3150D02*
D03*
X21940Y-4374D02*
D03*
X28631Y-1825D02*
D03*
X24998Y8187D02*
D03*
X27306Y-525D02*
D03*
X29956Y-4475D02*
D03*
X45398Y-4731D02*
D03*
M02*
