G04*
G04 #@! TF.GenerationSoftware,Altium Limited,Altium Designer,20.2.6 (244)*
G04*
G04 Layer_Color=2752767*
%FSLAX43Y43*%
%MOMM*%
G71*
G04*
G04 #@! TF.SameCoordinates,C144CD18-1887-4FAA-AC2B-496F7D53F270*
G04*
G04*
G04 #@! TF.FilePolarity,Positive*
G04*
G01*
G75*
%ADD12C,0.300*%
%ADD93C,0.051*%
%ADD94C,0.068*%
D12*
X-9Y17005D02*
X62391Y17098D01*
X-9Y17005D02*
X0Y-17000D01*
X62391Y17098D02*
X62401Y-16907D01*
X0Y-17000D02*
X62401Y-16907D01*
D93*
X5667Y13797D02*
Y14203D01*
X6073D01*
Y13797D01*
X5667D01*
X8207D02*
Y14203D01*
X8613D01*
Y13797D01*
X8207D01*
X10747D02*
Y14203D01*
X11153D01*
Y13797D01*
X10747D01*
X13287D02*
Y14203D01*
X13693D01*
Y13797D01*
X13287D01*
X15827D02*
Y14203D01*
X16233D01*
Y13797D01*
X15827D01*
X18367D02*
Y14203D01*
X18773D01*
Y13797D01*
X18367D01*
X20907D02*
Y14203D01*
X21313D01*
Y13797D01*
X20907D01*
X23447D02*
Y14203D01*
X23853D01*
Y13797D01*
X23447D01*
X25987D02*
Y14203D01*
X26393D01*
Y13797D01*
X25987D01*
X28527D02*
Y14203D01*
X28933D01*
Y13797D01*
X28527D01*
X31067D02*
Y14203D01*
X31473D01*
Y13797D01*
X31067D01*
X33607D02*
Y14203D01*
X34013D01*
Y13797D01*
X33607D01*
X36147D02*
Y14203D01*
X36553D01*
Y13797D01*
X36147D01*
X38687D02*
Y14203D01*
X39093D01*
Y13797D01*
X38687D01*
X41227D02*
Y14203D01*
X41633D01*
Y13797D01*
X41227D01*
X43767D02*
Y14203D01*
X44173D01*
Y13797D01*
X43767D01*
X46307D02*
Y14203D01*
X46713D01*
Y13797D01*
X46307D01*
X48847D02*
Y14203D01*
X49253D01*
Y13797D01*
X48847D01*
X51387D02*
Y14203D01*
X51793D01*
Y13797D01*
X51387D01*
X53927D02*
Y14203D01*
X54333D01*
Y13797D01*
X53927D01*
X4797Y-7433D02*
Y-7027D01*
X5203D01*
Y-7433D01*
X4797D01*
Y-9973D02*
Y-9567D01*
X5203D01*
Y-9973D01*
X4797D01*
Y9567D02*
Y9973D01*
X5203D01*
Y9567D01*
X4797D01*
Y7027D02*
Y7433D01*
X5203D01*
Y7027D01*
X4797D01*
X53927Y-14203D02*
Y-13797D01*
X54333D01*
Y-14203D01*
X53927D01*
X51387D02*
Y-13797D01*
X51793D01*
Y-14203D01*
X51387D01*
X48847D02*
Y-13797D01*
X49253D01*
Y-14203D01*
X48847D01*
X46307D02*
Y-13797D01*
X46713D01*
Y-14203D01*
X46307D01*
X43767D02*
Y-13797D01*
X44173D01*
Y-14203D01*
X43767D01*
X41227D02*
Y-13797D01*
X41633D01*
Y-14203D01*
X41227D01*
X38687D02*
Y-13797D01*
X39093D01*
Y-14203D01*
X38687D01*
X36147D02*
Y-13797D01*
X36553D01*
Y-14203D01*
X36147D01*
X33607D02*
Y-13797D01*
X34013D01*
Y-14203D01*
X33607D01*
X31067D02*
Y-13797D01*
X31473D01*
Y-14203D01*
X31067D01*
X28527D02*
Y-13797D01*
X28933D01*
Y-14203D01*
X28527D01*
X25987D02*
Y-13797D01*
X26393D01*
Y-14203D01*
X25987D01*
X23447D02*
Y-13797D01*
X23853D01*
Y-14203D01*
X23447D01*
X20907D02*
Y-13797D01*
X21313D01*
Y-14203D01*
X20907D01*
X18367D02*
Y-13797D01*
X18773D01*
Y-14203D01*
X18367D01*
X15827D02*
Y-13797D01*
X16233D01*
Y-14203D01*
X15827D01*
X13287D02*
Y-13797D01*
X13693D01*
Y-14203D01*
X13287D01*
X10747D02*
Y-13797D01*
X11153D01*
Y-14203D01*
X10747D01*
X8207D02*
Y-13797D01*
X8613D01*
Y-14203D01*
X8207D01*
X5667D02*
Y-13797D01*
X6073D01*
Y-14203D01*
X5667D01*
D94*
X46476Y-563D02*
G03*
X46476Y-563I-203J0D01*
G01*
X39615Y10849D02*
G03*
X39615Y10849I-203J0D01*
G01*
X42108Y10854D02*
G03*
X42108Y10854I-203J0D01*
G01*
X38992Y10849D02*
G03*
X38992Y10849I-203J0D01*
G01*
X41484D02*
G03*
X41484Y10849I-203J0D01*
G01*
X38368D02*
G03*
X38368Y10849I-203J0D01*
G01*
X40861D02*
G03*
X40861Y10849I-203J0D01*
G01*
X37745D02*
G03*
X37745Y10849I-203J0D01*
G01*
X40238D02*
G03*
X40238Y10849I-203J0D01*
G01*
X43354Y10858D02*
G03*
X43354Y10858I-203J0D01*
G01*
X45846D02*
G03*
X45846Y10858I-203J0D01*
G01*
X45223D02*
G03*
X45223Y10858I-203J0D01*
G01*
X44600D02*
G03*
X44600Y10858I-203J0D01*
G01*
X42730D02*
G03*
X42730Y10858I-203J0D01*
G01*
X43977D02*
G03*
X43977Y10858I-203J0D01*
G01*
X46469D02*
G03*
X46469Y10858I-203J0D01*
G01*
X48339Y10859D02*
G03*
X48339Y10859I-203J0D01*
G01*
X47092D02*
G03*
X47092Y10859I-203J0D01*
G01*
X48962D02*
G03*
X48962Y10859I-203J0D01*
G01*
X47716D02*
G03*
X47716Y10859I-203J0D01*
G01*
X61212Y15043D02*
G03*
X61212Y15043I-203J0D01*
G01*
X60762Y14143D02*
G03*
X60762Y14143I-203J0D01*
G01*
X61212Y13243D02*
G03*
X61212Y13243I-203J0D01*
G01*
X60762Y12343D02*
G03*
X60762Y12343I-203J0D01*
G01*
X61212Y11443D02*
G03*
X61212Y11443I-203J0D01*
G01*
X60762Y10543D02*
G03*
X60762Y10543I-203J0D01*
G01*
X61212Y9643D02*
G03*
X61212Y9643I-203J0D01*
G01*
X60762Y8743D02*
G03*
X60762Y8743I-203J0D01*
G01*
X61212Y7843D02*
G03*
X61212Y7843I-203J0D01*
G01*
X60762Y6943D02*
G03*
X60762Y6943I-203J0D01*
G01*
X61212Y6043D02*
G03*
X61212Y6043I-203J0D01*
G01*
X60762Y5143D02*
G03*
X60762Y5143I-203J0D01*
G01*
X61212Y4243D02*
G03*
X61212Y4243I-203J0D01*
G01*
Y-4757D02*
G03*
X61212Y-4757I-203J0D01*
G01*
X60762Y-5657D02*
G03*
X60762Y-5657I-203J0D01*
G01*
X61212Y-6557D02*
G03*
X61212Y-6557I-203J0D01*
G01*
X60762Y-7457D02*
G03*
X60762Y-7457I-203J0D01*
G01*
X61212Y-8357D02*
G03*
X61212Y-8357I-203J0D01*
G01*
X60762Y-9257D02*
G03*
X60762Y-9257I-203J0D01*
G01*
X61212Y-10157D02*
G03*
X61212Y-10157I-203J0D01*
G01*
X60762Y-11057D02*
G03*
X60762Y-11057I-203J0D01*
G01*
X61212Y-11957D02*
G03*
X61212Y-11957I-203J0D01*
G01*
X60762Y-12857D02*
G03*
X60762Y-12857I-203J0D01*
G01*
X61212Y-13757D02*
G03*
X61212Y-13757I-203J0D01*
G01*
X60762Y-14657D02*
G03*
X60762Y-14657I-203J0D01*
G01*
X61212Y-15557D02*
G03*
X61212Y-15557I-203J0D01*
G01*
X60312Y15043D02*
G03*
X60312Y15043I-203J0D01*
G01*
X59862Y14143D02*
G03*
X59862Y14143I-203J0D01*
G01*
X60312Y13243D02*
G03*
X60312Y13243I-203J0D01*
G01*
X59862Y12343D02*
G03*
X59862Y12343I-203J0D01*
G01*
X60312Y11443D02*
G03*
X60312Y11443I-203J0D01*
G01*
X59862Y10543D02*
G03*
X59862Y10543I-203J0D01*
G01*
X60312Y9643D02*
G03*
X60312Y9643I-203J0D01*
G01*
X59862Y8743D02*
G03*
X59862Y8743I-203J0D01*
G01*
X60312Y7843D02*
G03*
X60312Y7843I-203J0D01*
G01*
X59862Y6943D02*
G03*
X59862Y6943I-203J0D01*
G01*
X60312Y6043D02*
G03*
X60312Y6043I-203J0D01*
G01*
X59862Y5143D02*
G03*
X59862Y5143I-203J0D01*
G01*
X60312Y4243D02*
G03*
X60312Y4243I-203J0D01*
G01*
Y-4757D02*
G03*
X60312Y-4757I-203J0D01*
G01*
X59862Y-5657D02*
G03*
X59862Y-5657I-203J0D01*
G01*
X60312Y-6557D02*
G03*
X60312Y-6557I-203J0D01*
G01*
X59862Y-7457D02*
G03*
X59862Y-7457I-203J0D01*
G01*
X60312Y-8357D02*
G03*
X60312Y-8357I-203J0D01*
G01*
X59862Y-9257D02*
G03*
X59862Y-9257I-203J0D01*
G01*
X60312Y-10157D02*
G03*
X60312Y-10157I-203J0D01*
G01*
X59862Y-11057D02*
G03*
X59862Y-11057I-203J0D01*
G01*
X60312Y-11957D02*
G03*
X60312Y-11957I-203J0D01*
G01*
X59862Y-12857D02*
G03*
X59862Y-12857I-203J0D01*
G01*
X60312Y-13757D02*
G03*
X60312Y-13757I-203J0D01*
G01*
X59862Y-14657D02*
G03*
X59862Y-14657I-203J0D01*
G01*
X60312Y-15557D02*
G03*
X60312Y-15557I-203J0D01*
G01*
X59412Y15043D02*
G03*
X59412Y15043I-203J0D01*
G01*
X58962Y14143D02*
G03*
X58962Y14143I-203J0D01*
G01*
X59412Y13243D02*
G03*
X59412Y13243I-203J0D01*
G01*
X58962Y12343D02*
G03*
X58962Y12343I-203J0D01*
G01*
X59412Y11443D02*
G03*
X59412Y11443I-203J0D01*
G01*
X58962Y10543D02*
G03*
X58962Y10543I-203J0D01*
G01*
X59412Y9643D02*
G03*
X59412Y9643I-203J0D01*
G01*
X58962Y8743D02*
G03*
X58962Y8743I-203J0D01*
G01*
X59412Y7843D02*
G03*
X59412Y7843I-203J0D01*
G01*
X58962Y6943D02*
G03*
X58962Y6943I-203J0D01*
G01*
X59412Y6043D02*
G03*
X59412Y6043I-203J0D01*
G01*
X58962Y5143D02*
G03*
X58962Y5143I-203J0D01*
G01*
X59412Y4243D02*
G03*
X59412Y4243I-203J0D01*
G01*
Y-4757D02*
G03*
X59412Y-4757I-203J0D01*
G01*
X58962Y-5657D02*
G03*
X58962Y-5657I-203J0D01*
G01*
X59412Y-6557D02*
G03*
X59412Y-6557I-203J0D01*
G01*
X58962Y-7457D02*
G03*
X58962Y-7457I-203J0D01*
G01*
X59412Y-8357D02*
G03*
X59412Y-8357I-203J0D01*
G01*
X58962Y-9257D02*
G03*
X58962Y-9257I-203J0D01*
G01*
X59412Y-10157D02*
G03*
X59412Y-10157I-203J0D01*
G01*
X58962Y-11057D02*
G03*
X58962Y-11057I-203J0D01*
G01*
X59412Y-11957D02*
G03*
X59412Y-11957I-203J0D01*
G01*
X58962Y-12857D02*
G03*
X58962Y-12857I-203J0D01*
G01*
X59412Y-15557D02*
G03*
X59412Y-15557I-203J0D01*
G01*
X58512Y15043D02*
G03*
X58512Y15043I-203J0D01*
G01*
X58062Y14143D02*
G03*
X58062Y14143I-203J0D01*
G01*
X58512Y13243D02*
G03*
X58512Y13243I-203J0D01*
G01*
X58062Y12343D02*
G03*
X58062Y12343I-203J0D01*
G01*
X58512Y11443D02*
G03*
X58512Y11443I-203J0D01*
G01*
X58062Y10543D02*
G03*
X58062Y10543I-203J0D01*
G01*
X58512Y9643D02*
G03*
X58512Y9643I-203J0D01*
G01*
X58062Y8743D02*
G03*
X58062Y8743I-203J0D01*
G01*
X58512Y7843D02*
G03*
X58512Y7843I-203J0D01*
G01*
X58062Y6943D02*
G03*
X58062Y6943I-203J0D01*
G01*
X58512Y6043D02*
G03*
X58512Y6043I-203J0D01*
G01*
X58062Y5143D02*
G03*
X58062Y5143I-203J0D01*
G01*
X58512Y4243D02*
G03*
X58512Y4243I-203J0D01*
G01*
Y-4757D02*
G03*
X58512Y-4757I-203J0D01*
G01*
X58062Y-5657D02*
G03*
X58062Y-5657I-203J0D01*
G01*
X58512Y-6557D02*
G03*
X58512Y-6557I-203J0D01*
G01*
X58062Y-7457D02*
G03*
X58062Y-7457I-203J0D01*
G01*
X58512Y-8357D02*
G03*
X58512Y-8357I-203J0D01*
G01*
X58062Y-9257D02*
G03*
X58062Y-9257I-203J0D01*
G01*
X58512Y-10157D02*
G03*
X58512Y-10157I-203J0D01*
G01*
X58062Y-11057D02*
G03*
X58062Y-11057I-203J0D01*
G01*
X58512Y-11957D02*
G03*
X58512Y-11957I-203J0D01*
G01*
X58062Y-12857D02*
G03*
X58062Y-12857I-203J0D01*
G01*
X58512Y-13757D02*
G03*
X58512Y-13757I-203J0D01*
G01*
X57612Y15043D02*
G03*
X57612Y15043I-203J0D01*
G01*
X57162Y14143D02*
G03*
X57162Y14143I-203J0D01*
G01*
X57612Y13243D02*
G03*
X57612Y13243I-203J0D01*
G01*
X57162Y12343D02*
G03*
X57162Y12343I-203J0D01*
G01*
X57612Y11443D02*
G03*
X57612Y11443I-203J0D01*
G01*
X57162Y10543D02*
G03*
X57162Y10543I-203J0D01*
G01*
X57612Y9643D02*
G03*
X57612Y9643I-203J0D01*
G01*
X57162Y8743D02*
G03*
X57162Y8743I-203J0D01*
G01*
X57612Y7843D02*
G03*
X57612Y7843I-203J0D01*
G01*
X57162Y6943D02*
G03*
X57162Y6943I-203J0D01*
G01*
X57612Y6043D02*
G03*
X57612Y6043I-203J0D01*
G01*
X57162Y5143D02*
G03*
X57162Y5143I-203J0D01*
G01*
X57612Y4243D02*
G03*
X57612Y4243I-203J0D01*
G01*
X57162Y3343D02*
G03*
X57162Y3343I-203J0D01*
G01*
X57612Y-2957D02*
G03*
X57612Y-2957I-203J0D01*
G01*
X57162Y-3857D02*
G03*
X57162Y-3857I-203J0D01*
G01*
X57612Y-4757D02*
G03*
X57612Y-4757I-203J0D01*
G01*
X57162Y-5657D02*
G03*
X57162Y-5657I-203J0D01*
G01*
X57612Y-6557D02*
G03*
X57612Y-6557I-203J0D01*
G01*
X57162Y-7457D02*
G03*
X57162Y-7457I-203J0D01*
G01*
X57612Y-8357D02*
G03*
X57612Y-8357I-203J0D01*
G01*
X57162Y-9257D02*
G03*
X57162Y-9257I-203J0D01*
G01*
X57612Y-10157D02*
G03*
X57612Y-10157I-203J0D01*
G01*
X57162Y-11057D02*
G03*
X57162Y-11057I-203J0D01*
G01*
X57612Y-11957D02*
G03*
X57612Y-11957I-203J0D01*
G01*
X57162Y-12857D02*
G03*
X57162Y-12857I-203J0D01*
G01*
X57612Y-13757D02*
G03*
X57612Y-13757I-203J0D01*
G01*
X56262Y14143D02*
G03*
X56262Y14143I-203J0D01*
G01*
X56712Y13243D02*
G03*
X56712Y13243I-203J0D01*
G01*
X56262Y12343D02*
G03*
X56262Y12343I-203J0D01*
G01*
X56712Y11443D02*
G03*
X56712Y11443I-203J0D01*
G01*
X56262Y10543D02*
G03*
X56262Y10543I-203J0D01*
G01*
X56712Y9643D02*
G03*
X56712Y9643I-203J0D01*
G01*
X56262Y8743D02*
G03*
X56262Y8743I-203J0D01*
G01*
X56712Y7843D02*
G03*
X56712Y7843I-203J0D01*
G01*
X56262Y6943D02*
G03*
X56262Y6943I-203J0D01*
G01*
X56712Y6043D02*
G03*
X56712Y6043I-203J0D01*
G01*
X56262Y5143D02*
G03*
X56262Y5143I-203J0D01*
G01*
X56712Y4243D02*
G03*
X56712Y4243I-203J0D01*
G01*
X56262Y3343D02*
G03*
X56262Y3343I-203J0D01*
G01*
X56712Y2443D02*
G03*
X56712Y2443I-203J0D01*
G01*
Y-2957D02*
G03*
X56712Y-2957I-203J0D01*
G01*
X56262Y-3857D02*
G03*
X56262Y-3857I-203J0D01*
G01*
X56712Y-4757D02*
G03*
X56712Y-4757I-203J0D01*
G01*
X56262Y-5657D02*
G03*
X56262Y-5657I-203J0D01*
G01*
X56712Y-6557D02*
G03*
X56712Y-6557I-203J0D01*
G01*
X56262Y-7457D02*
G03*
X56262Y-7457I-203J0D01*
G01*
X56712Y-8357D02*
G03*
X56712Y-8357I-203J0D01*
G01*
X56262Y-9257D02*
G03*
X56262Y-9257I-203J0D01*
G01*
X56712Y-10157D02*
G03*
X56712Y-10157I-203J0D01*
G01*
X56262Y-11057D02*
G03*
X56262Y-11057I-203J0D01*
G01*
X56712Y-11957D02*
G03*
X56712Y-11957I-203J0D01*
G01*
X56262Y-12857D02*
G03*
X56262Y-12857I-203J0D01*
G01*
X56712Y-13757D02*
G03*
X56712Y-13757I-203J0D01*
G01*
X56262Y-14657D02*
G03*
X56262Y-14657I-203J0D01*
G01*
X56712Y-15557D02*
G03*
X56712Y-15557I-203J0D01*
G01*
X55812Y15043D02*
G03*
X55812Y15043I-203J0D01*
G01*
Y13243D02*
G03*
X55812Y13243I-203J0D01*
G01*
X55362Y12343D02*
G03*
X55362Y12343I-203J0D01*
G01*
X55812Y11443D02*
G03*
X55812Y11443I-203J0D01*
G01*
X55362Y10543D02*
G03*
X55362Y10543I-203J0D01*
G01*
X55812Y9643D02*
G03*
X55812Y9643I-203J0D01*
G01*
X55362Y8743D02*
G03*
X55362Y8743I-203J0D01*
G01*
X55812Y7843D02*
G03*
X55812Y7843I-203J0D01*
G01*
X55362Y6943D02*
G03*
X55362Y6943I-203J0D01*
G01*
X55812Y6043D02*
G03*
X55812Y6043I-203J0D01*
G01*
X55362Y5143D02*
G03*
X55362Y5143I-203J0D01*
G01*
X55812Y4243D02*
G03*
X55812Y4243I-203J0D01*
G01*
X55362Y3343D02*
G03*
X55362Y3343I-203J0D01*
G01*
X55812Y2443D02*
G03*
X55812Y2443I-203J0D01*
G01*
Y-2957D02*
G03*
X55812Y-2957I-203J0D01*
G01*
X55362Y-3857D02*
G03*
X55362Y-3857I-203J0D01*
G01*
X55812Y-4757D02*
G03*
X55812Y-4757I-203J0D01*
G01*
X55362Y-5657D02*
G03*
X55362Y-5657I-203J0D01*
G01*
X55812Y-6557D02*
G03*
X55812Y-6557I-203J0D01*
G01*
X55362Y-7457D02*
G03*
X55362Y-7457I-203J0D01*
G01*
X55812Y-8357D02*
G03*
X55812Y-8357I-203J0D01*
G01*
X55362Y-9257D02*
G03*
X55362Y-9257I-203J0D01*
G01*
X55812Y-10157D02*
G03*
X55812Y-10157I-203J0D01*
G01*
X55362Y-11057D02*
G03*
X55362Y-11057I-203J0D01*
G01*
X55812Y-11957D02*
G03*
X55812Y-11957I-203J0D01*
G01*
Y-13757D02*
G03*
X55812Y-13757I-203J0D01*
G01*
Y-15557D02*
G03*
X55812Y-15557I-203J0D01*
G01*
X54462Y12343D02*
G03*
X54462Y12343I-203J0D01*
G01*
X54912Y11443D02*
G03*
X54912Y11443I-203J0D01*
G01*
X54462Y10543D02*
G03*
X54462Y10543I-203J0D01*
G01*
X54912Y9643D02*
G03*
X54912Y9643I-203J0D01*
G01*
X54462Y8743D02*
G03*
X54462Y8743I-203J0D01*
G01*
X54912Y7843D02*
G03*
X54912Y7843I-203J0D01*
G01*
X54462Y6943D02*
G03*
X54462Y6943I-203J0D01*
G01*
X54912Y6043D02*
G03*
X54912Y6043I-203J0D01*
G01*
X54462Y5143D02*
G03*
X54462Y5143I-203J0D01*
G01*
X54912Y4243D02*
G03*
X54912Y4243I-203J0D01*
G01*
X54462Y3343D02*
G03*
X54462Y3343I-203J0D01*
G01*
X54912Y2443D02*
G03*
X54912Y2443I-203J0D01*
G01*
Y-2957D02*
G03*
X54912Y-2957I-203J0D01*
G01*
X54462Y-3857D02*
G03*
X54462Y-3857I-203J0D01*
G01*
X54912Y-4757D02*
G03*
X54912Y-4757I-203J0D01*
G01*
X54462Y-5657D02*
G03*
X54462Y-5657I-203J0D01*
G01*
X54912Y-6557D02*
G03*
X54912Y-6557I-203J0D01*
G01*
X54462Y-7457D02*
G03*
X54462Y-7457I-203J0D01*
G01*
X54912Y-8357D02*
G03*
X54912Y-8357I-203J0D01*
G01*
X54462Y-9257D02*
G03*
X54462Y-9257I-203J0D01*
G01*
X54912Y-10157D02*
G03*
X54912Y-10157I-203J0D01*
G01*
X54462Y-11057D02*
G03*
X54462Y-11057I-203J0D01*
G01*
X54912Y-11957D02*
G03*
X54912Y-11957I-203J0D01*
G01*
Y-15557D02*
G03*
X54912Y-15557I-203J0D01*
G01*
X53562Y12343D02*
G03*
X53562Y12343I-203J0D01*
G01*
X54012Y11443D02*
G03*
X54012Y11443I-203J0D01*
G01*
X53562Y10543D02*
G03*
X53562Y10543I-203J0D01*
G01*
X54012Y9643D02*
G03*
X54012Y9643I-203J0D01*
G01*
X53562Y8743D02*
G03*
X53562Y8743I-203J0D01*
G01*
X54012Y7843D02*
G03*
X54012Y7843I-203J0D01*
G01*
X53562Y6943D02*
G03*
X53562Y6943I-203J0D01*
G01*
X54012Y6043D02*
G03*
X54012Y6043I-203J0D01*
G01*
X53562Y5143D02*
G03*
X53562Y5143I-203J0D01*
G01*
X54012Y4243D02*
G03*
X54012Y4243I-203J0D01*
G01*
X53562Y3343D02*
G03*
X53562Y3343I-203J0D01*
G01*
X54012Y2443D02*
G03*
X54012Y2443I-203J0D01*
G01*
Y-2957D02*
G03*
X54012Y-2957I-203J0D01*
G01*
X53562Y-3857D02*
G03*
X53562Y-3857I-203J0D01*
G01*
X54012Y-4757D02*
G03*
X54012Y-4757I-203J0D01*
G01*
X53562Y-5657D02*
G03*
X53562Y-5657I-203J0D01*
G01*
X54012Y-6557D02*
G03*
X54012Y-6557I-203J0D01*
G01*
X53562Y-7457D02*
G03*
X53562Y-7457I-203J0D01*
G01*
X54012Y-8357D02*
G03*
X54012Y-8357I-203J0D01*
G01*
X53562Y-11057D02*
G03*
X53562Y-11057I-203J0D01*
G01*
X54012Y-11957D02*
G03*
X54012Y-11957I-203J0D01*
G01*
Y-15557D02*
G03*
X54012Y-15557I-203J0D01*
G01*
X53112Y15043D02*
G03*
X53112Y15043I-203J0D01*
G01*
X52662Y12343D02*
G03*
X52662Y12343I-203J0D01*
G01*
X53112Y11443D02*
G03*
X53112Y11443I-203J0D01*
G01*
Y9643D02*
G03*
X53112Y9643I-203J0D01*
G01*
X52662Y8743D02*
G03*
X52662Y8743I-203J0D01*
G01*
X53112Y7843D02*
G03*
X53112Y7843I-203J0D01*
G01*
X52662Y6943D02*
G03*
X52662Y6943I-203J0D01*
G01*
X53112Y6043D02*
G03*
X53112Y6043I-203J0D01*
G01*
X52662Y5143D02*
G03*
X52662Y5143I-203J0D01*
G01*
X53112Y4243D02*
G03*
X53112Y4243I-203J0D01*
G01*
X52662Y3343D02*
G03*
X52662Y3343I-203J0D01*
G01*
X53112Y2443D02*
G03*
X53112Y2443I-203J0D01*
G01*
Y-2957D02*
G03*
X53112Y-2957I-203J0D01*
G01*
X52662Y-3857D02*
G03*
X52662Y-3857I-203J0D01*
G01*
X53112Y-4757D02*
G03*
X53112Y-4757I-203J0D01*
G01*
X52662Y-5657D02*
G03*
X52662Y-5657I-203J0D01*
G01*
X53112Y-6557D02*
G03*
X53112Y-6557I-203J0D01*
G01*
X52662Y-7457D02*
G03*
X52662Y-7457I-203J0D01*
G01*
X53112Y-8357D02*
G03*
X53112Y-8357I-203J0D01*
G01*
X52662Y-9257D02*
G03*
X52662Y-9257I-203J0D01*
G01*
Y-11057D02*
G03*
X52662Y-11057I-203J0D01*
G01*
X53112Y-11957D02*
G03*
X53112Y-11957I-203J0D01*
G01*
X52662Y-12857D02*
G03*
X52662Y-12857I-203J0D01*
G01*
X53112Y-15557D02*
G03*
X53112Y-15557I-203J0D01*
G01*
X51762Y12343D02*
G03*
X51762Y12343I-203J0D01*
G01*
X52212Y11443D02*
G03*
X52212Y11443I-203J0D01*
G01*
X51762Y10543D02*
G03*
X51762Y10543I-203J0D01*
G01*
X52212Y9643D02*
G03*
X52212Y9643I-203J0D01*
G01*
X51762Y8743D02*
G03*
X51762Y8743I-203J0D01*
G01*
X52212Y7843D02*
G03*
X52212Y7843I-203J0D01*
G01*
X51762Y6943D02*
G03*
X51762Y6943I-203J0D01*
G01*
X52212Y6043D02*
G03*
X52212Y6043I-203J0D01*
G01*
X51762Y5143D02*
G03*
X51762Y5143I-203J0D01*
G01*
X52212Y4243D02*
G03*
X52212Y4243I-203J0D01*
G01*
X51762Y3343D02*
G03*
X51762Y3343I-203J0D01*
G01*
X52212Y2443D02*
G03*
X52212Y2443I-203J0D01*
G01*
Y-2957D02*
G03*
X52212Y-2957I-203J0D01*
G01*
X51762Y-3857D02*
G03*
X51762Y-3857I-203J0D01*
G01*
X52212Y-4757D02*
G03*
X52212Y-4757I-203J0D01*
G01*
X51762Y-5657D02*
G03*
X51762Y-5657I-203J0D01*
G01*
X52212Y-6557D02*
G03*
X52212Y-6557I-203J0D01*
G01*
X51762Y-7457D02*
G03*
X51762Y-7457I-203J0D01*
G01*
X52212Y-8357D02*
G03*
X52212Y-8357I-203J0D01*
G01*
X51762Y-11057D02*
G03*
X51762Y-11057I-203J0D01*
G01*
X52212Y-15557D02*
G03*
X52212Y-15557I-203J0D01*
G01*
X51312Y11443D02*
G03*
X51312Y11443I-203J0D01*
G01*
Y9643D02*
G03*
X51312Y9643I-203J0D01*
G01*
X50862Y8743D02*
G03*
X50862Y8743I-203J0D01*
G01*
X51312Y7843D02*
G03*
X51312Y7843I-203J0D01*
G01*
X50862Y6943D02*
G03*
X50862Y6943I-203J0D01*
G01*
X51312Y6043D02*
G03*
X51312Y6043I-203J0D01*
G01*
X50862Y5143D02*
G03*
X50862Y5143I-203J0D01*
G01*
X51312Y4243D02*
G03*
X51312Y4243I-203J0D01*
G01*
X50862Y3343D02*
G03*
X50862Y3343I-203J0D01*
G01*
X51312Y2443D02*
G03*
X51312Y2443I-203J0D01*
G01*
Y-2957D02*
G03*
X51312Y-2957I-203J0D01*
G01*
X50862Y-3857D02*
G03*
X50862Y-3857I-203J0D01*
G01*
X51312Y-4757D02*
G03*
X51312Y-4757I-203J0D01*
G01*
X50862Y-5657D02*
G03*
X50862Y-5657I-203J0D01*
G01*
X51312Y-6557D02*
G03*
X51312Y-6557I-203J0D01*
G01*
X50862Y-7457D02*
G03*
X50862Y-7457I-203J0D01*
G01*
X51312Y-8357D02*
G03*
X51312Y-8357I-203J0D01*
G01*
X50862Y-9257D02*
G03*
X50862Y-9257I-203J0D01*
G01*
Y-12857D02*
G03*
X50862Y-12857I-203J0D01*
G01*
X51312Y-15557D02*
G03*
X51312Y-15557I-203J0D01*
G01*
X50412Y9643D02*
G03*
X50412Y9643I-203J0D01*
G01*
X49962Y8743D02*
G03*
X49962Y8743I-203J0D01*
G01*
X50412Y7843D02*
G03*
X50412Y7843I-203J0D01*
G01*
X49962Y6943D02*
G03*
X49962Y6943I-203J0D01*
G01*
X50412Y6043D02*
G03*
X50412Y6043I-203J0D01*
G01*
X49962Y5143D02*
G03*
X49962Y5143I-203J0D01*
G01*
X50412Y4243D02*
G03*
X50412Y4243I-203J0D01*
G01*
X49962Y3343D02*
G03*
X49962Y3343I-203J0D01*
G01*
X50412Y2443D02*
G03*
X50412Y2443I-203J0D01*
G01*
Y-2957D02*
G03*
X50412Y-2957I-203J0D01*
G01*
X49962Y-3857D02*
G03*
X49962Y-3857I-203J0D01*
G01*
X50412Y-4757D02*
G03*
X50412Y-4757I-203J0D01*
G01*
X49962Y-5657D02*
G03*
X49962Y-5657I-203J0D01*
G01*
X50412Y-6557D02*
G03*
X50412Y-6557I-203J0D01*
G01*
X49962Y-7457D02*
G03*
X49962Y-7457I-203J0D01*
G01*
X50412Y-8357D02*
G03*
X50412Y-8357I-203J0D01*
G01*
X49962Y-9257D02*
G03*
X49962Y-9257I-203J0D01*
G01*
X49062Y12343D02*
G03*
X49062Y12343I-203J0D01*
G01*
X49512Y9643D02*
G03*
X49512Y9643I-203J0D01*
G01*
X49062Y8743D02*
G03*
X49062Y8743I-203J0D01*
G01*
X49512Y7843D02*
G03*
X49512Y7843I-203J0D01*
G01*
X49062Y6943D02*
G03*
X49062Y6943I-203J0D01*
G01*
X49512Y6043D02*
G03*
X49512Y6043I-203J0D01*
G01*
X49062Y5143D02*
G03*
X49062Y5143I-203J0D01*
G01*
X49512Y4243D02*
G03*
X49512Y4243I-203J0D01*
G01*
X49062Y3343D02*
G03*
X49062Y3343I-203J0D01*
G01*
X49512Y-4757D02*
G03*
X49512Y-4757I-203J0D01*
G01*
Y-6557D02*
G03*
X49512Y-6557I-203J0D01*
G01*
X49062Y-7457D02*
G03*
X49062Y-7457I-203J0D01*
G01*
X49512Y-8357D02*
G03*
X49512Y-8357I-203J0D01*
G01*
X49062Y-9257D02*
G03*
X49062Y-9257I-203J0D01*
G01*
X48612Y9643D02*
G03*
X48612Y9643I-203J0D01*
G01*
X48162Y8743D02*
G03*
X48162Y8743I-203J0D01*
G01*
X48612Y7843D02*
G03*
X48612Y7843I-203J0D01*
G01*
X48162Y6943D02*
G03*
X48162Y6943I-203J0D01*
G01*
X48612Y6043D02*
G03*
X48612Y6043I-203J0D01*
G01*
X48162Y5143D02*
G03*
X48162Y5143I-203J0D01*
G01*
X48612Y4243D02*
G03*
X48612Y4243I-203J0D01*
G01*
X48162Y3343D02*
G03*
X48162Y3343I-203J0D01*
G01*
X48612Y-6557D02*
G03*
X48612Y-6557I-203J0D01*
G01*
X48162Y-7457D02*
G03*
X48162Y-7457I-203J0D01*
G01*
X48612Y-8357D02*
G03*
X48612Y-8357I-203J0D01*
G01*
X48162Y-9257D02*
G03*
X48162Y-9257I-203J0D01*
G01*
X47712Y15043D02*
G03*
X47712Y15043I-203J0D01*
G01*
Y9643D02*
G03*
X47712Y9643I-203J0D01*
G01*
X47262Y8743D02*
G03*
X47262Y8743I-203J0D01*
G01*
X47712Y-2957D02*
G03*
X47712Y-2957I-203J0D01*
G01*
Y-8357D02*
G03*
X47712Y-8357I-203J0D01*
G01*
X47262Y-9257D02*
G03*
X47262Y-9257I-203J0D01*
G01*
X46362Y12343D02*
G03*
X46362Y12343I-203J0D01*
G01*
X46812Y9643D02*
G03*
X46812Y9643I-203J0D01*
G01*
Y-15557D02*
G03*
X46812Y-15557I-203J0D01*
G01*
X45462Y12343D02*
G03*
X45462Y12343I-203J0D01*
G01*
X45912Y9643D02*
G03*
X45912Y9643I-203J0D01*
G01*
X45462Y5143D02*
G03*
X45462Y5143I-203J0D01*
G01*
X45912Y4243D02*
G03*
X45912Y4243I-203J0D01*
G01*
X45462Y3343D02*
G03*
X45462Y3343I-203J0D01*
G01*
Y-7457D02*
G03*
X45462Y-7457I-203J0D01*
G01*
Y-9257D02*
G03*
X45462Y-9257I-203J0D01*
G01*
X45912Y-15557D02*
G03*
X45912Y-15557I-203J0D01*
G01*
X44562Y12343D02*
G03*
X44562Y12343I-203J0D01*
G01*
X45012Y9643D02*
G03*
X45012Y9643I-203J0D01*
G01*
X44562Y5143D02*
G03*
X44562Y5143I-203J0D01*
G01*
X45012Y4243D02*
G03*
X45012Y4243I-203J0D01*
G01*
X44562Y3343D02*
G03*
X44562Y3343I-203J0D01*
G01*
X45012Y-8357D02*
G03*
X45012Y-8357I-203J0D01*
G01*
X44562Y-9257D02*
G03*
X44562Y-9257I-203J0D01*
G01*
X43662Y12343D02*
G03*
X43662Y12343I-203J0D01*
G01*
X44112Y9643D02*
G03*
X44112Y9643I-203J0D01*
G01*
X43662Y6943D02*
G03*
X43662Y6943I-203J0D01*
G01*
X44112Y6043D02*
G03*
X44112Y6043I-203J0D01*
G01*
X43662Y5143D02*
G03*
X43662Y5143I-203J0D01*
G01*
X44112Y4243D02*
G03*
X44112Y4243I-203J0D01*
G01*
X43662Y3343D02*
G03*
X43662Y3343I-203J0D01*
G01*
X44112Y-4757D02*
G03*
X44112Y-4757I-203J0D01*
G01*
X43662Y-5657D02*
G03*
X43662Y-5657I-203J0D01*
G01*
X44112Y-8357D02*
G03*
X44112Y-8357I-203J0D01*
G01*
X43662Y-9257D02*
G03*
X43662Y-9257I-203J0D01*
G01*
X43212Y9643D02*
G03*
X43212Y9643I-203J0D01*
G01*
X42762Y6943D02*
G03*
X42762Y6943I-203J0D01*
G01*
X43212Y6043D02*
G03*
X43212Y6043I-203J0D01*
G01*
X42762Y5143D02*
G03*
X42762Y5143I-203J0D01*
G01*
X43212Y4243D02*
G03*
X43212Y4243I-203J0D01*
G01*
X42762Y3343D02*
G03*
X42762Y3343I-203J0D01*
G01*
X43212Y-4757D02*
G03*
X43212Y-4757I-203J0D01*
G01*
X42762Y-5657D02*
G03*
X42762Y-5657I-203J0D01*
G01*
X43212Y-6557D02*
G03*
X43212Y-6557I-203J0D01*
G01*
Y-8357D02*
G03*
X43212Y-8357I-203J0D01*
G01*
X42762Y-9257D02*
G03*
X42762Y-9257I-203J0D01*
G01*
X42312Y9643D02*
G03*
X42312Y9643I-203J0D01*
G01*
X41862Y6943D02*
G03*
X41862Y6943I-203J0D01*
G01*
X42312Y6043D02*
G03*
X42312Y6043I-203J0D01*
G01*
X41862Y5143D02*
G03*
X41862Y5143I-203J0D01*
G01*
X42312Y4243D02*
G03*
X42312Y4243I-203J0D01*
G01*
X41862Y3343D02*
G03*
X41862Y3343I-203J0D01*
G01*
X42312Y-4757D02*
G03*
X42312Y-4757I-203J0D01*
G01*
X41862Y-5657D02*
G03*
X41862Y-5657I-203J0D01*
G01*
X42312Y-6557D02*
G03*
X42312Y-6557I-203J0D01*
G01*
Y-8357D02*
G03*
X42312Y-8357I-203J0D01*
G01*
X41862Y-9257D02*
G03*
X41862Y-9257I-203J0D01*
G01*
X41412Y9643D02*
G03*
X41412Y9643I-203J0D01*
G01*
X40962Y6943D02*
G03*
X40962Y6943I-203J0D01*
G01*
X41412Y6043D02*
G03*
X41412Y6043I-203J0D01*
G01*
X40962Y5143D02*
G03*
X40962Y5143I-203J0D01*
G01*
X41412Y4243D02*
G03*
X41412Y4243I-203J0D01*
G01*
X40962Y3343D02*
G03*
X40962Y3343I-203J0D01*
G01*
X41412Y-4757D02*
G03*
X41412Y-4757I-203J0D01*
G01*
Y-8357D02*
G03*
X41412Y-8357I-203J0D01*
G01*
X40962Y-9257D02*
G03*
X40962Y-9257I-203J0D01*
G01*
X40512Y9643D02*
G03*
X40512Y9643I-203J0D01*
G01*
X40062Y6943D02*
G03*
X40062Y6943I-203J0D01*
G01*
X40512Y6043D02*
G03*
X40512Y6043I-203J0D01*
G01*
X40062Y5143D02*
G03*
X40062Y5143I-203J0D01*
G01*
X40512Y4243D02*
G03*
X40512Y4243I-203J0D01*
G01*
X40062Y3343D02*
G03*
X40062Y3343I-203J0D01*
G01*
X40512Y-4757D02*
G03*
X40512Y-4757I-203J0D01*
G01*
Y-8357D02*
G03*
X40512Y-8357I-203J0D01*
G01*
X40062Y-9257D02*
G03*
X40062Y-9257I-203J0D01*
G01*
X39612Y9643D02*
G03*
X39612Y9643I-203J0D01*
G01*
Y6043D02*
G03*
X39612Y6043I-203J0D01*
G01*
X39162Y5143D02*
G03*
X39162Y5143I-203J0D01*
G01*
X39612Y4243D02*
G03*
X39612Y4243I-203J0D01*
G01*
Y-4757D02*
G03*
X39612Y-4757I-203J0D01*
G01*
Y-8357D02*
G03*
X39612Y-8357I-203J0D01*
G01*
X39162Y-9257D02*
G03*
X39162Y-9257I-203J0D01*
G01*
X38712Y9643D02*
G03*
X38712Y9643I-203J0D01*
G01*
X38262Y6943D02*
G03*
X38262Y6943I-203J0D01*
G01*
X38712Y4243D02*
G03*
X38712Y4243I-203J0D01*
G01*
Y-4757D02*
G03*
X38712Y-4757I-203J0D01*
G01*
Y-8357D02*
G03*
X38712Y-8357I-203J0D01*
G01*
X38262Y-9257D02*
G03*
X38262Y-9257I-203J0D01*
G01*
X37812Y15043D02*
G03*
X37812Y15043I-203J0D01*
G01*
Y9643D02*
G03*
X37812Y9643I-203J0D01*
G01*
X37362Y5143D02*
G03*
X37362Y5143I-203J0D01*
G01*
X37812Y-4757D02*
G03*
X37812Y-4757I-203J0D01*
G01*
Y-8357D02*
G03*
X37812Y-8357I-203J0D01*
G01*
X37362Y-9257D02*
G03*
X37362Y-9257I-203J0D01*
G01*
X36912Y9643D02*
G03*
X36912Y9643I-203J0D01*
G01*
Y-4757D02*
G03*
X36912Y-4757I-203J0D01*
G01*
Y-8357D02*
G03*
X36912Y-8357I-203J0D01*
G01*
X36462Y-9257D02*
G03*
X36462Y-9257I-203J0D01*
G01*
X36012Y9643D02*
G03*
X36012Y9643I-203J0D01*
G01*
X35562Y5143D02*
G03*
X35562Y5143I-203J0D01*
G01*
X36012Y-4757D02*
G03*
X36012Y-4757I-203J0D01*
G01*
X35562Y-9257D02*
G03*
X35562Y-9257I-203J0D01*
G01*
X35112Y15043D02*
G03*
X35112Y15043I-203J0D01*
G01*
X34212Y9643D02*
G03*
X34212Y9643I-203J0D01*
G01*
X28812Y-15557D02*
G03*
X28812Y-15557I-203J0D01*
G01*
X24762Y12343D02*
G03*
X24762Y12343I-203J0D01*
G01*
X21612Y9643D02*
G03*
X21612Y9643I-203J0D01*
G01*
X20262Y8743D02*
G03*
X20262Y8743I-203J0D01*
G01*
Y-12857D02*
G03*
X20262Y-12857I-203J0D01*
G01*
X19812Y9643D02*
G03*
X19812Y9643I-203J0D01*
G01*
Y7843D02*
G03*
X19812Y7843I-203J0D01*
G01*
X18912Y9643D02*
G03*
X18912Y9643I-203J0D01*
G01*
X18462Y8743D02*
G03*
X18462Y8743I-203J0D01*
G01*
X18912Y7843D02*
G03*
X18912Y7843I-203J0D01*
G01*
X18012Y9643D02*
G03*
X18012Y9643I-203J0D01*
G01*
X17562Y8743D02*
G03*
X17562Y8743I-203J0D01*
G01*
X18012Y6043D02*
G03*
X18012Y6043I-203J0D01*
G01*
X17562Y5143D02*
G03*
X17562Y5143I-203J0D01*
G01*
Y3343D02*
G03*
X17562Y3343I-203J0D01*
G01*
Y1543D02*
G03*
X17562Y1543I-203J0D01*
G01*
X17112Y9643D02*
G03*
X17112Y9643I-203J0D01*
G01*
Y7843D02*
G03*
X17112Y7843I-203J0D01*
G01*
X16662Y6943D02*
G03*
X16662Y6943I-203J0D01*
G01*
Y5143D02*
G03*
X16662Y5143I-203J0D01*
G01*
X17112Y2443D02*
G03*
X17112Y2443I-203J0D01*
G01*
X16662Y1543D02*
G03*
X16662Y1543I-203J0D01*
G01*
X16212Y9643D02*
G03*
X16212Y9643I-203J0D01*
G01*
X15762Y8743D02*
G03*
X15762Y8743I-203J0D01*
G01*
X16212Y7843D02*
G03*
X16212Y7843I-203J0D01*
G01*
Y4243D02*
G03*
X16212Y4243I-203J0D01*
G01*
X15762Y3343D02*
G03*
X15762Y3343I-203J0D01*
G01*
X14862Y8743D02*
G03*
X14862Y8743I-203J0D01*
G01*
X15312Y6043D02*
G03*
X15312Y6043I-203J0D01*
G01*
Y4243D02*
G03*
X15312Y4243I-203J0D01*
G01*
X14862Y3343D02*
G03*
X14862Y3343I-203J0D01*
G01*
Y-3857D02*
G03*
X14862Y-3857I-203J0D01*
G01*
Y-5657D02*
G03*
X14862Y-5657I-203J0D01*
G01*
Y-7457D02*
G03*
X14862Y-7457I-203J0D01*
G01*
Y-12857D02*
G03*
X14862Y-12857I-203J0D01*
G01*
X13962Y8743D02*
G03*
X13962Y8743I-203J0D01*
G01*
X14412Y7843D02*
G03*
X14412Y7843I-203J0D01*
G01*
X13962Y6943D02*
G03*
X13962Y6943I-203J0D01*
G01*
X14412Y6043D02*
G03*
X14412Y6043I-203J0D01*
G01*
Y4243D02*
G03*
X14412Y4243I-203J0D01*
G01*
X13962Y3343D02*
G03*
X13962Y3343I-203J0D01*
G01*
Y-257D02*
G03*
X13962Y-257I-203J0D01*
G01*
X14412Y-4757D02*
G03*
X14412Y-4757I-203J0D01*
G01*
X13962Y-5657D02*
G03*
X13962Y-5657I-203J0D01*
G01*
X14412Y-6557D02*
G03*
X14412Y-6557I-203J0D01*
G01*
X13962Y-7457D02*
G03*
X13962Y-7457I-203J0D01*
G01*
X13512Y7843D02*
G03*
X13512Y7843I-203J0D01*
G01*
Y6043D02*
G03*
X13512Y6043I-203J0D01*
G01*
X13062Y5143D02*
G03*
X13062Y5143I-203J0D01*
G01*
Y1543D02*
G03*
X13062Y1543I-203J0D01*
G01*
X13512Y643D02*
G03*
X13512Y643I-203J0D01*
G01*
X13062Y-257D02*
G03*
X13062Y-257I-203J0D01*
G01*
X13512Y-1157D02*
G03*
X13512Y-1157I-203J0D01*
G01*
X13062Y-2057D02*
G03*
X13062Y-2057I-203J0D01*
G01*
X13512Y-4757D02*
G03*
X13512Y-4757I-203J0D01*
G01*
Y-6557D02*
G03*
X13512Y-6557I-203J0D01*
G01*
X12612Y15043D02*
G03*
X12612Y15043I-203J0D01*
G01*
Y4243D02*
G03*
X12612Y4243I-203J0D01*
G01*
Y643D02*
G03*
X12612Y643I-203J0D01*
G01*
Y-1157D02*
G03*
X12612Y-1157I-203J0D01*
G01*
Y-2957D02*
G03*
X12612Y-2957I-203J0D01*
G01*
Y-4757D02*
G03*
X12612Y-4757I-203J0D01*
G01*
Y-6557D02*
G03*
X12612Y-6557I-203J0D01*
G01*
X10362Y-11057D02*
G03*
X10362Y-11057I-203J0D01*
G01*
X9912Y15043D02*
G03*
X9912Y15043I-203J0D01*
G01*
X9462Y-9257D02*
G03*
X9462Y-9257I-203J0D01*
G01*
Y-11057D02*
G03*
X9462Y-11057I-203J0D01*
G01*
X9912Y-11957D02*
G03*
X9912Y-11957I-203J0D01*
G01*
X9462Y-12857D02*
G03*
X9462Y-12857I-203J0D01*
G01*
X8562Y5143D02*
G03*
X8562Y5143I-203J0D01*
G01*
Y3343D02*
G03*
X8562Y3343I-203J0D01*
G01*
X9012Y2443D02*
G03*
X9012Y2443I-203J0D01*
G01*
X8562Y1543D02*
G03*
X8562Y1543I-203J0D01*
G01*
X9012Y643D02*
G03*
X9012Y643I-203J0D01*
G01*
X8562Y-257D02*
G03*
X8562Y-257I-203J0D01*
G01*
X9012Y-1157D02*
G03*
X9012Y-1157I-203J0D01*
G01*
X8562Y-2057D02*
G03*
X8562Y-2057I-203J0D01*
G01*
X9012Y-2957D02*
G03*
X9012Y-2957I-203J0D01*
G01*
X8562Y-3857D02*
G03*
X8562Y-3857I-203J0D01*
G01*
X9012Y-8357D02*
G03*
X9012Y-8357I-203J0D01*
G01*
X8562Y-9257D02*
G03*
X8562Y-9257I-203J0D01*
G01*
Y-11057D02*
G03*
X8562Y-11057I-203J0D01*
G01*
X9012Y-11957D02*
G03*
X9012Y-11957I-203J0D01*
G01*
X7662Y8743D02*
G03*
X7662Y8743I-203J0D01*
G01*
Y5143D02*
G03*
X7662Y5143I-203J0D01*
G01*
X8112Y4243D02*
G03*
X8112Y4243I-203J0D01*
G01*
X7662Y3343D02*
G03*
X7662Y3343I-203J0D01*
G01*
X8112Y2443D02*
G03*
X8112Y2443I-203J0D01*
G01*
X7662Y1543D02*
G03*
X7662Y1543I-203J0D01*
G01*
X8112Y643D02*
G03*
X8112Y643I-203J0D01*
G01*
X7662Y-257D02*
G03*
X7662Y-257I-203J0D01*
G01*
X8112Y-1157D02*
G03*
X8112Y-1157I-203J0D01*
G01*
X7662Y-2057D02*
G03*
X7662Y-2057I-203J0D01*
G01*
X8112Y-2957D02*
G03*
X8112Y-2957I-203J0D01*
G01*
X7662Y-3857D02*
G03*
X7662Y-3857I-203J0D01*
G01*
Y-5657D02*
G03*
X7662Y-5657I-203J0D01*
G01*
X8112Y-8357D02*
G03*
X8112Y-8357I-203J0D01*
G01*
X7662Y-9257D02*
G03*
X7662Y-9257I-203J0D01*
G01*
Y-11057D02*
G03*
X7662Y-11057I-203J0D01*
G01*
X8112Y-11957D02*
G03*
X8112Y-11957I-203J0D01*
G01*
X7662Y-12857D02*
G03*
X7662Y-12857I-203J0D01*
G01*
X6762Y12343D02*
G03*
X6762Y12343I-203J0D01*
G01*
Y10543D02*
G03*
X6762Y10543I-203J0D01*
G01*
Y8743D02*
G03*
X6762Y8743I-203J0D01*
G01*
X7212Y7843D02*
G03*
X7212Y7843I-203J0D01*
G01*
X6762Y5143D02*
G03*
X6762Y5143I-203J0D01*
G01*
X7212Y4243D02*
G03*
X7212Y4243I-203J0D01*
G01*
X6762Y3343D02*
G03*
X6762Y3343I-203J0D01*
G01*
X7212Y2443D02*
G03*
X7212Y2443I-203J0D01*
G01*
X6762Y1543D02*
G03*
X6762Y1543I-203J0D01*
G01*
X7212Y643D02*
G03*
X7212Y643I-203J0D01*
G01*
X6762Y-257D02*
G03*
X6762Y-257I-203J0D01*
G01*
X7212Y-1157D02*
G03*
X7212Y-1157I-203J0D01*
G01*
X6762Y-2057D02*
G03*
X6762Y-2057I-203J0D01*
G01*
X7212Y-2957D02*
G03*
X7212Y-2957I-203J0D01*
G01*
X6762Y-3857D02*
G03*
X6762Y-3857I-203J0D01*
G01*
X7212Y-6557D02*
G03*
X7212Y-6557I-203J0D01*
G01*
Y-8357D02*
G03*
X7212Y-8357I-203J0D01*
G01*
X6762Y-9257D02*
G03*
X6762Y-9257I-203J0D01*
G01*
X7212Y-11957D02*
G03*
X7212Y-11957I-203J0D01*
G01*
X5862Y12343D02*
G03*
X5862Y12343I-203J0D01*
G01*
X6312Y11443D02*
G03*
X6312Y11443I-203J0D01*
G01*
Y6043D02*
G03*
X6312Y6043I-203J0D01*
G01*
X5862Y5143D02*
G03*
X5862Y5143I-203J0D01*
G01*
X6312Y4243D02*
G03*
X6312Y4243I-203J0D01*
G01*
X5862Y3343D02*
G03*
X5862Y3343I-203J0D01*
G01*
X6312Y2443D02*
G03*
X6312Y2443I-203J0D01*
G01*
X5862Y1543D02*
G03*
X5862Y1543I-203J0D01*
G01*
X6312Y643D02*
G03*
X6312Y643I-203J0D01*
G01*
X5862Y-257D02*
G03*
X5862Y-257I-203J0D01*
G01*
X6312Y-1157D02*
G03*
X6312Y-1157I-203J0D01*
G01*
X5862Y-2057D02*
G03*
X5862Y-2057I-203J0D01*
G01*
X6312Y-2957D02*
G03*
X6312Y-2957I-203J0D01*
G01*
X5862Y-3857D02*
G03*
X5862Y-3857I-203J0D01*
G01*
Y-5657D02*
G03*
X5862Y-5657I-203J0D01*
G01*
X6312Y-11957D02*
G03*
X6312Y-11957I-203J0D01*
G01*
Y-15557D02*
G03*
X6312Y-15557I-203J0D01*
G01*
X4962Y5143D02*
G03*
X4962Y5143I-203J0D01*
G01*
X5412Y4243D02*
G03*
X5412Y4243I-203J0D01*
G01*
X4962Y3343D02*
G03*
X4962Y3343I-203J0D01*
G01*
X5412Y2443D02*
G03*
X5412Y2443I-203J0D01*
G01*
X4962Y1543D02*
G03*
X4962Y1543I-203J0D01*
G01*
X5412Y643D02*
G03*
X5412Y643I-203J0D01*
G01*
X4962Y-257D02*
G03*
X4962Y-257I-203J0D01*
G01*
X5412Y-1157D02*
G03*
X5412Y-1157I-203J0D01*
G01*
X4962Y-2057D02*
G03*
X4962Y-2057I-203J0D01*
G01*
X5412Y-2957D02*
G03*
X5412Y-2957I-203J0D01*
G01*
X4962Y-3857D02*
G03*
X4962Y-3857I-203J0D01*
G01*
X5412Y-4757D02*
G03*
X5412Y-4757I-203J0D01*
G01*
X4962Y-5657D02*
G03*
X4962Y-5657I-203J0D01*
G01*
X5412Y-11957D02*
G03*
X5412Y-11957I-203J0D01*
G01*
X4962Y-12857D02*
G03*
X4962Y-12857I-203J0D01*
G01*
X5412Y-15557D02*
G03*
X5412Y-15557I-203J0D01*
G01*
X4512Y15043D02*
G03*
X4512Y15043I-203J0D01*
G01*
X4062Y14143D02*
G03*
X4062Y14143I-203J0D01*
G01*
X4512Y13243D02*
G03*
X4512Y13243I-203J0D01*
G01*
X4062Y12343D02*
G03*
X4062Y12343I-203J0D01*
G01*
X4512Y11443D02*
G03*
X4512Y11443I-203J0D01*
G01*
X4062Y5143D02*
G03*
X4062Y5143I-203J0D01*
G01*
X4512Y4243D02*
G03*
X4512Y4243I-203J0D01*
G01*
X4062Y3343D02*
G03*
X4062Y3343I-203J0D01*
G01*
X4512Y2443D02*
G03*
X4512Y2443I-203J0D01*
G01*
X4062Y1543D02*
G03*
X4062Y1543I-203J0D01*
G01*
X4512Y643D02*
G03*
X4512Y643I-203J0D01*
G01*
X4062Y-257D02*
G03*
X4062Y-257I-203J0D01*
G01*
X4512Y-1157D02*
G03*
X4512Y-1157I-203J0D01*
G01*
X4062Y-2057D02*
G03*
X4062Y-2057I-203J0D01*
G01*
X4512Y-2957D02*
G03*
X4512Y-2957I-203J0D01*
G01*
X4062Y-3857D02*
G03*
X4062Y-3857I-203J0D01*
G01*
X4512Y-4757D02*
G03*
X4512Y-4757I-203J0D01*
G01*
X4062Y-5657D02*
G03*
X4062Y-5657I-203J0D01*
G01*
Y-11057D02*
G03*
X4062Y-11057I-203J0D01*
G01*
X4512Y-11957D02*
G03*
X4512Y-11957I-203J0D01*
G01*
X4062Y-12857D02*
G03*
X4062Y-12857I-203J0D01*
G01*
Y-14657D02*
G03*
X4062Y-14657I-203J0D01*
G01*
X4512Y-15557D02*
G03*
X4512Y-15557I-203J0D01*
G01*
X3612Y15043D02*
G03*
X3612Y15043I-203J0D01*
G01*
Y13243D02*
G03*
X3612Y13243I-203J0D01*
G01*
X3162Y12343D02*
G03*
X3162Y12343I-203J0D01*
G01*
X3612Y11443D02*
G03*
X3612Y11443I-203J0D01*
G01*
X3162Y10543D02*
G03*
X3162Y10543I-203J0D01*
G01*
X3612Y9643D02*
G03*
X3612Y9643I-203J0D01*
G01*
X3162Y8743D02*
G03*
X3162Y8743I-203J0D01*
G01*
X3612Y7843D02*
G03*
X3612Y7843I-203J0D01*
G01*
X3162Y6943D02*
G03*
X3162Y6943I-203J0D01*
G01*
X3612Y6043D02*
G03*
X3612Y6043I-203J0D01*
G01*
X3162Y5143D02*
G03*
X3162Y5143I-203J0D01*
G01*
X3612Y4243D02*
G03*
X3612Y4243I-203J0D01*
G01*
X3162Y3343D02*
G03*
X3162Y3343I-203J0D01*
G01*
X3612Y2443D02*
G03*
X3612Y2443I-203J0D01*
G01*
X3162Y1543D02*
G03*
X3162Y1543I-203J0D01*
G01*
X3612Y643D02*
G03*
X3612Y643I-203J0D01*
G01*
X3162Y-257D02*
G03*
X3162Y-257I-203J0D01*
G01*
X3612Y-1157D02*
G03*
X3612Y-1157I-203J0D01*
G01*
X3162Y-2057D02*
G03*
X3162Y-2057I-203J0D01*
G01*
X3612Y-2957D02*
G03*
X3612Y-2957I-203J0D01*
G01*
X3162Y-3857D02*
G03*
X3162Y-3857I-203J0D01*
G01*
X3612Y-4757D02*
G03*
X3612Y-4757I-203J0D01*
G01*
X3162Y-5657D02*
G03*
X3162Y-5657I-203J0D01*
G01*
X3612Y-6557D02*
G03*
X3612Y-6557I-203J0D01*
G01*
X3162Y-7457D02*
G03*
X3162Y-7457I-203J0D01*
G01*
X3612Y-8357D02*
G03*
X3612Y-8357I-203J0D01*
G01*
X3162Y-9257D02*
G03*
X3162Y-9257I-203J0D01*
G01*
X3612Y-10157D02*
G03*
X3612Y-10157I-203J0D01*
G01*
X3162Y-11057D02*
G03*
X3162Y-11057I-203J0D01*
G01*
X3612Y-11957D02*
G03*
X3612Y-11957I-203J0D01*
G01*
X3162Y-12857D02*
G03*
X3162Y-12857I-203J0D01*
G01*
Y-14657D02*
G03*
X3162Y-14657I-203J0D01*
G01*
X3612Y-15557D02*
G03*
X3612Y-15557I-203J0D01*
G01*
X2712Y13243D02*
G03*
X2712Y13243I-203J0D01*
G01*
X2262Y12343D02*
G03*
X2262Y12343I-203J0D01*
G01*
X2712Y11443D02*
G03*
X2712Y11443I-203J0D01*
G01*
X2262Y10543D02*
G03*
X2262Y10543I-203J0D01*
G01*
X2712Y9643D02*
G03*
X2712Y9643I-203J0D01*
G01*
X2262Y8743D02*
G03*
X2262Y8743I-203J0D01*
G01*
X2712Y7843D02*
G03*
X2712Y7843I-203J0D01*
G01*
X2262Y6943D02*
G03*
X2262Y6943I-203J0D01*
G01*
X2712Y6043D02*
G03*
X2712Y6043I-203J0D01*
G01*
X2262Y5143D02*
G03*
X2262Y5143I-203J0D01*
G01*
X2712Y4243D02*
G03*
X2712Y4243I-203J0D01*
G01*
X2262Y3343D02*
G03*
X2262Y3343I-203J0D01*
G01*
X2712Y2443D02*
G03*
X2712Y2443I-203J0D01*
G01*
X2262Y1543D02*
G03*
X2262Y1543I-203J0D01*
G01*
X2712Y643D02*
G03*
X2712Y643I-203J0D01*
G01*
X2262Y-257D02*
G03*
X2262Y-257I-203J0D01*
G01*
X2712Y-1157D02*
G03*
X2712Y-1157I-203J0D01*
G01*
X2262Y-2057D02*
G03*
X2262Y-2057I-203J0D01*
G01*
X2712Y-2957D02*
G03*
X2712Y-2957I-203J0D01*
G01*
X2262Y-3857D02*
G03*
X2262Y-3857I-203J0D01*
G01*
X2712Y-4757D02*
G03*
X2712Y-4757I-203J0D01*
G01*
X2262Y-5657D02*
G03*
X2262Y-5657I-203J0D01*
G01*
X2712Y-6557D02*
G03*
X2712Y-6557I-203J0D01*
G01*
X2262Y-7457D02*
G03*
X2262Y-7457I-203J0D01*
G01*
X2712Y-8357D02*
G03*
X2712Y-8357I-203J0D01*
G01*
X2262Y-9257D02*
G03*
X2262Y-9257I-203J0D01*
G01*
X2712Y-10157D02*
G03*
X2712Y-10157I-203J0D01*
G01*
X2262Y-11057D02*
G03*
X2262Y-11057I-203J0D01*
G01*
X2712Y-11957D02*
G03*
X2712Y-11957I-203J0D01*
G01*
X2262Y-12857D02*
G03*
X2262Y-12857I-203J0D01*
G01*
X2712Y-13757D02*
G03*
X2712Y-13757I-203J0D01*
G01*
X2262Y-14657D02*
G03*
X2262Y-14657I-203J0D01*
G01*
X2712Y-15557D02*
G03*
X2712Y-15557I-203J0D01*
G01*
X1812Y13243D02*
G03*
X1812Y13243I-203J0D01*
G01*
Y11443D02*
G03*
X1812Y11443I-203J0D01*
G01*
Y9643D02*
G03*
X1812Y9643I-203J0D01*
G01*
Y7843D02*
G03*
X1812Y7843I-203J0D01*
G01*
Y6043D02*
G03*
X1812Y6043I-203J0D01*
G01*
Y4243D02*
G03*
X1812Y4243I-203J0D01*
G01*
Y2443D02*
G03*
X1812Y2443I-203J0D01*
G01*
Y643D02*
G03*
X1812Y643I-203J0D01*
G01*
Y-1157D02*
G03*
X1812Y-1157I-203J0D01*
G01*
Y-2957D02*
G03*
X1812Y-2957I-203J0D01*
G01*
Y-4757D02*
G03*
X1812Y-4757I-203J0D01*
G01*
Y-6557D02*
G03*
X1812Y-6557I-203J0D01*
G01*
Y-8357D02*
G03*
X1812Y-8357I-203J0D01*
G01*
Y-10157D02*
G03*
X1812Y-10157I-203J0D01*
G01*
Y-11957D02*
G03*
X1812Y-11957I-203J0D01*
G01*
Y-13757D02*
G03*
X1812Y-13757I-203J0D01*
G01*
Y-15557D02*
G03*
X1812Y-15557I-203J0D01*
G01*
X36551Y-2251D02*
G03*
X36551Y-2251I-203J0D01*
G01*
X26251Y-4408D02*
G03*
X26251Y-4408I-203J0D01*
G01*
X35586Y3882D02*
G03*
X35586Y3882I-203J0D01*
G01*
X36530Y1896D02*
G03*
X36530Y1896I-203J0D01*
G01*
X36599Y2893D02*
G03*
X36599Y2893I-203J0D01*
G01*
X62102Y2819D02*
G03*
X62102Y2819I-203J0D01*
G01*
X62133Y-2845D02*
G03*
X62133Y-2845I-203J0D01*
G01*
X45605Y-6230D02*
G03*
X45605Y-6230I-203J0D01*
G01*
X46265Y-1175D02*
G03*
X46265Y-1175I-203J0D01*
G01*
X48784Y904D02*
G03*
X48784Y904I-203J0D01*
G01*
X49081Y-717D02*
G03*
X49081Y-717I-203J0D01*
G01*
X49616Y-1066D02*
G03*
X49616Y-1066I-203J0D01*
G01*
X50359D02*
G03*
X50359Y-1066I-203J0D01*
G01*
X47631Y-1000D02*
G03*
X47631Y-1000I-203J0D01*
G01*
X47447Y-1632D02*
G03*
X47447Y-1632I-203J0D01*
G01*
X50833Y-1462D02*
G03*
X50833Y-1462I-203J0D01*
G01*
X53332Y-1066D02*
G03*
X53332Y-1066I-203J0D01*
G01*
X52589D02*
G03*
X52589Y-1066I-203J0D01*
G01*
X54818D02*
G03*
X54818Y-1066I-203J0D01*
G01*
X54075D02*
G03*
X54075Y-1066I-203J0D01*
G01*
X56304D02*
G03*
X56304Y-1066I-203J0D01*
G01*
X55561D02*
G03*
X55561Y-1066I-203J0D01*
G01*
X61466Y-1405D02*
G03*
X61466Y-1405I-203J0D01*
G01*
X62210D02*
G03*
X62210Y-1405I-203J0D01*
G01*
X59980D02*
G03*
X59980Y-1405I-203J0D01*
G01*
X60723D02*
G03*
X60723Y-1405I-203J0D01*
G01*
X58494D02*
G03*
X58494Y-1405I-203J0D01*
G01*
X59237D02*
G03*
X59237Y-1405I-203J0D01*
G01*
X56948Y-1066D02*
G03*
X56948Y-1066I-203J0D01*
G01*
X52093Y-1462D02*
G03*
X52093Y-1462I-203J0D01*
G01*
X59233Y1456D02*
G03*
X59233Y1456I-203J0D01*
G01*
X58490D02*
G03*
X58490Y1456I-203J0D01*
G01*
X60719D02*
G03*
X60719Y1456I-203J0D01*
G01*
X59976D02*
G03*
X59976Y1456I-203J0D01*
G01*
X62206D02*
G03*
X62206Y1456I-203J0D01*
G01*
X61462D02*
G03*
X61462Y1456I-203J0D01*
G01*
X57911Y1139D02*
G03*
X57911Y1139I-203J0D01*
G01*
X56525D02*
G03*
X56525Y1139I-203J0D01*
G01*
X57268D02*
G03*
X57268Y1139I-203J0D01*
G01*
X55039D02*
G03*
X55039Y1139I-203J0D01*
G01*
X55782D02*
G03*
X55782Y1139I-203J0D01*
G01*
X53553D02*
G03*
X53553Y1139I-203J0D01*
G01*
X54296D02*
G03*
X54296Y1139I-203J0D01*
G01*
X52166D02*
G03*
X52166Y1139I-203J0D01*
G01*
X52910D02*
G03*
X52910Y1139I-203J0D01*
G01*
X50680D02*
G03*
X50680Y1139I-203J0D01*
G01*
X51423D02*
G03*
X51423Y1139I-203J0D01*
G01*
X49937D02*
G03*
X49937Y1139I-203J0D01*
G01*
X49245Y1224D02*
G03*
X49245Y1224I-203J0D01*
G01*
X43322Y1116D02*
G03*
X43322Y1116I-203J0D01*
G01*
X42579D02*
G03*
X42579Y1116I-203J0D01*
G01*
X44709D02*
G03*
X44709Y1116I-203J0D01*
G01*
X43966D02*
G03*
X43966Y1116I-203J0D01*
G01*
X46195D02*
G03*
X46195Y1116I-203J0D01*
G01*
X45452D02*
G03*
X45452Y1116I-203J0D01*
G01*
X46938D02*
G03*
X46938Y1116I-203J0D01*
G01*
X45628Y-1047D02*
G03*
X45628Y-1047I-203J0D01*
G01*
X44142D02*
G03*
X44142Y-1047I-203J0D01*
G01*
X44885D02*
G03*
X44885Y-1047I-203J0D01*
G01*
X42655D02*
G03*
X42655Y-1047I-203J0D01*
G01*
X43398D02*
G03*
X43398Y-1047I-203J0D01*
G01*
X41269D02*
G03*
X41269Y-1047I-203J0D01*
G01*
X42012D02*
G03*
X42012Y-1047I-203J0D01*
G01*
X39783D02*
G03*
X39783Y-1047I-203J0D01*
G01*
X40526D02*
G03*
X40526Y-1047I-203J0D01*
G01*
X39040D02*
G03*
X39040Y-1047I-203J0D01*
G01*
X36359Y-751D02*
G03*
X36359Y-751I-203J0D01*
G01*
X38297Y-1047D02*
G03*
X38297Y-1047I-203J0D01*
G01*
X35577Y-751D02*
G03*
X35577Y-751I-203J0D01*
G01*
X39914Y2400D02*
G03*
X39914Y2400I-203J0D01*
G01*
X38428D02*
G03*
X38428Y2400I-203J0D01*
G01*
X39171D02*
G03*
X39171Y2400I-203J0D01*
G01*
X37685D02*
G03*
X37685Y2400I-203J0D01*
G01*
X37150Y1114D02*
G03*
X37150Y1114I-203J0D01*
G01*
Y1857D02*
G03*
X37150Y1857I-203J0D01*
G01*
X36468Y1161D02*
G03*
X36468Y1161I-203J0D01*
G01*
X37829Y-1439D02*
G03*
X37829Y-1439I-203J0D01*
G01*
X36568D02*
G03*
X36568Y-1439I-203J0D01*
G01*
X37172Y-1648D02*
G03*
X37172Y-1648I-203J0D01*
G01*
X51423Y-1610D02*
G03*
X51423Y-1610I-203J0D01*
G01*
X38040Y-2466D02*
G03*
X38040Y-2466I-203J0D01*
G01*
X38783D02*
G03*
X38783Y-2466I-203J0D01*
G01*
X40269D02*
G03*
X40269Y-2466I-203J0D01*
G01*
X39526D02*
G03*
X39526Y-2466I-203J0D01*
G01*
X41755D02*
G03*
X41755Y-2466I-203J0D01*
G01*
X41012D02*
G03*
X41012Y-2466I-203J0D01*
G01*
X43142D02*
G03*
X43142Y-2466I-203J0D01*
G01*
X42399D02*
G03*
X42399Y-2466I-203J0D01*
G01*
X44628D02*
G03*
X44628Y-2466I-203J0D01*
G01*
X43885D02*
G03*
X43885Y-2466I-203J0D01*
G01*
X38015Y-3575D02*
G03*
X38015Y-3575I-203J0D01*
G01*
X38758D02*
G03*
X38758Y-3575I-203J0D01*
G01*
X40244D02*
G03*
X40244Y-3575I-203J0D01*
G01*
X39501D02*
G03*
X39501Y-3575I-203J0D01*
G01*
X41730D02*
G03*
X41730Y-3575I-203J0D01*
G01*
X40987D02*
G03*
X40987Y-3575I-203J0D01*
G01*
X43117D02*
G03*
X43117Y-3575I-203J0D01*
G01*
X42374D02*
G03*
X42374Y-3575I-203J0D01*
G01*
X43860D02*
G03*
X43860Y-3575I-203J0D01*
G01*
X45335Y-3446D02*
G03*
X45335Y-3446I-203J0D01*
G01*
X44603Y-3575D02*
G03*
X44603Y-3575I-203J0D01*
G01*
X46008Y-3132D02*
G03*
X46008Y-3132I-203J0D01*
G01*
X46578Y-2654D02*
G03*
X46578Y-2654I-203J0D01*
G01*
X47103Y-2129D02*
G03*
X47103Y-2129I-203J0D01*
G01*
X45871Y-1674D02*
G03*
X45871Y-1674I-203J0D01*
G01*
X45301Y-2152D02*
G03*
X45301Y-2152I-203J0D01*
G01*
X36742Y-3979D02*
G03*
X36742Y-3979I-203J0D01*
G01*
X37485D02*
G03*
X37485Y-3979I-203J0D01*
G01*
X35256D02*
G03*
X35256Y-3979I-203J0D01*
G01*
X35999D02*
G03*
X35999Y-3979I-203J0D01*
G01*
X34513D02*
G03*
X34513Y-3979I-203J0D01*
G01*
X35807Y-2251D02*
G03*
X35807Y-2251I-203J0D01*
G01*
X45081Y1648D02*
G03*
X45081Y1648I-203J0D01*
G01*
X45824D02*
G03*
X45824Y1648I-203J0D01*
G01*
X43594D02*
G03*
X43594Y1648I-203J0D01*
G01*
X44337D02*
G03*
X44337Y1648I-203J0D01*
G01*
X42951D02*
G03*
X42951Y1648I-203J0D01*
G01*
X38085Y2893D02*
G03*
X38085Y2893I-203J0D01*
G01*
X37342D02*
G03*
X37342Y2893I-203J0D01*
G01*
X39571D02*
G03*
X39571Y2893I-203J0D01*
G01*
X38828D02*
G03*
X38828Y2893I-203J0D01*
G01*
X36942Y2400D02*
G03*
X36942Y2400I-203J0D01*
G01*
X46567Y1648D02*
G03*
X46567Y1648I-203J0D01*
G01*
X46252Y2152D02*
G03*
X46252Y2152I-203J0D01*
G01*
X41150D02*
G03*
X41150Y2152I-203J0D01*
G01*
X40407D02*
G03*
X40407Y2152I-203J0D01*
G01*
X42636D02*
G03*
X42636Y2152I-203J0D01*
G01*
X41893D02*
G03*
X41893Y2152I-203J0D01*
G01*
X44022D02*
G03*
X44022Y2152I-203J0D01*
G01*
X43279D02*
G03*
X43279Y2152I-203J0D01*
G01*
X45508D02*
G03*
X45508Y2152I-203J0D01*
G01*
X44765D02*
G03*
X44765Y2152I-203J0D01*
G01*
X44962Y-4069D02*
G03*
X44962Y-4069I-203J0D01*
G01*
X44219D02*
G03*
X44219Y-4069I-203J0D01*
G01*
X42733D02*
G03*
X42733Y-4069I-203J0D01*
G01*
X43476D02*
G03*
X43476Y-4069I-203J0D01*
G01*
X41346D02*
G03*
X41346Y-4069I-203J0D01*
G01*
X42089D02*
G03*
X42089Y-4069I-203J0D01*
G01*
X39860D02*
G03*
X39860Y-4069I-203J0D01*
G01*
X40603D02*
G03*
X40603Y-4069I-203J0D01*
G01*
X39117D02*
G03*
X39117Y-4069I-203J0D01*
G01*
X38374D02*
G03*
X38374Y-4069I-203J0D01*
G01*
X47052Y-3208D02*
G03*
X47052Y-3208I-203J0D01*
G01*
X44529Y-1734D02*
G03*
X44529Y-1734I-203J0D01*
G01*
X43043D02*
G03*
X43043Y-1734I-203J0D01*
G01*
X43786D02*
G03*
X43786Y-1734I-203J0D01*
G01*
X41657D02*
G03*
X41657Y-1734I-203J0D01*
G01*
X42400D02*
G03*
X42400Y-1734I-203J0D01*
G01*
X40170D02*
G03*
X40170Y-1734I-203J0D01*
G01*
X40913D02*
G03*
X40913Y-1734I-203J0D01*
G01*
X39427D02*
G03*
X39427Y-1734I-203J0D01*
G01*
X38684D02*
G03*
X38684Y-1734I-203J0D01*
G01*
X45221Y-1520D02*
G03*
X45221Y-1520I-203J0D01*
G01*
X57614Y1695D02*
G03*
X57614Y1695I-203J0D01*
G01*
X56128D02*
G03*
X56128Y1695I-203J0D01*
G01*
X56871D02*
G03*
X56871Y1695I-203J0D01*
G01*
X54642D02*
G03*
X54642Y1695I-203J0D01*
G01*
X55385D02*
G03*
X55385Y1695I-203J0D01*
G01*
X53255D02*
G03*
X53255Y1695I-203J0D01*
G01*
X53999D02*
G03*
X53999Y1695I-203J0D01*
G01*
X51769D02*
G03*
X51769Y1695I-203J0D01*
G01*
X52512D02*
G03*
X52512Y1695I-203J0D01*
G01*
X51026D02*
G03*
X51026Y1695I-203J0D01*
G01*
X50283D02*
G03*
X50283Y1695I-203J0D01*
G01*
X49540D02*
G03*
X49540Y1695I-203J0D01*
G01*
X52977Y-1646D02*
G03*
X52977Y-1646I-203J0D01*
G01*
X53720D02*
G03*
X53720Y-1646I-203J0D01*
G01*
X55206D02*
G03*
X55206Y-1646I-203J0D01*
G01*
X54463D02*
G03*
X54463Y-1646I-203J0D01*
G01*
X56693D02*
G03*
X56693Y-1646I-203J0D01*
G01*
X55950D02*
G03*
X55950Y-1646I-203J0D01*
G01*
X50003Y-1574D02*
G03*
X50003Y-1574I-203J0D01*
G01*
X58007Y-1727D02*
G03*
X58007Y-1727I-203J0D01*
G01*
X57363D02*
G03*
X57363Y-1727I-203J0D01*
G01*
X53367Y-2240D02*
G03*
X53367Y-2240I-203J0D01*
G01*
X54853D02*
G03*
X54853Y-2240I-203J0D01*
G01*
X54110Y-2240D02*
G03*
X54110Y-2240I-203J0D01*
G01*
X55596Y-2240D02*
G03*
X55596Y-2240I-203J0D01*
G01*
X56340D02*
G03*
X56340Y-2240I-203J0D01*
G01*
X57826Y-2240D02*
G03*
X57826Y-2240I-203J0D01*
G01*
X57083D02*
G03*
X57083Y-2240I-203J0D01*
G01*
X52624Y-2240D02*
G03*
X52624Y-2240I-203J0D01*
G01*
X51881Y-2240D02*
G03*
X51881Y-2240I-203J0D01*
G01*
X51138D02*
G03*
X51138Y-2240I-203J0D01*
G01*
X49651Y-2240D02*
G03*
X49651Y-2240I-203J0D01*
G01*
X50395Y-2240D02*
G03*
X50395Y-2240I-203J0D01*
G01*
X40350Y1116D02*
G03*
X40350Y1116I-203J0D01*
G01*
X41093D02*
G03*
X41093Y1116I-203J0D01*
G01*
X42208Y1648D02*
G03*
X42208Y1648I-203J0D01*
G01*
X40722D02*
G03*
X40722Y1648I-203J0D01*
G01*
X41465D02*
G03*
X41465Y1648I-203J0D01*
G01*
X41836Y1116D02*
G03*
X41836Y1116I-203J0D01*
G01*
X61309Y2833D02*
G03*
X61309Y2833I-203J0D01*
G01*
X58740Y2857D02*
G03*
X58740Y2857I-203J0D01*
G01*
X60450Y2857D02*
G03*
X60450Y2857I-203J0D01*
G01*
X59595Y2857D02*
G03*
X59595Y2857I-203J0D01*
G01*
X61315Y-2827D02*
G03*
X61315Y-2827I-203J0D01*
G01*
X58747Y-2803D02*
G03*
X58747Y-2803I-203J0D01*
G01*
X60456Y-2803D02*
G03*
X60456Y-2803I-203J0D01*
G01*
X59601Y-2803D02*
G03*
X59601Y-2803I-203J0D01*
G01*
X910Y-16381D02*
G03*
X910Y-16381I-203J0D01*
G01*
X1765D02*
G03*
X1765Y-16381I-203J0D01*
G01*
X2620D02*
G03*
X2620Y-16381I-203J0D01*
G01*
X4330D02*
G03*
X4330Y-16381I-203J0D01*
G01*
X6039D02*
G03*
X6039Y-16381I-203J0D01*
G01*
X5184D02*
G03*
X5184Y-16381I-203J0D01*
G01*
X3475D02*
G03*
X3475Y-16381I-203J0D01*
G01*
X935Y-13764D02*
G03*
X935Y-13764I-203J0D01*
G01*
X935Y-12054D02*
G03*
X935Y-12054I-203J0D01*
G01*
X935Y-11200D02*
G03*
X935Y-11200I-203J0D01*
G01*
X935Y-12909D02*
G03*
X935Y-12909I-203J0D01*
G01*
Y-14619D02*
G03*
X935Y-14619I-203J0D01*
G01*
Y-15474D02*
G03*
X935Y-15474I-203J0D01*
G01*
X959Y-10341D02*
G03*
X959Y-10341I-203J0D01*
G01*
Y-9486D02*
G03*
X959Y-9486I-203J0D01*
G01*
Y-7776D02*
G03*
X959Y-7776I-203J0D01*
G01*
X959Y-6067D02*
G03*
X959Y-6067I-203J0D01*
G01*
X959Y-6921D02*
G03*
X959Y-6921I-203J0D01*
G01*
X959Y-8631D02*
G03*
X959Y-8631I-203J0D01*
G01*
X1008Y1635D02*
G03*
X1008Y1635I-203J0D01*
G01*
X1008Y3345D02*
G03*
X1008Y3345I-203J0D01*
G01*
X1008Y4199D02*
G03*
X1008Y4199I-203J0D01*
G01*
X1008Y2490D02*
G03*
X1008Y2490I-203J0D01*
G01*
Y780D02*
G03*
X1008Y780I-203J0D01*
G01*
Y-75D02*
G03*
X1008Y-75I-203J0D01*
G01*
X983Y-5208D02*
G03*
X983Y-5208I-203J0D01*
G01*
Y-4353D02*
G03*
X983Y-4353I-203J0D01*
G01*
Y-2643D02*
G03*
X983Y-2643I-203J0D01*
G01*
X983Y-934D02*
G03*
X983Y-934I-203J0D01*
G01*
X983Y-1788D02*
G03*
X983Y-1788I-203J0D01*
G01*
X983Y-3498D02*
G03*
X983Y-3498I-203J0D01*
G01*
X1057Y11901D02*
G03*
X1057Y11901I-203J0D01*
G01*
X1057Y13610D02*
G03*
X1057Y13610I-203J0D01*
G01*
X1057Y14465D02*
G03*
X1057Y14465I-203J0D01*
G01*
X1057Y12756D02*
G03*
X1057Y12756I-203J0D01*
G01*
Y11046D02*
G03*
X1057Y11046I-203J0D01*
G01*
Y10191D02*
G03*
X1057Y10191I-203J0D01*
G01*
X1032Y5058D02*
G03*
X1032Y5058I-203J0D01*
G01*
Y5913D02*
G03*
X1032Y5913I-203J0D01*
G01*
Y7623D02*
G03*
X1032Y7623I-203J0D01*
G01*
X1032Y9332D02*
G03*
X1032Y9332I-203J0D01*
G01*
X1032Y8478D02*
G03*
X1032Y8478I-203J0D01*
G01*
X1032Y6768D02*
G03*
X1032Y6768I-203J0D01*
G01*
X1057Y15320D02*
G03*
X1057Y15320I-203J0D01*
G01*
X18874Y-16381D02*
G03*
X18874Y-16381I-203J0D01*
G01*
X20583D02*
G03*
X20583Y-16381I-203J0D01*
G01*
X21438D02*
G03*
X21438Y-16381I-203J0D01*
G01*
X19728D02*
G03*
X19728Y-16381I-203J0D01*
G01*
X18019D02*
G03*
X18019Y-16381I-203J0D01*
G01*
X17164D02*
G03*
X17164Y-16381I-203J0D01*
G01*
X22297D02*
G03*
X22297Y-16381I-203J0D01*
G01*
X23152D02*
G03*
X23152Y-16381I-203J0D01*
G01*
X24861D02*
G03*
X24861Y-16381I-203J0D01*
G01*
X26571D02*
G03*
X26571Y-16381I-203J0D01*
G01*
X25716D02*
G03*
X25716Y-16381I-203J0D01*
G01*
X24007D02*
G03*
X24007Y-16381I-203J0D01*
G01*
X13741D02*
G03*
X13741Y-16381I-203J0D01*
G01*
X15450D02*
G03*
X15450Y-16381I-203J0D01*
G01*
X16305D02*
G03*
X16305Y-16381I-203J0D01*
G01*
X14595D02*
G03*
X14595Y-16381I-203J0D01*
G01*
X12886D02*
G03*
X12886Y-16381I-203J0D01*
G01*
X12031D02*
G03*
X12031Y-16381I-203J0D01*
G01*
X6898D02*
G03*
X6898Y-16381I-203J0D01*
G01*
X7753D02*
G03*
X7753Y-16381I-203J0D01*
G01*
X9462D02*
G03*
X9462Y-16381I-203J0D01*
G01*
X11172D02*
G03*
X11172Y-16381I-203J0D01*
G01*
X10317D02*
G03*
X10317Y-16381I-203J0D01*
G01*
X8608D02*
G03*
X8608Y-16381I-203J0D01*
G01*
X39405D02*
G03*
X39405Y-16381I-203J0D01*
G01*
X41115D02*
G03*
X41115Y-16381I-203J0D01*
G01*
X41970D02*
G03*
X41970Y-16381I-203J0D01*
G01*
X40260D02*
G03*
X40260Y-16381I-203J0D01*
G01*
X38551D02*
G03*
X38551Y-16381I-203J0D01*
G01*
X37696D02*
G03*
X37696Y-16381I-203J0D01*
G01*
X42829D02*
G03*
X42829Y-16381I-203J0D01*
G01*
X43684D02*
G03*
X43684Y-16381I-203J0D01*
G01*
X45393D02*
G03*
X45393Y-16381I-203J0D01*
G01*
X47103D02*
G03*
X47103Y-16381I-203J0D01*
G01*
X46248D02*
G03*
X46248Y-16381I-203J0D01*
G01*
X44538D02*
G03*
X44538Y-16381I-203J0D01*
G01*
X34272D02*
G03*
X34272Y-16381I-203J0D01*
G01*
X35982D02*
G03*
X35982Y-16381I-203J0D01*
G01*
X36837D02*
G03*
X36837Y-16381I-203J0D01*
G01*
X35127D02*
G03*
X35127Y-16381I-203J0D01*
G01*
X33418D02*
G03*
X33418Y-16381I-203J0D01*
G01*
X32563D02*
G03*
X32563Y-16381I-203J0D01*
G01*
X27430D02*
G03*
X27430Y-16381I-203J0D01*
G01*
X28285D02*
G03*
X28285Y-16381I-203J0D01*
G01*
X29994D02*
G03*
X29994Y-16381I-203J0D01*
G01*
X31704D02*
G03*
X31704Y-16381I-203J0D01*
G01*
X30849D02*
G03*
X30849Y-16381I-203J0D01*
G01*
X29140D02*
G03*
X29140Y-16381I-203J0D01*
G01*
X59937D02*
G03*
X59937Y-16381I-203J0D01*
G01*
X61647D02*
G03*
X61647Y-16381I-203J0D01*
G01*
X60792D02*
G03*
X60792Y-16381I-203J0D01*
G01*
X59083D02*
G03*
X59083Y-16381I-203J0D01*
G01*
X58228D02*
G03*
X58228Y-16381I-203J0D01*
G01*
X54804D02*
G03*
X54804Y-16381I-203J0D01*
G01*
X56514D02*
G03*
X56514Y-16381I-203J0D01*
G01*
X57369D02*
G03*
X57369Y-16381I-203J0D01*
G01*
X55659D02*
G03*
X55659Y-16381I-203J0D01*
G01*
X53950D02*
G03*
X53950Y-16381I-203J0D01*
G01*
X53095D02*
G03*
X53095Y-16381I-203J0D01*
G01*
X47962D02*
G03*
X47962Y-16381I-203J0D01*
G01*
X48817D02*
G03*
X48817Y-16381I-203J0D01*
G01*
X50526D02*
G03*
X50526Y-16381I-203J0D01*
G01*
X52236D02*
G03*
X52236Y-16381I-203J0D01*
G01*
X51381D02*
G03*
X51381Y-16381I-203J0D01*
G01*
X49671D02*
G03*
X49671Y-16381I-203J0D01*
G01*
X62081Y-3919D02*
G03*
X62081Y-3919I-203J0D01*
G01*
X62081Y-5629D02*
G03*
X62081Y-5629I-203J0D01*
G01*
X62081Y-6483D02*
G03*
X62081Y-6483I-203J0D01*
G01*
X62081Y-4774D02*
G03*
X62081Y-4774I-203J0D01*
G01*
X62139Y-7346D02*
G03*
X62139Y-7346I-203J0D01*
G01*
X62139Y-8201D02*
G03*
X62139Y-8201I-203J0D01*
G01*
X62139Y-9911D02*
G03*
X62139Y-9911I-203J0D01*
G01*
X62139Y-11620D02*
G03*
X62139Y-11620I-203J0D01*
G01*
X62139Y-10766D02*
G03*
X62139Y-10766I-203J0D01*
G01*
X62139Y-9056D02*
G03*
X62139Y-9056I-203J0D01*
G01*
X62114Y-12479D02*
G03*
X62114Y-12479I-203J0D01*
G01*
X62114Y-13334D02*
G03*
X62114Y-13334I-203J0D01*
G01*
X62114Y-15044D02*
G03*
X62114Y-15044I-203J0D01*
G01*
X62114Y-15899D02*
G03*
X62114Y-15899I-203J0D01*
G01*
X62114Y-14189D02*
G03*
X62114Y-14189I-203J0D01*
G01*
X62134Y14690D02*
G03*
X62134Y14690I-203J0D01*
G01*
Y15544D02*
G03*
X62134Y15544I-203J0D01*
G01*
Y13835D02*
G03*
X62134Y13835I-203J0D01*
G01*
Y12980D02*
G03*
X62134Y12980I-203J0D01*
G01*
Y9557D02*
G03*
X62134Y9557I-203J0D01*
G01*
Y11266D02*
G03*
X62134Y11266I-203J0D01*
G01*
Y12121D02*
G03*
X62134Y12121I-203J0D01*
G01*
Y10412D02*
G03*
X62134Y10412I-203J0D01*
G01*
Y8702D02*
G03*
X62134Y8702I-203J0D01*
G01*
Y7847D02*
G03*
X62134Y7847I-203J0D01*
G01*
Y5279D02*
G03*
X62134Y5279I-203J0D01*
G01*
Y6988D02*
G03*
X62134Y6988I-203J0D01*
G01*
Y6133D02*
G03*
X62134Y6133I-203J0D01*
G01*
Y4424D02*
G03*
X62134Y4424I-203J0D01*
G01*
X13387Y16401D02*
G03*
X13387Y16401I-203J0D01*
G01*
X11677Y16401D02*
G03*
X11677Y16401I-203J0D01*
G01*
X10823Y16401D02*
G03*
X10823Y16401I-203J0D01*
G01*
X12532Y16401D02*
G03*
X12532Y16401I-203J0D01*
G01*
X14242Y16401D02*
G03*
X14242Y16401I-203J0D01*
G01*
X15097Y16401D02*
G03*
X15097Y16401I-203J0D01*
G01*
X9964Y16401D02*
G03*
X9964Y16401I-203J0D01*
G01*
X9109D02*
G03*
X9109Y16401I-203J0D01*
G01*
X7399Y16401D02*
G03*
X7399Y16401I-203J0D01*
G01*
X5690D02*
G03*
X5690Y16401I-203J0D01*
G01*
X6544Y16401D02*
G03*
X6544Y16401I-203J0D01*
G01*
X8254D02*
G03*
X8254Y16401I-203J0D01*
G01*
X4831Y16401D02*
G03*
X4831Y16401I-203J0D01*
G01*
X3976Y16401D02*
G03*
X3976Y16401I-203J0D01*
G01*
X2266D02*
G03*
X2266Y16401I-203J0D01*
G01*
X3121D02*
G03*
X3121Y16401I-203J0D01*
G01*
X33919Y16401D02*
G03*
X33919Y16401I-203J0D01*
G01*
X32209D02*
G03*
X32209Y16401I-203J0D01*
G01*
X31354Y16401D02*
G03*
X31354Y16401I-203J0D01*
G01*
X33064Y16401D02*
G03*
X33064Y16401I-203J0D01*
G01*
X34774Y16401D02*
G03*
X34774Y16401I-203J0D01*
G01*
X35628Y16401D02*
G03*
X35628Y16401I-203J0D01*
G01*
X30495Y16401D02*
G03*
X30495Y16401I-203J0D01*
G01*
X29641Y16401D02*
G03*
X29641Y16401I-203J0D01*
G01*
X27931Y16401D02*
G03*
X27931Y16401I-203J0D01*
G01*
X26221Y16401D02*
G03*
X26221Y16401I-203J0D01*
G01*
X27076Y16401D02*
G03*
X27076Y16401I-203J0D01*
G01*
X28786Y16401D02*
G03*
X28786Y16401I-203J0D01*
G01*
X18520Y16401D02*
G03*
X18520Y16401I-203J0D01*
G01*
X16810D02*
G03*
X16810Y16401I-203J0D01*
G01*
X15955D02*
G03*
X15955Y16401I-203J0D01*
G01*
X17665D02*
G03*
X17665Y16401I-203J0D01*
G01*
X19375Y16401D02*
G03*
X19375Y16401I-203J0D01*
G01*
X20230Y16401D02*
G03*
X20230Y16401I-203J0D01*
G01*
X25362Y16401D02*
G03*
X25362Y16401I-203J0D01*
G01*
X24508Y16401D02*
G03*
X24508Y16401I-203J0D01*
G01*
X22798Y16401D02*
G03*
X22798Y16401I-203J0D01*
G01*
X21088Y16401D02*
G03*
X21088Y16401I-203J0D01*
G01*
X21943Y16401D02*
G03*
X21943Y16401I-203J0D01*
G01*
X23653D02*
G03*
X23653Y16401I-203J0D01*
G01*
X54451Y16401D02*
G03*
X54451Y16401I-203J0D01*
G01*
X52741Y16401D02*
G03*
X52741Y16401I-203J0D01*
G01*
X51886Y16401D02*
G03*
X51886Y16401I-203J0D01*
G01*
X53596Y16401D02*
G03*
X53596Y16401I-203J0D01*
G01*
X55305Y16401D02*
G03*
X55305Y16401I-203J0D01*
G01*
X56160Y16401D02*
G03*
X56160Y16401I-203J0D01*
G01*
X51027D02*
G03*
X51027Y16401I-203J0D01*
G01*
X50172Y16401D02*
G03*
X50172Y16401I-203J0D01*
G01*
X48463Y16401D02*
G03*
X48463Y16401I-203J0D01*
G01*
X46753D02*
G03*
X46753Y16401I-203J0D01*
G01*
X47608Y16401D02*
G03*
X47608Y16401I-203J0D01*
G01*
X49318Y16401D02*
G03*
X49318Y16401I-203J0D01*
G01*
X39052D02*
G03*
X39052Y16401I-203J0D01*
G01*
X37342D02*
G03*
X37342Y16401I-203J0D01*
G01*
X36487Y16401D02*
G03*
X36487Y16401I-203J0D01*
G01*
X38197Y16401D02*
G03*
X38197Y16401I-203J0D01*
G01*
X39907Y16401D02*
G03*
X39907Y16401I-203J0D01*
G01*
X40761Y16401D02*
G03*
X40761Y16401I-203J0D01*
G01*
X45894D02*
G03*
X45894Y16401I-203J0D01*
G01*
X45039Y16401D02*
G03*
X45039Y16401I-203J0D01*
G01*
X43330Y16401D02*
G03*
X43330Y16401I-203J0D01*
G01*
X41620Y16401D02*
G03*
X41620Y16401I-203J0D01*
G01*
X42475Y16401D02*
G03*
X42475Y16401I-203J0D01*
G01*
X44185D02*
G03*
X44185Y16401I-203J0D01*
G01*
X59584Y16401D02*
G03*
X59584Y16401I-203J0D01*
G01*
X57874Y16401D02*
G03*
X57874Y16401I-203J0D01*
G01*
X57019Y16401D02*
G03*
X57019Y16401I-203J0D01*
G01*
X58729Y16401D02*
G03*
X58729Y16401I-203J0D01*
G01*
X60438D02*
G03*
X60438Y16401I-203J0D01*
G01*
X61293D02*
G03*
X61293Y16401I-203J0D01*
G01*
X62134D02*
G03*
X62134Y16401I-203J0D01*
G01*
X1355Y16192D02*
G03*
X1355Y16192I-203J0D01*
G01*
X28687Y-8637D02*
G03*
X28687Y-8637I-203J0D01*
G01*
X28793Y-8053D02*
G03*
X28793Y-8053I-203J0D01*
G01*
X45570Y7835D02*
G03*
X45570Y7835I-203J0D01*
G01*
X52405Y10719D02*
G03*
X52405Y10719I-203J0D01*
G01*
X49585Y10956D02*
G03*
X49585Y10956I-203J0D01*
G01*
X50208D02*
G03*
X50208Y10956I-203J0D01*
G01*
X50831D02*
G03*
X50831Y10956I-203J0D01*
G01*
X53620Y-9880D02*
G03*
X53620Y-9880I-203J0D01*
G01*
X52997D02*
G03*
X52997Y-9880I-203J0D01*
G01*
X52374D02*
G03*
X52374Y-9880I-203J0D01*
G01*
X51751D02*
G03*
X51751Y-9880I-203J0D01*
G01*
X51128D02*
G03*
X51128Y-9880I-203J0D01*
G01*
X50505D02*
G03*
X50505Y-9880I-203J0D01*
G01*
X48635D02*
G03*
X48635Y-9880I-203J0D01*
G01*
X49258D02*
G03*
X49258Y-9880I-203J0D01*
G01*
X49882D02*
G03*
X49882Y-9880I-203J0D01*
G01*
X57882Y3068D02*
G03*
X57882Y3068I-203J0D01*
G01*
X59298Y-14178D02*
G03*
X59298Y-14178I-203J0D01*
G01*
X48787Y-12320D02*
G03*
X48787Y-12320I-203J0D01*
G01*
Y-11432D02*
G03*
X48787Y-11432I-203J0D01*
G01*
X29015Y5677D02*
G03*
X29015Y5677I-203J0D01*
G01*
X22638Y-10286D02*
G03*
X22638Y-10286I-203J0D01*
G01*
X7675Y5891D02*
G03*
X7675Y5891I-203J0D01*
G01*
X20218Y902D02*
G03*
X20218Y902I-203J0D01*
G01*
X20243Y-228D02*
G03*
X20243Y-228I-203J0D01*
G01*
X19541Y2794D02*
G03*
X19541Y2794I-203J0D01*
G01*
X36836Y4135D02*
G03*
X36836Y4135I-203J0D01*
G01*
X36868Y7477D02*
G03*
X36868Y7477I-203J0D01*
G01*
X36947Y6011D02*
G03*
X36947Y6011I-203J0D01*
G01*
X35846Y6816D02*
G03*
X35846Y6816I-203J0D01*
G01*
X23289Y-5901D02*
G03*
X23289Y-5901I-203J0D01*
G01*
X21852Y-2453D02*
G03*
X21852Y-2453I-203J0D01*
G01*
X26184Y-500D02*
G03*
X26184Y-500I-203J0D01*
G01*
Y-3150D02*
G03*
X26184Y-3150I-203J0D01*
G01*
X31338Y5439D02*
G03*
X31338Y5439I-203J0D01*
G01*
X32263D02*
G03*
X32263Y5439I-203J0D01*
G01*
X45608Y6448D02*
G03*
X45608Y6448I-203J0D01*
G01*
X21626Y5656D02*
G03*
X21626Y5656I-203J0D01*
G01*
X30159Y-500D02*
G03*
X30159Y-500I-203J0D01*
G01*
X28834D02*
G03*
X28834Y-500I-203J0D01*
G01*
X30159Y-1825D02*
G03*
X30159Y-1825I-203J0D01*
G01*
X27509Y-1850D02*
G03*
X27509Y-1850I-203J0D01*
G01*
X27096Y3747D02*
G03*
X27096Y3747I-203J0D01*
G01*
X26902Y8875D02*
G03*
X26902Y8875I-203J0D01*
G01*
X52221Y-11933D02*
G03*
X52221Y-11933I-203J0D01*
G01*
X52791Y15731D02*
G03*
X52791Y15731I-203J0D01*
G01*
X51591D02*
G03*
X51591Y15731I-203J0D01*
G01*
X50391D02*
G03*
X50391Y15731I-203J0D01*
G01*
X49191D02*
G03*
X49191Y15731I-203J0D01*
G01*
X47991D02*
G03*
X47991Y15731I-203J0D01*
G01*
X46791D02*
G03*
X46791Y15731I-203J0D01*
G01*
X45591D02*
G03*
X45591Y15731I-203J0D01*
G01*
X56601Y15708D02*
G03*
X56601Y15708I-203J0D01*
G01*
X55401D02*
G03*
X55401Y15708I-203J0D01*
G01*
X54201D02*
G03*
X54201Y15708I-203J0D01*
G01*
X40466Y15731D02*
G03*
X40466Y15731I-203J0D01*
G01*
X39266D02*
G03*
X39266Y15731I-203J0D01*
G01*
X38066D02*
G03*
X38066Y15731I-203J0D01*
G01*
X36866D02*
G03*
X36866Y15731I-203J0D01*
G01*
X35666D02*
G03*
X35666Y15731I-203J0D01*
G01*
X34466D02*
G03*
X34466Y15731I-203J0D01*
G01*
X33266D02*
G03*
X33266Y15731I-203J0D01*
G01*
X44277Y15708D02*
G03*
X44277Y15708I-203J0D01*
G01*
X43077D02*
G03*
X43077Y15708I-203J0D01*
G01*
X41877D02*
G03*
X41877Y15708I-203J0D01*
G01*
X14476Y15691D02*
G03*
X14476Y15691I-203J0D01*
G01*
X15676D02*
G03*
X15676Y15691I-203J0D01*
G01*
X16876D02*
G03*
X16876Y15691I-203J0D01*
G01*
X18076D02*
G03*
X18076Y15691I-203J0D01*
G01*
X19276D02*
G03*
X19276Y15691I-203J0D01*
G01*
X7065Y15714D02*
G03*
X7065Y15714I-203J0D01*
G01*
X8265D02*
G03*
X8265Y15714I-203J0D01*
G01*
X9465D02*
G03*
X9465Y15714I-203J0D01*
G01*
X10665D02*
G03*
X10665Y15714I-203J0D01*
G01*
X11865D02*
G03*
X11865Y15714I-203J0D01*
G01*
X13065D02*
G03*
X13065Y15714I-203J0D01*
G01*
X27509Y-4475D02*
G03*
X27509Y-4475I-203J0D01*
G01*
X28834Y-3150D02*
G03*
X28834Y-3150I-203J0D01*
G01*
X28834Y-4475D02*
G03*
X28834Y-4475I-203J0D01*
G01*
X27509Y-3175D02*
G03*
X27509Y-3175I-203J0D01*
G01*
X26184Y-1825D02*
G03*
X26184Y-1825I-203J0D01*
G01*
X8720Y6098D02*
G03*
X8720Y6098I-203J0D01*
G01*
X8903Y4215D02*
G03*
X8903Y4215I-203J0D01*
G01*
X7675Y9937D02*
G03*
X7675Y9937I-203J0D01*
G01*
X7657Y11828D02*
G03*
X7657Y11828I-203J0D01*
G01*
X14972Y9541D02*
G03*
X14972Y9541I-203J0D01*
G01*
X12801Y8176D02*
G03*
X12801Y8176I-203J0D01*
G01*
X12818Y6284D02*
G03*
X12818Y6284I-203J0D01*
G01*
X8333Y-6260D02*
G03*
X8333Y-6260I-203J0D01*
G01*
X6773Y-5190D02*
G03*
X6773Y-5190I-203J0D01*
G01*
X8334Y-4713D02*
G03*
X8334Y-4713I-203J0D01*
G01*
X11839Y-10928D02*
G03*
X11839Y-10928I-203J0D01*
G01*
X11839Y-12476D02*
G03*
X11839Y-12476I-203J0D01*
G01*
X3860Y-13818D02*
G03*
X3860Y-13818I-203J0D01*
G01*
X22306Y11158D02*
G03*
X22306Y11158I-203J0D01*
G01*
X20895Y9952D02*
G03*
X20895Y9952I-203J0D01*
G01*
X19435Y8749D02*
G03*
X19435Y8749I-203J0D01*
G01*
X13232Y-5875D02*
G03*
X13232Y-5875I-203J0D01*
G01*
X13580Y-3878D02*
G03*
X13580Y-3878I-203J0D01*
G01*
X13707Y4706D02*
G03*
X13707Y4706I-203J0D01*
G01*
X15481Y5018D02*
G03*
X15481Y5018I-203J0D01*
G01*
X12939Y3016D02*
G03*
X12939Y3016I-203J0D01*
G01*
X16806Y3693D02*
G03*
X16806Y3693I-203J0D01*
G01*
X15268Y7311D02*
G03*
X15268Y7311I-203J0D01*
G01*
X16593Y8661D02*
G03*
X16593Y8661I-203J0D01*
G01*
Y6011D02*
G03*
X16593Y6011I-203J0D01*
G01*
X17918Y7336D02*
G03*
X17918Y7336I-203J0D01*
G01*
X16847Y-5905D02*
G03*
X16847Y-5905I-203J0D01*
G01*
X16069Y-5019D02*
G03*
X16069Y-5019I-203J0D01*
G01*
X19413Y-5337D02*
G03*
X19413Y-5337I-203J0D01*
G01*
X27973Y3705D02*
G03*
X27973Y3705I-203J0D01*
G01*
X19396Y-6285D02*
G03*
X19396Y-6285I-203J0D01*
G01*
X28183Y5686D02*
G03*
X28183Y5686I-203J0D01*
G01*
X33993Y6287D02*
G03*
X33993Y6287I-203J0D01*
G01*
X30159Y-3150D02*
G03*
X30159Y-3150I-203J0D01*
G01*
X22143Y-4374D02*
G03*
X22143Y-4374I-203J0D01*
G01*
X28834Y-1825D02*
G03*
X28834Y-1825I-203J0D01*
G01*
X25201Y8187D02*
G03*
X25201Y8187I-203J0D01*
G01*
X27509Y-525D02*
G03*
X27509Y-525I-203J0D01*
G01*
X30159Y-4475D02*
G03*
X30159Y-4475I-203J0D01*
G01*
X45602Y-4731D02*
G03*
X45602Y-4731I-203J0D01*
G01*
M02*
