M48
;Layer_Color=9474304
;FILE_FORMAT=4:3
METRIC,LZ
;TYPE=PLATED
T2F00S00C0.200
T3F00S00C1.000
%
T02
X0000707Y-0016381
X0001562
X0002417
X0003272
X0004126
X0004981
X0005836
X0006695
X000755
X0008405
X0009259
X0010114
X0010969
X0011828
X0012683
X0013537
X0014392
X0015247
X0016102
X0016961
X0017816
X001867
X0019525
X002038
X0021235
X0022094
X0022949
X0023803
X0024658
X0025513
X0026368
X0027227
X0028082
X0028936
X0029791
X0030646
X0031501
X003236
X0033215
X0034069
X0034924
X0035779
X0036634
X0037493
X0038347
X0028609Y-0015557
X0020059Y-0012857
X0014658
X0011635Y-0012476
X0011636Y-0010928
X0010158Y-0011057
X0009259
X0008358
X0007458
X0007909Y-0011957
X0008809
X0009708
X0009259Y-0012857
X0007458
X0007008Y-0011957
X0006108
X0005208
X0004308
X0003408
X0002508
X0001608
X0000732Y-0012054
Y-0012909
X0000732Y-0013764
X0000732Y-0014619
Y-0015474
X0001608Y-0015557
X0002508
X0003408
X0004308
X0005208
X0006108
X0003858Y-0014657
X0002958
X0002058
X0002508Y-0013757
X0001608
X0002058Y-0012857
X0002958
X0003858
X0004758
X0003657Y-0013818
X0003858Y-0011057
X0002958
X0002058
X0000732Y-00112
X0039202Y-0016381
X0040057
X0040912
X0041767
X0042626
X004348
X0044335
X004519
X0046045
X00469
X0047759
X0048613
X0049468
X0050323
X0051178
X0052033
X0052009Y-0015557
X0052909
X0052892Y-0016381
X0053746
X0054601
X0055456
X0056311
X0057166
X0058025
X0058879
X0059734
X0060589
X0061444
X0061911Y-0015899
X0061911Y-0015044
Y-0014189
X0061911Y-0013334
X0061911Y-0012479
X0061935Y-001162
X0061935Y-0010766
X0060559Y-0011057
X0059659
X0058759
X0057859
X0056959
X0056059
X0055159
X0054259
X0053359
X0052459
X0051559
X0052017Y-0011933
X0052909Y-0011957
X0053809
X0054709
X0055609
X0056509
X0057409
X0058309
X0059209
X0060109
X0061009
X0060559Y-0012857
X0059659
X0058759
X0057859
X0056959
X0056059
X0056509Y-0013757
X0057409
X0058309
X0059094Y-0014178
X0059659Y-0014657
X0060559
X0061009Y-0013757
X0060109
Y-0015557
X0061009
X0059209
X0056509
X0055609
X0054709
X0053809
X0051109
X0050659Y-0012857
X0052459
X0055609Y-0013757
X0056059Y-0014657
X0048584Y-001232
Y-0011432
X0046609Y-0015557
X0045709
X0045259Y-0009257
X0044359
X0043459
X0042559
X0041659
X0040759
X0039859
X0038959
X0039409Y-0008357
X0040309
X0041209
X0042109
X0043009
X0043909
X0044809
X0045259Y-0007457
X0045402Y-000623
X0045398Y-0004731
X0044759Y-0004069
X0044016
X0043272
X0042529
X0041886
X0041143
X00404
X0039657
X0038914
X0039298Y-0003575
X0040041
X0040784
X0041527
X004217
X0042913
X0043657
X00444
X0045132Y-0003446
X0045805Y-0003132
X0046374Y-0002654
X0046849Y-0003208
X0047509Y-0002957
X00469Y-0002129
X0047244Y-0001632
X0047428Y-0001
X0046062Y-0001175
X0045425Y-0001047
X0044681
X0043938
X0043195
X0042452
X0041809
X0041066
X0040323
X003958
X0038836
X0039224Y-0001734
X0039967
X004071
X0041453
X0042196
X004284
X0043583
X0044326
X0044425Y-0002466
X0043682
X0042939
X0042195
X0041552
X0040809
X0040066
X0039323
X0039409Y-0004757
X0040309
X0041209
X0042109
X0043009
X0043909
X0043459Y-0005657
X0042559
X0041659
X0042109Y-0006557
X0043009
X0048409
X0049309
X0050209
X0051109
X0052009
X0052909
X0053809
X0054709
X0055609
X0056509
X0057409
X0058309
X0059209
X0060109
X0061009
X0061878Y-0006483
X0061878Y-0005629
X0061878Y-0004774
X0061878Y-0003919
X0061929Y-0002845
X0061112Y-0002827
X0060253Y-0002803
X0059398Y-0002803
X0058543Y-0002803
X0057409Y-0002957
X0056509
X0055609
X0054709
X005465Y-000224
X0055393Y-000224
X0056136
X0056879Y-000224
X0057623
X0057803Y-0001727
X005716
X005649Y-0001646
X0055746
X0055003
X005426
X0053517
X0052774
X0053129Y-0001066
X0052386
X005189Y-0001462
X005122Y-000161
X005063Y-0001462
X0050156Y-0001066
X0049413
X0048878Y-0000717
X00498Y-0001574
X0049448Y-000224
X0050191Y-000224
X0050209Y-0002957
X0051109
X0050934Y-000224
X0051678
X0052421Y-000224
X0053164
X0053907Y-000224
X0053809Y-0002957
X0052909
X0052009
X0051559Y-0003857
X0052459
X0053359
X0054259
X0055159
X0056059
X0056959
X0057409Y-0004757
X0058309
X0059209
X0060109
X0061009
X0060559Y-0005657
X0059659
X0058759
X0057859
X0056959
X0056059
X0055159
X0054259
X0053359
X0052459
X0051559
X0050659
X0049759
X0050209Y-0004757
X0051109
X0052009
X0052909
X0053809
X0054709
X0055609
X0056509
X0056059Y-0007457
X0056959
X0057859
X0058759
X0059659
X0060559
X0061009Y-0008357
X0060109
X0059209
X0058309
X0057409
X0056509
X0055609
X0054709
X0053809
X0052909
X0052009
X0051109
X0050209
X0049309
X0048409
X0047509
X0047059Y-0009257
X0047959
X0048859
X0049055Y-000988
X0048432
X0049678
X0050302
X0050925
X0051548
X0052171
X0052794
X0053417
X0054259Y-0009257
X0055159
X0056059
X0056959
X0057859
X0058759
X0059659
X0060559
X0061009Y-0010157
X0060109
X0059209
X0058309
X0057409
X0056509
X0055609
X0054709
X0054259Y-0007457
X0055159
X0053359
X0052459
X0051559
X0050659
X0049759
X0048859
X0047959
X0049759Y-0009257
X0050659
X0052459
X0050659Y-0003857
X0049759
X0049309Y-0004757
X0049042Y0001224
X0049337Y0001695
X005008
X0050823
X0051566
X0052309
X0053052
X0053795
X0054439
X0055182
X0055925
X0056668
X0057411
X0057708Y0001139
X0057065
X0056322
X0055579
X0054836
X0054093
X0053349
X0052706
X0051963
X005122
X0050477
X0049734
X0048581Y0000904
X0046735Y0001116
X0045992
X0045249
X0044506
X0043762
X0043119
X0042376
X0041633
X004089
X0040147
X0040519Y0001648
X0041262
X0042005
X0042748
X0043391
X0044134
X0044877
X0045621
X0046364
X0046048Y0002152
X0045305
X0044562
X0043819
X0043076
X0042433
X004169
X0040946
X0040203
X0039711Y00024
X0038968
X0039368Y0002893
X0039859Y0003343
X0040759
X0041659
X0042559
X0043459
X0044359
X0045259
X0045709Y0004243
X0044809
X0043909
X0043009
X0042109
X0041209
X0040309
X0039409
X0038959Y0005143
X0039859
X0040759
X0041659
X0042559
X0043459
X0044359
X0045259
X0045405Y0006448
X0045367Y0007835
X0045709Y0009643
X0046609
X0047509
X0048409
X0049309
X0050209
X0051109
X0052009
X0052909
X0053809
X0054709
X0055609
X0056509
X0057409
X0058309
X0059209
X0060109
X0061009
X0061931Y0009557
Y0010412
Y0011266
Y0012121
Y001298
Y0013835
Y001469
Y0015544
Y0016401
X006109
X0060235
X005938Y0016401
X0058526Y0016401
X0057671
X0056816Y0016401
X0055957Y0016401
X0055102Y0016401
X0055198Y0015708
X0055609Y0015043
X0056059Y0014143
X0056959
X0057859
X0058759
X0059659
X0060559
X0061009Y0015043
X0060109
X0059209
X0058309
X0057409
X0056398Y0015708
X0053998
X0054247Y0016401
X0053393Y0016401
X0052538
X0052588Y0015731
X0052909Y0015043
X0051388Y0015731
X0051683Y0016401
X0050824Y0016401
X0049969Y0016401
X0049114Y0016401
X0048988Y0015731
X0050188
X0047788
X0047509Y0015043
X0047405Y0016401
X004826Y0016401
X004655
X0046588Y0015731
X0045388
X0045691Y0016401
X0044836Y0016401
X0043981Y0016401
X0044073Y0015708
X0042873
X0043127Y0016401
X0042272Y0016401
X0041417Y0016401
X0040558Y0016401
X0039703Y0016401
X0038849Y0016401
X0039063Y0015731
X0040263
X0041673Y0015708
X0041904Y0010854
X0042527Y0010858
X004315
X0043773
X0044397
X004502
X0045643
X0046266
X0046889Y0010859
X0047512
X0048135
X0048759
X0049382Y0010956
X0050005
X0050628
X0051109Y0011443
X0052009
X0052909
X0053809
X0054709
X0055609
X0056509
X0057409
X0058309
X0059209
X0060109
X0061009
X0060559Y0012343
X0059659
X0058759
X0057859
X0056959
X0056059
X0055159
X0054259
X0053359
X0052459
X0051559
Y0010543
X0052202Y0010719
X0053359Y0010543
X0054259
X0055159
X0056059
X0056959
X0057859
X0058759
X0059659
X0060559
Y0008743
X0059659
X0058759
X0057859
X0056959
X0056059
X0055159
X0054259
X0053359
X0052459
X0051559
X0050659
X0049759
X0048859
X0047959
X0047059
X0048409Y0007843
X0049309
X0050209
X0051109
X0052009
X0052909
X0053809
X0054709
X0055609
X0056509
X0057409
X0058309
X0059209
X0060109
X0061009
X0061931Y0007847
Y0008702
Y0006988
Y0006133
Y0005279
Y0004424
X0061009Y0004243
X0060109
X0059209
X0058309
X0057409
X0056509
X0055609
X0054709
X0053809
X0052909
X0052009
X0051109
X0050209
X0049309
X0048409
X0047959Y0005143
X0048859
X0049759
X0050659
X0051559
X0052459
X0053359
X0054259
X0055159
X0056059
X0056959
X0057859
X0058759
X0059659
X0060559
X0061009Y0006043
X0060109
X0059209
X0058309
X0057409
X0056509
X0055609
X0054709
X0053809
X0052909
X0052009
X0051109
X0050209
X0049309
X0048409
X0047959Y0006943
X0048859
X0049759
X0050659
X0051559
X0052459
X0053359
X0054259
X0055159
X0056059
X0056959
X0057859
X0058759
X0059659
X0060559
X0060246Y0002857
X0059392Y0002857
X0058537Y0002857
X0057679Y0003068
X0056959Y0003343
X0056059
X0055159
X0054259
X0053359
X0052459
X0051559
X0050659
X0049759
X0048859
X0047959
X0050209Y0002443
X0051109
X0052009
X0052909
X0053809
X0054709
X0055609
X0056509
X0058287Y0001456
X005903
X0059773
X0060516
X0061259
X0062002
X0061899Y0002819
X0061105Y0002833
X0061263Y-0001405
X0062006
X006052
X0059777
X0059034
X0058291
X0056744Y-0001066
X0056101
X0055358
X0054615
X0053872
X0046273Y-0000563
X0045668Y-0001674
X0045018Y-000152
X0045098Y-0002152
X0043909Y0006043
X0043009
X0042109
X0041209
X0040309
X0039409
X0039859Y0006943
X0040759
X0041659
X0042559
X0043459
X0043909Y0009643
X0044809
X0043009
X0042109
X0041209
X0040309
X0039409
X0039412Y0010849
X0038788
X0040035
X0040658
X0041281
X0043459Y0012343
X0044359
X0045259
X0046159
X0048859
X0055609Y0013243
X0056509
X0057409
X0058309
X0059209
X0060109
X0061009
X0061935Y-0007346
X0061935Y-0008201
Y-0009056
X0061935Y-0009911
X0038059Y-0009257
X0037159
X0036259
X0035359
X0036709Y-0008357
X0037609
X0038509
Y-0004757
X0037609
X0036709
X0035809
X0035796Y-0003979
X0036539
X0037282
X0037812Y-0003575
X0038555
X0038171Y-0004069
X0037837Y-0002466
X003858
X0038481Y-0001734
X0038093Y-0001047
X0037626Y-0001439
X0036969Y-0001648
X0036365Y-0001439
X0036347Y-0002251
X0035604
X0035374Y-0000751
X0036155Y-0000751
X0036265Y0001161
X0036947Y0001114
Y0001857
X0036327Y0001896
X0036739Y00024
X0037482
X0038225
X0037882Y0002893
X0037138
X0036395
X0036632Y0004135
X0035382Y0003882
X0035359Y0005143
X0037159
X0036743Y0006011
X0036665Y0007477
X0035643Y0006816
X003379Y0006287
X0032059Y0005439
X0031134
X0028811Y0005677
X0027979Y0005686
X002777Y0003705
X0026893Y0003747
X0027306Y-0000525
X0027306Y-000185
X0027306Y-0003175
X0027306Y-0004475
X0028631Y-0004475
X0028631Y-000315
X0029956
X0029956Y-0004475
X0029956Y-0001825
X0028631
X0028631Y-00005
X0029956
X0025981
X0025981Y-0001825
X0025981Y-000315
X0026048Y-0004408
X002194Y-0004374
X0021649Y-0002453
X002004Y-0000228
X0020015Y0000902
X0019338Y0002794
X0017358Y0003343
X0016602Y0003693
X0016008Y0004243
X0015108
X0014208
X0013504Y0004706
X0012858Y0005143
X0013309Y0006043
X0014208
X0015108
X0015277Y0005018
X0016458Y0005143
X0017358
X0017809Y0006043
X0017715Y0007336
X0016909Y0007843
X0016008
X001639Y0008661
X0015559Y0008743
X0014658
X0013759
X0014208Y0007843
X0013309
X0012597Y0008176
X0012615Y0006284
X0013759Y0006943
X0015065Y0007311
X0016458Y0006943
X001639Y0006011
X0015559Y0003343
X0014658
X0013759
X0012736Y0003016
X0012408Y0004243
X0012858Y0001543
X0013309Y0000643
X0012408
X0012858Y-0000257
X0013759
X0013309Y-0001157
X0012408
X0012858Y-0002057
X0012408Y-0002957
Y-0004757
X0013309
X0014208
X0013759Y-0005657
X0014658
X0014208Y-0006557
X0013309
X0012408
X0013029Y-0005875
X0013759Y-0007457
X0014658
X0016644Y-0005905
X0015866Y-0005019
X0014658Y-0003857
X0013376Y-0003878
X0008358Y-0003857
X0007458
X0006558
X0005659
X0004758
X0003858
X0002958
X0002058
X0002508Y-0002957
X0003408
X0004308
X0005208
X0006108
X0007008
X0007909
X0008809
X0008358Y-0002057
X0007458
X0006558
X0005659
X0004758
X0003858
X0002958
X0002058
X0002508Y-0001157
X0003408
X0004308
X0005208
X0006108
X0007008
X0007909
X0008809
X0008358Y-0000257
X0007458
X0006558
X0005659
X0004758
X0003858
X0002958
X0002058
X0002508Y0000643
X0003408
X0004308
X0005208
X0006108
X0007008
X0007909
X0008809
X0008358Y0001543
X0007458
X0006558
X0005659
X0004758
X0003858
X0002958
X0002058
X0000805Y0001635
X0000805Y000078
Y-0000075
X000078Y-0000934
X000078Y-0001788
Y-0002643
X000078Y-0003498
X000078Y-0004353
Y-0005208
X0000756Y-0006067
X0000756Y-0006921
Y-0007776
X0000756Y-0008631
X0000756Y-0009486
Y-0010341
X0001608Y-0010157
X0002508
X0003408
X0002958Y-0009257
X0002058
X0002508Y-0008357
X0003408
X0002958Y-0007457
X0002058
X0002508Y-0006557
X0003408
X0002958Y-0005657
X0003858
X0004758
X0005659
X0005208Y-0004757
X0004308
X0003408
X0002508
X0001608
X0002058Y-0005657
X0001608Y-0006557
Y-0008357
X0007008
X0007909
X0008809
X0008358Y-0009257
X0009259
X0007458
X0006558
X0007008Y-0006557
X0007458Y-0005657
X000813Y-000626
X0008131Y-0004713
X000657Y-000519
X0001608Y-0002957
Y-0001157
Y0000643
Y0002443
X0000805Y000249
Y0003345
X0000805Y0004199
X0001608Y0004243
X0002508
X0003408
X0004308
X0005208
X0006108
X0007008
X0007909
X0008699Y0004215
X0008358Y0003343
X0007458
X0006558
X0005659
X0004758
X0003858
X0002958
X0002058
X0002508Y0002443
X0003408
X0004308
X0005208
X0006108
X0007008
X0007909
X0008809
X0008358Y0005143
X0007458
X0007471Y0005891
X0008517Y0006098
X0006108Y0006043
X0005659Y0005143
X0006558
X0004758
X0003858
X0002958
X0002058
X0000829Y0005058
Y0005913
X0000829Y0006768
X0000829Y0007623
Y0008478
X0000829Y0009332
X0000853Y0010191
Y0011046
X0000853Y0011901
X0000853Y0012756
Y001361
X0000853Y0014465
Y001532
X0001152Y0016192
X0002063Y0016401
X0002918
X0003773
X0004627Y0016401
X0005486Y0016401
X0006341Y0016401
X0007196Y0016401
X0008051Y0016401
X0008062Y0015714
X0006862
X0009262
X0008906Y0016401
X000976
X0010619
X0010462Y0015714
X0011662
X0011474Y0016401
X0012329Y0016401
X0013184Y0016401
X0014039Y0016401
X0014893Y0016401
X0015752Y0016401
X0016607
X0016673Y0015691
X0015473
X0014273
X0012862Y0015714
X0012408Y0015043
X0009708
X0004308
X0003408
X0003858Y0014143
X0004308Y0013243
X0003408
X0002508
X0001608
X0002058Y0012343
X0002958
X0003858
X0004308Y0011443
X0003408
X0002508
X0001608
X0002058Y0010543
X0002958
X0003408Y0009643
X0002508
X0001608
X0002058Y0008743
X0002958
X0003408Y0007843
X0002508
X0001608
X0002058Y0006943
X0002958
X0003408Y0006043
X0002508
X0001608
X0007008Y0007843
X0006558Y0008743
X0007458
X0007472Y0009937
X0006558Y0010543
X0006108Y0011443
X0005659Y0012343
X0006558
X0007454Y0011828
X0014768Y0009541
X0016008Y0009643
X0016909
X0017809
X0018708
X0019609
X0019232Y0008749
X0020059Y0008743
X0019609Y0007843
X0018708
X0018259Y0008743
X0017358
X0020692Y0009952
X0021409Y0009643
X0022103Y0011158
X0024559Y0012343
X0024304Y0016401
X002345Y0016401
X0022595
X002174
X0020885Y0016401
X0020026Y0016401
X0019171Y0016401
X0019073Y0015691
X0017873
X0017462Y0016401
X0018317
X0025159Y0016401
X0026018Y0016401
X0026873Y0016401
X0027728Y0016401
X0028583
X0029437Y0016401
X0030292Y0016401
X0031151Y0016401
X0032006Y0016401
X0032861Y0016401
X0033716Y0016401
X003457
X0035425Y0016401
X0035463Y0015731
X0036663
X0036284Y0016401
X0037139Y0016401
X0037994
X0037863Y0015731
X0037609Y0015043
X0034909
X0034263Y0015731
X0033063
X0034009Y0009643
X0035809
X0036709
X0037609
X0038509
X0038165Y0010849
X0037542
X0038059Y0006943
X0038509Y0004243
X0038625Y0002893
X0035053Y-0003979
X0034309
X002859Y-0008053
X0028484Y-0008637
X0022434Y-0010286
X0023086Y-0005901
X0019192Y-0006285
X0019209Y-0005337
X0017358Y0001543
X0016458
X0016909Y0002443
X0021423Y0005656
X0024998Y0008187
X0026698Y0008875
T03
X000587Y-0014
X000841
X001095
X001349
X001603
X001857
X002111
X002365
X002619
X002873
X003127
X003381
X003635
X003889
X004143
X004397
X004651
X004905
X005159
X005413
Y0014
X005159
X004905
X004651
X004397
X004143
X003889
X003635
X003381
X003127
X002873
X002619
X002365
X002111
X001857
X001603
X001349
X001095
X000841
X000587
X0005Y000977
Y000723
Y-000723
Y-000977
M30
