G04*
G04 #@! TF.GenerationSoftware,Altium Limited,Altium Designer,20.2.6 (244)*
G04*
G04 Layer_Physical_Order=3*
G04 Layer_Color=16440176*
%FSLAX43Y43*%
%MOMM*%
G71*
G04*
G04 #@! TF.SameCoordinates,C144CD18-1887-4FAA-AC2B-496F7D53F270*
G04*
G04*
G04 #@! TF.FilePolarity,Positive*
G04*
G01*
G75*
%ADD12C,0.300*%
%ADD22C,1.500*%
%ADD48C,0.400*%
%ADD79C,1.800*%
G04:AMPARAMS|DCode=80|XSize=1.8mm|YSize=1.8mm|CornerRadius=0.45mm|HoleSize=0mm|Usage=FLASHONLY|Rotation=180.000|XOffset=0mm|YOffset=0mm|HoleType=Round|Shape=RoundedRectangle|*
%AMROUNDEDRECTD80*
21,1,1.800,0.900,0,0,180.0*
21,1,0.900,1.800,0,0,180.0*
1,1,0.900,-0.450,0.450*
1,1,0.900,0.450,0.450*
1,1,0.900,0.450,-0.450*
1,1,0.900,-0.450,-0.450*
%
%ADD80ROUNDEDRECTD80*%
G04:AMPARAMS|DCode=81|XSize=1.8mm|YSize=1.8mm|CornerRadius=0.45mm|HoleSize=0mm|Usage=FLASHONLY|Rotation=270.000|XOffset=0mm|YOffset=0mm|HoleType=Round|Shape=RoundedRectangle|*
%AMROUNDEDRECTD81*
21,1,1.800,0.900,0,0,270.0*
21,1,0.900,1.800,0,0,270.0*
1,1,0.900,-0.450,-0.450*
1,1,0.900,-0.450,0.450*
1,1,0.900,0.450,0.450*
1,1,0.900,0.450,-0.450*
%
%ADD81ROUNDEDRECTD81*%
%ADD82C,0.500*%
%ADD84C,0.650*%
%ADD85C,1.300*%
%ADD86C,1.000*%
G36*
X62264Y-16725D02*
X243D01*
X243Y16807D01*
X62264D01*
X62264Y-16725D01*
D02*
G37*
%LPC*%
G36*
X54580Y15156D02*
X54255D01*
Y14125D01*
X55286D01*
Y14450D01*
X55262Y14633D01*
X55191Y14803D01*
X55079Y14949D01*
X54933Y15061D01*
X54763Y15132D01*
X54580Y15156D01*
D02*
G37*
G36*
X46635Y15143D02*
Y14125D01*
X47653D01*
X47630Y14300D01*
X47515Y14580D01*
X47330Y14820D01*
X47090Y15005D01*
X46810Y15120D01*
X46635Y15143D01*
D02*
G37*
G36*
X46385Y15143D02*
X46210Y15120D01*
X45930Y15005D01*
X45690Y14820D01*
X45505Y14580D01*
X45390Y14300D01*
X45367Y14125D01*
X46385D01*
Y15143D01*
D02*
G37*
G36*
X54005Y15156D02*
X53680D01*
X53497Y15132D01*
X53327Y15061D01*
X53181Y14949D01*
X53069Y14803D01*
X52998Y14633D01*
X52974Y14450D01*
Y14125D01*
X54005D01*
Y15156D01*
D02*
G37*
G36*
X47653Y13875D02*
X46635D01*
Y12857D01*
X46810Y12880D01*
X47090Y12995D01*
X47330Y13180D01*
X47515Y13420D01*
X47630Y13700D01*
X47653Y13875D01*
D02*
G37*
G36*
X46385D02*
X45367D01*
X45390Y13700D01*
X45505Y13420D01*
X45690Y13180D01*
X45930Y12995D01*
X46210Y12880D01*
X46385Y12857D01*
Y13875D01*
D02*
G37*
G36*
X55286D02*
X54255D01*
Y12844D01*
X54580D01*
X54763Y12868D01*
X54933Y12939D01*
X55079Y13051D01*
X55191Y13197D01*
X55262Y13367D01*
X55286Y13550D01*
Y13875D01*
D02*
G37*
G36*
X54005D02*
X52974D01*
Y13550D01*
X52998Y13367D01*
X53069Y13197D01*
X53181Y13051D01*
X53327Y12939D01*
X53497Y12868D01*
X53680Y12844D01*
X54005D01*
Y13875D01*
D02*
G37*
G36*
X51590Y15160D02*
X51290Y15120D01*
X51010Y15005D01*
X50770Y14820D01*
X50585Y14580D01*
X50470Y14300D01*
X50430Y14000D01*
X50470Y13700D01*
X50585Y13420D01*
X50770Y13180D01*
X51010Y12995D01*
X51290Y12880D01*
X51590Y12840D01*
X51890Y12880D01*
X52170Y12995D01*
X52410Y13180D01*
X52595Y13420D01*
X52710Y13700D01*
X52750Y14000D01*
X52710Y14300D01*
X52595Y14580D01*
X52410Y14820D01*
X52170Y15005D01*
X51890Y15120D01*
X51590Y15160D01*
D02*
G37*
G36*
X49050D02*
X48750Y15120D01*
X48470Y15005D01*
X48230Y14820D01*
X48045Y14580D01*
X47930Y14300D01*
X47890Y14000D01*
X47930Y13700D01*
X48045Y13420D01*
X48230Y13180D01*
X48470Y12995D01*
X48750Y12880D01*
X49050Y12840D01*
X49350Y12880D01*
X49630Y12995D01*
X49870Y13180D01*
X50055Y13420D01*
X50170Y13700D01*
X50210Y14000D01*
X50170Y14300D01*
X50055Y14580D01*
X49870Y14820D01*
X49630Y15005D01*
X49350Y15120D01*
X49050Y15160D01*
D02*
G37*
G36*
X43970D02*
X43670Y15120D01*
X43390Y15005D01*
X43150Y14820D01*
X42965Y14580D01*
X42850Y14300D01*
X42810Y14000D01*
X42850Y13700D01*
X42965Y13420D01*
X43150Y13180D01*
X43390Y12995D01*
X43670Y12880D01*
X43970Y12840D01*
X44270Y12880D01*
X44550Y12995D01*
X44790Y13180D01*
X44975Y13420D01*
X45090Y13700D01*
X45130Y14000D01*
X45090Y14300D01*
X44975Y14580D01*
X44790Y14820D01*
X44550Y15005D01*
X44270Y15120D01*
X43970Y15160D01*
D02*
G37*
G36*
X41430D02*
X41130Y15120D01*
X40850Y15005D01*
X40610Y14820D01*
X40425Y14580D01*
X40310Y14300D01*
X40270Y14000D01*
X40310Y13700D01*
X40425Y13420D01*
X40610Y13180D01*
X40850Y12995D01*
X41130Y12880D01*
X41430Y12840D01*
X41730Y12880D01*
X42010Y12995D01*
X42250Y13180D01*
X42435Y13420D01*
X42550Y13700D01*
X42590Y14000D01*
X42550Y14300D01*
X42435Y14580D01*
X42250Y14820D01*
X42010Y15005D01*
X41730Y15120D01*
X41430Y15160D01*
D02*
G37*
G36*
X38890D02*
X38590Y15120D01*
X38310Y15005D01*
X38070Y14820D01*
X37885Y14580D01*
X37770Y14300D01*
X37730Y14000D01*
X37770Y13700D01*
X37885Y13420D01*
X38070Y13180D01*
X38310Y12995D01*
X38590Y12880D01*
X38890Y12840D01*
X39190Y12880D01*
X39470Y12995D01*
X39710Y13180D01*
X39895Y13420D01*
X40010Y13700D01*
X40050Y14000D01*
X40010Y14300D01*
X39895Y14580D01*
X39710Y14820D01*
X39470Y15005D01*
X39190Y15120D01*
X38890Y15160D01*
D02*
G37*
G36*
X36350D02*
X36050Y15120D01*
X35770Y15005D01*
X35530Y14820D01*
X35345Y14580D01*
X35230Y14300D01*
X35190Y14000D01*
X35230Y13700D01*
X35345Y13420D01*
X35530Y13180D01*
X35770Y12995D01*
X36050Y12880D01*
X36350Y12840D01*
X36650Y12880D01*
X36930Y12995D01*
X37170Y13180D01*
X37355Y13420D01*
X37470Y13700D01*
X37510Y14000D01*
X37470Y14300D01*
X37355Y14580D01*
X37170Y14820D01*
X36930Y15005D01*
X36650Y15120D01*
X36350Y15160D01*
D02*
G37*
G36*
X33810D02*
X33510Y15120D01*
X33230Y15005D01*
X32990Y14820D01*
X32805Y14580D01*
X32690Y14300D01*
X32650Y14000D01*
X32690Y13700D01*
X32805Y13420D01*
X32990Y13180D01*
X33230Y12995D01*
X33510Y12880D01*
X33810Y12840D01*
X34110Y12880D01*
X34390Y12995D01*
X34630Y13180D01*
X34815Y13420D01*
X34930Y13700D01*
X34970Y14000D01*
X34930Y14300D01*
X34815Y14580D01*
X34630Y14820D01*
X34390Y15005D01*
X34110Y15120D01*
X33810Y15160D01*
D02*
G37*
G36*
X31270D02*
X30970Y15120D01*
X30690Y15005D01*
X30450Y14820D01*
X30265Y14580D01*
X30150Y14300D01*
X30110Y14000D01*
X30150Y13700D01*
X30265Y13420D01*
X30450Y13180D01*
X30690Y12995D01*
X30970Y12880D01*
X31270Y12840D01*
X31570Y12880D01*
X31850Y12995D01*
X32090Y13180D01*
X32275Y13420D01*
X32390Y13700D01*
X32430Y14000D01*
X32390Y14300D01*
X32275Y14580D01*
X32090Y14820D01*
X31850Y15005D01*
X31570Y15120D01*
X31270Y15160D01*
D02*
G37*
G36*
X28730D02*
X28430Y15120D01*
X28150Y15005D01*
X27910Y14820D01*
X27725Y14580D01*
X27610Y14300D01*
X27570Y14000D01*
X27610Y13700D01*
X27725Y13420D01*
X27910Y13180D01*
X28150Y12995D01*
X28430Y12880D01*
X28730Y12840D01*
X29030Y12880D01*
X29310Y12995D01*
X29550Y13180D01*
X29735Y13420D01*
X29850Y13700D01*
X29890Y14000D01*
X29850Y14300D01*
X29735Y14580D01*
X29550Y14820D01*
X29310Y15005D01*
X29030Y15120D01*
X28730Y15160D01*
D02*
G37*
G36*
X26190D02*
X25890Y15120D01*
X25610Y15005D01*
X25370Y14820D01*
X25185Y14580D01*
X25070Y14300D01*
X25030Y14000D01*
X25070Y13700D01*
X25185Y13420D01*
X25370Y13180D01*
X25610Y12995D01*
X25890Y12880D01*
X26190Y12840D01*
X26490Y12880D01*
X26770Y12995D01*
X27010Y13180D01*
X27195Y13420D01*
X27310Y13700D01*
X27350Y14000D01*
X27310Y14300D01*
X27195Y14580D01*
X27010Y14820D01*
X26770Y15005D01*
X26490Y15120D01*
X26190Y15160D01*
D02*
G37*
G36*
X23650D02*
X23350Y15120D01*
X23070Y15005D01*
X22830Y14820D01*
X22645Y14580D01*
X22530Y14300D01*
X22490Y14000D01*
X22530Y13700D01*
X22645Y13420D01*
X22830Y13180D01*
X23070Y12995D01*
X23350Y12880D01*
X23650Y12840D01*
X23950Y12880D01*
X24230Y12995D01*
X24470Y13180D01*
X24655Y13420D01*
X24770Y13700D01*
X24810Y14000D01*
X24770Y14300D01*
X24655Y14580D01*
X24470Y14820D01*
X24230Y15005D01*
X23950Y15120D01*
X23650Y15160D01*
D02*
G37*
G36*
X21110D02*
X20810Y15120D01*
X20530Y15005D01*
X20290Y14820D01*
X20105Y14580D01*
X19990Y14300D01*
X19950Y14000D01*
X19990Y13700D01*
X20105Y13420D01*
X20290Y13180D01*
X20530Y12995D01*
X20810Y12880D01*
X21110Y12840D01*
X21410Y12880D01*
X21690Y12995D01*
X21930Y13180D01*
X22115Y13420D01*
X22230Y13700D01*
X22270Y14000D01*
X22230Y14300D01*
X22115Y14580D01*
X21930Y14820D01*
X21690Y15005D01*
X21410Y15120D01*
X21110Y15160D01*
D02*
G37*
G36*
X18570D02*
X18270Y15120D01*
X17990Y15005D01*
X17750Y14820D01*
X17565Y14580D01*
X17450Y14300D01*
X17410Y14000D01*
X17450Y13700D01*
X17565Y13420D01*
X17750Y13180D01*
X17990Y12995D01*
X18270Y12880D01*
X18570Y12840D01*
X18870Y12880D01*
X19150Y12995D01*
X19390Y13180D01*
X19575Y13420D01*
X19690Y13700D01*
X19730Y14000D01*
X19690Y14300D01*
X19575Y14580D01*
X19390Y14820D01*
X19150Y15005D01*
X18870Y15120D01*
X18570Y15160D01*
D02*
G37*
G36*
X16030D02*
X15730Y15120D01*
X15450Y15005D01*
X15210Y14820D01*
X15025Y14580D01*
X14910Y14300D01*
X14870Y14000D01*
X14910Y13700D01*
X15025Y13420D01*
X15210Y13180D01*
X15450Y12995D01*
X15730Y12880D01*
X16030Y12840D01*
X16330Y12880D01*
X16610Y12995D01*
X16850Y13180D01*
X17035Y13420D01*
X17150Y13700D01*
X17190Y14000D01*
X17150Y14300D01*
X17035Y14580D01*
X16850Y14820D01*
X16610Y15005D01*
X16330Y15120D01*
X16030Y15160D01*
D02*
G37*
G36*
X13490D02*
X13190Y15120D01*
X12910Y15005D01*
X12670Y14820D01*
X12485Y14580D01*
X12370Y14300D01*
X12330Y14000D01*
X12370Y13700D01*
X12485Y13420D01*
X12670Y13180D01*
X12910Y12995D01*
X13190Y12880D01*
X13490Y12840D01*
X13790Y12880D01*
X14070Y12995D01*
X14310Y13180D01*
X14495Y13420D01*
X14610Y13700D01*
X14650Y14000D01*
X14610Y14300D01*
X14495Y14580D01*
X14310Y14820D01*
X14070Y15005D01*
X13790Y15120D01*
X13490Y15160D01*
D02*
G37*
G36*
X10950D02*
X10650Y15120D01*
X10370Y15005D01*
X10130Y14820D01*
X9945Y14580D01*
X9830Y14300D01*
X9790Y14000D01*
X9830Y13700D01*
X9945Y13420D01*
X10130Y13180D01*
X10370Y12995D01*
X10650Y12880D01*
X10950Y12840D01*
X11250Y12880D01*
X11530Y12995D01*
X11770Y13180D01*
X11955Y13420D01*
X12070Y13700D01*
X12110Y14000D01*
X12070Y14300D01*
X11955Y14580D01*
X11770Y14820D01*
X11530Y15005D01*
X11250Y15120D01*
X10950Y15160D01*
D02*
G37*
G36*
X8410D02*
X8110Y15120D01*
X7830Y15005D01*
X7590Y14820D01*
X7405Y14580D01*
X7290Y14300D01*
X7250Y14000D01*
X7290Y13700D01*
X7405Y13420D01*
X7590Y13180D01*
X7830Y12995D01*
X8110Y12880D01*
X8410Y12840D01*
X8710Y12880D01*
X8990Y12995D01*
X9230Y13180D01*
X9415Y13420D01*
X9530Y13700D01*
X9570Y14000D01*
X9530Y14300D01*
X9415Y14580D01*
X9230Y14820D01*
X8990Y15005D01*
X8710Y15120D01*
X8410Y15160D01*
D02*
G37*
G36*
X5870D02*
X5570Y15120D01*
X5290Y15005D01*
X5050Y14820D01*
X4865Y14580D01*
X4750Y14300D01*
X4710Y14000D01*
X4750Y13700D01*
X4865Y13420D01*
X5050Y13180D01*
X5290Y12995D01*
X5570Y12880D01*
X5870Y12840D01*
X6170Y12880D01*
X6450Y12995D01*
X6690Y13180D01*
X6875Y13420D01*
X6990Y13700D01*
X7030Y14000D01*
X6990Y14300D01*
X6875Y14580D01*
X6690Y14820D01*
X6450Y15005D01*
X6170Y15120D01*
X5870Y15160D01*
D02*
G37*
G36*
X29283Y9884D02*
X26698D01*
X26437Y9849D01*
X26194Y9749D01*
X25985Y9588D01*
X25825Y9379D01*
X25724Y9136D01*
X25690Y8875D01*
X25710Y8718D01*
X25597Y8662D01*
X25574Y8685D01*
X25574Y8685D01*
X25491Y8740D01*
X25376Y8788D01*
X25279Y8807D01*
X24703Y8807D01*
X24703Y8807D01*
X24609Y8807D01*
X24579Y8801D01*
X24548Y8800D01*
X24365Y8755D01*
X24338Y8742D01*
X24308Y8734D01*
X24141Y8646D01*
X24117Y8627D01*
X24091Y8612D01*
X23949Y8487D01*
X23930Y8463D01*
X23908Y8442D01*
X23854Y8364D01*
X22087Y5831D01*
X21970Y5855D01*
X21965Y5880D01*
X21837Y6071D01*
X21647Y6198D01*
X21423Y6242D01*
X21199Y6198D01*
X21008Y6071D01*
X20881Y5880D01*
X20837Y5656D01*
X20881Y5432D01*
X21008Y5242D01*
X21199Y5114D01*
X21412Y5072D01*
X21486Y4969D01*
X20029Y2881D01*
X19901Y2907D01*
X19879Y3018D01*
X19752Y3208D01*
X19562Y3335D01*
X19338Y3380D01*
X19113Y3335D01*
X18923Y3208D01*
X18796Y3018D01*
X18752Y2794D01*
X18796Y2569D01*
X18923Y2379D01*
X19113Y2252D01*
X19338Y2208D01*
X19426Y2225D01*
X19496Y2117D01*
X15280Y-3928D01*
X15280Y-3929D01*
X15213Y-4024D01*
X15205Y-4042D01*
X15193Y-4057D01*
X15091Y-4267D01*
X15086Y-4285D01*
X15076Y-4303D01*
X15006Y-4525D01*
X15004Y-4544D01*
X14998Y-4563D01*
X14962Y-4793D01*
X14963Y-4812D01*
X14959Y-4831D01*
X14959Y-6394D01*
X14959Y-6481D01*
X14964Y-6505D01*
X14964Y-6530D01*
X14998Y-6701D01*
X15008Y-6724D01*
X15012Y-6749D01*
X15079Y-6910D01*
X15093Y-6930D01*
X15102Y-6954D01*
X15199Y-7099D01*
X15216Y-7116D01*
X15230Y-7137D01*
X15292Y-7199D01*
X20719Y-12656D01*
X20760Y-12684D01*
X20801Y-12711D01*
X20801Y-12711D01*
X20802Y-12712D01*
X20850Y-12721D01*
X20899Y-12731D01*
X21012Y-12732D01*
X21019Y-12852D01*
X20810Y-12880D01*
X20530Y-12995D01*
X20290Y-13180D01*
X20105Y-13420D01*
X19990Y-13700D01*
X19950Y-14000D01*
X19990Y-14300D01*
X20105Y-14580D01*
X20290Y-14820D01*
X20530Y-15005D01*
X20810Y-15120D01*
X21110Y-15160D01*
X21410Y-15120D01*
X21690Y-15005D01*
X21930Y-14820D01*
X22115Y-14580D01*
X22230Y-14300D01*
X22270Y-14000D01*
X22230Y-13700D01*
X22115Y-13420D01*
X21930Y-13180D01*
X21690Y-12995D01*
X21410Y-12880D01*
X21208Y-12853D01*
X21217Y-12733D01*
X23451Y-12745D01*
X23458Y-12865D01*
X23350Y-12880D01*
X23070Y-12995D01*
X22830Y-13180D01*
X22645Y-13420D01*
X22530Y-13700D01*
X22490Y-14000D01*
X22530Y-14300D01*
X22645Y-14580D01*
X22830Y-14820D01*
X23070Y-15005D01*
X23350Y-15120D01*
X23650Y-15160D01*
X23950Y-15120D01*
X24230Y-15005D01*
X24470Y-14820D01*
X24655Y-14580D01*
X24770Y-14300D01*
X24810Y-14000D01*
X24770Y-13700D01*
X24655Y-13420D01*
X24470Y-13180D01*
X24230Y-12995D01*
X23950Y-12880D01*
X23858Y-12867D01*
X23866Y-12748D01*
X25890Y-12759D01*
X25897Y-12879D01*
X25890Y-12880D01*
X25610Y-12995D01*
X25370Y-13180D01*
X25185Y-13420D01*
X25070Y-13700D01*
X25030Y-14000D01*
X25070Y-14300D01*
X25185Y-14580D01*
X25370Y-14820D01*
X25610Y-15005D01*
X25890Y-15120D01*
X26190Y-15160D01*
X26490Y-15120D01*
X26770Y-15005D01*
X27010Y-14820D01*
X27195Y-14580D01*
X27310Y-14300D01*
X27350Y-14000D01*
X27310Y-13700D01*
X27195Y-13420D01*
X27010Y-13180D01*
X26770Y-12995D01*
X26490Y-12880D01*
X26508Y-12762D01*
X28376Y-12772D01*
X28399Y-12892D01*
X28150Y-12995D01*
X27910Y-13180D01*
X27725Y-13420D01*
X27610Y-13700D01*
X27570Y-14000D01*
X27610Y-14300D01*
X27725Y-14580D01*
X27910Y-14820D01*
X28150Y-15005D01*
X28430Y-15120D01*
X28730Y-15160D01*
X29030Y-15120D01*
X29310Y-15005D01*
X29550Y-14820D01*
X29735Y-14580D01*
X29850Y-14300D01*
X29890Y-14000D01*
X29850Y-13700D01*
X29735Y-13420D01*
X29550Y-13180D01*
X29310Y-12995D01*
X29070Y-12896D01*
X29094Y-12776D01*
X30883Y-12786D01*
X30906Y-12906D01*
X30690Y-12995D01*
X30450Y-13180D01*
X30265Y-13420D01*
X30150Y-13700D01*
X30127Y-13875D01*
X31270D01*
X32413D01*
X32390Y-13700D01*
X32275Y-13420D01*
X32090Y-13180D01*
X31850Y-12995D01*
X31643Y-12910D01*
X31668Y-12790D01*
X33390Y-12799D01*
X33413Y-12920D01*
X33230Y-12995D01*
X32990Y-13180D01*
X32805Y-13420D01*
X32690Y-13700D01*
X32650Y-14000D01*
X32690Y-14300D01*
X32805Y-14580D01*
X32990Y-14820D01*
X33230Y-15005D01*
X33510Y-15120D01*
X33810Y-15160D01*
X34110Y-15120D01*
X34390Y-15005D01*
X34630Y-14820D01*
X34815Y-14580D01*
X34930Y-14300D01*
X34970Y-14000D01*
X34930Y-13700D01*
X34815Y-13420D01*
X34630Y-13180D01*
X34390Y-12995D01*
X34217Y-12924D01*
X34241Y-12804D01*
X35897Y-12813D01*
X35920Y-12933D01*
X35770Y-12995D01*
X35530Y-13180D01*
X35345Y-13420D01*
X35230Y-13700D01*
X35207Y-13875D01*
X36350D01*
X37493D01*
X37470Y-13700D01*
X37355Y-13420D01*
X37170Y-13180D01*
X36930Y-12995D01*
X36791Y-12938D01*
X36815Y-12818D01*
X38404Y-12827D01*
X38427Y-12947D01*
X38310Y-12995D01*
X38070Y-13180D01*
X37885Y-13420D01*
X37770Y-13700D01*
X37747Y-13875D01*
X38890D01*
X40033D01*
X40010Y-13700D01*
X39895Y-13420D01*
X39710Y-13180D01*
X39470Y-12995D01*
X39365Y-12952D01*
X39389Y-12832D01*
X40911Y-12840D01*
X40934Y-12961D01*
X40850Y-12995D01*
X40610Y-13180D01*
X40425Y-13420D01*
X40310Y-13700D01*
X40287Y-13875D01*
X41430D01*
X42573D01*
X42550Y-13700D01*
X42435Y-13420D01*
X42250Y-13180D01*
X42010Y-12995D01*
X41939Y-12966D01*
X41963Y-12846D01*
X43418Y-12854D01*
X43441Y-12974D01*
X43390Y-12995D01*
X43150Y-13180D01*
X42965Y-13420D01*
X42850Y-13700D01*
X42827Y-13875D01*
X43970D01*
X45113D01*
X45090Y-13700D01*
X44975Y-13420D01*
X44790Y-13180D01*
X44550Y-12995D01*
X44513Y-12980D01*
X44537Y-12860D01*
X45925Y-12868D01*
X45948Y-12988D01*
X45930Y-12995D01*
X45690Y-13180D01*
X45505Y-13420D01*
X45390Y-13700D01*
X45367Y-13875D01*
X46510D01*
Y-14000D01*
X46635D01*
Y-15143D01*
X46810Y-15120D01*
X47090Y-15005D01*
X47330Y-14820D01*
X47402Y-14726D01*
X47522Y-14767D01*
X47522Y-15152D01*
X47542Y-15249D01*
X47597Y-15332D01*
X47680Y-15387D01*
X47777Y-15406D01*
X49990Y-15406D01*
X50088Y-15387D01*
X50171Y-15332D01*
X50226Y-15249D01*
X50245Y-15152D01*
X50245Y-11659D01*
X50226Y-11561D01*
X50171Y-11479D01*
X48841Y-10149D01*
X48820Y-10135D01*
X48802Y-10117D01*
X48779Y-10107D01*
X48758Y-10093D01*
X48733Y-10088D01*
X48710Y-10079D01*
X48685D01*
X48660Y-10074D01*
X48636Y-10079D01*
X48611D01*
X48587Y-10088D01*
X48563Y-10093D01*
X48542Y-10107D01*
X48538Y-10109D01*
X48432Y-10130D01*
X48336Y-10111D01*
X48255Y-10057D01*
X48199Y-9972D01*
X48181Y-9954D01*
X48167Y-9934D01*
X48146Y-9920D01*
X48129Y-9902D01*
X48105Y-9892D01*
X48085Y-9878D01*
X48060Y-9873D01*
X48037Y-9864D01*
X48012D01*
X47987Y-9859D01*
X46585D01*
Y-6954D01*
X46550Y-6778D01*
X46451Y-6630D01*
X46145Y-6324D01*
X46049Y-6224D01*
X45985Y-6149D01*
X45968Y-6127D01*
X45967Y-6126D01*
X45943Y-6005D01*
X45816Y-5815D01*
X45626Y-5688D01*
X45402Y-5643D01*
X45177Y-5688D01*
X44987Y-5815D01*
X44860Y-6005D01*
X44816Y-6230D01*
X44860Y-6454D01*
X44987Y-6644D01*
X45177Y-6771D01*
X45287Y-6793D01*
X45525Y-7002D01*
X45667Y-7144D01*
Y-9859D01*
X29896Y-9859D01*
X29361Y-9324D01*
X29361Y-5477D01*
X29342Y-5379D01*
X29286Y-5296D01*
X29204Y-5241D01*
X29106Y-5222D01*
X26296D01*
X26218Y-5209D01*
X26202Y-5207D01*
D01*
X26177Y-5203D01*
X25498Y-4333D01*
Y-696D01*
D01*
X25831Y-270D01*
X26168Y162D01*
X26168Y162D01*
X25502Y162D01*
X25498Y166D01*
Y166D01*
X25308D01*
Y2055D01*
X26093Y2839D01*
X28263D01*
X28817Y2286D01*
X28817Y2286D01*
X29005Y2142D01*
X29224Y2051D01*
X29458Y2020D01*
X29458Y2020D01*
X32911D01*
X33146Y2051D01*
X33365Y2142D01*
X33553Y2286D01*
X34432Y3165D01*
X34576Y3353D01*
X34667Y3572D01*
X34698Y3807D01*
Y6287D01*
X34667Y6522D01*
X34576Y6741D01*
X34432Y6929D01*
X34244Y7074D01*
X34025Y7164D01*
X33790Y7195D01*
X33555Y7164D01*
X33336Y7074D01*
X33148Y6929D01*
X33004Y6741D01*
X32913Y6522D01*
X32882Y6287D01*
Y4183D01*
X32535Y3836D01*
X29834D01*
X29318Y4352D01*
X29315Y4356D01*
X29308Y4371D01*
X29295Y4437D01*
X29317Y4513D01*
X29417Y4614D01*
X29452Y4666D01*
X29473Y4697D01*
X29492Y4794D01*
X29492Y5802D01*
X29492Y5802D01*
Y5802D01*
X29487Y5827D01*
X29487Y5852D01*
X29465Y5961D01*
X29456Y5984D01*
X29451Y6008D01*
X29430Y6059D01*
X29374Y6142D01*
X29295Y6222D01*
X29254Y6249D01*
X29212Y6277D01*
X29108Y6320D01*
X29108Y6320D01*
X29108Y6320D01*
X29064Y6329D01*
X29011Y6339D01*
X29011Y6339D01*
X29011Y6339D01*
X25971Y6339D01*
X25937Y6343D01*
X25864Y6373D01*
X25817Y6420D01*
X25787Y6493D01*
X25783Y6527D01*
X25783Y8228D01*
X25811Y8249D01*
X25899Y8274D01*
X25985Y8162D01*
X26194Y8002D01*
X26437Y7901D01*
X26698Y7866D01*
X28866D01*
X30418Y6314D01*
Y5660D01*
X30452Y5399D01*
X30553Y5155D01*
X30713Y4947D01*
X30965Y4695D01*
X31174Y4534D01*
X31417Y4434D01*
X31678Y4399D01*
X31939Y4434D01*
X32182Y4534D01*
X32391Y4695D01*
X32552Y4904D01*
X32652Y5147D01*
X32687Y5408D01*
X32652Y5669D01*
X32552Y5912D01*
X32435Y6064D01*
Y6732D01*
X32401Y6993D01*
X32300Y7236D01*
X32140Y7445D01*
X29997Y9588D01*
X29788Y9749D01*
X29544Y9849D01*
X29283Y9884D01*
D02*
G37*
G36*
X5450Y10926D02*
X4550D01*
X4367Y10902D01*
X4197Y10831D01*
X4051Y10719D01*
X3939Y10573D01*
X3868Y10403D01*
X3844Y10220D01*
Y9320D01*
X3868Y9137D01*
X3939Y8967D01*
X4051Y8821D01*
X4197Y8709D01*
X4367Y8638D01*
X4550Y8614D01*
X5450D01*
X5633Y8638D01*
X5803Y8709D01*
X5949Y8821D01*
X6061Y8967D01*
X6132Y9137D01*
X6156Y9320D01*
Y10220D01*
X6132Y10403D01*
X6061Y10573D01*
X5949Y10719D01*
X5803Y10831D01*
X5633Y10902D01*
X5450Y10926D01*
D02*
G37*
G36*
X45367Y8421D02*
X45142Y8377D01*
X44952Y8250D01*
X44825Y8059D01*
X44781Y7835D01*
X44825Y7611D01*
X44952Y7420D01*
X45142Y7293D01*
X45367Y7249D01*
X45591Y7293D01*
X45781Y7420D01*
X45908Y7611D01*
X45953Y7835D01*
X45908Y8059D01*
X45781Y8250D01*
X45591Y8377D01*
X45367Y8421D01*
D02*
G37*
G36*
X5000Y8390D02*
X4700Y8350D01*
X4420Y8235D01*
X4180Y8050D01*
X3995Y7810D01*
X3880Y7530D01*
X3840Y7230D01*
X3880Y6930D01*
X3995Y6650D01*
X4180Y6410D01*
X4420Y6225D01*
X4700Y6110D01*
X5000Y6070D01*
X5300Y6110D01*
X5580Y6225D01*
X5820Y6410D01*
X6005Y6650D01*
X6120Y6930D01*
X6160Y7230D01*
X6120Y7530D01*
X6005Y7810D01*
X5820Y8050D01*
X5580Y8235D01*
X5300Y8350D01*
X5000Y8390D01*
D02*
G37*
G36*
X45405Y7034D02*
X45180Y6989D01*
X44990Y6862D01*
X44863Y6672D01*
X44819Y6448D01*
X44863Y6223D01*
X44990Y6033D01*
X45180Y5906D01*
X45405Y5861D01*
X45629Y5906D01*
X45819Y6033D01*
X45946Y6223D01*
X45991Y6448D01*
X45946Y6672D01*
X45819Y6862D01*
X45629Y6989D01*
X45405Y7034D01*
D02*
G37*
G36*
X30628Y161D02*
X30624Y157D01*
X29958Y157D01*
X29958Y157D01*
X30628Y-701D01*
Y-5222D01*
Y-5222D01*
X30996D01*
Y161D01*
X30628D01*
Y161D01*
D02*
G37*
G36*
X45398Y-4145D02*
X45174Y-4189D01*
X44984Y-4316D01*
X44857Y-4507D01*
X44812Y-4731D01*
X44857Y-4955D01*
X44984Y-5145D01*
X45174Y-5273D01*
X45398Y-5317D01*
X45623Y-5273D01*
X45813Y-5145D01*
X45940Y-4955D01*
X45985Y-4731D01*
X45940Y-4507D01*
X45813Y-4316D01*
X45623Y-4189D01*
X45398Y-4145D01*
D02*
G37*
G36*
X5450Y-6074D02*
X4550D01*
X4367Y-6098D01*
X4197Y-6169D01*
X4051Y-6281D01*
X3939Y-6427D01*
X3868Y-6597D01*
X3844Y-6780D01*
Y-7680D01*
X3868Y-7863D01*
X3939Y-8033D01*
X4051Y-8179D01*
X4197Y-8291D01*
X4367Y-8362D01*
X4550Y-8386D01*
X5450D01*
X5633Y-8362D01*
X5803Y-8291D01*
X5949Y-8179D01*
X6061Y-8033D01*
X6132Y-7863D01*
X6156Y-7680D01*
Y-6780D01*
X6132Y-6597D01*
X6061Y-6427D01*
X5949Y-6281D01*
X5803Y-6169D01*
X5633Y-6098D01*
X5450Y-6074D01*
D02*
G37*
G36*
X5000Y-8610D02*
X4700Y-8650D01*
X4420Y-8765D01*
X4180Y-8950D01*
X3995Y-9190D01*
X3880Y-9470D01*
X3840Y-9770D01*
X3880Y-10070D01*
X3995Y-10350D01*
X4180Y-10590D01*
X4420Y-10775D01*
X4700Y-10890D01*
X5000Y-10930D01*
X5300Y-10890D01*
X5580Y-10775D01*
X5820Y-10590D01*
X6005Y-10350D01*
X6120Y-10070D01*
X6160Y-9770D01*
X6120Y-9470D01*
X6005Y-9190D01*
X5820Y-8950D01*
X5580Y-8765D01*
X5300Y-8650D01*
X5000Y-8610D01*
D02*
G37*
G36*
X51715Y-12857D02*
Y-13875D01*
X52733D01*
X52710Y-13700D01*
X52595Y-13420D01*
X52410Y-13180D01*
X52170Y-12995D01*
X51890Y-12880D01*
X51715Y-12857D01*
D02*
G37*
G36*
X54580Y-12844D02*
X54255D01*
Y-13875D01*
X55286D01*
Y-13550D01*
X55262Y-13367D01*
X55191Y-13197D01*
X55079Y-13051D01*
X54933Y-12939D01*
X54763Y-12868D01*
X54580Y-12844D01*
D02*
G37*
G36*
X51465Y-12857D02*
X51290Y-12880D01*
X51010Y-12995D01*
X50770Y-13180D01*
X50585Y-13420D01*
X50470Y-13700D01*
X50447Y-13875D01*
X51465D01*
Y-12857D01*
D02*
G37*
G36*
X54005Y-12844D02*
X53680D01*
X53497Y-12868D01*
X53327Y-12939D01*
X53181Y-13051D01*
X53069Y-13197D01*
X52998Y-13367D01*
X52974Y-13550D01*
Y-13875D01*
X54005D01*
Y-12844D01*
D02*
G37*
G36*
X52733Y-14125D02*
X51715D01*
Y-15143D01*
X51890Y-15120D01*
X52170Y-15005D01*
X52410Y-14820D01*
X52595Y-14580D01*
X52710Y-14300D01*
X52733Y-14125D01*
D02*
G37*
G36*
X42573D02*
X41555D01*
Y-15143D01*
X41730Y-15120D01*
X42010Y-15005D01*
X42250Y-14820D01*
X42435Y-14580D01*
X42550Y-14300D01*
X42573Y-14125D01*
D02*
G37*
G36*
X40033D02*
X39015D01*
Y-15143D01*
X39190Y-15120D01*
X39470Y-15005D01*
X39710Y-14820D01*
X39895Y-14580D01*
X40010Y-14300D01*
X40033Y-14125D01*
D02*
G37*
G36*
X37493D02*
X36475D01*
Y-15143D01*
X36650Y-15120D01*
X36930Y-15005D01*
X37170Y-14820D01*
X37355Y-14580D01*
X37470Y-14300D01*
X37493Y-14125D01*
D02*
G37*
G36*
X32413D02*
X31395D01*
Y-15143D01*
X31570Y-15120D01*
X31850Y-15005D01*
X32090Y-14820D01*
X32275Y-14580D01*
X32390Y-14300D01*
X32413Y-14125D01*
D02*
G37*
G36*
X45113D02*
X44095D01*
Y-15143D01*
X44270Y-15120D01*
X44550Y-15005D01*
X44790Y-14820D01*
X44975Y-14580D01*
X45090Y-14300D01*
X45113Y-14125D01*
D02*
G37*
G36*
X46385D02*
X45367D01*
X45390Y-14300D01*
X45505Y-14580D01*
X45690Y-14820D01*
X45930Y-15005D01*
X46210Y-15120D01*
X46385Y-15143D01*
Y-14125D01*
D02*
G37*
G36*
X43845D02*
X42827D01*
X42850Y-14300D01*
X42965Y-14580D01*
X43150Y-14820D01*
X43390Y-15005D01*
X43670Y-15120D01*
X43845Y-15143D01*
Y-14125D01*
D02*
G37*
G36*
X51465D02*
X50447D01*
X50470Y-14300D01*
X50585Y-14580D01*
X50770Y-14820D01*
X51010Y-15005D01*
X51290Y-15120D01*
X51465Y-15143D01*
Y-14125D01*
D02*
G37*
G36*
X41305D02*
X40287D01*
X40310Y-14300D01*
X40425Y-14580D01*
X40610Y-14820D01*
X40850Y-15005D01*
X41130Y-15120D01*
X41305Y-15143D01*
Y-14125D01*
D02*
G37*
G36*
X38765D02*
X37747D01*
X37770Y-14300D01*
X37885Y-14580D01*
X38070Y-14820D01*
X38310Y-15005D01*
X38590Y-15120D01*
X38765Y-15143D01*
Y-14125D01*
D02*
G37*
G36*
X36225D02*
X35207D01*
X35230Y-14300D01*
X35345Y-14580D01*
X35530Y-14820D01*
X35770Y-15005D01*
X36050Y-15120D01*
X36225Y-15143D01*
Y-14125D01*
D02*
G37*
G36*
X31145D02*
X30127D01*
X30150Y-14300D01*
X30265Y-14580D01*
X30450Y-14820D01*
X30690Y-15005D01*
X30970Y-15120D01*
X31145Y-15143D01*
Y-14125D01*
D02*
G37*
G36*
X55286D02*
X54255D01*
Y-15156D01*
X54580D01*
X54763Y-15132D01*
X54933Y-15061D01*
X55079Y-14949D01*
X55191Y-14803D01*
X55262Y-14633D01*
X55286Y-14450D01*
Y-14125D01*
D02*
G37*
G36*
X54005D02*
X52974D01*
Y-14450D01*
X52998Y-14633D01*
X53069Y-14803D01*
X53181Y-14949D01*
X53327Y-15061D01*
X53497Y-15132D01*
X53680Y-15156D01*
X54005D01*
Y-14125D01*
D02*
G37*
G36*
X18570Y-12840D02*
X18270Y-12880D01*
X17990Y-12995D01*
X17750Y-13180D01*
X17565Y-13420D01*
X17450Y-13700D01*
X17410Y-14000D01*
X17450Y-14300D01*
X17565Y-14580D01*
X17750Y-14820D01*
X17990Y-15005D01*
X18270Y-15120D01*
X18570Y-15160D01*
X18870Y-15120D01*
X19150Y-15005D01*
X19390Y-14820D01*
X19575Y-14580D01*
X19690Y-14300D01*
X19730Y-14000D01*
X19690Y-13700D01*
X19575Y-13420D01*
X19390Y-13180D01*
X19150Y-12995D01*
X18870Y-12880D01*
X18570Y-12840D01*
D02*
G37*
G36*
X16030D02*
X15730Y-12880D01*
X15450Y-12995D01*
X15210Y-13180D01*
X15025Y-13420D01*
X14910Y-13700D01*
X14870Y-14000D01*
X14910Y-14300D01*
X15025Y-14580D01*
X15210Y-14820D01*
X15450Y-15005D01*
X15730Y-15120D01*
X16030Y-15160D01*
X16330Y-15120D01*
X16610Y-15005D01*
X16850Y-14820D01*
X17035Y-14580D01*
X17150Y-14300D01*
X17190Y-14000D01*
X17150Y-13700D01*
X17035Y-13420D01*
X16850Y-13180D01*
X16610Y-12995D01*
X16330Y-12880D01*
X16030Y-12840D01*
D02*
G37*
G36*
X13490D02*
X13190Y-12880D01*
X12910Y-12995D01*
X12670Y-13180D01*
X12485Y-13420D01*
X12370Y-13700D01*
X12330Y-14000D01*
X12370Y-14300D01*
X12485Y-14580D01*
X12670Y-14820D01*
X12910Y-15005D01*
X13190Y-15120D01*
X13490Y-15160D01*
X13790Y-15120D01*
X14070Y-15005D01*
X14310Y-14820D01*
X14495Y-14580D01*
X14610Y-14300D01*
X14650Y-14000D01*
X14610Y-13700D01*
X14495Y-13420D01*
X14310Y-13180D01*
X14070Y-12995D01*
X13790Y-12880D01*
X13490Y-12840D01*
D02*
G37*
G36*
X10950D02*
X10650Y-12880D01*
X10370Y-12995D01*
X10130Y-13180D01*
X9945Y-13420D01*
X9830Y-13700D01*
X9790Y-14000D01*
X9830Y-14300D01*
X9945Y-14580D01*
X10130Y-14820D01*
X10370Y-15005D01*
X10650Y-15120D01*
X10950Y-15160D01*
X11250Y-15120D01*
X11530Y-15005D01*
X11770Y-14820D01*
X11955Y-14580D01*
X12070Y-14300D01*
X12110Y-14000D01*
X12070Y-13700D01*
X11955Y-13420D01*
X11770Y-13180D01*
X11530Y-12995D01*
X11250Y-12880D01*
X10950Y-12840D01*
D02*
G37*
G36*
X8410D02*
X8110Y-12880D01*
X7830Y-12995D01*
X7590Y-13180D01*
X7405Y-13420D01*
X7290Y-13700D01*
X7250Y-14000D01*
X7290Y-14300D01*
X7405Y-14580D01*
X7590Y-14820D01*
X7830Y-15005D01*
X8110Y-15120D01*
X8410Y-15160D01*
X8710Y-15120D01*
X8990Y-15005D01*
X9230Y-14820D01*
X9415Y-14580D01*
X9530Y-14300D01*
X9570Y-14000D01*
X9530Y-13700D01*
X9415Y-13420D01*
X9230Y-13180D01*
X8990Y-12995D01*
X8710Y-12880D01*
X8410Y-12840D01*
D02*
G37*
G36*
X5870D02*
X5570Y-12880D01*
X5290Y-12995D01*
X5050Y-13180D01*
X4865Y-13420D01*
X4750Y-13700D01*
X4710Y-14000D01*
X4750Y-14300D01*
X4865Y-14580D01*
X5050Y-14820D01*
X5290Y-15005D01*
X5570Y-15120D01*
X5870Y-15160D01*
X6170Y-15120D01*
X6450Y-15005D01*
X6690Y-14820D01*
X6875Y-14580D01*
X6990Y-14300D01*
X7030Y-14000D01*
X6990Y-13700D01*
X6875Y-13420D01*
X6690Y-13180D01*
X6450Y-12995D01*
X6170Y-12880D01*
X5870Y-12840D01*
D02*
G37*
%LPD*%
G36*
X25279Y8552D02*
X25393Y8505D01*
X25481Y8417D01*
X25509Y8350D01*
X25528Y8241D01*
Y8241D01*
X25528Y8241D01*
X25528Y8241D01*
X25528Y6515D01*
X25537Y6431D01*
X25601Y6276D01*
X25720Y6157D01*
X25875Y6093D01*
X25959Y6084D01*
X29011Y6084D01*
X29115Y6041D01*
X29194Y5962D01*
X29215Y5911D01*
X29237Y5802D01*
Y5802D01*
X29237Y5802D01*
X29237Y5802D01*
X29237Y4794D01*
X29106Y4663D01*
Y4658D01*
X28986Y4578D01*
X28874Y4624D01*
X28639Y4655D01*
X25717D01*
X25717Y4655D01*
X25482Y4624D01*
X25263Y4533D01*
X25075Y4389D01*
X23759Y3073D01*
X23615Y2885D01*
X23524Y2666D01*
X23493Y2431D01*
Y-3236D01*
X23263Y-3466D01*
X21940D01*
X21705Y-3497D01*
X21486Y-3587D01*
X21298Y-3732D01*
X21154Y-3920D01*
X21063Y-4139D01*
X21032Y-4374D01*
X21063Y-4609D01*
X21154Y-4827D01*
X21298Y-5015D01*
X21486Y-5160D01*
X21705Y-5250D01*
X21940Y-5281D01*
X22762D01*
X22799Y-5401D01*
X22672Y-5486D01*
X22544Y-5676D01*
X22500Y-5901D01*
X22544Y-6125D01*
X22672Y-6315D01*
X22862Y-6442D01*
X23086Y-6487D01*
X23310Y-6442D01*
X23501Y-6315D01*
X23628Y-6125D01*
X23672Y-5901D01*
X23628Y-5676D01*
X23501Y-5486D01*
X23374Y-5401D01*
X23410Y-5281D01*
X23639D01*
X23874Y-5250D01*
X24093Y-5160D01*
X24281Y-5015D01*
X25010Y-4286D01*
X25130Y-4332D01*
Y-5217D01*
X25498D01*
Y-5203D01*
X25854D01*
X25976Y-5359D01*
X26010Y-5389D01*
X26043Y-5420D01*
X26048Y-5421D01*
X26051Y-5424D01*
X26094Y-5439D01*
X26137Y-5454D01*
X26256Y-5473D01*
X26276Y-5473D01*
X26296Y-5477D01*
X29106D01*
X29106Y-9430D01*
X29790Y-10114D01*
X47987Y-10114D01*
X48072Y-10240D01*
X48237Y-10351D01*
X48432Y-10390D01*
X48627Y-10351D01*
X48660Y-10329D01*
X49990Y-11659D01*
X49990Y-15152D01*
X47777Y-15152D01*
X47777Y-13575D01*
X46821Y-12618D01*
X20900Y-12476D01*
X15472Y-7019D01*
X15411Y-6957D01*
X15314Y-6812D01*
X15248Y-6651D01*
X15214Y-6481D01*
X15214Y-6394D01*
X15214Y-4831D01*
X15249Y-4601D01*
X15319Y-4379D01*
X15422Y-4170D01*
X15489Y-4074D01*
X15489Y-4074D01*
X24063Y8219D01*
X24117Y8296D01*
X24259Y8420D01*
X24426Y8508D01*
X24609Y8552D01*
X24703Y8552D01*
X24703Y8552D01*
X25279Y8552D01*
D02*
G37*
G36*
X45731Y-6225D02*
X45742Y-6247D01*
X45761Y-6275D01*
X45787Y-6309D01*
X45860Y-6395D01*
X46092Y-6637D01*
X45809Y-6920D01*
X45740Y-6851D01*
X45419Y-6570D01*
X45397Y-6558D01*
X45381Y-6554D01*
X45726Y-6209D01*
X45731Y-6225D01*
D02*
G37*
%LPC*%
G36*
X22434Y-9700D02*
X22210Y-9745D01*
X22020Y-9872D01*
X21893Y-10062D01*
X21848Y-10286D01*
X21893Y-10511D01*
X22020Y-10701D01*
X22210Y-10828D01*
X22434Y-10873D01*
X22659Y-10828D01*
X22849Y-10701D01*
X22976Y-10511D01*
X23021Y-10286D01*
X22976Y-10062D01*
X22849Y-9872D01*
X22659Y-9745D01*
X22434Y-9700D01*
D02*
G37*
%LPD*%
D12*
X-9Y17005D02*
X62391Y17098D01*
X-9Y17005D02*
X0Y-17000D01*
X62391Y17098D02*
X62401Y-16907D01*
X0Y-17000D02*
X62401Y-16907D01*
D22*
X31426Y5660D02*
X31678Y5408D01*
X29283Y8875D02*
X31426Y6732D01*
Y5660D02*
Y6732D01*
X26698Y8875D02*
X29283D01*
D48*
X46126Y-10135D02*
X47424Y-11432D01*
X48584D01*
X45402Y-6230D02*
X46126Y-6954D01*
Y-10135D02*
Y-6954D01*
D79*
X5870Y14000D02*
D03*
X8410D02*
D03*
X10950D02*
D03*
X13490D02*
D03*
X16030D02*
D03*
X18570D02*
D03*
X21110D02*
D03*
X23650D02*
D03*
X26190D02*
D03*
X28730D02*
D03*
X31270D02*
D03*
X33810D02*
D03*
X36350D02*
D03*
X38890D02*
D03*
X41430D02*
D03*
X43970D02*
D03*
X46510D02*
D03*
X49050D02*
D03*
X51590D02*
D03*
X5000Y-9770D02*
D03*
Y7230D02*
D03*
X51590Y-14000D02*
D03*
X49050D02*
D03*
X46510D02*
D03*
X43970D02*
D03*
X41430D02*
D03*
X38890D02*
D03*
X36350D02*
D03*
X33810D02*
D03*
X31270D02*
D03*
X28730D02*
D03*
X26190D02*
D03*
X23650D02*
D03*
X21110D02*
D03*
X18570D02*
D03*
X16030D02*
D03*
X13490D02*
D03*
X10950D02*
D03*
X8410D02*
D03*
X5870D02*
D03*
D80*
X54130Y14000D02*
D03*
Y-14000D02*
D03*
D81*
X5000Y-7230D02*
D03*
Y9770D02*
D03*
D82*
X46273Y-563D02*
D03*
X39412Y10849D02*
D03*
X41904Y10854D02*
D03*
X38788Y10849D02*
D03*
X41281D02*
D03*
X38165D02*
D03*
X40658D02*
D03*
X37542D02*
D03*
X40035D02*
D03*
X43150Y10858D02*
D03*
X45643D02*
D03*
X45020D02*
D03*
X44397D02*
D03*
X42527D02*
D03*
X43773D02*
D03*
X46266D02*
D03*
X48135Y10859D02*
D03*
X46889D02*
D03*
X48759D02*
D03*
X47512D02*
D03*
X61009Y15043D02*
D03*
X60559Y14143D02*
D03*
X61009Y13243D02*
D03*
X60559Y12343D02*
D03*
X61009Y11443D02*
D03*
X60559Y10543D02*
D03*
X61009Y9643D02*
D03*
X60559Y8743D02*
D03*
X61009Y7843D02*
D03*
X60559Y6943D02*
D03*
X61009Y6043D02*
D03*
X60559Y5143D02*
D03*
X61009Y4243D02*
D03*
Y-4757D02*
D03*
X60559Y-5657D02*
D03*
X61009Y-6557D02*
D03*
X60559Y-7457D02*
D03*
X61009Y-8357D02*
D03*
X60559Y-9257D02*
D03*
X61009Y-10157D02*
D03*
X60559Y-11057D02*
D03*
X61009Y-11957D02*
D03*
X60559Y-12857D02*
D03*
X61009Y-13757D02*
D03*
X60559Y-14657D02*
D03*
X61009Y-15557D02*
D03*
X60109Y15043D02*
D03*
X59659Y14143D02*
D03*
X60109Y13243D02*
D03*
X59659Y12343D02*
D03*
X60109Y11443D02*
D03*
X59659Y10543D02*
D03*
X60109Y9643D02*
D03*
X59659Y8743D02*
D03*
X60109Y7843D02*
D03*
X59659Y6943D02*
D03*
X60109Y6043D02*
D03*
X59659Y5143D02*
D03*
X60109Y4243D02*
D03*
Y-4757D02*
D03*
X59659Y-5657D02*
D03*
X60109Y-6557D02*
D03*
X59659Y-7457D02*
D03*
X60109Y-8357D02*
D03*
X59659Y-9257D02*
D03*
X60109Y-10157D02*
D03*
X59659Y-11057D02*
D03*
X60109Y-11957D02*
D03*
X59659Y-12857D02*
D03*
X60109Y-13757D02*
D03*
X59659Y-14657D02*
D03*
X60109Y-15557D02*
D03*
X59209Y15043D02*
D03*
X58759Y14143D02*
D03*
X59209Y13243D02*
D03*
X58759Y12343D02*
D03*
X59209Y11443D02*
D03*
X58759Y10543D02*
D03*
X59209Y9643D02*
D03*
X58759Y8743D02*
D03*
X59209Y7843D02*
D03*
X58759Y6943D02*
D03*
X59209Y6043D02*
D03*
X58759Y5143D02*
D03*
X59209Y4243D02*
D03*
Y-4757D02*
D03*
X58759Y-5657D02*
D03*
X59209Y-6557D02*
D03*
X58759Y-7457D02*
D03*
X59209Y-8357D02*
D03*
X58759Y-9257D02*
D03*
X59209Y-10157D02*
D03*
X58759Y-11057D02*
D03*
X59209Y-11957D02*
D03*
X58759Y-12857D02*
D03*
X59209Y-15557D02*
D03*
X58309Y15043D02*
D03*
X57859Y14143D02*
D03*
X58309Y13243D02*
D03*
X57859Y12343D02*
D03*
X58309Y11443D02*
D03*
X57859Y10543D02*
D03*
X58309Y9643D02*
D03*
X57859Y8743D02*
D03*
X58309Y7843D02*
D03*
X57859Y6943D02*
D03*
X58309Y6043D02*
D03*
X57859Y5143D02*
D03*
X58309Y4243D02*
D03*
Y-4757D02*
D03*
X57859Y-5657D02*
D03*
X58309Y-6557D02*
D03*
X57859Y-7457D02*
D03*
X58309Y-8357D02*
D03*
X57859Y-9257D02*
D03*
X58309Y-10157D02*
D03*
X57859Y-11057D02*
D03*
X58309Y-11957D02*
D03*
X57859Y-12857D02*
D03*
X58309Y-13757D02*
D03*
X57409Y15043D02*
D03*
X56959Y14143D02*
D03*
X57409Y13243D02*
D03*
X56959Y12343D02*
D03*
X57409Y11443D02*
D03*
X56959Y10543D02*
D03*
X57409Y9643D02*
D03*
X56959Y8743D02*
D03*
X57409Y7843D02*
D03*
X56959Y6943D02*
D03*
X57409Y6043D02*
D03*
X56959Y5143D02*
D03*
X57409Y4243D02*
D03*
X56959Y3343D02*
D03*
X57409Y-2957D02*
D03*
X56959Y-3857D02*
D03*
X57409Y-4757D02*
D03*
X56959Y-5657D02*
D03*
X57409Y-6557D02*
D03*
X56959Y-7457D02*
D03*
X57409Y-8357D02*
D03*
X56959Y-9257D02*
D03*
X57409Y-10157D02*
D03*
X56959Y-11057D02*
D03*
X57409Y-11957D02*
D03*
X56959Y-12857D02*
D03*
X57409Y-13757D02*
D03*
X56059Y14143D02*
D03*
X56509Y13243D02*
D03*
X56059Y12343D02*
D03*
X56509Y11443D02*
D03*
X56059Y10543D02*
D03*
X56509Y9643D02*
D03*
X56059Y8743D02*
D03*
X56509Y7843D02*
D03*
X56059Y6943D02*
D03*
X56509Y6043D02*
D03*
X56059Y5143D02*
D03*
X56509Y4243D02*
D03*
X56059Y3343D02*
D03*
X56509Y2443D02*
D03*
Y-2957D02*
D03*
X56059Y-3857D02*
D03*
X56509Y-4757D02*
D03*
X56059Y-5657D02*
D03*
X56509Y-6557D02*
D03*
X56059Y-7457D02*
D03*
X56509Y-8357D02*
D03*
X56059Y-9257D02*
D03*
X56509Y-10157D02*
D03*
X56059Y-11057D02*
D03*
X56509Y-11957D02*
D03*
X56059Y-12857D02*
D03*
X56509Y-13757D02*
D03*
X56059Y-14657D02*
D03*
X56509Y-15557D02*
D03*
X55609Y15043D02*
D03*
Y13243D02*
D03*
X55159Y12343D02*
D03*
X55609Y11443D02*
D03*
X55159Y10543D02*
D03*
X55609Y9643D02*
D03*
X55159Y8743D02*
D03*
X55609Y7843D02*
D03*
X55159Y6943D02*
D03*
X55609Y6043D02*
D03*
X55159Y5143D02*
D03*
X55609Y4243D02*
D03*
X55159Y3343D02*
D03*
X55609Y2443D02*
D03*
Y-2957D02*
D03*
X55159Y-3857D02*
D03*
X55609Y-4757D02*
D03*
X55159Y-5657D02*
D03*
X55609Y-6557D02*
D03*
X55159Y-7457D02*
D03*
X55609Y-8357D02*
D03*
X55159Y-9257D02*
D03*
X55609Y-10157D02*
D03*
X55159Y-11057D02*
D03*
X55609Y-11957D02*
D03*
Y-13757D02*
D03*
Y-15557D02*
D03*
X54259Y12343D02*
D03*
X54709Y11443D02*
D03*
X54259Y10543D02*
D03*
X54709Y9643D02*
D03*
X54259Y8743D02*
D03*
X54709Y7843D02*
D03*
X54259Y6943D02*
D03*
X54709Y6043D02*
D03*
X54259Y5143D02*
D03*
X54709Y4243D02*
D03*
X54259Y3343D02*
D03*
X54709Y2443D02*
D03*
Y-2957D02*
D03*
X54259Y-3857D02*
D03*
X54709Y-4757D02*
D03*
X54259Y-5657D02*
D03*
X54709Y-6557D02*
D03*
X54259Y-7457D02*
D03*
X54709Y-8357D02*
D03*
X54259Y-9257D02*
D03*
X54709Y-10157D02*
D03*
X54259Y-11057D02*
D03*
X54709Y-11957D02*
D03*
Y-15557D02*
D03*
X53359Y12343D02*
D03*
X53809Y11443D02*
D03*
X53359Y10543D02*
D03*
X53809Y9643D02*
D03*
X53359Y8743D02*
D03*
X53809Y7843D02*
D03*
X53359Y6943D02*
D03*
X53809Y6043D02*
D03*
X53359Y5143D02*
D03*
X53809Y4243D02*
D03*
X53359Y3343D02*
D03*
X53809Y2443D02*
D03*
Y-2957D02*
D03*
X53359Y-3857D02*
D03*
X53809Y-4757D02*
D03*
X53359Y-5657D02*
D03*
X53809Y-6557D02*
D03*
X53359Y-7457D02*
D03*
X53809Y-8357D02*
D03*
X53359Y-11057D02*
D03*
X53809Y-11957D02*
D03*
Y-15557D02*
D03*
X52909Y15043D02*
D03*
X52459Y12343D02*
D03*
X52909Y11443D02*
D03*
Y9643D02*
D03*
X52459Y8743D02*
D03*
X52909Y7843D02*
D03*
X52459Y6943D02*
D03*
X52909Y6043D02*
D03*
X52459Y5143D02*
D03*
X52909Y4243D02*
D03*
X52459Y3343D02*
D03*
X52909Y2443D02*
D03*
Y-2957D02*
D03*
X52459Y-3857D02*
D03*
X52909Y-4757D02*
D03*
X52459Y-5657D02*
D03*
X52909Y-6557D02*
D03*
X52459Y-7457D02*
D03*
X52909Y-8357D02*
D03*
X52459Y-9257D02*
D03*
Y-11057D02*
D03*
X52909Y-11957D02*
D03*
X52459Y-12857D02*
D03*
X52909Y-15557D02*
D03*
X51559Y12343D02*
D03*
X52009Y11443D02*
D03*
X51559Y10543D02*
D03*
X52009Y9643D02*
D03*
X51559Y8743D02*
D03*
X52009Y7843D02*
D03*
X51559Y6943D02*
D03*
X52009Y6043D02*
D03*
X51559Y5143D02*
D03*
X52009Y4243D02*
D03*
X51559Y3343D02*
D03*
X52009Y2443D02*
D03*
Y-2957D02*
D03*
X51559Y-3857D02*
D03*
X52009Y-4757D02*
D03*
X51559Y-5657D02*
D03*
X52009Y-6557D02*
D03*
X51559Y-7457D02*
D03*
X52009Y-8357D02*
D03*
X51559Y-11057D02*
D03*
X52009Y-15557D02*
D03*
X51109Y11443D02*
D03*
Y9643D02*
D03*
X50659Y8743D02*
D03*
X51109Y7843D02*
D03*
X50659Y6943D02*
D03*
X51109Y6043D02*
D03*
X50659Y5143D02*
D03*
X51109Y4243D02*
D03*
X50659Y3343D02*
D03*
X51109Y2443D02*
D03*
Y-2957D02*
D03*
X50659Y-3857D02*
D03*
X51109Y-4757D02*
D03*
X50659Y-5657D02*
D03*
X51109Y-6557D02*
D03*
X50659Y-7457D02*
D03*
X51109Y-8357D02*
D03*
X50659Y-9257D02*
D03*
Y-12857D02*
D03*
X51109Y-15557D02*
D03*
X50209Y9643D02*
D03*
X49759Y8743D02*
D03*
X50209Y7843D02*
D03*
X49759Y6943D02*
D03*
X50209Y6043D02*
D03*
X49759Y5143D02*
D03*
X50209Y4243D02*
D03*
X49759Y3343D02*
D03*
X50209Y2443D02*
D03*
Y-2957D02*
D03*
X49759Y-3857D02*
D03*
X50209Y-4757D02*
D03*
X49759Y-5657D02*
D03*
X50209Y-6557D02*
D03*
X49759Y-7457D02*
D03*
X50209Y-8357D02*
D03*
X49759Y-9257D02*
D03*
X48859Y12343D02*
D03*
X49309Y9643D02*
D03*
X48859Y8743D02*
D03*
X49309Y7843D02*
D03*
X48859Y6943D02*
D03*
X49309Y6043D02*
D03*
X48859Y5143D02*
D03*
X49309Y4243D02*
D03*
X48859Y3343D02*
D03*
X49309Y-4757D02*
D03*
Y-6557D02*
D03*
X48859Y-7457D02*
D03*
X49309Y-8357D02*
D03*
X48859Y-9257D02*
D03*
X48409Y9643D02*
D03*
X47959Y8743D02*
D03*
X48409Y7843D02*
D03*
X47959Y6943D02*
D03*
X48409Y6043D02*
D03*
X47959Y5143D02*
D03*
X48409Y4243D02*
D03*
X47959Y3343D02*
D03*
X48409Y-6557D02*
D03*
X47959Y-7457D02*
D03*
X48409Y-8357D02*
D03*
X47959Y-9257D02*
D03*
X47509Y15043D02*
D03*
Y9643D02*
D03*
X47059Y8743D02*
D03*
X47509Y-2957D02*
D03*
Y-8357D02*
D03*
X47059Y-9257D02*
D03*
X46159Y12343D02*
D03*
X46609Y9643D02*
D03*
Y-15557D02*
D03*
X45259Y12343D02*
D03*
X45709Y9643D02*
D03*
X45259Y5143D02*
D03*
X45709Y4243D02*
D03*
X45259Y3343D02*
D03*
Y-7457D02*
D03*
Y-9257D02*
D03*
X45709Y-15557D02*
D03*
X44359Y12343D02*
D03*
X44809Y9643D02*
D03*
X44359Y5143D02*
D03*
X44809Y4243D02*
D03*
X44359Y3343D02*
D03*
X44809Y-8357D02*
D03*
X44359Y-9257D02*
D03*
X43459Y12343D02*
D03*
X43909Y9643D02*
D03*
X43459Y6943D02*
D03*
X43909Y6043D02*
D03*
X43459Y5143D02*
D03*
X43909Y4243D02*
D03*
X43459Y3343D02*
D03*
X43909Y-4757D02*
D03*
X43459Y-5657D02*
D03*
X43909Y-8357D02*
D03*
X43459Y-9257D02*
D03*
X43009Y9643D02*
D03*
X42559Y6943D02*
D03*
X43009Y6043D02*
D03*
X42559Y5143D02*
D03*
X43009Y4243D02*
D03*
X42559Y3343D02*
D03*
X43009Y-4757D02*
D03*
X42559Y-5657D02*
D03*
X43009Y-6557D02*
D03*
Y-8357D02*
D03*
X42559Y-9257D02*
D03*
X42109Y9643D02*
D03*
X41659Y6943D02*
D03*
X42109Y6043D02*
D03*
X41659Y5143D02*
D03*
X42109Y4243D02*
D03*
X41659Y3343D02*
D03*
X42109Y-4757D02*
D03*
X41659Y-5657D02*
D03*
X42109Y-6557D02*
D03*
Y-8357D02*
D03*
X41659Y-9257D02*
D03*
X41209Y9643D02*
D03*
X40759Y6943D02*
D03*
X41209Y6043D02*
D03*
X40759Y5143D02*
D03*
X41209Y4243D02*
D03*
X40759Y3343D02*
D03*
X41209Y-4757D02*
D03*
Y-8357D02*
D03*
X40759Y-9257D02*
D03*
X40309Y9643D02*
D03*
X39859Y6943D02*
D03*
X40309Y6043D02*
D03*
X39859Y5143D02*
D03*
X40309Y4243D02*
D03*
X39859Y3343D02*
D03*
X40309Y-4757D02*
D03*
Y-8357D02*
D03*
X39859Y-9257D02*
D03*
X39409Y9643D02*
D03*
Y6043D02*
D03*
X38959Y5143D02*
D03*
X39409Y4243D02*
D03*
Y-4757D02*
D03*
Y-8357D02*
D03*
X38959Y-9257D02*
D03*
X38509Y9643D02*
D03*
X38059Y6943D02*
D03*
X38509Y4243D02*
D03*
Y-4757D02*
D03*
Y-8357D02*
D03*
X38059Y-9257D02*
D03*
X37609Y15043D02*
D03*
Y9643D02*
D03*
X37159Y5143D02*
D03*
X37609Y-4757D02*
D03*
Y-8357D02*
D03*
X37159Y-9257D02*
D03*
X36709Y9643D02*
D03*
Y-4757D02*
D03*
Y-8357D02*
D03*
X36259Y-9257D02*
D03*
X35809Y9643D02*
D03*
X35359Y5143D02*
D03*
X35809Y-4757D02*
D03*
X35359Y-9257D02*
D03*
X34909Y15043D02*
D03*
X34009Y9643D02*
D03*
X28609Y-15557D02*
D03*
X24559Y12343D02*
D03*
X21409Y9643D02*
D03*
X20059Y8743D02*
D03*
Y-12857D02*
D03*
X19609Y9643D02*
D03*
Y7843D02*
D03*
X18708Y9643D02*
D03*
X18259Y8743D02*
D03*
X18708Y7843D02*
D03*
X17809Y9643D02*
D03*
X17358Y8743D02*
D03*
X17809Y6043D02*
D03*
X17358Y5143D02*
D03*
Y3343D02*
D03*
Y1543D02*
D03*
X16909Y9643D02*
D03*
Y7843D02*
D03*
X16458Y6943D02*
D03*
Y5143D02*
D03*
X16909Y2443D02*
D03*
X16458Y1543D02*
D03*
X16008Y9643D02*
D03*
X15559Y8743D02*
D03*
X16008Y7843D02*
D03*
Y4243D02*
D03*
X15559Y3343D02*
D03*
X14658Y8743D02*
D03*
X15108Y6043D02*
D03*
Y4243D02*
D03*
X14658Y3343D02*
D03*
Y-3857D02*
D03*
Y-5657D02*
D03*
Y-7457D02*
D03*
Y-12857D02*
D03*
X13759Y8743D02*
D03*
X14208Y7843D02*
D03*
X13759Y6943D02*
D03*
X14208Y6043D02*
D03*
Y4243D02*
D03*
X13759Y3343D02*
D03*
Y-257D02*
D03*
X14208Y-4757D02*
D03*
X13759Y-5657D02*
D03*
X14208Y-6557D02*
D03*
X13759Y-7457D02*
D03*
X13309Y7843D02*
D03*
Y6043D02*
D03*
X12858Y5143D02*
D03*
Y1543D02*
D03*
X13309Y643D02*
D03*
X12858Y-257D02*
D03*
X13309Y-1157D02*
D03*
X12858Y-2057D02*
D03*
X13309Y-4757D02*
D03*
Y-6557D02*
D03*
X12408Y15043D02*
D03*
Y4243D02*
D03*
Y643D02*
D03*
Y-1157D02*
D03*
Y-2957D02*
D03*
Y-4757D02*
D03*
Y-6557D02*
D03*
X10158Y-11057D02*
D03*
X9708Y15043D02*
D03*
X9259Y-9257D02*
D03*
Y-11057D02*
D03*
X9708Y-11957D02*
D03*
X9259Y-12857D02*
D03*
X8358Y5143D02*
D03*
Y3343D02*
D03*
X8809Y2443D02*
D03*
X8358Y1543D02*
D03*
X8809Y643D02*
D03*
X8358Y-257D02*
D03*
X8809Y-1157D02*
D03*
X8358Y-2057D02*
D03*
X8809Y-2957D02*
D03*
X8358Y-3857D02*
D03*
X8809Y-8357D02*
D03*
X8358Y-9257D02*
D03*
Y-11057D02*
D03*
X8809Y-11957D02*
D03*
X7458Y8743D02*
D03*
Y5143D02*
D03*
X7909Y4243D02*
D03*
X7458Y3343D02*
D03*
X7909Y2443D02*
D03*
X7458Y1543D02*
D03*
X7909Y643D02*
D03*
X7458Y-257D02*
D03*
X7909Y-1157D02*
D03*
X7458Y-2057D02*
D03*
X7909Y-2957D02*
D03*
X7458Y-3857D02*
D03*
Y-5657D02*
D03*
X7909Y-8357D02*
D03*
X7458Y-9257D02*
D03*
Y-11057D02*
D03*
X7909Y-11957D02*
D03*
X7458Y-12857D02*
D03*
X6558Y12343D02*
D03*
Y10543D02*
D03*
Y8743D02*
D03*
X7008Y7843D02*
D03*
X6558Y5143D02*
D03*
X7008Y4243D02*
D03*
X6558Y3343D02*
D03*
X7008Y2443D02*
D03*
X6558Y1543D02*
D03*
X7008Y643D02*
D03*
X6558Y-257D02*
D03*
X7008Y-1157D02*
D03*
X6558Y-2057D02*
D03*
X7008Y-2957D02*
D03*
X6558Y-3857D02*
D03*
X7008Y-6557D02*
D03*
Y-8357D02*
D03*
X6558Y-9257D02*
D03*
X7008Y-11957D02*
D03*
X5659Y12343D02*
D03*
X6108Y11443D02*
D03*
Y6043D02*
D03*
X5659Y5143D02*
D03*
X6108Y4243D02*
D03*
X5659Y3343D02*
D03*
X6108Y2443D02*
D03*
X5659Y1543D02*
D03*
X6108Y643D02*
D03*
X5659Y-257D02*
D03*
X6108Y-1157D02*
D03*
X5659Y-2057D02*
D03*
X6108Y-2957D02*
D03*
X5659Y-3857D02*
D03*
Y-5657D02*
D03*
X6108Y-11957D02*
D03*
Y-15557D02*
D03*
X4758Y5143D02*
D03*
X5208Y4243D02*
D03*
X4758Y3343D02*
D03*
X5208Y2443D02*
D03*
X4758Y1543D02*
D03*
X5208Y643D02*
D03*
X4758Y-257D02*
D03*
X5208Y-1157D02*
D03*
X4758Y-2057D02*
D03*
X5208Y-2957D02*
D03*
X4758Y-3857D02*
D03*
X5208Y-4757D02*
D03*
X4758Y-5657D02*
D03*
X5208Y-11957D02*
D03*
X4758Y-12857D02*
D03*
X5208Y-15557D02*
D03*
X4308Y15043D02*
D03*
X3858Y14143D02*
D03*
X4308Y13243D02*
D03*
X3858Y12343D02*
D03*
X4308Y11443D02*
D03*
X3858Y5143D02*
D03*
X4308Y4243D02*
D03*
X3858Y3343D02*
D03*
X4308Y2443D02*
D03*
X3858Y1543D02*
D03*
X4308Y643D02*
D03*
X3858Y-257D02*
D03*
X4308Y-1157D02*
D03*
X3858Y-2057D02*
D03*
X4308Y-2957D02*
D03*
X3858Y-3857D02*
D03*
X4308Y-4757D02*
D03*
X3858Y-5657D02*
D03*
Y-11057D02*
D03*
X4308Y-11957D02*
D03*
X3858Y-12857D02*
D03*
Y-14657D02*
D03*
X4308Y-15557D02*
D03*
X3408Y15043D02*
D03*
Y13243D02*
D03*
X2958Y12343D02*
D03*
X3408Y11443D02*
D03*
X2958Y10543D02*
D03*
X3408Y9643D02*
D03*
X2958Y8743D02*
D03*
X3408Y7843D02*
D03*
X2958Y6943D02*
D03*
X3408Y6043D02*
D03*
X2958Y5143D02*
D03*
X3408Y4243D02*
D03*
X2958Y3343D02*
D03*
X3408Y2443D02*
D03*
X2958Y1543D02*
D03*
X3408Y643D02*
D03*
X2958Y-257D02*
D03*
X3408Y-1157D02*
D03*
X2958Y-2057D02*
D03*
X3408Y-2957D02*
D03*
X2958Y-3857D02*
D03*
X3408Y-4757D02*
D03*
X2958Y-5657D02*
D03*
X3408Y-6557D02*
D03*
X2958Y-7457D02*
D03*
X3408Y-8357D02*
D03*
X2958Y-9257D02*
D03*
X3408Y-10157D02*
D03*
X2958Y-11057D02*
D03*
X3408Y-11957D02*
D03*
X2958Y-12857D02*
D03*
Y-14657D02*
D03*
X3408Y-15557D02*
D03*
X2508Y13243D02*
D03*
X2058Y12343D02*
D03*
X2508Y11443D02*
D03*
X2058Y10543D02*
D03*
X2508Y9643D02*
D03*
X2058Y8743D02*
D03*
X2508Y7843D02*
D03*
X2058Y6943D02*
D03*
X2508Y6043D02*
D03*
X2058Y5143D02*
D03*
X2508Y4243D02*
D03*
X2058Y3343D02*
D03*
X2508Y2443D02*
D03*
X2058Y1543D02*
D03*
X2508Y643D02*
D03*
X2058Y-257D02*
D03*
X2508Y-1157D02*
D03*
X2058Y-2057D02*
D03*
X2508Y-2957D02*
D03*
X2058Y-3857D02*
D03*
X2508Y-4757D02*
D03*
X2058Y-5657D02*
D03*
X2508Y-6557D02*
D03*
X2058Y-7457D02*
D03*
X2508Y-8357D02*
D03*
X2058Y-9257D02*
D03*
X2508Y-10157D02*
D03*
X2058Y-11057D02*
D03*
X2508Y-11957D02*
D03*
X2058Y-12857D02*
D03*
X2508Y-13757D02*
D03*
X2058Y-14657D02*
D03*
X2508Y-15557D02*
D03*
X1608Y13243D02*
D03*
Y11443D02*
D03*
Y9643D02*
D03*
Y7843D02*
D03*
Y6043D02*
D03*
Y4243D02*
D03*
Y2443D02*
D03*
Y643D02*
D03*
Y-1157D02*
D03*
Y-2957D02*
D03*
Y-4757D02*
D03*
Y-6557D02*
D03*
Y-8357D02*
D03*
Y-10157D02*
D03*
Y-11957D02*
D03*
Y-13757D02*
D03*
Y-15557D02*
D03*
X36347Y-2251D02*
D03*
X36327Y1896D02*
D03*
X36395Y2893D02*
D03*
X46062Y-1175D02*
D03*
X48581Y904D02*
D03*
X48878Y-717D02*
D03*
X49413Y-1066D02*
D03*
X50156D02*
D03*
X47428Y-1000D02*
D03*
X47244Y-1632D02*
D03*
X50630Y-1462D02*
D03*
X53129Y-1066D02*
D03*
X52386D02*
D03*
X54615D02*
D03*
X53872D02*
D03*
X56101D02*
D03*
X55358D02*
D03*
X61263Y-1405D02*
D03*
X62006D02*
D03*
X59777D02*
D03*
X60520D02*
D03*
X58291D02*
D03*
X59034D02*
D03*
X56744Y-1066D02*
D03*
X51890Y-1462D02*
D03*
X59030Y1456D02*
D03*
X58287D02*
D03*
X60516D02*
D03*
X59773D02*
D03*
X62002D02*
D03*
X61259D02*
D03*
X57708Y1139D02*
D03*
X56322D02*
D03*
X57065D02*
D03*
X54836D02*
D03*
X55579D02*
D03*
X53349D02*
D03*
X54093D02*
D03*
X51963D02*
D03*
X52706D02*
D03*
X50477D02*
D03*
X51220D02*
D03*
X49734D02*
D03*
X49042Y1224D02*
D03*
X43119Y1116D02*
D03*
X42376D02*
D03*
X44506D02*
D03*
X43762D02*
D03*
X45992D02*
D03*
X45249D02*
D03*
X46735D02*
D03*
X45425Y-1047D02*
D03*
X43938D02*
D03*
X44681D02*
D03*
X42452D02*
D03*
X43195D02*
D03*
X41066D02*
D03*
X41809D02*
D03*
X39580D02*
D03*
X40323D02*
D03*
X38836D02*
D03*
X36155Y-751D02*
D03*
X38093Y-1047D02*
D03*
X35374Y-751D02*
D03*
X39711Y2400D02*
D03*
X38225D02*
D03*
X38968D02*
D03*
X37482D02*
D03*
X36947Y1114D02*
D03*
Y1857D02*
D03*
X36265Y1161D02*
D03*
X37626Y-1439D02*
D03*
X36365D02*
D03*
X36969Y-1648D02*
D03*
X51220Y-1610D02*
D03*
X37837Y-2466D02*
D03*
X38580D02*
D03*
X40066D02*
D03*
X39323D02*
D03*
X41552D02*
D03*
X40809D02*
D03*
X42939D02*
D03*
X42195D02*
D03*
X44425D02*
D03*
X43682D02*
D03*
X37812Y-3575D02*
D03*
X38555D02*
D03*
X40041D02*
D03*
X39298D02*
D03*
X41527D02*
D03*
X40784D02*
D03*
X42913D02*
D03*
X42170D02*
D03*
X43657D02*
D03*
X45132Y-3446D02*
D03*
X44400Y-3575D02*
D03*
X45805Y-3132D02*
D03*
X46374Y-2654D02*
D03*
X46900Y-2129D02*
D03*
X45668Y-1674D02*
D03*
X45098Y-2152D02*
D03*
X36539Y-3979D02*
D03*
X37282D02*
D03*
X35053D02*
D03*
X35796D02*
D03*
X34309D02*
D03*
X35604Y-2251D02*
D03*
X44877Y1648D02*
D03*
X45621D02*
D03*
X43391D02*
D03*
X44134D02*
D03*
X42748D02*
D03*
X37882Y2893D02*
D03*
X37138D02*
D03*
X39368D02*
D03*
X38625D02*
D03*
X36739Y2400D02*
D03*
X46364Y1648D02*
D03*
X46048Y2152D02*
D03*
X40946D02*
D03*
X40203D02*
D03*
X42433D02*
D03*
X41690D02*
D03*
X43819D02*
D03*
X43076D02*
D03*
X45305D02*
D03*
X44562D02*
D03*
X44759Y-4069D02*
D03*
X44016D02*
D03*
X42529D02*
D03*
X43272D02*
D03*
X41143D02*
D03*
X41886D02*
D03*
X39657D02*
D03*
X40400D02*
D03*
X38914D02*
D03*
X38171D02*
D03*
X46849Y-3208D02*
D03*
X44326Y-1734D02*
D03*
X42840D02*
D03*
X43583D02*
D03*
X41453D02*
D03*
X42196D02*
D03*
X39967D02*
D03*
X40710D02*
D03*
X39224D02*
D03*
X38481D02*
D03*
X45018Y-1520D02*
D03*
X57411Y1695D02*
D03*
X55925D02*
D03*
X56668D02*
D03*
X54439D02*
D03*
X55182D02*
D03*
X53052D02*
D03*
X53795D02*
D03*
X51566D02*
D03*
X52309D02*
D03*
X50823D02*
D03*
X50080D02*
D03*
X49337D02*
D03*
X52774Y-1646D02*
D03*
X53517D02*
D03*
X55003D02*
D03*
X54260D02*
D03*
X56490D02*
D03*
X55746D02*
D03*
X49800Y-1574D02*
D03*
X57803Y-1727D02*
D03*
X57160D02*
D03*
X53164Y-2240D02*
D03*
X54650D02*
D03*
X53907Y-2240D02*
D03*
X55393Y-2240D02*
D03*
X56136D02*
D03*
X57623Y-2240D02*
D03*
X56879D02*
D03*
X52421Y-2240D02*
D03*
X51678Y-2240D02*
D03*
X50934D02*
D03*
X49448Y-2240D02*
D03*
X50191Y-2240D02*
D03*
X40147Y1116D02*
D03*
X40890D02*
D03*
X42005Y1648D02*
D03*
X40519D02*
D03*
X41262D02*
D03*
X41633Y1116D02*
D03*
X28484Y-8637D02*
D03*
X28590Y-8053D02*
D03*
X52202Y10719D02*
D03*
X49382Y10956D02*
D03*
X50005D02*
D03*
X50628D02*
D03*
X53417Y-9880D02*
D03*
X52794D02*
D03*
X52171D02*
D03*
X51548D02*
D03*
X50925D02*
D03*
X50302D02*
D03*
X48432D02*
D03*
X49055D02*
D03*
X49678D02*
D03*
X28811Y5677D02*
D03*
X27979Y5686D02*
D03*
D84*
X26048Y-4408D02*
D03*
X35382Y3882D02*
D03*
X61899Y2819D02*
D03*
X61929Y-2845D02*
D03*
X45402Y-6230D02*
D03*
X61105Y2833D02*
D03*
X58537Y2857D02*
D03*
X60246Y2857D02*
D03*
X59392Y2857D02*
D03*
X61112Y-2827D02*
D03*
X58543Y-2803D02*
D03*
X60253Y-2803D02*
D03*
X59398Y-2803D02*
D03*
X707Y-16381D02*
D03*
X1562D02*
D03*
X2417D02*
D03*
X4126D02*
D03*
X5836D02*
D03*
X4981D02*
D03*
X3272D02*
D03*
X732Y-13764D02*
D03*
X732Y-12054D02*
D03*
X732Y-11200D02*
D03*
X732Y-12909D02*
D03*
Y-14619D02*
D03*
Y-15474D02*
D03*
X756Y-10341D02*
D03*
Y-9486D02*
D03*
Y-7776D02*
D03*
X756Y-6067D02*
D03*
X756Y-6921D02*
D03*
X756Y-8631D02*
D03*
X805Y1635D02*
D03*
X805Y3345D02*
D03*
X805Y4199D02*
D03*
X805Y2490D02*
D03*
Y780D02*
D03*
Y-75D02*
D03*
X780Y-5208D02*
D03*
Y-4353D02*
D03*
Y-2643D02*
D03*
X780Y-934D02*
D03*
X780Y-1788D02*
D03*
X780Y-3498D02*
D03*
X853Y11901D02*
D03*
X853Y13610D02*
D03*
X853Y14465D02*
D03*
X853Y12756D02*
D03*
Y11046D02*
D03*
Y10191D02*
D03*
X829Y5058D02*
D03*
Y5913D02*
D03*
Y7623D02*
D03*
X829Y9332D02*
D03*
X829Y8478D02*
D03*
X829Y6768D02*
D03*
X853Y15320D02*
D03*
X18670Y-16381D02*
D03*
X20380D02*
D03*
X21235D02*
D03*
X19525D02*
D03*
X17816D02*
D03*
X16961D02*
D03*
X22094D02*
D03*
X22949D02*
D03*
X24658D02*
D03*
X26368D02*
D03*
X25513D02*
D03*
X23803D02*
D03*
X13537D02*
D03*
X15247D02*
D03*
X16102D02*
D03*
X14392D02*
D03*
X12683D02*
D03*
X11828D02*
D03*
X6695D02*
D03*
X7550D02*
D03*
X9259D02*
D03*
X10969D02*
D03*
X10114D02*
D03*
X8405D02*
D03*
X39202D02*
D03*
X40912D02*
D03*
X41767D02*
D03*
X40057D02*
D03*
X38347D02*
D03*
X37493D02*
D03*
X42626D02*
D03*
X43480D02*
D03*
X45190D02*
D03*
X46900D02*
D03*
X46045D02*
D03*
X44335D02*
D03*
X34069D02*
D03*
X35779D02*
D03*
X36634D02*
D03*
X34924D02*
D03*
X33215D02*
D03*
X32360D02*
D03*
X27227D02*
D03*
X28082D02*
D03*
X29791D02*
D03*
X31501D02*
D03*
X30646D02*
D03*
X28936D02*
D03*
X59734D02*
D03*
X61444D02*
D03*
X60589D02*
D03*
X58879D02*
D03*
X58025D02*
D03*
X54601D02*
D03*
X56311D02*
D03*
X57166D02*
D03*
X55456D02*
D03*
X53746D02*
D03*
X52892D02*
D03*
X47759D02*
D03*
X48613D02*
D03*
X50323D02*
D03*
X52033D02*
D03*
X51178D02*
D03*
X49468D02*
D03*
X61878Y-3919D02*
D03*
X61878Y-5629D02*
D03*
X61878Y-6483D02*
D03*
X61878Y-4774D02*
D03*
X61935Y-7346D02*
D03*
X61935Y-8201D02*
D03*
X61935Y-9911D02*
D03*
X61935Y-11620D02*
D03*
X61935Y-10766D02*
D03*
X61935Y-9056D02*
D03*
X61911Y-12479D02*
D03*
X61911Y-13334D02*
D03*
X61911Y-15044D02*
D03*
X61911Y-15899D02*
D03*
X61911Y-14189D02*
D03*
X61931Y14690D02*
D03*
Y15544D02*
D03*
Y13835D02*
D03*
Y12980D02*
D03*
Y9557D02*
D03*
Y11266D02*
D03*
Y12121D02*
D03*
Y10412D02*
D03*
Y8702D02*
D03*
Y7847D02*
D03*
Y5279D02*
D03*
Y6988D02*
D03*
Y6133D02*
D03*
Y4424D02*
D03*
X13184Y16401D02*
D03*
X11474Y16401D02*
D03*
X10619Y16401D02*
D03*
X12329Y16401D02*
D03*
X14039Y16401D02*
D03*
X14893Y16401D02*
D03*
X9760Y16401D02*
D03*
X8906D02*
D03*
X7196Y16401D02*
D03*
X5486D02*
D03*
X6341Y16401D02*
D03*
X8051D02*
D03*
X4627Y16401D02*
D03*
X3773Y16401D02*
D03*
X2063D02*
D03*
X2918D02*
D03*
X33716Y16401D02*
D03*
X32006D02*
D03*
X31151Y16401D02*
D03*
X32861Y16401D02*
D03*
X34570Y16401D02*
D03*
X35425Y16401D02*
D03*
X30292Y16401D02*
D03*
X29437Y16401D02*
D03*
X27728Y16401D02*
D03*
X26018Y16401D02*
D03*
X26873Y16401D02*
D03*
X28583Y16401D02*
D03*
X18317Y16401D02*
D03*
X16607D02*
D03*
X15752D02*
D03*
X17462D02*
D03*
X19171Y16401D02*
D03*
X20026Y16401D02*
D03*
X25159Y16401D02*
D03*
X24304Y16401D02*
D03*
X22595Y16401D02*
D03*
X20885Y16401D02*
D03*
X21740Y16401D02*
D03*
X23450D02*
D03*
X54247Y16401D02*
D03*
X52538Y16401D02*
D03*
X51683Y16401D02*
D03*
X53393Y16401D02*
D03*
X55102Y16401D02*
D03*
X55957Y16401D02*
D03*
X50824D02*
D03*
X49969Y16401D02*
D03*
X48260Y16401D02*
D03*
X46550D02*
D03*
X47405Y16401D02*
D03*
X49114Y16401D02*
D03*
X38849D02*
D03*
X37139D02*
D03*
X36284Y16401D02*
D03*
X37994Y16401D02*
D03*
X39703Y16401D02*
D03*
X40558Y16401D02*
D03*
X45691D02*
D03*
X44836Y16401D02*
D03*
X43127Y16401D02*
D03*
X41417Y16401D02*
D03*
X42272Y16401D02*
D03*
X43981D02*
D03*
X59380Y16401D02*
D03*
X57671Y16401D02*
D03*
X56816Y16401D02*
D03*
X58526Y16401D02*
D03*
X60235D02*
D03*
X61090D02*
D03*
X61931D02*
D03*
X1152Y16192D02*
D03*
X45367Y7835D02*
D03*
X57679Y3068D02*
D03*
X59094Y-14178D02*
D03*
X48584Y-12320D02*
D03*
Y-11432D02*
D03*
X22434Y-10286D02*
D03*
X7471Y5891D02*
D03*
X20015Y902D02*
D03*
X20040Y-228D02*
D03*
X19338Y2794D02*
D03*
X36632Y4135D02*
D03*
X36665Y7477D02*
D03*
X36743Y6011D02*
D03*
X35643Y6816D02*
D03*
X23086Y-5901D02*
D03*
X21649Y-2453D02*
D03*
X25981Y-500D02*
D03*
Y-3150D02*
D03*
X31134Y5439D02*
D03*
X32059D02*
D03*
X45405Y6448D02*
D03*
X21423Y5656D02*
D03*
X29956Y-500D02*
D03*
X28631D02*
D03*
X29956Y-1825D02*
D03*
X27306Y-1850D02*
D03*
X26893Y3747D02*
D03*
X26698Y8875D02*
D03*
X52017Y-11933D02*
D03*
X52588Y15731D02*
D03*
X51388D02*
D03*
X50188D02*
D03*
X48988D02*
D03*
X47788D02*
D03*
X46588D02*
D03*
X45388D02*
D03*
X56398Y15708D02*
D03*
X55198D02*
D03*
X53998D02*
D03*
X40263Y15731D02*
D03*
X39063D02*
D03*
X37863D02*
D03*
X36663D02*
D03*
X35463D02*
D03*
X34263D02*
D03*
X33063D02*
D03*
X44073Y15708D02*
D03*
X42873D02*
D03*
X41673D02*
D03*
X14273Y15691D02*
D03*
X15473D02*
D03*
X16673D02*
D03*
X17873D02*
D03*
X19073D02*
D03*
X6862Y15714D02*
D03*
X8062D02*
D03*
X9262D02*
D03*
X10462D02*
D03*
X11662D02*
D03*
X12862D02*
D03*
X27306Y-4475D02*
D03*
X28631Y-3150D02*
D03*
X28631Y-4475D02*
D03*
X27306Y-3175D02*
D03*
X25981Y-1825D02*
D03*
X8517Y6098D02*
D03*
X8699Y4215D02*
D03*
X7472Y9937D02*
D03*
X7454Y11828D02*
D03*
X14768Y9541D02*
D03*
X12597Y8176D02*
D03*
X12615Y6284D02*
D03*
X8130Y-6260D02*
D03*
X6570Y-5190D02*
D03*
X8131Y-4713D02*
D03*
X11636Y-10928D02*
D03*
X11635Y-12476D02*
D03*
X3657Y-13818D02*
D03*
X22103Y11158D02*
D03*
X20692Y9952D02*
D03*
X19232Y8749D02*
D03*
X13029Y-5875D02*
D03*
X13376Y-3878D02*
D03*
X13504Y4706D02*
D03*
X15277Y5018D02*
D03*
X12736Y3016D02*
D03*
X16602Y3693D02*
D03*
X15065Y7311D02*
D03*
X16390Y8661D02*
D03*
Y6011D02*
D03*
X17715Y7336D02*
D03*
X16644Y-5905D02*
D03*
X15866Y-5019D02*
D03*
X19209Y-5337D02*
D03*
X27770Y3705D02*
D03*
X19192Y-6285D02*
D03*
X33790Y6287D02*
D03*
X29956Y-3150D02*
D03*
X21940Y-4374D02*
D03*
X28631Y-1825D02*
D03*
X24998Y8187D02*
D03*
X27306Y-525D02*
D03*
X29956Y-4475D02*
D03*
X45398Y-4731D02*
D03*
D85*
X28639Y3747D02*
X29458Y2928D01*
X32911D02*
X33790Y3807D01*
Y6287D01*
X29458Y2928D02*
X32911D01*
X24401Y2431D02*
X25717Y3747D01*
X26893D01*
X24401Y-3612D02*
Y2431D01*
X23639Y-4374D02*
X24401Y-3612D01*
X21940Y-4374D02*
X23639D01*
X26893Y3747D02*
X28639D01*
D86*
X29684Y-3689D02*
X31485Y-5491D01*
X41430Y-14000D02*
Y-13661D01*
X32325Y-8080D02*
Y-7285D01*
X32252Y-7211D02*
X32325Y-7285D01*
X32252Y-7211D02*
Y-7096D01*
X31485Y-6267D02*
X32252Y-7096D01*
X31485Y-6267D02*
Y-5491D01*
M02*
