G04*
G04 #@! TF.GenerationSoftware,Altium Limited,Altium Designer,20.2.6 (244)*
G04*
G04 Layer_Color=32896*
%FSLAX43Y43*%
%MOMM*%
G71*
G04*
G04 #@! TF.SameCoordinates,C144CD18-1887-4FAA-AC2B-496F7D53F270*
G04*
G04*
G04 #@! TF.FilePolarity,Positive*
G04*
G01*
G75*
%ADD10C,0.025*%
%ADD12C,0.300*%
%ADD13C,0.200*%
%ADD90C,0.013*%
%ADD91R,9.000X0.500*%
%ADD92R,0.500X6.000*%
G36*
X56151Y14559D02*
X56167Y14536D01*
X56185Y14515D01*
X56203Y14496D01*
X56218Y14478D01*
X56225Y14472D01*
X56231Y14466D01*
X56236Y14460D01*
X56240Y14457D01*
X56242Y14455D01*
X56243Y14454D01*
X56271Y14430D01*
X56301Y14409D01*
X56331Y14390D01*
X56358Y14373D01*
X56369Y14367D01*
X56381Y14360D01*
X56391Y14354D01*
X56399Y14350D01*
X56407Y14347D01*
X56412Y14344D01*
X56415Y14343D01*
X56416Y14342D01*
Y14228D01*
X56395Y14237D01*
X56373Y14246D01*
X56352Y14256D01*
X56334Y14266D01*
X56317Y14275D01*
X56310Y14278D01*
X56304Y14282D01*
X56298Y14284D01*
X56295Y14287D01*
X56293Y14289D01*
X56292D01*
X56267Y14304D01*
X56245Y14319D01*
X56225Y14332D01*
X56210Y14345D01*
X56196Y14355D01*
X56187Y14363D01*
X56182Y14368D01*
X56180Y14370D01*
Y13619D01*
X56062D01*
Y14583D01*
X56138D01*
X56151Y14559D01*
D02*
G37*
G36*
Y-13441D02*
X56167Y-13464D01*
X56185Y-13485D01*
X56203Y-13504D01*
X56218Y-13522D01*
X56225Y-13528D01*
X56231Y-13534D01*
X56236Y-13540D01*
X56240Y-13543D01*
X56242Y-13545D01*
X56243Y-13546D01*
X56271Y-13570D01*
X56301Y-13591D01*
X56331Y-13610D01*
X56358Y-13627D01*
X56369Y-13633D01*
X56381Y-13640D01*
X56391Y-13646D01*
X56399Y-13650D01*
X56407Y-13653D01*
X56412Y-13656D01*
X56415Y-13657D01*
X56416Y-13658D01*
Y-13772D01*
X56395Y-13763D01*
X56373Y-13754D01*
X56352Y-13744D01*
X56334Y-13734D01*
X56317Y-13725D01*
X56310Y-13722D01*
X56304Y-13718D01*
X56298Y-13716D01*
X56295Y-13713D01*
X56293Y-13711D01*
X56292D01*
X56267Y-13696D01*
X56245Y-13681D01*
X56225Y-13668D01*
X56210Y-13655D01*
X56196Y-13645D01*
X56187Y-13637D01*
X56182Y-13632D01*
X56180Y-13630D01*
Y-14381D01*
X56062D01*
Y-13417D01*
X56138D01*
X56151Y-13441D01*
D02*
G37*
G36*
X52731Y-8700D02*
X52604D01*
Y-8247D01*
X52105D01*
Y-8700D01*
X51978D01*
Y-7739D01*
X52105D01*
Y-8133D01*
X52604D01*
Y-7739D01*
X52731D01*
Y-8700D01*
D02*
G37*
G36*
X54450D02*
X54323D01*
Y-8273D01*
X54159D01*
X54145Y-8274D01*
X54132Y-8275D01*
X54122D01*
X54115Y-8276D01*
X54109Y-8277D01*
X54106Y-8278D01*
X54105D01*
X54094Y-8281D01*
X54083Y-8286D01*
X54074Y-8290D01*
X54065Y-8294D01*
X54057Y-8298D01*
X54052Y-8301D01*
X54048Y-8303D01*
X54047Y-8304D01*
X54037Y-8312D01*
X54025Y-8322D01*
X54014Y-8332D01*
X54004Y-8343D01*
X53995Y-8352D01*
X53989Y-8361D01*
X53984Y-8366D01*
X53982Y-8367D01*
Y-8368D01*
X53968Y-8387D01*
X53952Y-8407D01*
X53938Y-8429D01*
X53923Y-8451D01*
X53911Y-8470D01*
X53904Y-8478D01*
X53900Y-8485D01*
X53896Y-8492D01*
X53893Y-8496D01*
X53892Y-8499D01*
X53891Y-8500D01*
X53764Y-8700D01*
X53604D01*
X53771Y-8439D01*
X53790Y-8412D01*
X53808Y-8387D01*
X53826Y-8365D01*
X53842Y-8346D01*
X53855Y-8331D01*
X53862Y-8325D01*
X53867Y-8320D01*
X53871Y-8316D01*
X53874Y-8313D01*
X53875Y-8312D01*
X53876Y-8311D01*
X53887Y-8302D01*
X53899Y-8293D01*
X53912Y-8286D01*
X53924Y-8278D01*
X53936Y-8272D01*
X53945Y-8267D01*
X53951Y-8264D01*
X53952Y-8263D01*
X53953D01*
X53928Y-8258D01*
X53904Y-8253D01*
X53882Y-8247D01*
X53863Y-8241D01*
X53844Y-8233D01*
X53827Y-8226D01*
X53813Y-8219D01*
X53799Y-8212D01*
X53787Y-8204D01*
X53776Y-8197D01*
X53768Y-8191D01*
X53761Y-8186D01*
X53755Y-8180D01*
X53751Y-8177D01*
X53749Y-8175D01*
X53748Y-8174D01*
X53737Y-8161D01*
X53726Y-8147D01*
X53717Y-8132D01*
X53710Y-8118D01*
X53703Y-8103D01*
X53698Y-8089D01*
X53690Y-8062D01*
X53687Y-8049D01*
X53685Y-8038D01*
X53684Y-8027D01*
X53682Y-8018D01*
X53681Y-8012D01*
Y-8005D01*
Y-8002D01*
Y-8001D01*
X53684Y-7972D01*
X53688Y-7945D01*
X53694Y-7921D01*
X53701Y-7899D01*
X53705Y-7890D01*
X53710Y-7881D01*
X53713Y-7874D01*
X53716Y-7868D01*
X53718Y-7863D01*
X53720Y-7860D01*
X53722Y-7858D01*
Y-7856D01*
X53738Y-7834D01*
X53755Y-7815D01*
X53773Y-7798D01*
X53791Y-7786D01*
X53805Y-7776D01*
X53818Y-7770D01*
X53823Y-7768D01*
X53826Y-7766D01*
X53828Y-7765D01*
X53829D01*
X53843Y-7761D01*
X53856Y-7756D01*
X53888Y-7750D01*
X53920Y-7745D01*
X53951Y-7742D01*
X53967Y-7741D01*
X53980Y-7740D01*
X53992D01*
X54003Y-7739D01*
X54450D01*
Y-8700D01*
D02*
G37*
G36*
X53239Y-7989D02*
X53262Y-7991D01*
X53283Y-7995D01*
X53303Y-8000D01*
X53323Y-8005D01*
X53341Y-8013D01*
X53358Y-8019D01*
X53372Y-8026D01*
X53387Y-8033D01*
X53398Y-8041D01*
X53409Y-8048D01*
X53418Y-8053D01*
X53424Y-8059D01*
X53429Y-8063D01*
X53433Y-8065D01*
X53434Y-8066D01*
X53452Y-8085D01*
X53469Y-8104D01*
X53484Y-8126D01*
X53496Y-8149D01*
X53505Y-8173D01*
X53515Y-8197D01*
X53522Y-8221D01*
X53527Y-8244D01*
X53531Y-8266D01*
X53536Y-8286D01*
X53538Y-8304D01*
X53539Y-8321D01*
X53540Y-8333D01*
X53541Y-8344D01*
Y-8350D01*
Y-8351D01*
Y-8352D01*
X53540Y-8384D01*
X53537Y-8415D01*
X53533Y-8443D01*
X53527Y-8469D01*
X53520Y-8493D01*
X53513Y-8515D01*
X53504Y-8534D01*
X53496Y-8553D01*
X53488Y-8569D01*
X53479Y-8583D01*
X53472Y-8595D01*
X53465Y-8604D01*
X53460Y-8613D01*
X53455Y-8618D01*
X53452Y-8621D01*
X53451Y-8622D01*
X53434Y-8639D01*
X53415Y-8653D01*
X53396Y-8666D01*
X53376Y-8676D01*
X53357Y-8685D01*
X53337Y-8693D01*
X53318Y-8699D01*
X53299Y-8704D01*
X53282Y-8707D01*
X53266Y-8710D01*
X53251Y-8712D01*
X53239Y-8715D01*
X53228D01*
X53221Y-8716D01*
X53215D01*
X53182Y-8714D01*
X53150Y-8709D01*
X53122Y-8702D01*
X53109Y-8699D01*
X53097Y-8695D01*
X53086Y-8691D01*
X53076Y-8688D01*
X53068Y-8683D01*
X53061Y-8680D01*
X53055Y-8678D01*
X53050Y-8676D01*
X53048Y-8674D01*
X53047D01*
X53020Y-8656D01*
X52996Y-8638D01*
X52976Y-8618D01*
X52960Y-8598D01*
X52946Y-8581D01*
X52941Y-8573D01*
X52937Y-8567D01*
X52934Y-8561D01*
X52932Y-8557D01*
X52930Y-8555D01*
Y-8554D01*
X52922Y-8539D01*
X52916Y-8523D01*
X52906Y-8489D01*
X52898Y-8453D01*
X52894Y-8420D01*
X52892Y-8404D01*
X52891Y-8390D01*
X52890Y-8376D01*
Y-8365D01*
X52889Y-8355D01*
Y-8349D01*
Y-8344D01*
Y-8343D01*
X52890Y-8313D01*
X52893Y-8283D01*
X52897Y-8256D01*
X52904Y-8231D01*
X52910Y-8208D01*
X52918Y-8188D01*
X52926Y-8168D01*
X52935Y-8150D01*
X52943Y-8135D01*
X52951Y-8121D01*
X52960Y-8110D01*
X52966Y-8100D01*
X52972Y-8092D01*
X52976Y-8087D01*
X52980Y-8083D01*
X52981Y-8082D01*
X52998Y-8066D01*
X53017Y-8051D01*
X53036Y-8039D01*
X53056Y-8027D01*
X53075Y-8019D01*
X53094Y-8011D01*
X53114Y-8004D01*
X53132Y-7999D01*
X53149Y-7996D01*
X53165Y-7993D01*
X53178Y-7991D01*
X53191Y-7989D01*
X53201D01*
X53209Y-7988D01*
X53215D01*
X53239Y-7989D01*
D02*
G37*
G36*
X51470Y-7723D02*
X51503Y-7727D01*
X51532Y-7733D01*
X51546Y-7736D01*
X51558Y-7739D01*
X51569Y-7742D01*
X51580Y-7745D01*
X51589Y-7748D01*
X51597Y-7750D01*
X51602Y-7752D01*
X51607Y-7754D01*
X51609Y-7755D01*
X51610D01*
X51638Y-7769D01*
X51662Y-7785D01*
X51683Y-7800D01*
X51700Y-7816D01*
X51713Y-7830D01*
X51724Y-7842D01*
X51727Y-7846D01*
X51729Y-7849D01*
X51731Y-7851D01*
Y-7852D01*
X51744Y-7876D01*
X51755Y-7900D01*
X51761Y-7922D01*
X51766Y-7943D01*
X51769Y-7962D01*
X51770Y-7969D01*
Y-7975D01*
X51772Y-7980D01*
Y-7985D01*
Y-7987D01*
Y-7988D01*
X51770Y-8012D01*
X51766Y-8035D01*
X51761Y-8055D01*
X51755Y-8073D01*
X51749Y-8088D01*
X51743Y-8099D01*
X51741Y-8103D01*
X51739Y-8106D01*
X51738Y-8107D01*
Y-8108D01*
X51725Y-8127D01*
X51708Y-8145D01*
X51691Y-8160D01*
X51674Y-8173D01*
X51659Y-8183D01*
X51647Y-8191D01*
X51641Y-8193D01*
X51638Y-8195D01*
X51636Y-8197D01*
X51635D01*
X51625Y-8202D01*
X51612Y-8207D01*
X51599Y-8213D01*
X51584Y-8218D01*
X51554Y-8228D01*
X51523Y-8238D01*
X51508Y-8242D01*
X51496Y-8246D01*
X51483Y-8249D01*
X51472Y-8252D01*
X51463Y-8254D01*
X51456Y-8256D01*
X51452Y-8257D01*
X51451D01*
X51427Y-8263D01*
X51405Y-8269D01*
X51386Y-8273D01*
X51368Y-8278D01*
X51353Y-8282D01*
X51338Y-8286D01*
X51327Y-8290D01*
X51315Y-8293D01*
X51307Y-8295D01*
X51299Y-8298D01*
X51292Y-8300D01*
X51288Y-8301D01*
X51284Y-8302D01*
X51282Y-8303D01*
X51280Y-8304D01*
X51259Y-8314D01*
X51241Y-8323D01*
X51226Y-8332D01*
X51214Y-8341D01*
X51205Y-8349D01*
X51199Y-8355D01*
X51195Y-8359D01*
X51194Y-8361D01*
X51184Y-8373D01*
X51178Y-8387D01*
X51173Y-8400D01*
X51170Y-8413D01*
X51168Y-8423D01*
X51166Y-8432D01*
Y-8438D01*
Y-8439D01*
Y-8440D01*
X51168Y-8455D01*
X51171Y-8471D01*
X51176Y-8484D01*
X51180Y-8497D01*
X51185Y-8507D01*
X51190Y-8516D01*
X51194Y-8520D01*
X51195Y-8522D01*
X51206Y-8535D01*
X51219Y-8547D01*
X51233Y-8557D01*
X51247Y-8566D01*
X51259Y-8572D01*
X51269Y-8577D01*
X51273Y-8579D01*
X51276Y-8580D01*
X51277Y-8581D01*
X51278D01*
X51299Y-8589D01*
X51321Y-8594D01*
X51342Y-8597D01*
X51362Y-8599D01*
X51379Y-8601D01*
X51386D01*
X51392Y-8602D01*
X51405D01*
X51435Y-8601D01*
X51462Y-8598D01*
X51488Y-8593D01*
X51510Y-8588D01*
X51520Y-8585D01*
X51528Y-8583D01*
X51535Y-8580D01*
X51541Y-8578D01*
X51547Y-8576D01*
X51550Y-8575D01*
X51552Y-8574D01*
X51553D01*
X51576Y-8563D01*
X51596Y-8550D01*
X51612Y-8539D01*
X51626Y-8526D01*
X51636Y-8516D01*
X51643Y-8507D01*
X51649Y-8502D01*
X51650Y-8500D01*
X51660Y-8481D01*
X51668Y-8462D01*
X51675Y-8442D01*
X51680Y-8423D01*
X51684Y-8405D01*
X51685Y-8399D01*
X51686Y-8393D01*
X51687Y-8388D01*
X51688Y-8383D01*
Y-8381D01*
Y-8380D01*
X51808Y-8391D01*
X51807Y-8408D01*
X51805Y-8426D01*
X51799Y-8458D01*
X51790Y-8489D01*
X51786Y-8502D01*
X51781Y-8514D01*
X51777Y-8525D01*
X51772Y-8535D01*
X51767Y-8544D01*
X51763Y-8551D01*
X51760Y-8557D01*
X51758Y-8561D01*
X51757Y-8564D01*
X51756Y-8565D01*
X51736Y-8592D01*
X51713Y-8615D01*
X51690Y-8634D01*
X51668Y-8650D01*
X51649Y-8663D01*
X51640Y-8667D01*
X51633Y-8671D01*
X51627Y-8674D01*
X51623Y-8676D01*
X51619Y-8678D01*
X51618D01*
X51583Y-8691D01*
X51547Y-8700D01*
X51510Y-8706D01*
X51476Y-8710D01*
X51459Y-8712D01*
X51445Y-8714D01*
X51432Y-8715D01*
X51421D01*
X51411Y-8716D01*
X51399D01*
X51361Y-8714D01*
X51327Y-8709D01*
X51296Y-8704D01*
X51281Y-8700D01*
X51269Y-8697D01*
X51256Y-8694D01*
X51246Y-8690D01*
X51236Y-8686D01*
X51229Y-8684D01*
X51223Y-8681D01*
X51219Y-8680D01*
X51215Y-8678D01*
X51214D01*
X51185Y-8663D01*
X51160Y-8646D01*
X51138Y-8628D01*
X51121Y-8611D01*
X51106Y-8596D01*
X51097Y-8584D01*
X51093Y-8579D01*
X51090Y-8576D01*
X51088Y-8574D01*
Y-8573D01*
X51080Y-8560D01*
X51074Y-8547D01*
X51062Y-8522D01*
X51054Y-8498D01*
X51049Y-8476D01*
X51046Y-8456D01*
X51045Y-8449D01*
Y-8442D01*
X51044Y-8437D01*
Y-8432D01*
Y-8430D01*
Y-8429D01*
X51046Y-8401D01*
X51050Y-8375D01*
X51056Y-8352D01*
X51063Y-8332D01*
X51072Y-8316D01*
X51075Y-8308D01*
X51078Y-8303D01*
X51080Y-8299D01*
X51082Y-8296D01*
X51084Y-8294D01*
Y-8293D01*
X51093Y-8282D01*
X51101Y-8272D01*
X51121Y-8252D01*
X51140Y-8236D01*
X51161Y-8222D01*
X51179Y-8211D01*
X51187Y-8205D01*
X51195Y-8202D01*
X51200Y-8199D01*
X51204Y-8197D01*
X51207Y-8195D01*
X51208D01*
X51220Y-8190D01*
X51234Y-8184D01*
X51249Y-8179D01*
X51265Y-8174D01*
X51301Y-8165D01*
X51336Y-8155D01*
X51353Y-8150D01*
X51368Y-8147D01*
X51383Y-8143D01*
X51396Y-8141D01*
X51406Y-8138D01*
X51413Y-8136D01*
X51418Y-8135D01*
X51421D01*
X51449Y-8128D01*
X51474Y-8121D01*
X51496Y-8115D01*
X51516Y-8108D01*
X51534Y-8102D01*
X51550Y-8097D01*
X51563Y-8092D01*
X51575Y-8087D01*
X51584Y-8081D01*
X51592Y-8077D01*
X51599Y-8074D01*
X51604Y-8071D01*
X51608Y-8068D01*
X51610Y-8066D01*
X51612Y-8065D01*
X51625Y-8051D01*
X51633Y-8038D01*
X51639Y-8023D01*
X51644Y-8010D01*
X51647Y-7998D01*
X51648Y-7989D01*
X51649Y-7982D01*
Y-7981D01*
Y-7980D01*
X51648Y-7969D01*
X51647Y-7959D01*
X51640Y-7940D01*
X51632Y-7922D01*
X51623Y-7907D01*
X51613Y-7895D01*
X51605Y-7886D01*
X51599Y-7880D01*
X51598Y-7878D01*
X51597D01*
X51586Y-7871D01*
X51574Y-7864D01*
X51548Y-7853D01*
X51521Y-7846D01*
X51492Y-7841D01*
X51480Y-7839D01*
X51467Y-7838D01*
X51457Y-7837D01*
X51448D01*
X51439Y-7836D01*
X51409D01*
X51390Y-7838D01*
X51373Y-7840D01*
X51356Y-7843D01*
X51341Y-7846D01*
X51328Y-7850D01*
X51315Y-7854D01*
X51304Y-7859D01*
X51295Y-7864D01*
X51286Y-7868D01*
X51279Y-7872D01*
X51273Y-7875D01*
X51269Y-7878D01*
X51264Y-7880D01*
X51263Y-7881D01*
X51262Y-7883D01*
X51252Y-7892D01*
X51242Y-7901D01*
X51228Y-7923D01*
X51215Y-7946D01*
X51207Y-7968D01*
X51201Y-7988D01*
X51199Y-7996D01*
X51197Y-8004D01*
X51196Y-8011D01*
Y-8015D01*
X51195Y-8018D01*
Y-8019D01*
X51073Y-8010D01*
X51076Y-7978D01*
X51082Y-7950D01*
X51089Y-7924D01*
X51098Y-7902D01*
X51103Y-7893D01*
X51106Y-7884D01*
X51110Y-7876D01*
X51113Y-7870D01*
X51116Y-7865D01*
X51119Y-7862D01*
X51120Y-7860D01*
X51121Y-7859D01*
X51138Y-7835D01*
X51158Y-7815D01*
X51179Y-7797D01*
X51200Y-7783D01*
X51217Y-7772D01*
X51226Y-7768D01*
X51232Y-7764D01*
X51237Y-7761D01*
X51242Y-7760D01*
X51245Y-7758D01*
X51246D01*
X51277Y-7746D01*
X51309Y-7737D01*
X51341Y-7730D01*
X51371Y-7726D01*
X51384Y-7725D01*
X51396Y-7724D01*
X51407Y-7723D01*
X51416Y-7722D01*
X51434D01*
X51470Y-7723D01*
D02*
G37*
G36*
X48471Y-10200D02*
X48349D01*
Y-9446D01*
X47845Y-10200D01*
X47714D01*
Y-9239D01*
X47836D01*
Y-9994D01*
X48341Y-9239D01*
X48471D01*
Y-10200D01*
D02*
G37*
G36*
X52504D02*
X52381D01*
Y-9381D01*
X52104Y-10200D01*
X51989D01*
X51708Y-9395D01*
Y-10200D01*
X51585D01*
Y-9239D01*
X51757D01*
X51988Y-9907D01*
X51994Y-9926D01*
X52001Y-9943D01*
X52006Y-9959D01*
X52011Y-9974D01*
X52015Y-9989D01*
X52019Y-10001D01*
X52024Y-10013D01*
X52027Y-10023D01*
X52030Y-10031D01*
X52032Y-10040D01*
X52034Y-10046D01*
X52036Y-10052D01*
X52037Y-10056D01*
X52038Y-10059D01*
X52039Y-10060D01*
Y-10061D01*
X52042Y-10052D01*
X52045Y-10042D01*
X52053Y-10020D01*
X52060Y-9996D01*
X52067Y-9973D01*
X52075Y-9952D01*
X52078Y-9943D01*
X52080Y-9935D01*
X52082Y-9929D01*
X52084Y-9924D01*
X52085Y-9921D01*
Y-9920D01*
X52313Y-9239D01*
X52504D01*
Y-10200D01*
D02*
G37*
G36*
X54121Y-9223D02*
X54144Y-9224D01*
X54187Y-9231D01*
X54207Y-9236D01*
X54226Y-9241D01*
X54245Y-9246D01*
X54262Y-9251D01*
X54276Y-9256D01*
X54290Y-9262D01*
X54302Y-9267D01*
X54312Y-9271D01*
X54320Y-9275D01*
X54325Y-9278D01*
X54329Y-9279D01*
X54330Y-9280D01*
X54349Y-9292D01*
X54368Y-9304D01*
X54384Y-9318D01*
X54400Y-9331D01*
X54415Y-9346D01*
X54428Y-9360D01*
X54440Y-9374D01*
X54451Y-9387D01*
X54460Y-9400D01*
X54469Y-9412D01*
X54476Y-9422D01*
X54482Y-9431D01*
X54486Y-9440D01*
X54490Y-9445D01*
X54492Y-9449D01*
X54493Y-9450D01*
X54503Y-9471D01*
X54511Y-9494D01*
X54519Y-9516D01*
X54526Y-9538D01*
X54536Y-9582D01*
X54540Y-9603D01*
X54543Y-9623D01*
X54545Y-9642D01*
X54547Y-9658D01*
X54548Y-9674D01*
X54549Y-9688D01*
X54550Y-9698D01*
Y-9706D01*
Y-9711D01*
Y-9713D01*
X54549Y-9738D01*
X54548Y-9763D01*
X54542Y-9811D01*
X54539Y-9833D01*
X54534Y-9854D01*
X54529Y-9874D01*
X54525Y-9893D01*
X54520Y-9909D01*
X54516Y-9925D01*
X54511Y-9938D01*
X54507Y-9949D01*
X54504Y-9957D01*
X54502Y-9965D01*
X54501Y-9969D01*
X54500Y-9970D01*
X54490Y-9992D01*
X54479Y-10013D01*
X54468Y-10031D01*
X54455Y-10049D01*
X54443Y-10066D01*
X54431Y-10080D01*
X54419Y-10094D01*
X54407Y-10106D01*
X54396Y-10118D01*
X54385Y-10127D01*
X54376Y-10134D01*
X54368Y-10142D01*
X54362Y-10147D01*
X54356Y-10150D01*
X54353Y-10152D01*
X54352Y-10153D01*
X54333Y-10165D01*
X54314Y-10174D01*
X54293Y-10182D01*
X54271Y-10190D01*
X54250Y-10195D01*
X54229Y-10200D01*
X54208Y-10204D01*
X54189Y-10207D01*
X54170Y-10210D01*
X54153Y-10212D01*
X54138Y-10214D01*
X54125Y-10215D01*
X54114Y-10216D01*
X54099D01*
X54071Y-10215D01*
X54045Y-10212D01*
X54020Y-10208D01*
X53996Y-10203D01*
X53973Y-10197D01*
X53952Y-10190D01*
X53933Y-10182D01*
X53916Y-10175D01*
X53899Y-10168D01*
X53886Y-10160D01*
X53873Y-10153D01*
X53864Y-10147D01*
X53855Y-10142D01*
X53850Y-10138D01*
X53846Y-10135D01*
X53845Y-10134D01*
X53826Y-10118D01*
X53809Y-10100D01*
X53793Y-10081D01*
X53778Y-10063D01*
X53765Y-10043D01*
X53753Y-10022D01*
X53743Y-10003D01*
X53734Y-9983D01*
X53725Y-9966D01*
X53719Y-9949D01*
X53713Y-9933D01*
X53709Y-9921D01*
X53704Y-9909D01*
X53702Y-9902D01*
X53700Y-9897D01*
Y-9895D01*
X53827Y-9863D01*
X53832Y-9884D01*
X53840Y-9905D01*
X53847Y-9925D01*
X53854Y-9943D01*
X53863Y-9959D01*
X53871Y-9974D01*
X53879Y-9988D01*
X53888Y-10000D01*
X53896Y-10010D01*
X53903Y-10020D01*
X53911Y-10028D01*
X53916Y-10034D01*
X53921Y-10040D01*
X53925Y-10043D01*
X53927Y-10045D01*
X53928Y-10046D01*
X53943Y-10056D01*
X53957Y-10066D01*
X53972Y-10074D01*
X53988Y-10081D01*
X54003Y-10088D01*
X54018Y-10093D01*
X54047Y-10100D01*
X54060Y-10102D01*
X54072Y-10104D01*
X54082Y-10105D01*
X54092Y-10106D01*
X54099Y-10107D01*
X54109D01*
X54126Y-10106D01*
X54142Y-10105D01*
X54172Y-10100D01*
X54200Y-10093D01*
X54224Y-10084D01*
X54234Y-10080D01*
X54244Y-10077D01*
X54252Y-10073D01*
X54259Y-10070D01*
X54266Y-10067D01*
X54270Y-10065D01*
X54272Y-10063D01*
X54273D01*
X54287Y-10053D01*
X54299Y-10044D01*
X54322Y-10022D01*
X54341Y-10000D01*
X54356Y-9977D01*
X54368Y-9957D01*
X54373Y-9949D01*
X54377Y-9941D01*
X54379Y-9934D01*
X54381Y-9930D01*
X54383Y-9927D01*
Y-9926D01*
X54395Y-9891D01*
X54404Y-9854D01*
X54410Y-9818D01*
X54413Y-9801D01*
X54415Y-9784D01*
X54416Y-9769D01*
X54417Y-9755D01*
X54418Y-9743D01*
Y-9732D01*
X54419Y-9723D01*
Y-9717D01*
Y-9713D01*
Y-9712D01*
X54418Y-9676D01*
X54415Y-9643D01*
X54409Y-9612D01*
X54407Y-9597D01*
X54404Y-9583D01*
X54401Y-9572D01*
X54399Y-9561D01*
X54396Y-9551D01*
X54394Y-9543D01*
X54393Y-9537D01*
X54391Y-9531D01*
X54390Y-9528D01*
Y-9527D01*
X54376Y-9495D01*
X54360Y-9467D01*
X54344Y-9443D01*
X54334Y-9432D01*
X54326Y-9422D01*
X54318Y-9414D01*
X54310Y-9406D01*
X54303Y-9399D01*
X54298Y-9394D01*
X54293Y-9390D01*
X54289Y-9387D01*
X54287Y-9386D01*
X54285Y-9385D01*
X54271Y-9375D01*
X54256Y-9367D01*
X54241Y-9360D01*
X54225Y-9353D01*
X54194Y-9344D01*
X54164Y-9337D01*
X54151Y-9335D01*
X54139Y-9334D01*
X54127Y-9333D01*
X54118Y-9331D01*
X54109Y-9330D01*
X54081D01*
X54065Y-9333D01*
X54033Y-9338D01*
X54006Y-9346D01*
X53995Y-9350D01*
X53983Y-9354D01*
X53973Y-9359D01*
X53965Y-9363D01*
X53957Y-9367D01*
X53951Y-9371D01*
X53946Y-9374D01*
X53943Y-9376D01*
X53941Y-9377D01*
X53940Y-9378D01*
X53928Y-9388D01*
X53917Y-9398D01*
X53898Y-9422D01*
X53880Y-9448D01*
X53867Y-9473D01*
X53856Y-9496D01*
X53851Y-9505D01*
X53848Y-9514D01*
X53845Y-9521D01*
X53844Y-9527D01*
X53842Y-9530D01*
Y-9531D01*
X53717Y-9502D01*
X53725Y-9478D01*
X53735Y-9455D01*
X53744Y-9434D01*
X53755Y-9414D01*
X53766Y-9395D01*
X53777Y-9378D01*
X53789Y-9363D01*
X53800Y-9349D01*
X53812Y-9337D01*
X53821Y-9326D01*
X53830Y-9317D01*
X53839Y-9310D01*
X53845Y-9303D01*
X53850Y-9299D01*
X53853Y-9297D01*
X53854Y-9296D01*
X53873Y-9283D01*
X53893Y-9272D01*
X53913Y-9262D01*
X53933Y-9253D01*
X53954Y-9246D01*
X53974Y-9240D01*
X53994Y-9236D01*
X54013Y-9231D01*
X54030Y-9228D01*
X54046Y-9226D01*
X54061Y-9224D01*
X54073Y-9223D01*
X54083Y-9222D01*
X54097D01*
X54121Y-9223D01*
D02*
G37*
G36*
X51381Y-10200D02*
X51254D01*
Y-9809D01*
X51008D01*
X50971Y-9808D01*
X50937Y-9805D01*
X50906Y-9801D01*
X50877Y-9796D01*
X50852Y-9790D01*
X50828Y-9782D01*
X50808Y-9775D01*
X50790Y-9767D01*
X50774Y-9759D01*
X50760Y-9752D01*
X50749Y-9745D01*
X50741Y-9739D01*
X50733Y-9732D01*
X50729Y-9728D01*
X50726Y-9726D01*
X50725Y-9725D01*
X50711Y-9708D01*
X50699Y-9692D01*
X50688Y-9674D01*
X50680Y-9656D01*
X50672Y-9639D01*
X50666Y-9622D01*
X50660Y-9605D01*
X50656Y-9590D01*
X50653Y-9574D01*
X50651Y-9561D01*
X50649Y-9549D01*
X50648Y-9539D01*
X50647Y-9529D01*
Y-9523D01*
Y-9519D01*
Y-9518D01*
X50648Y-9492D01*
X50651Y-9467D01*
X50656Y-9445D01*
X50661Y-9425D01*
X50668Y-9410D01*
X50670Y-9402D01*
X50672Y-9397D01*
X50674Y-9393D01*
X50676Y-9390D01*
X50677Y-9388D01*
Y-9387D01*
X50688Y-9365D01*
X50701Y-9347D01*
X50715Y-9330D01*
X50726Y-9318D01*
X50737Y-9308D01*
X50746Y-9300D01*
X50752Y-9295D01*
X50753Y-9294D01*
X50754D01*
X50773Y-9283D01*
X50793Y-9273D01*
X50812Y-9265D01*
X50831Y-9259D01*
X50848Y-9253D01*
X50855Y-9252D01*
X50861Y-9250D01*
X50866Y-9249D01*
X50870D01*
X50872Y-9248D01*
X50873D01*
X50882Y-9246D01*
X50894Y-9245D01*
X50917Y-9243D01*
X50941Y-9241D01*
X50964Y-9240D01*
X50985Y-9239D01*
X51381D01*
Y-10200D01*
D02*
G37*
G36*
X50491D02*
X49890D01*
Y-10086D01*
X50364D01*
Y-9239D01*
X50491D01*
Y-10200D01*
D02*
G37*
G36*
X49717D02*
X49590D01*
Y-9239D01*
X49717D01*
Y-10200D01*
D02*
G37*
G36*
X49470D02*
X49336D01*
X49232Y-9909D01*
X48828D01*
X48716Y-10200D01*
X48571D01*
X48965Y-9239D01*
X49102D01*
X49470Y-10200D01*
D02*
G37*
G36*
X47573Y-9352D02*
X47256Y-9352D01*
Y-10200D01*
X47129D01*
Y-9352D01*
X46812D01*
Y-9239D01*
X47573Y-9239D01*
Y-9352D01*
D02*
G37*
G36*
X53160Y-9223D02*
X53195Y-9228D01*
X53228Y-9235D01*
X53260Y-9243D01*
X53290Y-9253D01*
X53317Y-9265D01*
X53342Y-9277D01*
X53365Y-9290D01*
X53386Y-9302D01*
X53403Y-9315D01*
X53418Y-9326D01*
X53432Y-9337D01*
X53441Y-9345D01*
X53448Y-9351D01*
X53453Y-9356D01*
X53454Y-9358D01*
X53477Y-9384D01*
X53497Y-9413D01*
X53514Y-9442D01*
X53528Y-9473D01*
X53541Y-9504D01*
X53551Y-9536D01*
X53560Y-9566D01*
X53567Y-9596D01*
X53572Y-9624D01*
X53575Y-9649D01*
X53578Y-9673D01*
X53580Y-9693D01*
X53582Y-9710D01*
Y-9716D01*
X53583Y-9722D01*
Y-9726D01*
Y-9729D01*
Y-9731D01*
Y-9732D01*
X53582Y-9755D01*
X53580Y-9779D01*
X53574Y-9823D01*
X53570Y-9844D01*
X53566Y-9864D01*
X53561Y-9882D01*
X53555Y-9899D01*
X53550Y-9916D01*
X53545Y-9929D01*
X53541Y-9942D01*
X53537Y-9952D01*
X53534Y-9960D01*
X53530Y-9967D01*
X53529Y-9971D01*
X53528Y-9972D01*
X53517Y-9993D01*
X53505Y-10013D01*
X53493Y-10030D01*
X53479Y-10048D01*
X53466Y-10064D01*
X53452Y-10078D01*
X53440Y-10092D01*
X53426Y-10104D01*
X53414Y-10115D01*
X53402Y-10124D01*
X53392Y-10132D01*
X53384Y-10139D01*
X53376Y-10144D01*
X53370Y-10148D01*
X53367Y-10150D01*
X53366Y-10151D01*
X53345Y-10163D01*
X53324Y-10172D01*
X53303Y-10181D01*
X53283Y-10189D01*
X53262Y-10195D01*
X53242Y-10200D01*
X53222Y-10204D01*
X53205Y-10207D01*
X53187Y-10210D01*
X53172Y-10212D01*
X53158Y-10214D01*
X53146Y-10215D01*
X53137Y-10216D01*
X53123D01*
X53100Y-10215D01*
X53077Y-10214D01*
X53034Y-10206D01*
X53014Y-10202D01*
X52994Y-10197D01*
X52976Y-10192D01*
X52960Y-10186D01*
X52944Y-10181D01*
X52931Y-10176D01*
X52919Y-10171D01*
X52909Y-10167D01*
X52900Y-10163D01*
X52895Y-10159D01*
X52891Y-10158D01*
X52890Y-10157D01*
X52870Y-10146D01*
X52851Y-10132D01*
X52834Y-10119D01*
X52818Y-10105D01*
X52804Y-10091D01*
X52789Y-10076D01*
X52777Y-10061D01*
X52765Y-10048D01*
X52756Y-10034D01*
X52746Y-10022D01*
X52739Y-10010D01*
X52733Y-10001D01*
X52729Y-9994D01*
X52725Y-9988D01*
X52723Y-9983D01*
X52722Y-9982D01*
X52712Y-9960D01*
X52703Y-9938D01*
X52695Y-9916D01*
X52688Y-9893D01*
X52682Y-9871D01*
X52678Y-9849D01*
X52673Y-9828D01*
X52670Y-9808D01*
X52668Y-9790D01*
X52666Y-9773D01*
X52665Y-9758D01*
X52664Y-9746D01*
X52663Y-9736D01*
Y-9727D01*
Y-9723D01*
Y-9721D01*
X52664Y-9694D01*
X52665Y-9669D01*
X52668Y-9644D01*
X52671Y-9620D01*
X52675Y-9598D01*
X52681Y-9576D01*
X52686Y-9556D01*
X52691Y-9539D01*
X52696Y-9522D01*
X52702Y-9507D01*
X52706Y-9494D01*
X52711Y-9484D01*
X52714Y-9475D01*
X52717Y-9469D01*
X52718Y-9465D01*
X52719Y-9464D01*
X52731Y-9443D01*
X52742Y-9423D01*
X52756Y-9404D01*
X52768Y-9388D01*
X52782Y-9372D01*
X52795Y-9358D01*
X52809Y-9344D01*
X52822Y-9331D01*
X52835Y-9321D01*
X52846Y-9312D01*
X52856Y-9303D01*
X52865Y-9297D01*
X52872Y-9292D01*
X52878Y-9289D01*
X52882Y-9287D01*
X52883Y-9286D01*
X52904Y-9274D01*
X52923Y-9265D01*
X52944Y-9256D01*
X52965Y-9249D01*
X52986Y-9243D01*
X53006Y-9238D01*
X53024Y-9234D01*
X53043Y-9230D01*
X53060Y-9227D01*
X53074Y-9225D01*
X53088Y-9224D01*
X53100Y-9223D01*
X53110Y-9222D01*
X53122D01*
X53160Y-9223D01*
D02*
G37*
G36*
X54165Y-10562D02*
X54189Y-10564D01*
X54210Y-10567D01*
X54231Y-10572D01*
X54251Y-10577D01*
X54269Y-10584D01*
X54285Y-10590D01*
X54300Y-10596D01*
X54314Y-10603D01*
X54325Y-10610D01*
X54335Y-10616D01*
X54344Y-10621D01*
X54350Y-10626D01*
X54354Y-10629D01*
X54357Y-10631D01*
X54358Y-10633D01*
X54373Y-10646D01*
X54385Y-10662D01*
X54397Y-10677D01*
X54407Y-10695D01*
X54416Y-10712D01*
X54424Y-10728D01*
X54430Y-10746D01*
X54435Y-10762D01*
X54441Y-10777D01*
X54444Y-10792D01*
X54447Y-10805D01*
X54449Y-10817D01*
X54450Y-10826D01*
X54451Y-10832D01*
X54452Y-10837D01*
Y-10839D01*
X54331Y-10851D01*
X54330Y-10835D01*
X54329Y-10819D01*
X54323Y-10792D01*
X54315Y-10767D01*
X54310Y-10756D01*
X54305Y-10747D01*
X54301Y-10739D01*
X54296Y-10731D01*
X54292Y-10725D01*
X54289Y-10720D01*
X54284Y-10716D01*
X54282Y-10713D01*
X54281Y-10712D01*
X54280Y-10711D01*
X54270Y-10701D01*
X54259Y-10693D01*
X54248Y-10687D01*
X54237Y-10680D01*
X54214Y-10671D01*
X54192Y-10665D01*
X54173Y-10662D01*
X54165Y-10660D01*
X54157D01*
X54151Y-10659D01*
X54128D01*
X54114Y-10661D01*
X54088Y-10666D01*
X54066Y-10674D01*
X54046Y-10683D01*
X54031Y-10692D01*
X54025Y-10696D01*
X54020Y-10700D01*
X54016Y-10703D01*
X54013Y-10705D01*
X54012Y-10706D01*
X54011Y-10708D01*
X54001Y-10717D01*
X53994Y-10726D01*
X53987Y-10736D01*
X53981Y-10746D01*
X53972Y-10766D01*
X53966Y-10785D01*
X53963Y-10800D01*
X53961Y-10807D01*
Y-10814D01*
X53960Y-10818D01*
Y-10822D01*
Y-10824D01*
Y-10825D01*
X53961Y-10838D01*
X53962Y-10850D01*
X53968Y-10875D01*
X53977Y-10899D01*
X53988Y-10921D01*
X53998Y-10940D01*
X54002Y-10947D01*
X54007Y-10954D01*
X54011Y-10960D01*
X54014Y-10964D01*
X54015Y-10966D01*
X54016Y-10967D01*
X54027Y-10981D01*
X54041Y-10997D01*
X54056Y-11014D01*
X54073Y-11030D01*
X54107Y-11065D01*
X54143Y-11097D01*
X54159Y-11113D01*
X54176Y-11126D01*
X54191Y-11139D01*
X54203Y-11149D01*
X54214Y-11158D01*
X54221Y-11165D01*
X54226Y-11170D01*
X54228Y-11171D01*
X54247Y-11187D01*
X54264Y-11201D01*
X54280Y-11215D01*
X54295Y-11228D01*
X54309Y-11241D01*
X54322Y-11253D01*
X54333Y-11264D01*
X54344Y-11274D01*
X54353Y-11283D01*
X54360Y-11292D01*
X54368Y-11299D01*
X54373Y-11304D01*
X54378Y-11309D01*
X54381Y-11313D01*
X54382Y-11315D01*
X54383Y-11316D01*
X54402Y-11339D01*
X54418Y-11362D01*
X54431Y-11383D01*
X54442Y-11403D01*
X54450Y-11420D01*
X54453Y-11427D01*
X54456Y-11432D01*
X54458Y-11438D01*
X54459Y-11441D01*
X54460Y-11443D01*
Y-11444D01*
X54466Y-11458D01*
X54469Y-11473D01*
X54472Y-11486D01*
X54473Y-11499D01*
X54474Y-11509D01*
Y-11518D01*
Y-11523D01*
Y-11525D01*
X53838D01*
Y-11411D01*
X54312D01*
X54295Y-11389D01*
X54287Y-11378D01*
X54278Y-11369D01*
X54271Y-11360D01*
X54266Y-11354D01*
X54262Y-11350D01*
X54260Y-11349D01*
X54254Y-11343D01*
X54246Y-11334D01*
X54237Y-11326D01*
X54226Y-11317D01*
X54204Y-11296D01*
X54181Y-11276D01*
X54159Y-11257D01*
X54150Y-11249D01*
X54141Y-11242D01*
X54134Y-11236D01*
X54128Y-11231D01*
X54125Y-11228D01*
X54124Y-11227D01*
X54101Y-11207D01*
X54079Y-11189D01*
X54059Y-11172D01*
X54042Y-11155D01*
X54025Y-11141D01*
X54011Y-11126D01*
X53997Y-11114D01*
X53985Y-11102D01*
X53974Y-11093D01*
X53966Y-11083D01*
X53958Y-11076D01*
X53952Y-11070D01*
X53948Y-11065D01*
X53944Y-11062D01*
X53943Y-11059D01*
X53942Y-11058D01*
X53922Y-11036D01*
X53906Y-11015D01*
X53893Y-10995D01*
X53881Y-10977D01*
X53873Y-10963D01*
X53867Y-10951D01*
X53865Y-10947D01*
X53864Y-10944D01*
X53863Y-10943D01*
Y-10942D01*
X53854Y-10921D01*
X53849Y-10900D01*
X53845Y-10881D01*
X53842Y-10864D01*
X53840Y-10849D01*
X53839Y-10838D01*
Y-10834D01*
Y-10830D01*
Y-10829D01*
Y-10828D01*
X53840Y-10807D01*
X53842Y-10788D01*
X53846Y-10769D01*
X53851Y-10750D01*
X53857Y-10734D01*
X53865Y-10718D01*
X53872Y-10703D01*
X53879Y-10691D01*
X53887Y-10678D01*
X53894Y-10668D01*
X53901Y-10659D01*
X53907Y-10651D01*
X53913Y-10646D01*
X53917Y-10641D01*
X53919Y-10639D01*
X53920Y-10638D01*
X53936Y-10624D01*
X53952Y-10613D01*
X53970Y-10602D01*
X53989Y-10593D01*
X54006Y-10586D01*
X54025Y-10579D01*
X54043Y-10574D01*
X54061Y-10570D01*
X54076Y-10567D01*
X54092Y-10565D01*
X54105Y-10563D01*
X54117Y-10562D01*
X54126Y-10561D01*
X54140D01*
X54165Y-10562D01*
D02*
G37*
G36*
X51925D02*
X51949Y-10564D01*
X51970Y-10567D01*
X51991Y-10572D01*
X52011Y-10577D01*
X52029Y-10584D01*
X52045Y-10590D01*
X52060Y-10596D01*
X52074Y-10603D01*
X52085Y-10610D01*
X52095Y-10616D01*
X52104Y-10621D01*
X52110Y-10626D01*
X52114Y-10629D01*
X52117Y-10631D01*
X52118Y-10633D01*
X52133Y-10646D01*
X52145Y-10662D01*
X52157Y-10677D01*
X52167Y-10695D01*
X52176Y-10712D01*
X52184Y-10728D01*
X52190Y-10746D01*
X52195Y-10762D01*
X52201Y-10777D01*
X52204Y-10792D01*
X52207Y-10805D01*
X52209Y-10817D01*
X52210Y-10826D01*
X52211Y-10832D01*
X52212Y-10837D01*
Y-10839D01*
X52091Y-10851D01*
X52090Y-10835D01*
X52089Y-10819D01*
X52083Y-10792D01*
X52075Y-10767D01*
X52070Y-10756D01*
X52065Y-10747D01*
X52061Y-10739D01*
X52056Y-10731D01*
X52052Y-10725D01*
X52049Y-10720D01*
X52044Y-10716D01*
X52042Y-10713D01*
X52041Y-10712D01*
X52040Y-10711D01*
X52030Y-10701D01*
X52019Y-10693D01*
X52008Y-10687D01*
X51996Y-10680D01*
X51974Y-10671D01*
X51952Y-10665D01*
X51933Y-10662D01*
X51925Y-10660D01*
X51917D01*
X51911Y-10659D01*
X51888D01*
X51874Y-10661D01*
X51848Y-10666D01*
X51826Y-10674D01*
X51806Y-10683D01*
X51791Y-10692D01*
X51785Y-10696D01*
X51780Y-10700D01*
X51776Y-10703D01*
X51773Y-10705D01*
X51772Y-10706D01*
X51770Y-10708D01*
X51761Y-10717D01*
X51754Y-10726D01*
X51747Y-10736D01*
X51741Y-10746D01*
X51732Y-10766D01*
X51726Y-10785D01*
X51723Y-10800D01*
X51721Y-10807D01*
Y-10814D01*
X51719Y-10818D01*
Y-10822D01*
Y-10824D01*
Y-10825D01*
X51721Y-10838D01*
X51722Y-10850D01*
X51728Y-10875D01*
X51737Y-10899D01*
X51748Y-10921D01*
X51758Y-10940D01*
X51762Y-10947D01*
X51767Y-10954D01*
X51770Y-10960D01*
X51774Y-10964D01*
X51775Y-10966D01*
X51776Y-10967D01*
X51787Y-10981D01*
X51801Y-10997D01*
X51816Y-11014D01*
X51833Y-11030D01*
X51867Y-11065D01*
X51903Y-11097D01*
X51919Y-11113D01*
X51936Y-11126D01*
X51951Y-11139D01*
X51963Y-11149D01*
X51974Y-11158D01*
X51981Y-11165D01*
X51986Y-11170D01*
X51988Y-11171D01*
X52007Y-11187D01*
X52024Y-11201D01*
X52040Y-11215D01*
X52055Y-11228D01*
X52069Y-11241D01*
X52082Y-11253D01*
X52093Y-11264D01*
X52104Y-11274D01*
X52113Y-11283D01*
X52120Y-11292D01*
X52128Y-11299D01*
X52133Y-11304D01*
X52138Y-11309D01*
X52141Y-11313D01*
X52142Y-11315D01*
X52143Y-11316D01*
X52162Y-11339D01*
X52178Y-11362D01*
X52191Y-11383D01*
X52202Y-11403D01*
X52210Y-11420D01*
X52213Y-11427D01*
X52216Y-11432D01*
X52218Y-11438D01*
X52219Y-11441D01*
X52220Y-11443D01*
Y-11444D01*
X52226Y-11458D01*
X52229Y-11473D01*
X52232Y-11486D01*
X52233Y-11499D01*
X52234Y-11509D01*
Y-11518D01*
Y-11523D01*
Y-11525D01*
X51598D01*
Y-11411D01*
X52071D01*
X52055Y-11389D01*
X52046Y-11378D01*
X52038Y-11369D01*
X52031Y-11360D01*
X52026Y-11354D01*
X52021Y-11350D01*
X52020Y-11349D01*
X52014Y-11343D01*
X52006Y-11334D01*
X51996Y-11326D01*
X51986Y-11317D01*
X51964Y-11296D01*
X51941Y-11276D01*
X51919Y-11257D01*
X51910Y-11249D01*
X51901Y-11242D01*
X51894Y-11236D01*
X51888Y-11231D01*
X51885Y-11228D01*
X51884Y-11227D01*
X51861Y-11207D01*
X51839Y-11189D01*
X51819Y-11172D01*
X51802Y-11155D01*
X51785Y-11141D01*
X51770Y-11126D01*
X51757Y-11114D01*
X51744Y-11102D01*
X51734Y-11093D01*
X51726Y-11083D01*
X51718Y-11076D01*
X51712Y-11070D01*
X51708Y-11065D01*
X51704Y-11062D01*
X51703Y-11059D01*
X51702Y-11058D01*
X51682Y-11036D01*
X51666Y-11015D01*
X51653Y-10995D01*
X51641Y-10977D01*
X51633Y-10963D01*
X51627Y-10951D01*
X51625Y-10947D01*
X51624Y-10944D01*
X51623Y-10943D01*
Y-10942D01*
X51614Y-10921D01*
X51609Y-10900D01*
X51605Y-10881D01*
X51602Y-10864D01*
X51600Y-10849D01*
X51599Y-10838D01*
Y-10834D01*
Y-10830D01*
Y-10829D01*
Y-10828D01*
X51600Y-10807D01*
X51602Y-10788D01*
X51606Y-10769D01*
X51611Y-10750D01*
X51617Y-10734D01*
X51625Y-10718D01*
X51632Y-10703D01*
X51639Y-10691D01*
X51647Y-10678D01*
X51654Y-10668D01*
X51661Y-10659D01*
X51667Y-10651D01*
X51673Y-10646D01*
X51677Y-10641D01*
X51679Y-10639D01*
X51680Y-10638D01*
X51695Y-10624D01*
X51712Y-10613D01*
X51730Y-10602D01*
X51749Y-10593D01*
X51766Y-10586D01*
X51785Y-10579D01*
X51803Y-10574D01*
X51820Y-10570D01*
X51836Y-10567D01*
X51852Y-10565D01*
X51865Y-10563D01*
X51877Y-10562D01*
X51886Y-10561D01*
X51900D01*
X51925Y-10562D01*
D02*
G37*
G36*
X50330Y-11070D02*
X50220Y-11086D01*
X50209Y-11071D01*
X50198Y-11057D01*
X50185Y-11046D01*
X50175Y-11036D01*
X50165Y-11028D01*
X50156Y-11022D01*
X50151Y-11019D01*
X50149Y-11018D01*
X50131Y-11008D01*
X50114Y-11002D01*
X50096Y-10997D01*
X50079Y-10994D01*
X50066Y-10992D01*
X50054Y-10991D01*
X50045D01*
X50028Y-10992D01*
X50013Y-10993D01*
X49997Y-10996D01*
X49983Y-11000D01*
X49957Y-11010D01*
X49947Y-11015D01*
X49937Y-11020D01*
X49927Y-11026D01*
X49920Y-11031D01*
X49913Y-11037D01*
X49907Y-11041D01*
X49903Y-11045D01*
X49899Y-11048D01*
X49898Y-11049D01*
X49897Y-11050D01*
X49887Y-11062D01*
X49878Y-11074D01*
X49870Y-11087D01*
X49864Y-11099D01*
X49853Y-11126D01*
X49847Y-11151D01*
X49845Y-11164D01*
X49843Y-11174D01*
X49842Y-11184D01*
X49841Y-11193D01*
X49840Y-11200D01*
Y-11205D01*
Y-11208D01*
Y-11209D01*
X49841Y-11229D01*
X49842Y-11247D01*
X49845Y-11265D01*
X49849Y-11281D01*
X49853Y-11296D01*
X49858Y-11310D01*
X49864Y-11323D01*
X49869Y-11334D01*
X49875Y-11345D01*
X49880Y-11354D01*
X49886Y-11362D01*
X49890Y-11369D01*
X49894Y-11374D01*
X49897Y-11377D01*
X49898Y-11379D01*
X49899Y-11380D01*
X49911Y-11392D01*
X49922Y-11401D01*
X49933Y-11409D01*
X49946Y-11417D01*
X49958Y-11423D01*
X49970Y-11428D01*
X49993Y-11435D01*
X50013Y-11441D01*
X50021Y-11442D01*
X50028Y-11443D01*
X50034Y-11444D01*
X50043D01*
X50056Y-11443D01*
X50069Y-11442D01*
X50092Y-11436D01*
X50113Y-11429D01*
X50130Y-11421D01*
X50145Y-11414D01*
X50155Y-11406D01*
X50159Y-11403D01*
X50163Y-11401D01*
X50164Y-11399D01*
X50165D01*
X50173Y-11390D01*
X50181Y-11380D01*
X50195Y-11359D01*
X50206Y-11337D01*
X50215Y-11315D01*
X50220Y-11295D01*
X50223Y-11285D01*
X50224Y-11278D01*
X50225Y-11272D01*
X50226Y-11268D01*
X50227Y-11265D01*
Y-11264D01*
X50351Y-11273D01*
X50348Y-11295D01*
X50344Y-11317D01*
X50339Y-11337D01*
X50331Y-11355D01*
X50324Y-11372D01*
X50317Y-11389D01*
X50308Y-11403D01*
X50300Y-11416D01*
X50292Y-11428D01*
X50284Y-11439D01*
X50277Y-11447D01*
X50270Y-11454D01*
X50265Y-11460D01*
X50260Y-11465D01*
X50258Y-11467D01*
X50257Y-11468D01*
X50241Y-11480D01*
X50224Y-11492D01*
X50206Y-11501D01*
X50189Y-11509D01*
X50171Y-11517D01*
X50153Y-11523D01*
X50135Y-11528D01*
X50119Y-11531D01*
X50103Y-11534D01*
X50089Y-11536D01*
X50076Y-11539D01*
X50065Y-11540D01*
X50055Y-11541D01*
X50043D01*
X50014Y-11540D01*
X49987Y-11535D01*
X49961Y-11530D01*
X49937Y-11522D01*
X49914Y-11514D01*
X49893Y-11504D01*
X49874Y-11493D01*
X49857Y-11482D01*
X49842Y-11472D01*
X49828Y-11460D01*
X49817Y-11451D01*
X49807Y-11442D01*
X49800Y-11434D01*
X49795Y-11429D01*
X49792Y-11425D01*
X49791Y-11424D01*
X49777Y-11406D01*
X49766Y-11388D01*
X49755Y-11368D01*
X49747Y-11349D01*
X49740Y-11330D01*
X49734Y-11312D01*
X49728Y-11293D01*
X49724Y-11276D01*
X49721Y-11259D01*
X49719Y-11245D01*
X49717Y-11232D01*
X49716Y-11221D01*
X49715Y-11212D01*
Y-11205D01*
Y-11200D01*
Y-11199D01*
X49716Y-11174D01*
X49719Y-11150D01*
X49723Y-11127D01*
X49728Y-11106D01*
X49735Y-11086D01*
X49743Y-11068D01*
X49750Y-11050D01*
X49758Y-11035D01*
X49767Y-11021D01*
X49774Y-11010D01*
X49781Y-10998D01*
X49789Y-10990D01*
X49794Y-10983D01*
X49798Y-10978D01*
X49801Y-10975D01*
X49802Y-10974D01*
X49819Y-10958D01*
X49837Y-10945D01*
X49854Y-10933D01*
X49872Y-10923D01*
X49890Y-10915D01*
X49907Y-10907D01*
X49924Y-10902D01*
X49941Y-10897D01*
X49955Y-10894D01*
X49970Y-10891D01*
X49982Y-10890D01*
X49993Y-10888D01*
X50001D01*
X50008Y-10887D01*
X50014D01*
X50031Y-10888D01*
X50049Y-10889D01*
X50066Y-10892D01*
X50082Y-10896D01*
X50113Y-10905D01*
X50127Y-10912D01*
X50140Y-10917D01*
X50152Y-10922D01*
X50163Y-10928D01*
X50172Y-10933D01*
X50180Y-10938D01*
X50187Y-10942D01*
X50191Y-10944D01*
X50194Y-10946D01*
X50195Y-10947D01*
X50144Y-10689D01*
X49760D01*
Y-10576D01*
X50238D01*
X50330Y-11070D01*
D02*
G37*
G36*
X50821Y-10562D02*
X50843Y-10565D01*
X50864Y-10569D01*
X50885Y-10574D01*
X50904Y-10582D01*
X50922Y-10589D01*
X50938Y-10597D01*
X50953Y-10605D01*
X50967Y-10614D01*
X50978Y-10622D01*
X50988Y-10629D01*
X50997Y-10637D01*
X51003Y-10642D01*
X51008Y-10646D01*
X51011Y-10649D01*
X51012Y-10650D01*
X51027Y-10668D01*
X51040Y-10686D01*
X51052Y-10705D01*
X51061Y-10725D01*
X51070Y-10744D01*
X51077Y-10764D01*
X51082Y-10784D01*
X51087Y-10801D01*
X51090Y-10819D01*
X51094Y-10835D01*
X51095Y-10849D01*
X51097Y-10862D01*
Y-10871D01*
X51098Y-10879D01*
Y-10884D01*
Y-10886D01*
X51097Y-10912D01*
X51095Y-10936D01*
X51090Y-10960D01*
X51085Y-10981D01*
X51079Y-11001D01*
X51072Y-11020D01*
X51064Y-11038D01*
X51056Y-11052D01*
X51049Y-11067D01*
X51042Y-11079D01*
X51034Y-11090D01*
X51028Y-11098D01*
X51023Y-11104D01*
X51019Y-11109D01*
X51017Y-11113D01*
X51015Y-11114D01*
X51000Y-11128D01*
X50983Y-11142D01*
X50967Y-11153D01*
X50949Y-11163D01*
X50932Y-11171D01*
X50915Y-11178D01*
X50900Y-11183D01*
X50884Y-11189D01*
X50870Y-11192D01*
X50856Y-11195D01*
X50845Y-11196D01*
X50834Y-11198D01*
X50826D01*
X50820Y-11199D01*
X50814D01*
X50788Y-11198D01*
X50763Y-11194D01*
X50741Y-11189D01*
X50721Y-11181D01*
X50704Y-11175D01*
X50698Y-11173D01*
X50692Y-11170D01*
X50687Y-11168D01*
X50684Y-11166D01*
X50682Y-11165D01*
X50681D01*
X50659Y-11150D01*
X50641Y-11136D01*
X50624Y-11120D01*
X50609Y-11105D01*
X50599Y-11093D01*
X50591Y-11082D01*
X50587Y-11078D01*
X50586Y-11075D01*
X50584Y-11074D01*
Y-11083D01*
Y-11091D01*
Y-11095D01*
Y-11097D01*
X50585Y-11124D01*
X50587Y-11150D01*
X50590Y-11174D01*
X50593Y-11196D01*
X50595Y-11205D01*
X50597Y-11215D01*
X50598Y-11222D01*
X50599Y-11228D01*
X50600Y-11233D01*
X50601Y-11238D01*
X50602Y-11240D01*
Y-11241D01*
X50609Y-11266D01*
X50617Y-11289D01*
X50624Y-11307D01*
X50630Y-11323D01*
X50636Y-11337D01*
X50642Y-11346D01*
X50645Y-11351D01*
X50646Y-11353D01*
X50656Y-11368D01*
X50668Y-11381D01*
X50679Y-11393D01*
X50690Y-11402D01*
X50699Y-11409D01*
X50706Y-11416D01*
X50711Y-11419D01*
X50713Y-11420D01*
X50729Y-11428D01*
X50746Y-11433D01*
X50761Y-11438D01*
X50776Y-11441D01*
X50788Y-11443D01*
X50799Y-11444D01*
X50808D01*
X50831Y-11443D01*
X50851Y-11439D01*
X50869Y-11432D01*
X50884Y-11426D01*
X50896Y-11420D01*
X50905Y-11414D01*
X50910Y-11409D01*
X50912Y-11408D01*
X50920Y-11401D01*
X50926Y-11393D01*
X50938Y-11375D01*
X50948Y-11356D01*
X50955Y-11338D01*
X50960Y-11320D01*
X50962Y-11313D01*
X50963Y-11306D01*
X50965Y-11300D01*
Y-11296D01*
X50967Y-11294D01*
Y-11293D01*
X51080Y-11302D01*
X51077Y-11323D01*
X51073Y-11343D01*
X51068Y-11360D01*
X51061Y-11377D01*
X51054Y-11393D01*
X51048Y-11407D01*
X51040Y-11421D01*
X51033Y-11432D01*
X51026Y-11443D01*
X51019Y-11452D01*
X51012Y-11460D01*
X51007Y-11467D01*
X51002Y-11472D01*
X50999Y-11475D01*
X50997Y-11477D01*
X50996Y-11478D01*
X50982Y-11490D01*
X50968Y-11499D01*
X50952Y-11507D01*
X50936Y-11515D01*
X50921Y-11520D01*
X50906Y-11525D01*
X50877Y-11532D01*
X50863Y-11535D01*
X50851Y-11538D01*
X50839Y-11539D01*
X50830Y-11540D01*
X50822Y-11541D01*
X50811D01*
X50792Y-11540D01*
X50773Y-11539D01*
X50737Y-11532D01*
X50721Y-11527D01*
X50706Y-11523D01*
X50692Y-11518D01*
X50679Y-11513D01*
X50667Y-11507D01*
X50656Y-11502D01*
X50648Y-11497D01*
X50640Y-11493D01*
X50634Y-11490D01*
X50629Y-11486D01*
X50627Y-11485D01*
X50626Y-11484D01*
X50611Y-11473D01*
X50598Y-11460D01*
X50574Y-11434D01*
X50553Y-11406D01*
X50536Y-11380D01*
X50530Y-11368D01*
X50524Y-11356D01*
X50519Y-11346D01*
X50515Y-11337D01*
X50511Y-11329D01*
X50509Y-11324D01*
X50507Y-11320D01*
Y-11319D01*
X50500Y-11297D01*
X50494Y-11275D01*
X50483Y-11227D01*
X50476Y-11178D01*
X50474Y-11154D01*
X50472Y-11131D01*
X50470Y-11109D01*
X50469Y-11090D01*
X50468Y-11071D01*
Y-11055D01*
X50467Y-11043D01*
Y-11033D01*
Y-11027D01*
Y-11025D01*
Y-10993D01*
X50469Y-10963D01*
X50471Y-10935D01*
X50473Y-10908D01*
X50476Y-10885D01*
X50479Y-10862D01*
X50483Y-10842D01*
X50486Y-10824D01*
X50491Y-10807D01*
X50495Y-10794D01*
X50498Y-10782D01*
X50501Y-10773D01*
X50503Y-10765D01*
X50505Y-10760D01*
X50507Y-10756D01*
Y-10755D01*
X50516Y-10739D01*
X50524Y-10722D01*
X50533Y-10708D01*
X50543Y-10693D01*
X50553Y-10680D01*
X50562Y-10669D01*
X50573Y-10658D01*
X50582Y-10648D01*
X50591Y-10640D01*
X50599Y-10633D01*
X50606Y-10626D01*
X50613Y-10621D01*
X50619Y-10617D01*
X50623Y-10614D01*
X50625Y-10613D01*
X50626Y-10612D01*
X50641Y-10602D01*
X50655Y-10595D01*
X50671Y-10588D01*
X50685Y-10583D01*
X50713Y-10573D01*
X50741Y-10567D01*
X50752Y-10565D01*
X50763Y-10564D01*
X50773Y-10562D01*
X50781D01*
X50787Y-10561D01*
X50797D01*
X50821Y-10562D01*
D02*
G37*
G36*
X47896Y-10548D02*
X47919Y-10549D01*
X47962Y-10557D01*
X47983Y-10561D01*
X48002Y-10566D01*
X48020Y-10571D01*
X48037Y-10576D01*
X48052Y-10582D01*
X48065Y-10587D01*
X48078Y-10592D01*
X48087Y-10596D01*
X48095Y-10600D01*
X48101Y-10603D01*
X48105Y-10604D01*
X48106Y-10605D01*
X48125Y-10617D01*
X48143Y-10629D01*
X48160Y-10643D01*
X48176Y-10656D01*
X48190Y-10671D01*
X48204Y-10685D01*
X48215Y-10699D01*
X48227Y-10712D01*
X48236Y-10725D01*
X48244Y-10737D01*
X48252Y-10747D01*
X48258Y-10756D01*
X48262Y-10765D01*
X48265Y-10770D01*
X48267Y-10774D01*
X48268Y-10775D01*
X48279Y-10796D01*
X48287Y-10819D01*
X48294Y-10841D01*
X48302Y-10863D01*
X48312Y-10907D01*
X48315Y-10928D01*
X48318Y-10948D01*
X48320Y-10967D01*
X48322Y-10983D01*
X48323Y-10999D01*
X48324Y-11013D01*
X48326Y-11023D01*
Y-11031D01*
Y-11036D01*
Y-11038D01*
X48324Y-11063D01*
X48323Y-11088D01*
X48317Y-11136D01*
X48314Y-11158D01*
X48310Y-11179D01*
X48305Y-11199D01*
X48301Y-11218D01*
X48295Y-11234D01*
X48291Y-11250D01*
X48287Y-11263D01*
X48283Y-11274D01*
X48280Y-11282D01*
X48278Y-11290D01*
X48277Y-11294D01*
X48276Y-11295D01*
X48265Y-11317D01*
X48255Y-11338D01*
X48243Y-11356D01*
X48231Y-11374D01*
X48218Y-11391D01*
X48207Y-11405D01*
X48194Y-11419D01*
X48183Y-11431D01*
X48171Y-11443D01*
X48161Y-11452D01*
X48152Y-11459D01*
X48143Y-11467D01*
X48137Y-11472D01*
X48132Y-11475D01*
X48129Y-11477D01*
X48128Y-11478D01*
X48109Y-11490D01*
X48089Y-11499D01*
X48068Y-11507D01*
X48046Y-11515D01*
X48026Y-11520D01*
X48005Y-11525D01*
X47984Y-11529D01*
X47964Y-11532D01*
X47945Y-11535D01*
X47929Y-11538D01*
X47913Y-11539D01*
X47901Y-11540D01*
X47889Y-11541D01*
X47875D01*
X47846Y-11540D01*
X47820Y-11538D01*
X47795Y-11533D01*
X47772Y-11528D01*
X47749Y-11522D01*
X47728Y-11515D01*
X47709Y-11507D01*
X47691Y-11500D01*
X47675Y-11493D01*
X47661Y-11485D01*
X47649Y-11478D01*
X47639Y-11472D01*
X47631Y-11467D01*
X47626Y-11463D01*
X47622Y-11460D01*
X47620Y-11459D01*
X47602Y-11443D01*
X47584Y-11425D01*
X47568Y-11406D01*
X47554Y-11388D01*
X47540Y-11368D01*
X47529Y-11347D01*
X47518Y-11328D01*
X47509Y-11308D01*
X47501Y-11291D01*
X47494Y-11274D01*
X47488Y-11258D01*
X47484Y-11246D01*
X47480Y-11234D01*
X47478Y-11227D01*
X47476Y-11222D01*
Y-11220D01*
X47603Y-11188D01*
X47608Y-11209D01*
X47615Y-11230D01*
X47623Y-11250D01*
X47630Y-11268D01*
X47638Y-11284D01*
X47647Y-11299D01*
X47655Y-11313D01*
X47663Y-11325D01*
X47672Y-11335D01*
X47679Y-11345D01*
X47686Y-11353D01*
X47691Y-11359D01*
X47697Y-11365D01*
X47701Y-11368D01*
X47703Y-11370D01*
X47704Y-11371D01*
X47718Y-11381D01*
X47733Y-11391D01*
X47748Y-11399D01*
X47763Y-11406D01*
X47779Y-11413D01*
X47793Y-11418D01*
X47823Y-11425D01*
X47835Y-11427D01*
X47848Y-11429D01*
X47858Y-11430D01*
X47867Y-11431D01*
X47875Y-11432D01*
X47885D01*
X47902Y-11431D01*
X47917Y-11430D01*
X47947Y-11425D01*
X47976Y-11418D01*
X48000Y-11409D01*
X48010Y-11405D01*
X48019Y-11402D01*
X48028Y-11398D01*
X48035Y-11395D01*
X48041Y-11392D01*
X48045Y-11390D01*
X48047Y-11388D01*
X48049D01*
X48062Y-11378D01*
X48075Y-11369D01*
X48097Y-11347D01*
X48116Y-11325D01*
X48132Y-11302D01*
X48143Y-11282D01*
X48148Y-11274D01*
X48153Y-11266D01*
X48155Y-11259D01*
X48157Y-11255D01*
X48159Y-11252D01*
Y-11251D01*
X48170Y-11216D01*
X48180Y-11179D01*
X48186Y-11143D01*
X48188Y-11126D01*
X48190Y-11109D01*
X48191Y-11094D01*
X48192Y-11080D01*
X48193Y-11068D01*
Y-11057D01*
X48194Y-11048D01*
Y-11042D01*
Y-11038D01*
Y-11037D01*
X48193Y-11001D01*
X48190Y-10968D01*
X48185Y-10937D01*
X48183Y-10922D01*
X48180Y-10908D01*
X48177Y-10897D01*
X48175Y-10886D01*
X48171Y-10876D01*
X48169Y-10868D01*
X48168Y-10862D01*
X48166Y-10856D01*
X48165Y-10853D01*
Y-10852D01*
X48152Y-10820D01*
X48136Y-10792D01*
X48119Y-10768D01*
X48110Y-10757D01*
X48102Y-10747D01*
X48093Y-10739D01*
X48086Y-10731D01*
X48079Y-10724D01*
X48074Y-10719D01*
X48068Y-10715D01*
X48064Y-10712D01*
X48062Y-10711D01*
X48061Y-10710D01*
X48046Y-10700D01*
X48032Y-10692D01*
X48016Y-10685D01*
X48001Y-10678D01*
X47969Y-10669D01*
X47939Y-10662D01*
X47927Y-10660D01*
X47914Y-10659D01*
X47903Y-10658D01*
X47893Y-10656D01*
X47885Y-10655D01*
X47857D01*
X47840Y-10658D01*
X47809Y-10663D01*
X47782Y-10671D01*
X47770Y-10675D01*
X47759Y-10679D01*
X47749Y-10684D01*
X47740Y-10688D01*
X47733Y-10692D01*
X47727Y-10696D01*
X47722Y-10699D01*
X47718Y-10701D01*
X47716Y-10702D01*
X47715Y-10703D01*
X47704Y-10713D01*
X47692Y-10723D01*
X47674Y-10747D01*
X47656Y-10773D01*
X47642Y-10798D01*
X47632Y-10821D01*
X47627Y-10830D01*
X47624Y-10839D01*
X47620Y-10846D01*
X47619Y-10852D01*
X47617Y-10855D01*
Y-10856D01*
X47492Y-10827D01*
X47501Y-10803D01*
X47510Y-10780D01*
X47519Y-10759D01*
X47531Y-10739D01*
X47541Y-10720D01*
X47553Y-10703D01*
X47564Y-10688D01*
X47576Y-10674D01*
X47587Y-10662D01*
X47597Y-10651D01*
X47606Y-10642D01*
X47614Y-10635D01*
X47620Y-10628D01*
X47626Y-10624D01*
X47629Y-10622D01*
X47630Y-10621D01*
X47649Y-10608D01*
X47668Y-10597D01*
X47688Y-10587D01*
X47709Y-10578D01*
X47730Y-10571D01*
X47750Y-10565D01*
X47769Y-10561D01*
X47788Y-10557D01*
X47806Y-10553D01*
X47821Y-10551D01*
X47836Y-10549D01*
X47849Y-10548D01*
X47859Y-10547D01*
X47873D01*
X47896Y-10548D01*
D02*
G37*
G36*
X49182Y-11525D02*
X48464D01*
Y-11411D01*
X49055D01*
Y-11084D01*
X48522D01*
Y-10971D01*
X49055D01*
Y-10677D01*
X48486D01*
Y-10564D01*
X49182D01*
Y-11525D01*
D02*
G37*
G36*
X53417Y-10562D02*
X53436Y-10563D01*
X53453Y-10566D01*
X53470Y-10569D01*
X53485Y-10573D01*
X53499Y-10578D01*
X53513Y-10584D01*
X53524Y-10589D01*
X53536Y-10594D01*
X53545Y-10599D01*
X53553Y-10603D01*
X53560Y-10609D01*
X53565Y-10612D01*
X53569Y-10615D01*
X53571Y-10616D01*
X53572Y-10617D01*
X53585Y-10628D01*
X53596Y-10640D01*
X53617Y-10666D01*
X53636Y-10692D01*
X53650Y-10718D01*
X53656Y-10730D01*
X53662Y-10741D01*
X53666Y-10751D01*
X53670Y-10760D01*
X53672Y-10767D01*
X53674Y-10773D01*
X53676Y-10776D01*
Y-10777D01*
X53682Y-10797D01*
X53688Y-10819D01*
X53696Y-10864D01*
X53702Y-10910D01*
X53704Y-10931D01*
X53706Y-10953D01*
X53707Y-10973D01*
X53709Y-10992D01*
X53710Y-11008D01*
Y-11023D01*
X53711Y-11035D01*
Y-11044D01*
Y-11049D01*
Y-11051D01*
X53710Y-11100D01*
X53706Y-11146D01*
X53702Y-11188D01*
X53696Y-11226D01*
X53689Y-11262D01*
X53680Y-11294D01*
X53672Y-11322D01*
X53663Y-11348D01*
X53654Y-11370D01*
X53646Y-11390D01*
X53638Y-11405D01*
X53630Y-11419D01*
X53624Y-11429D01*
X53620Y-11436D01*
X53617Y-11441D01*
X53616Y-11442D01*
X53600Y-11459D01*
X53584Y-11474D01*
X53566Y-11488D01*
X53548Y-11499D01*
X53530Y-11508D01*
X53512Y-11517D01*
X53494Y-11523D01*
X53477Y-11528D01*
X53461Y-11532D01*
X53446Y-11535D01*
X53433Y-11538D01*
X53421Y-11539D01*
X53412Y-11540D01*
X53404Y-11541D01*
X53398D01*
X53378Y-11540D01*
X53361Y-11539D01*
X53343Y-11535D01*
X53326Y-11532D01*
X53311Y-11527D01*
X53297Y-11523D01*
X53284Y-11518D01*
X53272Y-11513D01*
X53261Y-11507D01*
X53251Y-11502D01*
X53243Y-11497D01*
X53237Y-11493D01*
X53232Y-11490D01*
X53227Y-11486D01*
X53225Y-11485D01*
X53224Y-11484D01*
X53212Y-11473D01*
X53199Y-11461D01*
X53178Y-11435D01*
X53161Y-11409D01*
X53146Y-11383D01*
X53140Y-11371D01*
X53135Y-11359D01*
X53131Y-11350D01*
X53126Y-11341D01*
X53123Y-11334D01*
X53122Y-11328D01*
X53120Y-11325D01*
Y-11324D01*
X53114Y-11304D01*
X53109Y-11282D01*
X53099Y-11238D01*
X53093Y-11192D01*
X53091Y-11170D01*
X53089Y-11148D01*
X53088Y-11128D01*
X53087Y-11109D01*
X53086Y-11094D01*
X53085Y-11079D01*
Y-11068D01*
Y-11058D01*
Y-11053D01*
Y-11051D01*
Y-11025D01*
X53086Y-11000D01*
X53087Y-10977D01*
X53088Y-10955D01*
X53090Y-10936D01*
X53092Y-10917D01*
X53094Y-10900D01*
X53095Y-10885D01*
X53097Y-10871D01*
X53099Y-10860D01*
X53101Y-10849D01*
X53103Y-10841D01*
X53105Y-10834D01*
X53106Y-10829D01*
X53107Y-10826D01*
Y-10825D01*
X53115Y-10795D01*
X53125Y-10767D01*
X53135Y-10743D01*
X53144Y-10722D01*
X53149Y-10714D01*
X53152Y-10705D01*
X53157Y-10698D01*
X53160Y-10693D01*
X53163Y-10689D01*
X53164Y-10686D01*
X53166Y-10684D01*
Y-10683D01*
X53181Y-10662D01*
X53197Y-10643D01*
X53213Y-10627D01*
X53228Y-10615D01*
X53242Y-10604D01*
X53252Y-10598D01*
X53257Y-10595D01*
X53260Y-10593D01*
X53262Y-10592D01*
X53263D01*
X53286Y-10582D01*
X53309Y-10574D01*
X53332Y-10568D01*
X53352Y-10565D01*
X53371Y-10563D01*
X53378Y-10562D01*
X53386Y-10561D01*
X53398D01*
X53417Y-10562D01*
D02*
G37*
G36*
X52670D02*
X52689Y-10563D01*
X52707Y-10566D01*
X52723Y-10569D01*
X52738Y-10573D01*
X52753Y-10578D01*
X52766Y-10584D01*
X52778Y-10589D01*
X52789Y-10594D01*
X52798Y-10599D01*
X52807Y-10603D01*
X52813Y-10609D01*
X52818Y-10612D01*
X52822Y-10615D01*
X52824Y-10616D01*
X52825Y-10617D01*
X52838Y-10628D01*
X52849Y-10640D01*
X52870Y-10666D01*
X52889Y-10692D01*
X52904Y-10718D01*
X52910Y-10730D01*
X52915Y-10741D01*
X52919Y-10751D01*
X52923Y-10760D01*
X52925Y-10767D01*
X52927Y-10773D01*
X52930Y-10776D01*
Y-10777D01*
X52936Y-10797D01*
X52941Y-10819D01*
X52949Y-10864D01*
X52956Y-10910D01*
X52958Y-10931D01*
X52960Y-10953D01*
X52961Y-10973D01*
X52962Y-10992D01*
X52963Y-11008D01*
Y-11023D01*
X52964Y-11035D01*
Y-11044D01*
Y-11049D01*
Y-11051D01*
X52963Y-11100D01*
X52960Y-11146D01*
X52956Y-11188D01*
X52949Y-11226D01*
X52942Y-11262D01*
X52934Y-11294D01*
X52925Y-11322D01*
X52916Y-11348D01*
X52908Y-11370D01*
X52899Y-11390D01*
X52891Y-11405D01*
X52884Y-11419D01*
X52877Y-11429D01*
X52873Y-11436D01*
X52870Y-11441D01*
X52869Y-11442D01*
X52854Y-11459D01*
X52837Y-11474D01*
X52819Y-11488D01*
X52801Y-11499D01*
X52784Y-11508D01*
X52765Y-11517D01*
X52747Y-11523D01*
X52731Y-11528D01*
X52714Y-11532D01*
X52699Y-11535D01*
X52686Y-11538D01*
X52674Y-11539D01*
X52665Y-11540D01*
X52658Y-11541D01*
X52652D01*
X52632Y-11540D01*
X52614Y-11539D01*
X52596Y-11535D01*
X52580Y-11532D01*
X52564Y-11527D01*
X52550Y-11523D01*
X52537Y-11518D01*
X52526Y-11513D01*
X52514Y-11507D01*
X52505Y-11502D01*
X52496Y-11497D01*
X52490Y-11493D01*
X52485Y-11490D01*
X52481Y-11486D01*
X52479Y-11485D01*
X52478Y-11484D01*
X52465Y-11473D01*
X52453Y-11461D01*
X52432Y-11435D01*
X52414Y-11409D01*
X52399Y-11383D01*
X52393Y-11371D01*
X52388Y-11359D01*
X52384Y-11350D01*
X52380Y-11341D01*
X52377Y-11334D01*
X52376Y-11328D01*
X52373Y-11325D01*
Y-11324D01*
X52367Y-11304D01*
X52362Y-11282D01*
X52353Y-11238D01*
X52346Y-11192D01*
X52344Y-11170D01*
X52342Y-11148D01*
X52341Y-11128D01*
X52340Y-11109D01*
X52339Y-11094D01*
X52338Y-11079D01*
Y-11068D01*
Y-11058D01*
Y-11053D01*
Y-11051D01*
Y-11025D01*
X52339Y-11000D01*
X52340Y-10977D01*
X52341Y-10955D01*
X52343Y-10936D01*
X52345Y-10917D01*
X52347Y-10900D01*
X52348Y-10885D01*
X52351Y-10871D01*
X52353Y-10860D01*
X52355Y-10849D01*
X52357Y-10841D01*
X52358Y-10834D01*
X52359Y-10829D01*
X52360Y-10826D01*
Y-10825D01*
X52368Y-10795D01*
X52379Y-10767D01*
X52388Y-10743D01*
X52397Y-10722D01*
X52403Y-10714D01*
X52406Y-10705D01*
X52410Y-10698D01*
X52413Y-10693D01*
X52416Y-10689D01*
X52417Y-10686D01*
X52419Y-10684D01*
Y-10683D01*
X52434Y-10662D01*
X52451Y-10643D01*
X52466Y-10627D01*
X52482Y-10615D01*
X52495Y-10604D01*
X52506Y-10598D01*
X52510Y-10595D01*
X52513Y-10593D01*
X52515Y-10592D01*
X52516D01*
X52539Y-10582D01*
X52562Y-10574D01*
X52585Y-10568D01*
X52606Y-10565D01*
X52624Y-10563D01*
X52632Y-10562D01*
X52639Y-10561D01*
X52652D01*
X52670Y-10562D01*
D02*
G37*
G36*
X51527Y-11542D02*
X51432D01*
X51153Y-10548D01*
X51248D01*
X51527Y-11542D01*
D02*
G37*
G36*
X49661D02*
X49566D01*
X49287Y-10548D01*
X49382D01*
X49661Y-11542D01*
D02*
G37*
G36*
X20052Y-9540D02*
Y-11779D01*
X11052D01*
Y-9540D01*
X20052D01*
D02*
G37*
G36*
X15639Y-2286D02*
X15792Y-2293D01*
X16076Y-2342D01*
X16215Y-2370D01*
X16340Y-2404D01*
X16465Y-2439D01*
X16576Y-2474D01*
X16674Y-2508D01*
X16764Y-2543D01*
X16847Y-2578D01*
X16910Y-2606D01*
X16965Y-2633D01*
X17000Y-2654D01*
X17028Y-2661D01*
X17035Y-2668D01*
X17160Y-2745D01*
X17285Y-2828D01*
X17396Y-2918D01*
X17500Y-3008D01*
X17597Y-3106D01*
X17688Y-3196D01*
X17764Y-3293D01*
X17840Y-3376D01*
X17903Y-3467D01*
X17958Y-3543D01*
X18007Y-3613D01*
X18049Y-3675D01*
X18076Y-3731D01*
X18097Y-3765D01*
X18111Y-3793D01*
X18118Y-3800D01*
X18188Y-3939D01*
X18243Y-4092D01*
X18292Y-4238D01*
X18340Y-4383D01*
X18410Y-4682D01*
X18431Y-4821D01*
X18451Y-4953D01*
X18465Y-5078D01*
X18479Y-5189D01*
X18486Y-5293D01*
X18493Y-5383D01*
X18500Y-5453D01*
Y-5508D01*
Y-5536D01*
Y-5550D01*
X18493Y-5717D01*
X18486Y-5883D01*
X18444Y-6203D01*
X18424Y-6356D01*
X18396Y-6494D01*
X18361Y-6626D01*
X18333Y-6751D01*
X18299Y-6863D01*
X18271Y-6967D01*
X18243Y-7050D01*
X18215Y-7126D01*
X18194Y-7182D01*
X18181Y-7231D01*
X18174Y-7258D01*
X18167Y-7265D01*
X18097Y-7411D01*
X18028Y-7550D01*
X17951Y-7675D01*
X17868Y-7793D01*
X17785Y-7904D01*
X17708Y-8001D01*
X17625Y-8092D01*
X17549Y-8175D01*
X17472Y-8251D01*
X17403Y-8314D01*
X17340Y-8363D01*
X17285Y-8411D01*
X17243Y-8446D01*
X17208Y-8467D01*
X17188Y-8481D01*
X17181Y-8488D01*
X17056Y-8564D01*
X16924Y-8626D01*
X16785Y-8682D01*
X16639Y-8731D01*
X16500Y-8765D01*
X16361Y-8800D01*
X16222Y-8828D01*
X16090Y-8849D01*
X15965Y-8869D01*
X15854Y-8883D01*
X15750Y-8890D01*
X15667Y-8897D01*
X15590Y-8904D01*
X15493D01*
X15306Y-8897D01*
X15132Y-8883D01*
X14965Y-8856D01*
X14806Y-8821D01*
X14653Y-8779D01*
X14514Y-8731D01*
X14389Y-8682D01*
X14271Y-8633D01*
X14160Y-8585D01*
X14069Y-8536D01*
X13986Y-8488D01*
X13924Y-8446D01*
X13868Y-8411D01*
X13833Y-8383D01*
X13806Y-8369D01*
X13799Y-8363D01*
X13674Y-8251D01*
X13556Y-8133D01*
X13451Y-8008D01*
X13354Y-7883D01*
X13264Y-7751D01*
X13188Y-7613D01*
X13118Y-7488D01*
X13056Y-7356D01*
X13000Y-7238D01*
X12958Y-7126D01*
X12917Y-7022D01*
X12889Y-6939D01*
X12861Y-6863D01*
X12847Y-6814D01*
X12833Y-6779D01*
Y-6765D01*
X13681Y-6550D01*
X13715Y-6696D01*
X13764Y-6835D01*
X13813Y-6967D01*
X13861Y-7085D01*
X13917Y-7196D01*
X13972Y-7293D01*
X14028Y-7383D01*
X14083Y-7467D01*
X14139Y-7536D01*
X14188Y-7599D01*
X14236Y-7654D01*
X14271Y-7696D01*
X14306Y-7731D01*
X14333Y-7751D01*
X14347Y-7765D01*
X14354Y-7772D01*
X14451Y-7842D01*
X14549Y-7904D01*
X14646Y-7960D01*
X14750Y-8008D01*
X14854Y-8050D01*
X14951Y-8085D01*
X15146Y-8133D01*
X15229Y-8147D01*
X15313Y-8161D01*
X15382Y-8168D01*
X15444Y-8175D01*
X15493Y-8182D01*
X15563D01*
X15674Y-8175D01*
X15778Y-8168D01*
X15979Y-8133D01*
X16167Y-8085D01*
X16326Y-8029D01*
X16396Y-8001D01*
X16458Y-7981D01*
X16514Y-7953D01*
X16563Y-7932D01*
X16604Y-7911D01*
X16632Y-7897D01*
X16646Y-7883D01*
X16653D01*
X16743Y-7821D01*
X16826Y-7758D01*
X16979Y-7613D01*
X17104Y-7467D01*
X17208Y-7314D01*
X17285Y-7182D01*
X17319Y-7126D01*
X17347Y-7071D01*
X17361Y-7029D01*
X17375Y-7001D01*
X17389Y-6981D01*
Y-6974D01*
X17465Y-6738D01*
X17528Y-6494D01*
X17569Y-6251D01*
X17583Y-6140D01*
X17597Y-6029D01*
X17604Y-5925D01*
X17611Y-5835D01*
X17618Y-5751D01*
Y-5682D01*
X17625Y-5619D01*
Y-5578D01*
Y-5550D01*
Y-5543D01*
X17618Y-5307D01*
X17597Y-5085D01*
X17563Y-4876D01*
X17549Y-4779D01*
X17528Y-4689D01*
X17507Y-4613D01*
X17493Y-4536D01*
X17472Y-4474D01*
X17458Y-4418D01*
X17451Y-4376D01*
X17438Y-4342D01*
X17431Y-4321D01*
Y-4314D01*
X17340Y-4099D01*
X17236Y-3911D01*
X17125Y-3751D01*
X17063Y-3682D01*
X17007Y-3613D01*
X16951Y-3557D01*
X16903Y-3508D01*
X16854Y-3460D01*
X16819Y-3425D01*
X16785Y-3397D01*
X16757Y-3376D01*
X16743Y-3370D01*
X16736Y-3363D01*
X16639Y-3300D01*
X16542Y-3245D01*
X16438Y-3196D01*
X16333Y-3154D01*
X16125Y-3092D01*
X15924Y-3043D01*
X15840Y-3029D01*
X15757Y-3022D01*
X15681Y-3015D01*
X15618Y-3008D01*
X15563Y-3001D01*
X15375D01*
X15264Y-3015D01*
X15056Y-3050D01*
X14875Y-3106D01*
X14799Y-3133D01*
X14722Y-3161D01*
X14653Y-3189D01*
X14597Y-3217D01*
X14549Y-3245D01*
X14507Y-3272D01*
X14472Y-3293D01*
X14451Y-3307D01*
X14438Y-3314D01*
X14431Y-3321D01*
X14354Y-3383D01*
X14278Y-3453D01*
X14153Y-3613D01*
X14035Y-3786D01*
X13944Y-3953D01*
X13875Y-4106D01*
X13840Y-4168D01*
X13819Y-4224D01*
X13799Y-4272D01*
X13792Y-4314D01*
X13778Y-4335D01*
Y-4342D01*
X12945Y-4147D01*
X13000Y-3988D01*
X13063Y-3835D01*
X13125Y-3689D01*
X13201Y-3557D01*
X13271Y-3432D01*
X13347Y-3321D01*
X13424Y-3217D01*
X13500Y-3126D01*
X13576Y-3043D01*
X13639Y-2974D01*
X13701Y-2911D01*
X13757Y-2863D01*
X13799Y-2821D01*
X13833Y-2793D01*
X13854Y-2779D01*
X13861Y-2772D01*
X13986Y-2682D01*
X14118Y-2613D01*
X14250Y-2543D01*
X14389Y-2488D01*
X14528Y-2439D01*
X14660Y-2397D01*
X14792Y-2370D01*
X14917Y-2342D01*
X15035Y-2321D01*
X15139Y-2307D01*
X15236Y-2293D01*
X15319Y-2286D01*
X15389Y-2279D01*
X15479D01*
X15639Y-2286D01*
D02*
G37*
G36*
X23517Y-6163D02*
X23534Y-6165D01*
X23551Y-6168D01*
X23567Y-6171D01*
X23582Y-6175D01*
X23596Y-6180D01*
X23608Y-6185D01*
X23620Y-6190D01*
X23631Y-6195D01*
X23640Y-6200D01*
X23649Y-6204D01*
X23655Y-6209D01*
X23660Y-6212D01*
X23664Y-6215D01*
X23667Y-6216D01*
X23667Y-6217D01*
X23680Y-6228D01*
X23692Y-6240D01*
X23702Y-6252D01*
X23712Y-6265D01*
X23721Y-6278D01*
X23728Y-6292D01*
X23735Y-6304D01*
X23741Y-6317D01*
X23747Y-6329D01*
X23751Y-6340D01*
X23755Y-6351D01*
X23758Y-6359D01*
X23761Y-6367D01*
X23762Y-6372D01*
X23764Y-6375D01*
Y-6376D01*
X23679Y-6398D01*
X23676Y-6383D01*
X23671Y-6369D01*
X23666Y-6356D01*
X23661Y-6344D01*
X23656Y-6333D01*
X23650Y-6324D01*
X23644Y-6315D01*
X23639Y-6306D01*
X23633Y-6299D01*
X23628Y-6293D01*
X23624Y-6288D01*
X23620Y-6283D01*
X23617Y-6280D01*
X23614Y-6278D01*
X23613Y-6277D01*
X23612Y-6276D01*
X23602Y-6269D01*
X23592Y-6263D01*
X23583Y-6257D01*
X23572Y-6252D01*
X23562Y-6248D01*
X23552Y-6245D01*
X23533Y-6240D01*
X23524Y-6238D01*
X23516Y-6237D01*
X23509Y-6236D01*
X23503Y-6236D01*
X23498Y-6235D01*
X23491D01*
X23480Y-6236D01*
X23470Y-6236D01*
X23450Y-6240D01*
X23431Y-6245D01*
X23415Y-6250D01*
X23408Y-6253D01*
X23402Y-6255D01*
X23396Y-6258D01*
X23391Y-6260D01*
X23387Y-6262D01*
X23384Y-6263D01*
X23383Y-6265D01*
X23382D01*
X23373Y-6271D01*
X23365Y-6277D01*
X23350Y-6292D01*
X23337Y-6306D01*
X23327Y-6322D01*
X23319Y-6335D01*
X23316Y-6340D01*
X23313Y-6346D01*
X23312Y-6350D01*
X23310Y-6353D01*
X23309Y-6355D01*
Y-6356D01*
X23301Y-6379D01*
X23295Y-6403D01*
X23291Y-6428D01*
X23289Y-6439D01*
X23288Y-6450D01*
X23287Y-6460D01*
X23287Y-6469D01*
X23286Y-6478D01*
Y-6485D01*
X23285Y-6491D01*
Y-6495D01*
Y-6498D01*
Y-6498D01*
X23286Y-6522D01*
X23288Y-6544D01*
X23291Y-6565D01*
X23293Y-6575D01*
X23295Y-6584D01*
X23297Y-6591D01*
X23298Y-6599D01*
X23300Y-6605D01*
X23302Y-6611D01*
X23303Y-6615D01*
X23304Y-6618D01*
X23305Y-6620D01*
Y-6621D01*
X23314Y-6643D01*
X23324Y-6661D01*
X23335Y-6677D01*
X23341Y-6684D01*
X23347Y-6691D01*
X23352Y-6697D01*
X23357Y-6702D01*
X23362Y-6706D01*
X23366Y-6710D01*
X23369Y-6713D01*
X23372Y-6715D01*
X23373Y-6715D01*
X23374Y-6716D01*
X23384Y-6722D01*
X23393Y-6728D01*
X23404Y-6733D01*
X23414Y-6737D01*
X23435Y-6743D01*
X23455Y-6748D01*
X23463Y-6749D01*
X23472Y-6750D01*
X23479Y-6751D01*
X23486Y-6752D01*
X23491Y-6752D01*
X23510D01*
X23521Y-6751D01*
X23542Y-6747D01*
X23560Y-6742D01*
X23567Y-6739D01*
X23575Y-6736D01*
X23582Y-6733D01*
X23588Y-6731D01*
X23592Y-6728D01*
X23597Y-6725D01*
X23600Y-6723D01*
X23602Y-6722D01*
X23604Y-6721D01*
X23604Y-6720D01*
X23612Y-6714D01*
X23619Y-6707D01*
X23632Y-6691D01*
X23644Y-6674D01*
X23653Y-6657D01*
X23660Y-6642D01*
X23663Y-6636D01*
X23665Y-6630D01*
X23667Y-6625D01*
X23668Y-6621D01*
X23669Y-6619D01*
Y-6618D01*
X23753Y-6638D01*
X23747Y-6654D01*
X23741Y-6669D01*
X23735Y-6684D01*
X23727Y-6697D01*
X23720Y-6709D01*
X23712Y-6720D01*
X23705Y-6731D01*
X23697Y-6740D01*
X23689Y-6748D01*
X23683Y-6755D01*
X23677Y-6761D01*
X23671Y-6766D01*
X23667Y-6770D01*
X23664Y-6773D01*
X23662Y-6774D01*
X23661Y-6775D01*
X23649Y-6784D01*
X23635Y-6791D01*
X23622Y-6798D01*
X23608Y-6804D01*
X23594Y-6808D01*
X23581Y-6813D01*
X23568Y-6815D01*
X23556Y-6818D01*
X23544Y-6820D01*
X23533Y-6822D01*
X23524Y-6823D01*
X23515Y-6824D01*
X23508Y-6824D01*
X23499D01*
X23484Y-6824D01*
X23468Y-6823D01*
X23440Y-6818D01*
X23426Y-6815D01*
X23413Y-6812D01*
X23401Y-6808D01*
X23390Y-6805D01*
X23380Y-6801D01*
X23371Y-6798D01*
X23363Y-6795D01*
X23357Y-6792D01*
X23351Y-6789D01*
X23348Y-6787D01*
X23345Y-6786D01*
X23344Y-6786D01*
X23332Y-6778D01*
X23319Y-6770D01*
X23308Y-6761D01*
X23298Y-6752D01*
X23288Y-6742D01*
X23279Y-6733D01*
X23271Y-6723D01*
X23264Y-6715D01*
X23257Y-6706D01*
X23252Y-6698D01*
X23247Y-6691D01*
X23243Y-6685D01*
X23240Y-6679D01*
X23238Y-6676D01*
X23237Y-6673D01*
X23236Y-6672D01*
X23229Y-6659D01*
X23223Y-6643D01*
X23219Y-6629D01*
X23214Y-6614D01*
X23207Y-6584D01*
X23205Y-6571D01*
X23203Y-6557D01*
X23201Y-6545D01*
X23200Y-6534D01*
X23199Y-6523D01*
X23199Y-6514D01*
X23198Y-6507D01*
Y-6502D01*
Y-6499D01*
Y-6498D01*
X23199Y-6481D01*
X23199Y-6464D01*
X23203Y-6433D01*
X23205Y-6417D01*
X23208Y-6403D01*
X23212Y-6390D01*
X23214Y-6378D01*
X23218Y-6367D01*
X23221Y-6356D01*
X23223Y-6348D01*
X23226Y-6340D01*
X23228Y-6335D01*
X23230Y-6330D01*
X23230Y-6327D01*
X23231Y-6326D01*
X23238Y-6312D01*
X23245Y-6298D01*
X23253Y-6286D01*
X23261Y-6274D01*
X23269Y-6263D01*
X23277Y-6253D01*
X23285Y-6244D01*
X23293Y-6236D01*
X23300Y-6228D01*
X23307Y-6222D01*
X23314Y-6217D01*
X23319Y-6212D01*
X23323Y-6209D01*
X23327Y-6206D01*
X23329Y-6205D01*
X23330Y-6204D01*
X23342Y-6197D01*
X23355Y-6191D01*
X23369Y-6185D01*
X23384Y-6180D01*
X23398Y-6177D01*
X23411Y-6173D01*
X23425Y-6170D01*
X23438Y-6168D01*
X23451Y-6166D01*
X23462Y-6165D01*
X23472Y-6164D01*
X23481Y-6163D01*
X23488Y-6163D01*
X23498D01*
X23517Y-6163D01*
D02*
G37*
G36*
X24132Y-6815D02*
X24081D01*
X24072Y-6799D01*
X24062Y-6784D01*
X24050Y-6770D01*
X24038Y-6757D01*
X24028Y-6745D01*
X24023Y-6741D01*
X24020Y-6737D01*
X24016Y-6733D01*
X24013Y-6731D01*
X24012Y-6730D01*
X24011Y-6729D01*
X23993Y-6713D01*
X23972Y-6700D01*
X23953Y-6686D01*
X23935Y-6675D01*
X23927Y-6671D01*
X23920Y-6667D01*
X23913Y-6663D01*
X23907Y-6660D01*
X23902Y-6658D01*
X23899Y-6656D01*
X23897Y-6655D01*
X23896Y-6654D01*
Y-6579D01*
X23910Y-6584D01*
X23925Y-6591D01*
X23938Y-6598D01*
X23951Y-6604D01*
X23962Y-6610D01*
X23967Y-6612D01*
X23971Y-6615D01*
X23974Y-6616D01*
X23977Y-6618D01*
X23978Y-6619D01*
X23979D01*
X23995Y-6629D01*
X24010Y-6639D01*
X24023Y-6648D01*
X24033Y-6657D01*
X24042Y-6663D01*
X24049Y-6668D01*
X24052Y-6672D01*
X24054Y-6673D01*
Y-6173D01*
X24132D01*
Y-6815D01*
D02*
G37*
G36*
X24664Y-6326D02*
X24750D01*
Y-6399D01*
X24664D01*
Y-6813D01*
X24599D01*
X24307Y-6399D01*
Y-6326D01*
X24585D01*
Y-6173D01*
X24664D01*
Y-6326D01*
D02*
G37*
G36*
X25056Y-7940D02*
X24740D01*
X24751Y-7956D01*
X24757Y-7963D01*
X24762Y-7969D01*
X24767Y-7974D01*
X24771Y-7979D01*
X24774Y-7981D01*
X24774Y-7982D01*
X24778Y-7986D01*
X24784Y-7992D01*
X24790Y-7997D01*
X24797Y-8003D01*
X24812Y-8017D01*
X24827Y-8031D01*
X24842Y-8043D01*
X24848Y-8049D01*
X24854Y-8053D01*
X24858Y-8058D01*
X24862Y-8060D01*
X24864Y-8062D01*
X24865Y-8063D01*
X24880Y-8076D01*
X24895Y-8089D01*
X24908Y-8100D01*
X24920Y-8111D01*
X24931Y-8121D01*
X24941Y-8130D01*
X24950Y-8139D01*
X24958Y-8146D01*
X24965Y-8153D01*
X24970Y-8159D01*
X24975Y-8164D01*
X24980Y-8168D01*
X24982Y-8171D01*
X24985Y-8173D01*
X24986Y-8175D01*
X24986Y-8175D01*
X25000Y-8191D01*
X25010Y-8205D01*
X25019Y-8218D01*
X25027Y-8230D01*
X25032Y-8239D01*
X25036Y-8247D01*
X25038Y-8250D01*
X25038Y-8252D01*
X25039Y-8252D01*
Y-8253D01*
X25045Y-8267D01*
X25048Y-8281D01*
X25051Y-8293D01*
X25053Y-8305D01*
X25054Y-8315D01*
X25055Y-8322D01*
Y-8325D01*
Y-8327D01*
Y-8328D01*
Y-8329D01*
X25054Y-8343D01*
X25053Y-8356D01*
X25050Y-8368D01*
X25047Y-8381D01*
X25043Y-8392D01*
X25038Y-8402D01*
X25033Y-8412D01*
X25028Y-8420D01*
X25023Y-8429D01*
X25018Y-8435D01*
X25013Y-8442D01*
X25009Y-8447D01*
X25006Y-8450D01*
X25003Y-8454D01*
X25002Y-8455D01*
X25001Y-8456D01*
X24991Y-8465D01*
X24980Y-8472D01*
X24968Y-8479D01*
X24955Y-8485D01*
X24943Y-8490D01*
X24931Y-8494D01*
X24919Y-8498D01*
X24907Y-8501D01*
X24897Y-8503D01*
X24887Y-8504D01*
X24878Y-8506D01*
X24870Y-8506D01*
X24864Y-8507D01*
X24855D01*
X24838Y-8506D01*
X24822Y-8505D01*
X24808Y-8503D01*
X24794Y-8499D01*
X24781Y-8496D01*
X24769Y-8492D01*
X24758Y-8488D01*
X24748Y-8483D01*
X24739Y-8478D01*
X24731Y-8474D01*
X24724Y-8470D01*
X24719Y-8467D01*
X24715Y-8463D01*
X24712Y-8461D01*
X24710Y-8460D01*
X24709Y-8459D01*
X24699Y-8450D01*
X24691Y-8440D01*
X24683Y-8429D01*
X24676Y-8417D01*
X24671Y-8406D01*
X24665Y-8395D01*
X24661Y-8383D01*
X24658Y-8373D01*
X24654Y-8363D01*
X24652Y-8353D01*
X24650Y-8344D01*
X24649Y-8336D01*
X24648Y-8330D01*
X24647Y-8326D01*
X24647Y-8323D01*
Y-8322D01*
X24727Y-8313D01*
X24728Y-8325D01*
X24728Y-8335D01*
X24733Y-8353D01*
X24738Y-8370D01*
X24741Y-8377D01*
X24744Y-8383D01*
X24747Y-8388D01*
X24751Y-8393D01*
X24753Y-8397D01*
X24756Y-8401D01*
X24758Y-8404D01*
X24760Y-8406D01*
X24760Y-8406D01*
X24761Y-8407D01*
X24768Y-8413D01*
X24775Y-8419D01*
X24783Y-8423D01*
X24790Y-8427D01*
X24805Y-8433D01*
X24820Y-8438D01*
X24833Y-8440D01*
X24838Y-8441D01*
X24843D01*
X24847Y-8442D01*
X24862D01*
X24872Y-8440D01*
X24889Y-8437D01*
X24904Y-8431D01*
X24917Y-8426D01*
X24927Y-8420D01*
X24931Y-8417D01*
X24934Y-8414D01*
X24937Y-8412D01*
X24939Y-8411D01*
X24940Y-8410D01*
X24941Y-8409D01*
X24947Y-8403D01*
X24952Y-8397D01*
X24957Y-8390D01*
X24960Y-8383D01*
X24966Y-8370D01*
X24970Y-8358D01*
X24973Y-8347D01*
X24974Y-8343D01*
Y-8338D01*
X24975Y-8336D01*
Y-8333D01*
Y-8331D01*
Y-8331D01*
X24974Y-8322D01*
X24973Y-8314D01*
X24969Y-8297D01*
X24963Y-8282D01*
X24956Y-8267D01*
X24949Y-8255D01*
X24946Y-8250D01*
X24943Y-8245D01*
X24941Y-8241D01*
X24939Y-8239D01*
X24938Y-8237D01*
X24937Y-8236D01*
X24930Y-8227D01*
X24921Y-8216D01*
X24910Y-8205D01*
X24899Y-8194D01*
X24876Y-8171D01*
X24853Y-8150D01*
X24842Y-8139D01*
X24830Y-8130D01*
X24821Y-8122D01*
X24812Y-8115D01*
X24805Y-8109D01*
X24801Y-8105D01*
X24797Y-8101D01*
X24796Y-8101D01*
X24783Y-8090D01*
X24772Y-8080D01*
X24761Y-8071D01*
X24751Y-8062D01*
X24742Y-8054D01*
X24733Y-8046D01*
X24726Y-8039D01*
X24719Y-8032D01*
X24713Y-8026D01*
X24708Y-8020D01*
X24703Y-8015D01*
X24699Y-8012D01*
X24696Y-8008D01*
X24694Y-8006D01*
X24693Y-8005D01*
X24692Y-8004D01*
X24680Y-7989D01*
X24670Y-7974D01*
X24661Y-7959D01*
X24654Y-7946D01*
X24648Y-7935D01*
X24646Y-7930D01*
X24644Y-7927D01*
X24643Y-7923D01*
X24642Y-7921D01*
X24641Y-7920D01*
Y-7919D01*
X24638Y-7909D01*
X24636Y-7899D01*
X24633Y-7890D01*
X24633Y-7882D01*
X24632Y-7875D01*
Y-7870D01*
Y-7866D01*
Y-7865D01*
X25056D01*
Y-7940D01*
D02*
G37*
G36*
X24574D02*
X24258D01*
Y-8505D01*
X24174D01*
Y-7865D01*
X24574D01*
Y-7940D01*
D02*
G37*
%LPC*%
G36*
X54323Y-7845D02*
X53999D01*
X53981Y-7847D01*
X53965Y-7849D01*
X53949Y-7852D01*
X53936Y-7855D01*
X53923Y-7860D01*
X53912Y-7863D01*
X53901Y-7867D01*
X53892Y-7871D01*
X53885Y-7875D01*
X53877Y-7879D01*
X53872Y-7883D01*
X53868Y-7886D01*
X53865Y-7888D01*
X53864Y-7889D01*
X53863Y-7890D01*
X53854Y-7898D01*
X53846Y-7907D01*
X53833Y-7925D01*
X53825Y-7944D01*
X53819Y-7962D01*
X53815Y-7977D01*
X53814Y-7985D01*
Y-7990D01*
X53813Y-7995D01*
Y-7998D01*
Y-8000D01*
Y-8001D01*
X53814Y-8018D01*
X53817Y-8035D01*
X53821Y-8049D01*
X53825Y-8062D01*
X53830Y-8073D01*
X53835Y-8080D01*
X53838Y-8086D01*
X53839Y-8088D01*
X53849Y-8101D01*
X53862Y-8114D01*
X53874Y-8123D01*
X53886Y-8131D01*
X53897Y-8138D01*
X53905Y-8142D01*
X53912Y-8144D01*
X53913Y-8145D01*
X53914D01*
X53933Y-8151D01*
X53955Y-8155D01*
X53978Y-8158D01*
X54000Y-8161D01*
X54020Y-8162D01*
X54028D01*
X54036Y-8163D01*
X54323D01*
Y-7845D01*
D02*
G37*
G36*
X53223Y-8086D02*
X53215D01*
X53199Y-8087D01*
X53184Y-8089D01*
X53169Y-8092D01*
X53156Y-8096D01*
X53131Y-8106D01*
X53109Y-8119D01*
X53100Y-8125D01*
X53092Y-8131D01*
X53086Y-8137D01*
X53080Y-8142D01*
X53075Y-8146D01*
X53072Y-8149D01*
X53070Y-8151D01*
X53069Y-8152D01*
X53059Y-8166D01*
X53049Y-8179D01*
X53042Y-8195D01*
X53035Y-8211D01*
X53028Y-8227D01*
X53024Y-8244D01*
X53017Y-8275D01*
X53015Y-8290D01*
X53013Y-8303D01*
X53012Y-8316D01*
X53011Y-8327D01*
X53010Y-8336D01*
Y-8343D01*
Y-8347D01*
Y-8348D01*
X53011Y-8373D01*
X53012Y-8396D01*
X53015Y-8418D01*
X53019Y-8438D01*
X53023Y-8456D01*
X53028Y-8473D01*
X53034Y-8489D01*
X53039Y-8501D01*
X53045Y-8514D01*
X53050Y-8524D01*
X53056Y-8532D01*
X53060Y-8540D01*
X53064Y-8545D01*
X53067Y-8549D01*
X53068Y-8551D01*
X53069Y-8552D01*
X53081Y-8564D01*
X53092Y-8574D01*
X53105Y-8583D01*
X53116Y-8591D01*
X53128Y-8597D01*
X53141Y-8602D01*
X53164Y-8610D01*
X53184Y-8616D01*
X53193Y-8617D01*
X53200Y-8618D01*
X53207Y-8619D01*
X53215D01*
X53232Y-8618D01*
X53246Y-8616D01*
X53262Y-8613D01*
X53275Y-8608D01*
X53300Y-8598D01*
X53321Y-8585D01*
X53331Y-8580D01*
X53339Y-8574D01*
X53345Y-8569D01*
X53351Y-8564D01*
X53355Y-8559D01*
X53359Y-8556D01*
X53361Y-8554D01*
X53362Y-8553D01*
X53372Y-8540D01*
X53380Y-8525D01*
X53389Y-8509D01*
X53395Y-8494D01*
X53405Y-8460D01*
X53413Y-8427D01*
X53415Y-8413D01*
X53417Y-8398D01*
X53418Y-8385D01*
X53419Y-8374D01*
X53420Y-8365D01*
Y-8358D01*
Y-8353D01*
Y-8352D01*
X53419Y-8328D01*
X53418Y-8305D01*
X53415Y-8284D01*
X53411Y-8265D01*
X53407Y-8247D01*
X53401Y-8230D01*
X53396Y-8216D01*
X53391Y-8202D01*
X53386Y-8191D01*
X53380Y-8180D01*
X53375Y-8172D01*
X53371Y-8165D01*
X53367Y-8160D01*
X53364Y-8155D01*
X53363Y-8153D01*
X53362Y-8152D01*
X53350Y-8141D01*
X53339Y-8130D01*
X53326Y-8121D01*
X53314Y-8114D01*
X53301Y-8107D01*
X53290Y-8102D01*
X53266Y-8094D01*
X53246Y-8089D01*
X53237Y-8088D01*
X53229Y-8087D01*
X53223Y-8086D01*
D02*
G37*
G36*
X51254Y-9352D02*
X50978D01*
X50965Y-9353D01*
X50953D01*
X50943Y-9354D01*
X50932Y-9355D01*
X50924Y-9356D01*
X50917D01*
X50904Y-9359D01*
X50896Y-9361D01*
X50891Y-9362D01*
X50889D01*
X50872Y-9368D01*
X50856Y-9376D01*
X50843Y-9386D01*
X50830Y-9395D01*
X50822Y-9403D01*
X50814Y-9411D01*
X50810Y-9416D01*
X50809Y-9418D01*
X50799Y-9435D01*
X50792Y-9452D01*
X50785Y-9469D01*
X50782Y-9486D01*
X50780Y-9499D01*
X50778Y-9511D01*
Y-9515D01*
Y-9518D01*
Y-9520D01*
Y-9521D01*
X50779Y-9537D01*
X50780Y-9550D01*
X50786Y-9576D01*
X50795Y-9598D01*
X50804Y-9617D01*
X50813Y-9631D01*
X50822Y-9642D01*
X50825Y-9645D01*
X50828Y-9648D01*
X50829Y-9649D01*
X50830Y-9650D01*
X50841Y-9658D01*
X50853Y-9665D01*
X50866Y-9671D01*
X50879Y-9676D01*
X50908Y-9685D01*
X50937Y-9690D01*
X50951Y-9692D01*
X50964Y-9694D01*
X50976Y-9695D01*
X50986D01*
X50995Y-9696D01*
X51254D01*
Y-9352D01*
D02*
G37*
G36*
X49037Y-9339D02*
X49027Y-9370D01*
X49016Y-9403D01*
X49005Y-9437D01*
X48994Y-9469D01*
X48989Y-9484D01*
X48984Y-9497D01*
X48980Y-9510D01*
X48975Y-9519D01*
X48972Y-9528D01*
X48970Y-9535D01*
X48968Y-9539D01*
Y-9540D01*
X48867Y-9806D01*
X49195D01*
X49089Y-9524D01*
X49077Y-9490D01*
X49067Y-9456D01*
X49058Y-9425D01*
X49053Y-9411D01*
X49050Y-9397D01*
X49047Y-9385D01*
X49044Y-9373D01*
X49042Y-9364D01*
X49040Y-9354D01*
X49039Y-9348D01*
X49038Y-9343D01*
X49037Y-9340D01*
Y-9339D01*
D02*
G37*
G36*
X53128Y-9331D02*
X53105D01*
X53087Y-9334D01*
X53055Y-9339D01*
X53025Y-9347D01*
X53013Y-9351D01*
X53000Y-9355D01*
X52989Y-9361D01*
X52980Y-9365D01*
X52971Y-9369D01*
X52964Y-9373D01*
X52958Y-9376D01*
X52954Y-9378D01*
X52951Y-9379D01*
X52950Y-9380D01*
X52923Y-9400D01*
X52900Y-9422D01*
X52881Y-9444D01*
X52864Y-9466D01*
X52851Y-9486D01*
X52846Y-9494D01*
X52842Y-9501D01*
X52839Y-9507D01*
X52837Y-9512D01*
X52835Y-9515D01*
Y-9516D01*
X52821Y-9550D01*
X52811Y-9585D01*
X52804Y-9619D01*
X52799Y-9651D01*
X52797Y-9666D01*
X52796Y-9679D01*
X52795Y-9691D01*
Y-9701D01*
X52794Y-9710D01*
Y-9716D01*
Y-9720D01*
Y-9721D01*
X52795Y-9754D01*
X52798Y-9787D01*
X52803Y-9816D01*
X52809Y-9844D01*
X52816Y-9870D01*
X52823Y-9893D01*
X52833Y-9915D01*
X52841Y-9933D01*
X52849Y-9951D01*
X52858Y-9966D01*
X52866Y-9978D01*
X52873Y-9989D01*
X52880Y-9997D01*
X52884Y-10002D01*
X52887Y-10006D01*
X52888Y-10007D01*
X52906Y-10025D01*
X52924Y-10041D01*
X52944Y-10053D01*
X52964Y-10065D01*
X52984Y-10075D01*
X53004Y-10083D01*
X53022Y-10090D01*
X53041Y-10095D01*
X53058Y-10099D01*
X53074Y-10102D01*
X53088Y-10104D01*
X53100Y-10105D01*
X53111Y-10106D01*
X53118Y-10107D01*
X53124D01*
X53150Y-10106D01*
X53174Y-10103D01*
X53198Y-10098D01*
X53220Y-10092D01*
X53241Y-10084D01*
X53260Y-10076D01*
X53278Y-10067D01*
X53294Y-10057D01*
X53309Y-10049D01*
X53321Y-10040D01*
X53333Y-10031D01*
X53342Y-10024D01*
X53349Y-10018D01*
X53354Y-10013D01*
X53358Y-10009D01*
X53359Y-10008D01*
X53375Y-9989D01*
X53389Y-9968D01*
X53401Y-9946D01*
X53412Y-9923D01*
X53421Y-9900D01*
X53428Y-9878D01*
X53435Y-9855D01*
X53440Y-9833D01*
X53444Y-9814D01*
X53446Y-9795D01*
X53448Y-9778D01*
X53450Y-9764D01*
Y-9751D01*
X53451Y-9742D01*
Y-9737D01*
Y-9734D01*
X53450Y-9695D01*
X53447Y-9658D01*
X53442Y-9625D01*
X53436Y-9595D01*
X53428Y-9567D01*
X53421Y-9542D01*
X53412Y-9519D01*
X53402Y-9498D01*
X53394Y-9481D01*
X53385Y-9466D01*
X53377Y-9453D01*
X53369Y-9443D01*
X53364Y-9436D01*
X53359Y-9429D01*
X53356Y-9426D01*
X53354Y-9425D01*
X53336Y-9409D01*
X53316Y-9394D01*
X53296Y-9381D01*
X53276Y-9371D01*
X53258Y-9362D01*
X53238Y-9354D01*
X53219Y-9348D01*
X53201Y-9343D01*
X53185Y-9340D01*
X53170Y-9337D01*
X53157Y-9335D01*
X53145Y-9333D01*
X53135D01*
X53128Y-9331D01*
D02*
G37*
G36*
X50789Y-10659D02*
X50782D01*
X50769Y-10660D01*
X50755Y-10661D01*
X50742Y-10664D01*
X50730Y-10668D01*
X50707Y-10677D01*
X50688Y-10689D01*
X50673Y-10700D01*
X50667Y-10705D01*
X50661Y-10710D01*
X50657Y-10714D01*
X50654Y-10716D01*
X50653Y-10718D01*
X50652Y-10719D01*
X50643Y-10730D01*
X50634Y-10743D01*
X50627Y-10755D01*
X50621Y-10769D01*
X50611Y-10796D01*
X50604Y-10821D01*
X50602Y-10834D01*
X50601Y-10844D01*
X50600Y-10854D01*
X50599Y-10863D01*
X50598Y-10870D01*
Y-10875D01*
Y-10878D01*
Y-10879D01*
X50599Y-10898D01*
X50600Y-10916D01*
X50603Y-10931D01*
X50606Y-10947D01*
X50610Y-10962D01*
X50615Y-10974D01*
X50620Y-10987D01*
X50624Y-10997D01*
X50629Y-11006D01*
X50634Y-11015D01*
X50638Y-11022D01*
X50643Y-11028D01*
X50646Y-11032D01*
X50649Y-11036D01*
X50650Y-11038D01*
X50651Y-11039D01*
X50661Y-11048D01*
X50672Y-11057D01*
X50683Y-11065D01*
X50695Y-11071D01*
X50717Y-11081D01*
X50738Y-11088D01*
X50757Y-11092D01*
X50764Y-11093D01*
X50772Y-11094D01*
X50777Y-11095D01*
X50785D01*
X50800Y-11094D01*
X50814Y-11093D01*
X50842Y-11087D01*
X50864Y-11077D01*
X50885Y-11067D01*
X50894Y-11062D01*
X50901Y-11056D01*
X50907Y-11051D01*
X50912Y-11047D01*
X50918Y-11044D01*
X50921Y-11041D01*
X50922Y-11040D01*
X50923Y-11039D01*
X50932Y-11027D01*
X50940Y-11016D01*
X50948Y-11003D01*
X50954Y-10991D01*
X50963Y-10967D01*
X50970Y-10943D01*
X50974Y-10922D01*
X50975Y-10913D01*
X50976Y-10905D01*
X50977Y-10898D01*
Y-10894D01*
Y-10891D01*
Y-10890D01*
X50976Y-10871D01*
X50975Y-10853D01*
X50968Y-10821D01*
X50963Y-10805D01*
X50959Y-10792D01*
X50954Y-10779D01*
X50948Y-10768D01*
X50943Y-10757D01*
X50937Y-10749D01*
X50933Y-10741D01*
X50929Y-10735D01*
X50925Y-10729D01*
X50922Y-10726D01*
X50921Y-10724D01*
X50920Y-10723D01*
X50908Y-10712D01*
X50897Y-10702D01*
X50885Y-10693D01*
X50874Y-10686D01*
X50862Y-10679D01*
X50851Y-10674D01*
X50829Y-10667D01*
X50810Y-10662D01*
X50802Y-10661D01*
X50796Y-10660D01*
X50789Y-10659D01*
D02*
G37*
G36*
X53407D02*
X53399D01*
X53384Y-10660D01*
X53370Y-10662D01*
X53355Y-10666D01*
X53343Y-10671D01*
X53319Y-10684D01*
X53299Y-10697D01*
X53291Y-10704D01*
X53284Y-10712D01*
X53277Y-10719D01*
X53271Y-10724D01*
X53267Y-10729D01*
X53264Y-10734D01*
X53263Y-10736D01*
X53262Y-10737D01*
X53251Y-10753D01*
X53243Y-10772D01*
X53236Y-10795D01*
X53229Y-10819D01*
X53224Y-10844D01*
X53219Y-10870D01*
X53213Y-10923D01*
X53210Y-10948D01*
X53209Y-10972D01*
X53208Y-10994D01*
X53207Y-11013D01*
X53206Y-11029D01*
Y-11036D01*
Y-11041D01*
Y-11045D01*
Y-11048D01*
Y-11050D01*
Y-11051D01*
X53207Y-11094D01*
X53208Y-11132D01*
X53211Y-11168D01*
X53214Y-11200D01*
X53218Y-11229D01*
X53223Y-11254D01*
X53228Y-11277D01*
X53234Y-11297D01*
X53239Y-11314D01*
X53244Y-11328D01*
X53248Y-11341D01*
X53253Y-11350D01*
X53257Y-11357D01*
X53260Y-11362D01*
X53261Y-11365D01*
X53262Y-11366D01*
X53272Y-11379D01*
X53284Y-11392D01*
X53295Y-11402D01*
X53307Y-11410D01*
X53318Y-11419D01*
X53329Y-11425D01*
X53340Y-11430D01*
X53350Y-11434D01*
X53369Y-11440D01*
X53377Y-11442D01*
X53385Y-11443D01*
X53390D01*
X53395Y-11444D01*
X53398D01*
X53413Y-11443D01*
X53427Y-11441D01*
X53441Y-11436D01*
X53453Y-11431D01*
X53477Y-11420D01*
X53497Y-11405D01*
X53513Y-11391D01*
X53519Y-11384D01*
X53524Y-11379D01*
X53529Y-11374D01*
X53533Y-11370D01*
X53534Y-11368D01*
X53535Y-11367D01*
X53544Y-11350D01*
X53552Y-11330D01*
X53561Y-11308D01*
X53567Y-11284D01*
X53572Y-11258D01*
X53576Y-11232D01*
X53583Y-11179D01*
X53586Y-11154D01*
X53587Y-11130D01*
X53588Y-11108D01*
X53589Y-11090D01*
X53590Y-11074D01*
Y-11067D01*
Y-11062D01*
Y-11057D01*
Y-11054D01*
Y-11052D01*
Y-11051D01*
X53589Y-11008D01*
X53587Y-10970D01*
X53585Y-10933D01*
X53580Y-10901D01*
X53576Y-10872D01*
X53571Y-10845D01*
X53565Y-10822D01*
X53560Y-10801D01*
X53554Y-10782D01*
X53548Y-10768D01*
X53543Y-10755D01*
X53539Y-10745D01*
X53535Y-10737D01*
X53531Y-10731D01*
X53530Y-10728D01*
X53529Y-10727D01*
X53520Y-10715D01*
X53510Y-10704D01*
X53499Y-10695D01*
X53489Y-10688D01*
X53477Y-10680D01*
X53467Y-10675D01*
X53446Y-10667D01*
X53427Y-10662D01*
X53419Y-10661D01*
X53413Y-10660D01*
X53407Y-10659D01*
D02*
G37*
G36*
X52660D02*
X52653D01*
X52637Y-10660D01*
X52623Y-10662D01*
X52609Y-10666D01*
X52596Y-10671D01*
X52572Y-10684D01*
X52553Y-10697D01*
X52544Y-10704D01*
X52537Y-10712D01*
X52531Y-10719D01*
X52524Y-10724D01*
X52520Y-10729D01*
X52517Y-10734D01*
X52516Y-10736D01*
X52515Y-10737D01*
X52505Y-10753D01*
X52496Y-10772D01*
X52489Y-10795D01*
X52483Y-10819D01*
X52478Y-10844D01*
X52472Y-10870D01*
X52466Y-10923D01*
X52463Y-10948D01*
X52462Y-10972D01*
X52461Y-10994D01*
X52460Y-11013D01*
X52459Y-11029D01*
Y-11036D01*
Y-11041D01*
Y-11045D01*
Y-11048D01*
Y-11050D01*
Y-11051D01*
X52460Y-11094D01*
X52461Y-11132D01*
X52464Y-11168D01*
X52467Y-11200D01*
X52471Y-11229D01*
X52477Y-11254D01*
X52482Y-11277D01*
X52487Y-11297D01*
X52492Y-11314D01*
X52497Y-11328D01*
X52502Y-11341D01*
X52507Y-11350D01*
X52510Y-11357D01*
X52513Y-11362D01*
X52514Y-11365D01*
X52515Y-11366D01*
X52526Y-11379D01*
X52537Y-11392D01*
X52548Y-11402D01*
X52560Y-11410D01*
X52571Y-11419D01*
X52583Y-11425D01*
X52593Y-11430D01*
X52604Y-11434D01*
X52622Y-11440D01*
X52631Y-11442D01*
X52638Y-11443D01*
X52643D01*
X52648Y-11444D01*
X52652D01*
X52666Y-11443D01*
X52681Y-11441D01*
X52694Y-11436D01*
X52707Y-11431D01*
X52731Y-11420D01*
X52750Y-11405D01*
X52766Y-11391D01*
X52772Y-11384D01*
X52778Y-11379D01*
X52783Y-11374D01*
X52786Y-11370D01*
X52787Y-11368D01*
X52788Y-11367D01*
X52797Y-11350D01*
X52806Y-11330D01*
X52814Y-11308D01*
X52820Y-11284D01*
X52825Y-11258D01*
X52830Y-11232D01*
X52836Y-11179D01*
X52839Y-11154D01*
X52840Y-11130D01*
X52841Y-11108D01*
X52842Y-11090D01*
X52843Y-11074D01*
Y-11067D01*
Y-11062D01*
Y-11057D01*
Y-11054D01*
Y-11052D01*
Y-11051D01*
X52842Y-11008D01*
X52840Y-10970D01*
X52838Y-10933D01*
X52834Y-10901D01*
X52830Y-10872D01*
X52824Y-10845D01*
X52818Y-10822D01*
X52813Y-10801D01*
X52808Y-10782D01*
X52801Y-10768D01*
X52796Y-10755D01*
X52792Y-10745D01*
X52788Y-10737D01*
X52785Y-10731D01*
X52784Y-10728D01*
X52783Y-10727D01*
X52773Y-10715D01*
X52763Y-10704D01*
X52753Y-10695D01*
X52742Y-10688D01*
X52731Y-10680D01*
X52720Y-10675D01*
X52699Y-10667D01*
X52681Y-10662D01*
X52672Y-10661D01*
X52666Y-10660D01*
X52660Y-10659D01*
D02*
G37*
G36*
X17554Y-9849D02*
X16945D01*
X16907Y-9850D01*
X16867Y-9852D01*
X16825Y-9854D01*
X16787Y-9857D01*
X16770Y-9859D01*
X16756Y-9861D01*
X16750D01*
X16744Y-9863D01*
X16737Y-9864D01*
X16726Y-9866D01*
X16714Y-9868D01*
X16686Y-9875D01*
X16655Y-9883D01*
X16622Y-9896D01*
X16587Y-9909D01*
X16556Y-9927D01*
X16554D01*
X16553Y-9929D01*
X16542Y-9936D01*
X16528Y-9946D01*
X16509Y-9962D01*
X16490Y-9981D01*
X16469Y-10001D01*
X16449Y-10027D01*
X16431Y-10057D01*
Y-10059D01*
X16430Y-10060D01*
X16424Y-10071D01*
X16417Y-10088D01*
X16409Y-10111D01*
X16402Y-10137D01*
X16395Y-10168D01*
X16390Y-10201D01*
X16388Y-10237D01*
Y-9849D01*
Y-10250D01*
X16390Y-10260D01*
Y-10272D01*
X16391Y-10284D01*
X16397Y-10317D01*
X16405Y-10354D01*
X16419Y-10392D01*
X16438Y-10432D01*
X16449Y-10451D01*
X16463Y-10470D01*
Y-10472D01*
X16466Y-10473D01*
X16471Y-10479D01*
X16476Y-10485D01*
X16485Y-10494D01*
X16494Y-10503D01*
X16506Y-10513D01*
X16520Y-10525D01*
X16534Y-10536D01*
X16551Y-10548D01*
X16570Y-10560D01*
X16591Y-10572D01*
X16613Y-10584D01*
X16638Y-10596D01*
X16664Y-10607D01*
X16692Y-10617D01*
X16690D01*
X16686Y-10619D01*
X16679Y-10621D01*
X16671Y-10624D01*
X16660Y-10628D01*
X16648Y-10633D01*
X16620Y-10645D01*
X16591Y-10661D01*
X16558Y-10681D01*
X16527Y-10707D01*
X16499Y-10737D01*
Y-10739D01*
X16495Y-10740D01*
X16492Y-10746D01*
X16489Y-10753D01*
X16476Y-10770D01*
X16464Y-10794D01*
X16452Y-10824D01*
X16440Y-10857D01*
X16433Y-10893D01*
X16430Y-10933D01*
Y-10935D01*
Y-10940D01*
Y-10947D01*
X16431Y-10957D01*
Y-10971D01*
X16433Y-10987D01*
X16436Y-11002D01*
X16440Y-11021D01*
X16450Y-11065D01*
X16464Y-11110D01*
X16485Y-11160D01*
X16499Y-11185D01*
X16513Y-11209D01*
X16515Y-11211D01*
X16516Y-11214D01*
X16521Y-11221D01*
X16528Y-11230D01*
X16535Y-11240D01*
X16546Y-11252D01*
X16558Y-11266D01*
X16572Y-11280D01*
X16603Y-11311D01*
X16643Y-11341D01*
X16688Y-11370D01*
X16738Y-11394D01*
X16740D01*
X16745Y-11396D01*
X16754Y-11400D01*
X16764Y-11403D01*
X16780Y-11407D01*
X16797Y-11412D01*
X16818Y-11417D01*
X16841Y-11422D01*
X16868Y-11427D01*
X16898Y-11433D01*
X16931Y-11438D01*
X16966Y-11441D01*
X17004Y-11445D01*
X17044Y-11448D01*
X17087Y-11450D01*
X16388D01*
X17887D01*
X17554Y-9849D01*
D02*
G37*
G36*
X13078Y-9842D02*
X13057D01*
X13041Y-9844D01*
X13022Y-9845D01*
X13000Y-9849D01*
X12976Y-9852D01*
X12950Y-9857D01*
X12922Y-9863D01*
X12894Y-9871D01*
X12865Y-9882D01*
X12835Y-9892D01*
X12806Y-9908D01*
X12778Y-9923D01*
X12750Y-9942D01*
X12726Y-9963D01*
X12724Y-9965D01*
X12721Y-9968D01*
X12714Y-9975D01*
X12705Y-9986D01*
X12696Y-9996D01*
X12686Y-10012D01*
X12674Y-10027D01*
X12662Y-10047D01*
X12649Y-10069D01*
X12637Y-10092D01*
X12627Y-10118D01*
X12618Y-10145D01*
X12609Y-10173D01*
X12603Y-10204D01*
X12599Y-10237D01*
X12597Y-10272D01*
Y-11450D01*
X13739D01*
Y-11445D01*
D01*
X13737Y-11438D01*
X13735Y-11431D01*
X13734Y-11421D01*
X13732Y-11408D01*
X13725Y-11379D01*
X13716Y-11344D01*
X13704Y-11308D01*
X13690Y-11268D01*
X13671Y-11228D01*
Y-11226D01*
X13669Y-11223D01*
X13666Y-11218D01*
X13661Y-11209D01*
X13656Y-11200D01*
X13649Y-11190D01*
X13633Y-11162D01*
X13614Y-11133D01*
X13591Y-11098D01*
X13565Y-11063D01*
X13536Y-11028D01*
X13534Y-11027D01*
X13532Y-11023D01*
X13527Y-11018D01*
X13520Y-11011D01*
X13510Y-11001D01*
X13499Y-10989D01*
X13486Y-10975D01*
X13468Y-10957D01*
X13449Y-10938D01*
X13428Y-10916D01*
X13404Y-10891D01*
X13376Y-10864D01*
X13347Y-10836D01*
X13316Y-10803D01*
X13279Y-10768D01*
X13241Y-10732D01*
X13239Y-10730D01*
X13234Y-10725D01*
X13225Y-10718D01*
X13215Y-10707D01*
X13203Y-10695D01*
X13187Y-10680D01*
X13154Y-10649D01*
X13120Y-10616D01*
X13087Y-10581D01*
X13071Y-10567D01*
X13057Y-10553D01*
X13045Y-10541D01*
X13036Y-10531D01*
X13035Y-10529D01*
X13033Y-10527D01*
X13024Y-10517D01*
X13010Y-10501D01*
X12995Y-10480D01*
X12977Y-10458D01*
X12960Y-10432D01*
X12944Y-10407D01*
X12932Y-10383D01*
X12930Y-10380D01*
X12927Y-10373D01*
X12923Y-10361D01*
X12917Y-10345D01*
X12911Y-10328D01*
X12908Y-10308D01*
X12904Y-10289D01*
X12903Y-10270D01*
Y-10269D01*
Y-10267D01*
Y-10256D01*
X12904Y-10243D01*
X12908Y-10223D01*
X12915Y-10203D01*
X12923Y-10180D01*
X12936Y-10159D01*
X12951Y-10138D01*
X12953Y-10137D01*
X12960Y-10130D01*
X12970Y-10123D01*
X12984Y-10112D01*
X13002Y-10104D01*
X13021Y-10095D01*
X13045Y-10090D01*
X13071Y-10088D01*
X13083D01*
X13097Y-10092D01*
X13114Y-10095D01*
X13135Y-10102D01*
X13158Y-10112D01*
X13180Y-10126D01*
X13201Y-10145D01*
X13203Y-10149D01*
X13210Y-10156D01*
X13220Y-10171D01*
X13232Y-10192D01*
X13239Y-10204D01*
X13246Y-10220D01*
X13253Y-10236D01*
X13260Y-10255D01*
X13267Y-10276D01*
X13272Y-10298D01*
X13279Y-10322D01*
X13284Y-10348D01*
X13590Y-10303D01*
Y-10302D01*
X13588Y-10293D01*
X13586Y-10282D01*
X13581Y-10267D01*
X13578Y-10248D01*
X13571Y-10227D01*
X13564Y-10203D01*
X13555Y-10177D01*
X13545Y-10149D01*
X13532Y-10121D01*
X13517Y-10093D01*
X13501Y-10064D01*
X13484Y-10036D01*
X13465Y-10010D01*
X13442Y-9984D01*
X13418Y-9962D01*
X13416Y-9960D01*
X13411Y-9956D01*
X13404Y-9951D01*
X13394Y-9942D01*
X13380Y-9934D01*
X13364Y-9923D01*
X13345Y-9913D01*
X13324Y-9901D01*
X13300Y-9890D01*
X13274Y-9880D01*
X13246Y-9870D01*
X13217Y-9861D01*
X13185Y-9852D01*
X13151Y-9847D01*
X13114Y-9844D01*
X13078Y-9842D01*
D02*
G37*
G36*
X11798Y-9842D02*
X11789D01*
X11778Y-9844D01*
X11765D01*
X11749Y-9845D01*
X11730Y-9849D01*
X11707Y-9854D01*
X11685Y-9859D01*
X11661Y-9868D01*
X11635Y-9877D01*
X11608Y-9889D01*
X11581Y-9903D01*
X11555Y-9918D01*
X11529Y-9937D01*
X11503Y-9960D01*
X11478Y-9984D01*
X11477Y-9986D01*
X11473Y-9991D01*
X11466Y-9998D01*
X11459Y-10010D01*
X11449Y-10024D01*
X11438Y-10043D01*
X11426Y-10064D01*
X11414Y-10088D01*
X11404Y-10116D01*
X11392Y-10145D01*
X11381Y-10180D01*
X11371Y-10217D01*
X11364Y-10256D01*
X11357Y-10298D01*
X11353Y-10345D01*
X11352Y-10393D01*
Y-10380D01*
Y-11479D01*
X12018D01*
X11352D01*
Y-10418D01*
X11353Y-10437D01*
X11355Y-10459D01*
X11357Y-10485D01*
X11359Y-10517D01*
X11364Y-10551D01*
X11367Y-10588D01*
X11374Y-10629D01*
X11381Y-10671D01*
X11390Y-10716D01*
X11400Y-10765D01*
X11412Y-10813D01*
X11428Y-10864D01*
X11444Y-10914D01*
X11445Y-10917D01*
X11447Y-10926D01*
X11452Y-10940D01*
X11461Y-10959D01*
X11470Y-10982D01*
X11480Y-11008D01*
X11494Y-11037D01*
X11510Y-11068D01*
X11525Y-11103D01*
X11544Y-11136D01*
X11565Y-11172D01*
X11588Y-11207D01*
X11610Y-11240D01*
X11636Y-11273D01*
X11664Y-11304D01*
X11692Y-11334D01*
X11693Y-11335D01*
X11699Y-11341D01*
X11707Y-11348D01*
X11720Y-11356D01*
X11733Y-11367D01*
X11751Y-11381D01*
X11772Y-11393D01*
X11792Y-11407D01*
X11818Y-11421D01*
X11844Y-11433D01*
X11874Y-11445D01*
X11903Y-11457D01*
X11936Y-11466D01*
X11969Y-11473D01*
X12004Y-11478D01*
X12040Y-11479D01*
X12488Y-11479D01*
X12049Y-11479D01*
X12060Y-11478D01*
X12073D01*
X12089Y-11474D01*
X12110Y-11473D01*
X12131Y-11467D01*
X12155Y-11462D01*
X12179Y-11455D01*
X12205Y-11445D01*
X12231Y-11434D01*
X12259Y-11421D01*
X12287Y-11405D01*
X12313Y-11386D01*
X12339Y-11363D01*
X12363Y-11339D01*
X12365Y-11337D01*
X12368Y-11332D01*
X12375Y-11323D01*
X12382Y-11313D01*
X12393Y-11297D01*
X12403Y-11280D01*
X12413Y-11259D01*
X12426Y-11235D01*
X12438Y-11209D01*
X12448Y-11178D01*
X12459Y-11145D01*
X12469Y-11108D01*
X12476Y-11068D01*
X12483Y-11025D01*
X12486Y-10980D01*
X12488Y-10931D01*
Y-10907D01*
X12486Y-10890D01*
Y-10867D01*
X12483Y-10841D01*
X12481Y-10812D01*
X12478Y-10779D01*
X12474Y-10744D01*
X12467Y-10706D01*
X12462Y-10664D01*
X12453Y-10622D01*
X12433Y-10532D01*
X12420Y-10487D01*
X12407Y-10440D01*
Y-10439D01*
X12405Y-10437D01*
X12401Y-10426D01*
X12396Y-10411D01*
X12387Y-10390D01*
X12379Y-10366D01*
X12367Y-10336D01*
X12353Y-10305D01*
X12337Y-10270D01*
X12318Y-10236D01*
X12299Y-10197D01*
X12256Y-10123D01*
X12231Y-10086D01*
X12204Y-10053D01*
X12178Y-10021D01*
X12148Y-9991D01*
X12146Y-9989D01*
X12141Y-9984D01*
X12132Y-9977D01*
X12120Y-9968D01*
X12105Y-9956D01*
X12087Y-9944D01*
X12068Y-9930D01*
X12046Y-9916D01*
X12020Y-9903D01*
X11994Y-9889D01*
X11964Y-9877D01*
X11933Y-9864D01*
X11902Y-9856D01*
X11869Y-9849D01*
X11834Y-9844D01*
X11798Y-9842D01*
D02*
G37*
G36*
X15413Y-9840D02*
X15224D01*
X15560Y-11450D01*
X15224D01*
X16096D01*
X15874D01*
X15644Y-10341D01*
X15645D01*
X15649Y-10345D01*
X15654Y-10348D01*
X15661Y-10352D01*
X15670Y-10357D01*
X15682Y-10364D01*
X15708Y-10380D01*
X15741Y-10399D01*
X15779Y-10418D01*
X15822Y-10437D01*
X15869Y-10458D01*
X15871D01*
X15874Y-10459D01*
X15881Y-10463D01*
X15890Y-10466D01*
X15902Y-10470D01*
X15914Y-10475D01*
X15946Y-10485D01*
X15980Y-10498D01*
X16018Y-10510D01*
X16058Y-10522D01*
X16096Y-10531D01*
X16037Y-10251D01*
X16036D01*
X16032Y-10250D01*
X16027Y-10246D01*
X16020Y-10243D01*
X16010Y-10239D01*
X15999Y-10234D01*
X15972Y-10220D01*
X15937Y-10203D01*
X15899Y-10184D01*
X15855Y-10159D01*
X15808Y-10133D01*
X15760Y-10106D01*
X15708Y-10074D01*
X15656Y-10040D01*
X15604Y-10003D01*
X15553Y-9965D01*
X15503Y-9925D01*
X15456Y-9883D01*
X15413Y-9840D01*
D02*
G37*
G36*
X19417Y-9849D02*
X18949D01*
X18898Y-10952D01*
X18395Y-9849D01*
X17923D01*
X18213Y-11450D01*
X17923D01*
D01*
X19752D01*
X19417Y-9849D01*
D02*
G37*
G36*
X14887Y-9871D02*
X13770D01*
X13817Y-10093D01*
X13819Y-10095D01*
X13822Y-10097D01*
X13827Y-10102D01*
X13834Y-10109D01*
X13845Y-10118D01*
X13855Y-10128D01*
X13869Y-10140D01*
X13883Y-10154D01*
X13898Y-10171D01*
X13916Y-10189D01*
X13935Y-10210D01*
X13954Y-10230D01*
X13975Y-10255D01*
X13996Y-10281D01*
X14018Y-10308D01*
X14041Y-10338D01*
X14042Y-10340D01*
X14046Y-10345D01*
X14053Y-10354D01*
X14062Y-10366D01*
X14072Y-10381D01*
X14084Y-10400D01*
X14098Y-10421D01*
X14114Y-10444D01*
X14131Y-10470D01*
X14148Y-10498D01*
X14167Y-10527D01*
X14186Y-10558D01*
X14226Y-10628D01*
X14266Y-10701D01*
X14268Y-10702D01*
X14271Y-10709D01*
X14277Y-10720D01*
X14284Y-10735D01*
X14292Y-10753D01*
X14303Y-10773D01*
X14313Y-10796D01*
X14325Y-10822D01*
X14339Y-10851D01*
X14353Y-10881D01*
X14381Y-10945D01*
X14408Y-11013D01*
X14435Y-11080D01*
X14436Y-11084D01*
X14438Y-11091D01*
X14443Y-11105D01*
X14448Y-11122D01*
X14455Y-11141D01*
X14464Y-11165D01*
X14473Y-11192D01*
X14481Y-11221D01*
X14500Y-11280D01*
X14520Y-11342D01*
X14528Y-11372D01*
X14535Y-11400D01*
X14540Y-11426D01*
X14546Y-11450D01*
X14844D01*
Y-11448D01*
X14842Y-11445D01*
Y-11438D01*
X14840Y-11427D01*
X14837Y-11415D01*
X14834Y-11401D01*
X14830Y-11384D01*
X14825Y-11363D01*
X14820Y-11341D01*
X14813Y-11316D01*
X14806Y-11290D01*
X14797Y-11261D01*
X14787Y-11228D01*
X14776Y-11195D01*
X14764Y-11159D01*
X14752Y-11120D01*
X14750Y-11117D01*
X14749Y-11108D01*
X14743Y-11094D01*
X14736Y-11077D01*
X14728Y-11053D01*
X14716Y-11027D01*
X14703Y-10995D01*
X14690Y-10963D01*
X14674Y-10926D01*
X14658Y-10886D01*
X14639Y-10845D01*
X14620Y-10803D01*
X14577Y-10714D01*
X14528Y-10624D01*
X14526Y-10621D01*
X14521Y-10614D01*
X14514Y-10600D01*
X14504Y-10583D01*
X14492Y-10562D01*
X14474Y-10536D01*
X14457Y-10508D01*
X14436Y-10475D01*
X14414Y-10442D01*
X14389Y-10406D01*
X14362Y-10367D01*
X14334Y-10328D01*
X14303Y-10286D01*
X14271Y-10244D01*
X14202Y-10161D01*
X14887D01*
X14828Y-9871D01*
X14887D01*
D02*
G37*
%LPD*%
G36*
X17358Y-10494D02*
X17066D01*
X17051Y-10492D01*
X17014Y-10491D01*
X16973Y-10489D01*
X16933Y-10484D01*
X16894Y-10479D01*
X16879Y-10475D01*
X16863Y-10472D01*
X16862D01*
X16860Y-10470D01*
X16851Y-10466D01*
X16837Y-10461D01*
X16822Y-10452D01*
X16803Y-10442D01*
X16785Y-10428D01*
X16768Y-10413D01*
X16752Y-10393D01*
X16750Y-10392D01*
X16747Y-10383D01*
X16740Y-10373D01*
X16733Y-10357D01*
X16726Y-10340D01*
X16719Y-10321D01*
X16716Y-10298D01*
X16714Y-10276D01*
Y-10272D01*
Y-10265D01*
X16716Y-10255D01*
X16719Y-10241D01*
X16723Y-10225D01*
X16730Y-10208D01*
X16738Y-10192D01*
X16750Y-10177D01*
X16752Y-10175D01*
X16757Y-10170D01*
X16764Y-10163D01*
X16777Y-10154D01*
X16790Y-10145D01*
X16806Y-10137D01*
X16827Y-10130D01*
X16849Y-10123D01*
X16851D01*
X16856Y-10121D01*
X16868D01*
X16884Y-10119D01*
X16894D01*
X16908Y-10118D01*
X16938D01*
X16955Y-10116D01*
X17280D01*
X17358Y-10494D01*
D02*
G37*
G36*
X17503Y-11192D02*
X17137D01*
X17120Y-11190D01*
X17099D01*
X17078Y-11188D01*
X17033Y-11186D01*
X16988Y-11181D01*
X16969Y-11178D01*
X16950Y-11176D01*
X16933Y-11171D01*
X16919Y-11167D01*
X16915Y-11165D01*
X16907Y-11162D01*
X16894Y-11155D01*
X16879Y-11146D01*
X16862Y-11134D01*
X16842Y-11120D01*
X16825Y-11103D01*
X16808Y-11082D01*
X16806Y-11079D01*
X16801Y-11072D01*
X16794Y-11060D01*
X16787Y-11044D01*
X16780Y-11025D01*
X16773Y-11004D01*
X16768Y-10982D01*
X16766Y-10957D01*
Y-10956D01*
Y-10954D01*
X16768Y-10943D01*
X16770Y-10930D01*
X16773Y-10910D01*
X16782Y-10890D01*
X16792Y-10867D01*
X16806Y-10846D01*
X16827Y-10825D01*
X16830Y-10824D01*
X16839Y-10817D01*
X16853Y-10808D01*
X16874Y-10799D01*
X16900Y-10789D01*
X16934Y-10782D01*
X16953Y-10779D01*
X16974Y-10775D01*
X16999Y-10773D01*
X17417D01*
X17503Y-11192D01*
D02*
G37*
G36*
X12599Y-10307D02*
X12603Y-10331D01*
X12608Y-10361D01*
X12615Y-10393D01*
X12623Y-10426D01*
X12637Y-10463D01*
Y-10465D01*
X12639Y-10466D01*
X12641Y-10472D01*
X12644Y-10479D01*
X12655Y-10499D01*
X12668Y-10524D01*
X12686Y-10553D01*
X12708Y-10588D01*
X12736Y-10624D01*
X12767Y-10662D01*
X12771Y-10666D01*
X12779Y-10676D01*
X12795Y-10694D01*
X12818Y-10716D01*
X12832Y-10732D01*
X12847Y-10747D01*
X12865Y-10765D01*
X12884Y-10784D01*
X12904Y-10803D01*
X12927Y-10825D01*
X12951Y-10850D01*
X12977Y-10874D01*
X12979Y-10876D01*
X12984Y-10879D01*
X12991Y-10886D01*
X13002Y-10897D01*
X13012Y-10907D01*
X13026Y-10919D01*
X13055Y-10949D01*
X13088Y-10978D01*
X13121Y-11009D01*
X13149Y-11037D01*
X13161Y-11049D01*
X13172Y-11060D01*
X13173Y-11061D01*
X13180Y-11068D01*
X13189Y-11079D01*
X13201Y-11091D01*
X13215Y-11106D01*
X13229Y-11124D01*
X13262Y-11164D01*
X12707D01*
X12766Y-11450D01*
X12597D01*
Y-10288D01*
X12599Y-10307D01*
D02*
G37*
G36*
X11824Y-10093D02*
X11839Y-10095D01*
X11860Y-10102D01*
X11883Y-10111D01*
X11907Y-10126D01*
X11933Y-10145D01*
X11947Y-10159D01*
X11959Y-10173D01*
X11961Y-10175D01*
X11962Y-10178D01*
X11968Y-10185D01*
X11975Y-10196D01*
X11983Y-10210D01*
X11992Y-10225D01*
X12004Y-10244D01*
X12014Y-10269D01*
X12028Y-10295D01*
X12040Y-10324D01*
X12054Y-10357D01*
X12068Y-10395D01*
X12082Y-10435D01*
X12096Y-10480D01*
X12110Y-10529D01*
X12124Y-10583D01*
Y-10586D01*
X12125Y-10593D01*
X12129Y-10607D01*
X12132Y-10624D01*
X12138Y-10647D01*
X12143Y-10671D01*
X12148Y-10699D01*
X12153Y-10728D01*
X12158Y-10761D01*
X12164Y-10794D01*
X12174Y-10864D01*
X12181Y-10931D01*
X12183Y-10964D01*
Y-10995D01*
Y-10997D01*
Y-11001D01*
Y-11008D01*
Y-11016D01*
X12181Y-11027D01*
Y-11039D01*
X12178Y-11067D01*
X12172Y-11098D01*
X12165Y-11127D01*
X12155Y-11155D01*
X12148Y-11167D01*
X12141Y-11178D01*
X12139Y-11179D01*
X12134Y-11186D01*
X12124Y-11193D01*
X12112Y-11204D01*
X12096Y-11212D01*
X12079Y-11221D01*
X12058Y-11228D01*
X12034Y-11230D01*
X12025D01*
X12018Y-11228D01*
X12002Y-11226D01*
X11981Y-11219D01*
X11957Y-11211D01*
X11929Y-11197D01*
X11903Y-11176D01*
X11890Y-11164D01*
X11877Y-11150D01*
X11876Y-11148D01*
X11874Y-11145D01*
X11869Y-11138D01*
X11862Y-11127D01*
X11853Y-11115D01*
X11844Y-11098D01*
X11834Y-11079D01*
X11822Y-11054D01*
X11810Y-11028D01*
X11798Y-10997D01*
X11784Y-10963D01*
X11770Y-10923D01*
X11756Y-10879D01*
X11742Y-10831D01*
X11728Y-10779D01*
X11714Y-10721D01*
Y-10718D01*
X11713Y-10711D01*
X11709Y-10697D01*
X11706Y-10680D01*
X11700Y-10657D01*
X11697Y-10633D01*
X11692Y-10605D01*
X11685Y-10576D01*
X11680Y-10544D01*
X11674Y-10511D01*
X11666Y-10444D01*
X11659Y-10380D01*
X11657Y-10348D01*
Y-10319D01*
Y-10317D01*
Y-10314D01*
Y-10307D01*
Y-10300D01*
X11659Y-10279D01*
X11662Y-10253D01*
X11667Y-10223D01*
X11676Y-10196D01*
X11687Y-10168D01*
X11700Y-10145D01*
X11702Y-10144D01*
X11707Y-10137D01*
X11718Y-10128D01*
X11730Y-10118D01*
X11746Y-10109D01*
X11765Y-10100D01*
X11785Y-10093D01*
X11810Y-10092D01*
X11813D01*
X11824Y-10093D01*
D02*
G37*
G36*
X19453Y-11450D02*
X19141D01*
X19200Y-10112D01*
X19453Y-11450D01*
D02*
G37*
G36*
X18829D02*
X18511D01*
X18236Y-10123D01*
X18829Y-11450D01*
D02*
G37*
%LPC*%
G36*
X24585Y-6399D02*
X24384D01*
X24585Y-6687D01*
Y-6399D01*
D02*
G37*
%LPD*%
D10*
X47555Y2160D02*
X47580D01*
X47529Y2287D02*
X47809D01*
X47555Y2313D02*
X47834D01*
X47580Y2389D02*
X47961D01*
X47631Y2465D02*
X48113D01*
X47732Y2643D02*
X48393D01*
X47834Y2821D02*
X48698D01*
X47859Y2846D02*
X48723D01*
X47910Y2973D02*
X48926D01*
X47986Y3100D02*
X49155D01*
X48063Y3227D02*
X49358D01*
X48037Y3202D02*
X49333D01*
X48037Y3176D02*
Y3202D01*
Y3176D02*
X49282D01*
X48012Y3151D02*
X49231D01*
X48012Y3125D02*
Y3151D01*
Y3125D02*
X49180D01*
X47961Y3075D02*
X49104D01*
X47961Y3049D02*
Y3075D01*
Y3049D02*
X49079D01*
X47936Y3024D02*
X49028D01*
X47936Y2998D02*
Y3024D01*
Y2998D02*
X49002D01*
X47885Y2948D02*
X48875D01*
X47885Y2922D02*
Y2948D01*
Y2922D02*
X48850D01*
X47859Y2897D02*
X48825D01*
X47859Y2871D02*
Y2897D01*
Y2871D02*
X48774D01*
X47809Y2795D02*
X48647D01*
X47809Y2770D02*
Y2795D01*
Y2770D02*
X48596D01*
X47783Y2744D02*
X48571D01*
X47783Y2719D02*
Y2744D01*
Y2719D02*
X48520D01*
X47758Y2694D02*
X48469D01*
X47758Y2668D02*
Y2694D01*
Y2668D02*
X48444D01*
X47707Y2617D02*
X48367D01*
X47707Y2592D02*
Y2617D01*
Y2592D02*
X48291D01*
X47682Y2567D02*
X48266D01*
X47682Y2541D02*
Y2567D01*
Y2541D02*
X48215D01*
X47656Y2516D02*
X48190D01*
X47656Y2490D02*
Y2516D01*
Y2490D02*
X48139D01*
X47605Y2440D02*
X48063D01*
X47605Y2414D02*
Y2440D01*
Y2414D02*
X48012D01*
X47580Y2363D02*
X47936D01*
X47580Y2338D02*
Y2363D01*
Y2338D02*
X47885D01*
X47504Y2262D02*
X47758D01*
X47504Y2236D02*
Y2262D01*
Y2236D02*
X47707D01*
X47504Y2211D02*
X47682D01*
X47504Y2186D02*
Y2211D01*
Y2186D02*
X47656D01*
X47859Y1601D02*
Y1627D01*
X48799Y4573D02*
X49206D01*
X48825Y4599D02*
X49180D01*
X48875Y4624D02*
X49104D01*
X48774Y4548D02*
X49231D01*
X48774Y4522D02*
Y4548D01*
Y4522D02*
X49256D01*
Y4497D02*
Y4522D01*
X48748Y4497D02*
X49256D01*
X48748Y4472D02*
Y4497D01*
Y4472D02*
X49282D01*
X48723Y4446D02*
X49307D01*
X48723Y4421D02*
Y4446D01*
Y4421D02*
X49333D01*
X48698Y4395D02*
X49358D01*
Y4370D02*
Y4395D01*
X48672Y4370D02*
X49358D01*
X48672Y4345D02*
Y4370D01*
X48571Y4141D02*
Y4167D01*
X48520Y4065D02*
Y4091D01*
X48494Y4014D02*
Y4040D01*
X48469Y3964D02*
Y3989D01*
X48418Y3887D02*
Y3913D01*
X48393Y3811D02*
Y3837D01*
X48342Y3735D02*
Y3760D01*
X48317Y3684D02*
Y3710D01*
X48291Y3633D02*
Y3659D01*
X48240Y3557D02*
Y3583D01*
X48215Y3506D02*
Y3532D01*
X48139Y3354D02*
Y3379D01*
X48113Y3303D02*
Y3329D01*
X49409Y2617D02*
X51238D01*
X49688Y2795D02*
X51136D01*
X49739Y2821D02*
X51111D01*
X49790Y2846D02*
X51085D01*
X49841Y2871D02*
X51060D01*
X49866Y2897D02*
X51034D01*
X49917Y2922D02*
X51009D01*
X49942Y2948D02*
X50984D01*
X49993Y2973D02*
X50958D01*
X50018Y2998D02*
X50933D01*
X50095Y3024D02*
X50907D01*
X50145Y3049D02*
X50857D01*
X50171Y3075D02*
X50831D01*
X50222Y3100D02*
X50806D01*
X50298Y3125D02*
X50730D01*
X50323Y3151D02*
X50704D01*
X50374Y3176D02*
X50653D01*
X49663Y2770D02*
X51161D01*
Y2744D02*
Y2770D01*
X49637Y2744D02*
X51161D01*
X49561Y2719D02*
X51187D01*
Y2694D02*
Y2719D01*
X49536Y2694D02*
X51187D01*
X49510Y2668D02*
X51212D01*
Y2643D02*
Y2668D01*
X49460Y2643D02*
X51212D01*
X51263Y2567D02*
Y2592D01*
X51288Y2516D02*
Y2541D01*
X51314Y2465D02*
Y2490D01*
X51339Y2414D02*
Y2440D01*
X51365Y2338D02*
Y2363D01*
X51390Y2287D02*
Y2313D01*
X49434Y4243D02*
Y4268D01*
X49460Y4192D02*
Y4218D01*
X49510Y4116D02*
Y4141D01*
X49561Y4040D02*
Y4065D01*
X49612Y3989D02*
Y4014D01*
X50018Y3659D02*
Y3684D01*
X51212Y3659D02*
Y3684D01*
Y3583D02*
Y3608D01*
X50323Y7240D02*
Y7266D01*
X50298Y7189D02*
Y7215D01*
X50272Y7139D02*
Y7164D01*
X50196Y6986D02*
Y7012D01*
X50171Y6935D02*
Y6961D01*
X50145Y6885D02*
Y6910D01*
X50120Y6834D02*
Y6859D01*
X50044Y6707D02*
Y6732D01*
X50018Y6656D02*
Y6681D01*
X49993Y6605D02*
Y6631D01*
X49942Y6504D02*
Y6529D01*
X49917Y6453D02*
Y6478D01*
X49891Y6402D02*
Y6427D01*
X49866Y6351D02*
Y6377D01*
X49841Y6300D02*
Y6326D01*
X49790Y6199D02*
Y6224D01*
X49764Y6148D02*
Y6173D01*
X49739Y6097D02*
Y6123D01*
X49688Y6021D02*
Y6046D01*
X49663Y5970D02*
Y5996D01*
Y5919D02*
Y5945D01*
X50501Y7570D02*
X51365D01*
X50577Y7672D02*
X51263D01*
X50603Y7697D02*
X51238D01*
X50628Y7723D02*
X51187D01*
X50653Y7748D02*
X51136D01*
X50679Y7774D02*
X51085D01*
X50704Y7799D02*
X51034D01*
X50730Y7824D02*
X50984D01*
X50552Y7647D02*
X51288D01*
X50552Y7621D02*
Y7647D01*
Y7621D02*
X51339D01*
Y7596D02*
Y7621D01*
X50526Y7596D02*
X51339D01*
X50476Y7545D02*
X51390D01*
X50476Y7520D02*
Y7545D01*
Y7520D02*
X51390D01*
X50450Y7469D02*
Y7494D01*
X50399Y7393D02*
Y7418D01*
X51847Y2846D02*
X52330D01*
X51593Y3227D02*
X52381D01*
X51619Y3202D02*
X52381D01*
Y3176D02*
Y3202D01*
X51644Y3176D02*
X52381D01*
X52863D02*
Y3202D01*
X51669Y3151D02*
X52381D01*
Y3125D02*
Y3151D01*
X51695Y3125D02*
X52381D01*
X51720Y3100D02*
X52381D01*
Y3075D02*
Y3100D01*
X51746Y3075D02*
X52381D01*
X51746Y3049D02*
X52355D01*
Y3024D02*
Y3049D01*
X51771Y3024D02*
X52355D01*
X51771Y2998D02*
X52355D01*
X52838Y3075D02*
Y3100D01*
X51796Y2973D02*
X52355D01*
Y2948D02*
Y2973D01*
X51822Y2948D02*
X52355D01*
X51822Y2922D02*
X52355D01*
Y2897D02*
Y2922D01*
X51847Y2897D02*
X52355D01*
X51847Y2871D02*
X52355D01*
X52787Y2922D02*
Y2948D01*
X52762Y2846D02*
Y2871D01*
X51873Y2821D02*
X52330D01*
Y2795D02*
Y2821D01*
X51873Y2795D02*
X52330D01*
X51873Y2770D02*
X52330D01*
Y2744D02*
Y2770D01*
X51873Y2744D02*
X52330D01*
X51873Y2719D02*
X52304D01*
Y2694D02*
Y2719D01*
X51873Y2694D02*
X52304D01*
X52762Y2770D02*
Y2795D01*
X52736Y2719D02*
Y2744D01*
X51873Y2668D02*
X52304D01*
X51873Y2643D02*
X52304D01*
Y2617D02*
Y2643D01*
X51873Y2617D02*
X52304D01*
X51873Y2592D02*
X52304D01*
Y2567D02*
Y2592D01*
X51873Y2567D02*
X52304D01*
X51873Y2541D02*
X52330D01*
Y2516D02*
Y2541D01*
X51847Y2516D02*
X52330D01*
X51847Y2490D02*
X52330D01*
Y2465D02*
Y2490D01*
X51847Y2465D02*
X52330D01*
X51847Y2440D02*
X52330D01*
Y2414D02*
Y2440D01*
X51847Y2414D02*
X52330D01*
X52711Y2643D02*
Y2668D01*
X52685Y2567D02*
Y2592D01*
Y2516D02*
Y2541D01*
X52660Y2465D02*
Y2490D01*
X52635Y2389D02*
Y2414D01*
X51847Y2389D02*
X52330D01*
X51847Y2363D02*
X52330D01*
Y2338D02*
Y2363D01*
X51822Y2338D02*
X52330D01*
X51822Y2313D02*
X52330D01*
Y2287D02*
Y2313D01*
X51822Y2287D02*
X52330D01*
X52609Y2338D02*
Y2363D01*
Y2287D02*
Y2313D01*
X51796Y2262D02*
X52355D01*
Y2236D02*
Y2262D01*
X51796Y2236D02*
X52355D01*
X51796Y2211D02*
X52355D01*
Y2186D02*
Y2211D01*
X51771Y2186D02*
X52355D01*
X51771Y2160D02*
X52381D01*
Y2135D02*
Y2160D01*
X51746Y2135D02*
X52381D01*
X52584Y2236D02*
Y2262D01*
Y2186D02*
Y2211D01*
X51746Y3049D02*
Y3075D01*
X51771Y2998D02*
Y3024D01*
X51822Y2922D02*
Y2948D01*
X51847Y2871D02*
Y2897D01*
X51873Y2770D02*
Y2795D01*
Y2719D02*
Y2744D01*
Y2643D02*
Y2668D01*
Y2592D02*
Y2617D01*
Y2541D02*
Y2567D01*
X51847Y2490D02*
Y2516D01*
Y2440D02*
Y2465D01*
Y2363D02*
Y2389D01*
X51822Y2313D02*
Y2338D01*
X51796Y2211D02*
Y2236D01*
X51771Y2160D02*
Y2186D01*
X51441Y2211D02*
Y2236D01*
X51466Y2160D02*
Y2186D01*
X51898Y4116D02*
X52076D01*
X51466Y3837D02*
X52330D01*
X51492Y3862D02*
X52304D01*
X51517Y3887D02*
X52279D01*
X51568Y3913D02*
X52254D01*
X51644Y3938D02*
X52228D01*
X51669Y3964D02*
X52203D01*
X51771Y4040D02*
X52152D01*
X51822Y4065D02*
X52127D01*
X51847Y4091D02*
X52101D01*
X52762Y4522D02*
X53117D01*
X52812Y4726D02*
X52990D01*
X52838Y4751D02*
X52965D01*
X52381Y5081D02*
X52457D01*
X52330Y5107D02*
X52533D01*
X52304Y5132D02*
X52584D01*
X52279Y5157D02*
X52660D01*
X52254Y5183D02*
X52711D01*
X52177Y5259D02*
X52711D01*
X52203Y5234D02*
X52711D01*
Y5208D02*
Y5234D01*
X52228Y5208D02*
X52711D01*
X52787Y4700D02*
X53016D01*
X52787Y4675D02*
Y4700D01*
Y4675D02*
X53041D01*
X52762Y4649D02*
X53066D01*
X52762Y4624D02*
Y4649D01*
Y4624D02*
X53066D01*
Y4599D02*
Y4624D01*
X52762Y4599D02*
X53066D01*
X52762Y4573D02*
X53092D01*
X52762Y4548D02*
Y4573D01*
Y4548D02*
X53092D01*
X52787Y4497D02*
X53143D01*
Y4472D02*
Y4497D01*
X52787Y4472D02*
X53143D01*
X52787Y4446D02*
Y4472D01*
Y4446D02*
X53168D01*
Y4421D02*
Y4446D01*
X52787Y4421D02*
X53168D01*
X52812Y4395D02*
X53193D01*
Y4370D02*
Y4395D01*
X52812Y4370D02*
X53193D01*
X52812Y4345D02*
Y4370D01*
Y4345D02*
X53219D01*
X52838Y4319D02*
X53244D01*
Y4294D02*
Y4319D01*
X52838Y4294D02*
X53244D01*
X52838Y4268D02*
Y4294D01*
Y4268D02*
X53270D01*
Y4243D02*
Y4268D01*
X52863Y4243D02*
X53270D01*
X52863Y4218D02*
Y4243D01*
Y4218D02*
X53270D01*
X52863Y4192D02*
X53295D01*
X52863Y4167D02*
Y4192D01*
Y4167D02*
X53320D01*
Y4141D02*
Y4167D01*
X52863Y4141D02*
X53320D01*
X52863Y4116D02*
Y4141D01*
Y4116D02*
X53346D01*
Y4091D02*
Y4116D01*
X52889Y4091D02*
X53346D01*
X52889Y4065D02*
Y4091D01*
Y4065D02*
X53371D01*
Y4040D02*
Y4065D01*
X52889Y4040D02*
X53371D01*
X51746Y4014D02*
X52177D01*
Y3989D02*
Y4014D01*
X51695Y3989D02*
X52177D01*
X52889Y4014D02*
X53397D01*
X52889Y3989D02*
Y4014D01*
Y3989D02*
X53422D01*
Y3964D02*
Y3989D01*
X52889Y3964D02*
X53422D01*
X52914Y3887D02*
Y3913D01*
X52939Y3811D02*
Y3837D01*
X52355Y3786D02*
Y3811D01*
X52381Y3735D02*
Y3760D01*
X52965Y3735D02*
Y3760D01*
Y3684D02*
Y3710D01*
Y3633D02*
Y3659D01*
X52381Y3608D02*
Y3633D01*
X52355Y3557D02*
Y3583D01*
X52939Y3532D02*
Y3557D01*
Y3481D02*
Y3506D01*
X52355D02*
Y3532D01*
X51568Y3278D02*
X52381D01*
X52914Y3430D02*
Y3456D01*
Y3379D02*
Y3405D01*
X52355Y3456D02*
Y3481D01*
Y3405D02*
Y3430D01*
X51441Y3379D02*
X52355D01*
Y3354D02*
Y3379D01*
X51466Y3354D02*
X52355D01*
X52889Y3329D02*
Y3354D01*
X51517Y3329D02*
X52381D01*
Y3303D02*
Y3329D01*
X51542Y3303D02*
X52381D01*
X52076Y6326D02*
Y6351D01*
X52127Y5310D02*
X52685D01*
X52127Y6250D02*
Y6275D01*
X52177Y6173D02*
Y6199D01*
X52203Y6123D02*
Y6148D01*
X52228Y6072D02*
Y6097D01*
X52279Y5996D02*
Y6021D01*
X52304Y5945D02*
Y5970D01*
X52355Y5869D02*
Y5894D01*
X52381Y5818D02*
Y5843D01*
X52406Y5767D02*
Y5792D01*
X52457Y5691D02*
Y5716D01*
X52533Y5564D02*
Y5589D01*
X52558Y5513D02*
Y5538D01*
X52584Y5462D02*
Y5488D01*
X52000Y5411D02*
X52635D01*
Y5386D02*
Y5411D01*
X52025Y5386D02*
X52635D01*
X52050Y5361D02*
X52660D01*
Y5335D02*
Y5361D01*
X52101Y5335D02*
X52660D01*
X51542Y7266D02*
Y7291D01*
X51568Y7215D02*
Y7240D01*
X51644Y7088D02*
Y7113D01*
X51669Y7037D02*
Y7062D01*
X51720Y6961D02*
Y6986D01*
X51746Y6910D02*
Y6935D01*
X51771Y6859D02*
Y6885D01*
X51822Y6783D02*
Y6808D01*
X51847Y6732D02*
Y6758D01*
X51949Y6554D02*
Y6580D01*
X52000Y6478D02*
Y6504D01*
X52025Y6427D02*
Y6453D01*
X51441Y7443D02*
Y7469D01*
X51492Y7342D02*
Y7367D01*
X54336Y2287D02*
Y2313D01*
X53498Y3837D02*
Y3862D01*
X53524Y3786D02*
Y3811D01*
X53600Y3659D02*
Y3684D01*
X53625Y3583D02*
Y3608D01*
X53676Y3506D02*
Y3532D01*
X53701Y3456D02*
Y3481D01*
X53727Y3405D02*
Y3430D01*
X48063Y3227D02*
Y3252D01*
X50349Y7291D02*
Y7316D01*
X52863Y3227D02*
Y3252D01*
X51593D02*
X52381D01*
Y3227D02*
Y3252D01*
X52152Y5284D02*
X52711D01*
Y5259D02*
Y5284D01*
X53803Y3252D02*
Y3278D01*
X48545Y2084D02*
X51542D01*
X48596Y2109D02*
X51517D01*
X48647Y2135D02*
X51492D01*
X48825Y2262D02*
X51415D01*
X49028Y2389D02*
X51339D01*
X49383Y2592D02*
X51263D01*
X49333Y2567D02*
X51263D01*
X49282Y2541D02*
X51288D01*
X49256Y2516D02*
X51288D01*
X49231Y2490D02*
X51314D01*
X49180Y2465D02*
X51314D01*
X49129Y2440D02*
X51339D01*
X49104Y2414D02*
X51339D01*
X49002Y2363D02*
X51365D01*
X48977Y2338D02*
X51365D01*
X48926Y2313D02*
X51390D01*
X48875Y2287D02*
X51390D01*
X48799Y2236D02*
X51441D01*
X48748Y2211D02*
X51441D01*
X48723Y2186D02*
X51466D01*
X48672Y2160D02*
X51466D01*
X51238Y3710D02*
X52381D01*
X51415Y3811D02*
X52355D01*
X51365Y3786D02*
X52355D01*
X51339Y3760D02*
X52381D01*
X51288Y3735D02*
X52381D01*
X51212Y3684D02*
X52406D01*
X51212Y3659D02*
X52406D01*
X51212Y3633D02*
X52381D01*
X51212Y3608D02*
X52381D01*
X51212Y3583D02*
X52355D01*
X51238Y3557D02*
X52355D01*
X51263Y3532D02*
X52355D01*
X51314Y3506D02*
X52355D01*
X48266Y3608D02*
X49968D01*
X48367Y3786D02*
X49891D01*
X48418Y3862D02*
X49764D01*
X48444Y3938D02*
X49663D01*
X48647Y4294D02*
X49409D01*
X48672Y4345D02*
X49383D01*
Y4319D02*
Y4345D01*
X48672Y4319D02*
X49383D01*
X48621Y4268D02*
X49434D01*
X48621Y4243D02*
X49434D01*
X48596Y4218D02*
X49460D01*
X48596Y4192D02*
X49460D01*
X48571Y4167D02*
X49485D01*
X48571Y4141D02*
X49510D01*
X48545Y4116D02*
X49510D01*
X48520Y4091D02*
X49536D01*
X48520Y4065D02*
X49561D01*
X48494Y4040D02*
X49561D01*
X48494Y4014D02*
X49612D01*
X48469Y3989D02*
X49612D01*
X48469Y3964D02*
X49637D01*
X48418Y3913D02*
X49714D01*
X48418Y3887D02*
X49739D01*
X48393Y3837D02*
X49815D01*
X48393Y3811D02*
X49866D01*
X48342Y3760D02*
X49917D01*
X48342Y3735D02*
X49968D01*
X48317Y3710D02*
X49993D01*
X48317Y3684D02*
X50018D01*
X48291Y3659D02*
X50018D01*
X48291Y3633D02*
X49993D01*
X48240Y3583D02*
X49942D01*
X48240Y3557D02*
X49917D01*
X48215Y3532D02*
X49866D01*
X48215Y3506D02*
X49815D01*
X51339Y3481D02*
X52355D01*
X51365Y3456D02*
X52355D01*
X51390Y3430D02*
X52355D01*
X51415Y3405D02*
X52355D01*
X48088Y3278D02*
X49460D01*
X48139Y3405D02*
X49663D01*
X48164Y3430D02*
X49714D01*
X48190Y3456D02*
X49739D01*
X48215Y3481D02*
X49764D01*
X48139Y3379D02*
X49637D01*
X48139Y3354D02*
X49587D01*
X48113Y3329D02*
X49536D01*
X48113Y3303D02*
X49485D01*
X49866Y6377D02*
X52076D01*
X49866Y6351D02*
X52076D01*
X49841Y6326D02*
X52076D01*
X49841Y6300D02*
X52101D01*
X49815Y6275D02*
X52127D01*
X49815Y6250D02*
X52127D01*
X49790Y6224D02*
X52152D01*
X49790Y6199D02*
X52177D01*
X49764Y6173D02*
X52177D01*
X49764Y6148D02*
X52203D01*
X49739Y6123D02*
X52203D01*
X49739Y6097D02*
X52228D01*
X49714Y6072D02*
X52228D01*
X49688Y6046D02*
X52254D01*
X49688Y6021D02*
X52279D01*
X49663Y5996D02*
X52279D01*
X49663Y5970D02*
X52304D01*
X49663Y5945D02*
X52304D01*
X49663Y5919D02*
X52330D01*
X49688Y5894D02*
X52355D01*
X49739Y5869D02*
X52355D01*
X49764Y5843D02*
X52381D01*
X49815Y5818D02*
X52381D01*
X49841Y5792D02*
X52406D01*
X49917Y5767D02*
X52406D01*
X50349Y7291D02*
X51542D01*
X50323Y7266D02*
X51542D01*
X50323Y7240D02*
X51568D01*
X50298Y7215D02*
X51568D01*
X50298Y7189D02*
X51593D01*
X50272Y7164D02*
X51619D01*
X50272Y7139D02*
X51619D01*
X50247Y7113D02*
X51644D01*
X50247Y7088D02*
X51644D01*
X50222Y7062D02*
X51669D01*
X50222Y7037D02*
X51669D01*
X50196Y7012D02*
X51695D01*
X50196Y6986D02*
X51720D01*
X50171Y6961D02*
X51720D01*
X50171Y6935D02*
X51746D01*
X50145Y6910D02*
X51746D01*
X50145Y6885D02*
X51771D01*
X50120Y6859D02*
X51771D01*
X50120Y6834D02*
X51796D01*
X50095Y6808D02*
X51822D01*
X50095Y6783D02*
X51822D01*
X50069Y6758D02*
X51847D01*
X50044Y6732D02*
X51847D01*
X50044Y6707D02*
X51873D01*
X50018Y6681D02*
X51898D01*
X50018Y6656D02*
X51898D01*
X49993Y6631D02*
X51923D01*
X49993Y6605D02*
X51923D01*
X49993Y6580D02*
X51949D01*
X49968Y6554D02*
X51949D01*
X49942Y6529D02*
X51974D01*
X49942Y6504D02*
X52000D01*
X49917Y6478D02*
X52000D01*
X49917Y6453D02*
X52025D01*
X49891Y6427D02*
X52025D01*
X49891Y6402D02*
X52050D01*
X50450Y7494D02*
X51415D01*
X50450Y7469D02*
X51441D01*
X50425Y7443D02*
X51441D01*
X50399Y7418D02*
X51466D01*
X50399Y7393D02*
X51466D01*
X50374Y7367D02*
X51492D01*
X50374Y7342D02*
X51492D01*
X52736Y2694D02*
X54133D01*
X52838Y3049D02*
X53930D01*
X52863Y3227D02*
X53828D01*
X52863Y3202D02*
X53854D01*
X52863Y3176D02*
X53854D01*
X52863Y3151D02*
X53879D01*
X52838Y3125D02*
X53879D01*
X52838Y3100D02*
X53905D01*
X52838Y3075D02*
X53905D01*
X52812Y3024D02*
X53955D01*
X52812Y2998D02*
X53955D01*
X52787Y2973D02*
X53981D01*
X52787Y2948D02*
X53981D01*
X52787Y2922D02*
X54006D01*
X52787Y2897D02*
X54006D01*
X52762Y2871D02*
X54032D01*
X52762Y2846D02*
X54057D01*
X52762Y2821D02*
X54057D01*
X52762Y2795D02*
X54057D01*
X52762Y2770D02*
X54082D01*
X52736Y2744D02*
X54082D01*
X52736Y2719D02*
X54108D01*
X52711Y2668D02*
X54159D01*
X52711Y2643D02*
X54159D01*
X52711Y2617D02*
X54159D01*
X52685Y2592D02*
X54184D01*
X52685Y2567D02*
X54184D01*
X52685Y2541D02*
X54209D01*
X52685Y2516D02*
X54235D01*
X52660Y2490D02*
X54235D01*
X52660Y2465D02*
X54260D01*
X52660Y2440D02*
X54260D01*
X52635Y2414D02*
X54286D01*
X52635Y2389D02*
X54286D01*
X52609Y2363D02*
X54311D01*
X52609Y2338D02*
X54336D01*
X52609Y2313D02*
X54336D01*
X52609Y2287D02*
X54336D01*
X52584Y2262D02*
X54362D01*
X52584Y2236D02*
X54362D01*
X52584Y2211D02*
X54387D01*
X52584Y2186D02*
X54387D01*
X52558Y2160D02*
X54387D01*
X52533Y2135D02*
X54387D01*
X52914Y3938D02*
X53447D01*
Y3913D02*
Y3938D01*
X52914Y3913D02*
X53447D01*
X52914Y3887D02*
X53473D01*
X52939Y3862D02*
X53498D01*
X52939Y3837D02*
X53498D01*
X52939Y3811D02*
X53524D01*
X52939Y3786D02*
X53524D01*
X52965Y3760D02*
X53524D01*
X52965Y3735D02*
X53549D01*
X52965Y3710D02*
X53574D01*
X52965Y3684D02*
X53600D01*
X52965Y3659D02*
X53600D01*
X52965Y3633D02*
X53600D01*
X52965Y3608D02*
X53625D01*
X52939Y3583D02*
X53625D01*
X52939Y3557D02*
X53651D01*
X52939Y3532D02*
X53676D01*
X52939Y3506D02*
X53676D01*
X52889Y3303D02*
X53803D01*
X52939Y3481D02*
X53701D01*
X52914Y3456D02*
X53701D01*
X52914Y3430D02*
X53727D01*
X52914Y3405D02*
X53727D01*
X52914Y3379D02*
X53752D01*
X52889Y3354D02*
X53778D01*
X52889Y3329D02*
X53778D01*
X52863Y3278D02*
X53803D01*
X48063Y3252D02*
X49409D01*
X50349Y7316D02*
X51517D01*
X52863Y3252D02*
X53803D01*
X47859Y1576D02*
X53930D01*
X47910Y1678D02*
X54184D01*
X47936Y1703D02*
X54209D01*
X47961Y1728D02*
X54286D01*
X48037Y1754D02*
X54311D01*
X51644Y2084D02*
X54387D01*
X47885Y1652D02*
X54133D01*
X51720Y2109D02*
X54387D01*
X48520Y2059D02*
X54387D01*
X48469Y2033D02*
X54387D01*
X48418Y2008D02*
X54387D01*
X48393Y1982D02*
X54387D01*
X48367Y1957D02*
X54387D01*
X48291Y1932D02*
X54387D01*
X48266Y1906D02*
X54387D01*
X48215Y1881D02*
X54387D01*
X48190Y1855D02*
X54362D01*
X48139Y1830D02*
X54362D01*
X48088Y1805D02*
X54336D01*
X48063Y1779D02*
X54336D01*
X47859Y1627D02*
X54057D01*
X47859Y1601D02*
X53981D01*
X51415Y5437D02*
X52609D01*
X50323Y5615D02*
X52508D01*
X50247Y5640D02*
X52482D01*
X50196Y5665D02*
X52457D01*
X49968Y5742D02*
X52431D01*
X50018Y5716D02*
X52457D01*
X50120Y5691D02*
X52457D01*
X50476Y5589D02*
X52533D01*
X50552Y5564D02*
X52533D01*
X50653Y5538D02*
X52558D01*
X50882Y5513D02*
X52558D01*
X51085Y5488D02*
X52584D01*
X51212Y5462D02*
X52584D01*
D12*
X-9Y17005D02*
X62391Y17098D01*
X-9Y17005D02*
X0Y-17000D01*
X62391Y17098D02*
X62401Y-16907D01*
X0Y-17000D02*
X62401Y-16907D01*
D13*
X81205Y-2000D02*
G03*
X81205Y-2000I-1205J0D01*
G01*
X80610D02*
G03*
X80610Y-2000I-610J0D01*
G01*
X20335Y-8961D02*
X23635Y-8961D01*
X20335Y-7161D02*
X20335Y-8961D01*
X20335Y-7161D02*
X23635Y-7161D01*
X23635Y-8961D01*
X55400Y12730D02*
Y15270D01*
X4600Y15270D02*
X55400Y15270D01*
X4600Y12730D02*
X55400Y12730D01*
X4600Y12730D02*
Y15270D01*
Y-15270D02*
Y-12730D01*
Y-15270D02*
X55400Y-15270D01*
X4600Y-12730D02*
X55400Y-12730D01*
Y-15270D02*
Y-12730D01*
X19943Y-6836D02*
X22543D01*
X19943D02*
X19943Y-5436D01*
X22543Y-6836D02*
X22543Y-5436D01*
X19943D02*
X22543D01*
X77900Y-2000D02*
X82100D01*
X80000Y-4100D02*
Y100D01*
D90*
X8291Y6036D02*
X16825D01*
X8278Y6023D02*
X16914D01*
X8265Y6010D02*
X16977D01*
X8252Y5998D02*
X17028D01*
X8252Y5985D02*
X17079D01*
X8252Y5972D02*
X17117D01*
X8252Y5960D02*
X17155D01*
X8252Y5947D02*
X17193D01*
X8252Y5934D02*
X17219D01*
X8252Y5922D02*
X17257D01*
X8252Y5909D02*
X17282D01*
X8265Y5896D02*
X17308D01*
X8265Y5883D02*
X17333D01*
X8278Y5871D02*
X17358D01*
X8278Y5858D02*
X17384D01*
X8278Y5845D02*
X17409D01*
X8291Y5833D02*
X17422D01*
X8291Y5820D02*
X17447D01*
X8303Y5807D02*
X17473D01*
X8303Y5794D02*
X17485D01*
X8303Y5782D02*
X17511D01*
X8316Y5769D02*
X17524D01*
X8316Y5756D02*
X17536D01*
X8329Y5744D02*
X17562D01*
X8329Y5731D02*
X17574D01*
X8341Y5718D02*
X17587D01*
X8341Y5706D02*
X17612D01*
X8341Y5693D02*
X17625D01*
X8354Y5680D02*
X17638D01*
X8354Y5668D02*
X17650D01*
X8367Y5655D02*
X17663D01*
X8367Y5642D02*
X17676D01*
X8367Y5629D02*
X17701D01*
X8380Y5617D02*
X17714D01*
X8380Y5604D02*
X17727D01*
X8392Y5591D02*
X17739D01*
X8392Y5579D02*
X17752D01*
X8405Y5566D02*
X17765D01*
X8405Y5553D02*
X17765D01*
X8405Y5541D02*
X17778D01*
X8418Y5528D02*
X17790D01*
X8418Y5515D02*
X17803D01*
X8430Y5502D02*
X17816D01*
X8430Y5490D02*
X17828D01*
X8430Y5477D02*
X17841D01*
X8443Y5464D02*
X17841D01*
X8443Y5452D02*
X17854D01*
X8456Y5439D02*
X17866D01*
X8456Y5426D02*
X17879D01*
X8456Y5413D02*
X17879D01*
X8468Y5401D02*
X17892D01*
X8468Y5388D02*
X17904D01*
X8481Y5375D02*
X17917D01*
X8481Y5363D02*
X17917D01*
X8494Y5350D02*
X17930D01*
X8494Y5337D02*
X17943D01*
X8494Y5325D02*
X17943D01*
X8507Y5312D02*
X17955D01*
X8507Y5299D02*
X17955D01*
X8519Y5286D02*
X17968D01*
X8519Y5274D02*
X17981D01*
X8519Y5261D02*
X17981D01*
X8532Y5248D02*
X17993D01*
X8532Y5236D02*
X17993D01*
X8545Y5223D02*
X18006D01*
X8545Y5210D02*
X18006D01*
X8557Y5198D02*
X18019D01*
X8557Y5185D02*
X18019D01*
X8583Y5172D02*
X18031D01*
X8621Y5160D02*
X18031D01*
X16177Y5147D02*
X18044D01*
X16266Y5134D02*
X18044D01*
X16330Y5121D02*
X18044D01*
X16381Y5109D02*
X18057D01*
X16431Y5096D02*
X18057D01*
X16482Y5083D02*
X18070D01*
X16520Y5071D02*
X18070D01*
X16546Y5058D02*
X18082D01*
X16584Y5045D02*
X18082D01*
X16609Y5032D02*
X18082D01*
X16647Y5020D02*
X18095D01*
X16673Y5007D02*
X18095D01*
X16698Y4994D02*
X18108D01*
X16723Y4982D02*
X18108D01*
X16736Y4969D02*
X18108D01*
X16761Y4956D02*
X18120D01*
X16787Y4944D02*
X18120D01*
X16800Y4931D02*
X18133D01*
X16825Y4918D02*
X18133D01*
X16838Y4905D02*
X18146D01*
X16863Y4893D02*
X18146D01*
X16876Y4880D02*
X18146D01*
X16889Y4867D02*
X18159D01*
X16914Y4855D02*
X18159D01*
X16927Y4842D02*
X18171D01*
X16939Y4829D02*
X18171D01*
X16952Y4817D02*
X18171D01*
X16965Y4804D02*
X18184D01*
X16990Y4791D02*
X18184D01*
X17003Y4779D02*
X18197D01*
X17015Y4766D02*
X18197D01*
X17028Y4753D02*
X18209D01*
X17041Y4740D02*
X18209D01*
X17054Y4728D02*
X18209D01*
X17054Y4715D02*
X18222D01*
X17066Y4702D02*
X18222D01*
X17079Y4690D02*
X18235D01*
X17092Y4677D02*
X18235D01*
X17104Y4664D02*
X18235D01*
X17117Y4652D02*
X18247D01*
X17130Y4639D02*
X18247D01*
X17130Y4626D02*
X18260D01*
X17142Y4613D02*
X18260D01*
X17155Y4601D02*
X18260D01*
X17155Y4588D02*
X18273D01*
X17168Y4575D02*
X18273D01*
X17181Y4563D02*
X18285D01*
X17193Y4550D02*
X18285D01*
X17193Y4537D02*
X18298D01*
X17206Y4524D02*
X18298D01*
X17206Y4512D02*
X18298D01*
X17219Y4499D02*
X18311D01*
X17231Y4486D02*
X18311D01*
X17231Y4474D02*
X18324D01*
X17244Y4461D02*
X18324D01*
X17244Y4448D02*
X18324D01*
X17257Y4436D02*
X18336D01*
X17257Y4423D02*
X18336D01*
X17270Y4410D02*
X18349D01*
X17270Y4398D02*
X18349D01*
X17282Y4385D02*
X18362D01*
X17282Y4372D02*
X18362D01*
X17295Y4359D02*
X18362D01*
X17295Y4347D02*
X18374D01*
X17308Y4334D02*
X18374D01*
X17308Y4321D02*
X18387D01*
X17308Y4309D02*
X18387D01*
X17320Y4296D02*
X18387D01*
X17320Y4283D02*
X18400D01*
X17333Y4271D02*
X18400D01*
X17333Y4258D02*
X18413D01*
X17333Y4245D02*
X18413D01*
X17346Y4232D02*
X18425D01*
X17346Y4220D02*
X18425D01*
X17346Y4207D02*
X18425D01*
X17358Y4194D02*
X18438D01*
X17358Y4182D02*
X18438D01*
X17358Y4169D02*
X18451D01*
X17358Y4156D02*
X18451D01*
X17371Y4143D02*
X18451D01*
X17371Y4131D02*
X18463D01*
X17371Y4118D02*
X18463D01*
X17371Y4105D02*
X18476D01*
X17384Y4093D02*
X18476D01*
X17384Y4080D02*
X18489D01*
X17384Y4067D02*
X18489D01*
X17384Y4055D02*
X18489D01*
X17396Y4042D02*
X18501D01*
X17396Y4029D02*
X18501D01*
X11974D02*
X16101D01*
X9116D02*
X10653D01*
X17396Y4016D02*
X18514D01*
X11948D02*
X16126D01*
X9103D02*
X10678D01*
X17396Y4004D02*
X18514D01*
X11948D02*
X16152D01*
X9091D02*
X10704D01*
X17396Y3991D02*
X18514D01*
X11936D02*
X16177D01*
X9078D02*
X10716D01*
X17396Y3978D02*
X18527D01*
X11936D02*
X16190D01*
X9078D02*
X10742D01*
X17409Y3966D02*
X18527D01*
X11923D02*
X16215D01*
X9078D02*
X10754D01*
X17409Y3953D02*
X18539D01*
X11923D02*
X16228D01*
X9078D02*
X10754D01*
X17409Y3940D02*
X18539D01*
X11923D02*
X16241D01*
X9078D02*
X10767D01*
X17409Y3928D02*
X18539D01*
X11936D02*
X16241D01*
X9078D02*
X10780D01*
X17409Y3915D02*
X18552D01*
X11936D02*
X16253D01*
X9078D02*
X10780D01*
X17409Y3902D02*
X18552D01*
X11936D02*
X16266D01*
X9078D02*
X10792D01*
X17409Y3889D02*
X18565D01*
X11948D02*
X16266D01*
X9091D02*
X10792D01*
X17409Y3877D02*
X18565D01*
X11948D02*
X16279D01*
X9091D02*
X10805D01*
X17409Y3864D02*
X18578D01*
X11948D02*
X16279D01*
X9103D02*
X10805D01*
X17409Y3851D02*
X18578D01*
X11961D02*
X16292D01*
X9103D02*
X10805D01*
X17422Y3839D02*
X18578D01*
X11961D02*
X16292D01*
X9103D02*
X10818D01*
X17422Y3826D02*
X18590D01*
X11974D02*
X16292D01*
X9116D02*
X10818D01*
X17422Y3813D02*
X18590D01*
X11974D02*
X16292D01*
X9116D02*
X10831D01*
X17422Y3801D02*
X18603D01*
X11974D02*
X16304D01*
X9129D02*
X10831D01*
X17422Y3788D02*
X18603D01*
X11986D02*
X16304D01*
X9129D02*
X10843D01*
X17422Y3775D02*
X18603D01*
X11986D02*
X16304D01*
X9142D02*
X10843D01*
X17422Y3763D02*
X18616D01*
X11999D02*
X16304D01*
X9142D02*
X10843D01*
X17422Y3750D02*
X18616D01*
X11999D02*
X16304D01*
X9142D02*
X10856D01*
X17422Y3737D02*
X18628D01*
X12012D02*
X16304D01*
X9154D02*
X10856D01*
X17422Y3724D02*
X18628D01*
X12012D02*
X16292D01*
X9154D02*
X10869D01*
X17422Y3712D02*
X18641D01*
X12012D02*
X16292D01*
X9167D02*
X10869D01*
X17422Y3699D02*
X18641D01*
X12024D02*
X16292D01*
X9167D02*
X10869D01*
X17422Y3686D02*
X18641D01*
X12024D02*
X16292D01*
X9167D02*
X10881D01*
X17409Y3674D02*
X18654D01*
X12037D02*
X16279D01*
X9180D02*
X10881D01*
X17409Y3661D02*
X18654D01*
X12037D02*
X16279D01*
X9180D02*
X10894D01*
X17409Y3648D02*
X18667D01*
X12037D02*
X16266D01*
X9192D02*
X10894D01*
X17409Y3635D02*
X18667D01*
X12050D02*
X16266D01*
X9192D02*
X10907D01*
X17409Y3623D02*
X18667D01*
X12050D02*
X16253D01*
X9205D02*
X10907D01*
X17409Y3610D02*
X18679D01*
X12062D02*
X16253D01*
X9205D02*
X10907D01*
X17409Y3597D02*
X18679D01*
X12062D02*
X16241D01*
X9205D02*
X10920D01*
X17409Y3585D02*
X18692D01*
X12075D02*
X16228D01*
X9218D02*
X10920D01*
X17409Y3572D02*
X18692D01*
X12075D02*
X16215D01*
X9218D02*
X10932D01*
X17409Y3559D02*
X18705D01*
X12075D02*
X16203D01*
X9230D02*
X10932D01*
X17396Y3547D02*
X18705D01*
X12088D02*
X16190D01*
X9230D02*
X10932D01*
X17396Y3534D02*
X18705D01*
X12088D02*
X16177D01*
X9230D02*
X10945D01*
X17396Y3521D02*
X18717D01*
X12101D02*
X16165D01*
X9243D02*
X10945D01*
X17396Y3509D02*
X18717D01*
X12101D02*
X16152D01*
X9243D02*
X10958D01*
X17396Y3496D02*
X18730D01*
X12101D02*
X16139D01*
X9256D02*
X10958D01*
X17396Y3483D02*
X18730D01*
X12113D02*
X16126D01*
X9256D02*
X10958D01*
X17384Y3470D02*
X18730D01*
X12113D02*
X16114D01*
X9256D02*
X10970D01*
X17384Y3458D02*
X18743D01*
X12126D02*
X16101D01*
X9269D02*
X10970D01*
X17384Y3445D02*
X18743D01*
X12126D02*
X16076D01*
X9269D02*
X10983D01*
X17384Y3432D02*
X18755D01*
X12126D02*
X16063D01*
X9281D02*
X10983D01*
X17371Y3420D02*
X18755D01*
X12139D02*
X16050D01*
X9281D02*
X10996D01*
X17371Y3407D02*
X18768D01*
X12139D02*
X16038D01*
X9294D02*
X10996D01*
X17371Y3394D02*
X18768D01*
X12151D02*
X16025D01*
X9294D02*
X10996D01*
X17371Y3382D02*
X18768D01*
X12151D02*
X16012D01*
X9294D02*
X11008D01*
X17358Y3369D02*
X18781D01*
X12164D02*
X16000D01*
X9307D02*
X11008D01*
X17358Y3356D02*
X18781D01*
X12164D02*
X15987D01*
X9307D02*
X11021D01*
X17358Y3343D02*
X18794D01*
X12164D02*
X15974D01*
X9319D02*
X11021D01*
X17346Y3331D02*
X18794D01*
X12177D02*
X15961D01*
X9319D02*
X11021D01*
X17346Y3318D02*
X18794D01*
X12177D02*
X15949D01*
X9319D02*
X11034D01*
X17346Y3305D02*
X18806D01*
X12189D02*
X15936D01*
X9332D02*
X11034D01*
X17333Y3293D02*
X18806D01*
X12189D02*
X15923D01*
X9332D02*
X11047D01*
X17333Y3280D02*
X18819D01*
X12189D02*
X15898D01*
X9345D02*
X11047D01*
X17333Y3267D02*
X18819D01*
X12202D02*
X15885D01*
X9345D02*
X11059D01*
X17320Y3254D02*
X18819D01*
X12202D02*
X15873D01*
X9357D02*
X11059D01*
X17320Y3242D02*
X18832D01*
X12215D02*
X15860D01*
X9357D02*
X11059D01*
X17320Y3229D02*
X18832D01*
X12215D02*
X15847D01*
X9357D02*
X11072D01*
X17308Y3216D02*
X18844D01*
X12228D02*
X15834D01*
X9370D02*
X11072D01*
X17308Y3204D02*
X18844D01*
X12228D02*
X15822D01*
X9370D02*
X11085D01*
X17295Y3191D02*
X18857D01*
X12228D02*
X15809D01*
X9383D02*
X11085D01*
X17295Y3178D02*
X18857D01*
X12240D02*
X15796D01*
X9383D02*
X11085D01*
X17282Y3166D02*
X18857D01*
X12240D02*
X15784D01*
X9383D02*
X11097D01*
X17282Y3153D02*
X18870D01*
X12253D02*
X15771D01*
X9396D02*
X11097D01*
X17270Y3140D02*
X18870D01*
X12253D02*
X15758D01*
X9396D02*
X11110D01*
X17270Y3128D02*
X18882D01*
X12253D02*
X15745D01*
X9408D02*
X11110D01*
X17257Y3115D02*
X18882D01*
X12266D02*
X15720D01*
X9408D02*
X11110D01*
X17257Y3102D02*
X18882D01*
X12266D02*
X15707D01*
X9421D02*
X11123D01*
X17244Y3089D02*
X18895D01*
X12278D02*
X15695D01*
X9421D02*
X11123D01*
X17244Y3077D02*
X18895D01*
X12278D02*
X15682D01*
X9421D02*
X11135D01*
X17231Y3064D02*
X18908D01*
X12278D02*
X15669D01*
X9434D02*
X11135D01*
X17231Y3051D02*
X18908D01*
X12291D02*
X15657D01*
X9434D02*
X11148D01*
X17219Y3039D02*
X18920D01*
X12291D02*
X15644D01*
X9446D02*
X11148D01*
X17206Y3026D02*
X18920D01*
X12304D02*
X15631D01*
X9446D02*
X11148D01*
X17206Y3013D02*
X18920D01*
X12304D02*
X15618D01*
X9446D02*
X11161D01*
X17193Y3000D02*
X18933D01*
X12316D02*
X15606D01*
X9459D02*
X11161D01*
X17181Y2988D02*
X18933D01*
X12316D02*
X15593D01*
X9459D02*
X11174D01*
X17181Y2975D02*
X18946D01*
X12316D02*
X15580D01*
X9472D02*
X11174D01*
X17168Y2962D02*
X18946D01*
X12329D02*
X15568D01*
X9472D02*
X11174D01*
X17155Y2950D02*
X18946D01*
X12329D02*
X15555D01*
X9472D02*
X11186D01*
X17155Y2937D02*
X18959D01*
X12342D02*
X15530D01*
X9484D02*
X11186D01*
X17142Y2924D02*
X18959D01*
X12342D02*
X15517D01*
X9484D02*
X11199D01*
X17130Y2912D02*
X18971D01*
X12342D02*
X15504D01*
X9497D02*
X11199D01*
X17117Y2899D02*
X18971D01*
X12355D02*
X15491D01*
X9497D02*
X11212D01*
X17104Y2886D02*
X18984D01*
X12355D02*
X15479D01*
X9510D02*
X11212D01*
X17092Y2874D02*
X18984D01*
X12367D02*
X15466D01*
X9510D02*
X11212D01*
X17079Y2861D02*
X18984D01*
X12367D02*
X15453D01*
X9510D02*
X11224D01*
X17079Y2848D02*
X18997D01*
X12380D02*
X15441D01*
X9523D02*
X11224D01*
X17066Y2835D02*
X18997D01*
X12380D02*
X15428D01*
X9523D02*
X11237D01*
X17054Y2823D02*
X19009D01*
X12380D02*
X15415D01*
X9535D02*
X11237D01*
X17028Y2810D02*
X19009D01*
X12393D02*
X15403D01*
X9535D02*
X11237D01*
X17015Y2797D02*
X19009D01*
X12393D02*
X15390D01*
X9535D02*
X11250D01*
X17003Y2785D02*
X19022D01*
X12405D02*
X15377D01*
X9548D02*
X11250D01*
X16990Y2772D02*
X19022D01*
X12405D02*
X15352D01*
X9548D02*
X11262D01*
X16977Y2759D02*
X19035D01*
X12405D02*
X15339D01*
X9561D02*
X11262D01*
X16965Y2747D02*
X19035D01*
X12418D02*
X15326D01*
X9561D02*
X11262D01*
X16952Y2734D02*
X19048D01*
X12418D02*
X15314D01*
X9573D02*
X11275D01*
X16939Y2721D02*
X19048D01*
X12431D02*
X15301D01*
X9573D02*
X11275D01*
X16927Y2708D02*
X19048D01*
X12431D02*
X15288D01*
X9573D02*
X11288D01*
X16914Y2696D02*
X19060D01*
X12431D02*
X15276D01*
X9586D02*
X11288D01*
X16901Y2683D02*
X19060D01*
X12443D02*
X15263D01*
X9586D02*
X11300D01*
X16889Y2670D02*
X19073D01*
X12443D02*
X15250D01*
X9599D02*
X11300D01*
X16876Y2658D02*
X19073D01*
X12456D02*
X15238D01*
X9599D02*
X11300D01*
X16863Y2645D02*
X19073D01*
X12456D02*
X15225D01*
X9599D02*
X11313D01*
X16850Y2632D02*
X19086D01*
X12469D02*
X15212D01*
X9611D02*
X11313D01*
X16825Y2619D02*
X19086D01*
X12469D02*
X15199D01*
X9611D02*
X11326D01*
X16812Y2607D02*
X19098D01*
X12469D02*
X15187D01*
X9624D02*
X11326D01*
X16800Y2594D02*
X19098D01*
X12482D02*
X15161D01*
X9624D02*
X11326D01*
X16787Y2581D02*
X19098D01*
X12482D02*
X15149D01*
X9624D02*
X11339D01*
X16774Y2569D02*
X19111D01*
X12494D02*
X15136D01*
X9637D02*
X11339D01*
X16761Y2556D02*
X19111D01*
X12494D02*
X15123D01*
X9637D02*
X11351D01*
X16749Y2543D02*
X19124D01*
X12494D02*
X15111D01*
X9649D02*
X11351D01*
X16736Y2531D02*
X19124D01*
X12507D02*
X15098D01*
X9649D02*
X11364D01*
X16723Y2518D02*
X19136D01*
X12507D02*
X15085D01*
X9662D02*
X11364D01*
X16711Y2505D02*
X19136D01*
X12520D02*
X15072D01*
X9662D02*
X11364D01*
X16698Y2493D02*
X19136D01*
X12520D02*
X15060D01*
X9662D02*
X11377D01*
X16685Y2480D02*
X19149D01*
X12532D02*
X15047D01*
X9675D02*
X11377D01*
X16673Y2467D02*
X19149D01*
X12532D02*
X15034D01*
X9675D02*
X11389D01*
X16660Y2454D02*
X19162D01*
X12532D02*
X15022D01*
X9688D02*
X11389D01*
X16647Y2442D02*
X19162D01*
X12545D02*
X15009D01*
X9688D02*
X11389D01*
X16622Y2429D02*
X19162D01*
X12545D02*
X14983D01*
X9688D02*
X11402D01*
X16609Y2416D02*
X19174D01*
X12558D02*
X14971D01*
X9700D02*
X11402D01*
X16596Y2404D02*
X19174D01*
X12558D02*
X14958D01*
X9700D02*
X11415D01*
X16584Y2391D02*
X19187D01*
X12558D02*
X14945D01*
X9713D02*
X11415D01*
X16571Y2378D02*
X19187D01*
X12571D02*
X14933D01*
X9713D02*
X11415D01*
X16558Y2365D02*
X19200D01*
X12571D02*
X14920D01*
X9726D02*
X11427D01*
X16546Y2353D02*
X19200D01*
X12583D02*
X14907D01*
X9726D02*
X11427D01*
X16533Y2340D02*
X19200D01*
X12583D02*
X14895D01*
X9726D02*
X11440D01*
X16520Y2327D02*
X19213D01*
X12596D02*
X14882D01*
X9738D02*
X11440D01*
X16507Y2315D02*
X19213D01*
X12596D02*
X14869D01*
X9738D02*
X11453D01*
X16495Y2302D02*
X19225D01*
X12596D02*
X14856D01*
X9751D02*
X11453D01*
X16482Y2289D02*
X19225D01*
X12609D02*
X14844D01*
X9751D02*
X11453D01*
X16469Y2277D02*
X19225D01*
X12609D02*
X14831D01*
X9751D02*
X11466D01*
X16457Y2264D02*
X19238D01*
X12621D02*
X14818D01*
X9764D02*
X11466D01*
X16431Y2251D02*
X19238D01*
X12621D02*
X14806D01*
X9764D02*
X11478D01*
X16419Y2239D02*
X19251D01*
X12621D02*
X14793D01*
X9776D02*
X11478D01*
X16406Y2226D02*
X19251D01*
X12634D02*
X14780D01*
X9776D02*
X11478D01*
X16393Y2213D02*
X19263D01*
X12634D02*
X14780D01*
X9789D02*
X11491D01*
X16381Y2200D02*
X19263D01*
X12647D02*
X14768D01*
X9789D02*
X11491D01*
X16368Y2188D02*
X19263D01*
X12647D02*
X14755D01*
X9789D02*
X11504D01*
X16355Y2175D02*
X19276D01*
X12647D02*
X14742D01*
X9802D02*
X11504D01*
X16342Y2162D02*
X19276D01*
X12659D02*
X14742D01*
X9802D02*
X11516D01*
X16330Y2150D02*
X19289D01*
X12659D02*
X14729D01*
X9815D02*
X11516D01*
X16317Y2137D02*
X19289D01*
X12672D02*
X14717D01*
X9815D02*
X11516D01*
X16304Y2124D02*
X19289D01*
X12672D02*
X14704D01*
X9815D02*
X11529D01*
X16292Y2112D02*
X19302D01*
X12685D02*
X14704D01*
X9827D02*
X11529D01*
X16279Y2099D02*
X19302D01*
X12685D02*
X14691D01*
X9827D02*
X11542D01*
X16266Y2086D02*
X19314D01*
X12685D02*
X14679D01*
X9840D02*
X11542D01*
X16253Y2073D02*
X19314D01*
X12698D02*
X14679D01*
X9840D02*
X11542D01*
X16228Y2061D02*
X19327D01*
X12698D02*
X14666D01*
X9840D02*
X11554D01*
X16215Y2048D02*
X19327D01*
X12710D02*
X14653D01*
X9853D02*
X11554D01*
X16203Y2035D02*
X19327D01*
X12710D02*
X14653D01*
X9853D02*
X11567D01*
X16190Y2023D02*
X19340D01*
X12710D02*
X14641D01*
X9865D02*
X11567D01*
X16177Y2010D02*
X19340D01*
X12723D02*
X14641D01*
X9865D02*
X11567D01*
X16165Y1997D02*
X19352D01*
X12723D02*
X14628D01*
X9878D02*
X11580D01*
X16152Y1985D02*
X19352D01*
X12736D02*
X14615D01*
X9878D02*
X11580D01*
X16139Y1972D02*
X19352D01*
X12736D02*
X14615D01*
X9878D02*
X11593D01*
X16126Y1959D02*
X19365D01*
X12748D02*
X14602D01*
X9891D02*
X11593D01*
X16114Y1946D02*
X19365D01*
X12748D02*
X14602D01*
X9891D02*
X11605D01*
X16101Y1934D02*
X19378D01*
X12748D02*
X14590D01*
X9903D02*
X11605D01*
X16088Y1921D02*
X19378D01*
X12761D02*
X14590D01*
X9903D02*
X11605D01*
X16076Y1908D02*
X19378D01*
X12761D02*
X14577D01*
X9903D02*
X11618D01*
X16063Y1896D02*
X19390D01*
X12774D02*
X14577D01*
X9916D02*
X11618D01*
X16038Y1883D02*
X19390D01*
X12774D02*
X14564D01*
X9916D02*
X11631D01*
X16025Y1870D02*
X19403D01*
X12774D02*
X14564D01*
X9929D02*
X11631D01*
X16012Y1857D02*
X19403D01*
X12786D02*
X14552D01*
X9929D02*
X11631D01*
X16000Y1845D02*
X19416D01*
X12786D02*
X14552D01*
X9942D02*
X11643D01*
X15987Y1832D02*
X19416D01*
X12799D02*
X14552D01*
X9942D02*
X11643D01*
X15974Y1819D02*
X19416D01*
X12799D02*
X14539D01*
X9942D02*
X11656D01*
X15961Y1807D02*
X19428D01*
X12799D02*
X14539D01*
X9954D02*
X11656D01*
X15949Y1794D02*
X19428D01*
X12812D02*
X14526D01*
X9954D02*
X11669D01*
X15936Y1781D02*
X19441D01*
X12812D02*
X14526D01*
X9967D02*
X11669D01*
X15923Y1769D02*
X19441D01*
X12825D02*
X14526D01*
X9967D02*
X11669D01*
X15911Y1756D02*
X19441D01*
X12825D02*
X14514D01*
X9967D02*
X11682D01*
X15898Y1743D02*
X19454D01*
X12837D02*
X14514D01*
X9980D02*
X11682D01*
X15885Y1730D02*
X19454D01*
X12837D02*
X14514D01*
X9980D02*
X11694D01*
X15873Y1718D02*
X19467D01*
X12837D02*
X14501D01*
X9992D02*
X11694D01*
X15860Y1705D02*
X19467D01*
X12850D02*
X14501D01*
X9992D02*
X11694D01*
X15834Y1692D02*
X19479D01*
X12850D02*
X14501D01*
X9992D02*
X11707D01*
X15822Y1680D02*
X19479D01*
X12863D02*
X14488D01*
X10005D02*
X11707D01*
X15809Y1667D02*
X19479D01*
X12863D02*
X14488D01*
X10005D02*
X11720D01*
X15796Y1654D02*
X19492D01*
X12863D02*
X14488D01*
X10018D02*
X11720D01*
X15784Y1642D02*
X19492D01*
X12875D02*
X14476D01*
X10018D02*
X11720D01*
X15771Y1629D02*
X19505D01*
X12875D02*
X14476D01*
X10031D02*
X11732D01*
X15758Y1616D02*
X19505D01*
X12888D02*
X14476D01*
X10031D02*
X11732D01*
X15745Y1604D02*
X19505D01*
X12888D02*
X14476D01*
X10031D02*
X11745D01*
X15733Y1591D02*
X19517D01*
X12901D02*
X14476D01*
X10043D02*
X11745D01*
X15720Y1578D02*
X19517D01*
X12901D02*
X14463D01*
X10043D02*
X11758D01*
X15707Y1565D02*
X19530D01*
X12901D02*
X14463D01*
X10056D02*
X11758D01*
X15695Y1553D02*
X19530D01*
X12913D02*
X14463D01*
X10056D02*
X11758D01*
X15682Y1540D02*
X19543D01*
X12913D02*
X14463D01*
X10056D02*
X11770D01*
X15669Y1527D02*
X19543D01*
X12926D02*
X14463D01*
X10069D02*
X11770D01*
X15657Y1515D02*
X19543D01*
X12926D02*
X14450D01*
X10069D02*
X11783D01*
X15644Y1502D02*
X19556D01*
X12926D02*
X14450D01*
X10081D02*
X11783D01*
X15631Y1489D02*
X19556D01*
X12939D02*
X14450D01*
X10081D02*
X11783D01*
X15618Y1477D02*
X19568D01*
X12939D02*
X14450D01*
X10094D02*
X11796D01*
X15618Y1464D02*
X19568D01*
X12951D02*
X14450D01*
X10094D02*
X11796D01*
X15606Y1451D02*
X19568D01*
X12951D02*
X14450D01*
X10094D02*
X11809D01*
X15593Y1438D02*
X19581D01*
X12964D02*
X14450D01*
X10107D02*
X11809D01*
X15593Y1426D02*
X19581D01*
X12964D02*
X14450D01*
X10107D02*
X11821D01*
X15580Y1413D02*
X19594D01*
X12964D02*
X14450D01*
X10119D02*
X11821D01*
X15580Y1400D02*
X19594D01*
X12977D02*
X14437D01*
X10119D02*
X11821D01*
X15580Y1388D02*
X19606D01*
X12977D02*
X14437D01*
X10119D02*
X11834D01*
X15568Y1375D02*
X19606D01*
X12990D02*
X14437D01*
X10132D02*
X11834D01*
X15568Y1362D02*
X19606D01*
X12990D02*
X14437D01*
X10132D02*
X11847D01*
X15568Y1349D02*
X19619D01*
X12990D02*
X14437D01*
X10145D02*
X11847D01*
X15568Y1337D02*
X19619D01*
X13002D02*
X14437D01*
X10145D02*
X11847D01*
X15568Y1324D02*
X19632D01*
X13002D02*
X14437D01*
X10158D02*
X11859D01*
X15568Y1311D02*
X19632D01*
X13015D02*
X14437D01*
X10158D02*
X11859D01*
X15568Y1299D02*
X19632D01*
X13015D02*
X14437D01*
X10158D02*
X11872D01*
X15568Y1286D02*
X19644D01*
X13015D02*
X14437D01*
X10170D02*
X11872D01*
X15568Y1273D02*
X19644D01*
X13028D02*
X14437D01*
X10170D02*
X11872D01*
X15568Y1261D02*
X19657D01*
X13028D02*
X14437D01*
X10183D02*
X11885D01*
X15568Y1248D02*
X19657D01*
X13040D02*
X14450D01*
X10183D02*
X11885D01*
X15568Y1235D02*
X19657D01*
X13040D02*
X14450D01*
X10183D02*
X11897D01*
X15580Y1222D02*
X19670D01*
X13053D02*
X14450D01*
X10196D02*
X11897D01*
X15580Y1210D02*
X19670D01*
X13053D02*
X14450D01*
X10196D02*
X11910D01*
X15580Y1197D02*
X19683D01*
X13053D02*
X14450D01*
X10208D02*
X11910D01*
X15593Y1184D02*
X19683D01*
X13066D02*
X14450D01*
X10208D02*
X11910D01*
X15606Y1172D02*
X19683D01*
X13066D02*
X14450D01*
X10208D02*
X11923D01*
X15606Y1159D02*
X19683D01*
X13078D02*
X14450D01*
X10221D02*
X11923D01*
X15618Y1146D02*
X19683D01*
X13078D02*
X14450D01*
X10221D02*
X11936D01*
X15631Y1134D02*
X19683D01*
X13078D02*
X14463D01*
X10234D02*
X11936D01*
X15644Y1121D02*
X19683D01*
X13091D02*
X14463D01*
X10234D02*
X11936D01*
X15669Y1108D02*
X19683D01*
X13091D02*
X14463D01*
X10246D02*
X11948D01*
X15695Y1095D02*
X19670D01*
X13104D02*
X14463D01*
X10246D02*
X11948D01*
X15720Y1083D02*
X19657D01*
X13104D02*
X14463D01*
X10246D02*
X11961D01*
X15758Y1070D02*
X19644D01*
X13117D02*
X14476D01*
X10259D02*
X11961D01*
X13117Y1057D02*
X14476D01*
X10259D02*
X11974D01*
X13117Y1045D02*
X14476D01*
X10272D02*
X11974D01*
X13129Y1032D02*
X14476D01*
X10272D02*
X11974D01*
X13129Y1019D02*
X14476D01*
X10272D02*
X11986D01*
X13142Y1007D02*
X14488D01*
X10285D02*
X11986D01*
X13142Y994D02*
X14488D01*
X10285D02*
X11999D01*
X13142Y981D02*
X14488D01*
X10297D02*
X11999D01*
X13155Y969D02*
X14501D01*
X10297D02*
X11999D01*
X13155Y956D02*
X14501D01*
X10310D02*
X12012D01*
X13167Y943D02*
X14501D01*
X10310D02*
X12012D01*
X13167Y930D02*
X14501D01*
X10310D02*
X12024D01*
X13167Y918D02*
X14514D01*
X10323D02*
X12024D01*
X13180Y905D02*
X14514D01*
X10323D02*
X12024D01*
X13180Y892D02*
X14514D01*
X10335D02*
X12037D01*
X13193Y880D02*
X14526D01*
X10335D02*
X12037D01*
X13193Y867D02*
X14526D01*
X10348D02*
X12050D01*
X13205Y854D02*
X14526D01*
X10348D02*
X12050D01*
X13205Y841D02*
X14539D01*
X10361D02*
X12062D01*
X13205Y829D02*
X14539D01*
X10361D02*
X12062D01*
X13218Y816D02*
X14539D01*
X10361D02*
X12062D01*
X13218Y803D02*
X14552D01*
X10373D02*
X12075D01*
X13231Y791D02*
X14552D01*
X10373D02*
X12075D01*
X13231Y778D02*
X14564D01*
X10386D02*
X12088D01*
X13231Y765D02*
X14564D01*
X10386D02*
X12088D01*
X13244Y753D02*
X14577D01*
X10399D02*
X12088D01*
X13244Y740D02*
X14577D01*
X10411D02*
X12101D01*
X13256Y727D02*
X14577D01*
X10411D02*
X12101D01*
X13256Y715D02*
X14590D01*
X10424D02*
X12113D01*
X13269Y702D02*
X14590D01*
X10424D02*
X12113D01*
X13269Y689D02*
X14602D01*
X10437D02*
X12126D01*
X13269Y676D02*
X14602D01*
X10450D02*
X12126D01*
X13282Y664D02*
X14615D01*
X10450D02*
X12126D01*
X13282Y651D02*
X14615D01*
X10462D02*
X12139D01*
X13294Y638D02*
X14628D01*
X10462D02*
X12139D01*
X13294Y626D02*
X14641D01*
X10475D02*
X12151D01*
X13294Y613D02*
X14641D01*
X10488D02*
X12151D01*
X13307Y600D02*
X14653D01*
X10488D02*
X12151D01*
X13307Y587D02*
X14653D01*
X10500D02*
X12164D01*
X13320Y575D02*
X14666D01*
X10513D02*
X12164D01*
X13320Y562D02*
X14666D01*
X10526D02*
X12177D01*
X13320Y549D02*
X14679D01*
X10526D02*
X12177D01*
X13333Y537D02*
X14691D01*
X10538D02*
X12177D01*
X13333Y524D02*
X14691D01*
X10551D02*
X12189D01*
X13345Y511D02*
X14704D01*
X10564D02*
X12189D01*
X13345Y499D02*
X14717D01*
X10577D02*
X12202D01*
X13358Y486D02*
X14717D01*
X10589D02*
X12202D01*
X13358Y473D02*
X14729D01*
X10589D02*
X12215D01*
X13358Y461D02*
X14742D01*
X10602D02*
X12215D01*
X13371Y448D02*
X14755D01*
X10615D02*
X12215D01*
X13371Y435D02*
X14755D01*
X10627D02*
X12228D01*
X13383Y422D02*
X14768D01*
X10640D02*
X12228D01*
X13383Y410D02*
X14780D01*
X10653D02*
X12240D01*
X13383Y397D02*
X14793D01*
X10665D02*
X12240D01*
X13396Y384D02*
X14806D01*
X10678D02*
X12240D01*
X13396Y372D02*
X14806D01*
X10691D02*
X12253D01*
X13409Y359D02*
X14818D01*
X10704D02*
X12253D01*
X13409Y346D02*
X14831D01*
X10716D02*
X12266D01*
X13421Y333D02*
X14844D01*
X10729D02*
X12266D01*
X13421Y321D02*
X14856D01*
X10754D02*
X12278D01*
X13421Y308D02*
X14869D01*
X10767D02*
X12278D01*
X13434Y295D02*
X14882D01*
X10780D02*
X12278D01*
X13434Y283D02*
X14895D01*
X10792D02*
X12291D01*
X13447Y270D02*
X14907D01*
X10818D02*
X12291D01*
X13447Y257D02*
X14920D01*
X10831D02*
X12304D01*
X13447Y245D02*
X14933D01*
X10843D02*
X12304D01*
X13460Y232D02*
X14945D01*
X10869D02*
X12304D01*
X13460Y219D02*
X14958D01*
X10881D02*
X12316D01*
X13472Y206D02*
X14971D01*
X10907D02*
X12316D01*
X13472Y194D02*
X14996D01*
X10920D02*
X12329D01*
X13485Y181D02*
X15009D01*
X10945D02*
X12329D01*
X13485Y168D02*
X15022D01*
X10958D02*
X12329D01*
X13485Y156D02*
X15034D01*
X10983D02*
X12342D01*
X13498Y143D02*
X15060D01*
X11008D02*
X12342D01*
X13498Y130D02*
X15072D01*
X11034D02*
X12355D01*
X13510Y118D02*
X15085D01*
X11059D02*
X12355D01*
X13510Y105D02*
X15111D01*
X11085D02*
X12367D01*
X13510Y92D02*
X15123D01*
X11110D02*
X12367D01*
X13523Y79D02*
X15149D01*
X11135D02*
X12367D01*
X13523Y67D02*
X15174D01*
X11161D02*
X12380D01*
X13536Y54D02*
X15187D01*
X11199D02*
X12380D01*
X13548Y41D02*
X15212D01*
X11237D02*
X12380D01*
X13548Y29D02*
X15238D01*
X11262D02*
X12380D01*
X13561Y16D02*
X15263D01*
X11313D02*
X12380D01*
X13587Y3D02*
X15288D01*
X11351D02*
X12367D01*
X13599Y-9D02*
X15301D01*
X11402D02*
X12367D01*
X13612Y-22D02*
X15301D01*
X11466D02*
X12355D01*
X13650Y-35D02*
X15288D01*
X11542D02*
X12342D01*
X13701Y-47D02*
X15276D01*
X11694D02*
X12304D01*
D91*
X50875Y-12074D02*
D03*
X50875Y-6575D02*
D03*
D92*
X55127Y-9325D02*
D03*
X46128Y-9325D02*
D03*
M02*
