M48
;Layer_Color=9474304
;FILE_FORMAT=4:3
METRIC,LZ
;TYPE=PLATED
T1F00S00C0.125
%
T01
X0028038Y-0015213
X0038952Y-0009861
X0039412
X0039872
X0040332
X0040792
X0038871Y0006424
X0039092Y0007292
X003941Y000791
X0038696Y0007915
X0038351Y000745
X0037873Y0007914
X0037214Y0007893
X0037467Y0007347
X0037175Y000685
X0036403Y0006716
X0035937Y000603
X0035275Y0006267
X0034764Y0005807
X0034207Y0005359
X0033793Y0004709
X003356Y000408
X003332Y0003639
X0033951Y0003632
X0034153Y0004174
X0034731Y0004626
X0035945Y0004579
X0036426Y0005083
X003813Y0005131
X0037712Y000584
X003753Y0004279
X0034599Y0002789
X0034508Y0001253
X0034515Y-0000781
X0034296Y-0002403
X0033846Y-000346
X0033355Y-0003207
X0032074Y-0003176
X0031826Y-0002226
X0031803Y-0005706
X0032848Y-000545
X00338Y-0005225
X003377Y-0006175
X003472Y-0006093
X0036443Y-0006409
X0036652Y-0009861
X0036192
X0035732
X0037112
X0037572
X0038032
X0038492
X0031572Y-0009223
X0031134
X0030697Y-0009223
X003026Y-0009223
X0029822Y-0009223
X0029385Y-0009223
X0031718Y-0008832
Y-0008396
X003114Y-0006386
X0032502Y-00064
X0032427Y0001212
X0031338Y0002284
X0031492Y0002716
X0032689Y0003312
X0033161Y0003102
X0032153Y0009049
X0032261Y0009613
X0032243Y001092
X0032703
X0033163
X0033623
X0034083
X0034543
X0035003
X0035463
X0035923
X0036383
X0036843
X0031782
X0031322
X0030862
X0030402
X0029942
X0029482
X0029022
X0028562
X0028189Y00098
X0027627Y0010173
X002699Y0010061
X0026724Y0005453
X0026519Y0005029
X0026089Y0005052
X0026311Y0004599
X0026842Y0004685
X002738Y0004584
X002723Y0004995
X0026213Y0005818
X0025738Y0006196
X0025176Y0005195
X0024226Y0005206
X0023732Y0006055
X0022776Y0004575
X002234Y0003618
X0022069Y0002818
X0021632Y0002818
X0021195Y0002818
X0020757
X0020368Y0002413
X002033Y0001977
X0022429Y0001674
X0022429Y0001237
X0022497Y0002226
X0022934Y0002226
X0023372Y0002226
X0024062Y0001368
X0024344Y0001033
X0024866Y0004204
X0025766Y0003473
X0026064Y0003162
X0026384Y0002855
X0023944Y-0002575
X0022925Y-0002475
X0021045Y-0003996
X0019734Y-0003559
X0019293Y-0003584
X0019293Y-0004021
X0019293Y-0004458
X0018737Y-0004666
X0017887Y-0004666
X0014521Y-0003337
X0014083Y-0003337
X00136Y-0003156
X00136Y-0002719
X00136Y-0002281
X00136Y-0001844
X0014226Y-000182
X0014226Y-0001383
X0014226Y-0000945
X0014226Y-0000508
X0014229Y0000067
X0014229Y0000505
X0014229Y0000942
X0013556Y0001283
X0013556Y0001721
X0013556Y0002158
X0013556Y0002595
X0014089Y000276
X0014527Y000276
X0019803Y-0007561
X002024Y-0007561
X0020677Y-0007561
X0021115Y-0007561
X0021543Y-0006969
X002198Y-0006969
X0022417Y-0006969
X0023627Y-0006571
X0024043Y-0005865
X0024391Y-00056
X0024901Y-0008629
X0023475Y-00083
X0022772Y-0009161
X0021526Y-0008769
X0026047Y-0007896
X0026839Y-0008688
X0026093Y-0009646
X0030819Y0008826
X0022953Y0011133
X0022953Y0011593
X0022953Y0012053
X0022953Y0012514
M30
