G04*
G04 #@! TF.GenerationSoftware,Altium Limited,Altium Designer,20.2.6 (244)*
G04*
G04 Layer_Physical_Order=2*
G04 Layer_Color=36540*
%FSLAX43Y43*%
%MOMM*%
G71*
G04*
G04 #@! TF.SameCoordinates,C144CD18-1887-4FAA-AC2B-496F7D53F270*
G04*
G04*
G04 #@! TF.FilePolarity,Positive*
G04*
G01*
G75*
%ADD12C,0.300*%
%ADD13C,0.200*%
%ADD14C,0.100*%
%ADD79C,1.800*%
G04:AMPARAMS|DCode=80|XSize=1.8mm|YSize=1.8mm|CornerRadius=0.45mm|HoleSize=0mm|Usage=FLASHONLY|Rotation=180.000|XOffset=0mm|YOffset=0mm|HoleType=Round|Shape=RoundedRectangle|*
%AMROUNDEDRECTD80*
21,1,1.800,0.900,0,0,180.0*
21,1,0.900,1.800,0,0,180.0*
1,1,0.900,-0.450,0.450*
1,1,0.900,0.450,0.450*
1,1,0.900,0.450,-0.450*
1,1,0.900,-0.450,-0.450*
%
%ADD80ROUNDEDRECTD80*%
G04:AMPARAMS|DCode=81|XSize=1.8mm|YSize=1.8mm|CornerRadius=0.45mm|HoleSize=0mm|Usage=FLASHONLY|Rotation=270.000|XOffset=0mm|YOffset=0mm|HoleType=Round|Shape=RoundedRectangle|*
%AMROUNDEDRECTD81*
21,1,1.800,0.900,0,0,270.0*
21,1,0.900,1.800,0,0,270.0*
1,1,0.900,-0.450,-0.450*
1,1,0.900,-0.450,0.450*
1,1,0.900,0.450,0.450*
1,1,0.900,0.450,-0.450*
%
%ADD81ROUNDEDRECTD81*%
%ADD82C,0.500*%
%ADD83C,0.300*%
%ADD84C,0.650*%
G36*
X62264Y1201D02*
X58535D01*
X58138Y864D01*
X53230Y864D01*
X51514D01*
X48730Y864D01*
X48720Y-808D01*
X58138Y-808D01*
X58548Y-1140D01*
X62264D01*
Y-16725D01*
X243D01*
X243Y16807D01*
X62264D01*
Y1201D01*
D02*
G37*
%LPC*%
G36*
X26834Y16001D02*
X26834Y16001D01*
X20945D01*
X20945Y16001D01*
X20828Y15978D01*
X20729Y15911D01*
X19634Y14816D01*
X19592Y14754D01*
X19457Y14733D01*
X19390Y14820D01*
X19150Y15005D01*
X18870Y15120D01*
X18570Y15160D01*
X18270Y15120D01*
X17990Y15005D01*
X17750Y14820D01*
X17565Y14580D01*
X17450Y14300D01*
X17410Y14000D01*
X17416Y13956D01*
X17419Y13746D01*
X17412Y13550D01*
X17396Y13369D01*
X17370Y13203D01*
X17335Y13052D01*
X17292Y12917D01*
X17242Y12796D01*
X17184Y12689D01*
X17125Y12604D01*
X15716D01*
X15676Y12724D01*
X15679Y12727D01*
X15733Y12762D01*
X15784Y12790D01*
X15833Y12812D01*
X15866Y12824D01*
X15906Y12835D01*
X15921Y12838D01*
X15962Y12844D01*
X15994Y12845D01*
X16030Y12840D01*
X16330Y12880D01*
X16610Y12995D01*
X16850Y13180D01*
X17035Y13420D01*
X17150Y13700D01*
X17190Y14000D01*
X17150Y14300D01*
X17035Y14580D01*
X16850Y14820D01*
X16610Y15005D01*
X16330Y15120D01*
X16030Y15160D01*
X15730Y15120D01*
X15450Y15005D01*
X15210Y14820D01*
X15025Y14580D01*
X14910Y14300D01*
X14870Y14000D01*
X14910Y13700D01*
X15025Y13420D01*
X15114Y13305D01*
X15119Y13217D01*
X15034Y13100D01*
X15030Y13097D01*
X14389D01*
X14339Y13217D01*
X14495Y13420D01*
X14610Y13700D01*
X14650Y14000D01*
X14610Y14300D01*
X14495Y14580D01*
X14310Y14820D01*
X14070Y15005D01*
X13790Y15120D01*
X13490Y15160D01*
X13190Y15120D01*
X12910Y15005D01*
X12670Y14820D01*
X12485Y14580D01*
X12370Y14300D01*
X12358Y14211D01*
X12352Y14198D01*
X12322Y14053D01*
X12282Y13916D01*
X12230Y13777D01*
X12191Y13693D01*
X12074Y13727D01*
X12110Y14000D01*
X12070Y14300D01*
X11955Y14580D01*
X11770Y14820D01*
X11530Y15005D01*
X11250Y15120D01*
X10950Y15160D01*
X10650Y15120D01*
X10370Y15005D01*
X10130Y14820D01*
X9945Y14580D01*
X9830Y14300D01*
X9790Y14000D01*
X9795Y13962D01*
X9794Y13837D01*
X9783Y13705D01*
X9764Y13581D01*
X9736Y13463D01*
X9700Y13351D01*
X9656Y13246D01*
X9604Y13146D01*
X9542Y13051D01*
X9473Y12961D01*
X9406Y12889D01*
X9393Y12876D01*
X9390Y12871D01*
X9386Y12867D01*
X9375Y12849D01*
X9327Y12776D01*
X9303Y12659D01*
X9303Y12659D01*
Y7023D01*
X9193Y6977D01*
X8767Y7402D01*
Y11735D01*
X8770Y11864D01*
X8786Y12053D01*
X8813Y12232D01*
X8849Y12402D01*
X8896Y12563D01*
X8953Y12714D01*
X9019Y12857D01*
X9095Y12992D01*
X9181Y13118D01*
X9284Y13245D01*
X9292Y13260D01*
X9415Y13420D01*
X9530Y13700D01*
X9570Y14000D01*
X9530Y14300D01*
X9415Y14580D01*
X9230Y14820D01*
X8990Y15005D01*
X8710Y15120D01*
X8410Y15160D01*
X8110Y15120D01*
X7830Y15005D01*
X7590Y14820D01*
X7405Y14580D01*
X7290Y14300D01*
X7250Y14000D01*
X7290Y13700D01*
X7405Y13420D01*
X7528Y13260D01*
X7536Y13245D01*
X7639Y13118D01*
X7725Y12992D01*
X7801Y12857D01*
X7867Y12714D01*
X7924Y12563D01*
X7971Y12402D01*
X8007Y12232D01*
X8034Y12053D01*
X8050Y11864D01*
X8053Y11735D01*
Y7254D01*
X8080Y7118D01*
X8158Y7002D01*
X8835Y6325D01*
Y4916D01*
X8862Y4779D01*
X8940Y4663D01*
X9381Y4222D01*
Y-5460D01*
X8262Y-6579D01*
X8003D01*
X7866Y-6606D01*
X7750Y-6683D01*
X7560Y-6873D01*
X6156D01*
Y-6780D01*
X6132Y-6597D01*
X6061Y-6427D01*
X5949Y-6281D01*
X5803Y-6169D01*
X5633Y-6098D01*
X5450Y-6074D01*
X4550D01*
X4367Y-6098D01*
X4197Y-6169D01*
X4051Y-6281D01*
X3939Y-6427D01*
X3868Y-6597D01*
X3844Y-6780D01*
Y-7680D01*
X3868Y-7863D01*
X3939Y-8033D01*
X4051Y-8179D01*
X4197Y-8291D01*
X4367Y-8362D01*
X4550Y-8386D01*
X5450D01*
X5633Y-8362D01*
X5803Y-8291D01*
X5949Y-8179D01*
X6061Y-8033D01*
X6132Y-7863D01*
X6156Y-7680D01*
Y-7587D01*
X7708D01*
X7845Y-7560D01*
X7961Y-7482D01*
X8151Y-7292D01*
X8409D01*
X8546Y-7265D01*
X8662Y-7188D01*
X8978Y-6872D01*
X9088Y-6918D01*
Y-8296D01*
X9088Y-8296D01*
X9112Y-8413D01*
X9178Y-8513D01*
X10800Y-10135D01*
X10899Y-10201D01*
X11016Y-10224D01*
X11016Y-10224D01*
X11779D01*
X13311Y-11757D01*
X13410Y-11823D01*
X13527Y-11846D01*
X13527Y-11846D01*
X19406D01*
X19454Y-11966D01*
X19025Y-12368D01*
X18884Y-12487D01*
X18617Y-12688D01*
X18503Y-12763D01*
X18397Y-12823D01*
X18303Y-12868D01*
X18273Y-12879D01*
X18270Y-12880D01*
X18247Y-12889D01*
X18209Y-12903D01*
X18202Y-12908D01*
X17990Y-12995D01*
X17750Y-13180D01*
X17565Y-13420D01*
X17450Y-13700D01*
X17410Y-14000D01*
X17450Y-14300D01*
X17565Y-14580D01*
X17750Y-14820D01*
X17809Y-14865D01*
X17770Y-14979D01*
X16830D01*
X16791Y-14865D01*
X16850Y-14820D01*
X17035Y-14580D01*
X17150Y-14300D01*
X17190Y-14000D01*
X17150Y-13700D01*
X17035Y-13420D01*
X16850Y-13180D01*
X16610Y-12995D01*
X16330Y-12880D01*
X16030Y-12840D01*
X15730Y-12880D01*
X15450Y-12995D01*
X15210Y-13180D01*
X15025Y-13420D01*
X14910Y-13700D01*
X14870Y-14000D01*
X14910Y-14300D01*
X15025Y-14580D01*
X15210Y-14820D01*
X15269Y-14865D01*
X15230Y-14979D01*
X14290D01*
X14251Y-14865D01*
X14310Y-14820D01*
X14495Y-14580D01*
X14610Y-14300D01*
X14650Y-14000D01*
X14610Y-13700D01*
X14495Y-13420D01*
X14310Y-13180D01*
X14070Y-12995D01*
X13790Y-12880D01*
X13490Y-12840D01*
X13190Y-12880D01*
X12910Y-12995D01*
X12670Y-13180D01*
X12485Y-13420D01*
X12370Y-13700D01*
X12330Y-14000D01*
X12370Y-14300D01*
X12485Y-14580D01*
X12670Y-14820D01*
X12729Y-14865D01*
X12690Y-14979D01*
X11750D01*
X11711Y-14865D01*
X11770Y-14820D01*
X11955Y-14580D01*
X12070Y-14300D01*
X12110Y-14000D01*
X12070Y-13700D01*
X11955Y-13420D01*
X11770Y-13180D01*
X11530Y-12995D01*
X11250Y-12880D01*
X10950Y-12840D01*
X10650Y-12880D01*
X10370Y-12995D01*
X10130Y-13180D01*
X9945Y-13420D01*
X9830Y-13700D01*
X9790Y-14000D01*
X9830Y-14300D01*
X9945Y-14580D01*
X10130Y-14820D01*
X10189Y-14865D01*
X10150Y-14979D01*
X9508D01*
X9470Y-14931D01*
X9431Y-14870D01*
X9403Y-14815D01*
X9387Y-14768D01*
X9379Y-14726D01*
X9377Y-14688D01*
X9382Y-14652D01*
X9394Y-14614D01*
X9403Y-14595D01*
X9415Y-14580D01*
X9530Y-14300D01*
X9570Y-14000D01*
X9530Y-13700D01*
X9415Y-13420D01*
X9230Y-13180D01*
X8990Y-12995D01*
X8710Y-12880D01*
X8410Y-12840D01*
X8110Y-12880D01*
X7830Y-12995D01*
X7590Y-13180D01*
X7405Y-13420D01*
X7290Y-13700D01*
X7250Y-14000D01*
X7290Y-14300D01*
X7405Y-14580D01*
X7590Y-14820D01*
X7830Y-15005D01*
X8010Y-15079D01*
X7986Y-15199D01*
X7506D01*
X7484Y-15175D01*
X7405Y-15072D01*
X7333Y-14960D01*
X7267Y-14839D01*
X7208Y-14707D01*
X7156Y-14564D01*
X7111Y-14414D01*
X7042Y-14068D01*
X7019Y-13880D01*
X7011Y-13858D01*
X6990Y-13700D01*
X6875Y-13420D01*
X6690Y-13180D01*
X6450Y-12995D01*
X6170Y-12880D01*
X5870Y-12840D01*
X5570Y-12880D01*
X5290Y-12995D01*
X5050Y-13180D01*
X4865Y-13420D01*
X4750Y-13700D01*
X4710Y-14000D01*
X4750Y-14300D01*
X4865Y-14580D01*
X5050Y-14820D01*
X5290Y-15005D01*
X5570Y-15120D01*
X5728Y-15141D01*
X5750Y-15149D01*
X5942Y-15172D01*
X6117Y-15203D01*
X6281Y-15240D01*
X6434Y-15286D01*
X6577Y-15338D01*
X6709Y-15397D01*
X6830Y-15463D01*
X6942Y-15535D01*
X7045Y-15614D01*
X7050Y-15619D01*
X7136Y-15701D01*
X7136Y-15701D01*
X7260Y-15783D01*
X7405Y-15812D01*
Y-15811D01*
X18985D01*
X27015Y-15811D01*
X27228D01*
X27228Y-15811D01*
X27345Y-15788D01*
X27444Y-15721D01*
X27741Y-15424D01*
X27741Y-15424D01*
X27808Y-15325D01*
X27831Y-15208D01*
Y-14905D01*
X27951Y-14852D01*
X28150Y-15005D01*
X28430Y-15120D01*
X28730Y-15160D01*
X29030Y-15120D01*
X29310Y-15005D01*
X29550Y-14820D01*
X29735Y-14580D01*
X29850Y-14300D01*
X29890Y-14000D01*
X29850Y-13700D01*
X29735Y-13420D01*
X29550Y-13180D01*
X29310Y-12995D01*
X29030Y-12880D01*
X28730Y-12840D01*
X28430Y-12880D01*
X28150Y-12995D01*
X27964Y-13138D01*
X27885Y-13048D01*
X28762Y-12171D01*
X33435D01*
X33435Y-12171D01*
X33552Y-12147D01*
X33652Y-12081D01*
X34181Y-11552D01*
X34208Y-11534D01*
X34274Y-11434D01*
X34297Y-11317D01*
Y-6749D01*
X34436Y-6610D01*
X34474Y-6554D01*
X34564Y-6470D01*
X34720Y-6501D01*
X34876Y-6470D01*
X35009Y-6382D01*
X35097Y-6249D01*
X35109Y-6189D01*
X35239Y-6150D01*
X35715Y-6626D01*
X35715Y-6626D01*
X35815Y-6692D01*
X35932Y-6715D01*
X35932Y-6715D01*
X36071D01*
X36281Y-6783D01*
X36287Y-6786D01*
X36302Y-6789D01*
X36333Y-6799D01*
X36361Y-6802D01*
X36388Y-6810D01*
X36390Y-6810D01*
X36393Y-6811D01*
X36404Y-6810D01*
X36443Y-6817D01*
X36599Y-6786D01*
X36731Y-6698D01*
X36820Y-6566D01*
X36851Y-6409D01*
X36820Y-6253D01*
X36731Y-6121D01*
X36599Y-6033D01*
X36443Y-6002D01*
X36287Y-6033D01*
X36216Y-6080D01*
X36055Y-6100D01*
X33649Y-3694D01*
X33550Y-3628D01*
X33433Y-3604D01*
X33433Y-3604D01*
X33413D01*
X32830Y-3021D01*
Y-2989D01*
X32830Y-2989D01*
X32807Y-2872D01*
X32741Y-2773D01*
X32741Y-2773D01*
X32227Y-2259D01*
X32233Y-2226D01*
X32202Y-2070D01*
X32114Y-1937D01*
X31982Y-1849D01*
X31826Y-1818D01*
X31670Y-1849D01*
X31537Y-1937D01*
X31449Y-2070D01*
X31418Y-2226D01*
X31449Y-2382D01*
X31537Y-2514D01*
X31670Y-2603D01*
X31714Y-2611D01*
X31841Y-2739D01*
X31830Y-2858D01*
X31786Y-2887D01*
X31698Y-3020D01*
X31667Y-3176D01*
X31698Y-3332D01*
X31786Y-3464D01*
X31918Y-3553D01*
X31999Y-3569D01*
X32002Y-3570D01*
X32007Y-3573D01*
X32013Y-3574D01*
X32016Y-3576D01*
X32025Y-3581D01*
X32034Y-3588D01*
X32094Y-3640D01*
X32498Y-4043D01*
X32452Y-4154D01*
X32412D01*
X32412Y-4154D01*
X32295Y-4177D01*
X32196Y-4244D01*
X30473Y-5966D01*
X30407Y-6065D01*
X30384Y-6182D01*
X30384Y-6182D01*
Y-6600D01*
X30384Y-6600D01*
X30407Y-6717D01*
X30473Y-6816D01*
X32001Y-8344D01*
Y-9356D01*
X31440Y-9918D01*
X28627D01*
X28196Y-9488D01*
Y-9191D01*
X28228Y-9162D01*
X28316Y-9114D01*
X28484Y-9147D01*
X28679Y-9108D01*
X28844Y-8998D01*
X28955Y-8832D01*
X28994Y-8637D01*
X28955Y-8442D01*
X28940Y-8421D01*
X28950Y-8414D01*
X29061Y-8248D01*
X29100Y-8053D01*
X29061Y-7858D01*
X28950Y-7693D01*
X28785Y-7582D01*
X28590Y-7543D01*
X28395Y-7582D01*
X28229Y-7693D01*
X28119Y-7858D01*
X28080Y-8053D01*
X28119Y-8248D01*
X28133Y-8270D01*
X28123Y-8277D01*
X28013Y-8442D01*
X27983Y-8593D01*
X27862Y-8642D01*
X27242Y-8022D01*
X27142Y-7956D01*
X27025Y-7932D01*
X27025Y-7932D01*
X26570D01*
X26480Y-7904D01*
X26440Y-7821D01*
X26424Y-7740D01*
X26335Y-7608D01*
X26203Y-7519D01*
X26119Y-7503D01*
X26115Y-7501D01*
X26111Y-7499D01*
X26105Y-7497D01*
X26102Y-7496D01*
X26093Y-7490D01*
X26084Y-7484D01*
X26024Y-7433D01*
X25785Y-7194D01*
X25685Y-7127D01*
X25568Y-7104D01*
X25568Y-7104D01*
X23106D01*
X22997Y-7126D01*
X22409D01*
X22409Y-7126D01*
X22292Y-7149D01*
X22193Y-7215D01*
X22193Y-7215D01*
X21729Y-7680D01*
X21361D01*
X21361Y-7680D01*
X21244Y-7703D01*
X21145Y-7770D01*
X21145Y-7770D01*
X20311Y-8603D01*
X14058D01*
X11853Y-6399D01*
Y8471D01*
X14046Y10664D01*
X20370D01*
X20370Y10664D01*
X20487Y10687D01*
X20586Y10754D01*
X22796Y12964D01*
X22796Y12964D01*
X22819Y12998D01*
X22963Y13001D01*
X22985Y12970D01*
X23069Y12828D01*
X23142Y12681D01*
X23203Y12528D01*
X23254Y12368D01*
X23294Y12202D01*
X23322Y12029D01*
X23339Y11849D01*
X23344Y11689D01*
Y10901D01*
X18019Y5576D01*
X17953Y5476D01*
X17929Y5359D01*
X17929Y5359D01*
Y159D01*
X17929Y159D01*
X17953Y42D01*
X18019Y-57D01*
X19318Y-1356D01*
X19318Y-1356D01*
X19417Y-1422D01*
X19534Y-1446D01*
X19534Y-1446D01*
X21751D01*
X21996Y-1690D01*
Y-1866D01*
X21890Y-1922D01*
X21873Y-1911D01*
X21649Y-1866D01*
X21424Y-1911D01*
X21234Y-2038D01*
X21107Y-2228D01*
X21063Y-2453D01*
X21107Y-2677D01*
X21234Y-2867D01*
X21424Y-2994D01*
X21649Y-3039D01*
X21873Y-2994D01*
X22063Y-2867D01*
X22085Y-2835D01*
X22204Y-2823D01*
X22522Y-3141D01*
X22522Y-3141D01*
X22622Y-3208D01*
X22739Y-3231D01*
X23594D01*
X23594Y-3231D01*
X23711Y-3208D01*
X23811Y-3141D01*
X23917Y-3035D01*
X23956Y-3001D01*
X23970Y-2990D01*
X23982Y-2982D01*
X23991Y-2977D01*
X23994Y-2975D01*
X23994Y-2975D01*
X24000Y-2974D01*
X24004Y-2972D01*
X24010Y-2970D01*
X24100Y-2952D01*
X24233Y-2863D01*
X24321Y-2731D01*
X24352Y-2575D01*
X24321Y-2419D01*
X24233Y-2287D01*
X24100Y-2198D01*
X23944Y-2167D01*
X23788Y-2198D01*
X23656Y-2287D01*
X23568Y-2419D01*
X23550Y-2509D01*
X23547Y-2516D01*
X23546Y-2519D01*
X23545Y-2524D01*
X23504Y-2576D01*
X23502Y-2579D01*
X23471Y-2586D01*
X23416Y-2587D01*
X23328Y-2502D01*
X23333Y-2475D01*
X23302Y-2319D01*
X23251Y-2242D01*
X23248Y-2236D01*
X23246Y-2233D01*
X23243Y-2227D01*
X23243Y-2227D01*
X23242Y-2224D01*
X23240Y-2214D01*
X23237Y-2199D01*
X23234Y-2182D01*
X23231Y-2131D01*
Y-1650D01*
X23208Y-1533D01*
X23141Y-1434D01*
X22344Y-636D01*
X22245Y-570D01*
X22128Y-547D01*
X22128Y-547D01*
X20652D01*
X20587Y-427D01*
X20626Y-228D01*
X20581Y-3D01*
X20454Y187D01*
X20325Y273D01*
X20322Y416D01*
X20429Y488D01*
X20557Y678D01*
X20601Y902D01*
X20557Y1126D01*
X20429Y1317D01*
X20239Y1444D01*
X20015Y1488D01*
X19791Y1444D01*
X19600Y1317D01*
X19473Y1126D01*
X19429Y902D01*
X19473Y678D01*
X19600Y488D01*
X19730Y401D01*
X19733Y259D01*
X19625Y187D01*
X19513Y18D01*
X19382Y-21D01*
X18761Y600D01*
Y2406D01*
X18881Y2442D01*
X18923Y2379D01*
X19113Y2252D01*
X19338Y2208D01*
X19562Y2252D01*
X19752Y2379D01*
X19879Y2569D01*
X19924Y2794D01*
X19879Y3018D01*
X19752Y3208D01*
X19562Y3335D01*
X19338Y3380D01*
X19113Y3335D01*
X18923Y3208D01*
X18881Y3145D01*
X18761Y3182D01*
Y4733D01*
X22350Y8322D01*
X22470Y8273D01*
Y4919D01*
X22467Y4868D01*
X22464Y4851D01*
X22462Y4836D01*
X22459Y4826D01*
X22458Y4823D01*
X22458Y4823D01*
X22455Y4817D01*
X22454Y4814D01*
X22450Y4808D01*
X22399Y4731D01*
X22368Y4575D01*
X22399Y4419D01*
X22488Y4287D01*
X22531Y4258D01*
X22543Y4138D01*
X22461Y4056D01*
X22372Y4020D01*
X22340Y4026D01*
X22184Y3995D01*
X22052Y3907D01*
X21964Y3775D01*
X21933Y3618D01*
X21964Y3462D01*
X22052Y3330D01*
X22184Y3242D01*
X22340Y3211D01*
X22496Y3242D01*
X22629Y3330D01*
X22675Y3399D01*
X22764Y3495D01*
X22766Y3496D01*
X23982Y4712D01*
X23997Y4734D01*
X24070Y4829D01*
X24226Y4798D01*
X24382Y4829D01*
X24383Y4829D01*
X24501Y4806D01*
X24510Y4792D01*
X24537Y4765D01*
Y4532D01*
X24536Y4503D01*
X24535Y4479D01*
X24529Y4432D01*
X24527Y4423D01*
X24526Y4419D01*
X24525Y4416D01*
X24524Y4411D01*
X24490Y4360D01*
X24459Y4204D01*
X24490Y4048D01*
X24578Y3915D01*
X24710Y3827D01*
X24866Y3796D01*
X25022Y3827D01*
X25155Y3915D01*
X25243Y4048D01*
X25274Y4204D01*
X25243Y4360D01*
X25160Y4484D01*
X25158Y4490D01*
X25155Y4502D01*
X25153Y4515D01*
X25148Y4562D01*
Y4764D01*
X25176Y4787D01*
X25332Y4818D01*
X25465Y4907D01*
X25553Y5039D01*
X25584Y5195D01*
X25553Y5351D01*
X25502Y5428D01*
X25499Y5434D01*
X25498Y5437D01*
X25494Y5443D01*
X25494Y5443D01*
X25493Y5446D01*
X25491Y5456D01*
X25488Y5471D01*
X25485Y5488D01*
X25482Y5539D01*
Y6774D01*
X26290Y7582D01*
X26290Y7582D01*
X26356Y7681D01*
X26379Y7798D01*
Y7977D01*
X27059Y7977D01*
X27559Y8477D01*
X27559Y9403D01*
X27246Y9716D01*
X26532D01*
X26483Y9836D01*
X27464Y10818D01*
X28034D01*
X28035Y10818D01*
X28152Y10841D01*
X28251Y10907D01*
X28436Y11093D01*
X37422Y11093D01*
X37540Y11093D01*
X37541Y11091D01*
X37542Y11091D01*
X37544Y11093D01*
X41768D01*
Y11092D01*
X41782Y11093D01*
X41894Y11094D01*
X41903Y11096D01*
X41903Y11097D01*
X41904Y11098D01*
X42524Y11102D01*
X42525Y11102D01*
X42525Y11100D01*
X42527Y11100D01*
X42529Y11102D01*
X46637D01*
X46638Y11102D01*
X46638Y11102D01*
X46887Y11103D01*
X46888Y11102D01*
X46888Y11100D01*
X46889Y11101D01*
X46891Y11103D01*
X48957D01*
Y11101D01*
X49113Y11132D01*
X49246Y11220D01*
X49244Y11222D01*
X49244Y11222D01*
X50172Y12150D01*
X50288Y12259D01*
X50428Y12374D01*
X50570Y12476D01*
X50716Y12566D01*
X50865Y12643D01*
X51017Y12708D01*
X51172Y12761D01*
X51332Y12801D01*
X51496Y12830D01*
X51673Y12848D01*
X51689Y12853D01*
X51890Y12880D01*
X52170Y12995D01*
X52410Y13180D01*
X52595Y13420D01*
X52710Y13700D01*
X52750Y14000D01*
X52710Y14300D01*
X52595Y14580D01*
X52410Y14820D01*
X52170Y15005D01*
X51890Y15120D01*
X51590Y15160D01*
X51290Y15120D01*
X51010Y15005D01*
X50770Y14820D01*
X50585Y14580D01*
X50470Y14300D01*
X50443Y14099D01*
X50438Y14083D01*
X50420Y13906D01*
X50391Y13742D01*
X50351Y13582D01*
X50298Y13427D01*
X50233Y13275D01*
X50156Y13126D01*
X50066Y12980D01*
X49964Y12838D01*
X49849Y12698D01*
X49740Y12582D01*
X48872Y11715D01*
X47354D01*
X47308Y11825D01*
X47632Y12150D01*
X47748Y12259D01*
X47888Y12374D01*
X48030Y12476D01*
X48176Y12566D01*
X48325Y12643D01*
X48477Y12708D01*
X48632Y12761D01*
X48792Y12801D01*
X48956Y12830D01*
X49133Y12848D01*
X49149Y12853D01*
X49350Y12880D01*
X49630Y12995D01*
X49870Y13180D01*
X50055Y13420D01*
X50170Y13700D01*
X50210Y14000D01*
X50170Y14300D01*
X50055Y14580D01*
X49870Y14820D01*
X49630Y15005D01*
X49350Y15120D01*
X49050Y15160D01*
X48750Y15120D01*
X48470Y15005D01*
X48230Y14820D01*
X48045Y14580D01*
X47930Y14300D01*
X47903Y14099D01*
X47898Y14083D01*
X47880Y13906D01*
X47851Y13742D01*
X47811Y13582D01*
X47758Y13427D01*
X47693Y13275D01*
X47616Y13126D01*
X47526Y12980D01*
X47424Y12838D01*
X47309Y12698D01*
X47200Y12582D01*
X46552Y11934D01*
X42637D01*
X42527Y11936D01*
X42527Y11938D01*
X42518Y11936D01*
X42454Y12030D01*
X42447Y12045D01*
X42552Y12150D01*
X42668Y12259D01*
X42808Y12374D01*
X42950Y12476D01*
X43096Y12566D01*
X43245Y12643D01*
X43397Y12708D01*
X43552Y12761D01*
X43712Y12801D01*
X43876Y12830D01*
X44053Y12848D01*
X44069Y12853D01*
X44270Y12880D01*
X44550Y12995D01*
X44790Y13180D01*
X44975Y13420D01*
X45090Y13700D01*
X45130Y14000D01*
X45090Y14300D01*
X44975Y14580D01*
X44790Y14820D01*
X44550Y15005D01*
X44270Y15120D01*
X43970Y15160D01*
X43670Y15120D01*
X43390Y15005D01*
X43150Y14820D01*
X42965Y14580D01*
X42850Y14300D01*
X42823Y14099D01*
X42818Y14083D01*
X42800Y13906D01*
X42771Y13742D01*
X42731Y13582D01*
X42678Y13427D01*
X42613Y13275D01*
X42536Y13126D01*
X42446Y12980D01*
X42344Y12838D01*
X42229Y12698D01*
X42120Y12582D01*
X41683Y12145D01*
X40189D01*
X40136Y12246D01*
X40136Y12265D01*
X40268Y12374D01*
X40410Y12476D01*
X40556Y12566D01*
X40705Y12643D01*
X40857Y12708D01*
X41012Y12761D01*
X41172Y12801D01*
X41336Y12830D01*
X41513Y12848D01*
X41529Y12853D01*
X41730Y12880D01*
X42010Y12995D01*
X42250Y13180D01*
X42435Y13420D01*
X42550Y13700D01*
X42590Y14000D01*
X42550Y14300D01*
X42435Y14580D01*
X42250Y14820D01*
X42010Y15005D01*
X41730Y15120D01*
X41430Y15160D01*
X41130Y15120D01*
X40850Y15005D01*
X40610Y14820D01*
X40425Y14580D01*
X40310Y14300D01*
X40283Y14099D01*
X40278Y14083D01*
X40260Y13906D01*
X40231Y13742D01*
X40191Y13582D01*
X40138Y13427D01*
X40073Y13275D01*
X39996Y13126D01*
X39906Y12980D01*
X39804Y12838D01*
X39689Y12698D01*
X39580Y12582D01*
X39367Y12369D01*
X38153D01*
X38117Y12489D01*
X38182Y12532D01*
X38322Y12612D01*
X38465Y12682D01*
X38610Y12741D01*
X38758Y12790D01*
X38910Y12829D01*
X39073Y12860D01*
X39089Y12866D01*
X39190Y12880D01*
X39470Y12995D01*
X39710Y13180D01*
X39895Y13420D01*
X40010Y13700D01*
X40050Y14000D01*
X40010Y14300D01*
X39895Y14580D01*
X39710Y14820D01*
X39470Y15005D01*
X39190Y15120D01*
X38890Y15160D01*
X38590Y15120D01*
X38310Y15005D01*
X38070Y14820D01*
X37885Y14580D01*
X37770Y14300D01*
X37730Y14000D01*
X37734Y13974D01*
X37728Y13818D01*
X37710Y13634D01*
X37681Y13461D01*
X37643Y13298D01*
X37596Y13147D01*
X37538Y13006D01*
X37472Y12875D01*
X37396Y12753D01*
X37311Y12641D01*
X37271Y12597D01*
X35810D01*
X35789Y12717D01*
X35938Y12759D01*
X36287Y12828D01*
X36479Y12852D01*
X36502Y12860D01*
X36650Y12880D01*
X36930Y12995D01*
X37170Y13180D01*
X37355Y13420D01*
X37470Y13700D01*
X37510Y14000D01*
X37470Y14300D01*
X37355Y14580D01*
X37170Y14820D01*
X36930Y15005D01*
X36650Y15120D01*
X36350Y15160D01*
X36050Y15120D01*
X35770Y15005D01*
X35530Y14820D01*
X35345Y14580D01*
X35230Y14300D01*
X35210Y14154D01*
X35203Y14134D01*
X35146Y13753D01*
X35110Y13591D01*
X35067Y13439D01*
X35018Y13299D01*
X34964Y13171D01*
X34905Y13056D01*
X34841Y12953D01*
X34773Y12862D01*
X34755Y12843D01*
X34335D01*
X34311Y12963D01*
X34390Y12995D01*
X34630Y13180D01*
X34815Y13420D01*
X34930Y13700D01*
X34970Y14000D01*
X34930Y14300D01*
X34815Y14580D01*
X34630Y14820D01*
X34390Y15005D01*
X34110Y15120D01*
X33810Y15160D01*
X33759Y15153D01*
X33532Y15204D01*
X33529Y15204D01*
X33526Y15205D01*
X33024Y15305D01*
X33016Y15305D01*
X33009Y15307D01*
X32944Y15317D01*
X32879Y15368D01*
X32815Y15428D01*
X32799Y15444D01*
X32795Y15447D01*
X32792Y15449D01*
X32776Y15459D01*
X32700Y15510D01*
X32583Y15533D01*
X32583Y15533D01*
X27429D01*
X27051Y15911D01*
X26951Y15978D01*
X26834Y16001D01*
D02*
G37*
G36*
X54580Y15156D02*
X54255D01*
Y14125D01*
X55286D01*
Y14450D01*
X55262Y14633D01*
X55191Y14803D01*
X55079Y14949D01*
X54933Y15061D01*
X54763Y15132D01*
X54580Y15156D01*
D02*
G37*
G36*
X46635Y15143D02*
Y14125D01*
X47653D01*
X47630Y14300D01*
X47515Y14580D01*
X47330Y14820D01*
X47090Y15005D01*
X46810Y15120D01*
X46635Y15143D01*
D02*
G37*
G36*
X46385Y15143D02*
X46210Y15120D01*
X45930Y15005D01*
X45690Y14820D01*
X45505Y14580D01*
X45390Y14300D01*
X45367Y14125D01*
X46385D01*
Y15143D01*
D02*
G37*
G36*
X54005Y15156D02*
X53680D01*
X53497Y15132D01*
X53327Y15061D01*
X53181Y14949D01*
X53069Y14803D01*
X52998Y14633D01*
X52974Y14450D01*
Y14125D01*
X54005D01*
Y15156D01*
D02*
G37*
G36*
X47653Y13875D02*
X46635D01*
Y12857D01*
X46810Y12880D01*
X47090Y12995D01*
X47330Y13180D01*
X47515Y13420D01*
X47630Y13700D01*
X47653Y13875D01*
D02*
G37*
G36*
X46385D02*
X45367D01*
X45390Y13700D01*
X45505Y13420D01*
X45690Y13180D01*
X45930Y12995D01*
X46210Y12880D01*
X46385Y12857D01*
Y13875D01*
D02*
G37*
G36*
X55286D02*
X54255D01*
Y12844D01*
X54580D01*
X54763Y12868D01*
X54933Y12939D01*
X55079Y13051D01*
X55191Y13197D01*
X55262Y13367D01*
X55286Y13550D01*
Y13875D01*
D02*
G37*
G36*
X54005D02*
X52974D01*
Y13550D01*
X52998Y13367D01*
X53069Y13197D01*
X53181Y13051D01*
X53327Y12939D01*
X53497Y12868D01*
X53680Y12844D01*
X54005D01*
Y13875D01*
D02*
G37*
G36*
X5870Y15160D02*
X5570Y15120D01*
X5290Y15005D01*
X5050Y14820D01*
X4865Y14580D01*
X4750Y14300D01*
X4710Y14000D01*
X4750Y13700D01*
X4865Y13420D01*
X5050Y13180D01*
X5290Y12995D01*
X5570Y12880D01*
X5870Y12840D01*
X6170Y12880D01*
X6450Y12995D01*
X6690Y13180D01*
X6875Y13420D01*
X6990Y13700D01*
X7030Y14000D01*
X6990Y14300D01*
X6875Y14580D01*
X6690Y14820D01*
X6450Y15005D01*
X6170Y15120D01*
X5870Y15160D01*
D02*
G37*
G36*
X5450Y10926D02*
X4550D01*
X4367Y10902D01*
X4197Y10831D01*
X4051Y10719D01*
X3939Y10573D01*
X3868Y10403D01*
X3844Y10220D01*
Y9320D01*
X3868Y9137D01*
X3939Y8967D01*
X4051Y8821D01*
X4197Y8709D01*
X4367Y8638D01*
X4550Y8614D01*
X5450D01*
X5633Y8638D01*
X5803Y8709D01*
X5949Y8821D01*
X6061Y8967D01*
X6132Y9137D01*
X6156Y9320D01*
Y10220D01*
X6132Y10403D01*
X6061Y10573D01*
X5949Y10719D01*
X5803Y10831D01*
X5633Y10902D01*
X5450Y10926D01*
D02*
G37*
G36*
X45367Y8421D02*
X45142Y8377D01*
X44952Y8250D01*
X44825Y8059D01*
X44781Y7835D01*
X44825Y7611D01*
X44952Y7420D01*
X45142Y7293D01*
X45367Y7249D01*
X45591Y7293D01*
X45781Y7420D01*
X45908Y7611D01*
X45953Y7835D01*
X45908Y8059D01*
X45781Y8250D01*
X45591Y8377D01*
X45367Y8421D01*
D02*
G37*
G36*
X5000Y8390D02*
X4700Y8350D01*
X4420Y8235D01*
X4180Y8050D01*
X3995Y7810D01*
X3880Y7530D01*
X3840Y7230D01*
X3880Y6930D01*
X3995Y6650D01*
X4180Y6410D01*
X4420Y6225D01*
X4700Y6110D01*
X5000Y6070D01*
X5300Y6110D01*
X5580Y6225D01*
X5820Y6410D01*
X6005Y6650D01*
X6120Y6930D01*
X6160Y7230D01*
X6120Y7530D01*
X6005Y7810D01*
X5820Y8050D01*
X5580Y8235D01*
X5300Y8350D01*
X5000Y8390D01*
D02*
G37*
G36*
X45405Y7034D02*
X45180Y6989D01*
X44990Y6862D01*
X44863Y6672D01*
X44819Y6448D01*
X44863Y6223D01*
X44990Y6033D01*
X45180Y5906D01*
X45405Y5861D01*
X45629Y5906D01*
X45819Y6033D01*
X45946Y6223D01*
X45991Y6448D01*
X45946Y6672D01*
X45819Y6862D01*
X45629Y6989D01*
X45405Y7034D01*
D02*
G37*
G36*
X21423Y6242D02*
X21199Y6198D01*
X21008Y6071D01*
X20881Y5880D01*
X20837Y5656D01*
X20881Y5432D01*
X21008Y5242D01*
X21199Y5114D01*
X21423Y5070D01*
X21647Y5114D01*
X21837Y5242D01*
X21965Y5432D01*
X22009Y5656D01*
X21965Y5880D01*
X21837Y6071D01*
X21647Y6198D01*
X21423Y6242D01*
D02*
G37*
G36*
X27309Y6735D02*
X27240Y6707D01*
X27194Y6661D01*
X27187Y6654D01*
X27187Y6654D01*
X27158Y6585D01*
X27158Y6547D01*
X27158Y6547D01*
X27158Y6547D01*
X27158Y5251D01*
X27569Y4840D01*
X29378Y4840D01*
X29457Y4872D01*
X29518Y4933D01*
X29551Y5012D01*
X29551Y5055D01*
X29551Y5055D01*
X29551Y6575D01*
X29551Y6607D01*
X29526Y6666D01*
X29481Y6711D01*
X29481Y6711D01*
X29422Y6735D01*
X29391Y6735D01*
X29391Y6735D01*
X29391Y6735D01*
X29271Y6735D01*
X27309Y6735D01*
D02*
G37*
G36*
X32569Y10098D02*
Y8961D01*
X30364Y6736D01*
X30364Y3066D01*
X32447D01*
X34760Y6536D01*
X34760Y10098D01*
X32569Y10098D01*
D02*
G37*
G36*
X26219Y4426D02*
X26144Y4394D01*
X26086Y4336D01*
X26054Y4261D01*
X26054Y4220D01*
X26054Y4220D01*
X26054Y3410D01*
X26511Y2953D01*
X27996Y2953D01*
X28033Y2953D01*
X28106Y2967D01*
X28175Y2996D01*
X28237Y3037D01*
X28263Y3063D01*
X28263D01*
X28459Y3260D01*
X28473Y3273D01*
X28494Y3305D01*
X28508Y3340D01*
X28516Y3377D01*
Y3396D01*
X28516Y3396D01*
X28516Y4295D01*
X28491Y4355D01*
X28445Y4401D01*
X28445Y4401D01*
X28385Y4426D01*
X28353Y4426D01*
X28352Y4426D01*
X28352Y4426D01*
X28233Y4426D01*
X26260Y4426D01*
X26219Y4426D01*
D02*
G37*
G36*
X39885Y1893D02*
X37357Y1893D01*
X37357Y815D01*
X35034Y815D01*
X35026Y-377D01*
X35578Y-929D01*
X46007Y-903D01*
X46007Y865D01*
X39885Y865D01*
Y1893D01*
D02*
G37*
G36*
X21940Y-3787D02*
X21716Y-3832D01*
X21526Y-3959D01*
X21398Y-4149D01*
X21354Y-4374D01*
X21398Y-4598D01*
X21526Y-4788D01*
X21716Y-4915D01*
X21940Y-4960D01*
X22164Y-4915D01*
X22355Y-4788D01*
X22482Y-4598D01*
X22526Y-4374D01*
X22482Y-4149D01*
X22355Y-3959D01*
X22164Y-3832D01*
X21940Y-3787D01*
D02*
G37*
G36*
X45398Y-4145D02*
X45174Y-4189D01*
X44984Y-4316D01*
X44857Y-4507D01*
X44812Y-4731D01*
X44857Y-4955D01*
X44984Y-5145D01*
X45174Y-5273D01*
X45398Y-5317D01*
X45623Y-5273D01*
X45813Y-5145D01*
X45940Y-4955D01*
X45985Y-4731D01*
X45940Y-4507D01*
X45813Y-4316D01*
X45623Y-4189D01*
X45398Y-4145D01*
D02*
G37*
G36*
X23086Y-5315D02*
X22862Y-5359D01*
X22672Y-5486D01*
X22544Y-5676D01*
X22500Y-5901D01*
X22544Y-6125D01*
X22672Y-6315D01*
X22862Y-6442D01*
X23086Y-6487D01*
X23310Y-6442D01*
X23501Y-6315D01*
X23628Y-6125D01*
X23672Y-5901D01*
X23628Y-5676D01*
X23501Y-5486D01*
X23310Y-5359D01*
X23086Y-5315D01*
D02*
G37*
G36*
X15866Y-4433D02*
X15642Y-4477D01*
X15452Y-4605D01*
X15326Y-4792D01*
X14987D01*
X15008Y-6607D01*
X16887D01*
Y-6434D01*
X17059Y-6320D01*
X17186Y-6129D01*
X17230Y-5905D01*
X17186Y-5681D01*
X17059Y-5490D01*
X16887Y-5376D01*
Y-4792D01*
X16406D01*
X16281Y-4605D01*
X16091Y-4477D01*
X15866Y-4433D01*
D02*
G37*
G36*
X45402Y-5643D02*
X45177Y-5688D01*
X44987Y-5815D01*
X44860Y-6005D01*
X44816Y-6230D01*
X44860Y-6454D01*
X44987Y-6644D01*
X45177Y-6771D01*
X45402Y-6816D01*
X45626Y-6771D01*
X45816Y-6644D01*
X45943Y-6454D01*
X45988Y-6230D01*
X45943Y-6005D01*
X45816Y-5815D01*
X45626Y-5688D01*
X45402Y-5643D01*
D02*
G37*
G36*
X19209Y-4751D02*
X18985Y-4795D01*
X18795Y-4923D01*
X18668Y-5113D01*
X18623Y-5337D01*
X18668Y-5561D01*
X18778Y-5726D01*
X18782Y-5867D01*
X18778Y-5870D01*
X18651Y-6060D01*
X18606Y-6285D01*
X18651Y-6509D01*
X18778Y-6699D01*
X18968Y-6826D01*
X19192Y-6871D01*
X19417Y-6826D01*
X19607Y-6699D01*
X19734Y-6509D01*
X19779Y-6285D01*
X19734Y-6060D01*
X19624Y-5896D01*
X19620Y-5755D01*
X19624Y-5752D01*
X19751Y-5561D01*
X19796Y-5337D01*
X19751Y-5113D01*
X19624Y-4923D01*
X19434Y-4795D01*
X19209Y-4751D01*
D02*
G37*
G36*
X5000Y-8610D02*
X4700Y-8650D01*
X4420Y-8765D01*
X4180Y-8950D01*
X3995Y-9190D01*
X3880Y-9470D01*
X3840Y-9770D01*
X3880Y-10070D01*
X3995Y-10350D01*
X4180Y-10590D01*
X4420Y-10775D01*
X4700Y-10890D01*
X5000Y-10930D01*
X5300Y-10890D01*
X5580Y-10775D01*
X5820Y-10590D01*
X6005Y-10350D01*
X6120Y-10070D01*
X6160Y-9770D01*
X6120Y-9470D01*
X6005Y-9190D01*
X5820Y-8950D01*
X5580Y-8765D01*
X5300Y-8650D01*
X5000Y-8610D01*
D02*
G37*
G36*
X51715Y-12857D02*
Y-13875D01*
X52733D01*
X52710Y-13700D01*
X52595Y-13420D01*
X52410Y-13180D01*
X52170Y-12995D01*
X51890Y-12880D01*
X51715Y-12857D01*
D02*
G37*
G36*
X39015D02*
Y-13875D01*
X40033D01*
X40010Y-13700D01*
X39895Y-13420D01*
X39710Y-13180D01*
X39470Y-12995D01*
X39190Y-12880D01*
X39015Y-12857D01*
D02*
G37*
G36*
X31395D02*
Y-13875D01*
X32413D01*
X32390Y-13700D01*
X32275Y-13420D01*
X32090Y-13180D01*
X31850Y-12995D01*
X31570Y-12880D01*
X31395Y-12857D01*
D02*
G37*
G36*
X54580Y-12844D02*
X54255D01*
Y-13875D01*
X55286D01*
Y-13550D01*
X55262Y-13367D01*
X55191Y-13197D01*
X55079Y-13051D01*
X54933Y-12939D01*
X54763Y-12868D01*
X54580Y-12844D01*
D02*
G37*
G36*
X41555Y-12857D02*
Y-13875D01*
X42573D01*
X42550Y-13700D01*
X42435Y-13420D01*
X42250Y-13180D01*
X42010Y-12995D01*
X41730Y-12880D01*
X41555Y-12857D01*
D02*
G37*
G36*
X36475D02*
Y-13875D01*
X37493D01*
X37470Y-13700D01*
X37355Y-13420D01*
X37170Y-13180D01*
X36930Y-12995D01*
X36650Y-12880D01*
X36475Y-12857D01*
D02*
G37*
G36*
X46635D02*
Y-13875D01*
X47653D01*
X47630Y-13700D01*
X47515Y-13420D01*
X47330Y-13180D01*
X47090Y-12995D01*
X46810Y-12880D01*
X46635Y-12857D01*
D02*
G37*
G36*
X44095D02*
Y-13875D01*
X45113D01*
X45090Y-13700D01*
X44975Y-13420D01*
X44790Y-13180D01*
X44550Y-12995D01*
X44270Y-12880D01*
X44095Y-12857D01*
D02*
G37*
G36*
X46385Y-12857D02*
X46210Y-12880D01*
X45930Y-12995D01*
X45690Y-13180D01*
X45505Y-13420D01*
X45390Y-13700D01*
X45367Y-13875D01*
X46385D01*
Y-12857D01*
D02*
G37*
G36*
X43845D02*
X43670Y-12880D01*
X43390Y-12995D01*
X43150Y-13180D01*
X42965Y-13420D01*
X42850Y-13700D01*
X42827Y-13875D01*
X43845D01*
Y-12857D01*
D02*
G37*
G36*
X38765D02*
X38590Y-12880D01*
X38310Y-12995D01*
X38070Y-13180D01*
X37885Y-13420D01*
X37770Y-13700D01*
X37747Y-13875D01*
X38765D01*
Y-12857D01*
D02*
G37*
G36*
X51465D02*
X51290Y-12880D01*
X51010Y-12995D01*
X50770Y-13180D01*
X50585Y-13420D01*
X50470Y-13700D01*
X50447Y-13875D01*
X51465D01*
Y-12857D01*
D02*
G37*
G36*
X36225D02*
X36050Y-12880D01*
X35770Y-12995D01*
X35530Y-13180D01*
X35345Y-13420D01*
X35230Y-13700D01*
X35207Y-13875D01*
X36225D01*
Y-12857D01*
D02*
G37*
G36*
X31145D02*
X30970Y-12880D01*
X30690Y-12995D01*
X30450Y-13180D01*
X30265Y-13420D01*
X30150Y-13700D01*
X30127Y-13875D01*
X31145D01*
Y-12857D01*
D02*
G37*
G36*
X41305D02*
X41130Y-12880D01*
X40850Y-12995D01*
X40610Y-13180D01*
X40425Y-13420D01*
X40310Y-13700D01*
X40287Y-13875D01*
X41305D01*
Y-12857D01*
D02*
G37*
G36*
X54005Y-12844D02*
X53680D01*
X53497Y-12868D01*
X53327Y-12939D01*
X53181Y-13051D01*
X53069Y-13197D01*
X52998Y-13367D01*
X52974Y-13550D01*
Y-13875D01*
X54005D01*
Y-12844D01*
D02*
G37*
G36*
X52733Y-14125D02*
X51715D01*
Y-15143D01*
X51890Y-15120D01*
X52170Y-15005D01*
X52410Y-14820D01*
X52595Y-14580D01*
X52710Y-14300D01*
X52733Y-14125D01*
D02*
G37*
G36*
X42573D02*
X41555D01*
Y-15143D01*
X41730Y-15120D01*
X42010Y-15005D01*
X42250Y-14820D01*
X42435Y-14580D01*
X42550Y-14300D01*
X42573Y-14125D01*
D02*
G37*
G36*
X40033D02*
X39015D01*
Y-15143D01*
X39190Y-15120D01*
X39470Y-15005D01*
X39710Y-14820D01*
X39895Y-14580D01*
X40010Y-14300D01*
X40033Y-14125D01*
D02*
G37*
G36*
X37493D02*
X36475D01*
Y-15143D01*
X36650Y-15120D01*
X36930Y-15005D01*
X37170Y-14820D01*
X37355Y-14580D01*
X37470Y-14300D01*
X37493Y-14125D01*
D02*
G37*
G36*
X32413D02*
X31395D01*
Y-15143D01*
X31570Y-15120D01*
X31850Y-15005D01*
X32090Y-14820D01*
X32275Y-14580D01*
X32390Y-14300D01*
X32413Y-14125D01*
D02*
G37*
G36*
X47653D02*
X46635D01*
Y-15143D01*
X46810Y-15120D01*
X47090Y-15005D01*
X47330Y-14820D01*
X47515Y-14580D01*
X47630Y-14300D01*
X47653Y-14125D01*
D02*
G37*
G36*
X45113D02*
X44095D01*
Y-15143D01*
X44270Y-15120D01*
X44550Y-15005D01*
X44790Y-14820D01*
X44975Y-14580D01*
X45090Y-14300D01*
X45113Y-14125D01*
D02*
G37*
G36*
X46385D02*
X45367D01*
X45390Y-14300D01*
X45505Y-14580D01*
X45690Y-14820D01*
X45930Y-15005D01*
X46210Y-15120D01*
X46385Y-15143D01*
Y-14125D01*
D02*
G37*
G36*
X43845D02*
X42827D01*
X42850Y-14300D01*
X42965Y-14580D01*
X43150Y-14820D01*
X43390Y-15005D01*
X43670Y-15120D01*
X43845Y-15143D01*
Y-14125D01*
D02*
G37*
G36*
X51465D02*
X50447D01*
X50470Y-14300D01*
X50585Y-14580D01*
X50770Y-14820D01*
X51010Y-15005D01*
X51290Y-15120D01*
X51465Y-15143D01*
Y-14125D01*
D02*
G37*
G36*
X41305D02*
X40287D01*
X40310Y-14300D01*
X40425Y-14580D01*
X40610Y-14820D01*
X40850Y-15005D01*
X41130Y-15120D01*
X41305Y-15143D01*
Y-14125D01*
D02*
G37*
G36*
X38765D02*
X37747D01*
X37770Y-14300D01*
X37885Y-14580D01*
X38070Y-14820D01*
X38310Y-15005D01*
X38590Y-15120D01*
X38765Y-15143D01*
Y-14125D01*
D02*
G37*
G36*
X36225D02*
X35207D01*
X35230Y-14300D01*
X35345Y-14580D01*
X35530Y-14820D01*
X35770Y-15005D01*
X36050Y-15120D01*
X36225Y-15143D01*
Y-14125D01*
D02*
G37*
G36*
X31145D02*
X30127D01*
X30150Y-14300D01*
X30265Y-14580D01*
X30450Y-14820D01*
X30690Y-15005D01*
X30970Y-15120D01*
X31145Y-15143D01*
Y-14125D01*
D02*
G37*
G36*
X55286D02*
X54255D01*
Y-15156D01*
X54580D01*
X54763Y-15132D01*
X54933Y-15061D01*
X55079Y-14949D01*
X55191Y-14803D01*
X55262Y-14633D01*
X55286Y-14450D01*
Y-14125D01*
D02*
G37*
G36*
X54005D02*
X52974D01*
Y-14450D01*
X52998Y-14633D01*
X53069Y-14803D01*
X53181Y-14949D01*
X53327Y-15061D01*
X53497Y-15132D01*
X53680Y-15156D01*
X54005D01*
Y-14125D01*
D02*
G37*
G36*
X48584Y-10846D02*
X48360Y-10890D01*
X48169Y-11018D01*
X48042Y-11208D01*
X47998Y-11432D01*
X48042Y-11656D01*
X48130Y-11788D01*
X48160Y-11876D01*
X48130Y-11965D01*
X48042Y-12096D01*
X47998Y-12320D01*
X48042Y-12545D01*
X48169Y-12735D01*
X48360Y-12862D01*
X48440Y-12878D01*
X48460Y-12958D01*
X48459Y-13004D01*
X48230Y-13180D01*
X48045Y-13420D01*
X47930Y-13700D01*
X47890Y-14000D01*
X47930Y-14300D01*
X48045Y-14580D01*
X48230Y-14820D01*
X48470Y-15005D01*
X48750Y-15120D01*
X49050Y-15160D01*
X49350Y-15120D01*
X49630Y-15005D01*
X49870Y-14820D01*
X50055Y-14580D01*
X50170Y-14300D01*
X50210Y-14000D01*
X50170Y-13700D01*
X50055Y-13420D01*
X49870Y-13180D01*
X49630Y-12995D01*
X49350Y-12880D01*
X49056Y-12841D01*
X49036Y-12812D01*
X49021Y-12782D01*
X49005Y-12725D01*
X49126Y-12545D01*
X49170Y-12320D01*
X49126Y-12096D01*
X49038Y-11965D01*
X49008Y-11876D01*
X49038Y-11788D01*
X49126Y-11656D01*
X49170Y-11432D01*
X49126Y-11208D01*
X48999Y-11018D01*
X48808Y-10890D01*
X48584Y-10846D01*
D02*
G37*
G36*
X33810Y-12840D02*
X33510Y-12880D01*
X33230Y-12995D01*
X32990Y-13180D01*
X32805Y-13420D01*
X32690Y-13700D01*
X32650Y-14000D01*
X32690Y-14300D01*
X32805Y-14580D01*
X32990Y-14820D01*
X33230Y-15005D01*
X33510Y-15120D01*
X33810Y-15160D01*
X34110Y-15120D01*
X34390Y-15005D01*
X34630Y-14820D01*
X34815Y-14580D01*
X34930Y-14300D01*
X34970Y-14000D01*
X34930Y-13700D01*
X34815Y-13420D01*
X34630Y-13180D01*
X34390Y-12995D01*
X34110Y-12880D01*
X33810Y-12840D01*
D02*
G37*
%LPD*%
G36*
X25963Y15218D02*
X26004Y15195D01*
X26062Y15157D01*
X26475Y14854D01*
X26789Y14613D01*
X25402Y14241D01*
X25839Y15192D01*
X25935Y15218D01*
X25940Y15225D01*
X25963Y15218D01*
D02*
G37*
G36*
X32713Y15174D02*
X32810Y15097D01*
X32856Y15067D01*
X32858Y15068D01*
X32905Y15065D01*
X32974Y15055D01*
X33476Y14955D01*
X34153Y14804D01*
X33046Y13581D01*
X32928Y14155D01*
X32922Y14149D01*
X32925Y14171D01*
X32774Y14908D01*
X32713Y15000D01*
X32636Y15097D01*
X32547Y15192D01*
X32618Y15263D01*
X32713Y15174D01*
D02*
G37*
G36*
X28424Y13154D02*
X28354Y13174D01*
X28283Y13184D01*
X28212Y13183D01*
X28139Y13173D01*
X28066Y13152D01*
X27993Y13121D01*
X27918Y13080D01*
X27843Y13028D01*
X27767Y12967D01*
X27690Y12895D01*
X27620Y12965D01*
X27692Y13042D01*
X27753Y13118D01*
X27805Y13193D01*
X27846Y13268D01*
X27878Y13342D01*
X27899Y13415D01*
X27910Y13487D01*
X27910Y13559D01*
X27901Y13630D01*
X27881Y13701D01*
X28424Y13154D01*
D02*
G37*
G36*
X31070Y13122D02*
X30908Y13153D01*
X30751Y13169D01*
X30599Y13170D01*
X30454Y13158D01*
X30315Y13130D01*
X30182Y13088D01*
X30054Y13032D01*
X29932Y12961D01*
X29817Y12876D01*
X29707Y12776D01*
X29636Y12847D01*
X29741Y12958D01*
X29840Y13076D01*
X29933Y13199D01*
X30019Y13329D01*
X30098Y13464D01*
X30171Y13605D01*
X30298Y13905D01*
X30352Y14064D01*
X30400Y14229D01*
X31070Y13122D01*
D02*
G37*
G36*
X16503Y13263D02*
X15970Y13117D01*
X16008Y13100D01*
X15941Y13098D01*
X15874Y13089D01*
X15843Y13082D01*
X15790Y13067D01*
X15738Y13049D01*
X15670Y13018D01*
X15601Y12980D01*
X15532Y12935D01*
X15462Y12883D01*
X15393Y12823D01*
X15322Y12756D01*
X15252Y12827D01*
X15314Y12893D01*
X15365Y12956D01*
X15405Y13017D01*
X15417Y13040D01*
X15412Y13043D01*
X15403Y13042D01*
X15395Y13065D01*
X15386Y13111D01*
X15377Y13180D01*
X15344Y13691D01*
X15327Y14086D01*
X16503Y13263D01*
D02*
G37*
G36*
X10931Y13100D02*
X10775Y13099D01*
X10626Y13087D01*
X10482Y13064D01*
X10344Y13032D01*
X10213Y12990D01*
X10087Y12937D01*
X9968Y12874D01*
X9854Y12801D01*
X9746Y12717D01*
X9645Y12624D01*
X9574Y12695D01*
X9667Y12796D01*
X9751Y12904D01*
X9824Y13018D01*
X9887Y13137D01*
X9940Y13263D01*
X9982Y13394D01*
X10014Y13532D01*
X10037Y13676D01*
X10049Y13825D01*
X10050Y13981D01*
X10931Y13100D01*
D02*
G37*
G36*
X36446Y13105D02*
X36246Y13079D01*
X35879Y13007D01*
X35712Y12960D01*
X35557Y12906D01*
X35413Y12845D01*
X35281Y12777D01*
X35160Y12702D01*
X35050Y12620D01*
X34951Y12531D01*
X34881Y12601D01*
X34970Y12700D01*
X35052Y12810D01*
X35127Y12931D01*
X35195Y13063D01*
X35256Y13207D01*
X35310Y13362D01*
X35357Y13529D01*
X35397Y13706D01*
X35455Y14096D01*
X36446Y13105D01*
D02*
G37*
G36*
X13464Y13100D02*
X13251Y13100D01*
X13046Y13086D01*
X12851Y13058D01*
X12664Y13016D01*
X12486Y12961D01*
X12316Y12892D01*
X12155Y12810D01*
X12003Y12713D01*
X11860Y12603D01*
X11725Y12480D01*
X11672Y12569D01*
X11826Y12729D01*
X12093Y13047D01*
X12206Y13206D01*
X12306Y13364D01*
X12392Y13521D01*
X12465Y13678D01*
X12524Y13835D01*
X12570Y13991D01*
X12602Y14146D01*
X13464Y13100D01*
D02*
G37*
G36*
X51648Y13102D02*
X51461Y13083D01*
X51278Y13051D01*
X51100Y13005D01*
X50925Y12946D01*
X50756Y12874D01*
X50590Y12788D01*
X50429Y12689D01*
X50272Y12576D01*
X50120Y12450D01*
X49972Y12311D01*
X49901Y12382D01*
X50040Y12530D01*
X50166Y12682D01*
X50279Y12839D01*
X50378Y13000D01*
X50464Y13166D01*
X50536Y13335D01*
X50595Y13510D01*
X50641Y13688D01*
X50673Y13871D01*
X50692Y14058D01*
X51648Y13102D01*
D02*
G37*
G36*
X49108D02*
X48921Y13083D01*
X48738Y13051D01*
X48560Y13005D01*
X48386Y12946D01*
X48216Y12874D01*
X48050Y12788D01*
X47889Y12689D01*
X47732Y12576D01*
X47580Y12450D01*
X47432Y12311D01*
X47361Y12382D01*
X47500Y12530D01*
X47626Y12682D01*
X47739Y12839D01*
X47838Y13000D01*
X47924Y13166D01*
X47996Y13335D01*
X48055Y13510D01*
X48101Y13688D01*
X48133Y13871D01*
X48152Y14058D01*
X49108Y13102D01*
D02*
G37*
G36*
X44028D02*
X43841Y13083D01*
X43658Y13051D01*
X43480Y13005D01*
X43306Y12946D01*
X43136Y12874D01*
X42970Y12788D01*
X42809Y12689D01*
X42652Y12576D01*
X42500Y12450D01*
X42352Y12311D01*
X42281Y12382D01*
X42420Y12530D01*
X42546Y12682D01*
X42659Y12839D01*
X42758Y13000D01*
X42844Y13166D01*
X42916Y13335D01*
X42975Y13510D01*
X43021Y13688D01*
X43053Y13871D01*
X43072Y14058D01*
X44028Y13102D01*
D02*
G37*
G36*
X41488D02*
X41301Y13083D01*
X41118Y13051D01*
X40940Y13005D01*
X40765Y12946D01*
X40596Y12874D01*
X40430Y12788D01*
X40269Y12689D01*
X40112Y12576D01*
X39960Y12450D01*
X39812Y12311D01*
X39741Y12382D01*
X39880Y12530D01*
X40006Y12682D01*
X40119Y12839D01*
X40218Y13000D01*
X40304Y13166D01*
X40376Y13335D01*
X40435Y13510D01*
X40481Y13688D01*
X40513Y13871D01*
X40532Y14058D01*
X41488Y13102D01*
D02*
G37*
G36*
X39026Y13110D02*
X38855Y13078D01*
X38686Y13035D01*
X38522Y12980D01*
X38361Y12915D01*
X38203Y12838D01*
X38049Y12750D01*
X37898Y12651D01*
X37751Y12540D01*
X37608Y12419D01*
X37467Y12286D01*
X37397Y12356D01*
X37507Y12478D01*
X37606Y12609D01*
X37694Y12749D01*
X37771Y12900D01*
X37836Y13060D01*
X37889Y13231D01*
X37932Y13411D01*
X37962Y13601D01*
X37982Y13801D01*
X37990Y14010D01*
X39026Y13110D01*
D02*
G37*
G36*
X18769Y13122D02*
X18612Y13081D01*
X18457Y13031D01*
X18304Y12970D01*
X18154Y12899D01*
X18006Y12818D01*
X17860Y12727D01*
X17716Y12626D01*
X17574Y12515D01*
X17298Y12263D01*
X17227Y12334D01*
X17319Y12438D01*
X17401Y12555D01*
X17472Y12685D01*
X17532Y12829D01*
X17582Y12985D01*
X17621Y13155D01*
X17649Y13338D01*
X17667Y13534D01*
X17674Y13743D01*
X17671Y13966D01*
X18769Y13122D01*
D02*
G37*
G36*
X21361Y13136D02*
X21248Y13097D01*
X21128Y13043D01*
X21001Y12975D01*
X20868Y12893D01*
X20582Y12685D01*
X20429Y12559D01*
X19931Y12096D01*
X19818Y12124D01*
X19922Y12242D01*
X20012Y12373D01*
X20088Y12516D01*
X20149Y12673D01*
X20196Y12842D01*
X20229Y13025D01*
X20248Y13220D01*
X20252Y13428D01*
X20242Y13649D01*
X20218Y13883D01*
X21361Y13136D01*
D02*
G37*
G36*
X8976Y13270D02*
X8879Y13127D01*
X8792Y12974D01*
X8717Y12813D01*
X8654Y12643D01*
X8602Y12465D01*
X8562Y12278D01*
X8533Y12082D01*
X8516Y11878D01*
X8510Y11666D01*
X8310D01*
X8304Y11878D01*
X8287Y12082D01*
X8258Y12278D01*
X8218Y12465D01*
X8166Y12643D01*
X8103Y12813D01*
X8028Y12974D01*
X7941Y13127D01*
X7844Y13270D01*
X7734Y13406D01*
X9086D01*
X8976Y13270D01*
D02*
G37*
G36*
X24215Y13406D02*
X24326D01*
X24207Y13260D01*
X24101Y13108D01*
X24007Y12950D01*
X23925Y12785D01*
X23856Y12614D01*
X23800Y12436D01*
X23756Y12252D01*
X23725Y12062D01*
X23706Y11865D01*
X23700Y11661D01*
X23600D01*
X23594Y11865D01*
X23575Y12062D01*
X23544Y12252D01*
X23500Y12436D01*
X23444Y12614D01*
X23375Y12785D01*
X23293Y12950D01*
X23199Y13108D01*
X23093Y13260D01*
X22974Y13406D01*
X23062D01*
X22927Y13583D01*
X24362Y13583D01*
X24215Y13406D01*
D02*
G37*
G36*
X24656Y13225D02*
X24667Y13170D01*
X24734Y13071D01*
X25091Y12714D01*
X25091Y12714D01*
X25190Y12647D01*
X25307Y12624D01*
X25307Y12624D01*
X25630D01*
X25676Y12513D01*
X24067Y10904D01*
X23956Y10950D01*
Y11689D01*
X23961Y11849D01*
X23978Y12029D01*
X24006Y12202D01*
X24046Y12368D01*
X24097Y12528D01*
X24158Y12681D01*
X24231Y12828D01*
X24315Y12970D01*
X24410Y13106D01*
X24523Y13244D01*
X24528Y13254D01*
X24540Y13257D01*
X24656Y13225D01*
D02*
G37*
G36*
X23783Y6396D02*
X23788Y6323D01*
X23792Y6290D01*
X23798Y6260D01*
X23805Y6234D01*
X23813Y6210D01*
X23822Y6188D01*
X23833Y6170D01*
X23845Y6154D01*
X23619D01*
X23631Y6170D01*
X23642Y6188D01*
X23651Y6210D01*
X23660Y6234D01*
X23666Y6260D01*
X23672Y6290D01*
X23676Y6323D01*
X23681Y6396D01*
X23682Y6437D01*
X23782D01*
X23783Y6396D01*
D02*
G37*
G36*
X24299Y5577D02*
X24299Y5534D01*
X24306Y5427D01*
X24310Y5397D01*
X24321Y5348D01*
X24328Y5328D01*
X24336Y5311D01*
X24344Y5298D01*
X24119Y5311D01*
X24134Y5328D01*
X24148Y5348D01*
X24160Y5370D01*
X24170Y5395D01*
X24179Y5422D01*
X24186Y5451D01*
X24192Y5483D01*
X24196Y5517D01*
X24199Y5593D01*
X24299Y5577D01*
D02*
G37*
G36*
X25227Y5536D02*
X25232Y5462D01*
X25236Y5430D01*
X25242Y5400D01*
X25249Y5373D01*
X25257Y5349D01*
X25266Y5328D01*
X25277Y5310D01*
X25289Y5294D01*
X25063D01*
X25075Y5310D01*
X25086Y5328D01*
X25095Y5349D01*
X25104Y5373D01*
X25110Y5400D01*
X25116Y5430D01*
X25120Y5462D01*
X25125Y5536D01*
X25126Y5576D01*
X25226D01*
X25227Y5536D01*
D02*
G37*
G36*
X22827Y4916D02*
X22832Y4843D01*
X22836Y4810D01*
X22842Y4780D01*
X22849Y4754D01*
X22857Y4730D01*
X22866Y4708D01*
X22877Y4690D01*
X22889Y4674D01*
X22663D01*
X22675Y4690D01*
X22686Y4708D01*
X22695Y4730D01*
X22704Y4754D01*
X22710Y4780D01*
X22716Y4810D01*
X22720Y4843D01*
X22725Y4916D01*
X22726Y4957D01*
X22826D01*
X22827Y4916D01*
D02*
G37*
G36*
X24893Y4552D02*
X24900Y4482D01*
X24905Y4450D01*
X24913Y4420D01*
X24921Y4393D01*
X24932Y4369D01*
X24944Y4347D01*
X24958Y4327D01*
X24973Y4309D01*
X24748Y4296D01*
X24756Y4309D01*
X24764Y4325D01*
X24771Y4345D01*
X24776Y4368D01*
X24781Y4394D01*
X24789Y4456D01*
X24791Y4493D01*
X24793Y4574D01*
X24893Y4591D01*
X24893Y4552D01*
D02*
G37*
G36*
X22691Y3791D02*
X22426Y3506D01*
X22387Y3497D01*
X22311Y3526D01*
X22264Y3593D01*
X22262Y3675D01*
X22284Y3709D01*
X22284Y3709D01*
X22284Y3709D01*
D01*
X22646Y3856D01*
X22691Y3791D01*
D02*
G37*
G36*
X22976Y-2134D02*
X22981Y-2208D01*
X22985Y-2240D01*
X22991Y-2270D01*
X22998Y-2297D01*
X23006Y-2321D01*
X23015Y-2342D01*
X23026Y-2360D01*
X23038Y-2376D01*
X22812D01*
X22824Y-2360D01*
X22835Y-2342D01*
X22844Y-2321D01*
X22852Y-2297D01*
X22859Y-2270D01*
X22865Y-2240D01*
X22869Y-2208D01*
X22874Y-2134D01*
X22875Y-2094D01*
X22975D01*
X22976Y-2134D01*
D02*
G37*
G36*
X23976Y-2516D02*
X24019Y-2567D01*
X24026Y-2633D01*
X24010Y-2663D01*
X24010Y-2663D01*
X23932Y-2703D01*
X23954Y-2725D01*
X23935Y-2727D01*
X23914Y-2733D01*
X23892Y-2741D01*
X23870Y-2752D01*
X23846Y-2767D01*
X23821Y-2784D01*
X23795Y-2803D01*
X23739Y-2852D01*
X23710Y-2880D01*
X23639Y-2809D01*
X23668Y-2780D01*
X23707Y-2735D01*
X23705Y-2732D01*
X23759Y-2663D01*
X23767Y-2650D01*
X23778Y-2627D01*
X23787Y-2605D01*
X23792Y-2585D01*
X23795Y-2565D01*
X23817Y-2588D01*
X23880Y-2507D01*
X23912Y-2497D01*
X23976Y-2516D01*
D02*
G37*
G36*
X32227Y-3190D02*
X32232Y-3212D01*
X32240Y-3234D01*
X32251Y-3258D01*
X32264Y-3282D01*
X32281Y-3307D01*
X32300Y-3333D01*
X32348Y-3389D01*
X32376Y-3418D01*
X32301Y-3484D01*
X32271Y-3455D01*
X32190Y-3386D01*
X32166Y-3369D01*
X32142Y-3354D01*
X32120Y-3343D01*
X32099Y-3334D01*
X32080Y-3328D01*
X32062Y-3325D01*
X32224Y-3169D01*
X32227Y-3190D01*
D02*
G37*
G36*
X33595Y-4949D02*
X33650Y-4997D01*
X33676Y-5017D01*
X33701Y-5034D01*
X33725Y-5048D01*
X33748Y-5059D01*
X33770Y-5067D01*
X33790Y-5073D01*
X33810Y-5076D01*
X33650Y-5235D01*
X33648Y-5215D01*
X33642Y-5195D01*
X33634Y-5173D01*
X33623Y-5150D01*
X33608Y-5127D01*
X33591Y-5102D01*
X33572Y-5076D01*
X33523Y-5020D01*
X33495Y-4991D01*
X33566Y-4920D01*
X33595Y-4949D01*
D02*
G37*
G36*
X32122Y-5526D02*
X32091Y-5557D01*
X31969Y-5697D01*
X31960Y-5712D01*
X31953Y-5724D01*
X31950Y-5735D01*
X31811Y-5556D01*
X31838Y-5556D01*
X31864Y-5553D01*
X31890Y-5548D01*
X31917Y-5539D01*
X31943Y-5528D01*
X31970Y-5514D01*
X31997Y-5497D01*
X32024Y-5477D01*
X32050Y-5454D01*
X32077Y-5429D01*
X32122Y-5526D01*
D02*
G37*
G36*
X32847Y-5413D02*
X32894Y-5480D01*
X32896Y-5562D01*
X32874Y-5596D01*
X32874Y-5596D01*
X32874Y-5596D01*
D01*
X32512Y-5743D01*
X32467Y-5678D01*
X32732Y-5393D01*
X32771Y-5384D01*
X32847Y-5413D01*
D02*
G37*
G36*
X34743Y-5744D02*
X34750Y-5814D01*
X34756Y-5846D01*
X34763Y-5875D01*
X34772Y-5902D01*
X34783Y-5927D01*
X34796Y-5949D01*
X34810Y-5969D01*
X34826Y-5987D01*
X34601Y-6003D01*
X34608Y-5990D01*
X34616Y-5974D01*
X34622Y-5955D01*
X34627Y-5932D01*
X34632Y-5906D01*
X34638Y-5844D01*
X34642Y-5768D01*
X34642Y-5725D01*
X34742Y-5705D01*
X34743Y-5744D01*
D02*
G37*
G36*
X33800Y-6106D02*
X33866Y-6153D01*
X33896Y-6229D01*
X33887Y-6269D01*
X33887Y-6269D01*
X33887Y-6269D01*
D01*
X33598Y-6531D01*
X33532Y-6485D01*
X33557Y-6428D01*
X33543Y-6414D01*
X33563Y-6392D01*
X33580Y-6371D01*
X33581Y-6371D01*
X33630Y-6255D01*
X33630Y-6252D01*
X33629Y-6233D01*
X33625Y-6214D01*
X33643Y-6224D01*
X33684Y-6127D01*
X33718Y-6105D01*
X33800Y-6106D01*
D02*
G37*
G36*
X36344Y-6321D02*
X36433Y-6310D01*
X36469Y-6329D01*
X36508Y-6400D01*
X36501Y-6481D01*
X36450Y-6545D01*
X36411Y-6557D01*
X36411Y-6557D01*
X36112Y-6461D01*
X36102Y-6460D01*
X36061Y-6459D01*
Y-6444D01*
X36040Y-6437D01*
X36047Y-6358D01*
X36291Y-6328D01*
X36310Y-6319D01*
X36328Y-6309D01*
X36344Y-6297D01*
Y-6321D01*
D02*
G37*
G36*
X32653Y-6390D02*
X32660Y-6405D01*
X32669Y-6422D01*
X32681Y-6441D01*
X32697Y-6462D01*
X32737Y-6510D01*
X32788Y-6566D01*
X32819Y-6597D01*
X32766Y-6686D01*
X32739Y-6660D01*
X32685Y-6615D01*
X32658Y-6598D01*
X32632Y-6583D01*
X32606Y-6571D01*
X32580Y-6561D01*
X32555Y-6555D01*
X32530Y-6551D01*
X32505Y-6550D01*
X32650Y-6377D01*
X32653Y-6390D01*
D02*
G37*
G36*
X31292Y-6396D02*
X31298Y-6417D01*
X31306Y-6438D01*
X31317Y-6461D01*
X31331Y-6485D01*
X31348Y-6510D01*
X31368Y-6536D01*
X31416Y-6591D01*
X31445Y-6621D01*
X31374Y-6691D01*
X31345Y-6663D01*
X31289Y-6615D01*
X31263Y-6595D01*
X31238Y-6578D01*
X31215Y-6564D01*
X31192Y-6552D01*
X31170Y-6544D01*
X31150Y-6539D01*
X31130Y-6536D01*
X31289Y-6377D01*
X31292Y-6396D01*
D02*
G37*
G36*
X5900Y-6887D02*
X5906Y-6938D01*
X5916Y-6983D01*
X5930Y-7022D01*
X5949Y-7055D01*
X5971Y-7082D01*
X5997Y-7103D01*
X6028Y-7118D01*
X6062Y-7127D01*
X6101Y-7130D01*
Y-7330D01*
X6062Y-7333D01*
X6028Y-7342D01*
X5997Y-7357D01*
X5971Y-7378D01*
X5949Y-7405D01*
X5930Y-7438D01*
X5916Y-7477D01*
X5906Y-7522D01*
X5900Y-7573D01*
X5898Y-7630D01*
Y-6830D01*
X5900Y-6887D01*
D02*
G37*
G36*
X25847Y-7617D02*
X25929Y-7686D01*
X25953Y-7704D01*
X25977Y-7718D01*
X25999Y-7729D01*
X26020Y-7738D01*
X26040Y-7744D01*
X26059Y-7747D01*
X25897Y-7904D01*
X25895Y-7883D01*
X25889Y-7862D01*
X25881Y-7840D01*
X25870Y-7817D01*
X25856Y-7792D01*
X25840Y-7767D01*
X25820Y-7741D01*
X25773Y-7686D01*
X25744Y-7657D01*
X25818Y-7589D01*
X25847Y-7617D01*
D02*
G37*
G36*
X23546Y-8208D02*
X23598Y-8271D01*
X23607Y-8352D01*
X23588Y-8388D01*
X23588Y-8388D01*
X23588Y-8388D01*
X23588Y-8388D01*
X23479Y-8444D01*
X23485Y-8450D01*
X23465Y-8452D01*
X23459Y-8454D01*
X23348Y-8511D01*
X23325Y-8528D01*
X23270Y-8577D01*
X23241Y-8605D01*
X23170Y-8534D01*
X23194Y-8510D01*
X23190Y-8505D01*
X23309Y-8352D01*
X23317Y-8330D01*
X23323Y-8310D01*
X23325Y-8290D01*
X23343Y-8308D01*
X23429Y-8198D01*
X23467Y-8186D01*
X23546Y-8208D01*
D02*
G37*
G36*
X24952Y-8306D02*
X24957Y-8371D01*
X24961Y-8400D01*
X24967Y-8428D01*
X24974Y-8453D01*
X24983Y-8476D01*
X24993Y-8497D01*
X25004Y-8516D01*
X25016Y-8533D01*
X24786D01*
X24798Y-8516D01*
X24809Y-8497D01*
X24819Y-8476D01*
X24827Y-8453D01*
X24835Y-8428D01*
X24840Y-8400D01*
X24845Y-8371D01*
X24850Y-8306D01*
X24851Y-8270D01*
X24951D01*
X24952Y-8306D01*
D02*
G37*
G36*
X26910Y-8565D02*
X26962Y-8628D01*
X26971Y-8709D01*
X26952Y-8745D01*
X26952Y-8745D01*
X26952Y-8745D01*
X26952Y-8745D01*
X26797Y-8824D01*
X26804Y-8834D01*
X26793Y-8833D01*
X26781Y-8833D01*
X26779Y-8834D01*
X26705Y-8872D01*
X26687Y-8886D01*
X26649Y-8922D01*
X26635Y-8908D01*
X26605Y-8923D01*
X26554Y-8862D01*
X26688Y-8689D01*
X26689Y-8684D01*
X26691Y-8686D01*
X26793Y-8555D01*
X26832Y-8543D01*
X26910Y-8565D01*
D02*
G37*
G36*
X21590Y-8642D02*
X21647Y-8701D01*
X21661Y-8781D01*
X21628Y-8856D01*
X21594Y-8877D01*
X21204Y-8858D01*
X21190Y-8780D01*
X21262Y-8751D01*
Y-8719D01*
X21285Y-8718D01*
X21353Y-8714D01*
X21551Y-8633D01*
X21590Y-8642D01*
D02*
G37*
G36*
X21594Y-8877D02*
X21594Y-8877D01*
X21594Y-8877D01*
X21594D01*
D02*
G37*
G36*
X22762Y-9024D02*
X22828Y-9072D01*
X22856Y-9149D01*
X22836Y-9228D01*
X22806Y-9255D01*
X22806D01*
X22419Y-9304D01*
X22392Y-9229D01*
X22514Y-9153D01*
Y-9111D01*
X22536Y-9111D01*
X22585Y-9108D01*
X22722Y-9022D01*
X22762Y-9024D01*
D02*
G37*
G36*
X25994Y-9759D02*
X25978Y-9747D01*
X25960Y-9736D01*
X25939Y-9727D01*
X25915Y-9719D01*
X25888Y-9712D01*
X25858Y-9706D01*
X25826Y-9702D01*
X25752Y-9697D01*
X25712Y-9696D01*
Y-9596D01*
X25752Y-9596D01*
X25826Y-9591D01*
X25858Y-9586D01*
X25888Y-9581D01*
X25915Y-9574D01*
X25939Y-9566D01*
X25960Y-9556D01*
X25978Y-9546D01*
X25994Y-9534D01*
Y-9759D01*
D02*
G37*
G36*
X23780Y-12714D02*
X23787Y-12709D01*
X23806Y-12724D01*
X23837Y-12760D01*
X23879Y-12815D01*
X24163Y-13241D01*
X24375Y-13575D01*
X22945Y-13450D01*
X23600Y-12787D01*
X23600Y-12782D01*
X23605D01*
X23681Y-12706D01*
X23780Y-12714D01*
D02*
G37*
G36*
X19815Y-12111D02*
X19715Y-12225D01*
X19629Y-12353D01*
X19557Y-12494D01*
X19500Y-12650D01*
X19458Y-12818D01*
X19429Y-13001D01*
X19415Y-13197D01*
X19416Y-13407D01*
X19431Y-13630D01*
X19460Y-13867D01*
X18299Y-13142D01*
X18403Y-13103D01*
X18515Y-13049D01*
X18636Y-12980D01*
X18764Y-12897D01*
X19043Y-12686D01*
X19195Y-12559D01*
X19696Y-12088D01*
X19815Y-12111D01*
D02*
G37*
G36*
X22799Y-12382D02*
X22660Y-12530D01*
X22534Y-12682D01*
X22421Y-12839D01*
X22322Y-13000D01*
X22236Y-13166D01*
X22164Y-13335D01*
X22105Y-13510D01*
X22059Y-13688D01*
X22027Y-13871D01*
X22008Y-14058D01*
X21052Y-13102D01*
X21239Y-13083D01*
X21422Y-13051D01*
X21600Y-13005D01*
X21774Y-12946D01*
X21944Y-12874D01*
X22110Y-12788D01*
X22271Y-12689D01*
X22428Y-12576D01*
X22580Y-12450D01*
X22728Y-12311D01*
X22799Y-12382D01*
D02*
G37*
G36*
X22457Y-12216D02*
X22412Y-12259D01*
X22272Y-12374D01*
X22130Y-12476D01*
X21984Y-12566D01*
X21835Y-12643D01*
X21683Y-12708D01*
X21528Y-12761D01*
X21368Y-12801D01*
X21204Y-12830D01*
X21027Y-12848D01*
X21011Y-12853D01*
X20810Y-12880D01*
X20530Y-12995D01*
X20290Y-13180D01*
X20105Y-13420D01*
X19990Y-13700D01*
X19950Y-14000D01*
X19990Y-14300D01*
X20105Y-14580D01*
X20290Y-14820D01*
X20349Y-14865D01*
X20310Y-14979D01*
X19370D01*
X19331Y-14865D01*
X19390Y-14820D01*
X19575Y-14580D01*
X19690Y-14300D01*
X19730Y-14000D01*
X19711Y-13859D01*
X19713Y-13836D01*
X19685Y-13606D01*
X19671Y-13398D01*
X19670Y-13206D01*
X19683Y-13029D01*
X19708Y-12869D01*
X19744Y-12725D01*
X19792Y-12596D01*
X19849Y-12482D01*
X19917Y-12381D01*
X19991Y-12296D01*
X20191Y-12096D01*
X22409D01*
X22457Y-12216D01*
D02*
G37*
G36*
X9156Y-14521D02*
X9132Y-14597D01*
X9122Y-14675D01*
X9124Y-14754D01*
X9140Y-14834D01*
X9168Y-14915D01*
X9209Y-14997D01*
X9263Y-15080D01*
X9329Y-15164D01*
X9409Y-15250D01*
X9338Y-15320D01*
X9253Y-15240D01*
X9166Y-15168D01*
X9077Y-15104D01*
X8987Y-15050D01*
X8896Y-15003D01*
X8803Y-14966D01*
X8708Y-14936D01*
X8613Y-14916D01*
X8515Y-14904D01*
X8416Y-14900D01*
X9192Y-14445D01*
X9156Y-14521D01*
D02*
G37*
G36*
X6790Y-14109D02*
X6864Y-14476D01*
X6913Y-14644D01*
X6972Y-14803D01*
X7038Y-14951D01*
X7113Y-15090D01*
X7197Y-15219D01*
X7289Y-15339D01*
X7389Y-15448D01*
X7318Y-15519D01*
X7209Y-15419D01*
X7089Y-15327D01*
X6960Y-15243D01*
X6821Y-15168D01*
X6673Y-15102D01*
X6514Y-15043D01*
X6346Y-14994D01*
X6167Y-14953D01*
X5979Y-14920D01*
X5781Y-14896D01*
X6766Y-13911D01*
X6790Y-14109D01*
D02*
G37*
D12*
X-9Y17005D02*
X62391Y17098D01*
X-9Y17005D02*
X0Y-17000D01*
X62391Y17098D02*
X62401Y-16907D01*
X0Y-17000D02*
X62401Y-16907D01*
D13*
X9737Y-5607D02*
Y4370D01*
X8409Y-6935D02*
X9737Y-5607D01*
X9192Y4916D02*
X9737Y4370D01*
X8003Y-6935D02*
X8409D01*
X8410Y7254D02*
Y14000D01*
Y7254D02*
X9192Y6473D01*
Y4916D02*
Y6473D01*
X7708Y-7230D02*
X8003Y-6935D01*
X5000Y-7230D02*
X7708D01*
D14*
X7354Y-15484D02*
G03*
X7405Y-15505I51J51D01*
G01*
X37361Y12291D02*
G03*
X37432Y12321I0J100D01*
G01*
X38861Y13750D02*
G03*
X38890Y13820I-71J71D01*
G01*
X27860Y12782D02*
G03*
X27789Y12753I0J-100D01*
G01*
X29601Y12782D02*
G03*
X29671Y12812I0J100D01*
G01*
X27926Y12537D02*
G03*
X27855Y12508I0J-100D01*
G01*
X34845Y12537D02*
G03*
X34916Y12566I0J100D01*
G01*
X27991Y12291D02*
G03*
X27921Y12262I0J-100D01*
G01*
X28074Y12063D02*
G03*
X28003Y12034I0J-100D01*
G01*
X39452Y12063D02*
G03*
X39523Y12093I0J100D01*
G01*
X28352Y11619D02*
G03*
X28348Y11619I0J-320D01*
G01*
X41900Y11624D02*
G03*
X41872Y11623I4J-770D01*
G01*
X37542Y11399D02*
G03*
X37540Y11399I0J-550D01*
G01*
X41902Y11404D02*
G03*
X41881Y11403I3J-550D01*
G01*
X41768Y11839D02*
G03*
X41839Y11869I0J100D01*
G01*
X28260Y11619D02*
G03*
X28190Y11590I1J-100D01*
G01*
X41768Y11619D02*
G03*
X41781Y11620I0J320D01*
G01*
X28170Y11839D02*
G03*
X28099Y11810I0J-100D01*
G01*
X28352Y11399D02*
G03*
X28281Y11370I-1J-100D01*
G01*
X41768Y11399D02*
G03*
X41789Y11400I0J540D01*
G01*
X42527Y11628D02*
G03*
X42521Y11628I0J-770D01*
G01*
X42527Y11408D02*
G03*
X42522Y11408I0J-550D01*
G01*
X46889Y11409D02*
G03*
X46887Y11409I0J-550D01*
G01*
X46637Y11628D02*
G03*
X46708Y11658I0J100D01*
G01*
X48957Y11409D02*
G03*
X49028Y11438I0J100D01*
G01*
X7405Y-15505D02*
X18985D01*
X5870Y-14000D02*
X7354Y-15484D01*
X38890Y13820D02*
Y14000D01*
X27991Y12291D02*
X37361D01*
X37432Y12321D02*
X38861Y13750D01*
X29671Y12812D02*
X30860Y14000D01*
X27480Y12443D02*
X27789Y12753D01*
X27860Y12782D02*
X29601Y12782D01*
X34916Y12566D02*
X36350Y14000D01*
X27571Y12223D02*
X27855Y12508D01*
X27926Y12537D02*
X34845Y12537D01*
X27662Y12003D02*
X27921Y12262D01*
X39523Y12093D02*
X41430Y14000D01*
X27753Y11783D02*
X28003Y12034D01*
X28074Y12063D02*
X39452Y12063D01*
X28190Y11590D02*
X28190Y11590D01*
X28352Y11399D02*
X37540Y11399D01*
X41789Y11400D02*
X41881Y11403D01*
X42527Y11408D02*
X46637D01*
X28035Y11123D02*
X28281Y11370D01*
X28352Y11619D02*
X41768D01*
X41900Y11624D02*
X42521Y11628D01*
X27943Y11343D02*
X28190Y11590D01*
X28260Y11619D02*
X28348Y11619D01*
X27852Y11563D02*
X28099Y11810D01*
X28281Y11370D02*
X28281Y11370D01*
X28170Y11839D02*
X41768Y11839D01*
X41839Y11869D02*
X43970Y14000D01*
X41781Y11620D02*
X41872Y11623D01*
X42527Y11628D02*
X46637D01*
X37542Y11399D02*
X41768D01*
X41902Y11404D02*
X42522Y11408D01*
X46637Y11408D02*
X46887Y11409D01*
X46889Y11409D02*
X48957D01*
X46708Y11658D02*
X49050Y14000D01*
X49028Y11438D02*
X51590Y14000D01*
X26073Y9860D02*
X27337Y11123D01*
X26073Y7798D02*
Y9860D01*
X27337Y11123D02*
X28035D01*
X25688Y9794D02*
X27237Y11343D01*
X27943D01*
X25688Y7724D02*
Y9794D01*
X27890Y-9614D02*
X28500Y-10224D01*
X27890Y-9614D02*
Y-9103D01*
X26494Y-8238D02*
X27025D01*
X27890Y-9103D01*
X32794Y-5450D02*
X32848D01*
X32705Y-5540D02*
X32794Y-5450D01*
X32663Y-5540D02*
X32705D01*
X32047Y-6155D02*
X32663Y-5540D01*
X35932Y-6409D02*
X36443D01*
X33433Y-3910D02*
X35932Y-6409D01*
X33770Y-6175D02*
X33783Y-6188D01*
Y-6244D02*
Y-6188D01*
X33578Y-6449D02*
X33783Y-6244D01*
X33578Y-11222D02*
Y-6449D01*
X33375Y-11425D02*
X33578Y-11222D01*
X28622Y-11425D02*
X33375D01*
X34692Y-6065D02*
X34720Y-6093D01*
X34692Y-6065D02*
Y-5481D01*
X34220Y-6394D02*
Y-5832D01*
X33992Y-6622D02*
X34220Y-6394D01*
X33992Y-11317D02*
Y-6622D01*
X33983Y-11317D02*
X33992D01*
X33435Y-11865D02*
X33983Y-11317D01*
X28635Y-11865D02*
X33435D01*
X13553Y-10169D02*
X20305D01*
X10760Y-7375D02*
X13553Y-10169D01*
X31916Y-2381D02*
Y-2371D01*
X31826Y-2280D02*
X31916Y-2371D01*
X31826Y-2280D02*
Y-2226D01*
X31916Y-2381D02*
X32524Y-2989D01*
Y-3148D02*
Y-2989D01*
X32074Y-3187D02*
Y-3176D01*
X33287Y-3910D02*
X33433D01*
X33341Y-4130D02*
X34692Y-5481D01*
X33018Y-4130D02*
X33341D01*
X32848Y-5450D02*
X32848Y-5450D01*
X26010Y-7859D02*
Y-7852D01*
Y-7859D02*
X26047Y-7896D01*
X25568Y-7410D02*
X26010Y-7852D01*
X26812Y-8688D02*
X26839D01*
X26613Y-8887D02*
X26812Y-8688D01*
X10227Y11053D02*
X13174Y14000D01*
X10227Y-5810D02*
Y11053D01*
X10667Y10108D02*
X12858Y12298D01*
X10667Y-5993D02*
Y10108D01*
X10540Y-6121D02*
X10667Y-5993D01*
X10540Y-7466D02*
Y-6121D01*
X10887Y9680D02*
X13236Y12029D01*
X10887Y-6084D02*
Y9680D01*
X10760Y-6212D02*
X10887Y-6084D01*
X10760Y-7375D02*
Y-6212D01*
X10447Y-5901D02*
Y10199D01*
X10100Y-5938D02*
X10227Y-5810D01*
X10100Y-7648D02*
Y-5938D01*
Y-7648D02*
X13462Y-11010D01*
X14242D01*
X14384Y-11152D01*
X10320Y-6029D02*
X10447Y-5901D01*
X10320Y-7557D02*
Y-6029D01*
X11107Y-6175D02*
Y9468D01*
X10980Y-6303D02*
X11107Y-6175D01*
X10980Y-7284D02*
Y-6303D01*
X11327Y-6747D02*
Y9054D01*
X11547Y-6526D02*
Y8598D01*
Y-6526D02*
X13931Y-8909D01*
X11547Y8598D02*
X13919Y10970D01*
X10447Y10199D02*
X13040Y12792D01*
X11327Y-6747D02*
X13851Y-9270D01*
X11327Y9054D02*
X13473Y11200D01*
X11107Y9468D02*
X13401Y11761D01*
X9394Y-6332D02*
X10007Y-5719D01*
Y4482D01*
X9751Y4739D02*
X10007Y4482D01*
X10320Y-7557D02*
X13553Y-10790D01*
X10980Y-7284D02*
X13488Y-9792D01*
X10540Y-7466D02*
X13585Y-10512D01*
X9394Y-8296D02*
Y-6332D01*
X13553Y-10790D02*
X20885D01*
X13040Y12792D02*
X15287D01*
X20305Y-10169D02*
X21084Y-9390D01*
X13488Y-9792D02*
X20238D01*
X13585Y-10512D02*
X20730D01*
X11906Y-9918D02*
X13527Y-11540D01*
X11016Y-9918D02*
X11906D01*
X9394Y-8296D02*
X11016Y-9918D01*
X9751Y4739D02*
Y6617D01*
X25307Y12930D02*
X27655D01*
X24950Y13287D02*
X25307Y12930D01*
X24950Y13287D02*
Y14668D01*
X24153Y9077D02*
X26859Y11783D01*
X24373Y8986D02*
X26950Y11563D01*
X24373Y7126D02*
Y8986D01*
X24153Y7035D02*
Y9077D01*
Y7035D02*
X24182Y7006D01*
Y5869D02*
Y7006D01*
X23766Y5453D02*
X24182Y5869D01*
X24373Y7126D02*
X24402Y7097D01*
Y5778D02*
Y7097D01*
X24249Y5624D02*
X24402Y5778D01*
X24249Y5228D02*
Y5624D01*
X24226Y5206D02*
X24249Y5228D01*
X25176Y5195D02*
Y6901D01*
X26073Y7798D01*
X24726Y6762D02*
X25688Y7724D01*
X12858Y12298D02*
X17263D01*
X20885Y-10790D02*
X22514Y-9161D01*
X14384Y-11152D02*
X22999D01*
X20730Y-10512D02*
X22632Y-8609D01*
X23166D01*
X23475Y-8300D01*
X22514Y-9161D02*
X22772D01*
X22999Y-11152D02*
X25073Y-9079D01*
X21541Y-9390D02*
X23056Y-7875D01*
X23264D01*
X21084Y-9390D02*
X21541D01*
X25468Y-8887D02*
X26613D01*
X25276Y-9079D02*
X25468Y-8887D01*
X25073Y-9079D02*
X25276D01*
X17263Y12298D02*
X18570Y13606D01*
X13236Y12029D02*
X18842D01*
X19850Y13037D01*
X21110Y13346D02*
Y14000D01*
X19525Y11761D02*
X21110Y13346D01*
X13401Y11761D02*
X19525D01*
X13527Y-11540D02*
X23137D01*
X25481Y-9196D01*
X26357D01*
X26427Y-9267D01*
X26878D01*
X27395Y-9784D01*
X23336Y-11791D02*
X25480Y-9646D01*
X20064Y-11791D02*
X23336D01*
X18570Y-13285D02*
X20064Y-11791D01*
X27525Y-12975D02*
X28635Y-11865D01*
X27015Y-15505D02*
X27228D01*
X18985Y-15505D02*
X27015Y-15505D01*
X27395Y-10326D02*
X27622Y-10553D01*
X27395Y-10326D02*
Y-9784D01*
X30690Y-6600D02*
X32307Y-8217D01*
X30690Y-6600D02*
Y-6182D01*
X34081Y-5692D02*
X34220Y-5832D01*
X32591Y-4986D02*
X33022D01*
X33427Y-5692D02*
X34081D01*
X33306Y-5572D02*
X33427Y-5692D01*
X33306Y-5572D02*
Y-5270D01*
X33022Y-4986D02*
X33306Y-5270D01*
X19781Y-853D02*
X22128D01*
X22925Y-1650D01*
X18455Y473D02*
X19781Y-853D01*
X18455Y473D02*
Y4860D01*
X19534Y-1140D02*
X21878D01*
X18235Y159D02*
X19534Y-1140D01*
X18235Y159D02*
Y5359D01*
X22925Y-2475D02*
Y-1650D01*
X24726Y5009D02*
Y6762D01*
X26665Y12223D02*
X27571D01*
X22776Y8335D02*
X26665Y12223D01*
X22776Y4575D02*
Y8335D01*
X27655Y12930D02*
X28725Y14000D01*
X28730D01*
X26768Y12003D02*
X27662D01*
X23732Y8968D02*
X26768Y12003D01*
X23732Y6055D02*
Y8968D01*
X26859Y11783D02*
X27753D01*
X26950Y11563D02*
X27852D01*
X26039Y12443D02*
X27480D01*
X18455Y4860D02*
X26039Y12443D01*
X22302Y-2488D02*
Y-1563D01*
X22739Y-2925D02*
X23594D01*
X22302Y-2488D02*
X22739Y-2925D01*
X23594D02*
X23944Y-2575D01*
X22489Y3713D02*
X22550D01*
X22395Y3618D02*
X22489Y3713D01*
X22340Y3618D02*
X22395D01*
X22550Y3713D02*
X23766Y4929D01*
X24726Y5009D02*
X24843Y4892D01*
Y4227D02*
Y4892D01*
Y4227D02*
X24866Y4204D01*
X23766Y4929D02*
Y5453D01*
X21878Y-1140D02*
X22302Y-1563D01*
X22409Y-7432D02*
X23085D01*
X21855Y-7986D02*
X22409Y-7432D01*
X21361Y-7986D02*
X21855D01*
X23197Y-7630D02*
X24716D01*
X23172Y-7655D02*
X23197Y-7630D01*
X22644Y-7655D02*
X23172D01*
X22313Y-7986D02*
X22644Y-7655D01*
X22216Y-7986D02*
X22313D01*
X21884Y-8319D02*
X22216Y-7986D01*
X21339Y-8319D02*
X21884D01*
X23289Y-7850D02*
X24481D01*
X23264Y-7875D02*
X23289Y-7850D01*
X20437Y-8909D02*
X21361Y-7986D01*
X13931Y-8909D02*
X20437D01*
X20387Y-9270D02*
X21339Y-8319D01*
X13851Y-9270D02*
X20387D01*
X21262Y-8769D02*
X21526D01*
X20238Y-9792D02*
X21262Y-8769D01*
X25436Y-8350D02*
X26382D01*
X24481Y-7850D02*
X24901Y-8270D01*
X24716Y-7630D02*
X25436Y-8350D01*
X23106Y-7410D02*
X25568D01*
X23085Y-7432D02*
X23106Y-7410D01*
X24901Y-8629D02*
Y-8270D01*
X26382Y-8350D02*
X26494Y-8238D01*
X25480Y-9646D02*
X26093D01*
X31871Y-5706D02*
X32591Y-4986D01*
X32412Y-4460D02*
X33035D01*
X33800Y-5225D01*
X32502Y-6400D02*
X32552D01*
X33271Y-7120D01*
X31803Y-5706D02*
X31871D01*
X30690Y-6182D02*
X32412Y-4460D01*
X31140Y-6386D02*
X32616Y-7863D01*
X32047Y-6644D02*
X32920Y-7517D01*
X32047Y-6644D02*
Y-6155D01*
X32074Y-3187D02*
X33018Y-4130D01*
X33271Y-10592D02*
Y-7120D01*
X32847Y-11015D02*
X33271Y-10592D01*
X26646Y-11015D02*
X32847D01*
X32920Y-10232D02*
Y-7517D01*
X32524Y-3148D02*
X33287Y-3910D01*
X32583Y15227D02*
X33810Y14000D01*
X27302Y15227D02*
X32583D01*
X26834Y15695D02*
X27302Y15227D01*
X20945Y15695D02*
X26834D01*
X19850Y14600D02*
X20945Y15695D01*
X26025Y14165D02*
Y15075D01*
X25625Y15475D02*
X26025Y15075D01*
X22675Y15475D02*
X25625D01*
X22360Y15160D02*
X22675Y15475D01*
X22360Y13410D02*
Y15160D01*
X24423Y15195D02*
X24950Y14668D01*
X23020Y15195D02*
X24423D01*
X22580Y14755D02*
X23020Y15195D01*
X22580Y13180D02*
Y14755D01*
X27228Y-15505D02*
X27525Y-15208D01*
Y-12975D01*
X27300Y-14909D02*
Y-12747D01*
X26924Y-15285D02*
X27300Y-14909D01*
X9374Y-15285D02*
X26924Y-15285D01*
X8534Y-14446D02*
Y-14362D01*
Y-14446D02*
X9374Y-15285D01*
X26426Y-10796D02*
X26646Y-11015D01*
X25636Y-10796D02*
X26426D01*
X23650Y-12782D02*
X25636Y-10796D01*
X26414Y-10472D02*
X26737Y-10795D01*
X25496Y-10472D02*
X26414D01*
X23838Y-12130D02*
X25496Y-10472D01*
X23650Y10774D02*
Y14000D01*
X18235Y5359D02*
X23650Y10774D01*
X30860Y14000D02*
X31270D01*
X20370Y10970D02*
X22580Y13180D01*
X13919Y10970D02*
X20370D01*
X9609Y12659D02*
X10950Y14000D01*
X9609Y6758D02*
Y12659D01*
Y6758D02*
X9751Y6617D01*
X13473Y11200D02*
X20150D01*
X32616Y-9949D02*
Y-7863D01*
X32013Y-10553D02*
X32616Y-9949D01*
X27622Y-10553D02*
X32013D01*
X18570Y13606D02*
Y14000D01*
X27300Y-12747D02*
X28622Y-11425D01*
X26737Y-10795D02*
X32357D01*
X13174Y14000D02*
X13490D01*
X32307Y-9483D02*
Y-8217D01*
X31566Y-10224D02*
X32307Y-9483D01*
X28500Y-10224D02*
X31566D01*
X32357Y-10795D02*
X32920Y-10232D01*
X26025Y14165D02*
X26190Y14000D01*
X20150Y11200D02*
X22360Y13410D01*
X19850Y13037D02*
Y14600D01*
X15287Y12792D02*
X16030Y13535D01*
Y14000D01*
X18570Y-14000D02*
Y-13285D01*
X21110Y-14000D02*
X22980Y-12130D01*
X23838D01*
X23650Y-14000D02*
Y-12782D01*
D79*
X5870Y14000D02*
D03*
X8410D02*
D03*
X10950D02*
D03*
X13490D02*
D03*
X16030D02*
D03*
X18570D02*
D03*
X21110D02*
D03*
X23650D02*
D03*
X26190D02*
D03*
X28730D02*
D03*
X31270D02*
D03*
X33810D02*
D03*
X36350D02*
D03*
X38890D02*
D03*
X41430D02*
D03*
X43970D02*
D03*
X46510D02*
D03*
X49050D02*
D03*
X51590D02*
D03*
X5000Y-9770D02*
D03*
Y7230D02*
D03*
X51590Y-14000D02*
D03*
X49050D02*
D03*
X46510D02*
D03*
X43970D02*
D03*
X41430D02*
D03*
X38890D02*
D03*
X36350D02*
D03*
X33810D02*
D03*
X31270D02*
D03*
X28730D02*
D03*
X26190D02*
D03*
X23650D02*
D03*
X21110D02*
D03*
X18570D02*
D03*
X16030D02*
D03*
X13490D02*
D03*
X10950D02*
D03*
X8410D02*
D03*
X5870D02*
D03*
D80*
X54130Y14000D02*
D03*
Y-14000D02*
D03*
D81*
X5000Y-7230D02*
D03*
Y9770D02*
D03*
D82*
X46273Y-563D02*
D03*
X39412Y10849D02*
D03*
X41904Y10854D02*
D03*
X38788Y10849D02*
D03*
X41281D02*
D03*
X38165D02*
D03*
X40658D02*
D03*
X37542D02*
D03*
X40035D02*
D03*
X43150Y10858D02*
D03*
X45643D02*
D03*
X45020D02*
D03*
X44397D02*
D03*
X42527D02*
D03*
X43773D02*
D03*
X46266D02*
D03*
X48135Y10859D02*
D03*
X46889D02*
D03*
X48759D02*
D03*
X47512D02*
D03*
X61009Y15043D02*
D03*
X60559Y14143D02*
D03*
X61009Y13243D02*
D03*
X60559Y12343D02*
D03*
X61009Y11443D02*
D03*
X60559Y10543D02*
D03*
X61009Y9643D02*
D03*
X60559Y8743D02*
D03*
X61009Y7843D02*
D03*
X60559Y6943D02*
D03*
X61009Y6043D02*
D03*
X60559Y5143D02*
D03*
X61009Y4243D02*
D03*
Y-4757D02*
D03*
X60559Y-5657D02*
D03*
X61009Y-6557D02*
D03*
X60559Y-7457D02*
D03*
X61009Y-8357D02*
D03*
X60559Y-9257D02*
D03*
X61009Y-10157D02*
D03*
X60559Y-11057D02*
D03*
X61009Y-11957D02*
D03*
X60559Y-12857D02*
D03*
X61009Y-13757D02*
D03*
X60559Y-14657D02*
D03*
X61009Y-15557D02*
D03*
X60109Y15043D02*
D03*
X59659Y14143D02*
D03*
X60109Y13243D02*
D03*
X59659Y12343D02*
D03*
X60109Y11443D02*
D03*
X59659Y10543D02*
D03*
X60109Y9643D02*
D03*
X59659Y8743D02*
D03*
X60109Y7843D02*
D03*
X59659Y6943D02*
D03*
X60109Y6043D02*
D03*
X59659Y5143D02*
D03*
X60109Y4243D02*
D03*
Y-4757D02*
D03*
X59659Y-5657D02*
D03*
X60109Y-6557D02*
D03*
X59659Y-7457D02*
D03*
X60109Y-8357D02*
D03*
X59659Y-9257D02*
D03*
X60109Y-10157D02*
D03*
X59659Y-11057D02*
D03*
X60109Y-11957D02*
D03*
X59659Y-12857D02*
D03*
X60109Y-13757D02*
D03*
X59659Y-14657D02*
D03*
X60109Y-15557D02*
D03*
X59209Y15043D02*
D03*
X58759Y14143D02*
D03*
X59209Y13243D02*
D03*
X58759Y12343D02*
D03*
X59209Y11443D02*
D03*
X58759Y10543D02*
D03*
X59209Y9643D02*
D03*
X58759Y8743D02*
D03*
X59209Y7843D02*
D03*
X58759Y6943D02*
D03*
X59209Y6043D02*
D03*
X58759Y5143D02*
D03*
X59209Y4243D02*
D03*
Y-4757D02*
D03*
X58759Y-5657D02*
D03*
X59209Y-6557D02*
D03*
X58759Y-7457D02*
D03*
X59209Y-8357D02*
D03*
X58759Y-9257D02*
D03*
X59209Y-10157D02*
D03*
X58759Y-11057D02*
D03*
X59209Y-11957D02*
D03*
X58759Y-12857D02*
D03*
X59209Y-15557D02*
D03*
X58309Y15043D02*
D03*
X57859Y14143D02*
D03*
X58309Y13243D02*
D03*
X57859Y12343D02*
D03*
X58309Y11443D02*
D03*
X57859Y10543D02*
D03*
X58309Y9643D02*
D03*
X57859Y8743D02*
D03*
X58309Y7843D02*
D03*
X57859Y6943D02*
D03*
X58309Y6043D02*
D03*
X57859Y5143D02*
D03*
X58309Y4243D02*
D03*
Y-4757D02*
D03*
X57859Y-5657D02*
D03*
X58309Y-6557D02*
D03*
X57859Y-7457D02*
D03*
X58309Y-8357D02*
D03*
X57859Y-9257D02*
D03*
X58309Y-10157D02*
D03*
X57859Y-11057D02*
D03*
X58309Y-11957D02*
D03*
X57859Y-12857D02*
D03*
X58309Y-13757D02*
D03*
X57409Y15043D02*
D03*
X56959Y14143D02*
D03*
X57409Y13243D02*
D03*
X56959Y12343D02*
D03*
X57409Y11443D02*
D03*
X56959Y10543D02*
D03*
X57409Y9643D02*
D03*
X56959Y8743D02*
D03*
X57409Y7843D02*
D03*
X56959Y6943D02*
D03*
X57409Y6043D02*
D03*
X56959Y5143D02*
D03*
X57409Y4243D02*
D03*
X56959Y3343D02*
D03*
X57409Y-2957D02*
D03*
X56959Y-3857D02*
D03*
X57409Y-4757D02*
D03*
X56959Y-5657D02*
D03*
X57409Y-6557D02*
D03*
X56959Y-7457D02*
D03*
X57409Y-8357D02*
D03*
X56959Y-9257D02*
D03*
X57409Y-10157D02*
D03*
X56959Y-11057D02*
D03*
X57409Y-11957D02*
D03*
X56959Y-12857D02*
D03*
X57409Y-13757D02*
D03*
X56059Y14143D02*
D03*
X56509Y13243D02*
D03*
X56059Y12343D02*
D03*
X56509Y11443D02*
D03*
X56059Y10543D02*
D03*
X56509Y9643D02*
D03*
X56059Y8743D02*
D03*
X56509Y7843D02*
D03*
X56059Y6943D02*
D03*
X56509Y6043D02*
D03*
X56059Y5143D02*
D03*
X56509Y4243D02*
D03*
X56059Y3343D02*
D03*
X56509Y2443D02*
D03*
Y-2957D02*
D03*
X56059Y-3857D02*
D03*
X56509Y-4757D02*
D03*
X56059Y-5657D02*
D03*
X56509Y-6557D02*
D03*
X56059Y-7457D02*
D03*
X56509Y-8357D02*
D03*
X56059Y-9257D02*
D03*
X56509Y-10157D02*
D03*
X56059Y-11057D02*
D03*
X56509Y-11957D02*
D03*
X56059Y-12857D02*
D03*
X56509Y-13757D02*
D03*
X56059Y-14657D02*
D03*
X56509Y-15557D02*
D03*
X55609Y15043D02*
D03*
Y13243D02*
D03*
X55159Y12343D02*
D03*
X55609Y11443D02*
D03*
X55159Y10543D02*
D03*
X55609Y9643D02*
D03*
X55159Y8743D02*
D03*
X55609Y7843D02*
D03*
X55159Y6943D02*
D03*
X55609Y6043D02*
D03*
X55159Y5143D02*
D03*
X55609Y4243D02*
D03*
X55159Y3343D02*
D03*
X55609Y2443D02*
D03*
Y-2957D02*
D03*
X55159Y-3857D02*
D03*
X55609Y-4757D02*
D03*
X55159Y-5657D02*
D03*
X55609Y-6557D02*
D03*
X55159Y-7457D02*
D03*
X55609Y-8357D02*
D03*
X55159Y-9257D02*
D03*
X55609Y-10157D02*
D03*
X55159Y-11057D02*
D03*
X55609Y-11957D02*
D03*
Y-13757D02*
D03*
Y-15557D02*
D03*
X54259Y12343D02*
D03*
X54709Y11443D02*
D03*
X54259Y10543D02*
D03*
X54709Y9643D02*
D03*
X54259Y8743D02*
D03*
X54709Y7843D02*
D03*
X54259Y6943D02*
D03*
X54709Y6043D02*
D03*
X54259Y5143D02*
D03*
X54709Y4243D02*
D03*
X54259Y3343D02*
D03*
X54709Y2443D02*
D03*
Y-2957D02*
D03*
X54259Y-3857D02*
D03*
X54709Y-4757D02*
D03*
X54259Y-5657D02*
D03*
X54709Y-6557D02*
D03*
X54259Y-7457D02*
D03*
X54709Y-8357D02*
D03*
X54259Y-9257D02*
D03*
X54709Y-10157D02*
D03*
X54259Y-11057D02*
D03*
X54709Y-11957D02*
D03*
Y-15557D02*
D03*
X53359Y12343D02*
D03*
X53809Y11443D02*
D03*
X53359Y10543D02*
D03*
X53809Y9643D02*
D03*
X53359Y8743D02*
D03*
X53809Y7843D02*
D03*
X53359Y6943D02*
D03*
X53809Y6043D02*
D03*
X53359Y5143D02*
D03*
X53809Y4243D02*
D03*
X53359Y3343D02*
D03*
X53809Y2443D02*
D03*
Y-2957D02*
D03*
X53359Y-3857D02*
D03*
X53809Y-4757D02*
D03*
X53359Y-5657D02*
D03*
X53809Y-6557D02*
D03*
X53359Y-7457D02*
D03*
X53809Y-8357D02*
D03*
X53359Y-11057D02*
D03*
X53809Y-11957D02*
D03*
Y-15557D02*
D03*
X52909Y15043D02*
D03*
X52459Y12343D02*
D03*
X52909Y11443D02*
D03*
Y9643D02*
D03*
X52459Y8743D02*
D03*
X52909Y7843D02*
D03*
X52459Y6943D02*
D03*
X52909Y6043D02*
D03*
X52459Y5143D02*
D03*
X52909Y4243D02*
D03*
X52459Y3343D02*
D03*
X52909Y2443D02*
D03*
Y-2957D02*
D03*
X52459Y-3857D02*
D03*
X52909Y-4757D02*
D03*
X52459Y-5657D02*
D03*
X52909Y-6557D02*
D03*
X52459Y-7457D02*
D03*
X52909Y-8357D02*
D03*
X52459Y-9257D02*
D03*
Y-11057D02*
D03*
X52909Y-11957D02*
D03*
X52459Y-12857D02*
D03*
X52909Y-15557D02*
D03*
X51559Y12343D02*
D03*
X52009Y11443D02*
D03*
X51559Y10543D02*
D03*
X52009Y9643D02*
D03*
X51559Y8743D02*
D03*
X52009Y7843D02*
D03*
X51559Y6943D02*
D03*
X52009Y6043D02*
D03*
X51559Y5143D02*
D03*
X52009Y4243D02*
D03*
X51559Y3343D02*
D03*
X52009Y2443D02*
D03*
Y-2957D02*
D03*
X51559Y-3857D02*
D03*
X52009Y-4757D02*
D03*
X51559Y-5657D02*
D03*
X52009Y-6557D02*
D03*
X51559Y-7457D02*
D03*
X52009Y-8357D02*
D03*
X51559Y-11057D02*
D03*
X52009Y-15557D02*
D03*
X51109Y11443D02*
D03*
Y9643D02*
D03*
X50659Y8743D02*
D03*
X51109Y7843D02*
D03*
X50659Y6943D02*
D03*
X51109Y6043D02*
D03*
X50659Y5143D02*
D03*
X51109Y4243D02*
D03*
X50659Y3343D02*
D03*
X51109Y2443D02*
D03*
Y-2957D02*
D03*
X50659Y-3857D02*
D03*
X51109Y-4757D02*
D03*
X50659Y-5657D02*
D03*
X51109Y-6557D02*
D03*
X50659Y-7457D02*
D03*
X51109Y-8357D02*
D03*
X50659Y-9257D02*
D03*
Y-12857D02*
D03*
X51109Y-15557D02*
D03*
X50209Y9643D02*
D03*
X49759Y8743D02*
D03*
X50209Y7843D02*
D03*
X49759Y6943D02*
D03*
X50209Y6043D02*
D03*
X49759Y5143D02*
D03*
X50209Y4243D02*
D03*
X49759Y3343D02*
D03*
X50209Y2443D02*
D03*
Y-2957D02*
D03*
X49759Y-3857D02*
D03*
X50209Y-4757D02*
D03*
X49759Y-5657D02*
D03*
X50209Y-6557D02*
D03*
X49759Y-7457D02*
D03*
X50209Y-8357D02*
D03*
X49759Y-9257D02*
D03*
X48859Y12343D02*
D03*
X49309Y9643D02*
D03*
X48859Y8743D02*
D03*
X49309Y7843D02*
D03*
X48859Y6943D02*
D03*
X49309Y6043D02*
D03*
X48859Y5143D02*
D03*
X49309Y4243D02*
D03*
X48859Y3343D02*
D03*
X49309Y-4757D02*
D03*
Y-6557D02*
D03*
X48859Y-7457D02*
D03*
X49309Y-8357D02*
D03*
X48859Y-9257D02*
D03*
X48409Y9643D02*
D03*
X47959Y8743D02*
D03*
X48409Y7843D02*
D03*
X47959Y6943D02*
D03*
X48409Y6043D02*
D03*
X47959Y5143D02*
D03*
X48409Y4243D02*
D03*
X47959Y3343D02*
D03*
X48409Y-6557D02*
D03*
X47959Y-7457D02*
D03*
X48409Y-8357D02*
D03*
X47959Y-9257D02*
D03*
X47509Y15043D02*
D03*
Y9643D02*
D03*
X47059Y8743D02*
D03*
X47509Y-2957D02*
D03*
Y-8357D02*
D03*
X47059Y-9257D02*
D03*
X46159Y12343D02*
D03*
X46609Y9643D02*
D03*
Y-15557D02*
D03*
X45259Y12343D02*
D03*
X45709Y9643D02*
D03*
X45259Y5143D02*
D03*
X45709Y4243D02*
D03*
X45259Y3343D02*
D03*
Y-7457D02*
D03*
Y-9257D02*
D03*
X45709Y-15557D02*
D03*
X44359Y12343D02*
D03*
X44809Y9643D02*
D03*
X44359Y5143D02*
D03*
X44809Y4243D02*
D03*
X44359Y3343D02*
D03*
X44809Y-8357D02*
D03*
X44359Y-9257D02*
D03*
X43459Y12343D02*
D03*
X43909Y9643D02*
D03*
X43459Y6943D02*
D03*
X43909Y6043D02*
D03*
X43459Y5143D02*
D03*
X43909Y4243D02*
D03*
X43459Y3343D02*
D03*
X43909Y-4757D02*
D03*
X43459Y-5657D02*
D03*
X43909Y-8357D02*
D03*
X43459Y-9257D02*
D03*
X43009Y9643D02*
D03*
X42559Y6943D02*
D03*
X43009Y6043D02*
D03*
X42559Y5143D02*
D03*
X43009Y4243D02*
D03*
X42559Y3343D02*
D03*
X43009Y-4757D02*
D03*
X42559Y-5657D02*
D03*
X43009Y-6557D02*
D03*
Y-8357D02*
D03*
X42559Y-9257D02*
D03*
X42109Y9643D02*
D03*
X41659Y6943D02*
D03*
X42109Y6043D02*
D03*
X41659Y5143D02*
D03*
X42109Y4243D02*
D03*
X41659Y3343D02*
D03*
X42109Y-4757D02*
D03*
X41659Y-5657D02*
D03*
X42109Y-6557D02*
D03*
Y-8357D02*
D03*
X41659Y-9257D02*
D03*
X41209Y9643D02*
D03*
X40759Y6943D02*
D03*
X41209Y6043D02*
D03*
X40759Y5143D02*
D03*
X41209Y4243D02*
D03*
X40759Y3343D02*
D03*
X41209Y-4757D02*
D03*
Y-8357D02*
D03*
X40759Y-9257D02*
D03*
X40309Y9643D02*
D03*
X39859Y6943D02*
D03*
X40309Y6043D02*
D03*
X39859Y5143D02*
D03*
X40309Y4243D02*
D03*
X39859Y3343D02*
D03*
X40309Y-4757D02*
D03*
Y-8357D02*
D03*
X39859Y-9257D02*
D03*
X39409Y9643D02*
D03*
Y6043D02*
D03*
X38959Y5143D02*
D03*
X39409Y4243D02*
D03*
Y-4757D02*
D03*
Y-8357D02*
D03*
X38959Y-9257D02*
D03*
X38509Y9643D02*
D03*
X38059Y6943D02*
D03*
X38509Y4243D02*
D03*
Y-4757D02*
D03*
Y-8357D02*
D03*
X38059Y-9257D02*
D03*
X37609Y15043D02*
D03*
Y9643D02*
D03*
X37159Y5143D02*
D03*
X37609Y-4757D02*
D03*
Y-8357D02*
D03*
X37159Y-9257D02*
D03*
X36709Y9643D02*
D03*
Y-4757D02*
D03*
Y-8357D02*
D03*
X36259Y-9257D02*
D03*
X35809Y9643D02*
D03*
X35359Y5143D02*
D03*
X35809Y-4757D02*
D03*
X35359Y-9257D02*
D03*
X34909Y15043D02*
D03*
X34009Y9643D02*
D03*
X28609Y-15557D02*
D03*
X24559Y12343D02*
D03*
X21409Y9643D02*
D03*
X20059Y8743D02*
D03*
Y-12857D02*
D03*
X19609Y9643D02*
D03*
Y7843D02*
D03*
X18708Y9643D02*
D03*
X18259Y8743D02*
D03*
X18708Y7843D02*
D03*
X17809Y9643D02*
D03*
X17358Y8743D02*
D03*
X17809Y6043D02*
D03*
X17358Y5143D02*
D03*
Y3343D02*
D03*
Y1543D02*
D03*
X16909Y9643D02*
D03*
Y7843D02*
D03*
X16458Y6943D02*
D03*
Y5143D02*
D03*
X16909Y2443D02*
D03*
X16458Y1543D02*
D03*
X16008Y9643D02*
D03*
X15559Y8743D02*
D03*
X16008Y7843D02*
D03*
Y4243D02*
D03*
X15559Y3343D02*
D03*
X14658Y8743D02*
D03*
X15108Y6043D02*
D03*
Y4243D02*
D03*
X14658Y3343D02*
D03*
Y-3857D02*
D03*
Y-5657D02*
D03*
Y-7457D02*
D03*
Y-12857D02*
D03*
X13759Y8743D02*
D03*
X14208Y7843D02*
D03*
X13759Y6943D02*
D03*
X14208Y6043D02*
D03*
Y4243D02*
D03*
X13759Y3343D02*
D03*
Y-257D02*
D03*
X14208Y-4757D02*
D03*
X13759Y-5657D02*
D03*
X14208Y-6557D02*
D03*
X13759Y-7457D02*
D03*
X13309Y7843D02*
D03*
Y6043D02*
D03*
X12858Y5143D02*
D03*
Y1543D02*
D03*
X13309Y643D02*
D03*
X12858Y-257D02*
D03*
X13309Y-1157D02*
D03*
X12858Y-2057D02*
D03*
X13309Y-4757D02*
D03*
Y-6557D02*
D03*
X12408Y15043D02*
D03*
Y4243D02*
D03*
Y643D02*
D03*
Y-1157D02*
D03*
Y-2957D02*
D03*
Y-4757D02*
D03*
Y-6557D02*
D03*
X10158Y-11057D02*
D03*
X9708Y15043D02*
D03*
X9259Y-9257D02*
D03*
Y-11057D02*
D03*
X9708Y-11957D02*
D03*
X9259Y-12857D02*
D03*
X8358Y5143D02*
D03*
Y3343D02*
D03*
X8809Y2443D02*
D03*
X8358Y1543D02*
D03*
X8809Y643D02*
D03*
X8358Y-257D02*
D03*
X8809Y-1157D02*
D03*
X8358Y-2057D02*
D03*
X8809Y-2957D02*
D03*
X8358Y-3857D02*
D03*
X8809Y-8357D02*
D03*
X8358Y-9257D02*
D03*
Y-11057D02*
D03*
X8809Y-11957D02*
D03*
X7458Y8743D02*
D03*
Y5143D02*
D03*
X7909Y4243D02*
D03*
X7458Y3343D02*
D03*
X7909Y2443D02*
D03*
X7458Y1543D02*
D03*
X7909Y643D02*
D03*
X7458Y-257D02*
D03*
X7909Y-1157D02*
D03*
X7458Y-2057D02*
D03*
X7909Y-2957D02*
D03*
X7458Y-3857D02*
D03*
Y-5657D02*
D03*
X7909Y-8357D02*
D03*
X7458Y-9257D02*
D03*
Y-11057D02*
D03*
X7909Y-11957D02*
D03*
X7458Y-12857D02*
D03*
X6558Y12343D02*
D03*
Y10543D02*
D03*
Y8743D02*
D03*
X7008Y7843D02*
D03*
X6558Y5143D02*
D03*
X7008Y4243D02*
D03*
X6558Y3343D02*
D03*
X7008Y2443D02*
D03*
X6558Y1543D02*
D03*
X7008Y643D02*
D03*
X6558Y-257D02*
D03*
X7008Y-1157D02*
D03*
X6558Y-2057D02*
D03*
X7008Y-2957D02*
D03*
X6558Y-3857D02*
D03*
X7008Y-6557D02*
D03*
Y-8357D02*
D03*
X6558Y-9257D02*
D03*
X7008Y-11957D02*
D03*
X5659Y12343D02*
D03*
X6108Y11443D02*
D03*
Y6043D02*
D03*
X5659Y5143D02*
D03*
X6108Y4243D02*
D03*
X5659Y3343D02*
D03*
X6108Y2443D02*
D03*
X5659Y1543D02*
D03*
X6108Y643D02*
D03*
X5659Y-257D02*
D03*
X6108Y-1157D02*
D03*
X5659Y-2057D02*
D03*
X6108Y-2957D02*
D03*
X5659Y-3857D02*
D03*
Y-5657D02*
D03*
X6108Y-11957D02*
D03*
Y-15557D02*
D03*
X4758Y5143D02*
D03*
X5208Y4243D02*
D03*
X4758Y3343D02*
D03*
X5208Y2443D02*
D03*
X4758Y1543D02*
D03*
X5208Y643D02*
D03*
X4758Y-257D02*
D03*
X5208Y-1157D02*
D03*
X4758Y-2057D02*
D03*
X5208Y-2957D02*
D03*
X4758Y-3857D02*
D03*
X5208Y-4757D02*
D03*
X4758Y-5657D02*
D03*
X5208Y-11957D02*
D03*
X4758Y-12857D02*
D03*
X5208Y-15557D02*
D03*
X4308Y15043D02*
D03*
X3858Y14143D02*
D03*
X4308Y13243D02*
D03*
X3858Y12343D02*
D03*
X4308Y11443D02*
D03*
X3858Y5143D02*
D03*
X4308Y4243D02*
D03*
X3858Y3343D02*
D03*
X4308Y2443D02*
D03*
X3858Y1543D02*
D03*
X4308Y643D02*
D03*
X3858Y-257D02*
D03*
X4308Y-1157D02*
D03*
X3858Y-2057D02*
D03*
X4308Y-2957D02*
D03*
X3858Y-3857D02*
D03*
X4308Y-4757D02*
D03*
X3858Y-5657D02*
D03*
Y-11057D02*
D03*
X4308Y-11957D02*
D03*
X3858Y-12857D02*
D03*
Y-14657D02*
D03*
X4308Y-15557D02*
D03*
X3408Y15043D02*
D03*
Y13243D02*
D03*
X2958Y12343D02*
D03*
X3408Y11443D02*
D03*
X2958Y10543D02*
D03*
X3408Y9643D02*
D03*
X2958Y8743D02*
D03*
X3408Y7843D02*
D03*
X2958Y6943D02*
D03*
X3408Y6043D02*
D03*
X2958Y5143D02*
D03*
X3408Y4243D02*
D03*
X2958Y3343D02*
D03*
X3408Y2443D02*
D03*
X2958Y1543D02*
D03*
X3408Y643D02*
D03*
X2958Y-257D02*
D03*
X3408Y-1157D02*
D03*
X2958Y-2057D02*
D03*
X3408Y-2957D02*
D03*
X2958Y-3857D02*
D03*
X3408Y-4757D02*
D03*
X2958Y-5657D02*
D03*
X3408Y-6557D02*
D03*
X2958Y-7457D02*
D03*
X3408Y-8357D02*
D03*
X2958Y-9257D02*
D03*
X3408Y-10157D02*
D03*
X2958Y-11057D02*
D03*
X3408Y-11957D02*
D03*
X2958Y-12857D02*
D03*
Y-14657D02*
D03*
X3408Y-15557D02*
D03*
X2508Y13243D02*
D03*
X2058Y12343D02*
D03*
X2508Y11443D02*
D03*
X2058Y10543D02*
D03*
X2508Y9643D02*
D03*
X2058Y8743D02*
D03*
X2508Y7843D02*
D03*
X2058Y6943D02*
D03*
X2508Y6043D02*
D03*
X2058Y5143D02*
D03*
X2508Y4243D02*
D03*
X2058Y3343D02*
D03*
X2508Y2443D02*
D03*
X2058Y1543D02*
D03*
X2508Y643D02*
D03*
X2058Y-257D02*
D03*
X2508Y-1157D02*
D03*
X2058Y-2057D02*
D03*
X2508Y-2957D02*
D03*
X2058Y-3857D02*
D03*
X2508Y-4757D02*
D03*
X2058Y-5657D02*
D03*
X2508Y-6557D02*
D03*
X2058Y-7457D02*
D03*
X2508Y-8357D02*
D03*
X2058Y-9257D02*
D03*
X2508Y-10157D02*
D03*
X2058Y-11057D02*
D03*
X2508Y-11957D02*
D03*
X2058Y-12857D02*
D03*
X2508Y-13757D02*
D03*
X2058Y-14657D02*
D03*
X2508Y-15557D02*
D03*
X1608Y13243D02*
D03*
Y11443D02*
D03*
Y9643D02*
D03*
Y7843D02*
D03*
Y6043D02*
D03*
Y4243D02*
D03*
Y2443D02*
D03*
Y643D02*
D03*
Y-1157D02*
D03*
Y-2957D02*
D03*
Y-4757D02*
D03*
Y-6557D02*
D03*
Y-8357D02*
D03*
Y-10157D02*
D03*
Y-11957D02*
D03*
Y-13757D02*
D03*
Y-15557D02*
D03*
X36347Y-2251D02*
D03*
X36327Y1896D02*
D03*
X36395Y2893D02*
D03*
X46062Y-1175D02*
D03*
X48581Y904D02*
D03*
X48878Y-717D02*
D03*
X49413Y-1066D02*
D03*
X50156D02*
D03*
X47428Y-1000D02*
D03*
X47244Y-1632D02*
D03*
X50630Y-1462D02*
D03*
X53129Y-1066D02*
D03*
X52386D02*
D03*
X54615D02*
D03*
X53872D02*
D03*
X56101D02*
D03*
X55358D02*
D03*
X61263Y-1405D02*
D03*
X62006D02*
D03*
X59777D02*
D03*
X60520D02*
D03*
X58291D02*
D03*
X59034D02*
D03*
X56744Y-1066D02*
D03*
X51890Y-1462D02*
D03*
X59030Y1456D02*
D03*
X58287D02*
D03*
X60516D02*
D03*
X59773D02*
D03*
X62002D02*
D03*
X61259D02*
D03*
X57708Y1139D02*
D03*
X56322D02*
D03*
X57065D02*
D03*
X54836D02*
D03*
X55579D02*
D03*
X53349D02*
D03*
X54093D02*
D03*
X51963D02*
D03*
X52706D02*
D03*
X50477D02*
D03*
X51220D02*
D03*
X49734D02*
D03*
X49042Y1224D02*
D03*
X43119Y1116D02*
D03*
X42376D02*
D03*
X44506D02*
D03*
X43762D02*
D03*
X45992D02*
D03*
X45249D02*
D03*
X46735D02*
D03*
X45425Y-1047D02*
D03*
X43938D02*
D03*
X44681D02*
D03*
X42452D02*
D03*
X43195D02*
D03*
X41066D02*
D03*
X41809D02*
D03*
X39580D02*
D03*
X40323D02*
D03*
X38836D02*
D03*
X36155Y-751D02*
D03*
X38093Y-1047D02*
D03*
X35374Y-751D02*
D03*
X39711Y2400D02*
D03*
X38225D02*
D03*
X38968D02*
D03*
X37482D02*
D03*
X36947Y1114D02*
D03*
Y1857D02*
D03*
X36265Y1161D02*
D03*
X37626Y-1439D02*
D03*
X36365D02*
D03*
X36969Y-1648D02*
D03*
X51220Y-1610D02*
D03*
X37837Y-2466D02*
D03*
X38580D02*
D03*
X40066D02*
D03*
X39323D02*
D03*
X41552D02*
D03*
X40809D02*
D03*
X42939D02*
D03*
X42195D02*
D03*
X44425D02*
D03*
X43682D02*
D03*
X37812Y-3575D02*
D03*
X38555D02*
D03*
X40041D02*
D03*
X39298D02*
D03*
X41527D02*
D03*
X40784D02*
D03*
X42913D02*
D03*
X42170D02*
D03*
X43657D02*
D03*
X45132Y-3446D02*
D03*
X44400Y-3575D02*
D03*
X45805Y-3132D02*
D03*
X46374Y-2654D02*
D03*
X46900Y-2129D02*
D03*
X45668Y-1674D02*
D03*
X45098Y-2152D02*
D03*
X36539Y-3979D02*
D03*
X37282D02*
D03*
X35053D02*
D03*
X35796D02*
D03*
X34309D02*
D03*
X35604Y-2251D02*
D03*
X44877Y1648D02*
D03*
X45621D02*
D03*
X43391D02*
D03*
X44134D02*
D03*
X42748D02*
D03*
X37882Y2893D02*
D03*
X37138D02*
D03*
X39368D02*
D03*
X38625D02*
D03*
X36739Y2400D02*
D03*
X46364Y1648D02*
D03*
X46048Y2152D02*
D03*
X40946D02*
D03*
X40203D02*
D03*
X42433D02*
D03*
X41690D02*
D03*
X43819D02*
D03*
X43076D02*
D03*
X45305D02*
D03*
X44562D02*
D03*
X44759Y-4069D02*
D03*
X44016D02*
D03*
X42529D02*
D03*
X43272D02*
D03*
X41143D02*
D03*
X41886D02*
D03*
X39657D02*
D03*
X40400D02*
D03*
X38914D02*
D03*
X38171D02*
D03*
X46849Y-3208D02*
D03*
X44326Y-1734D02*
D03*
X42840D02*
D03*
X43583D02*
D03*
X41453D02*
D03*
X42196D02*
D03*
X39967D02*
D03*
X40710D02*
D03*
X39224D02*
D03*
X38481D02*
D03*
X45018Y-1520D02*
D03*
X57411Y1695D02*
D03*
X55925D02*
D03*
X56668D02*
D03*
X54439D02*
D03*
X55182D02*
D03*
X53052D02*
D03*
X53795D02*
D03*
X51566D02*
D03*
X52309D02*
D03*
X50823D02*
D03*
X50080D02*
D03*
X49337D02*
D03*
X52774Y-1646D02*
D03*
X53517D02*
D03*
X55003D02*
D03*
X54260D02*
D03*
X56490D02*
D03*
X55746D02*
D03*
X49800Y-1574D02*
D03*
X57803Y-1727D02*
D03*
X57160D02*
D03*
X53164Y-2240D02*
D03*
X54650D02*
D03*
X53907Y-2240D02*
D03*
X55393Y-2240D02*
D03*
X56136D02*
D03*
X57623Y-2240D02*
D03*
X56879D02*
D03*
X52421Y-2240D02*
D03*
X51678Y-2240D02*
D03*
X50934D02*
D03*
X49448Y-2240D02*
D03*
X50191Y-2240D02*
D03*
X40147Y1116D02*
D03*
X40890D02*
D03*
X42005Y1648D02*
D03*
X40519D02*
D03*
X41262D02*
D03*
X41633Y1116D02*
D03*
X28484Y-8637D02*
D03*
X28590Y-8053D02*
D03*
X52202Y10719D02*
D03*
X49382Y10956D02*
D03*
X50005D02*
D03*
X50628D02*
D03*
X53417Y-9880D02*
D03*
X52794D02*
D03*
X52171D02*
D03*
X51548D02*
D03*
X50925D02*
D03*
X50302D02*
D03*
X48432D02*
D03*
X49055D02*
D03*
X49678D02*
D03*
X28811Y5677D02*
D03*
X27979Y5686D02*
D03*
D83*
X26990Y10061D02*
D03*
X34515Y-781D02*
D03*
X36443Y-6409D02*
D03*
X35732Y-9861D02*
D03*
X36192D02*
D03*
X36652D02*
D03*
X37572D02*
D03*
X37112D02*
D03*
X38492D02*
D03*
X38032D02*
D03*
X39412D02*
D03*
X38952D02*
D03*
X40332D02*
D03*
X39872D02*
D03*
X40792D02*
D03*
X14083Y-3337D02*
D03*
X14521Y-3337D02*
D03*
X14089Y2760D02*
D03*
X14527Y2760D02*
D03*
X14229Y67D02*
D03*
X14229Y505D02*
D03*
X14229Y942D02*
D03*
X13556Y1721D02*
D03*
X13556Y1283D02*
D03*
Y2158D02*
D03*
X13556Y2595D02*
D03*
X22953Y11133D02*
D03*
X22953Y11593D02*
D03*
X22953Y12053D02*
D03*
X22953Y12514D02*
D03*
X34543Y10920D02*
D03*
X35003D02*
D03*
X35923D02*
D03*
X35463D02*
D03*
X36843D02*
D03*
X36383D02*
D03*
X33623D02*
D03*
X34083D02*
D03*
X32703D02*
D03*
X33163D02*
D03*
X31782D02*
D03*
X32243D02*
D03*
X30862D02*
D03*
X31322D02*
D03*
X29942D02*
D03*
X30402D02*
D03*
X29482D02*
D03*
X29022D02*
D03*
X28562D02*
D03*
X33770Y-6175D02*
D03*
X34720Y-6093D02*
D03*
X32074Y-3176D02*
D03*
X33846Y-3460D02*
D03*
X32848Y-5450D02*
D03*
X26047Y-7896D02*
D03*
X26839Y-8688D02*
D03*
X28189Y9800D02*
D03*
X27627Y10173D02*
D03*
X20330Y1977D02*
D03*
X20368Y2413D02*
D03*
X20757Y2818D02*
D03*
X32689Y3312D02*
D03*
X33161Y3102D02*
D03*
X31492Y2716D02*
D03*
X31338Y2284D02*
D03*
X38871Y6424D02*
D03*
X37712Y5840D02*
D03*
X38130Y5131D02*
D03*
X37530Y4279D02*
D03*
X35945Y4579D02*
D03*
X34731Y4626D02*
D03*
X36426Y5083D02*
D03*
X35937Y6030D02*
D03*
X39092Y7292D02*
D03*
X38351Y7450D02*
D03*
X37467Y7347D02*
D03*
X37175Y6850D02*
D03*
X36403Y6716D02*
D03*
X34153Y4174D02*
D03*
X26519Y5029D02*
D03*
X26311Y4599D02*
D03*
X26089Y5052D02*
D03*
X39410Y7910D02*
D03*
X38696Y7915D02*
D03*
X37873Y7914D02*
D03*
X37214Y7893D02*
D03*
X35275Y6267D02*
D03*
X34764Y5807D02*
D03*
X34207Y5359D02*
D03*
X25738Y6196D02*
D03*
X26213Y5818D02*
D03*
X26724Y5453D02*
D03*
X33560Y4080D02*
D03*
X33951Y3632D02*
D03*
X33320Y3639D02*
D03*
X33793Y4709D02*
D03*
X32153Y9049D02*
D03*
X32261Y9613D02*
D03*
X30819Y8826D02*
D03*
X23944Y-2575D02*
D03*
X24866Y4204D02*
D03*
X22340Y3618D02*
D03*
X24226Y5206D02*
D03*
X24344Y1033D02*
D03*
X21115Y-7561D02*
D03*
X23475Y-8300D02*
D03*
X22925Y-2475D02*
D03*
X21526Y-8769D02*
D03*
X22772Y-9161D02*
D03*
X24901Y-8629D02*
D03*
X26093Y-9646D02*
D03*
X32502Y-6400D02*
D03*
X33800Y-5225D02*
D03*
X31803Y-5706D02*
D03*
X33355Y-3207D02*
D03*
X31140Y-6386D02*
D03*
X31718Y-8396D02*
D03*
X31826Y-2226D02*
D03*
X34599Y2789D02*
D03*
X24062Y1368D02*
D03*
X34296Y-2403D02*
D03*
X26384Y2855D02*
D03*
X26064Y3162D02*
D03*
X25766Y3473D02*
D03*
X23732Y6055D02*
D03*
X25176Y5195D02*
D03*
X28038Y-15213D02*
D03*
X27380Y4584D02*
D03*
X27230Y4995D02*
D03*
X26842Y4685D02*
D03*
X14226Y-508D02*
D03*
X14226Y-945D02*
D03*
Y-1820D02*
D03*
X14226Y-1383D02*
D03*
X13600Y-1844D02*
D03*
X13600Y-2281D02*
D03*
Y-3156D02*
D03*
X13600Y-2719D02*
D03*
X18737Y-4666D02*
D03*
X21045Y-3996D02*
D03*
X19734Y-3559D02*
D03*
X19293Y-4458D02*
D03*
X19293Y-4021D02*
D03*
X19293Y-3584D02*
D03*
X17887Y-4666D02*
D03*
X29385Y-9223D02*
D03*
X29822Y-9223D02*
D03*
X31134Y-9223D02*
D03*
X31572D02*
D03*
X30697Y-9223D02*
D03*
X30260Y-9223D02*
D03*
X31718Y-8832D02*
D03*
X23627Y-6571D02*
D03*
X22429Y1674D02*
D03*
X22429Y1237D02*
D03*
X22417Y-6969D02*
D03*
X21980Y-6969D02*
D03*
X21543Y-6969D02*
D03*
X20240Y-7561D02*
D03*
X19803Y-7561D02*
D03*
X20677Y-7561D02*
D03*
X22497Y2226D02*
D03*
X22934Y2226D02*
D03*
X23372Y2226D02*
D03*
X22069Y2818D02*
D03*
X21632Y2818D02*
D03*
X21195Y2818D02*
D03*
X24043Y-5865D02*
D03*
X32427Y1212D02*
D03*
X24391Y-5600D02*
D03*
X34508Y1253D02*
D03*
X22776Y4575D02*
D03*
D84*
X26048Y-4408D02*
D03*
X35382Y3882D02*
D03*
X61899Y2819D02*
D03*
X61929Y-2845D02*
D03*
X45402Y-6230D02*
D03*
X61105Y2833D02*
D03*
X58537Y2857D02*
D03*
X60246Y2857D02*
D03*
X59392Y2857D02*
D03*
X61112Y-2827D02*
D03*
X58543Y-2803D02*
D03*
X60253Y-2803D02*
D03*
X59398Y-2803D02*
D03*
X707Y-16381D02*
D03*
X1562D02*
D03*
X2417D02*
D03*
X4126D02*
D03*
X5836D02*
D03*
X4981D02*
D03*
X3272D02*
D03*
X732Y-13764D02*
D03*
X732Y-12054D02*
D03*
X732Y-11200D02*
D03*
X732Y-12909D02*
D03*
Y-14619D02*
D03*
Y-15474D02*
D03*
X756Y-10341D02*
D03*
Y-9486D02*
D03*
Y-7776D02*
D03*
X756Y-6067D02*
D03*
X756Y-6921D02*
D03*
X756Y-8631D02*
D03*
X805Y1635D02*
D03*
X805Y3345D02*
D03*
X805Y4199D02*
D03*
X805Y2490D02*
D03*
Y780D02*
D03*
Y-75D02*
D03*
X780Y-5208D02*
D03*
Y-4353D02*
D03*
Y-2643D02*
D03*
X780Y-934D02*
D03*
X780Y-1788D02*
D03*
X780Y-3498D02*
D03*
X853Y11901D02*
D03*
X853Y13610D02*
D03*
X853Y14465D02*
D03*
X853Y12756D02*
D03*
Y11046D02*
D03*
Y10191D02*
D03*
X829Y5058D02*
D03*
Y5913D02*
D03*
Y7623D02*
D03*
X829Y9332D02*
D03*
X829Y8478D02*
D03*
X829Y6768D02*
D03*
X853Y15320D02*
D03*
X18670Y-16381D02*
D03*
X20380D02*
D03*
X21235D02*
D03*
X19525D02*
D03*
X17816D02*
D03*
X16961D02*
D03*
X22094D02*
D03*
X22949D02*
D03*
X24658D02*
D03*
X26368D02*
D03*
X25513D02*
D03*
X23803D02*
D03*
X13537D02*
D03*
X15247D02*
D03*
X16102D02*
D03*
X14392D02*
D03*
X12683D02*
D03*
X11828D02*
D03*
X6695D02*
D03*
X7550D02*
D03*
X9259D02*
D03*
X10969D02*
D03*
X10114D02*
D03*
X8405D02*
D03*
X39202D02*
D03*
X40912D02*
D03*
X41767D02*
D03*
X40057D02*
D03*
X38347D02*
D03*
X37493D02*
D03*
X42626D02*
D03*
X43480D02*
D03*
X45190D02*
D03*
X46900D02*
D03*
X46045D02*
D03*
X44335D02*
D03*
X34069D02*
D03*
X35779D02*
D03*
X36634D02*
D03*
X34924D02*
D03*
X33215D02*
D03*
X32360D02*
D03*
X27227D02*
D03*
X28082D02*
D03*
X29791D02*
D03*
X31501D02*
D03*
X30646D02*
D03*
X28936D02*
D03*
X59734D02*
D03*
X61444D02*
D03*
X60589D02*
D03*
X58879D02*
D03*
X58025D02*
D03*
X54601D02*
D03*
X56311D02*
D03*
X57166D02*
D03*
X55456D02*
D03*
X53746D02*
D03*
X52892D02*
D03*
X47759D02*
D03*
X48613D02*
D03*
X50323D02*
D03*
X52033D02*
D03*
X51178D02*
D03*
X49468D02*
D03*
X61878Y-3919D02*
D03*
X61878Y-5629D02*
D03*
X61878Y-6483D02*
D03*
X61878Y-4774D02*
D03*
X61935Y-7346D02*
D03*
X61935Y-8201D02*
D03*
X61935Y-9911D02*
D03*
X61935Y-11620D02*
D03*
X61935Y-10766D02*
D03*
X61935Y-9056D02*
D03*
X61911Y-12479D02*
D03*
X61911Y-13334D02*
D03*
X61911Y-15044D02*
D03*
X61911Y-15899D02*
D03*
X61911Y-14189D02*
D03*
X61931Y14690D02*
D03*
Y15544D02*
D03*
Y13835D02*
D03*
Y12980D02*
D03*
Y9557D02*
D03*
Y11266D02*
D03*
Y12121D02*
D03*
Y10412D02*
D03*
Y8702D02*
D03*
Y7847D02*
D03*
Y5279D02*
D03*
Y6988D02*
D03*
Y6133D02*
D03*
Y4424D02*
D03*
X13184Y16401D02*
D03*
X11474Y16401D02*
D03*
X10619Y16401D02*
D03*
X12329Y16401D02*
D03*
X14039Y16401D02*
D03*
X14893Y16401D02*
D03*
X9760Y16401D02*
D03*
X8906D02*
D03*
X7196Y16401D02*
D03*
X5486D02*
D03*
X6341Y16401D02*
D03*
X8051D02*
D03*
X4627Y16401D02*
D03*
X3773Y16401D02*
D03*
X2063D02*
D03*
X2918D02*
D03*
X33716Y16401D02*
D03*
X32006D02*
D03*
X31151Y16401D02*
D03*
X32861Y16401D02*
D03*
X34570Y16401D02*
D03*
X35425Y16401D02*
D03*
X30292Y16401D02*
D03*
X29437Y16401D02*
D03*
X27728Y16401D02*
D03*
X26018Y16401D02*
D03*
X26873Y16401D02*
D03*
X28583Y16401D02*
D03*
X18317Y16401D02*
D03*
X16607D02*
D03*
X15752D02*
D03*
X17462D02*
D03*
X19171Y16401D02*
D03*
X20026Y16401D02*
D03*
X25159Y16401D02*
D03*
X24304Y16401D02*
D03*
X22595Y16401D02*
D03*
X20885Y16401D02*
D03*
X21740Y16401D02*
D03*
X23450D02*
D03*
X54247Y16401D02*
D03*
X52538Y16401D02*
D03*
X51683Y16401D02*
D03*
X53393Y16401D02*
D03*
X55102Y16401D02*
D03*
X55957Y16401D02*
D03*
X50824D02*
D03*
X49969Y16401D02*
D03*
X48260Y16401D02*
D03*
X46550D02*
D03*
X47405Y16401D02*
D03*
X49114Y16401D02*
D03*
X38849D02*
D03*
X37139D02*
D03*
X36284Y16401D02*
D03*
X37994Y16401D02*
D03*
X39703Y16401D02*
D03*
X40558Y16401D02*
D03*
X45691D02*
D03*
X44836Y16401D02*
D03*
X43127Y16401D02*
D03*
X41417Y16401D02*
D03*
X42272Y16401D02*
D03*
X43981D02*
D03*
X59380Y16401D02*
D03*
X57671Y16401D02*
D03*
X56816Y16401D02*
D03*
X58526Y16401D02*
D03*
X60235D02*
D03*
X61090D02*
D03*
X61931D02*
D03*
X1152Y16192D02*
D03*
X45367Y7835D02*
D03*
X57679Y3068D02*
D03*
X59094Y-14178D02*
D03*
X48584Y-12320D02*
D03*
Y-11432D02*
D03*
X22434Y-10286D02*
D03*
X7471Y5891D02*
D03*
X20015Y902D02*
D03*
X20040Y-228D02*
D03*
X19338Y2794D02*
D03*
X36632Y4135D02*
D03*
X36665Y7477D02*
D03*
X36743Y6011D02*
D03*
X35643Y6816D02*
D03*
X23086Y-5901D02*
D03*
X21649Y-2453D02*
D03*
X25981Y-500D02*
D03*
Y-3150D02*
D03*
X31134Y5439D02*
D03*
X32059D02*
D03*
X45405Y6448D02*
D03*
X21423Y5656D02*
D03*
X29956Y-500D02*
D03*
X28631D02*
D03*
X29956Y-1825D02*
D03*
X27306Y-1850D02*
D03*
X26893Y3747D02*
D03*
X26698Y8875D02*
D03*
X52017Y-11933D02*
D03*
X52588Y15731D02*
D03*
X51388D02*
D03*
X50188D02*
D03*
X48988D02*
D03*
X47788D02*
D03*
X46588D02*
D03*
X45388D02*
D03*
X56398Y15708D02*
D03*
X55198D02*
D03*
X53998D02*
D03*
X40263Y15731D02*
D03*
X39063D02*
D03*
X37863D02*
D03*
X36663D02*
D03*
X35463D02*
D03*
X34263D02*
D03*
X33063D02*
D03*
X44073Y15708D02*
D03*
X42873D02*
D03*
X41673D02*
D03*
X14273Y15691D02*
D03*
X15473D02*
D03*
X16673D02*
D03*
X17873D02*
D03*
X19073D02*
D03*
X6862Y15714D02*
D03*
X8062D02*
D03*
X9262D02*
D03*
X10462D02*
D03*
X11662D02*
D03*
X12862D02*
D03*
X27306Y-4475D02*
D03*
X28631Y-3150D02*
D03*
X28631Y-4475D02*
D03*
X27306Y-3175D02*
D03*
X25981Y-1825D02*
D03*
X8517Y6098D02*
D03*
X8699Y4215D02*
D03*
X7472Y9937D02*
D03*
X7454Y11828D02*
D03*
X14768Y9541D02*
D03*
X12597Y8176D02*
D03*
X12615Y6284D02*
D03*
X8130Y-6260D02*
D03*
X6570Y-5190D02*
D03*
X8131Y-4713D02*
D03*
X11636Y-10928D02*
D03*
X11635Y-12476D02*
D03*
X3657Y-13818D02*
D03*
X22103Y11158D02*
D03*
X20692Y9952D02*
D03*
X19232Y8749D02*
D03*
X13029Y-5875D02*
D03*
X13376Y-3878D02*
D03*
X13504Y4706D02*
D03*
X15277Y5018D02*
D03*
X12736Y3016D02*
D03*
X16602Y3693D02*
D03*
X15065Y7311D02*
D03*
X16390Y8661D02*
D03*
Y6011D02*
D03*
X17715Y7336D02*
D03*
X16644Y-5905D02*
D03*
X15866Y-5019D02*
D03*
X19209Y-5337D02*
D03*
X27770Y3705D02*
D03*
X19192Y-6285D02*
D03*
X33790Y6287D02*
D03*
X29956Y-3150D02*
D03*
X21940Y-4374D02*
D03*
X28631Y-1825D02*
D03*
X24998Y8187D02*
D03*
X27306Y-525D02*
D03*
X29956Y-4475D02*
D03*
X45398Y-4731D02*
D03*
M02*
